M48
; DRILL file {KiCad 9.0.6} date 2026-03-25T19:26:40-0700
; FORMAT={-:-/ absolute / metric / decimal}
; #@! TF.CreationDate,2026-03-25T19:26:40-07:00
; #@! TF.GenerationSoftware,Kicad,Pcbnew,9.0.6
; #@! TF.FileFunction,Plated,1,2,PTH
FMAT,2
METRIC
; #@! TA.AperFunction,Plated,PTH,ViaDrill
T1C0.300
; #@! TA.AperFunction,Plated,PTH,ViaDrill
T2C0.750
; #@! TA.AperFunction,Plated,PTH,ViaDrill
T3C1.000
; #@! TA.AperFunction,Plated,PTH,ComponentDrill
T4C1.000
; #@! TA.AperFunction,Plated,PTH,ComponentDrill
T5C1.295
; #@! TA.AperFunction,Plated,PTH,ComponentDrill
T6C1.500
; #@! TA.AperFunction,Plated,PTH,ComponentDrill
T7C2.500
%
G90
G05
T1
X39.75Y-59.25
X45.75Y-62.5
X48.0Y-56.5
X52.25Y-56.5
X54.0Y-62.5
X54.5Y-61.25
X55.75Y-74.25
X56.0Y-56.5
X58.0Y-74.95
X62.25Y-58.75
X63.75Y-56.4
X68.701Y-57.799
X71.5Y-56.5
X74.0Y-61.0
X74.75Y-61.9
X75.0Y-64.5
X75.25Y-65.75
X76.25Y-63.25
X77.326Y-62.924
X77.49Y-72.24
X77.701Y-68.049
X126.25Y-69.25
X135.0Y-72.0
X135.25Y-60.25
X141.25Y-60.75
X141.5Y-68.0
X146.5Y-71.5
X149.25Y-71.75
X149.5Y-68.75
X151.5Y-69.75
X154.75Y-59.5
X156.0Y-53.25
X156.5Y-61.5
X157.0Y-65.25
X160.75Y-66.0
X163.75Y-64.25
X165.0Y-56.25
X165.5Y-61.5
X169.5Y-54.0
X194.5Y-53.75
X203.5Y-65.5
X209.75Y-55.0
X217.5Y-65.5
X217.75Y-67.75
T2
X168.5Y-62.25
X175.25Y-62.25
X189.75Y-61.5
X189.75Y-63.5
X205.75Y-62.5
X210.75Y-60.5
X212.0Y-62.6
T3
X117.75Y-61.0
T4
X35.32Y-53.76
X35.32Y-69.0
X37.86Y-53.76
X37.86Y-69.0
X40.4Y-53.76
X40.4Y-69.0
X42.94Y-53.76
X42.94Y-69.0
X45.48Y-53.76
X45.48Y-69.0
X48.02Y-53.76
X48.02Y-69.0
X50.56Y-53.76
X50.56Y-69.0
X53.1Y-53.76
X53.1Y-69.0
X55.64Y-53.76
X55.64Y-69.0
X58.18Y-53.76
X58.18Y-69.0
X60.72Y-53.76
X60.72Y-69.0
X63.26Y-53.76
X63.26Y-69.0
X65.8Y-53.76
X65.8Y-69.0
X68.34Y-53.76
X68.34Y-69.0
X70.88Y-53.76
X70.88Y-69.0
X224.5Y-59.35
X224.5Y-61.85
X224.5Y-64.35
X239.0Y-59.35
X239.0Y-64.35
X243.0Y-59.35
X243.0Y-61.85
X243.0Y-64.35
X257.5Y-59.35
X257.5Y-64.35
T5
X118.0Y-67.95
X123.0Y-67.95
T7
X96.25Y-63.25
X106.25Y-63.25
T4
G00X77.5Y-57.25
M15
G01X77.5Y-58.75
M16
G05
G00X81.35Y-59.0
M15
G01X82.65Y-59.0
M16
G05
G00X81.0Y-65.0
M15
G01X83.0Y-65.0
M16
G05
G00X86.5Y-57.25
M15
G01X86.5Y-58.75
M16
G05
T6
G00X231.35Y-56.25
M15
G01X232.65Y-56.25
M16
G05
G00X231.35Y-67.45
M15
G01X232.65Y-67.45
M16
G05
G00X249.85Y-56.25
M15
G01X251.15Y-56.25
M16
G05
G00X249.85Y-67.45
M15
G01X251.15Y-67.45
M16
G05
M30
