%TF.GenerationSoftware,KiCad,Pcbnew,9.0.6*%
%TF.CreationDate,2026-03-25T19:26:48-07:00*%
%TF.ProjectId,Sidebar,53696465-6261-4722-9e6b-696361645f70,rev?*%
%TF.SameCoordinates,Original*%
%TF.FileFunction,Soldermask,Bot*%
%TF.FilePolarity,Negative*%
%FSLAX46Y46*%
G04 Gerber Fmt 4.6, Leading zero omitted, Abs format (unit mm)*
G04 Created by KiCad (PCBNEW 9.0.6) date 2026-03-25 19:26:48*
%MOMM*%
%LPD*%
G01*
G04 APERTURE LIST*
G04 Aperture macros list*
%AMRoundRect*
0 Rectangle with rounded corners*
0 $1 Rounding radius*
0 $2 $3 $4 $5 $6 $7 $8 $9 X,Y pos of 4 corners*
0 Add a 4 corners polygon primitive as box body*
4,1,4,$2,$3,$4,$5,$6,$7,$8,$9,$2,$3,0*
0 Add four circle primitives for the rounded corners*
1,1,$1+$1,$2,$3*
1,1,$1+$1,$4,$5*
1,1,$1+$1,$6,$7*
1,1,$1+$1,$8,$9*
0 Add four rect primitives between the rounded corners*
20,1,$1+$1,$2,$3,$4,$5,0*
20,1,$1+$1,$4,$5,$6,$7,0*
20,1,$1+$1,$6,$7,$8,$9,0*
20,1,$1+$1,$8,$9,$2,$3,0*%
G04 Aperture macros list end*
%ADD10R,2.000000X2.000000*%
%ADD11C,2.000000*%
%ADD12R,3.200000X2.000000*%
%ADD13C,2.200000*%
%ADD14RoundRect,0.250000X0.450000X-0.262500X0.450000X0.262500X-0.450000X0.262500X-0.450000X-0.262500X0*%
%ADD15R,1.600000X1.600000*%
%ADD16O,1.600000X1.600000*%
%ADD17RoundRect,0.250000X-1.950000X-1.000000X1.950000X-1.000000X1.950000X1.000000X-1.950000X1.000000X0*%
%ADD18RoundRect,0.225000X0.375000X-0.225000X0.375000X0.225000X-0.375000X0.225000X-0.375000X-0.225000X0*%
%ADD19RoundRect,0.250000X-0.850000X-0.350000X0.850000X-0.350000X0.850000X0.350000X-0.850000X0.350000X0*%
%ADD20RoundRect,0.249997X-2.950003X-2.650003X2.950003X-2.650003X2.950003X2.650003X-2.950003X2.650003X0*%
%ADD21C,3.720000*%
%ADD22C,1.803400*%
%ADD23RoundRect,0.225000X-0.375000X0.225000X-0.375000X-0.225000X0.375000X-0.225000X0.375000X0.225000X0*%
%ADD24RoundRect,0.225000X0.225000X0.375000X-0.225000X0.375000X-0.225000X-0.375000X0.225000X-0.375000X0*%
%ADD25RoundRect,0.250000X-0.450000X0.262500X-0.450000X-0.262500X0.450000X-0.262500X0.450000X0.262500X0*%
%ADD26RoundRect,0.250000X0.250000X2.500000X-0.250000X2.500000X-0.250000X-2.500000X0.250000X-2.500000X0*%
%ADD27RoundRect,0.250000X0.550000X1.250000X-0.550000X1.250000X-0.550000X-1.250000X0.550000X-1.250000X0*%
%ADD28RoundRect,0.135000X-0.185000X0.135000X-0.185000X-0.135000X0.185000X-0.135000X0.185000X0.135000X0*%
%ADD29RoundRect,0.135000X0.185000X-0.135000X0.185000X0.135000X-0.185000X0.135000X-0.185000X-0.135000X0*%
%ADD30C,1.600000*%
%ADD31R,4.000000X2.000000*%
%ADD32O,3.300000X2.000000*%
%ADD33O,2.000000X3.500000*%
%ADD34RoundRect,0.250000X1.950000X1.000000X-1.950000X1.000000X-1.950000X-1.000000X1.950000X-1.000000X0*%
G04 APERTURE END LIST*
D10*
%TO.C,Volume1*%
X224500000Y-59350000D03*
D11*
X224500000Y-64350000D03*
X224500000Y-61850000D03*
D12*
X232000000Y-56250000D03*
X232000000Y-67450000D03*
D11*
X239000000Y-64350000D03*
X239000000Y-59350000D03*
%TD*%
D13*
%TO.C,REF\u002A\u002A*%
X262750000Y-71500000D03*
%TD*%
%TO.C,REF\u002A\u002A*%
X262750000Y-56000000D03*
%TD*%
D10*
%TO.C,AudioSpeed1*%
X243000000Y-59350000D03*
D11*
X243000000Y-64350000D03*
X243000000Y-61850000D03*
D12*
X250500000Y-56250000D03*
X250500000Y-67450000D03*
D11*
X257500000Y-64350000D03*
X257500000Y-59350000D03*
%TD*%
D13*
%TO.C,REF\u002A\u002A*%
X33250000Y-73750000D03*
%TD*%
D14*
%TO.C,1kR1*%
X129500000Y-56412500D03*
X129500000Y-54587500D03*
%TD*%
D15*
%TO.C,A1*%
X70880000Y-69000000D03*
D16*
X68340000Y-69000000D03*
X65800000Y-69000000D03*
X63260000Y-69000000D03*
X60720000Y-69000000D03*
X58180000Y-69000000D03*
X55640000Y-69000000D03*
X53100000Y-69000000D03*
X50560000Y-69000000D03*
X48020000Y-69000000D03*
X45480000Y-69000000D03*
X42940000Y-69000000D03*
X40400000Y-69000000D03*
X37860000Y-69000000D03*
X35320000Y-69000000D03*
X35320000Y-53760000D03*
X37860000Y-53760000D03*
X40400000Y-53760000D03*
X42940000Y-53760000D03*
X45480000Y-53760000D03*
X48020000Y-53760000D03*
X50560000Y-53760000D03*
X53100000Y-53760000D03*
X55640000Y-53760000D03*
X58180000Y-53760000D03*
X60720000Y-53760000D03*
X63260000Y-53760000D03*
X65800000Y-53760000D03*
X68340000Y-53760000D03*
X70880000Y-53760000D03*
%TD*%
D17*
%TO.C,1000uf25V2*%
X200550000Y-62600000D03*
X208950000Y-62600000D03*
%TD*%
D18*
%TO.C,D8*%
X213000000Y-58250000D03*
X213000000Y-54950000D03*
%TD*%
D19*
%TO.C,Q1*%
X116300000Y-58707500D03*
X116300000Y-56427500D03*
D20*
X122600000Y-56427500D03*
D19*
X116300000Y-54147500D03*
%TD*%
D21*
%TO.C,Fuse1*%
X106250000Y-63250000D03*
X96250000Y-63250000D03*
%TD*%
D22*
%TO.C,J2*%
X118000000Y-67950001D03*
X123000000Y-67950001D03*
%TD*%
D23*
%TO.C,D9*%
X162250000Y-60600000D03*
X162250000Y-63900000D03*
%TD*%
%TO.C,D10*%
X163750000Y-53600000D03*
X163750000Y-56900000D03*
%TD*%
D24*
%TO.C,D5*%
X46400000Y-73750000D03*
X43100000Y-73750000D03*
%TD*%
D25*
%TO.C,100kR1*%
X134500000Y-54337500D03*
X134500000Y-56162500D03*
%TD*%
D18*
%TO.C,D6*%
X167750000Y-57400000D03*
X167750000Y-54100000D03*
%TD*%
%TO.C,D12*%
X219500000Y-68900000D03*
X219500000Y-65600000D03*
%TD*%
D23*
%TO.C,D11*%
X219500000Y-58600000D03*
X219500000Y-61900000D03*
%TD*%
%TO.C,D3*%
X152500000Y-53950000D03*
X152500000Y-57250000D03*
%TD*%
%TO.C,D2*%
X158250000Y-68850000D03*
X158250000Y-72150000D03*
%TD*%
D26*
%TO.C,J4*%
X148150000Y-67100000D03*
X146150000Y-67100000D03*
D27*
X150550000Y-64850000D03*
X143750000Y-64850000D03*
%TD*%
D18*
%TO.C,D1*%
X157750000Y-57150000D03*
X157750000Y-53850000D03*
%TD*%
D28*
%TO.C,4.7k_ohm2*%
X76500000Y-72240000D03*
X76500000Y-73260000D03*
%TD*%
D18*
%TO.C,D4*%
X158250000Y-65400000D03*
X158250000Y-62100000D03*
%TD*%
D29*
%TO.C,4.7k_ohm1*%
X80250000Y-73260000D03*
X80250000Y-72240000D03*
%TD*%
D30*
%TO.C,J3*%
X82000000Y-56000000D03*
D31*
X82000000Y-65000000D03*
D32*
X82000000Y-59000000D03*
D33*
X77500000Y-58000000D03*
X86500000Y-58000000D03*
%TD*%
D18*
%TO.C,D7*%
X216500000Y-58250000D03*
X216500000Y-54950000D03*
%TD*%
D26*
%TO.C,J1*%
X138050000Y-67100000D03*
X136050000Y-67100000D03*
D27*
X140450000Y-64850000D03*
X133650000Y-64850000D03*
%TD*%
D34*
%TO.C,1000uf25V3*%
X195200000Y-62850000D03*
X186800000Y-62850000D03*
%TD*%
%TO.C,1000uf25V1*%
X180650000Y-62600000D03*
X172250000Y-62600000D03*
%TD*%
M02*
