%TF.GenerationSoftware,KiCad,Pcbnew,9.0.6*%
%TF.CreationDate,2026-03-25T19:26:48-07:00*%
%TF.ProjectId,Sidebar,53696465-6261-4722-9e6b-696361645f70,rev?*%
%TF.SameCoordinates,Original*%
%TF.FileFunction,Copper,L1,Top*%
%TF.FilePolarity,Positive*%
%FSLAX46Y46*%
G04 Gerber Fmt 4.6, Leading zero omitted, Abs format (unit mm)*
G04 Created by KiCad (PCBNEW 9.0.6) date 2026-03-25 19:26:48*
%MOMM*%
%LPD*%
G01*
G04 APERTURE LIST*
%TA.AperFunction,ComponentPad*%
%ADD10R,2.000000X2.000000*%
%TD*%
%TA.AperFunction,ComponentPad*%
%ADD11C,2.000000*%
%TD*%
%TA.AperFunction,ComponentPad*%
%ADD12R,3.200000X2.000000*%
%TD*%
%TA.AperFunction,SMDPad,CuDef*%
%ADD13R,3.200000X1.000000*%
%TD*%
%TA.AperFunction,ComponentPad*%
%ADD14R,1.600000X1.600000*%
%TD*%
%TA.AperFunction,ComponentPad*%
%ADD15O,1.600000X1.600000*%
%TD*%
%TA.AperFunction,ComponentPad*%
%ADD16C,3.516000*%
%TD*%
%TA.AperFunction,ComponentPad*%
%ADD17C,1.803400*%
%TD*%
%TA.AperFunction,ComponentPad*%
%ADD18R,4.000000X2.000000*%
%TD*%
%TA.AperFunction,ComponentPad*%
%ADD19O,3.300000X2.000000*%
%TD*%
%TA.AperFunction,ComponentPad*%
%ADD20O,2.000000X3.500000*%
%TD*%
%TA.AperFunction,ViaPad*%
%ADD21C,0.600000*%
%TD*%
%TA.AperFunction,ViaPad*%
%ADD22C,1.500000*%
%TD*%
%TA.AperFunction,ViaPad*%
%ADD23C,2.000000*%
%TD*%
%TA.AperFunction,Conductor*%
%ADD24C,0.200000*%
%TD*%
%TA.AperFunction,Conductor*%
%ADD25C,2.000000*%
%TD*%
G04 APERTURE END LIST*
D10*
%TO.P,Volume1,A,A*%
%TO.N,RE1*%
X224500000Y-59350000D03*
D11*
%TO.P,Volume1,B,B*%
%TO.N,RE2*%
X224500000Y-64350000D03*
%TO.P,Volume1,C,C*%
%TO.N,GND*%
X224500000Y-61850000D03*
D12*
%TO.P,Volume1,MP*%
%TO.N,N/C*%
X232000000Y-56250000D03*
X232000000Y-67450000D03*
D11*
%TO.P,Volume1,S1*%
X239000000Y-64350000D03*
%TO.P,Volume1,S2*%
X239000000Y-59350000D03*
%TD*%
D13*
%TO.P,power_button1,1,1*%
%TO.N,Net-(D5-A)*%
X42350000Y-59250000D03*
X49150000Y-59250000D03*
%TO.P,power_button1,2,2*%
%TO.N,Col2*%
X42350000Y-63250000D03*
X49150000Y-63250000D03*
%TD*%
%TO.P,Right1,1,1*%
%TO.N,Net-(D4-A)*%
X147300000Y-61350000D03*
X154100000Y-61350000D03*
%TO.P,Right1,2,2*%
%TO.N,Col1*%
X147300000Y-65350000D03*
X154100000Y-65350000D03*
%TD*%
%TO.P,Down1,1,1*%
%TO.N,Net-(D2-A)*%
X139850000Y-69000000D03*
X146650000Y-69000000D03*
%TO.P,Down1,2,2*%
%TO.N,Col1*%
X139850000Y-73000000D03*
X146650000Y-73000000D03*
%TD*%
%TO.P,SW10,1,1*%
%TO.N,Net-(D10-A)*%
X179600000Y-65600000D03*
X186400000Y-65600000D03*
%TO.P,SW10,2,2*%
%TO.N,Col3*%
X179600000Y-69600000D03*
X186400000Y-69600000D03*
%TD*%
%TO.P,Left1,1,1*%
%TO.N,Net-(D3-A)*%
X132100000Y-61250000D03*
X138900000Y-61250000D03*
%TO.P,Left1,2,2*%
%TO.N,Col1*%
X132100000Y-65250000D03*
X138900000Y-65250000D03*
%TD*%
%TO.P,SW8,1,1*%
%TO.N,Net-(D8-A)*%
X200350000Y-55100000D03*
X207150000Y-55100000D03*
%TO.P,SW8,2,2*%
%TO.N,Col2*%
X200350000Y-59100000D03*
X207150000Y-59100000D03*
%TD*%
%TO.P,SW6,1,1*%
%TO.N,Net-(D6-A)*%
X172350000Y-55100000D03*
X179150000Y-55100000D03*
%TO.P,SW6,2,2*%
%TO.N,Col2*%
X172350000Y-59100000D03*
X179150000Y-59100000D03*
%TD*%
%TO.P,Up1,1,1*%
%TO.N,Net-(D1-A)*%
X139850000Y-53600000D03*
X146650000Y-53600000D03*
%TO.P,Up1,2,2*%
%TO.N,Col1*%
X139850000Y-57600000D03*
X146650000Y-57600000D03*
%TD*%
%TO.P,SW12,1,1*%
%TO.N,Net-(D12-A)*%
X208100000Y-65600000D03*
X214900000Y-65600000D03*
%TO.P,SW12,2,2*%
%TO.N,Col3*%
X208100000Y-69600000D03*
X214900000Y-69600000D03*
%TD*%
%TO.P,SW11,1,1*%
%TO.N,Net-(D11-A)*%
X194350000Y-65350000D03*
X201150000Y-65350000D03*
%TO.P,SW11,2,2*%
%TO.N,Col3*%
X194350000Y-69350000D03*
X201150000Y-69350000D03*
%TD*%
D10*
%TO.P,AudioSpeed1,A,A*%
%TO.N,AS1*%
X243000000Y-59350000D03*
D11*
%TO.P,AudioSpeed1,B,B*%
%TO.N,AS2*%
X243000000Y-64350000D03*
%TO.P,AudioSpeed1,C,C*%
%TO.N,GND*%
X243000000Y-61850000D03*
D12*
%TO.P,AudioSpeed1,MP*%
%TO.N,N/C*%
X250500000Y-56250000D03*
X250500000Y-67450000D03*
D11*
%TO.P,AudioSpeed1,S1*%
X257500000Y-64350000D03*
%TO.P,AudioSpeed1,S2*%
X257500000Y-59350000D03*
%TD*%
D13*
%TO.P,SW7,1,1*%
%TO.N,Net-(D7-A)*%
X185850000Y-55100000D03*
X192650000Y-55100000D03*
%TO.P,SW7,2,2*%
%TO.N,Col2*%
X185850000Y-59100000D03*
X192650000Y-59100000D03*
%TD*%
%TO.P,SW9,1,1*%
%TO.N,Net-(D9-A)*%
X164100000Y-65600000D03*
X170900000Y-65600000D03*
%TO.P,SW9,2,2*%
%TO.N,Col3*%
X164100000Y-69600000D03*
X170900000Y-69600000D03*
%TD*%
D14*
%TO.P,A1,1,D1/TX*%
%TO.N,unconnected-(A1-D1{slash}TX-Pad1)*%
X70880000Y-69000000D03*
D15*
%TO.P,A1,2,D0/RX*%
%TO.N,unconnected-(A1-D0{slash}RX-Pad2)*%
X68340000Y-69000000D03*
%TO.P,A1,3,~{RESET}*%
%TO.N,unconnected-(A1-~{RESET}-Pad3)*%
X65800000Y-69000000D03*
%TO.P,A1,4,GND*%
%TO.N,GND*%
X63260000Y-69000000D03*
%TO.P,A1,5,D2*%
%TO.N,RE1*%
X60720000Y-69000000D03*
%TO.P,A1,6,D3*%
%TO.N,RE2*%
X58180000Y-69000000D03*
%TO.P,A1,7,D4*%
%TO.N,AS1*%
X55640000Y-69000000D03*
%TO.P,A1,8,D5*%
%TO.N,PWM1*%
X53100000Y-69000000D03*
%TO.P,A1,9,D6*%
%TO.N,AS2*%
X50560000Y-69000000D03*
%TO.P,A1,10,D7*%
%TO.N,Row1*%
X48020000Y-69000000D03*
%TO.P,A1,11,D8*%
%TO.N,Row2*%
X45480000Y-69000000D03*
%TO.P,A1,12,D9*%
%TO.N,PWM2*%
X42940000Y-69000000D03*
%TO.P,A1,13,D10*%
%TO.N,Row3*%
X40400000Y-69000000D03*
%TO.P,A1,14,D11*%
%TO.N,Row4*%
X37860000Y-69000000D03*
%TO.P,A1,15,D12*%
%TO.N,D12_mosfet*%
X35320000Y-69000000D03*
%TO.P,A1,16,D13*%
%TO.N,unconnected-(A1-D13-Pad16)*%
X35320000Y-53760000D03*
%TO.P,A1,17,3V3*%
%TO.N,unconnected-(A1-3V3-Pad17)*%
X37860000Y-53760000D03*
%TO.P,A1,18,AREF*%
%TO.N,unconnected-(A1-AREF-Pad18)*%
X40400000Y-53760000D03*
%TO.P,A1,19,A0*%
%TO.N,Col1*%
X42940000Y-53760000D03*
%TO.P,A1,20,A1*%
%TO.N,Col2*%
X45480000Y-53760000D03*
%TO.P,A1,21,A2*%
%TO.N,Col3*%
X48020000Y-53760000D03*
%TO.P,A1,22,A3*%
%TO.N,unconnected-(A1-A3-Pad22)*%
X50560000Y-53760000D03*
%TO.P,A1,23,A4*%
%TO.N,SDA*%
X53100000Y-53760000D03*
%TO.P,A1,24,A5*%
%TO.N,SCL*%
X55640000Y-53760000D03*
%TO.P,A1,25,A6*%
%TO.N,unconnected-(A1-A6-Pad25)*%
X58180000Y-53760000D03*
%TO.P,A1,26,A7*%
%TO.N,unconnected-(A1-A7-Pad26)*%
X60720000Y-53760000D03*
%TO.P,A1,27,+5V*%
%TO.N,5V*%
X63260000Y-53760000D03*
%TO.P,A1,28,~{RESET}*%
%TO.N,unconnected-(A1-~{RESET}-Pad28)*%
X65800000Y-53760000D03*
%TO.P,A1,29,GND*%
%TO.N,GND*%
X68340000Y-53760000D03*
%TO.P,A1,30,VIN*%
%TO.N,unconnected-(A1-VIN-Pad30)*%
X70880000Y-53760000D03*
%TD*%
D16*
%TO.P,Fuse1,1*%
%TO.N,Net-(100kR1-Pad2)*%
X106250000Y-63250000D03*
%TO.P,Fuse1,2*%
%TO.N,Net-(Q1-S)*%
X96250000Y-63250000D03*
%TD*%
D17*
%TO.P,J2,1,Pin_1*%
%TO.N,GND*%
X118000000Y-67950001D03*
%TO.P,J2,2,Pin_2*%
%TO.N,Net-(J2-Pin_2)*%
X123000000Y-67950001D03*
%TD*%
D18*
%TO.P,J3,1*%
%TO.N,Net-(100kR1-Pad2)*%
X82000000Y-65000000D03*
D19*
%TO.P,J3,2*%
%TO.N,GND*%
X82000000Y-59000000D03*
D20*
%TO.P,J3,MP*%
%TO.N,N/C*%
X77500000Y-58000000D03*
X86500000Y-58000000D03*
%TD*%
D21*
%TO.N,SDA*%
X75000000Y-64500000D03*
X68700735Y-57799265D03*
%TO.N,5V*%
X77700735Y-68049265D03*
%TO.N,SCL*%
X75250000Y-65750000D03*
X135000000Y-72000000D03*
X77490000Y-72240000D03*
D22*
%TO.N,GND*%
X168500000Y-62250000D03*
D21*
X63750000Y-56400000D03*
X62250000Y-58750000D03*
X54500000Y-61250000D03*
D22*
X205750000Y-62500000D03*
X212000000Y-62600000D03*
X189750000Y-61500000D03*
X210750000Y-60500000D03*
X189750000Y-63500000D03*
X175250000Y-62250000D03*
D21*
%TO.N,Col3*%
X146500000Y-71500000D03*
X151500000Y-69750000D03*
%TO.N,Row1*%
X141500000Y-68000000D03*
X76250000Y-63250000D03*
%TO.N,AS1*%
X58000000Y-74950000D03*
%TO.N,Row4*%
X74000000Y-61000000D03*
X154750000Y-59500000D03*
X157000000Y-65250000D03*
X126250000Y-69250000D03*
X217750000Y-67750000D03*
%TO.N,Col2*%
X71500000Y-56500000D03*
X48000000Y-56500000D03*
X52250000Y-56500000D03*
X45750000Y-62500000D03*
X56000000Y-56500000D03*
%TO.N,Row2*%
X160750000Y-66000000D03*
X77325735Y-62924265D03*
X149500000Y-68750000D03*
X165500000Y-61500000D03*
%TO.N,AS2*%
X55750000Y-74250000D03*
%TO.N,D12_mosfet*%
X54000000Y-62500000D03*
%TO.N,Row3*%
X74750000Y-61900000D03*
X135250000Y-60250000D03*
%TO.N,Net-(D1-A)*%
X156000000Y-53250000D03*
%TO.N,Net-(D2-A)*%
X149250000Y-71750000D03*
%TO.N,Net-(D3-A)*%
X141250000Y-60750000D03*
%TO.N,Net-(D4-A)*%
X156500000Y-61500000D03*
%TO.N,Net-(D5-A)*%
X39750000Y-59250000D03*
%TO.N,Net-(D6-A)*%
X169500000Y-54000000D03*
%TO.N,Net-(D7-A)*%
X194500000Y-53750000D03*
%TO.N,Net-(D8-A)*%
X209750000Y-55000000D03*
%TO.N,Net-(D9-A)*%
X163750000Y-64250000D03*
%TO.N,Net-(D10-A)*%
X165000000Y-56250000D03*
%TO.N,Net-(D11-A)*%
X203500000Y-65500000D03*
%TO.N,Net-(D12-A)*%
X217500000Y-65500000D03*
D23*
%TO.N,Net-(J2-Pin_2)*%
X117750000Y-61000000D03*
%TD*%
D24*
%TO.N,SDA*%
X68700735Y-58200735D02*
X68700735Y-57799265D01*
X75000000Y-64500000D02*
X68700735Y-58200735D01*
%TO.N,5V*%
X65000000Y-56500000D02*
X63750000Y-55250000D01*
X77700735Y-68049265D02*
X77501470Y-67850000D01*
X63750000Y-54250000D02*
X63260000Y-53760000D01*
X63750000Y-55250000D02*
X63750000Y-54250000D01*
X76000000Y-66750000D02*
X76000000Y-64250000D01*
X76000000Y-64250000D02*
X68250000Y-56500000D01*
X77100000Y-67850000D02*
X76000000Y-66750000D01*
X77501470Y-67850000D02*
X77100000Y-67850000D01*
X68250000Y-56500000D02*
X65000000Y-56500000D01*
%TO.N,SCL*%
X73500000Y-64000000D02*
X72817100Y-64000000D01*
X71849000Y-63099000D02*
X68500000Y-59750000D01*
X61630000Y-59750000D02*
X55640000Y-53760000D01*
X68500000Y-59750000D02*
X61630000Y-59750000D01*
X72817100Y-64000000D02*
X71916100Y-63099000D01*
X78750000Y-73500000D02*
X133250000Y-73500000D01*
X75250000Y-65750000D02*
X73500000Y-64000000D01*
X134750000Y-72000000D02*
X135000000Y-72000000D01*
X71916100Y-63099000D02*
X71849000Y-63099000D01*
X77490000Y-72240000D02*
X78750000Y-73500000D01*
X133250000Y-73500000D02*
X134750000Y-72000000D01*
%TO.N,GND*%
X63250000Y-57750000D02*
X62250000Y-58750000D01*
X212400000Y-63000000D02*
X212000000Y-62600000D01*
D25*
X88000000Y-61750000D02*
X85750000Y-61750000D01*
D24*
X69000000Y-56500000D02*
X72500000Y-60000000D01*
X243000000Y-61850000D02*
X244850000Y-61850000D01*
D25*
X118000000Y-67950001D02*
X94200001Y-67950001D01*
D24*
X63250000Y-56900000D02*
X63250000Y-57750000D01*
X75317100Y-60000000D02*
X76317100Y-61000000D01*
X223350000Y-63000000D02*
X212400000Y-63000000D01*
X68340000Y-53760000D02*
X69000000Y-54420000D01*
X63750000Y-56400000D02*
X63250000Y-56900000D01*
X58750000Y-65500000D02*
X54500000Y-61250000D01*
X63260000Y-67010000D02*
X61750000Y-65500000D01*
X82000000Y-59250000D02*
X82000000Y-59000000D01*
D25*
X85750000Y-61750000D02*
X83000000Y-59000000D01*
X94200001Y-67950001D02*
X88000000Y-61750000D01*
D24*
X63260000Y-69000000D02*
X63260000Y-67010000D01*
X72500000Y-60000000D02*
X75317100Y-60000000D01*
X244850000Y-61850000D02*
X245000000Y-62000000D01*
X243000000Y-61850000D02*
X224500000Y-61850000D01*
D25*
X83000000Y-59000000D02*
X82000000Y-59000000D01*
D24*
X76317100Y-61000000D02*
X80250000Y-61000000D01*
X80250000Y-61000000D02*
X82000000Y-59250000D01*
X224500000Y-61850000D02*
X223350000Y-63000000D01*
X69000000Y-54420000D02*
X69000000Y-56500000D01*
X61750000Y-65500000D02*
X58750000Y-65500000D01*
%TO.N,Col3*%
X186650000Y-69350000D02*
X186400000Y-69600000D01*
X214900000Y-69600000D02*
X208100000Y-69600000D01*
X208100000Y-69600000D02*
X201400000Y-69600000D01*
X201400000Y-69600000D02*
X201150000Y-69350000D01*
X201150000Y-69350000D02*
X194350000Y-69350000D01*
X131750000Y-72250000D02*
X133250000Y-70750000D01*
X52010000Y-57750000D02*
X52750000Y-57750000D01*
X179600000Y-69600000D02*
X170900000Y-69600000D01*
X140000000Y-71500000D02*
X146500000Y-71500000D01*
X164100000Y-69600000D02*
X151650000Y-69600000D01*
X52750000Y-57750000D02*
X58500000Y-63500000D01*
X48020000Y-53760000D02*
X52010000Y-57750000D01*
X186400000Y-69600000D02*
X179600000Y-69600000D01*
X80250000Y-72250000D02*
X131750000Y-72250000D01*
X194350000Y-69350000D02*
X186650000Y-69350000D01*
X58500000Y-63500000D02*
X71750000Y-63500000D01*
X133250000Y-70750000D02*
X139250000Y-70750000D01*
X75716450Y-67466450D02*
X75716450Y-67716450D01*
X170900000Y-69600000D02*
X164100000Y-69600000D01*
X151650000Y-69600000D02*
X151500000Y-69750000D01*
X75716450Y-67716450D02*
X80250000Y-72250000D01*
X71750000Y-63500000D02*
X75716450Y-67466450D01*
X139250000Y-70750000D02*
X140000000Y-71500000D01*
%TO.N,Row1*%
X78750000Y-69000000D02*
X78750000Y-67750000D01*
X77250000Y-66250000D02*
X77250000Y-64250000D01*
X134750000Y-68000000D02*
X133250000Y-69500000D01*
X141500000Y-68000000D02*
X134750000Y-68000000D01*
X77250000Y-64250000D02*
X76250000Y-63250000D01*
X81500000Y-71750000D02*
X78750000Y-69000000D01*
X133250000Y-69500000D02*
X133250000Y-70000000D01*
X78750000Y-67750000D02*
X77250000Y-66250000D01*
X131500000Y-71750000D02*
X81500000Y-71750000D01*
X133250000Y-70000000D02*
X131500000Y-71750000D01*
%TO.N,AS1*%
X245100000Y-59350000D02*
X246000000Y-60250000D01*
X243000000Y-59350000D02*
X245100000Y-59350000D01*
X245000000Y-72500000D02*
X242351000Y-75149000D01*
X58200000Y-74950000D02*
X58000000Y-74950000D01*
X246000000Y-71500000D02*
X245000000Y-72500000D01*
X242351000Y-75149000D02*
X239500000Y-75149000D01*
X58399000Y-75149000D02*
X58250000Y-75000000D01*
X58250000Y-75000000D02*
X58200000Y-74950000D01*
X239500000Y-75149000D02*
X58399000Y-75149000D01*
X246000000Y-60250000D02*
X246000000Y-71500000D01*
%TO.N,Row4*%
X77317100Y-61500000D02*
X83500000Y-61500000D01*
X76249000Y-61499000D02*
X77316100Y-61499000D01*
X157250000Y-65000000D02*
X157000000Y-65250000D01*
X77316100Y-61499000D02*
X77317100Y-61500000D01*
X159500000Y-67750000D02*
X217750000Y-67750000D01*
X83500000Y-61500000D02*
X83599000Y-61599000D01*
X92634200Y-70500000D02*
X125000000Y-70500000D01*
X83599000Y-61599000D02*
X83733200Y-61599000D01*
X157250000Y-60750000D02*
X157250000Y-65000000D01*
X157000000Y-65250000D02*
X159500000Y-67750000D01*
X75750000Y-61000000D02*
X76249000Y-61499000D01*
X154750000Y-59500000D02*
X156000000Y-59500000D01*
X83733200Y-61599000D02*
X92634200Y-70500000D01*
X156000000Y-59500000D02*
X157250000Y-60750000D01*
X125000000Y-70500000D02*
X126250000Y-69250000D01*
X74000000Y-61000000D02*
X75750000Y-61000000D01*
%TO.N,Col2*%
X48000000Y-56280000D02*
X48000000Y-56500000D01*
X192650000Y-59100000D02*
X185850000Y-59100000D01*
X185850000Y-59100000D02*
X179150000Y-59100000D01*
X179150000Y-59100000D02*
X172350000Y-59100000D01*
X171100000Y-59100000D02*
X172350000Y-59100000D01*
X200350000Y-59100000D02*
X192650000Y-59100000D01*
X200350000Y-59100000D02*
X207150000Y-59100000D01*
X75000000Y-56500000D02*
X79000000Y-52500000D01*
X164351000Y-52351000D02*
X171100000Y-59100000D01*
X79250000Y-52500000D02*
X79399000Y-52351000D01*
X45000000Y-63250000D02*
X45750000Y-62500000D01*
X42350000Y-63250000D02*
X45000000Y-63250000D01*
X52250000Y-56500000D02*
X56000000Y-56500000D01*
X71500000Y-56500000D02*
X75000000Y-56500000D01*
X79000000Y-52500000D02*
X79250000Y-52500000D01*
X49150000Y-63250000D02*
X46500000Y-63250000D01*
X46500000Y-63250000D02*
X45750000Y-62500000D01*
X45480000Y-53760000D02*
X48000000Y-56280000D01*
X79399000Y-52351000D02*
X164351000Y-52351000D01*
%TO.N,Row2*%
X162250000Y-64500000D02*
X160750000Y-66000000D01*
X92349000Y-71349000D02*
X130651000Y-71349000D01*
X77849000Y-62401000D02*
X83401000Y-62401000D01*
X134601000Y-67399000D02*
X148399000Y-67399000D01*
X83401000Y-62401000D02*
X92349000Y-71349000D01*
X162500000Y-64500000D02*
X162250000Y-64500000D01*
X149500000Y-68500000D02*
X149500000Y-68750000D01*
X148399000Y-67399000D02*
X149500000Y-68500000D01*
X77325735Y-62924265D02*
X77849000Y-62401000D01*
X165500000Y-61500000D02*
X162500000Y-64500000D01*
X130651000Y-71349000D02*
X134601000Y-67399000D01*
%TO.N,AS2*%
X243000000Y-64350000D02*
X243000000Y-71750000D01*
X243000000Y-71750000D02*
X240500000Y-74250000D01*
X55810000Y-74250000D02*
X55750000Y-74250000D01*
X240500000Y-74250000D02*
X55810000Y-74250000D01*
%TO.N,Col1*%
X146850000Y-57600000D02*
X146400000Y-57600000D01*
X148150000Y-73100000D02*
X147600000Y-73100000D01*
X70750000Y-64000000D02*
X58250000Y-64000000D01*
X78750000Y-72750000D02*
X78091000Y-72091000D01*
X154100000Y-65350000D02*
X147300000Y-65350000D01*
X133500000Y-71250000D02*
X132000000Y-72750000D01*
X45000000Y-55750000D02*
X44930000Y-55750000D01*
X139000000Y-65350000D02*
X138900000Y-65250000D01*
X144000000Y-62050000D02*
X147300000Y-65350000D01*
X47500000Y-58250000D02*
X45000000Y-55750000D01*
X146850000Y-57600000D02*
X140050000Y-57600000D01*
X144000000Y-60000000D02*
X144000000Y-62050000D01*
X150500000Y-68550000D02*
X150500000Y-72000000D01*
X132000000Y-72750000D02*
X78750000Y-72750000D01*
X78091000Y-72091000D02*
X78091000Y-71341000D01*
X52500000Y-58250000D02*
X47500000Y-58250000D01*
X146400000Y-57600000D02*
X144000000Y-60000000D01*
X149500000Y-73000000D02*
X146650000Y-73000000D01*
X44930000Y-55750000D02*
X42940000Y-53760000D01*
X150500000Y-72000000D02*
X149500000Y-73000000D01*
X78091000Y-71341000D02*
X70750000Y-64000000D01*
X138100000Y-71250000D02*
X133500000Y-71250000D01*
X139850000Y-73000000D02*
X146650000Y-73000000D01*
X147300000Y-65350000D02*
X150500000Y-68550000D01*
X147300000Y-65350000D02*
X139000000Y-65350000D01*
X58250000Y-64000000D02*
X52500000Y-58250000D01*
X138900000Y-65250000D02*
X132100000Y-65250000D01*
X139850000Y-73000000D02*
X138100000Y-71250000D01*
%TO.N,D12_mosfet*%
X50750000Y-65500000D02*
X53750000Y-62500000D01*
X53750000Y-62500000D02*
X54000000Y-62500000D01*
X38820000Y-65500000D02*
X50750000Y-65500000D01*
X35320000Y-69000000D02*
X38820000Y-65500000D01*
%TO.N,Row3*%
X135000000Y-60500000D02*
X134001000Y-60500000D01*
X77150000Y-61900000D02*
X74750000Y-61900000D01*
X134001000Y-60449000D02*
X130199000Y-60449000D01*
X130199000Y-60449000D02*
X130199000Y-60500000D01*
X83567100Y-62000000D02*
X77250000Y-62000000D01*
X135250000Y-60250000D02*
X135000000Y-60500000D01*
X126552000Y-70948000D02*
X92515100Y-70948000D01*
X130000000Y-60500000D02*
X129000000Y-61500000D01*
X92515100Y-70948000D02*
X83567100Y-62000000D01*
X134001000Y-60500000D02*
X134001000Y-60449000D01*
X77250000Y-62000000D02*
X77150000Y-61900000D01*
X129000000Y-68500000D02*
X126552000Y-70948000D01*
X130199000Y-60500000D02*
X130000000Y-60500000D01*
X129000000Y-61500000D02*
X129000000Y-68500000D01*
%TO.N,Net-(D1-A)*%
X149351000Y-53000000D02*
X155750000Y-53000000D01*
X148751000Y-53600000D02*
X149351000Y-53000000D01*
X140050000Y-53600000D02*
X148751000Y-53600000D01*
X155750000Y-53000000D02*
X156000000Y-53250000D01*
%TO.N,Net-(D2-A)*%
X148750000Y-71250000D02*
X148500000Y-71250000D01*
X148500000Y-71250000D02*
X146650000Y-69400000D01*
X146650000Y-69000000D02*
X139850000Y-69000000D01*
X146650000Y-69400000D02*
X146650000Y-69000000D01*
X149250000Y-71750000D02*
X148750000Y-71250000D01*
%TO.N,Net-(D3-A)*%
X141250000Y-60750000D02*
X139400000Y-60750000D01*
X139400000Y-60750000D02*
X138900000Y-61250000D01*
X138900000Y-61250000D02*
X132100000Y-61250000D01*
%TO.N,Net-(D4-A)*%
X156350000Y-61350000D02*
X156500000Y-61500000D01*
X154100000Y-61350000D02*
X156350000Y-61350000D01*
X147300000Y-61350000D02*
X154100000Y-61350000D01*
%TO.N,Net-(D5-A)*%
X42350000Y-59250000D02*
X49150000Y-59250000D01*
X42350000Y-59250000D02*
X39750000Y-59250000D01*
%TO.N,Net-(D6-A)*%
X171250000Y-54000000D02*
X169500000Y-54000000D01*
X172350000Y-55100000D02*
X171250000Y-54000000D01*
X172350000Y-55100000D02*
X179150000Y-55100000D01*
%TO.N,Net-(D7-A)*%
X192650000Y-55100000D02*
X193150000Y-55100000D01*
X193150000Y-55100000D02*
X194500000Y-53750000D01*
X192650000Y-55100000D02*
X185850000Y-55100000D01*
%TO.N,Net-(D8-A)*%
X207150000Y-55100000D02*
X200350000Y-55100000D01*
X209650000Y-55100000D02*
X209750000Y-55000000D01*
X207150000Y-55100000D02*
X209650000Y-55100000D01*
%TO.N,Net-(D9-A)*%
X163750000Y-64250000D02*
X163950000Y-64250000D01*
X163950000Y-64250000D02*
X164100000Y-64400000D01*
X164100000Y-65600000D02*
X170900000Y-65600000D01*
X164100000Y-64400000D02*
X164100000Y-65600000D01*
%TO.N,Net-(D10-A)*%
X170000000Y-60250000D02*
X170000000Y-60500000D01*
X186400000Y-65600000D02*
X179600000Y-65600000D01*
X165000000Y-56250000D02*
X166000000Y-56250000D01*
X166000000Y-56250000D02*
X170000000Y-60250000D01*
X175100000Y-65600000D02*
X179600000Y-65600000D01*
X170000000Y-60500000D02*
X175100000Y-65600000D01*
%TO.N,Net-(D11-A)*%
X194350000Y-65350000D02*
X201150000Y-65350000D01*
X201150000Y-65350000D02*
X203350000Y-65350000D01*
X203350000Y-65350000D02*
X203500000Y-65500000D01*
%TO.N,Net-(D12-A)*%
X217400000Y-65600000D02*
X217500000Y-65500000D01*
X214900000Y-65600000D02*
X217400000Y-65600000D01*
X214900000Y-65600000D02*
X208100000Y-65600000D01*
D25*
%TO.N,Net-(J2-Pin_2)*%
X123000000Y-66250000D02*
X117750000Y-61000000D01*
X123000000Y-67950001D02*
X123000000Y-66250000D01*
%TD*%
%TA.AperFunction,Conductor*%
%TO.N,GND*%
G36*
X35041391Y-52270185D02*
G01*
X35087146Y-52322989D01*
X35097090Y-52392147D01*
X35068065Y-52455703D01*
X35012671Y-52492431D01*
X34820776Y-52554781D01*
X34638386Y-52647715D01*
X34472786Y-52768028D01*
X34328028Y-52912786D01*
X34207715Y-53078386D01*
X34114781Y-53260776D01*
X34051522Y-53455465D01*
X34019500Y-53657648D01*
X34019500Y-53862351D01*
X34051522Y-54064534D01*
X34114781Y-54259223D01*
X34175411Y-54378213D01*
X34200274Y-54427011D01*
X34207715Y-54441613D01*
X34328028Y-54607213D01*
X34472786Y-54751971D01*
X34600762Y-54844949D01*
X34638390Y-54872287D01*
X34734295Y-54921153D01*
X34820776Y-54965218D01*
X34820778Y-54965218D01*
X34820781Y-54965220D01*
X34854762Y-54976261D01*
X35015465Y-55028477D01*
X35116557Y-55044488D01*
X35217648Y-55060500D01*
X35217649Y-55060500D01*
X35422351Y-55060500D01*
X35422352Y-55060500D01*
X35624534Y-55028477D01*
X35819219Y-54965220D01*
X36001610Y-54872287D01*
X36142758Y-54769738D01*
X36167213Y-54751971D01*
X36167215Y-54751968D01*
X36167219Y-54751966D01*
X36311966Y-54607219D01*
X36311968Y-54607215D01*
X36311971Y-54607213D01*
X36432284Y-54441614D01*
X36432286Y-54441611D01*
X36432287Y-54441610D01*
X36479516Y-54348917D01*
X36527489Y-54298123D01*
X36595310Y-54281328D01*
X36661445Y-54303865D01*
X36700483Y-54348917D01*
X36736108Y-54418833D01*
X36747715Y-54441614D01*
X36868028Y-54607213D01*
X37012786Y-54751971D01*
X37140762Y-54844949D01*
X37178390Y-54872287D01*
X37274295Y-54921153D01*
X37360776Y-54965218D01*
X37360778Y-54965218D01*
X37360781Y-54965220D01*
X37394762Y-54976261D01*
X37555465Y-55028477D01*
X37656557Y-55044488D01*
X37757648Y-55060500D01*
X37757649Y-55060500D01*
X37962351Y-55060500D01*
X37962352Y-55060500D01*
X38164534Y-55028477D01*
X38359219Y-54965220D01*
X38541610Y-54872287D01*
X38682758Y-54769738D01*
X38707213Y-54751971D01*
X38707215Y-54751968D01*
X38707219Y-54751966D01*
X38851966Y-54607219D01*
X38851968Y-54607215D01*
X38851971Y-54607213D01*
X38972284Y-54441614D01*
X38972286Y-54441611D01*
X38972287Y-54441610D01*
X39019516Y-54348917D01*
X39067489Y-54298123D01*
X39135310Y-54281328D01*
X39201445Y-54303865D01*
X39240483Y-54348917D01*
X39276108Y-54418833D01*
X39287715Y-54441614D01*
X39408028Y-54607213D01*
X39552786Y-54751971D01*
X39680762Y-54844949D01*
X39718390Y-54872287D01*
X39814295Y-54921153D01*
X39900776Y-54965218D01*
X39900778Y-54965218D01*
X39900781Y-54965220D01*
X39934762Y-54976261D01*
X40095465Y-55028477D01*
X40196557Y-55044488D01*
X40297648Y-55060500D01*
X40297649Y-55060500D01*
X40502351Y-55060500D01*
X40502352Y-55060500D01*
X40704534Y-55028477D01*
X40899219Y-54965220D01*
X41081610Y-54872287D01*
X41222758Y-54769738D01*
X41247213Y-54751971D01*
X41247215Y-54751968D01*
X41247219Y-54751966D01*
X41391966Y-54607219D01*
X41391968Y-54607215D01*
X41391971Y-54607213D01*
X41512284Y-54441614D01*
X41512286Y-54441611D01*
X41512287Y-54441610D01*
X41559516Y-54348917D01*
X41607489Y-54298123D01*
X41675310Y-54281328D01*
X41741445Y-54303865D01*
X41780483Y-54348917D01*
X41816108Y-54418833D01*
X41827715Y-54441614D01*
X41948028Y-54607213D01*
X42092786Y-54751971D01*
X42220762Y-54844949D01*
X42258390Y-54872287D01*
X42354295Y-54921153D01*
X42440776Y-54965218D01*
X42440778Y-54965218D01*
X42440781Y-54965220D01*
X42474762Y-54976261D01*
X42635465Y-55028477D01*
X42736557Y-55044488D01*
X42837648Y-55060500D01*
X42837649Y-55060500D01*
X43042351Y-55060500D01*
X43042352Y-55060500D01*
X43244534Y-55028477D01*
X43258842Y-55023827D01*
X43328682Y-55021831D01*
X43384842Y-55054077D01*
X44445139Y-56114374D01*
X44445149Y-56114385D01*
X44449479Y-56118715D01*
X44449480Y-56118716D01*
X44561284Y-56230520D01*
X44626576Y-56268216D01*
X44698215Y-56309577D01*
X44700752Y-56310256D01*
X44709824Y-56315399D01*
X44716594Y-56322387D01*
X44736358Y-56335593D01*
X46838584Y-58437819D01*
X46872069Y-58499142D01*
X46867085Y-58568834D01*
X46825213Y-58624767D01*
X46759749Y-58649184D01*
X46750903Y-58649500D01*
X44532791Y-58649500D01*
X44465752Y-58629815D01*
X44419997Y-58577011D01*
X44416609Y-58568833D01*
X44393797Y-58507671D01*
X44393793Y-58507664D01*
X44307547Y-58392455D01*
X44307544Y-58392452D01*
X44192335Y-58306206D01*
X44192328Y-58306202D01*
X44057482Y-58255908D01*
X44057483Y-58255908D01*
X43997883Y-58249501D01*
X43997881Y-58249500D01*
X43997873Y-58249500D01*
X43997864Y-58249500D01*
X40702129Y-58249500D01*
X40702123Y-58249501D01*
X40642516Y-58255908D01*
X40507671Y-58306202D01*
X40507664Y-58306206D01*
X40392455Y-58392452D01*
X40301178Y-58514382D01*
X40245244Y-58556252D01*
X40175552Y-58561236D01*
X40133025Y-58543175D01*
X40129184Y-58540609D01*
X40129172Y-58540602D01*
X39983501Y-58480264D01*
X39983489Y-58480261D01*
X39828845Y-58449500D01*
X39828842Y-58449500D01*
X39671158Y-58449500D01*
X39671155Y-58449500D01*
X39516510Y-58480261D01*
X39516498Y-58480264D01*
X39370827Y-58540602D01*
X39370814Y-58540609D01*
X39239711Y-58628210D01*
X39239707Y-58628213D01*
X39128213Y-58739707D01*
X39128210Y-58739711D01*
X39040609Y-58870814D01*
X39040602Y-58870827D01*
X38980264Y-59016498D01*
X38980261Y-59016510D01*
X38949500Y-59171153D01*
X38949500Y-59328846D01*
X38980261Y-59483489D01*
X38980264Y-59483501D01*
X39040602Y-59629172D01*
X39040609Y-59629185D01*
X39128210Y-59760288D01*
X39128213Y-59760292D01*
X39239707Y-59871786D01*
X39239711Y-59871789D01*
X39370814Y-59959390D01*
X39370827Y-59959397D01*
X39515885Y-60019481D01*
X39516503Y-60019737D01*
X39637440Y-60043793D01*
X39671153Y-60050499D01*
X39671156Y-60050500D01*
X39671158Y-60050500D01*
X39828844Y-60050500D01*
X39828845Y-60050499D01*
X39983497Y-60019737D01*
X40129179Y-59959394D01*
X40129185Y-59959390D01*
X40133017Y-59956830D01*
X40199694Y-59935949D01*
X40267074Y-59954431D01*
X40301179Y-59985618D01*
X40306203Y-59992329D01*
X40306204Y-59992331D01*
X40392454Y-60107546D01*
X40436563Y-60140566D01*
X40507664Y-60193793D01*
X40507671Y-60193797D01*
X40642517Y-60244091D01*
X40642516Y-60244091D01*
X40649444Y-60244835D01*
X40702127Y-60250500D01*
X43997872Y-60250499D01*
X44057483Y-60244091D01*
X44192331Y-60193796D01*
X44307546Y-60107546D01*
X44393796Y-59992331D01*
X44407037Y-59956830D01*
X44416609Y-59931167D01*
X44458480Y-59875233D01*
X44523944Y-59850816D01*
X44532791Y-59850500D01*
X46967209Y-59850500D01*
X47034248Y-59870185D01*
X47080003Y-59922989D01*
X47083391Y-59931167D01*
X47106202Y-59992328D01*
X47106206Y-59992335D01*
X47192452Y-60107544D01*
X47192455Y-60107547D01*
X47307664Y-60193793D01*
X47307671Y-60193797D01*
X47442517Y-60244091D01*
X47442516Y-60244091D01*
X47449444Y-60244835D01*
X47502127Y-60250500D01*
X50797872Y-60250499D01*
X50857483Y-60244091D01*
X50992331Y-60193796D01*
X51107546Y-60107546D01*
X51193796Y-59992331D01*
X51244091Y-59857483D01*
X51250500Y-59797873D01*
X51250499Y-58974499D01*
X51270183Y-58907461D01*
X51322987Y-58861706D01*
X51374499Y-58850500D01*
X52199903Y-58850500D01*
X52266942Y-58870185D01*
X52287584Y-58886819D01*
X57765139Y-64364374D01*
X57765149Y-64364385D01*
X57769479Y-64368715D01*
X57769480Y-64368716D01*
X57881284Y-64480520D01*
X57968095Y-64530639D01*
X57968097Y-64530641D01*
X58006151Y-64552611D01*
X58018215Y-64559577D01*
X58170943Y-64600501D01*
X58170946Y-64600501D01*
X58336653Y-64600501D01*
X58336669Y-64600500D01*
X70449903Y-64600500D01*
X70516942Y-64620185D01*
X70537584Y-64636819D01*
X77206259Y-71305495D01*
X77239744Y-71366818D01*
X77234760Y-71436510D01*
X77192888Y-71492443D01*
X77166031Y-71507737D01*
X77110824Y-71530604D01*
X77110814Y-71530609D01*
X76979711Y-71618210D01*
X76979707Y-71618213D01*
X76868213Y-71729707D01*
X76868210Y-71729711D01*
X76780609Y-71860814D01*
X76780602Y-71860827D01*
X76720264Y-72006498D01*
X76720261Y-72006510D01*
X76689500Y-72161153D01*
X76689500Y-72318846D01*
X76720261Y-72473489D01*
X76720264Y-72473501D01*
X76780602Y-72619172D01*
X76780609Y-72619185D01*
X76868210Y-72750288D01*
X76868213Y-72750292D01*
X76979707Y-72861786D01*
X76979711Y-72861789D01*
X77110814Y-72949390D01*
X77110827Y-72949397D01*
X77256498Y-73009735D01*
X77256503Y-73009737D01*
X77321147Y-73022595D01*
X77411849Y-73040638D01*
X77473760Y-73073023D01*
X77475339Y-73074574D01*
X77838584Y-73437819D01*
X77872069Y-73499142D01*
X77867085Y-73568834D01*
X77825213Y-73624767D01*
X77759749Y-73649184D01*
X77750903Y-73649500D01*
X56329766Y-73649500D01*
X56262727Y-73629815D01*
X56260875Y-73628602D01*
X56129185Y-73540609D01*
X56129172Y-73540602D01*
X55983501Y-73480264D01*
X55983489Y-73480261D01*
X55828845Y-73449500D01*
X55828842Y-73449500D01*
X55671158Y-73449500D01*
X55671155Y-73449500D01*
X55516510Y-73480261D01*
X55516498Y-73480264D01*
X55370827Y-73540602D01*
X55370814Y-73540609D01*
X55239711Y-73628210D01*
X55239707Y-73628213D01*
X55128213Y-73739707D01*
X55128210Y-73739711D01*
X55040609Y-73870814D01*
X55040602Y-73870827D01*
X54980264Y-74016498D01*
X54980261Y-74016510D01*
X54949500Y-74171153D01*
X54949500Y-74328846D01*
X54980261Y-74483489D01*
X54980264Y-74483501D01*
X55040602Y-74629172D01*
X55040609Y-74629185D01*
X55128210Y-74760288D01*
X55128213Y-74760292D01*
X55239707Y-74871786D01*
X55239711Y-74871789D01*
X55370814Y-74959390D01*
X55370827Y-74959397D01*
X55472607Y-75001555D01*
X55516503Y-75019737D01*
X55671153Y-75050499D01*
X55671156Y-75050500D01*
X55671158Y-75050500D01*
X55828844Y-75050500D01*
X55828845Y-75050499D01*
X55983497Y-75019737D01*
X56129179Y-74959394D01*
X56210509Y-74905051D01*
X56260875Y-74871398D01*
X56327553Y-74850520D01*
X56329766Y-74850500D01*
X57075500Y-74850500D01*
X57142539Y-74870185D01*
X57188294Y-74922989D01*
X57199500Y-74974500D01*
X57199500Y-75028846D01*
X57230261Y-75183489D01*
X57230264Y-75183501D01*
X57290602Y-75329172D01*
X57290609Y-75329185D01*
X57378210Y-75460288D01*
X57378213Y-75460292D01*
X57489707Y-75571786D01*
X57489711Y-75571789D01*
X57620814Y-75659390D01*
X57620827Y-75659397D01*
X57739555Y-75708575D01*
X57766503Y-75719737D01*
X57916131Y-75749500D01*
X57921153Y-75750499D01*
X57921156Y-75750500D01*
X57921158Y-75750500D01*
X58078844Y-75750500D01*
X58191000Y-75728190D01*
X58247285Y-75730031D01*
X58319943Y-75749501D01*
X58319945Y-75749501D01*
X58485653Y-75749501D01*
X58485669Y-75749500D01*
X239420943Y-75749500D01*
X242264331Y-75749500D01*
X242264347Y-75749501D01*
X242271943Y-75749501D01*
X242430054Y-75749501D01*
X242430057Y-75749501D01*
X242582785Y-75708577D01*
X242667972Y-75659394D01*
X242719716Y-75629520D01*
X242831520Y-75517716D01*
X242831520Y-75517714D01*
X242841724Y-75507511D01*
X242841727Y-75507506D01*
X245480520Y-72868716D01*
X245480520Y-72868714D01*
X245490724Y-72858511D01*
X245490727Y-72858506D01*
X246480520Y-71868716D01*
X246559577Y-71731784D01*
X246600501Y-71579057D01*
X246600501Y-71420942D01*
X246600501Y-71413347D01*
X246600500Y-71413329D01*
X246600500Y-71393713D01*
X261399500Y-71393713D01*
X261399500Y-71606287D01*
X261401389Y-71618211D01*
X261425130Y-71768112D01*
X261432754Y-71816243D01*
X261490911Y-71995232D01*
X261498444Y-72018414D01*
X261594951Y-72207820D01*
X261719890Y-72379786D01*
X261870213Y-72530109D01*
X262042179Y-72655048D01*
X262042181Y-72655049D01*
X262042184Y-72655051D01*
X262231588Y-72751557D01*
X262433757Y-72817246D01*
X262643713Y-72850500D01*
X262643714Y-72850500D01*
X262856286Y-72850500D01*
X262856287Y-72850500D01*
X263066243Y-72817246D01*
X263268412Y-72751557D01*
X263457816Y-72655051D01*
X263540540Y-72594949D01*
X263629786Y-72530109D01*
X263629788Y-72530106D01*
X263629792Y-72530104D01*
X263780104Y-72379792D01*
X263780106Y-72379788D01*
X263780109Y-72379786D01*
X263905048Y-72207820D01*
X263905047Y-72207820D01*
X263905051Y-72207816D01*
X264001557Y-72018412D01*
X264067246Y-71816243D01*
X264100500Y-71606287D01*
X264100500Y-71393713D01*
X264067246Y-71183757D01*
X264001557Y-70981588D01*
X263905051Y-70792184D01*
X263905049Y-70792181D01*
X263905048Y-70792179D01*
X263780109Y-70620213D01*
X263629786Y-70469890D01*
X263457820Y-70344951D01*
X263268414Y-70248444D01*
X263268413Y-70248443D01*
X263268412Y-70248443D01*
X263066243Y-70182754D01*
X263066241Y-70182753D01*
X263066240Y-70182753D01*
X262904957Y-70157208D01*
X262856287Y-70149500D01*
X262643713Y-70149500D01*
X262595042Y-70157208D01*
X262433760Y-70182753D01*
X262231585Y-70248444D01*
X262042179Y-70344951D01*
X261870213Y-70469890D01*
X261719890Y-70620213D01*
X261594951Y-70792179D01*
X261498444Y-70981585D01*
X261432753Y-71183760D01*
X261422062Y-71251264D01*
X261399500Y-71393713D01*
X246600500Y-71393713D01*
X246600500Y-66402135D01*
X248399500Y-66402135D01*
X248399500Y-68497870D01*
X248399501Y-68497876D01*
X248405908Y-68557483D01*
X248456202Y-68692328D01*
X248456206Y-68692335D01*
X248542452Y-68807544D01*
X248542455Y-68807547D01*
X248657664Y-68893793D01*
X248657671Y-68893797D01*
X248792517Y-68944091D01*
X248792516Y-68944091D01*
X248799444Y-68944835D01*
X248852127Y-68950500D01*
X252147872Y-68950499D01*
X252207483Y-68944091D01*
X252342331Y-68893796D01*
X252457546Y-68807546D01*
X252543796Y-68692331D01*
X252594091Y-68557483D01*
X252600500Y-68497873D01*
X252600499Y-66402128D01*
X252594091Y-66342517D01*
X252594021Y-66342330D01*
X252543797Y-66207671D01*
X252543793Y-66207664D01*
X252457547Y-66092455D01*
X252457544Y-66092452D01*
X252342335Y-66006206D01*
X252342328Y-66006202D01*
X252207482Y-65955908D01*
X252207483Y-65955908D01*
X252147883Y-65949501D01*
X252147881Y-65949500D01*
X252147873Y-65949500D01*
X252147864Y-65949500D01*
X248852129Y-65949500D01*
X248852123Y-65949501D01*
X248792516Y-65955908D01*
X248657671Y-66006202D01*
X248657664Y-66006206D01*
X248542455Y-66092452D01*
X248542452Y-66092455D01*
X248456206Y-66207664D01*
X248456202Y-66207671D01*
X248405908Y-66342517D01*
X248401146Y-66386818D01*
X248399501Y-66402123D01*
X248399500Y-66402135D01*
X246600500Y-66402135D01*
X246600500Y-64231902D01*
X255999500Y-64231902D01*
X255999500Y-64468097D01*
X256036446Y-64701368D01*
X256109433Y-64925996D01*
X256208699Y-65120814D01*
X256216657Y-65136433D01*
X256355483Y-65327510D01*
X256522490Y-65494517D01*
X256713567Y-65633343D01*
X256793367Y-65674003D01*
X256924003Y-65740566D01*
X256924005Y-65740566D01*
X256924008Y-65740568D01*
X257003849Y-65766510D01*
X257148631Y-65813553D01*
X257381903Y-65850500D01*
X257381908Y-65850500D01*
X257618097Y-65850500D01*
X257851368Y-65813553D01*
X257880563Y-65804067D01*
X258075992Y-65740568D01*
X258286433Y-65633343D01*
X258477510Y-65494517D01*
X258644517Y-65327510D01*
X258783343Y-65136433D01*
X258890568Y-64925992D01*
X258963553Y-64701368D01*
X258972874Y-64642517D01*
X259000500Y-64468097D01*
X259000500Y-64231902D01*
X258963553Y-63998631D01*
X258923458Y-63875233D01*
X258890568Y-63774008D01*
X258890566Y-63774005D01*
X258890566Y-63774003D01*
X258819707Y-63634935D01*
X258783343Y-63563567D01*
X258644517Y-63372490D01*
X258477510Y-63205483D01*
X258286433Y-63066657D01*
X258075996Y-62959433D01*
X257851368Y-62886446D01*
X257618097Y-62849500D01*
X257618092Y-62849500D01*
X257381908Y-62849500D01*
X257381903Y-62849500D01*
X257148631Y-62886446D01*
X256924003Y-62959433D01*
X256713566Y-63066657D01*
X256604550Y-63145862D01*
X256522490Y-63205483D01*
X256522488Y-63205485D01*
X256522487Y-63205485D01*
X256355485Y-63372487D01*
X256355485Y-63372488D01*
X256355483Y-63372490D01*
X256310391Y-63434554D01*
X256216657Y-63563566D01*
X256109433Y-63774003D01*
X256036446Y-63998631D01*
X255999500Y-64231902D01*
X246600500Y-64231902D01*
X246600500Y-60170945D01*
X246600498Y-60170936D01*
X246595023Y-60150500D01*
X246559577Y-60018215D01*
X246535888Y-59977186D01*
X246524549Y-59957545D01*
X246524548Y-59957544D01*
X246490424Y-59898438D01*
X246480520Y-59881284D01*
X246368716Y-59769480D01*
X246368715Y-59769479D01*
X246364385Y-59765149D01*
X246364374Y-59765139D01*
X245831137Y-59231902D01*
X255999500Y-59231902D01*
X255999500Y-59468097D01*
X256036446Y-59701368D01*
X256109433Y-59925996D01*
X256212467Y-60128210D01*
X256216657Y-60136433D01*
X256355483Y-60327510D01*
X256522490Y-60494517D01*
X256713567Y-60633343D01*
X256787783Y-60671158D01*
X256924003Y-60740566D01*
X256924005Y-60740566D01*
X256924008Y-60740568D01*
X257044412Y-60779689D01*
X257148631Y-60813553D01*
X257381903Y-60850500D01*
X257381908Y-60850500D01*
X257618097Y-60850500D01*
X257851368Y-60813553D01*
X257905424Y-60795989D01*
X258075992Y-60740568D01*
X258286433Y-60633343D01*
X258477510Y-60494517D01*
X258644517Y-60327510D01*
X258783343Y-60136433D01*
X258890568Y-59925992D01*
X258963553Y-59701368D01*
X258974653Y-59631284D01*
X259000500Y-59468097D01*
X259000500Y-59231902D01*
X258963553Y-58998631D01*
X258924425Y-58878210D01*
X258890568Y-58774008D01*
X258890566Y-58774005D01*
X258890566Y-58774003D01*
X258811441Y-58618713D01*
X258783343Y-58563567D01*
X258644517Y-58372490D01*
X258477510Y-58205483D01*
X258286433Y-58066657D01*
X258279611Y-58063181D01*
X258075996Y-57959433D01*
X257851368Y-57886446D01*
X257618097Y-57849500D01*
X257618092Y-57849500D01*
X257381908Y-57849500D01*
X257381903Y-57849500D01*
X257148631Y-57886446D01*
X256924003Y-57959433D01*
X256713566Y-58066657D01*
X256657119Y-58107669D01*
X256522490Y-58205483D01*
X256522488Y-58205485D01*
X256522487Y-58205485D01*
X256355485Y-58372487D01*
X256355485Y-58372488D01*
X256355483Y-58372490D01*
X256340978Y-58392455D01*
X256216657Y-58563566D01*
X256109433Y-58774003D01*
X256036446Y-58998631D01*
X255999500Y-59231902D01*
X245831137Y-59231902D01*
X245587590Y-58988355D01*
X245587588Y-58988352D01*
X245468717Y-58869481D01*
X245468716Y-58869480D01*
X245364960Y-58809577D01*
X245364959Y-58809576D01*
X245331783Y-58790422D01*
X245270506Y-58774003D01*
X245179057Y-58749499D01*
X245020943Y-58749499D01*
X245013347Y-58749499D01*
X245013331Y-58749500D01*
X244624499Y-58749500D01*
X244557460Y-58729815D01*
X244511705Y-58677011D01*
X244500499Y-58625500D01*
X244500499Y-58302129D01*
X244500498Y-58302123D01*
X244500497Y-58302116D01*
X244494091Y-58242517D01*
X244490266Y-58232262D01*
X244443797Y-58107671D01*
X244443793Y-58107664D01*
X244357547Y-57992455D01*
X244357544Y-57992452D01*
X244242335Y-57906206D01*
X244242328Y-57906202D01*
X244107482Y-57855908D01*
X244107483Y-57855908D01*
X244047883Y-57849501D01*
X244047881Y-57849500D01*
X244047873Y-57849500D01*
X244047864Y-57849500D01*
X241952129Y-57849500D01*
X241952123Y-57849501D01*
X241892516Y-57855908D01*
X241757671Y-57906202D01*
X241757664Y-57906206D01*
X241642455Y-57992452D01*
X241642452Y-57992455D01*
X241556206Y-58107664D01*
X241556202Y-58107671D01*
X241505908Y-58242517D01*
X241499501Y-58302116D01*
X241499501Y-58302123D01*
X241499500Y-58302135D01*
X241499500Y-60397870D01*
X241499501Y-60397876D01*
X241505908Y-60457483D01*
X241556202Y-60592328D01*
X241556206Y-60592335D01*
X241642452Y-60707544D01*
X241642453Y-60707544D01*
X241642454Y-60707546D01*
X241674833Y-60731785D01*
X241760599Y-60795990D01*
X241802469Y-60851924D01*
X241807453Y-60921615D01*
X241786605Y-60968141D01*
X241717087Y-61063824D01*
X241609897Y-61274197D01*
X241536934Y-61498752D01*
X241500000Y-61731947D01*
X241500000Y-61968052D01*
X241536934Y-62201247D01*
X241609897Y-62425802D01*
X241717087Y-62636174D01*
X241777338Y-62719104D01*
X241777340Y-62719105D01*
X242517037Y-61979408D01*
X242534075Y-62042993D01*
X242599901Y-62157007D01*
X242692993Y-62250099D01*
X242807007Y-62315925D01*
X242870590Y-62332962D01*
X242124280Y-63079271D01*
X242115105Y-63122947D01*
X242078739Y-63164615D01*
X242022490Y-63205482D01*
X241855485Y-63372487D01*
X241855485Y-63372488D01*
X241855483Y-63372490D01*
X241810391Y-63434554D01*
X241716657Y-63563566D01*
X241609433Y-63774003D01*
X241536446Y-63998631D01*
X241499500Y-64231902D01*
X241499500Y-64468097D01*
X241536446Y-64701368D01*
X241609433Y-64925996D01*
X241708699Y-65120814D01*
X241716657Y-65136433D01*
X241855483Y-65327510D01*
X242022490Y-65494517D01*
X242138553Y-65578842D01*
X242213568Y-65633344D01*
X242288177Y-65671358D01*
X242331794Y-65693582D01*
X242382590Y-65741556D01*
X242399500Y-65804067D01*
X242399500Y-71449903D01*
X242379815Y-71516942D01*
X242363181Y-71537584D01*
X240287584Y-73613181D01*
X240226261Y-73646666D01*
X240199903Y-73649500D01*
X149999099Y-73649500D01*
X149977855Y-73643262D01*
X149955768Y-73641683D01*
X149944982Y-73633609D01*
X149932060Y-73629815D01*
X149917562Y-73613083D01*
X149899834Y-73599813D01*
X149895125Y-73587190D01*
X149886305Y-73577011D01*
X149883153Y-73555095D01*
X149875415Y-73534349D01*
X149878278Y-73521185D01*
X149876361Y-73507853D01*
X149885558Y-73487712D01*
X149890265Y-73466076D01*
X149903536Y-73448346D01*
X149905386Y-73444297D01*
X149911416Y-73437821D01*
X149911417Y-73437819D01*
X149939689Y-73409547D01*
X149980520Y-73368716D01*
X149980521Y-73368713D01*
X150980520Y-72368716D01*
X151059577Y-72231784D01*
X151100501Y-72079057D01*
X151100501Y-71920942D01*
X151100501Y-71913347D01*
X151100500Y-71913329D01*
X151100500Y-70636555D01*
X151120185Y-70569516D01*
X151172989Y-70523761D01*
X151242147Y-70513817D01*
X151260411Y-70518840D01*
X151260676Y-70517969D01*
X151266492Y-70519732D01*
X151266503Y-70519737D01*
X151387440Y-70543793D01*
X151421153Y-70550499D01*
X151421156Y-70550500D01*
X151421158Y-70550500D01*
X151578844Y-70550500D01*
X151578845Y-70550499D01*
X151733497Y-70519737D01*
X151879179Y-70459394D01*
X152010289Y-70371789D01*
X152121789Y-70260289D01*
X152124914Y-70255611D01*
X152178525Y-70210806D01*
X152228018Y-70200500D01*
X161917209Y-70200500D01*
X161984248Y-70220185D01*
X162030003Y-70272989D01*
X162033391Y-70281167D01*
X162056202Y-70342328D01*
X162056206Y-70342335D01*
X162142452Y-70457544D01*
X162142455Y-70457547D01*
X162257664Y-70543793D01*
X162257671Y-70543797D01*
X162392517Y-70594091D01*
X162392516Y-70594091D01*
X162399444Y-70594835D01*
X162452127Y-70600500D01*
X165747872Y-70600499D01*
X165807483Y-70594091D01*
X165942331Y-70543796D01*
X166057546Y-70457546D01*
X166143796Y-70342331D01*
X166159399Y-70300498D01*
X166166609Y-70281167D01*
X166208480Y-70225233D01*
X166273944Y-70200816D01*
X166282791Y-70200500D01*
X168717209Y-70200500D01*
X168784248Y-70220185D01*
X168830003Y-70272989D01*
X168833391Y-70281167D01*
X168856202Y-70342328D01*
X168856206Y-70342335D01*
X168942452Y-70457544D01*
X168942455Y-70457547D01*
X169057664Y-70543793D01*
X169057671Y-70543797D01*
X169192517Y-70594091D01*
X169192516Y-70594091D01*
X169199444Y-70594835D01*
X169252127Y-70600500D01*
X172547872Y-70600499D01*
X172607483Y-70594091D01*
X172742331Y-70543796D01*
X172857546Y-70457546D01*
X172943796Y-70342331D01*
X172959399Y-70300498D01*
X172966609Y-70281167D01*
X173008480Y-70225233D01*
X173073944Y-70200816D01*
X173082791Y-70200500D01*
X177417209Y-70200500D01*
X177484248Y-70220185D01*
X177530003Y-70272989D01*
X177533391Y-70281167D01*
X177556202Y-70342328D01*
X177556206Y-70342335D01*
X177642452Y-70457544D01*
X177642455Y-70457547D01*
X177757664Y-70543793D01*
X177757671Y-70543797D01*
X177892517Y-70594091D01*
X177892516Y-70594091D01*
X177899444Y-70594835D01*
X177952127Y-70600500D01*
X181247872Y-70600499D01*
X181307483Y-70594091D01*
X181442331Y-70543796D01*
X181557546Y-70457546D01*
X181643796Y-70342331D01*
X181659399Y-70300498D01*
X181666609Y-70281167D01*
X181708480Y-70225233D01*
X181773944Y-70200816D01*
X181782791Y-70200500D01*
X184217209Y-70200500D01*
X184284248Y-70220185D01*
X184330003Y-70272989D01*
X184333391Y-70281167D01*
X184356202Y-70342328D01*
X184356206Y-70342335D01*
X184442452Y-70457544D01*
X184442455Y-70457547D01*
X184557664Y-70543793D01*
X184557671Y-70543797D01*
X184692517Y-70594091D01*
X184692516Y-70594091D01*
X184699444Y-70594835D01*
X184752127Y-70600500D01*
X188047872Y-70600499D01*
X188107483Y-70594091D01*
X188242331Y-70543796D01*
X188357546Y-70457546D01*
X188443796Y-70342331D01*
X188494091Y-70207483D01*
X188500500Y-70147873D01*
X188500500Y-70074500D01*
X188520185Y-70007461D01*
X188572989Y-69961706D01*
X188624500Y-69950500D01*
X192167209Y-69950500D01*
X192234248Y-69970185D01*
X192280003Y-70022989D01*
X192283391Y-70031167D01*
X192306202Y-70092328D01*
X192306206Y-70092335D01*
X192392452Y-70207544D01*
X192392455Y-70207547D01*
X192507664Y-70293793D01*
X192507671Y-70293797D01*
X192642517Y-70344091D01*
X192642516Y-70344091D01*
X192649444Y-70344835D01*
X192702127Y-70350500D01*
X195997872Y-70350499D01*
X196057483Y-70344091D01*
X196192331Y-70293796D01*
X196307546Y-70207546D01*
X196393796Y-70092331D01*
X196410387Y-70047848D01*
X196416609Y-70031167D01*
X196458480Y-69975233D01*
X196523944Y-69950816D01*
X196532791Y-69950500D01*
X198967209Y-69950500D01*
X199034248Y-69970185D01*
X199080003Y-70022989D01*
X199083391Y-70031167D01*
X199106202Y-70092328D01*
X199106206Y-70092335D01*
X199192452Y-70207544D01*
X199192455Y-70207547D01*
X199307664Y-70293793D01*
X199307671Y-70293797D01*
X199442517Y-70344091D01*
X199442516Y-70344091D01*
X199449444Y-70344835D01*
X199502127Y-70350500D01*
X202797872Y-70350499D01*
X202857483Y-70344091D01*
X202992331Y-70293796D01*
X203059122Y-70243796D01*
X203083920Y-70225233D01*
X203149385Y-70200816D01*
X203158231Y-70200500D01*
X205917209Y-70200500D01*
X205984248Y-70220185D01*
X206030003Y-70272989D01*
X206033391Y-70281167D01*
X206056202Y-70342328D01*
X206056206Y-70342335D01*
X206142452Y-70457544D01*
X206142455Y-70457547D01*
X206257664Y-70543793D01*
X206257671Y-70543797D01*
X206392517Y-70594091D01*
X206392516Y-70594091D01*
X206399444Y-70594835D01*
X206452127Y-70600500D01*
X209747872Y-70600499D01*
X209807483Y-70594091D01*
X209942331Y-70543796D01*
X210057546Y-70457546D01*
X210143796Y-70342331D01*
X210159399Y-70300498D01*
X210166609Y-70281167D01*
X210208480Y-70225233D01*
X210273944Y-70200816D01*
X210282791Y-70200500D01*
X212717209Y-70200500D01*
X212784248Y-70220185D01*
X212830003Y-70272989D01*
X212833391Y-70281167D01*
X212856202Y-70342328D01*
X212856206Y-70342335D01*
X212942452Y-70457544D01*
X212942455Y-70457547D01*
X213057664Y-70543793D01*
X213057671Y-70543797D01*
X213192517Y-70594091D01*
X213192516Y-70594091D01*
X213199444Y-70594835D01*
X213252127Y-70600500D01*
X216547872Y-70600499D01*
X216607483Y-70594091D01*
X216742331Y-70543796D01*
X216857546Y-70457546D01*
X216943796Y-70342331D01*
X216994091Y-70207483D01*
X217000500Y-70147873D01*
X217000499Y-69052128D01*
X216994091Y-68992517D01*
X216993175Y-68990062D01*
X216943797Y-68857671D01*
X216943793Y-68857664D01*
X216857547Y-68742455D01*
X216857544Y-68742452D01*
X216742335Y-68656206D01*
X216742328Y-68656202D01*
X216607482Y-68605908D01*
X216607483Y-68605908D01*
X216547883Y-68599501D01*
X216547881Y-68599500D01*
X216547873Y-68599500D01*
X216547864Y-68599500D01*
X213252129Y-68599500D01*
X213252123Y-68599501D01*
X213192516Y-68605908D01*
X213057671Y-68656202D01*
X213057664Y-68656206D01*
X212942455Y-68742452D01*
X212942452Y-68742455D01*
X212856206Y-68857664D01*
X212856202Y-68857671D01*
X212833391Y-68918833D01*
X212791520Y-68974767D01*
X212726056Y-68999184D01*
X212717209Y-68999500D01*
X210282791Y-68999500D01*
X210215752Y-68979815D01*
X210169997Y-68927011D01*
X210166609Y-68918833D01*
X210143797Y-68857671D01*
X210143793Y-68857664D01*
X210057547Y-68742455D01*
X210057544Y-68742452D01*
X209942335Y-68656206D01*
X209942328Y-68656202D01*
X209807482Y-68605908D01*
X209807483Y-68605908D01*
X209747883Y-68599501D01*
X209747881Y-68599500D01*
X209747873Y-68599500D01*
X209747864Y-68599500D01*
X206452129Y-68599500D01*
X206452123Y-68599501D01*
X206392516Y-68605908D01*
X206257671Y-68656202D01*
X206257664Y-68656206D01*
X206142455Y-68742452D01*
X206142452Y-68742455D01*
X206056206Y-68857664D01*
X206056202Y-68857671D01*
X206033391Y-68918833D01*
X205991520Y-68974767D01*
X205926056Y-68999184D01*
X205917209Y-68999500D01*
X203374499Y-68999500D01*
X203307460Y-68979815D01*
X203261705Y-68927011D01*
X203250499Y-68875500D01*
X203250499Y-68802129D01*
X203250498Y-68802123D01*
X203248935Y-68787584D01*
X203244091Y-68742517D01*
X203243044Y-68739711D01*
X203193797Y-68607671D01*
X203193795Y-68607668D01*
X203192478Y-68605909D01*
X203149734Y-68548810D01*
X203125317Y-68483348D01*
X203140168Y-68415075D01*
X203189573Y-68365669D01*
X203249001Y-68350500D01*
X217170234Y-68350500D01*
X217237273Y-68370185D01*
X217239125Y-68371398D01*
X217370814Y-68459390D01*
X217370827Y-68459397D01*
X217516498Y-68519735D01*
X217516503Y-68519737D01*
X217662672Y-68548812D01*
X217671153Y-68550499D01*
X217671156Y-68550500D01*
X217671158Y-68550500D01*
X217828844Y-68550500D01*
X217828845Y-68550499D01*
X217983497Y-68519737D01*
X218121859Y-68462426D01*
X218129172Y-68459397D01*
X218129172Y-68459396D01*
X218129179Y-68459394D01*
X218260289Y-68371789D01*
X218371789Y-68260289D01*
X218459394Y-68129179D01*
X218519737Y-67983497D01*
X218550500Y-67828842D01*
X218550500Y-67671158D01*
X218550500Y-67671155D01*
X218550499Y-67671153D01*
X218542317Y-67630019D01*
X218519737Y-67516503D01*
X218476425Y-67411937D01*
X218459397Y-67370827D01*
X218459390Y-67370814D01*
X218371789Y-67239711D01*
X218371786Y-67239707D01*
X218260292Y-67128213D01*
X218260288Y-67128210D01*
X218129185Y-67040609D01*
X218129172Y-67040602D01*
X217983501Y-66980264D01*
X217983489Y-66980261D01*
X217828845Y-66949500D01*
X217828842Y-66949500D01*
X217671158Y-66949500D01*
X217671155Y-66949500D01*
X217516510Y-66980261D01*
X217516498Y-66980264D01*
X217370827Y-67040602D01*
X217370814Y-67040609D01*
X217239125Y-67128602D01*
X217172447Y-67149480D01*
X217170234Y-67149500D01*
X159800097Y-67149500D01*
X159733058Y-67129815D01*
X159712416Y-67113181D01*
X158520388Y-65921153D01*
X159949500Y-65921153D01*
X159949500Y-66078846D01*
X159980261Y-66233489D01*
X159980264Y-66233501D01*
X160040602Y-66379172D01*
X160040609Y-66379185D01*
X160128210Y-66510288D01*
X160128213Y-66510292D01*
X160239707Y-66621786D01*
X160239711Y-66621789D01*
X160370814Y-66709390D01*
X160370827Y-66709397D01*
X160471661Y-66751163D01*
X160516503Y-66769737D01*
X160671153Y-66800499D01*
X160671156Y-66800500D01*
X160671158Y-66800500D01*
X160828844Y-66800500D01*
X160828845Y-66800499D01*
X160983497Y-66769737D01*
X161129179Y-66709394D01*
X161260289Y-66621789D01*
X161371789Y-66510289D01*
X161459394Y-66379179D01*
X161519737Y-66233497D01*
X161544790Y-66107547D01*
X161550638Y-66078150D01*
X161583023Y-66016239D01*
X161584522Y-66014712D01*
X161787822Y-65811412D01*
X161849142Y-65777929D01*
X161918833Y-65782913D01*
X161974767Y-65824784D01*
X161999184Y-65890249D01*
X161999500Y-65899095D01*
X161999500Y-66147869D01*
X161999501Y-66147876D01*
X162005908Y-66207483D01*
X162056202Y-66342328D01*
X162056206Y-66342335D01*
X162142452Y-66457544D01*
X162142455Y-66457547D01*
X162257664Y-66543793D01*
X162257671Y-66543797D01*
X162392517Y-66594091D01*
X162392516Y-66594091D01*
X162399444Y-66594835D01*
X162452127Y-66600500D01*
X165747872Y-66600499D01*
X165807483Y-66594091D01*
X165942331Y-66543796D01*
X166057546Y-66457546D01*
X166143796Y-66342331D01*
X166149886Y-66326002D01*
X166166609Y-66281167D01*
X166208480Y-66225233D01*
X166273944Y-66200816D01*
X166282791Y-66200500D01*
X168717209Y-66200500D01*
X168784248Y-66220185D01*
X168830003Y-66272989D01*
X168833391Y-66281167D01*
X168856202Y-66342328D01*
X168856206Y-66342335D01*
X168942452Y-66457544D01*
X168942455Y-66457547D01*
X169057664Y-66543793D01*
X169057671Y-66543797D01*
X169192517Y-66594091D01*
X169192516Y-66594091D01*
X169199444Y-66594835D01*
X169252127Y-66600500D01*
X172547872Y-66600499D01*
X172607483Y-66594091D01*
X172742331Y-66543796D01*
X172857546Y-66457546D01*
X172943796Y-66342331D01*
X172994091Y-66207483D01*
X173000500Y-66147873D01*
X173000499Y-65052128D01*
X172994091Y-64992517D01*
X172993044Y-64989711D01*
X172943797Y-64857671D01*
X172943793Y-64857664D01*
X172857547Y-64742455D01*
X172857544Y-64742452D01*
X172742335Y-64656206D01*
X172742328Y-64656202D01*
X172607482Y-64605908D01*
X172607483Y-64605908D01*
X172547883Y-64599501D01*
X172547881Y-64599500D01*
X172547873Y-64599500D01*
X172547864Y-64599500D01*
X169252129Y-64599500D01*
X169252123Y-64599501D01*
X169192516Y-64605908D01*
X169057671Y-64656202D01*
X169057664Y-64656206D01*
X168942455Y-64742452D01*
X168942452Y-64742455D01*
X168856206Y-64857664D01*
X168856202Y-64857671D01*
X168833391Y-64918833D01*
X168791520Y-64974767D01*
X168726056Y-64999184D01*
X168717209Y-64999500D01*
X166282791Y-64999500D01*
X166215752Y-64979815D01*
X166169997Y-64927011D01*
X166166609Y-64918833D01*
X166143797Y-64857671D01*
X166143793Y-64857664D01*
X166057547Y-64742455D01*
X166057544Y-64742452D01*
X165942335Y-64656206D01*
X165942328Y-64656202D01*
X165807482Y-64605908D01*
X165807483Y-64605908D01*
X165747883Y-64599501D01*
X165747881Y-64599500D01*
X165747873Y-64599500D01*
X165747865Y-64599500D01*
X164824501Y-64599500D01*
X164757462Y-64579815D01*
X164711707Y-64527011D01*
X164700501Y-64475500D01*
X164700501Y-64320945D01*
X164700501Y-64320943D01*
X164659577Y-64168215D01*
X164620482Y-64100501D01*
X164580520Y-64031284D01*
X164499621Y-63950385D01*
X164495205Y-63944821D01*
X164491549Y-63935808D01*
X164477770Y-63915185D01*
X164475815Y-63910465D01*
X164459394Y-63870821D01*
X164459392Y-63870819D01*
X164459392Y-63870817D01*
X164371789Y-63739711D01*
X164371786Y-63739707D01*
X164328337Y-63696258D01*
X164294852Y-63634935D01*
X164299836Y-63565243D01*
X164328334Y-63520899D01*
X165514664Y-62334571D01*
X165575985Y-62301088D01*
X165578152Y-62300637D01*
X165578841Y-62300500D01*
X165578842Y-62300500D01*
X165733497Y-62269737D01*
X165879179Y-62209394D01*
X166010289Y-62121789D01*
X166121789Y-62010289D01*
X166209394Y-61879179D01*
X166211029Y-61875233D01*
X166242151Y-61800096D01*
X166269737Y-61733497D01*
X166300500Y-61578842D01*
X166300500Y-61421158D01*
X166300500Y-61421155D01*
X166300499Y-61421153D01*
X166271267Y-61274197D01*
X166269737Y-61266503D01*
X166257664Y-61237355D01*
X166209397Y-61120827D01*
X166209390Y-61120814D01*
X166121789Y-60989711D01*
X166121786Y-60989707D01*
X166010292Y-60878213D01*
X166010288Y-60878210D01*
X165879185Y-60790609D01*
X165879172Y-60790602D01*
X165733501Y-60730264D01*
X165733489Y-60730261D01*
X165578845Y-60699500D01*
X165578842Y-60699500D01*
X165421158Y-60699500D01*
X165421155Y-60699500D01*
X165266510Y-60730261D01*
X165266498Y-60730264D01*
X165120827Y-60790602D01*
X165120814Y-60790609D01*
X164989711Y-60878210D01*
X164989707Y-60878213D01*
X164878213Y-60989707D01*
X164878210Y-60989711D01*
X164790609Y-61120814D01*
X164790602Y-61120827D01*
X164730264Y-61266498D01*
X164730261Y-61266508D01*
X164699362Y-61421848D01*
X164666977Y-61483759D01*
X164665426Y-61485337D01*
X162287584Y-63863181D01*
X162226261Y-63896666D01*
X162199903Y-63899500D01*
X162170940Y-63899500D01*
X162130019Y-63910464D01*
X162130019Y-63910465D01*
X162092751Y-63920451D01*
X162018214Y-63940423D01*
X162018209Y-63940426D01*
X161881290Y-64019475D01*
X161881282Y-64019481D01*
X160735339Y-65165425D01*
X160674016Y-65198910D01*
X160671850Y-65199361D01*
X160516508Y-65230261D01*
X160516498Y-65230264D01*
X160370827Y-65290602D01*
X160370814Y-65290609D01*
X160239711Y-65378210D01*
X160239707Y-65378213D01*
X160128213Y-65489707D01*
X160128210Y-65489711D01*
X160040609Y-65620814D01*
X160040602Y-65620827D01*
X159980264Y-65766498D01*
X159980261Y-65766510D01*
X159949500Y-65921153D01*
X158520388Y-65921153D01*
X157864731Y-65265496D01*
X157858978Y-65254961D01*
X157849723Y-65247320D01*
X157842543Y-65224863D01*
X157831246Y-65204173D01*
X157831570Y-65190538D01*
X157828447Y-65180768D01*
X157832637Y-65145721D01*
X157836506Y-65131284D01*
X157844754Y-65100501D01*
X157850500Y-65079058D01*
X157850500Y-64920943D01*
X157850500Y-60839059D01*
X157850501Y-60839046D01*
X157850501Y-60670945D01*
X157850501Y-60670943D01*
X157809577Y-60518215D01*
X157809576Y-60518214D01*
X157809576Y-60518212D01*
X157809574Y-60518209D01*
X157774514Y-60457484D01*
X157774512Y-60457482D01*
X157730520Y-60381284D01*
X157618716Y-60269480D01*
X157618715Y-60269479D01*
X157614385Y-60265149D01*
X157614374Y-60265139D01*
X156487590Y-59138355D01*
X156487588Y-59138352D01*
X156368717Y-59019481D01*
X156368716Y-59019480D01*
X156281904Y-58969360D01*
X156281904Y-58969359D01*
X156281900Y-58969358D01*
X156231785Y-58940423D01*
X156079057Y-58899499D01*
X155920943Y-58899499D01*
X155913347Y-58899499D01*
X155913331Y-58899500D01*
X155329766Y-58899500D01*
X155262727Y-58879815D01*
X155260875Y-58878602D01*
X155129185Y-58790609D01*
X155129172Y-58790602D01*
X154983501Y-58730264D01*
X154983489Y-58730261D01*
X154828845Y-58699500D01*
X154828842Y-58699500D01*
X154671158Y-58699500D01*
X154671155Y-58699500D01*
X154516510Y-58730261D01*
X154516498Y-58730264D01*
X154370827Y-58790602D01*
X154370814Y-58790609D01*
X154239711Y-58878210D01*
X154239707Y-58878213D01*
X154128213Y-58989707D01*
X154128210Y-58989711D01*
X154040609Y-59120814D01*
X154040602Y-59120827D01*
X153980264Y-59266498D01*
X153980261Y-59266510D01*
X153949500Y-59421153D01*
X153949500Y-59578846D01*
X153980261Y-59733489D01*
X153980264Y-59733501D01*
X154040602Y-59879172D01*
X154040609Y-59879185D01*
X154128210Y-60010288D01*
X154128213Y-60010292D01*
X154239708Y-60121787D01*
X154240621Y-60122397D01*
X154240991Y-60122839D01*
X154244419Y-60125653D01*
X154243885Y-60126303D01*
X154285427Y-60176010D01*
X154294134Y-60245334D01*
X154263980Y-60308362D01*
X154204537Y-60345082D01*
X154171731Y-60349500D01*
X152452129Y-60349500D01*
X152452123Y-60349501D01*
X152392516Y-60355908D01*
X152257671Y-60406202D01*
X152257664Y-60406206D01*
X152142455Y-60492452D01*
X152142452Y-60492455D01*
X152056206Y-60607664D01*
X152056202Y-60607671D01*
X152033391Y-60668833D01*
X151991520Y-60724767D01*
X151926056Y-60749184D01*
X151917209Y-60749500D01*
X149482791Y-60749500D01*
X149415752Y-60729815D01*
X149369997Y-60677011D01*
X149366609Y-60668833D01*
X149343797Y-60607671D01*
X149343793Y-60607664D01*
X149257547Y-60492455D01*
X149257544Y-60492452D01*
X149142335Y-60406206D01*
X149142328Y-60406202D01*
X149007482Y-60355908D01*
X149007483Y-60355908D01*
X148947883Y-60349501D01*
X148947881Y-60349500D01*
X148947873Y-60349500D01*
X148947864Y-60349500D01*
X145652129Y-60349500D01*
X145652123Y-60349501D01*
X145592516Y-60355908D01*
X145457671Y-60406202D01*
X145457664Y-60406206D01*
X145342455Y-60492452D01*
X145342452Y-60492455D01*
X145256206Y-60607664D01*
X145256202Y-60607671D01*
X145205908Y-60742517D01*
X145199501Y-60802116D01*
X145199500Y-60802135D01*
X145199500Y-61897870D01*
X145199501Y-61897876D01*
X145205908Y-61957483D01*
X145256202Y-62092328D01*
X145256206Y-62092335D01*
X145297630Y-62147670D01*
X145297633Y-62147673D01*
X145342454Y-62207546D01*
X145457665Y-62293793D01*
X145457668Y-62293795D01*
X145457671Y-62293797D01*
X145592517Y-62344091D01*
X145592516Y-62344091D01*
X145599444Y-62344835D01*
X145652127Y-62350500D01*
X148947872Y-62350499D01*
X149007483Y-62344091D01*
X149142331Y-62293796D01*
X149257546Y-62207546D01*
X149343796Y-62092331D01*
X149366609Y-62031167D01*
X149408480Y-61975233D01*
X149473944Y-61950816D01*
X149482791Y-61950500D01*
X151917209Y-61950500D01*
X151984248Y-61970185D01*
X152030003Y-62022989D01*
X152033391Y-62031167D01*
X152056202Y-62092328D01*
X152056206Y-62092335D01*
X152142452Y-62207544D01*
X152142455Y-62207547D01*
X152257664Y-62293793D01*
X152257671Y-62293797D01*
X152392517Y-62344091D01*
X152392516Y-62344091D01*
X152399444Y-62344835D01*
X152452127Y-62350500D01*
X155747872Y-62350499D01*
X155807483Y-62344091D01*
X155942331Y-62293796D01*
X156021969Y-62234178D01*
X156087432Y-62209761D01*
X156143731Y-62218883D01*
X156266503Y-62269737D01*
X156387440Y-62293793D01*
X156421153Y-62300499D01*
X156421156Y-62300500D01*
X156525500Y-62300500D01*
X156592539Y-62320185D01*
X156638294Y-62372989D01*
X156649500Y-62424500D01*
X156649500Y-64455164D01*
X156629815Y-64522203D01*
X156594391Y-64558266D01*
X156489711Y-64628210D01*
X156379781Y-64738140D01*
X156318458Y-64771624D01*
X156248766Y-64766640D01*
X156192833Y-64724768D01*
X156175918Y-64693791D01*
X156143797Y-64607671D01*
X156143793Y-64607664D01*
X156057547Y-64492455D01*
X156057544Y-64492452D01*
X155942335Y-64406206D01*
X155942328Y-64406202D01*
X155807482Y-64355908D01*
X155807483Y-64355908D01*
X155747883Y-64349501D01*
X155747881Y-64349500D01*
X155747873Y-64349500D01*
X155747864Y-64349500D01*
X152452129Y-64349500D01*
X152452123Y-64349501D01*
X152392516Y-64355908D01*
X152257671Y-64406202D01*
X152257664Y-64406206D01*
X152142455Y-64492452D01*
X152142452Y-64492455D01*
X152056206Y-64607664D01*
X152056202Y-64607671D01*
X152033391Y-64668833D01*
X151991520Y-64724767D01*
X151926056Y-64749184D01*
X151917209Y-64749500D01*
X149482791Y-64749500D01*
X149415752Y-64729815D01*
X149369997Y-64677011D01*
X149366609Y-64668833D01*
X149343797Y-64607671D01*
X149343793Y-64607664D01*
X149257547Y-64492455D01*
X149257544Y-64492452D01*
X149142335Y-64406206D01*
X149142328Y-64406202D01*
X149007482Y-64355908D01*
X149007483Y-64355908D01*
X148947883Y-64349501D01*
X148947881Y-64349500D01*
X148947873Y-64349500D01*
X148947865Y-64349500D01*
X147200098Y-64349500D01*
X147133059Y-64329815D01*
X147112417Y-64313181D01*
X144636819Y-61837583D01*
X144603334Y-61776260D01*
X144600500Y-61749902D01*
X144600500Y-60300097D01*
X144620185Y-60233058D01*
X144636819Y-60212416D01*
X146212417Y-58636818D01*
X146273740Y-58603333D01*
X146300098Y-58600499D01*
X148297871Y-58600499D01*
X148297872Y-58600499D01*
X148357483Y-58594091D01*
X148492331Y-58543796D01*
X148607546Y-58457546D01*
X148693796Y-58342331D01*
X148744091Y-58207483D01*
X148750500Y-58147873D01*
X148750499Y-57052128D01*
X148744091Y-56992517D01*
X148739616Y-56980520D01*
X148693797Y-56857671D01*
X148693793Y-56857664D01*
X148607547Y-56742455D01*
X148607544Y-56742452D01*
X148492335Y-56656206D01*
X148492328Y-56656202D01*
X148357482Y-56605908D01*
X148357483Y-56605908D01*
X148297883Y-56599501D01*
X148297881Y-56599500D01*
X148297873Y-56599500D01*
X148297864Y-56599500D01*
X145002129Y-56599500D01*
X145002123Y-56599501D01*
X144942516Y-56605908D01*
X144807671Y-56656202D01*
X144807664Y-56656206D01*
X144692455Y-56742452D01*
X144692452Y-56742455D01*
X144606206Y-56857664D01*
X144606202Y-56857671D01*
X144583391Y-56918833D01*
X144541520Y-56974767D01*
X144476056Y-56999184D01*
X144467209Y-56999500D01*
X142032791Y-56999500D01*
X141965752Y-56979815D01*
X141919997Y-56927011D01*
X141916609Y-56918833D01*
X141893797Y-56857671D01*
X141893793Y-56857664D01*
X141807547Y-56742455D01*
X141807544Y-56742452D01*
X141692335Y-56656206D01*
X141692328Y-56656202D01*
X141557482Y-56605908D01*
X141557483Y-56605908D01*
X141497883Y-56599501D01*
X141497881Y-56599500D01*
X141497873Y-56599500D01*
X141497864Y-56599500D01*
X138202129Y-56599500D01*
X138202123Y-56599501D01*
X138142516Y-56605908D01*
X138007671Y-56656202D01*
X138007664Y-56656206D01*
X137892455Y-56742452D01*
X137892452Y-56742455D01*
X137806206Y-56857664D01*
X137806202Y-56857671D01*
X137755908Y-56992517D01*
X137751867Y-57030109D01*
X137749501Y-57052123D01*
X137749500Y-57052135D01*
X137749500Y-58147870D01*
X137749501Y-58147876D01*
X137755908Y-58207483D01*
X137806202Y-58342328D01*
X137806206Y-58342335D01*
X137892452Y-58457544D01*
X137892455Y-58457547D01*
X138007664Y-58543793D01*
X138007671Y-58543797D01*
X138142517Y-58594091D01*
X138142516Y-58594091D01*
X138149444Y-58594835D01*
X138202127Y-58600500D01*
X141497872Y-58600499D01*
X141557483Y-58594091D01*
X141692331Y-58543796D01*
X141807546Y-58457546D01*
X141893796Y-58342331D01*
X141906021Y-58309554D01*
X141916609Y-58281167D01*
X141958480Y-58225233D01*
X142023944Y-58200816D01*
X142032791Y-58200500D01*
X144467209Y-58200500D01*
X144481862Y-58204802D01*
X144497122Y-58204162D01*
X144514705Y-58214446D01*
X144534248Y-58220185D01*
X144545165Y-58232262D01*
X144557433Y-58239438D01*
X144570191Y-58259948D01*
X144577743Y-58268302D01*
X144580933Y-58274577D01*
X144606204Y-58342331D01*
X144634805Y-58380537D01*
X144639657Y-58390080D01*
X144644187Y-58414321D01*
X144652807Y-58437430D01*
X144650493Y-58448064D01*
X144652493Y-58458761D01*
X144643197Y-58481605D01*
X144637956Y-58505703D01*
X144627958Y-58519058D01*
X144626160Y-58523478D01*
X144622969Y-58525723D01*
X144616804Y-58533959D01*
X143631286Y-59519478D01*
X143519481Y-59631282D01*
X143519479Y-59631285D01*
X143497483Y-59669383D01*
X143479018Y-59701368D01*
X143475488Y-59707482D01*
X143475486Y-59707484D01*
X143440425Y-59768209D01*
X143440423Y-59768212D01*
X143432473Y-59797883D01*
X143399499Y-59920943D01*
X143399499Y-59920945D01*
X143399499Y-60089046D01*
X143399500Y-60089059D01*
X143399500Y-61963330D01*
X143399499Y-61963348D01*
X143399499Y-62129054D01*
X143399498Y-62129054D01*
X143432040Y-62250499D01*
X143440423Y-62281785D01*
X143451228Y-62300500D01*
X143469358Y-62331900D01*
X143469359Y-62331904D01*
X143469360Y-62331904D01*
X143504318Y-62392455D01*
X143519479Y-62418714D01*
X143519481Y-62418717D01*
X143638349Y-62537585D01*
X143638355Y-62537590D01*
X145384673Y-64283909D01*
X145418158Y-64345232D01*
X145413174Y-64414924D01*
X145371305Y-64470855D01*
X145342454Y-64492453D01*
X145342452Y-64492455D01*
X145256206Y-64607664D01*
X145256202Y-64607671D01*
X145233391Y-64668833D01*
X145191520Y-64724767D01*
X145126056Y-64749184D01*
X145117209Y-64749500D01*
X141116977Y-64749500D01*
X141049938Y-64729815D01*
X141004183Y-64677011D01*
X140996733Y-64649865D01*
X140995876Y-64650068D01*
X140994092Y-64642520D01*
X140943797Y-64507671D01*
X140943793Y-64507664D01*
X140857547Y-64392455D01*
X140857544Y-64392452D01*
X140742335Y-64306206D01*
X140742328Y-64306202D01*
X140607482Y-64255908D01*
X140607483Y-64255908D01*
X140547883Y-64249501D01*
X140547881Y-64249500D01*
X140547873Y-64249500D01*
X140547864Y-64249500D01*
X137252129Y-64249500D01*
X137252123Y-64249501D01*
X137192516Y-64255908D01*
X137057671Y-64306202D01*
X137057664Y-64306206D01*
X136942455Y-64392452D01*
X136942452Y-64392455D01*
X136856206Y-64507664D01*
X136856202Y-64507671D01*
X136833391Y-64568833D01*
X136791520Y-64624767D01*
X136726056Y-64649184D01*
X136717209Y-64649500D01*
X134282791Y-64649500D01*
X134215752Y-64629815D01*
X134169997Y-64577011D01*
X134166609Y-64568833D01*
X134143797Y-64507671D01*
X134143793Y-64507664D01*
X134057547Y-64392455D01*
X134057544Y-64392452D01*
X133942335Y-64306206D01*
X133942328Y-64306202D01*
X133807482Y-64255908D01*
X133807483Y-64255908D01*
X133747883Y-64249501D01*
X133747881Y-64249500D01*
X133747873Y-64249500D01*
X133747864Y-64249500D01*
X130452129Y-64249500D01*
X130452123Y-64249501D01*
X130392516Y-64255908D01*
X130257671Y-64306202D01*
X130257664Y-64306206D01*
X130142455Y-64392452D01*
X130142452Y-64392455D01*
X130056206Y-64507664D01*
X130056202Y-64507671D01*
X130005908Y-64642517D01*
X129999501Y-64702116D01*
X129999500Y-64702135D01*
X129999500Y-65797870D01*
X129999501Y-65797876D01*
X130005908Y-65857483D01*
X130056202Y-65992328D01*
X130056206Y-65992335D01*
X130142451Y-66107543D01*
X130142455Y-66107547D01*
X130257664Y-66193793D01*
X130257671Y-66193797D01*
X130392517Y-66244091D01*
X130392516Y-66244091D01*
X130399444Y-66244835D01*
X130452127Y-66250500D01*
X133747872Y-66250499D01*
X133807483Y-66244091D01*
X133942331Y-66193796D01*
X134057546Y-66107546D01*
X134057547Y-66107544D01*
X134057549Y-66107543D01*
X134143793Y-65992335D01*
X134143792Y-65992335D01*
X134143796Y-65992331D01*
X134156792Y-65957486D01*
X134166609Y-65931167D01*
X134208480Y-65875233D01*
X134273944Y-65850816D01*
X134282791Y-65850500D01*
X136717209Y-65850500D01*
X136784248Y-65870185D01*
X136830003Y-65922989D01*
X136833391Y-65931167D01*
X136856202Y-65992328D01*
X136856206Y-65992335D01*
X136942451Y-66107543D01*
X136942455Y-66107547D01*
X137057664Y-66193793D01*
X137057671Y-66193797D01*
X137192517Y-66244091D01*
X137192516Y-66244091D01*
X137199444Y-66244835D01*
X137252127Y-66250500D01*
X140547872Y-66250499D01*
X140607483Y-66244091D01*
X140742331Y-66193796D01*
X140857546Y-66107546D01*
X140937914Y-66000188D01*
X140993847Y-65958318D01*
X141037180Y-65950500D01*
X145117209Y-65950500D01*
X145184248Y-65970185D01*
X145230003Y-66022989D01*
X145233391Y-66031167D01*
X145256202Y-66092328D01*
X145256206Y-66092335D01*
X145342452Y-66207544D01*
X145342455Y-66207547D01*
X145457664Y-66293793D01*
X145457671Y-66293797D01*
X145592517Y-66344091D01*
X145592516Y-66344091D01*
X145599444Y-66344835D01*
X145652127Y-66350500D01*
X147399902Y-66350499D01*
X147466941Y-66370184D01*
X147487583Y-66386818D01*
X147687584Y-66586819D01*
X147721069Y-66648142D01*
X147716085Y-66717834D01*
X147674213Y-66773767D01*
X147608749Y-66798184D01*
X147599903Y-66798500D01*
X134687670Y-66798500D01*
X134687654Y-66798499D01*
X134680058Y-66798499D01*
X134521943Y-66798499D01*
X134445579Y-66818961D01*
X134369214Y-66839423D01*
X134369209Y-66839426D01*
X134232290Y-66918475D01*
X134232282Y-66918481D01*
X130438584Y-70712181D01*
X130377261Y-70745666D01*
X130350903Y-70748500D01*
X127900097Y-70748500D01*
X127833058Y-70728815D01*
X127787303Y-70676011D01*
X127777359Y-70606853D01*
X127806384Y-70543297D01*
X127812416Y-70536819D01*
X128538303Y-69810932D01*
X129480520Y-68868716D01*
X129559577Y-68731785D01*
X129600501Y-68579057D01*
X129600501Y-68420942D01*
X129600501Y-68413347D01*
X129600500Y-68413329D01*
X129600500Y-61800096D01*
X129609144Y-61770655D01*
X129615668Y-61740669D01*
X129619422Y-61735653D01*
X129620185Y-61733057D01*
X129636810Y-61712424D01*
X129787823Y-61561410D01*
X129849142Y-61527929D01*
X129918833Y-61532913D01*
X129974767Y-61574784D01*
X129999184Y-61640249D01*
X129999500Y-61649094D01*
X129999500Y-61797869D01*
X129999501Y-61797876D01*
X130005908Y-61857483D01*
X130056202Y-61992328D01*
X130056206Y-61992335D01*
X130142452Y-62107544D01*
X130142455Y-62107547D01*
X130257664Y-62193793D01*
X130257671Y-62193797D01*
X130392517Y-62244091D01*
X130392516Y-62244091D01*
X130399444Y-62244835D01*
X130452127Y-62250500D01*
X133747872Y-62250499D01*
X133807483Y-62244091D01*
X133942331Y-62193796D01*
X134057546Y-62107546D01*
X134143796Y-61992331D01*
X134152056Y-61970185D01*
X134166609Y-61931167D01*
X134208480Y-61875233D01*
X134273944Y-61850816D01*
X134282791Y-61850500D01*
X136717209Y-61850500D01*
X136784248Y-61870185D01*
X136830003Y-61922989D01*
X136833391Y-61931167D01*
X136856202Y-61992328D01*
X136856206Y-61992335D01*
X136942452Y-62107544D01*
X136942455Y-62107547D01*
X137057664Y-62193793D01*
X137057671Y-62193797D01*
X137192517Y-62244091D01*
X137192516Y-62244091D01*
X137199444Y-62244835D01*
X137252127Y-62250500D01*
X140547872Y-62250499D01*
X140607483Y-62244091D01*
X140742331Y-62193796D01*
X140857546Y-62107546D01*
X140943796Y-61992331D01*
X140994091Y-61857483D01*
X141000500Y-61797873D01*
X141000499Y-61667647D01*
X141020183Y-61600609D01*
X141072987Y-61554854D01*
X141142145Y-61544910D01*
X141148684Y-61546029D01*
X141160081Y-61548296D01*
X141171157Y-61550500D01*
X141171158Y-61550500D01*
X141328844Y-61550500D01*
X141328845Y-61550499D01*
X141483497Y-61519737D01*
X141629179Y-61459394D01*
X141760289Y-61371789D01*
X141871789Y-61260289D01*
X141959394Y-61129179D01*
X141962854Y-61120827D01*
X142004833Y-61019478D01*
X142019737Y-60983497D01*
X142050500Y-60828842D01*
X142050500Y-60671158D01*
X142050500Y-60671155D01*
X142050499Y-60671153D01*
X142042569Y-60631285D01*
X142019737Y-60516503D01*
X142008640Y-60489713D01*
X141959397Y-60370827D01*
X141959390Y-60370814D01*
X141871789Y-60239711D01*
X141871786Y-60239707D01*
X141760292Y-60128213D01*
X141760288Y-60128210D01*
X141629185Y-60040609D01*
X141629172Y-60040602D01*
X141483501Y-59980264D01*
X141483489Y-59980261D01*
X141328845Y-59949500D01*
X141328842Y-59949500D01*
X141171158Y-59949500D01*
X141171155Y-59949500D01*
X141016510Y-59980261D01*
X141016498Y-59980264D01*
X140870827Y-60040602D01*
X140870814Y-60040609D01*
X140739125Y-60128602D01*
X140672447Y-60149480D01*
X140670234Y-60149500D01*
X139486670Y-60149500D01*
X139486654Y-60149499D01*
X139479058Y-60149499D01*
X139320943Y-60149499D01*
X139244579Y-60169961D01*
X139168214Y-60190423D01*
X139168211Y-60190425D01*
X139094661Y-60232888D01*
X139032663Y-60249500D01*
X137252129Y-60249500D01*
X137252123Y-60249501D01*
X137192516Y-60255908D01*
X137057671Y-60306202D01*
X137057664Y-60306206D01*
X136942455Y-60392452D01*
X136942452Y-60392455D01*
X136856206Y-60507664D01*
X136856202Y-60507671D01*
X136833391Y-60568833D01*
X136791520Y-60624767D01*
X136726056Y-60649184D01*
X136717209Y-60649500D01*
X136136555Y-60649500D01*
X136069516Y-60629815D01*
X136023761Y-60577011D01*
X136013817Y-60507853D01*
X136018840Y-60489588D01*
X136017969Y-60489324D01*
X136019731Y-60483509D01*
X136019737Y-60483497D01*
X136050500Y-60328842D01*
X136050500Y-60171158D01*
X136050500Y-60171155D01*
X136050499Y-60171153D01*
X136043868Y-60137819D01*
X136019737Y-60016503D01*
X136010125Y-59993297D01*
X135959397Y-59870827D01*
X135959390Y-59870814D01*
X135871789Y-59739711D01*
X135871786Y-59739707D01*
X135760292Y-59628213D01*
X135760288Y-59628210D01*
X135629185Y-59540609D01*
X135629172Y-59540602D01*
X135483501Y-59480264D01*
X135483489Y-59480261D01*
X135328845Y-59449500D01*
X135328842Y-59449500D01*
X135171158Y-59449500D01*
X135171155Y-59449500D01*
X135016510Y-59480261D01*
X135016498Y-59480264D01*
X134870827Y-59540602D01*
X134870814Y-59540609D01*
X134739711Y-59628210D01*
X134739707Y-59628213D01*
X134628210Y-59739710D01*
X134558266Y-59844391D01*
X134552174Y-59849481D01*
X134548877Y-59856703D01*
X134525749Y-59871566D01*
X134504654Y-59889196D01*
X134495279Y-59891147D01*
X134490099Y-59894477D01*
X134455164Y-59899500D01*
X134281777Y-59899500D01*
X134240688Y-59891327D01*
X134240635Y-59891527D01*
X134237588Y-59890710D01*
X134234327Y-59890062D01*
X134232786Y-59889424D01*
X134232785Y-59889423D01*
X134232784Y-59889423D01*
X134080057Y-59848500D01*
X130278057Y-59848500D01*
X130119943Y-59848500D01*
X129967216Y-59889423D01*
X129965674Y-59890062D01*
X129962408Y-59890711D01*
X129959365Y-59891527D01*
X129959311Y-59891327D01*
X129928863Y-59897383D01*
X129929002Y-59898438D01*
X129920945Y-59899498D01*
X129768214Y-59940423D01*
X129768209Y-59940426D01*
X129631290Y-60019475D01*
X129631282Y-60019481D01*
X128519481Y-61131282D01*
X128519479Y-61131285D01*
X128469361Y-61218094D01*
X128469359Y-61218096D01*
X128440425Y-61268209D01*
X128440424Y-61268210D01*
X128440423Y-61268215D01*
X128399499Y-61420943D01*
X128399499Y-61420945D01*
X128399499Y-61589046D01*
X128399500Y-61589059D01*
X128399500Y-68199902D01*
X128379815Y-68266941D01*
X128363181Y-68287583D01*
X127262181Y-69388583D01*
X127200858Y-69422068D01*
X127131166Y-69417084D01*
X127075233Y-69375212D01*
X127050816Y-69309748D01*
X127050500Y-69300902D01*
X127050500Y-69171155D01*
X127050499Y-69171153D01*
X127042150Y-69129179D01*
X127019737Y-69016503D01*
X127006852Y-68985396D01*
X126959397Y-68870827D01*
X126959390Y-68870814D01*
X126871789Y-68739711D01*
X126871786Y-68739707D01*
X126760292Y-68628213D01*
X126760288Y-68628210D01*
X126629185Y-68540609D01*
X126629172Y-68540602D01*
X126483501Y-68480264D01*
X126483489Y-68480261D01*
X126328845Y-68449500D01*
X126328842Y-68449500D01*
X126171158Y-68449500D01*
X126171155Y-68449500D01*
X126016510Y-68480261D01*
X126016498Y-68480264D01*
X125870827Y-68540602D01*
X125870814Y-68540609D01*
X125739711Y-68628210D01*
X125739707Y-68628213D01*
X125628213Y-68739707D01*
X125628210Y-68739711D01*
X125540609Y-68870814D01*
X125540602Y-68870827D01*
X125480264Y-69016498D01*
X125480261Y-69016508D01*
X125449361Y-69171850D01*
X125416976Y-69233761D01*
X125415425Y-69235339D01*
X124787584Y-69863181D01*
X124726261Y-69896666D01*
X124699903Y-69899500D01*
X92934297Y-69899500D01*
X92867258Y-69879815D01*
X92846616Y-69863181D01*
X90823120Y-67839685D01*
X116598300Y-67839685D01*
X116598300Y-68060316D01*
X116632815Y-68278234D01*
X116632815Y-68278237D01*
X116700992Y-68488064D01*
X116801157Y-68684648D01*
X116847715Y-68748731D01*
X117400718Y-68195728D01*
X117426016Y-68256802D01*
X117496899Y-68362886D01*
X117587115Y-68453102D01*
X117693199Y-68523985D01*
X117754271Y-68549281D01*
X117201268Y-69102283D01*
X117201268Y-69102284D01*
X117265352Y-69148843D01*
X117461936Y-69249008D01*
X117671764Y-69317185D01*
X117889685Y-69351701D01*
X118110315Y-69351701D01*
X118328233Y-69317185D01*
X118328236Y-69317185D01*
X118538063Y-69249008D01*
X118734651Y-69148841D01*
X118798730Y-69102284D01*
X118798731Y-69102284D01*
X118245728Y-68549282D01*
X118306801Y-68523985D01*
X118412885Y-68453102D01*
X118503101Y-68362886D01*
X118573984Y-68256802D01*
X118599280Y-68195729D01*
X119152283Y-68748732D01*
X119152283Y-68748731D01*
X119198840Y-68684652D01*
X119299007Y-68488064D01*
X119367184Y-68278237D01*
X119367184Y-68278234D01*
X119401700Y-68060316D01*
X119401700Y-67839685D01*
X119367184Y-67621767D01*
X119367184Y-67621764D01*
X119299007Y-67411937D01*
X119198842Y-67215353D01*
X119152283Y-67151269D01*
X119152282Y-67151269D01*
X118599280Y-67704271D01*
X118573984Y-67643200D01*
X118503101Y-67537116D01*
X118412885Y-67446900D01*
X118306801Y-67376017D01*
X118245726Y-67350719D01*
X118798730Y-66797716D01*
X118734647Y-66751158D01*
X118538063Y-66650993D01*
X118328235Y-66582816D01*
X118110315Y-66548301D01*
X117889685Y-66548301D01*
X117671766Y-66582816D01*
X117671763Y-66582816D01*
X117461936Y-66650993D01*
X117265342Y-66751163D01*
X117201268Y-66797715D01*
X117201268Y-66797716D01*
X117754271Y-67350719D01*
X117693199Y-67376017D01*
X117587115Y-67446900D01*
X117496899Y-67537116D01*
X117426016Y-67643200D01*
X117400718Y-67704272D01*
X116847715Y-67151269D01*
X116847714Y-67151269D01*
X116801162Y-67215343D01*
X116700992Y-67411937D01*
X116632815Y-67621764D01*
X116632815Y-67621767D01*
X116598300Y-67839685D01*
X90823120Y-67839685D01*
X86085397Y-63101962D01*
X93991500Y-63101962D01*
X93991500Y-63398037D01*
X94019984Y-63614385D01*
X94030144Y-63691557D01*
X94072817Y-63850816D01*
X94105467Y-63972672D01*
X94106769Y-63977529D01*
X94196351Y-64193796D01*
X94220070Y-64251059D01*
X94220071Y-64251060D01*
X94368096Y-64507447D01*
X94548324Y-64742326D01*
X94548330Y-64742333D01*
X94757666Y-64951669D01*
X94757673Y-64951675D01*
X94992552Y-65131903D01*
X95248939Y-65279928D01*
X95248940Y-65279929D01*
X95248943Y-65279930D01*
X95248948Y-65279933D01*
X95522471Y-65393231D01*
X95808443Y-65469856D01*
X96101970Y-65508500D01*
X96101977Y-65508500D01*
X96398023Y-65508500D01*
X96398030Y-65508500D01*
X96691557Y-65469856D01*
X96977529Y-65393231D01*
X97251052Y-65279933D01*
X97507448Y-65131903D01*
X97742328Y-64951674D01*
X97951674Y-64742328D01*
X98131903Y-64507448D01*
X98279933Y-64251052D01*
X98393231Y-63977529D01*
X98469856Y-63691557D01*
X98508500Y-63398030D01*
X98508500Y-63101970D01*
X98508499Y-63101962D01*
X103991500Y-63101962D01*
X103991500Y-63398037D01*
X104019984Y-63614385D01*
X104030144Y-63691557D01*
X104072817Y-63850816D01*
X104105467Y-63972672D01*
X104106769Y-63977529D01*
X104196351Y-64193796D01*
X104220070Y-64251059D01*
X104220071Y-64251060D01*
X104368096Y-64507447D01*
X104548324Y-64742326D01*
X104548330Y-64742333D01*
X104757666Y-64951669D01*
X104757673Y-64951675D01*
X104992552Y-65131903D01*
X105248939Y-65279928D01*
X105248940Y-65279929D01*
X105248943Y-65279930D01*
X105248948Y-65279933D01*
X105522471Y-65393231D01*
X105808443Y-65469856D01*
X106101970Y-65508500D01*
X106101977Y-65508500D01*
X106398023Y-65508500D01*
X106398030Y-65508500D01*
X106691557Y-65469856D01*
X106977529Y-65393231D01*
X107251052Y-65279933D01*
X107507448Y-65131903D01*
X107742328Y-64951674D01*
X107951674Y-64742328D01*
X108131903Y-64507448D01*
X108279933Y-64251052D01*
X108393231Y-63977529D01*
X108469856Y-63691557D01*
X108508500Y-63398030D01*
X108508500Y-63101970D01*
X108469856Y-62808443D01*
X108393231Y-62522471D01*
X108279933Y-62248948D01*
X108279930Y-62248943D01*
X108279929Y-62248940D01*
X108279928Y-62248939D01*
X108131903Y-61992552D01*
X107951675Y-61757673D01*
X107951669Y-61757666D01*
X107742333Y-61548330D01*
X107742326Y-61548324D01*
X107507447Y-61368096D01*
X107251060Y-61220071D01*
X107251059Y-61220070D01*
X107251052Y-61220067D01*
X106977529Y-61106769D01*
X106691557Y-61030144D01*
X106459863Y-60999640D01*
X106398037Y-60991500D01*
X106398030Y-60991500D01*
X106101970Y-60991500D01*
X106101962Y-60991500D01*
X105822571Y-61028283D01*
X105808443Y-61030144D01*
X105773813Y-61039423D01*
X105522477Y-61106767D01*
X105522473Y-61106768D01*
X105522471Y-61106769D01*
X105463292Y-61131282D01*
X105248940Y-61220070D01*
X105248939Y-61220071D01*
X104992552Y-61368096D01*
X104757673Y-61548324D01*
X104757666Y-61548330D01*
X104548330Y-61757666D01*
X104548324Y-61757673D01*
X104368096Y-61992552D01*
X104220071Y-62248939D01*
X104220070Y-62248940D01*
X104180657Y-62344091D01*
X104107052Y-62521789D01*
X104106772Y-62522464D01*
X104106767Y-62522477D01*
X104077286Y-62632505D01*
X104046034Y-62749142D01*
X104030145Y-62808440D01*
X104030143Y-62808451D01*
X103991500Y-63101962D01*
X98508499Y-63101962D01*
X98469856Y-62808443D01*
X98393231Y-62522471D01*
X98279933Y-62248948D01*
X98279930Y-62248943D01*
X98279929Y-62248940D01*
X98279928Y-62248939D01*
X98131903Y-61992552D01*
X97951675Y-61757673D01*
X97951669Y-61757666D01*
X97742333Y-61548330D01*
X97742326Y-61548324D01*
X97507447Y-61368096D01*
X97251060Y-61220071D01*
X97251059Y-61220070D01*
X97251052Y-61220067D01*
X96977529Y-61106769D01*
X96691557Y-61030144D01*
X96642503Y-61023685D01*
X96398037Y-60991500D01*
X96398030Y-60991500D01*
X96101970Y-60991500D01*
X96101962Y-60991500D01*
X95822571Y-61028283D01*
X95808443Y-61030144D01*
X95773813Y-61039423D01*
X95522477Y-61106767D01*
X95522473Y-61106768D01*
X95522471Y-61106769D01*
X95463292Y-61131282D01*
X95248940Y-61220070D01*
X95248939Y-61220071D01*
X94992552Y-61368096D01*
X94757673Y-61548324D01*
X94757666Y-61548330D01*
X94548330Y-61757666D01*
X94548324Y-61757673D01*
X94368096Y-61992552D01*
X94220071Y-62248939D01*
X94220070Y-62248940D01*
X94180657Y-62344091D01*
X94107052Y-62521789D01*
X94106772Y-62522464D01*
X94106767Y-62522477D01*
X94077286Y-62632505D01*
X94046034Y-62749142D01*
X94030145Y-62808440D01*
X94030143Y-62808451D01*
X93991500Y-63101962D01*
X86085397Y-63101962D01*
X84220790Y-61237355D01*
X84220788Y-61237352D01*
X84101917Y-61118481D01*
X84101909Y-61118475D01*
X84007115Y-61063746D01*
X84007110Y-61063744D01*
X83997381Y-61058127D01*
X83964985Y-61039423D01*
X83860716Y-61011483D01*
X83855970Y-61009789D01*
X83852828Y-61007506D01*
X83835661Y-61000395D01*
X83764643Y-60959394D01*
X83731783Y-60940422D01*
X83675881Y-60925443D01*
X83579057Y-60899499D01*
X83420943Y-60899499D01*
X83413347Y-60899499D01*
X83413331Y-60899500D01*
X77410889Y-60899500D01*
X77410206Y-60899498D01*
X77398647Y-60899434D01*
X77395157Y-60898499D01*
X77237043Y-60898499D01*
X77237039Y-60898500D01*
X76549098Y-60898500D01*
X76492572Y-60881902D01*
X116249500Y-60881902D01*
X116249500Y-61118097D01*
X116286446Y-61351368D01*
X116359433Y-61575996D01*
X116453649Y-61760904D01*
X116466657Y-61786434D01*
X116598611Y-61968052D01*
X116605484Y-61977511D01*
X121463181Y-66835208D01*
X121496666Y-66896531D01*
X121499500Y-66922889D01*
X121499500Y-68068098D01*
X121536446Y-68301369D01*
X121609433Y-68525997D01*
X121700682Y-68705081D01*
X121716657Y-68736434D01*
X121855483Y-68927511D01*
X122022490Y-69094518D01*
X122213567Y-69233344D01*
X122266450Y-69260289D01*
X122424003Y-69340567D01*
X122424005Y-69340567D01*
X122424008Y-69340569D01*
X122520084Y-69371786D01*
X122648631Y-69413554D01*
X122881903Y-69450501D01*
X122881908Y-69450501D01*
X123118097Y-69450501D01*
X123351368Y-69413554D01*
X123412432Y-69393713D01*
X123575992Y-69340569D01*
X123786433Y-69233344D01*
X123977510Y-69094518D01*
X124144517Y-68927511D01*
X124283343Y-68736434D01*
X124390568Y-68525993D01*
X124463553Y-68301369D01*
X124500500Y-68068098D01*
X124500500Y-66131908D01*
X124496641Y-66107545D01*
X124496641Y-66107543D01*
X124463553Y-65898631D01*
X124463553Y-65898630D01*
X124412194Y-65740566D01*
X124390568Y-65674008D01*
X124390566Y-65674005D01*
X124390566Y-65674003D01*
X124299113Y-65494517D01*
X124283343Y-65463566D01*
X124144517Y-65272490D01*
X118727510Y-59855483D01*
X118536434Y-59716657D01*
X118518427Y-59707482D01*
X118325996Y-59609433D01*
X118101368Y-59536446D01*
X117868097Y-59499500D01*
X117868092Y-59499500D01*
X117631908Y-59499500D01*
X117631903Y-59499500D01*
X117398631Y-59536446D01*
X117174003Y-59609433D01*
X116963565Y-59716657D01*
X116772488Y-59855484D01*
X116605484Y-60022488D01*
X116466657Y-60213565D01*
X116359433Y-60424003D01*
X116286446Y-60648631D01*
X116249500Y-60881902D01*
X76492572Y-60881902D01*
X76482059Y-60878815D01*
X76461417Y-60862181D01*
X76118717Y-60519481D01*
X76118716Y-60519480D01*
X76011334Y-60457483D01*
X76011332Y-60457482D01*
X75981785Y-60440423D01*
X75981784Y-60440422D01*
X75981783Y-60440422D01*
X75920506Y-60424003D01*
X75829057Y-60399499D01*
X75670943Y-60399499D01*
X75663347Y-60399499D01*
X75663331Y-60399500D01*
X74579766Y-60399500D01*
X74512727Y-60379815D01*
X74510875Y-60378602D01*
X74379185Y-60290609D01*
X74379172Y-60290602D01*
X74233501Y-60230264D01*
X74233489Y-60230261D01*
X74078845Y-60199500D01*
X74078842Y-60199500D01*
X73921158Y-60199500D01*
X73921155Y-60199500D01*
X73766510Y-60230261D01*
X73766498Y-60230264D01*
X73620827Y-60290602D01*
X73620814Y-60290609D01*
X73489711Y-60378210D01*
X73489707Y-60378213D01*
X73378213Y-60489707D01*
X73378208Y-60489713D01*
X73346289Y-60537483D01*
X73292676Y-60582288D01*
X73223351Y-60590994D01*
X73160324Y-60560838D01*
X73155507Y-60556272D01*
X68737590Y-56138355D01*
X68737588Y-56138352D01*
X68618717Y-56019481D01*
X68618716Y-56019480D01*
X68527223Y-55966657D01*
X68481785Y-55940423D01*
X68329057Y-55899499D01*
X68170943Y-55899499D01*
X68163347Y-55899499D01*
X68163331Y-55899500D01*
X65300097Y-55899500D01*
X65233058Y-55879815D01*
X65212416Y-55863181D01*
X64386819Y-55037584D01*
X64353334Y-54976261D01*
X64350500Y-54949903D01*
X64350500Y-54511887D01*
X64364498Y-54454655D01*
X64368757Y-54446467D01*
X64372287Y-54441610D01*
X64419752Y-54348454D01*
X64419998Y-54347982D01*
X64443805Y-54323200D01*
X64467489Y-54298123D01*
X64468022Y-54297990D01*
X64468402Y-54297596D01*
X64501876Y-54289607D01*
X64535310Y-54281328D01*
X64535828Y-54281504D01*
X64536364Y-54281377D01*
X64568927Y-54292783D01*
X64601445Y-54303865D01*
X64601830Y-54304309D01*
X64602305Y-54304476D01*
X64605298Y-54308312D01*
X64640483Y-54348917D01*
X64676108Y-54418833D01*
X64687715Y-54441614D01*
X64808028Y-54607213D01*
X64952786Y-54751971D01*
X65080762Y-54844949D01*
X65118390Y-54872287D01*
X65214295Y-54921153D01*
X65300776Y-54965218D01*
X65300778Y-54965218D01*
X65300781Y-54965220D01*
X65334762Y-54976261D01*
X65495465Y-55028477D01*
X65596557Y-55044488D01*
X65697648Y-55060500D01*
X65697649Y-55060500D01*
X65902351Y-55060500D01*
X65902352Y-55060500D01*
X66104534Y-55028477D01*
X66299219Y-54965220D01*
X66481610Y-54872287D01*
X66622758Y-54769738D01*
X66647213Y-54751971D01*
X66647215Y-54751968D01*
X66647219Y-54751966D01*
X66791966Y-54607219D01*
X66791968Y-54607215D01*
X66791971Y-54607213D01*
X66912284Y-54441614D01*
X66912286Y-54441611D01*
X66912287Y-54441610D01*
X66959795Y-54348369D01*
X67007770Y-54297574D01*
X67075591Y-54280779D01*
X67141725Y-54303316D01*
X67180765Y-54348370D01*
X67228140Y-54441349D01*
X67348417Y-54606894D01*
X67348417Y-54606895D01*
X67493104Y-54751582D01*
X67658650Y-54871859D01*
X67840968Y-54964754D01*
X68035578Y-55027988D01*
X68090000Y-55036607D01*
X68090000Y-54193012D01*
X68147007Y-54225925D01*
X68274174Y-54260000D01*
X68405826Y-54260000D01*
X68532993Y-54225925D01*
X68590000Y-54193012D01*
X68590000Y-55036606D01*
X68644421Y-55027988D01*
X68839031Y-54964754D01*
X69021349Y-54871859D01*
X69186894Y-54751582D01*
X69186895Y-54751582D01*
X69331582Y-54606895D01*
X69331582Y-54606894D01*
X69451861Y-54441347D01*
X69499234Y-54348371D01*
X69547208Y-54297575D01*
X69615028Y-54280779D01*
X69681164Y-54303316D01*
X69720203Y-54348369D01*
X69767713Y-54441611D01*
X69888028Y-54607213D01*
X70032786Y-54751971D01*
X70160762Y-54844949D01*
X70198390Y-54872287D01*
X70294295Y-54921153D01*
X70380776Y-54965218D01*
X70380778Y-54965218D01*
X70380781Y-54965220D01*
X70414762Y-54976261D01*
X70575465Y-55028477D01*
X70676557Y-55044488D01*
X70777648Y-55060500D01*
X70777649Y-55060500D01*
X70982351Y-55060500D01*
X70982352Y-55060500D01*
X71184534Y-55028477D01*
X71379219Y-54965220D01*
X71561610Y-54872287D01*
X71702758Y-54769738D01*
X71727213Y-54751971D01*
X71727215Y-54751968D01*
X71727219Y-54751966D01*
X71871966Y-54607219D01*
X71871968Y-54607215D01*
X71871971Y-54607213D01*
X71937229Y-54517391D01*
X71992287Y-54441610D01*
X72085220Y-54259219D01*
X72148477Y-54064534D01*
X72180500Y-53862352D01*
X72180500Y-53657648D01*
X72171897Y-53603334D01*
X72148477Y-53455465D01*
X72096038Y-53294075D01*
X72085220Y-53260781D01*
X72085218Y-53260778D01*
X72085218Y-53260776D01*
X72039515Y-53171080D01*
X71992287Y-53078390D01*
X71964833Y-53040602D01*
X71871971Y-52912786D01*
X71727213Y-52768028D01*
X71561613Y-52647715D01*
X71561612Y-52647714D01*
X71561610Y-52647713D01*
X71504653Y-52618691D01*
X71379223Y-52554781D01*
X71187329Y-52492431D01*
X71129654Y-52452993D01*
X71102456Y-52388634D01*
X71114371Y-52319788D01*
X71161615Y-52268312D01*
X71225648Y-52250500D01*
X78100903Y-52250500D01*
X78167942Y-52270185D01*
X78213697Y-52322989D01*
X78223641Y-52392147D01*
X78194616Y-52455703D01*
X78188584Y-52462181D01*
X74787584Y-55863181D01*
X74726261Y-55896666D01*
X74699903Y-55899500D01*
X72079766Y-55899500D01*
X72012727Y-55879815D01*
X72010875Y-55878602D01*
X71879185Y-55790609D01*
X71879172Y-55790602D01*
X71733501Y-55730264D01*
X71733489Y-55730261D01*
X71578845Y-55699500D01*
X71578842Y-55699500D01*
X71421158Y-55699500D01*
X71421155Y-55699500D01*
X71266510Y-55730261D01*
X71266498Y-55730264D01*
X71120827Y-55790602D01*
X71120814Y-55790609D01*
X70989711Y-55878210D01*
X70989707Y-55878213D01*
X70878213Y-55989707D01*
X70878210Y-55989711D01*
X70790609Y-56120814D01*
X70790602Y-56120827D01*
X70730264Y-56266498D01*
X70730261Y-56266510D01*
X70699500Y-56421153D01*
X70699500Y-56578846D01*
X70730261Y-56733489D01*
X70730264Y-56733501D01*
X70790602Y-56879172D01*
X70790609Y-56879185D01*
X70878210Y-57010288D01*
X70878213Y-57010292D01*
X70989707Y-57121786D01*
X70989711Y-57121789D01*
X71120814Y-57209390D01*
X71120827Y-57209397D01*
X71266498Y-57269735D01*
X71266503Y-57269737D01*
X71421153Y-57300499D01*
X71421156Y-57300500D01*
X71421158Y-57300500D01*
X71578844Y-57300500D01*
X71578845Y-57300499D01*
X71733497Y-57269737D01*
X71858214Y-57218078D01*
X71879172Y-57209397D01*
X71879172Y-57209396D01*
X71879179Y-57209394D01*
X71960509Y-57155051D01*
X72010875Y-57121398D01*
X72077553Y-57100520D01*
X72079766Y-57100500D01*
X74913331Y-57100500D01*
X74913347Y-57100501D01*
X74920943Y-57100501D01*
X75079054Y-57100501D01*
X75079057Y-57100501D01*
X75231785Y-57059577D01*
X75231787Y-57059575D01*
X75231789Y-57059575D01*
X75231790Y-57059574D01*
X75283830Y-57029529D01*
X75283831Y-57029528D01*
X75368716Y-56980520D01*
X75480520Y-56868716D01*
X75480520Y-56868714D01*
X75490724Y-56858511D01*
X75490727Y-56858506D01*
X76006907Y-56342326D01*
X76068228Y-56308843D01*
X76137920Y-56313827D01*
X76193853Y-56355699D01*
X76218270Y-56421163D01*
X76205071Y-56486303D01*
X76109434Y-56674000D01*
X76036446Y-56898631D01*
X75999500Y-57131902D01*
X75999500Y-58868097D01*
X76036446Y-59101368D01*
X76109433Y-59325996D01*
X76189685Y-59483497D01*
X76216657Y-59536433D01*
X76355483Y-59727510D01*
X76522490Y-59894517D01*
X76713567Y-60033343D01*
X76777295Y-60065814D01*
X76924003Y-60140566D01*
X76924005Y-60140566D01*
X76924008Y-60140568D01*
X77018139Y-60171153D01*
X77148631Y-60213553D01*
X77381903Y-60250500D01*
X77381908Y-60250500D01*
X77618097Y-60250500D01*
X77851368Y-60213553D01*
X77868911Y-60207853D01*
X78075992Y-60140568D01*
X78286433Y-60033343D01*
X78477510Y-59894517D01*
X78644517Y-59727510D01*
X78783343Y-59536433D01*
X78890568Y-59325992D01*
X78933782Y-59192993D01*
X78939753Y-59174618D01*
X78939753Y-59174617D01*
X78963552Y-59101372D01*
X78963552Y-59101371D01*
X78963553Y-59101368D01*
X78995526Y-58899499D01*
X79000500Y-58868097D01*
X79000500Y-58750000D01*
X79870898Y-58750000D01*
X80916988Y-58750000D01*
X80884075Y-58807007D01*
X80850000Y-58934174D01*
X80850000Y-59065826D01*
X80884075Y-59192993D01*
X80916988Y-59250000D01*
X79870898Y-59250000D01*
X79886934Y-59351247D01*
X79959897Y-59575802D01*
X80067085Y-59786171D01*
X80205866Y-59977186D01*
X80372813Y-60144133D01*
X80563828Y-60282914D01*
X80774197Y-60390102D01*
X80998752Y-60463065D01*
X80998751Y-60463065D01*
X81231948Y-60500000D01*
X81750000Y-60500000D01*
X81750000Y-59500000D01*
X82250000Y-59500000D01*
X82250000Y-60500000D01*
X82768052Y-60500000D01*
X83001247Y-60463065D01*
X83225802Y-60390102D01*
X83436171Y-60282914D01*
X83627186Y-60144133D01*
X83794133Y-59977186D01*
X83932914Y-59786171D01*
X84040102Y-59575802D01*
X84113065Y-59351247D01*
X84129102Y-59250000D01*
X83083012Y-59250000D01*
X83115925Y-59192993D01*
X83150000Y-59065826D01*
X83150000Y-58934174D01*
X83115925Y-58807007D01*
X83083012Y-58750000D01*
X84129102Y-58750000D01*
X84113065Y-58648752D01*
X84040102Y-58424197D01*
X83932914Y-58213828D01*
X83794133Y-58022813D01*
X83627186Y-57855866D01*
X83436171Y-57717085D01*
X83225802Y-57609897D01*
X83001247Y-57536934D01*
X83001248Y-57536934D01*
X82768052Y-57500000D01*
X82250000Y-57500000D01*
X82250000Y-58500000D01*
X81750000Y-58500000D01*
X81750000Y-57500000D01*
X81231948Y-57500000D01*
X80998752Y-57536934D01*
X80774197Y-57609897D01*
X80563828Y-57717085D01*
X80372813Y-57855866D01*
X80205866Y-58022813D01*
X80067085Y-58213828D01*
X79959897Y-58424197D01*
X79886934Y-58648752D01*
X79870898Y-58750000D01*
X79000500Y-58750000D01*
X79000500Y-57131902D01*
X84999500Y-57131902D01*
X84999500Y-58868097D01*
X85036446Y-59101368D01*
X85109433Y-59325996D01*
X85189685Y-59483497D01*
X85216657Y-59536433D01*
X85355483Y-59727510D01*
X85522490Y-59894517D01*
X85713567Y-60033343D01*
X85777295Y-60065814D01*
X85924003Y-60140566D01*
X85924005Y-60140566D01*
X85924008Y-60140568D01*
X86018139Y-60171153D01*
X86148631Y-60213553D01*
X86381903Y-60250500D01*
X86381908Y-60250500D01*
X86618097Y-60250500D01*
X86851368Y-60213553D01*
X86868911Y-60207853D01*
X87075992Y-60140568D01*
X87286433Y-60033343D01*
X87477510Y-59894517D01*
X87644517Y-59727510D01*
X87783343Y-59536433D01*
X87890568Y-59325992D01*
X87963553Y-59101368D01*
X87981238Y-58989711D01*
X88000500Y-58868097D01*
X88000500Y-57131902D01*
X87963553Y-56898631D01*
X87912808Y-56742455D01*
X87890568Y-56674008D01*
X87890566Y-56674005D01*
X87890566Y-56674003D01*
X87811288Y-56518412D01*
X87783343Y-56463567D01*
X87644517Y-56272490D01*
X87477510Y-56105483D01*
X87286433Y-55966657D01*
X87263694Y-55955071D01*
X87075996Y-55859433D01*
X86851368Y-55786446D01*
X86618097Y-55749500D01*
X86618092Y-55749500D01*
X86381908Y-55749500D01*
X86381903Y-55749500D01*
X86148631Y-55786446D01*
X85924003Y-55859433D01*
X85713566Y-55966657D01*
X85640861Y-56019481D01*
X85522490Y-56105483D01*
X85522488Y-56105485D01*
X85522487Y-56105485D01*
X85355485Y-56272487D01*
X85355485Y-56272488D01*
X85355483Y-56272490D01*
X85319231Y-56322387D01*
X85216657Y-56463566D01*
X85109433Y-56674003D01*
X85036446Y-56898631D01*
X84999500Y-57131902D01*
X79000500Y-57131902D01*
X78963553Y-56898631D01*
X78912808Y-56742455D01*
X78890568Y-56674008D01*
X78890566Y-56674005D01*
X78890566Y-56674003D01*
X78811288Y-56518412D01*
X78783343Y-56463567D01*
X78644517Y-56272490D01*
X78477510Y-56105483D01*
X78286433Y-55966657D01*
X78263694Y-55955071D01*
X78148802Y-55896530D01*
X80949500Y-55896530D01*
X80949500Y-56103469D01*
X80988036Y-56297202D01*
X80989870Y-56306420D01*
X81069059Y-56497598D01*
X81082968Y-56518414D01*
X81184024Y-56669657D01*
X81330342Y-56815975D01*
X81330345Y-56815977D01*
X81502402Y-56930941D01*
X81693580Y-57010130D01*
X81896530Y-57050499D01*
X81896534Y-57050500D01*
X81896535Y-57050500D01*
X82103466Y-57050500D01*
X82103467Y-57050499D01*
X82306420Y-57010130D01*
X82497598Y-56930941D01*
X82669655Y-56815977D01*
X82815977Y-56669655D01*
X82930941Y-56497598D01*
X83010130Y-56306420D01*
X83050500Y-56103465D01*
X83050500Y-55896535D01*
X83010130Y-55693580D01*
X82930941Y-55502402D01*
X82815977Y-55330345D01*
X82815975Y-55330342D01*
X82669657Y-55184024D01*
X82512239Y-55078842D01*
X82497598Y-55069059D01*
X82473818Y-55059209D01*
X82306420Y-54989870D01*
X82306412Y-54989868D01*
X82103469Y-54949500D01*
X82103465Y-54949500D01*
X81896535Y-54949500D01*
X81896530Y-54949500D01*
X81693587Y-54989868D01*
X81693579Y-54989870D01*
X81502403Y-55069058D01*
X81330342Y-55184024D01*
X81184024Y-55330342D01*
X81069058Y-55502403D01*
X80989870Y-55693579D01*
X80989868Y-55693587D01*
X80949500Y-55896530D01*
X78148802Y-55896530D01*
X78075996Y-55859433D01*
X77851368Y-55786446D01*
X77618097Y-55749500D01*
X77618092Y-55749500D01*
X77381908Y-55749500D01*
X77381903Y-55749500D01*
X77148631Y-55786446D01*
X76924000Y-55859434D01*
X76736303Y-55955071D01*
X76667634Y-55967967D01*
X76602894Y-55941690D01*
X76562637Y-55884584D01*
X76559645Y-55814778D01*
X76592326Y-55756907D01*
X79212415Y-53136820D01*
X79273738Y-53103335D01*
X79300096Y-53100501D01*
X79329054Y-53100501D01*
X79329057Y-53100501D01*
X79481785Y-53059577D01*
X79531904Y-53030639D01*
X79618716Y-52980520D01*
X79623005Y-52976230D01*
X79635061Y-52969033D01*
X79662187Y-52962029D01*
X79688316Y-52951930D01*
X79698628Y-52951500D01*
X137625500Y-52951500D01*
X137692539Y-52971185D01*
X137738294Y-53023989D01*
X137749500Y-53075500D01*
X137749500Y-54147870D01*
X137749501Y-54147876D01*
X137755908Y-54207483D01*
X137806202Y-54342328D01*
X137806206Y-54342335D01*
X137892452Y-54457544D01*
X137892455Y-54457547D01*
X138007664Y-54543793D01*
X138007671Y-54543797D01*
X138142517Y-54594091D01*
X138142516Y-54594091D01*
X138149444Y-54594835D01*
X138202127Y-54600500D01*
X141497872Y-54600499D01*
X141557483Y-54594091D01*
X141692331Y-54543796D01*
X141807546Y-54457546D01*
X141893796Y-54342331D01*
X141910334Y-54297990D01*
X141916609Y-54281167D01*
X141958480Y-54225233D01*
X142023944Y-54200816D01*
X142032791Y-54200500D01*
X144467209Y-54200500D01*
X144534248Y-54220185D01*
X144580003Y-54272989D01*
X144583391Y-54281167D01*
X144606202Y-54342328D01*
X144606206Y-54342335D01*
X144692452Y-54457544D01*
X144692455Y-54457547D01*
X144807664Y-54543793D01*
X144807671Y-54543797D01*
X144942517Y-54594091D01*
X144942516Y-54594091D01*
X144949444Y-54594835D01*
X145002127Y-54600500D01*
X148297872Y-54600499D01*
X148357483Y-54594091D01*
X148492331Y-54543796D01*
X148607546Y-54457546D01*
X148693796Y-54342331D01*
X148697111Y-54333441D01*
X148716609Y-54281168D01*
X148758480Y-54225234D01*
X148823945Y-54200817D01*
X148829035Y-54200635D01*
X148830054Y-54200501D01*
X148830057Y-54200501D01*
X148982785Y-54159577D01*
X149053558Y-54118716D01*
X149119716Y-54080520D01*
X149231520Y-53968716D01*
X149231520Y-53968714D01*
X149241721Y-53958514D01*
X149241724Y-53958509D01*
X149563417Y-53636816D01*
X149624739Y-53603334D01*
X149651097Y-53600500D01*
X155205164Y-53600500D01*
X155272203Y-53620185D01*
X155308266Y-53655609D01*
X155378210Y-53760289D01*
X155489707Y-53871786D01*
X155489711Y-53871789D01*
X155620814Y-53959390D01*
X155620827Y-53959397D01*
X155766498Y-54019735D01*
X155766503Y-54019737D01*
X155921153Y-54050499D01*
X155921156Y-54050500D01*
X155921158Y-54050500D01*
X156078844Y-54050500D01*
X156078845Y-54050499D01*
X156233497Y-54019737D01*
X156379179Y-53959394D01*
X156510289Y-53871789D01*
X156621789Y-53760289D01*
X156709394Y-53629179D01*
X156712854Y-53620827D01*
X156754833Y-53519479D01*
X156769737Y-53483497D01*
X156800500Y-53328842D01*
X156800500Y-53171158D01*
X156800500Y-53171155D01*
X156800499Y-53171153D01*
X156786285Y-53099691D01*
X156792512Y-53030100D01*
X156835375Y-52974922D01*
X156901265Y-52951678D01*
X156907902Y-52951500D01*
X164050903Y-52951500D01*
X164117942Y-52971185D01*
X164138584Y-52987819D01*
X170213181Y-59062416D01*
X170227884Y-59089343D01*
X170244477Y-59115162D01*
X170245368Y-59121362D01*
X170246666Y-59123739D01*
X170249500Y-59150097D01*
X170249500Y-59350903D01*
X170229815Y-59417942D01*
X170177011Y-59463697D01*
X170107853Y-59473641D01*
X170044297Y-59444616D01*
X170037819Y-59438584D01*
X166487590Y-55888355D01*
X166487588Y-55888352D01*
X166368717Y-55769481D01*
X166368709Y-55769475D01*
X166249241Y-55700501D01*
X166249238Y-55700500D01*
X166231785Y-55690423D01*
X166079057Y-55649499D01*
X165920943Y-55649499D01*
X165913347Y-55649499D01*
X165913331Y-55649500D01*
X165579766Y-55649500D01*
X165512727Y-55629815D01*
X165510875Y-55628602D01*
X165379185Y-55540609D01*
X165379172Y-55540602D01*
X165233501Y-55480264D01*
X165233489Y-55480261D01*
X165078845Y-55449500D01*
X165078842Y-55449500D01*
X164921158Y-55449500D01*
X164921155Y-55449500D01*
X164766510Y-55480261D01*
X164766498Y-55480264D01*
X164620827Y-55540602D01*
X164620814Y-55540609D01*
X164489711Y-55628210D01*
X164489707Y-55628213D01*
X164378213Y-55739707D01*
X164378210Y-55739711D01*
X164290609Y-55870814D01*
X164290602Y-55870827D01*
X164230264Y-56016498D01*
X164230261Y-56016510D01*
X164199500Y-56171153D01*
X164199500Y-56328846D01*
X164230261Y-56483489D01*
X164230264Y-56483501D01*
X164290602Y-56629172D01*
X164290609Y-56629185D01*
X164378210Y-56760288D01*
X164378213Y-56760292D01*
X164489707Y-56871786D01*
X164489711Y-56871789D01*
X164620814Y-56959390D01*
X164620827Y-56959397D01*
X164766498Y-57019735D01*
X164766503Y-57019737D01*
X164921153Y-57050499D01*
X164921156Y-57050500D01*
X164921158Y-57050500D01*
X165078844Y-57050500D01*
X165078845Y-57050499D01*
X165233497Y-57019737D01*
X165379179Y-56959394D01*
X165439883Y-56918833D01*
X165510875Y-56871398D01*
X165528921Y-56865747D01*
X165544831Y-56855523D01*
X165575792Y-56851071D01*
X165577553Y-56850520D01*
X165579766Y-56850500D01*
X165699903Y-56850500D01*
X165766942Y-56870185D01*
X165787584Y-56886819D01*
X169363180Y-60462415D01*
X169396665Y-60523738D01*
X169399499Y-60550096D01*
X169399499Y-60579054D01*
X169399498Y-60579054D01*
X169440423Y-60731785D01*
X169469358Y-60781900D01*
X169469359Y-60781904D01*
X169469360Y-60781904D01*
X169496461Y-60828846D01*
X169519479Y-60868714D01*
X169519481Y-60868717D01*
X169638349Y-60987585D01*
X169638355Y-60987590D01*
X174615139Y-65964374D01*
X174615149Y-65964385D01*
X174619479Y-65968715D01*
X174619480Y-65968716D01*
X174731284Y-66080520D01*
X174797442Y-66118716D01*
X174868215Y-66159577D01*
X175020943Y-66200500D01*
X175179057Y-66200500D01*
X177417209Y-66200500D01*
X177484248Y-66220185D01*
X177530003Y-66272989D01*
X177533391Y-66281167D01*
X177556202Y-66342328D01*
X177556206Y-66342335D01*
X177642452Y-66457544D01*
X177642455Y-66457547D01*
X177757664Y-66543793D01*
X177757671Y-66543797D01*
X177892517Y-66594091D01*
X177892516Y-66594091D01*
X177899444Y-66594835D01*
X177952127Y-66600500D01*
X181247872Y-66600499D01*
X181307483Y-66594091D01*
X181442331Y-66543796D01*
X181557546Y-66457546D01*
X181643796Y-66342331D01*
X181649886Y-66326002D01*
X181666609Y-66281167D01*
X181708480Y-66225233D01*
X181773944Y-66200816D01*
X181782791Y-66200500D01*
X184217209Y-66200500D01*
X184284248Y-66220185D01*
X184330003Y-66272989D01*
X184333391Y-66281167D01*
X184356202Y-66342328D01*
X184356206Y-66342335D01*
X184442452Y-66457544D01*
X184442455Y-66457547D01*
X184557664Y-66543793D01*
X184557671Y-66543797D01*
X184692517Y-66594091D01*
X184692516Y-66594091D01*
X184699444Y-66594835D01*
X184752127Y-66600500D01*
X188047872Y-66600499D01*
X188107483Y-66594091D01*
X188242331Y-66543796D01*
X188357546Y-66457546D01*
X188443796Y-66342331D01*
X188494091Y-66207483D01*
X188500500Y-66147873D01*
X188500499Y-65052128D01*
X188494091Y-64992517D01*
X188493044Y-64989711D01*
X188451458Y-64878213D01*
X188443796Y-64857669D01*
X188443795Y-64857667D01*
X188443794Y-64857665D01*
X188402224Y-64802135D01*
X192249500Y-64802135D01*
X192249500Y-65897870D01*
X192249501Y-65897876D01*
X192255908Y-65957483D01*
X192306202Y-66092328D01*
X192306206Y-66092335D01*
X192392452Y-66207544D01*
X192392455Y-66207547D01*
X192507664Y-66293793D01*
X192507671Y-66293797D01*
X192642517Y-66344091D01*
X192642516Y-66344091D01*
X192649444Y-66344835D01*
X192702127Y-66350500D01*
X195997872Y-66350499D01*
X196057483Y-66344091D01*
X196192331Y-66293796D01*
X196307546Y-66207546D01*
X196393796Y-66092331D01*
X196399886Y-66076002D01*
X196416609Y-66031167D01*
X196458480Y-65975233D01*
X196523944Y-65950816D01*
X196532791Y-65950500D01*
X198967209Y-65950500D01*
X199034248Y-65970185D01*
X199080003Y-66022989D01*
X199083391Y-66031167D01*
X199106202Y-66092328D01*
X199106206Y-66092335D01*
X199192452Y-66207544D01*
X199192455Y-66207547D01*
X199307664Y-66293793D01*
X199307671Y-66293797D01*
X199442517Y-66344091D01*
X199442516Y-66344091D01*
X199449444Y-66344835D01*
X199502127Y-66350500D01*
X202797872Y-66350499D01*
X202857483Y-66344091D01*
X202992331Y-66293796D01*
X203054159Y-66247510D01*
X203119621Y-66223094D01*
X203175920Y-66232216D01*
X203266503Y-66269737D01*
X203387440Y-66293793D01*
X203421153Y-66300499D01*
X203421156Y-66300500D01*
X203421158Y-66300500D01*
X203578844Y-66300500D01*
X203578845Y-66300499D01*
X203733497Y-66269737D01*
X203879179Y-66209394D01*
X204010289Y-66121789D01*
X204121789Y-66010289D01*
X204209394Y-65879179D01*
X204211029Y-65875233D01*
X204231925Y-65824784D01*
X204269737Y-65733497D01*
X204300500Y-65578842D01*
X204300500Y-65421158D01*
X204300500Y-65421155D01*
X204300499Y-65421153D01*
X204283136Y-65333866D01*
X204269737Y-65266503D01*
X204261791Y-65247320D01*
X204209397Y-65120827D01*
X204209392Y-65120818D01*
X204207308Y-65117699D01*
X204207307Y-65117697D01*
X204163500Y-65052135D01*
X205999500Y-65052135D01*
X205999500Y-66147870D01*
X205999501Y-66147876D01*
X206005908Y-66207483D01*
X206056202Y-66342328D01*
X206056206Y-66342335D01*
X206142452Y-66457544D01*
X206142455Y-66457547D01*
X206257664Y-66543793D01*
X206257671Y-66543797D01*
X206392517Y-66594091D01*
X206392516Y-66594091D01*
X206399444Y-66594835D01*
X206452127Y-66600500D01*
X209747872Y-66600499D01*
X209807483Y-66594091D01*
X209942331Y-66543796D01*
X210057546Y-66457546D01*
X210143796Y-66342331D01*
X210149886Y-66326002D01*
X210166609Y-66281167D01*
X210208480Y-66225233D01*
X210273944Y-66200816D01*
X210282791Y-66200500D01*
X212717209Y-66200500D01*
X212784248Y-66220185D01*
X212830003Y-66272989D01*
X212833391Y-66281167D01*
X212856202Y-66342328D01*
X212856206Y-66342335D01*
X212942452Y-66457544D01*
X212942455Y-66457547D01*
X213057664Y-66543793D01*
X213057671Y-66543797D01*
X213192517Y-66594091D01*
X213192516Y-66594091D01*
X213199444Y-66594835D01*
X213252127Y-66600500D01*
X216547872Y-66600499D01*
X216607483Y-66594091D01*
X216742331Y-66543796D01*
X216857546Y-66457546D01*
X216899027Y-66402135D01*
X229899500Y-66402135D01*
X229899500Y-68497870D01*
X229899501Y-68497876D01*
X229905908Y-68557483D01*
X229956202Y-68692328D01*
X229956206Y-68692335D01*
X230042452Y-68807544D01*
X230042455Y-68807547D01*
X230157664Y-68893793D01*
X230157671Y-68893797D01*
X230292517Y-68944091D01*
X230292516Y-68944091D01*
X230299444Y-68944835D01*
X230352127Y-68950500D01*
X233647872Y-68950499D01*
X233707483Y-68944091D01*
X233842331Y-68893796D01*
X233957546Y-68807546D01*
X234043796Y-68692331D01*
X234094091Y-68557483D01*
X234100500Y-68497873D01*
X234100499Y-66402128D01*
X234094091Y-66342517D01*
X234094021Y-66342330D01*
X234043797Y-66207671D01*
X234043793Y-66207664D01*
X233957547Y-66092455D01*
X233957544Y-66092452D01*
X233842335Y-66006206D01*
X233842328Y-66006202D01*
X233707482Y-65955908D01*
X233707483Y-65955908D01*
X233647883Y-65949501D01*
X233647881Y-65949500D01*
X233647873Y-65949500D01*
X233647864Y-65949500D01*
X230352129Y-65949500D01*
X230352123Y-65949501D01*
X230292516Y-65955908D01*
X230157671Y-66006202D01*
X230157664Y-66006206D01*
X230042455Y-66092452D01*
X230042452Y-66092455D01*
X229956206Y-66207664D01*
X229956202Y-66207671D01*
X229905908Y-66342517D01*
X229901146Y-66386818D01*
X229899501Y-66402123D01*
X229899500Y-66402135D01*
X216899027Y-66402135D01*
X216943796Y-66342331D01*
X216965524Y-66284073D01*
X217007392Y-66228143D01*
X217072856Y-66203724D01*
X217129156Y-66212846D01*
X217266503Y-66269737D01*
X217387440Y-66293793D01*
X217421153Y-66300499D01*
X217421156Y-66300500D01*
X217421158Y-66300500D01*
X217578844Y-66300500D01*
X217696035Y-66277189D01*
X217696035Y-66277188D01*
X217733497Y-66269737D01*
X217879179Y-66209394D01*
X218010289Y-66121789D01*
X218121789Y-66010289D01*
X218209394Y-65879179D01*
X218211029Y-65875233D01*
X218231925Y-65824784D01*
X218269737Y-65733497D01*
X218300500Y-65578842D01*
X218300500Y-65421158D01*
X218300500Y-65421155D01*
X218300499Y-65421153D01*
X218283136Y-65333866D01*
X218269737Y-65266503D01*
X218261791Y-65247320D01*
X218209397Y-65120827D01*
X218209390Y-65120814D01*
X218121789Y-64989711D01*
X218121786Y-64989707D01*
X218010292Y-64878213D01*
X218010288Y-64878210D01*
X217879185Y-64790609D01*
X217879172Y-64790602D01*
X217733501Y-64730264D01*
X217733489Y-64730261D01*
X217578845Y-64699500D01*
X217578842Y-64699500D01*
X217421158Y-64699500D01*
X217421155Y-64699500D01*
X217266510Y-64730261D01*
X217266498Y-64730264D01*
X217120827Y-64790602D01*
X217120809Y-64790612D01*
X217067077Y-64826515D01*
X217000400Y-64847393D01*
X216933020Y-64828908D01*
X216898923Y-64797727D01*
X216857546Y-64742454D01*
X216857544Y-64742452D01*
X216857543Y-64742451D01*
X216742335Y-64656206D01*
X216742328Y-64656202D01*
X216607482Y-64605908D01*
X216607483Y-64605908D01*
X216547883Y-64599501D01*
X216547881Y-64599500D01*
X216547873Y-64599500D01*
X216547864Y-64599500D01*
X213252129Y-64599500D01*
X213252123Y-64599501D01*
X213192516Y-64605908D01*
X213057671Y-64656202D01*
X213057664Y-64656206D01*
X212942455Y-64742452D01*
X212942452Y-64742455D01*
X212856206Y-64857664D01*
X212856202Y-64857671D01*
X212833391Y-64918833D01*
X212791520Y-64974767D01*
X212726056Y-64999184D01*
X212717209Y-64999500D01*
X210282791Y-64999500D01*
X210215752Y-64979815D01*
X210169997Y-64927011D01*
X210166609Y-64918833D01*
X210143797Y-64857671D01*
X210143793Y-64857664D01*
X210057547Y-64742455D01*
X210057544Y-64742452D01*
X209942335Y-64656206D01*
X209942328Y-64656202D01*
X209807482Y-64605908D01*
X209807483Y-64605908D01*
X209747883Y-64599501D01*
X209747881Y-64599500D01*
X209747873Y-64599500D01*
X209747864Y-64599500D01*
X206452129Y-64599500D01*
X206452123Y-64599501D01*
X206392516Y-64605908D01*
X206257671Y-64656202D01*
X206257664Y-64656206D01*
X206142455Y-64742452D01*
X206142452Y-64742455D01*
X206056206Y-64857664D01*
X206056202Y-64857671D01*
X206005908Y-64992517D01*
X205999501Y-65052116D01*
X205999501Y-65052123D01*
X205999500Y-65052135D01*
X204163500Y-65052135D01*
X204121789Y-64989711D01*
X204121786Y-64989707D01*
X204010292Y-64878213D01*
X204010288Y-64878210D01*
X203879185Y-64790609D01*
X203879172Y-64790602D01*
X203733501Y-64730264D01*
X203733489Y-64730261D01*
X203578845Y-64699500D01*
X203578842Y-64699500D01*
X203421158Y-64699500D01*
X203421155Y-64699500D01*
X203344880Y-64714672D01*
X203275289Y-64708445D01*
X203220111Y-64665582D01*
X203204508Y-64636390D01*
X203193796Y-64607669D01*
X203193793Y-64607666D01*
X203193793Y-64607664D01*
X203107547Y-64492455D01*
X203107544Y-64492452D01*
X202992335Y-64406206D01*
X202992328Y-64406202D01*
X202857486Y-64355910D01*
X202857485Y-64355909D01*
X202857483Y-64355909D01*
X202805545Y-64350324D01*
X202805544Y-64350324D01*
X202798832Y-64349603D01*
X202797873Y-64349500D01*
X202797872Y-64349500D01*
X199502129Y-64349500D01*
X199502123Y-64349501D01*
X199442516Y-64355908D01*
X199307671Y-64406202D01*
X199307664Y-64406206D01*
X199192455Y-64492452D01*
X199192452Y-64492455D01*
X199106206Y-64607664D01*
X199106202Y-64607671D01*
X199083391Y-64668833D01*
X199041520Y-64724767D01*
X198976056Y-64749184D01*
X198967209Y-64749500D01*
X196532791Y-64749500D01*
X196465752Y-64729815D01*
X196419997Y-64677011D01*
X196416609Y-64668833D01*
X196393797Y-64607671D01*
X196393793Y-64607664D01*
X196307547Y-64492455D01*
X196307544Y-64492452D01*
X196192335Y-64406206D01*
X196192328Y-64406202D01*
X196057482Y-64355908D01*
X196057483Y-64355908D01*
X195997883Y-64349501D01*
X195997881Y-64349500D01*
X195997873Y-64349500D01*
X195997864Y-64349500D01*
X192702129Y-64349500D01*
X192702123Y-64349501D01*
X192642516Y-64355908D01*
X192507671Y-64406202D01*
X192507664Y-64406206D01*
X192392455Y-64492452D01*
X192392452Y-64492455D01*
X192306206Y-64607664D01*
X192306202Y-64607671D01*
X192255908Y-64742517D01*
X192249501Y-64802116D01*
X192249500Y-64802135D01*
X188402224Y-64802135D01*
X188357547Y-64742455D01*
X188357544Y-64742452D01*
X188242335Y-64656206D01*
X188242328Y-64656202D01*
X188107482Y-64605908D01*
X188107483Y-64605908D01*
X188047883Y-64599501D01*
X188047881Y-64599500D01*
X188047873Y-64599500D01*
X188047864Y-64599500D01*
X184752129Y-64599500D01*
X184752123Y-64599501D01*
X184692516Y-64605908D01*
X184557671Y-64656202D01*
X184557664Y-64656206D01*
X184442455Y-64742452D01*
X184442452Y-64742455D01*
X184356206Y-64857664D01*
X184356202Y-64857671D01*
X184333391Y-64918833D01*
X184291520Y-64974767D01*
X184226056Y-64999184D01*
X184217209Y-64999500D01*
X181782791Y-64999500D01*
X181715752Y-64979815D01*
X181669997Y-64927011D01*
X181666609Y-64918833D01*
X181643797Y-64857671D01*
X181643793Y-64857664D01*
X181557547Y-64742455D01*
X181557544Y-64742452D01*
X181442335Y-64656206D01*
X181442328Y-64656202D01*
X181307482Y-64605908D01*
X181307483Y-64605908D01*
X181247883Y-64599501D01*
X181247881Y-64599500D01*
X181247873Y-64599500D01*
X181247864Y-64599500D01*
X177952129Y-64599500D01*
X177952123Y-64599501D01*
X177892516Y-64605908D01*
X177757671Y-64656202D01*
X177757664Y-64656206D01*
X177642455Y-64742452D01*
X177642452Y-64742455D01*
X177556206Y-64857664D01*
X177556202Y-64857671D01*
X177533391Y-64918833D01*
X177491520Y-64974767D01*
X177426056Y-64999184D01*
X177417209Y-64999500D01*
X175400097Y-64999500D01*
X175333058Y-64979815D01*
X175312416Y-64963181D01*
X170661415Y-60312180D01*
X170627930Y-60250857D01*
X170632914Y-60181165D01*
X170674786Y-60125232D01*
X170740250Y-60100815D01*
X170749068Y-60100499D01*
X173997872Y-60100499D01*
X174057483Y-60094091D01*
X174192331Y-60043796D01*
X174307546Y-59957546D01*
X174393796Y-59842331D01*
X174410381Y-59797864D01*
X174416609Y-59781167D01*
X174458480Y-59725233D01*
X174523944Y-59700816D01*
X174532791Y-59700500D01*
X176967209Y-59700500D01*
X177034248Y-59720185D01*
X177080003Y-59772989D01*
X177083391Y-59781167D01*
X177106202Y-59842328D01*
X177106206Y-59842335D01*
X177192452Y-59957544D01*
X177192455Y-59957547D01*
X177307664Y-60043793D01*
X177307671Y-60043797D01*
X177442517Y-60094091D01*
X177442516Y-60094091D01*
X177449444Y-60094835D01*
X177502127Y-60100500D01*
X180797872Y-60100499D01*
X180857483Y-60094091D01*
X180992331Y-60043796D01*
X181107546Y-59957546D01*
X181193796Y-59842331D01*
X181210381Y-59797864D01*
X181216609Y-59781167D01*
X181258480Y-59725233D01*
X181323944Y-59700816D01*
X181332791Y-59700500D01*
X183667209Y-59700500D01*
X183734248Y-59720185D01*
X183780003Y-59772989D01*
X183783391Y-59781167D01*
X183806202Y-59842328D01*
X183806206Y-59842335D01*
X183892452Y-59957544D01*
X183892455Y-59957547D01*
X184007664Y-60043793D01*
X184007671Y-60043797D01*
X184142517Y-60094091D01*
X184142516Y-60094091D01*
X184149444Y-60094835D01*
X184202127Y-60100500D01*
X187497872Y-60100499D01*
X187557483Y-60094091D01*
X187692331Y-60043796D01*
X187807546Y-59957546D01*
X187893796Y-59842331D01*
X187910381Y-59797864D01*
X187916609Y-59781167D01*
X187958480Y-59725233D01*
X188023944Y-59700816D01*
X188032791Y-59700500D01*
X190467209Y-59700500D01*
X190534248Y-59720185D01*
X190580003Y-59772989D01*
X190583391Y-59781167D01*
X190606202Y-59842328D01*
X190606206Y-59842335D01*
X190692452Y-59957544D01*
X190692455Y-59957547D01*
X190807664Y-60043793D01*
X190807671Y-60043797D01*
X190942517Y-60094091D01*
X190942516Y-60094091D01*
X190949444Y-60094835D01*
X191002127Y-60100500D01*
X194297872Y-60100499D01*
X194357483Y-60094091D01*
X194492331Y-60043796D01*
X194607546Y-59957546D01*
X194693796Y-59842331D01*
X194710381Y-59797864D01*
X194716609Y-59781167D01*
X194758480Y-59725233D01*
X194823944Y-59700816D01*
X194832791Y-59700500D01*
X198167209Y-59700500D01*
X198234248Y-59720185D01*
X198280003Y-59772989D01*
X198283391Y-59781167D01*
X198306202Y-59842328D01*
X198306206Y-59842335D01*
X198392452Y-59957544D01*
X198392455Y-59957547D01*
X198507664Y-60043793D01*
X198507671Y-60043797D01*
X198642517Y-60094091D01*
X198642516Y-60094091D01*
X198649444Y-60094835D01*
X198702127Y-60100500D01*
X201997872Y-60100499D01*
X202057483Y-60094091D01*
X202192331Y-60043796D01*
X202307546Y-59957546D01*
X202393796Y-59842331D01*
X202410381Y-59797864D01*
X202416609Y-59781167D01*
X202458480Y-59725233D01*
X202523944Y-59700816D01*
X202532791Y-59700500D01*
X204967209Y-59700500D01*
X205034248Y-59720185D01*
X205080003Y-59772989D01*
X205083391Y-59781167D01*
X205106202Y-59842328D01*
X205106206Y-59842335D01*
X205192452Y-59957544D01*
X205192455Y-59957547D01*
X205307664Y-60043793D01*
X205307671Y-60043797D01*
X205442517Y-60094091D01*
X205442516Y-60094091D01*
X205449444Y-60094835D01*
X205502127Y-60100500D01*
X208797872Y-60100499D01*
X208857483Y-60094091D01*
X208992331Y-60043796D01*
X209107546Y-59957546D01*
X209193796Y-59842331D01*
X209244091Y-59707483D01*
X209250500Y-59647873D01*
X209250499Y-58552128D01*
X209244091Y-58492517D01*
X209239353Y-58479815D01*
X209206769Y-58392452D01*
X209193796Y-58357669D01*
X209193795Y-58357667D01*
X209193794Y-58357665D01*
X209152224Y-58302135D01*
X222999500Y-58302135D01*
X222999500Y-60397870D01*
X222999501Y-60397876D01*
X223005908Y-60457483D01*
X223056202Y-60592328D01*
X223056206Y-60592335D01*
X223142452Y-60707544D01*
X223142453Y-60707544D01*
X223142454Y-60707546D01*
X223174833Y-60731785D01*
X223260599Y-60795990D01*
X223302469Y-60851924D01*
X223307453Y-60921615D01*
X223286605Y-60968141D01*
X223217087Y-61063824D01*
X223109897Y-61274197D01*
X223036934Y-61498752D01*
X223000000Y-61731947D01*
X223000000Y-61968052D01*
X223036934Y-62201247D01*
X223109897Y-62425802D01*
X223217087Y-62636174D01*
X223277338Y-62719104D01*
X223277340Y-62719105D01*
X224017037Y-61979408D01*
X224034075Y-62042993D01*
X224099901Y-62157007D01*
X224192993Y-62250099D01*
X224307007Y-62315925D01*
X224370590Y-62332962D01*
X223624280Y-63079271D01*
X223615105Y-63122947D01*
X223578739Y-63164615D01*
X223522490Y-63205482D01*
X223355485Y-63372487D01*
X223355485Y-63372488D01*
X223355483Y-63372490D01*
X223310391Y-63434554D01*
X223216657Y-63563566D01*
X223109433Y-63774003D01*
X223036446Y-63998631D01*
X222999500Y-64231902D01*
X222999500Y-64468097D01*
X223036446Y-64701368D01*
X223109433Y-64925996D01*
X223208699Y-65120814D01*
X223216657Y-65136433D01*
X223355483Y-65327510D01*
X223522490Y-65494517D01*
X223713567Y-65633343D01*
X223793367Y-65674003D01*
X223924003Y-65740566D01*
X223924005Y-65740566D01*
X223924008Y-65740568D01*
X224003849Y-65766510D01*
X224148631Y-65813553D01*
X224381903Y-65850500D01*
X224381908Y-65850500D01*
X224618097Y-65850500D01*
X224851368Y-65813553D01*
X224880563Y-65804067D01*
X225075992Y-65740568D01*
X225286433Y-65633343D01*
X225477510Y-65494517D01*
X225644517Y-65327510D01*
X225783343Y-65136433D01*
X225890568Y-64925992D01*
X225963553Y-64701368D01*
X225972874Y-64642517D01*
X226000500Y-64468097D01*
X226000500Y-64231902D01*
X237499500Y-64231902D01*
X237499500Y-64468097D01*
X237536446Y-64701368D01*
X237609433Y-64925996D01*
X237708699Y-65120814D01*
X237716657Y-65136433D01*
X237855483Y-65327510D01*
X238022490Y-65494517D01*
X238213567Y-65633343D01*
X238293367Y-65674003D01*
X238424003Y-65740566D01*
X238424005Y-65740566D01*
X238424008Y-65740568D01*
X238503849Y-65766510D01*
X238648631Y-65813553D01*
X238881903Y-65850500D01*
X238881908Y-65850500D01*
X239118097Y-65850500D01*
X239351368Y-65813553D01*
X239380563Y-65804067D01*
X239575992Y-65740568D01*
X239786433Y-65633343D01*
X239977510Y-65494517D01*
X240144517Y-65327510D01*
X240283343Y-65136433D01*
X240390568Y-64925992D01*
X240463553Y-64701368D01*
X240472874Y-64642517D01*
X240500500Y-64468097D01*
X240500500Y-64231902D01*
X240463553Y-63998631D01*
X240423458Y-63875233D01*
X240390568Y-63774008D01*
X240390566Y-63774005D01*
X240390566Y-63774003D01*
X240319707Y-63634935D01*
X240283343Y-63563567D01*
X240144517Y-63372490D01*
X239977510Y-63205483D01*
X239786433Y-63066657D01*
X239575996Y-62959433D01*
X239351368Y-62886446D01*
X239118097Y-62849500D01*
X239118092Y-62849500D01*
X238881908Y-62849500D01*
X238881903Y-62849500D01*
X238648631Y-62886446D01*
X238424003Y-62959433D01*
X238213566Y-63066657D01*
X238104550Y-63145862D01*
X238022490Y-63205483D01*
X238022488Y-63205485D01*
X238022487Y-63205485D01*
X237855485Y-63372487D01*
X237855485Y-63372488D01*
X237855483Y-63372490D01*
X237810391Y-63434554D01*
X237716657Y-63563566D01*
X237609433Y-63774003D01*
X237536446Y-63998631D01*
X237499500Y-64231902D01*
X226000500Y-64231902D01*
X225963553Y-63998631D01*
X225923458Y-63875233D01*
X225890568Y-63774008D01*
X225890566Y-63774005D01*
X225890566Y-63774003D01*
X225819707Y-63634935D01*
X225783343Y-63563567D01*
X225644517Y-63372490D01*
X225477510Y-63205483D01*
X225421259Y-63164614D01*
X225378595Y-63109284D01*
X225373902Y-63077455D01*
X224629408Y-62332962D01*
X224692993Y-62315925D01*
X224807007Y-62250099D01*
X224900099Y-62157007D01*
X224965925Y-62042993D01*
X224982962Y-61979409D01*
X225722658Y-62719105D01*
X225722658Y-62719104D01*
X225782914Y-62636169D01*
X225782918Y-62636163D01*
X225890102Y-62425802D01*
X225963065Y-62201247D01*
X226000000Y-61968052D01*
X226000000Y-61731947D01*
X225963065Y-61498752D01*
X225890102Y-61274197D01*
X225782914Y-61063828D01*
X225713394Y-60968142D01*
X225689914Y-60902335D01*
X225705739Y-60834281D01*
X225739401Y-60795989D01*
X225742329Y-60793796D01*
X225742331Y-60793796D01*
X225857546Y-60707546D01*
X225943796Y-60592331D01*
X225994091Y-60457483D01*
X226000500Y-60397873D01*
X226000499Y-59231902D01*
X237499500Y-59231902D01*
X237499500Y-59468097D01*
X237536446Y-59701368D01*
X237609433Y-59925996D01*
X237712467Y-60128210D01*
X237716657Y-60136433D01*
X237855483Y-60327510D01*
X238022490Y-60494517D01*
X238213567Y-60633343D01*
X238287783Y-60671158D01*
X238424003Y-60740566D01*
X238424005Y-60740566D01*
X238424008Y-60740568D01*
X238544412Y-60779689D01*
X238648631Y-60813553D01*
X238881903Y-60850500D01*
X238881908Y-60850500D01*
X239118097Y-60850500D01*
X239351368Y-60813553D01*
X239405424Y-60795989D01*
X239575992Y-60740568D01*
X239786433Y-60633343D01*
X239977510Y-60494517D01*
X240144517Y-60327510D01*
X240283343Y-60136433D01*
X240390568Y-59925992D01*
X240463553Y-59701368D01*
X240474653Y-59631284D01*
X240500500Y-59468097D01*
X240500500Y-59231902D01*
X240463553Y-58998631D01*
X240424425Y-58878210D01*
X240390568Y-58774008D01*
X240390566Y-58774005D01*
X240390566Y-58774003D01*
X240311441Y-58618713D01*
X240283343Y-58563567D01*
X240144517Y-58372490D01*
X239977510Y-58205483D01*
X239786433Y-58066657D01*
X239779611Y-58063181D01*
X239575996Y-57959433D01*
X239351368Y-57886446D01*
X239118097Y-57849500D01*
X239118092Y-57849500D01*
X238881908Y-57849500D01*
X238881903Y-57849500D01*
X238648631Y-57886446D01*
X238424003Y-57959433D01*
X238213566Y-58066657D01*
X238157119Y-58107669D01*
X238022490Y-58205483D01*
X238022488Y-58205485D01*
X238022487Y-58205485D01*
X237855485Y-58372487D01*
X237855485Y-58372488D01*
X237855483Y-58372490D01*
X237840978Y-58392455D01*
X237716657Y-58563566D01*
X237609433Y-58774003D01*
X237536446Y-58998631D01*
X237499500Y-59231902D01*
X226000499Y-59231902D01*
X226000499Y-58302128D01*
X225994091Y-58242517D01*
X225990266Y-58232262D01*
X225943797Y-58107671D01*
X225943793Y-58107664D01*
X225857547Y-57992455D01*
X225857544Y-57992452D01*
X225742335Y-57906206D01*
X225742328Y-57906202D01*
X225607482Y-57855908D01*
X225607483Y-57855908D01*
X225547883Y-57849501D01*
X225547881Y-57849500D01*
X225547873Y-57849500D01*
X225547864Y-57849500D01*
X223452129Y-57849500D01*
X223452123Y-57849501D01*
X223392516Y-57855908D01*
X223257671Y-57906202D01*
X223257664Y-57906206D01*
X223142455Y-57992452D01*
X223142452Y-57992455D01*
X223056206Y-58107664D01*
X223056202Y-58107671D01*
X223005908Y-58242517D01*
X222999501Y-58302116D01*
X222999501Y-58302123D01*
X222999500Y-58302135D01*
X209152224Y-58302135D01*
X209107547Y-58242455D01*
X209107544Y-58242452D01*
X208992335Y-58156206D01*
X208992328Y-58156202D01*
X208857482Y-58105908D01*
X208857483Y-58105908D01*
X208797883Y-58099501D01*
X208797881Y-58099500D01*
X208797873Y-58099500D01*
X208797864Y-58099500D01*
X205502129Y-58099500D01*
X205502123Y-58099501D01*
X205442516Y-58105908D01*
X205307671Y-58156202D01*
X205307664Y-58156206D01*
X205192455Y-58242452D01*
X205192452Y-58242455D01*
X205106206Y-58357664D01*
X205106202Y-58357671D01*
X205083391Y-58418833D01*
X205041520Y-58474767D01*
X204976056Y-58499184D01*
X204967209Y-58499500D01*
X202532791Y-58499500D01*
X202465752Y-58479815D01*
X202419997Y-58427011D01*
X202416609Y-58418833D01*
X202393797Y-58357671D01*
X202393793Y-58357664D01*
X202307547Y-58242455D01*
X202307544Y-58242452D01*
X202192335Y-58156206D01*
X202192328Y-58156202D01*
X202057482Y-58105908D01*
X202057483Y-58105908D01*
X201997883Y-58099501D01*
X201997881Y-58099500D01*
X201997873Y-58099500D01*
X201997864Y-58099500D01*
X198702129Y-58099500D01*
X198702123Y-58099501D01*
X198642516Y-58105908D01*
X198507671Y-58156202D01*
X198507664Y-58156206D01*
X198392455Y-58242452D01*
X198392452Y-58242455D01*
X198306206Y-58357664D01*
X198306202Y-58357671D01*
X198283391Y-58418833D01*
X198241520Y-58474767D01*
X198176056Y-58499184D01*
X198167209Y-58499500D01*
X194832791Y-58499500D01*
X194765752Y-58479815D01*
X194719997Y-58427011D01*
X194716609Y-58418833D01*
X194693797Y-58357671D01*
X194693793Y-58357664D01*
X194607547Y-58242455D01*
X194607544Y-58242452D01*
X194492335Y-58156206D01*
X194492328Y-58156202D01*
X194357482Y-58105908D01*
X194357483Y-58105908D01*
X194297883Y-58099501D01*
X194297881Y-58099500D01*
X194297873Y-58099500D01*
X194297864Y-58099500D01*
X191002129Y-58099500D01*
X191002123Y-58099501D01*
X190942516Y-58105908D01*
X190807671Y-58156202D01*
X190807664Y-58156206D01*
X190692455Y-58242452D01*
X190692452Y-58242455D01*
X190606206Y-58357664D01*
X190606202Y-58357671D01*
X190583391Y-58418833D01*
X190541520Y-58474767D01*
X190476056Y-58499184D01*
X190467209Y-58499500D01*
X188032791Y-58499500D01*
X187965752Y-58479815D01*
X187919997Y-58427011D01*
X187916609Y-58418833D01*
X187893797Y-58357671D01*
X187893793Y-58357664D01*
X187807547Y-58242455D01*
X187807544Y-58242452D01*
X187692335Y-58156206D01*
X187692328Y-58156202D01*
X187557482Y-58105908D01*
X187557483Y-58105908D01*
X187497883Y-58099501D01*
X187497881Y-58099500D01*
X187497873Y-58099500D01*
X187497864Y-58099500D01*
X184202129Y-58099500D01*
X184202123Y-58099501D01*
X184142516Y-58105908D01*
X184007671Y-58156202D01*
X184007664Y-58156206D01*
X183892455Y-58242452D01*
X183892452Y-58242455D01*
X183806206Y-58357664D01*
X183806202Y-58357671D01*
X183783391Y-58418833D01*
X183741520Y-58474767D01*
X183676056Y-58499184D01*
X183667209Y-58499500D01*
X181332791Y-58499500D01*
X181265752Y-58479815D01*
X181219997Y-58427011D01*
X181216609Y-58418833D01*
X181193797Y-58357671D01*
X181193793Y-58357664D01*
X181107547Y-58242455D01*
X181107544Y-58242452D01*
X180992335Y-58156206D01*
X180992328Y-58156202D01*
X180857482Y-58105908D01*
X180857483Y-58105908D01*
X180797883Y-58099501D01*
X180797881Y-58099500D01*
X180797873Y-58099500D01*
X180797864Y-58099500D01*
X177502129Y-58099500D01*
X177502123Y-58099501D01*
X177442516Y-58105908D01*
X177307671Y-58156202D01*
X177307664Y-58156206D01*
X177192455Y-58242452D01*
X177192452Y-58242455D01*
X177106206Y-58357664D01*
X177106202Y-58357671D01*
X177083391Y-58418833D01*
X177041520Y-58474767D01*
X176976056Y-58499184D01*
X176967209Y-58499500D01*
X174532791Y-58499500D01*
X174465752Y-58479815D01*
X174419997Y-58427011D01*
X174416609Y-58418833D01*
X174393797Y-58357671D01*
X174393793Y-58357664D01*
X174307547Y-58242455D01*
X174307544Y-58242452D01*
X174192335Y-58156206D01*
X174192328Y-58156202D01*
X174057482Y-58105908D01*
X174057483Y-58105908D01*
X173997883Y-58099501D01*
X173997881Y-58099500D01*
X173997873Y-58099500D01*
X173997865Y-58099500D01*
X171000097Y-58099500D01*
X170933058Y-58079815D01*
X170912416Y-58063181D01*
X166770388Y-53921153D01*
X168699500Y-53921153D01*
X168699500Y-54078846D01*
X168730261Y-54233489D01*
X168730264Y-54233501D01*
X168790602Y-54379172D01*
X168790609Y-54379185D01*
X168878210Y-54510288D01*
X168878213Y-54510292D01*
X168989707Y-54621786D01*
X168989711Y-54621789D01*
X169120814Y-54709390D01*
X169120827Y-54709397D01*
X169233119Y-54755909D01*
X169266503Y-54769737D01*
X169421153Y-54800499D01*
X169421156Y-54800500D01*
X169421158Y-54800500D01*
X169578844Y-54800500D01*
X169578845Y-54800499D01*
X169733497Y-54769737D01*
X169879179Y-54709394D01*
X169968817Y-54649500D01*
X170010875Y-54621398D01*
X170028921Y-54615747D01*
X170044831Y-54605523D01*
X170075792Y-54601071D01*
X170077553Y-54600520D01*
X170079766Y-54600500D01*
X170125500Y-54600500D01*
X170192539Y-54620185D01*
X170238294Y-54672989D01*
X170249500Y-54724500D01*
X170249500Y-55647870D01*
X170249501Y-55647876D01*
X170255908Y-55707483D01*
X170306202Y-55842328D01*
X170306206Y-55842335D01*
X170392452Y-55957544D01*
X170392455Y-55957547D01*
X170507664Y-56043793D01*
X170507671Y-56043797D01*
X170642517Y-56094091D01*
X170642516Y-56094091D01*
X170649444Y-56094835D01*
X170702127Y-56100500D01*
X173997872Y-56100499D01*
X174057483Y-56094091D01*
X174192331Y-56043796D01*
X174307546Y-55957546D01*
X174393796Y-55842331D01*
X174413090Y-55790602D01*
X174416609Y-55781167D01*
X174458480Y-55725233D01*
X174523944Y-55700816D01*
X174532791Y-55700500D01*
X176967209Y-55700500D01*
X177034248Y-55720185D01*
X177080003Y-55772989D01*
X177083391Y-55781167D01*
X177106202Y-55842328D01*
X177106206Y-55842335D01*
X177192452Y-55957544D01*
X177192455Y-55957547D01*
X177307664Y-56043793D01*
X177307671Y-56043797D01*
X177442517Y-56094091D01*
X177442516Y-56094091D01*
X177449444Y-56094835D01*
X177502127Y-56100500D01*
X180797872Y-56100499D01*
X180857483Y-56094091D01*
X180992331Y-56043796D01*
X181107546Y-55957546D01*
X181193796Y-55842331D01*
X181244091Y-55707483D01*
X181250500Y-55647873D01*
X181250499Y-54552135D01*
X183749500Y-54552135D01*
X183749500Y-55647870D01*
X183749501Y-55647876D01*
X183755908Y-55707483D01*
X183806202Y-55842328D01*
X183806206Y-55842335D01*
X183892452Y-55957544D01*
X183892455Y-55957547D01*
X184007664Y-56043793D01*
X184007671Y-56043797D01*
X184142517Y-56094091D01*
X184142516Y-56094091D01*
X184149444Y-56094835D01*
X184202127Y-56100500D01*
X187497872Y-56100499D01*
X187557483Y-56094091D01*
X187692331Y-56043796D01*
X187807546Y-55957546D01*
X187893796Y-55842331D01*
X187913090Y-55790602D01*
X187916609Y-55781167D01*
X187958480Y-55725233D01*
X188023944Y-55700816D01*
X188032791Y-55700500D01*
X190467209Y-55700500D01*
X190534248Y-55720185D01*
X190580003Y-55772989D01*
X190583391Y-55781167D01*
X190606202Y-55842328D01*
X190606206Y-55842335D01*
X190692452Y-55957544D01*
X190692455Y-55957547D01*
X190807664Y-56043793D01*
X190807671Y-56043797D01*
X190942517Y-56094091D01*
X190942516Y-56094091D01*
X190949444Y-56094835D01*
X191002127Y-56100500D01*
X194297872Y-56100499D01*
X194357483Y-56094091D01*
X194492331Y-56043796D01*
X194607546Y-55957546D01*
X194693796Y-55842331D01*
X194744091Y-55707483D01*
X194750500Y-55647873D01*
X194750499Y-54595547D01*
X194754959Y-54580357D01*
X194754440Y-54564533D01*
X194761844Y-54552135D01*
X198249500Y-54552135D01*
X198249500Y-55647870D01*
X198249501Y-55647876D01*
X198255908Y-55707483D01*
X198306202Y-55842328D01*
X198306206Y-55842335D01*
X198392452Y-55957544D01*
X198392455Y-55957547D01*
X198507664Y-56043793D01*
X198507671Y-56043797D01*
X198642517Y-56094091D01*
X198642516Y-56094091D01*
X198649444Y-56094835D01*
X198702127Y-56100500D01*
X201997872Y-56100499D01*
X202057483Y-56094091D01*
X202192331Y-56043796D01*
X202307546Y-55957546D01*
X202393796Y-55842331D01*
X202413090Y-55790602D01*
X202416609Y-55781167D01*
X202458480Y-55725233D01*
X202523944Y-55700816D01*
X202532791Y-55700500D01*
X204967209Y-55700500D01*
X205034248Y-55720185D01*
X205080003Y-55772989D01*
X205083391Y-55781167D01*
X205106202Y-55842328D01*
X205106206Y-55842335D01*
X205192452Y-55957544D01*
X205192455Y-55957547D01*
X205307664Y-56043793D01*
X205307671Y-56043797D01*
X205442517Y-56094091D01*
X205442516Y-56094091D01*
X205449444Y-56094835D01*
X205502127Y-56100500D01*
X208797872Y-56100499D01*
X208857483Y-56094091D01*
X208992331Y-56043796D01*
X209107546Y-55957546D01*
X209193796Y-55842331D01*
X209215524Y-55784073D01*
X209257392Y-55728143D01*
X209322856Y-55703724D01*
X209379156Y-55712846D01*
X209516503Y-55769737D01*
X209671153Y-55800499D01*
X209671156Y-55800500D01*
X209671158Y-55800500D01*
X209828844Y-55800500D01*
X209828845Y-55800499D01*
X209983497Y-55769737D01*
X210129179Y-55709394D01*
X210260289Y-55621789D01*
X210371789Y-55510289D01*
X210459394Y-55379179D01*
X210519737Y-55233497D01*
X210525975Y-55202135D01*
X229899500Y-55202135D01*
X229899500Y-57297870D01*
X229899501Y-57297876D01*
X229905908Y-57357483D01*
X229956202Y-57492328D01*
X229956206Y-57492335D01*
X230042452Y-57607544D01*
X230042455Y-57607547D01*
X230157664Y-57693793D01*
X230157671Y-57693797D01*
X230292517Y-57744091D01*
X230292516Y-57744091D01*
X230299444Y-57744835D01*
X230352127Y-57750500D01*
X233647872Y-57750499D01*
X233707483Y-57744091D01*
X233842331Y-57693796D01*
X233957546Y-57607546D01*
X234043796Y-57492331D01*
X234094091Y-57357483D01*
X234100500Y-57297873D01*
X234100499Y-55202135D01*
X248399500Y-55202135D01*
X248399500Y-57297870D01*
X248399501Y-57297876D01*
X248405908Y-57357483D01*
X248456202Y-57492328D01*
X248456206Y-57492335D01*
X248542452Y-57607544D01*
X248542455Y-57607547D01*
X248657664Y-57693793D01*
X248657671Y-57693797D01*
X248792517Y-57744091D01*
X248792516Y-57744091D01*
X248799444Y-57744835D01*
X248852127Y-57750500D01*
X252147872Y-57750499D01*
X252207483Y-57744091D01*
X252342331Y-57693796D01*
X252457546Y-57607546D01*
X252543796Y-57492331D01*
X252594091Y-57357483D01*
X252600500Y-57297873D01*
X252600499Y-55893713D01*
X261399500Y-55893713D01*
X261399500Y-56106287D01*
X261404579Y-56138352D01*
X261425823Y-56272487D01*
X261432754Y-56316243D01*
X261491679Y-56497596D01*
X261498444Y-56518414D01*
X261594951Y-56707820D01*
X261719890Y-56879786D01*
X261870213Y-57030109D01*
X262042179Y-57155048D01*
X262042181Y-57155049D01*
X262042184Y-57155051D01*
X262231588Y-57251557D01*
X262433757Y-57317246D01*
X262643713Y-57350500D01*
X262643714Y-57350500D01*
X262856286Y-57350500D01*
X262856287Y-57350500D01*
X263066243Y-57317246D01*
X263268412Y-57251557D01*
X263457816Y-57155051D01*
X263505805Y-57120185D01*
X263629786Y-57030109D01*
X263629788Y-57030106D01*
X263629792Y-57030104D01*
X263780104Y-56879792D01*
X263780106Y-56879788D01*
X263780109Y-56879786D01*
X263905048Y-56707820D01*
X263905047Y-56707820D01*
X263905051Y-56707816D01*
X264001557Y-56518412D01*
X264067246Y-56316243D01*
X264100500Y-56106287D01*
X264100500Y-55893713D01*
X264067246Y-55683757D01*
X264001557Y-55481588D01*
X263905051Y-55292184D01*
X263905049Y-55292181D01*
X263905048Y-55292179D01*
X263780109Y-55120213D01*
X263629786Y-54969890D01*
X263457820Y-54844951D01*
X263268414Y-54748444D01*
X263268413Y-54748443D01*
X263268412Y-54748443D01*
X263066243Y-54682754D01*
X263066241Y-54682753D01*
X263066240Y-54682753D01*
X262904957Y-54657208D01*
X262856287Y-54649500D01*
X262643713Y-54649500D01*
X262595042Y-54657208D01*
X262433760Y-54682753D01*
X262231585Y-54748444D01*
X262042179Y-54844951D01*
X261870213Y-54969890D01*
X261719890Y-55120213D01*
X261594951Y-55292179D01*
X261498444Y-55481585D01*
X261432753Y-55683760D01*
X261404930Y-55859432D01*
X261399500Y-55893713D01*
X252600499Y-55893713D01*
X252600499Y-55202128D01*
X252594091Y-55142517D01*
X252585772Y-55120213D01*
X252543797Y-55007671D01*
X252543793Y-55007664D01*
X252457547Y-54892455D01*
X252457544Y-54892452D01*
X252342335Y-54806206D01*
X252342328Y-54806202D01*
X252207482Y-54755908D01*
X252207483Y-54755908D01*
X252147883Y-54749501D01*
X252147881Y-54749500D01*
X252147873Y-54749500D01*
X252147864Y-54749500D01*
X248852129Y-54749500D01*
X248852123Y-54749501D01*
X248792516Y-54755908D01*
X248657671Y-54806202D01*
X248657664Y-54806206D01*
X248542455Y-54892452D01*
X248542452Y-54892455D01*
X248456206Y-55007664D01*
X248456202Y-55007671D01*
X248405908Y-55142517D01*
X248400758Y-55190423D01*
X248399501Y-55202123D01*
X248399500Y-55202135D01*
X234100499Y-55202135D01*
X234100499Y-55202128D01*
X234094091Y-55142517D01*
X234085772Y-55120213D01*
X234043797Y-55007671D01*
X234043793Y-55007664D01*
X233957547Y-54892455D01*
X233957544Y-54892452D01*
X233842335Y-54806206D01*
X233842328Y-54806202D01*
X233707482Y-54755908D01*
X233707483Y-54755908D01*
X233647883Y-54749501D01*
X233647881Y-54749500D01*
X233647873Y-54749500D01*
X233647864Y-54749500D01*
X230352129Y-54749500D01*
X230352123Y-54749501D01*
X230292516Y-54755908D01*
X230157671Y-54806202D01*
X230157664Y-54806206D01*
X230042455Y-54892452D01*
X230042452Y-54892455D01*
X229956206Y-55007664D01*
X229956202Y-55007671D01*
X229905908Y-55142517D01*
X229900758Y-55190423D01*
X229899501Y-55202123D01*
X229899500Y-55202135D01*
X210525975Y-55202135D01*
X210529578Y-55184023D01*
X210531450Y-55174615D01*
X210531450Y-55174614D01*
X210550500Y-55078844D01*
X210550500Y-54921155D01*
X210550499Y-54921153D01*
X210527634Y-54806204D01*
X210519737Y-54766503D01*
X210515349Y-54755909D01*
X210459397Y-54620827D01*
X210459390Y-54620814D01*
X210371789Y-54489711D01*
X210371786Y-54489707D01*
X210260292Y-54378213D01*
X210260288Y-54378210D01*
X210129185Y-54290609D01*
X210129172Y-54290602D01*
X209983501Y-54230264D01*
X209983489Y-54230261D01*
X209828845Y-54199500D01*
X209828842Y-54199500D01*
X209671158Y-54199500D01*
X209671155Y-54199500D01*
X209516510Y-54230261D01*
X209516498Y-54230264D01*
X209370827Y-54290602D01*
X209370809Y-54290612D01*
X209317077Y-54326515D01*
X209250400Y-54347393D01*
X209183020Y-54328908D01*
X209148923Y-54297727D01*
X209107546Y-54242454D01*
X209107544Y-54242452D01*
X209107543Y-54242451D01*
X208992335Y-54156206D01*
X208992328Y-54156202D01*
X208857482Y-54105908D01*
X208857483Y-54105908D01*
X208797883Y-54099501D01*
X208797881Y-54099500D01*
X208797873Y-54099500D01*
X208797864Y-54099500D01*
X205502129Y-54099500D01*
X205502123Y-54099501D01*
X205442516Y-54105908D01*
X205307671Y-54156202D01*
X205307664Y-54156206D01*
X205192455Y-54242452D01*
X205192452Y-54242455D01*
X205106206Y-54357664D01*
X205106202Y-54357671D01*
X205083391Y-54418833D01*
X205041520Y-54474767D01*
X204976056Y-54499184D01*
X204967209Y-54499500D01*
X202532791Y-54499500D01*
X202465752Y-54479815D01*
X202419997Y-54427011D01*
X202416609Y-54418833D01*
X202393797Y-54357671D01*
X202393793Y-54357664D01*
X202307547Y-54242455D01*
X202307544Y-54242452D01*
X202192335Y-54156206D01*
X202192328Y-54156202D01*
X202057482Y-54105908D01*
X202057483Y-54105908D01*
X201997883Y-54099501D01*
X201997881Y-54099500D01*
X201997873Y-54099500D01*
X201997864Y-54099500D01*
X198702129Y-54099500D01*
X198702123Y-54099501D01*
X198642516Y-54105908D01*
X198507671Y-54156202D01*
X198507664Y-54156206D01*
X198392455Y-54242452D01*
X198392452Y-54242455D01*
X198306206Y-54357664D01*
X198306202Y-54357671D01*
X198255908Y-54492517D01*
X198249501Y-54552116D01*
X198249500Y-54552135D01*
X194761844Y-54552135D01*
X194764600Y-54547520D01*
X194770183Y-54528509D01*
X194782596Y-54517391D01*
X194790267Y-54504548D01*
X194813688Y-54489544D01*
X194819317Y-54484503D01*
X194823110Y-54482617D01*
X194879179Y-54459394D01*
X195010289Y-54371789D01*
X195121789Y-54260289D01*
X195209394Y-54129179D01*
X195269737Y-53983497D01*
X195300500Y-53828842D01*
X195300500Y-53671158D01*
X195300500Y-53671155D01*
X195300499Y-53671153D01*
X195292569Y-53631286D01*
X195269737Y-53516503D01*
X195269735Y-53516498D01*
X195209397Y-53370827D01*
X195209390Y-53370814D01*
X195121789Y-53239711D01*
X195121786Y-53239707D01*
X195010292Y-53128213D01*
X195010288Y-53128210D01*
X194879185Y-53040609D01*
X194879172Y-53040602D01*
X194733501Y-52980264D01*
X194733489Y-52980261D01*
X194578845Y-52949500D01*
X194578842Y-52949500D01*
X194421158Y-52949500D01*
X194421155Y-52949500D01*
X194266510Y-52980261D01*
X194266498Y-52980264D01*
X194120827Y-53040602D01*
X194120814Y-53040609D01*
X193989711Y-53128210D01*
X193989707Y-53128213D01*
X193878213Y-53239707D01*
X193878210Y-53239711D01*
X193790609Y-53370814D01*
X193790602Y-53370827D01*
X193730264Y-53516498D01*
X193730261Y-53516508D01*
X193699361Y-53671850D01*
X193666976Y-53733761D01*
X193665425Y-53735339D01*
X193337583Y-54063181D01*
X193276260Y-54096666D01*
X193249902Y-54099500D01*
X191002129Y-54099500D01*
X191002123Y-54099501D01*
X190942516Y-54105908D01*
X190807671Y-54156202D01*
X190807664Y-54156206D01*
X190692455Y-54242452D01*
X190692452Y-54242455D01*
X190606206Y-54357664D01*
X190606202Y-54357671D01*
X190583391Y-54418833D01*
X190541520Y-54474767D01*
X190476056Y-54499184D01*
X190467209Y-54499500D01*
X188032791Y-54499500D01*
X187965752Y-54479815D01*
X187919997Y-54427011D01*
X187916609Y-54418833D01*
X187893797Y-54357671D01*
X187893793Y-54357664D01*
X187807547Y-54242455D01*
X187807544Y-54242452D01*
X187692335Y-54156206D01*
X187692328Y-54156202D01*
X187557482Y-54105908D01*
X187557483Y-54105908D01*
X187497883Y-54099501D01*
X187497881Y-54099500D01*
X187497873Y-54099500D01*
X187497864Y-54099500D01*
X184202129Y-54099500D01*
X184202123Y-54099501D01*
X184142516Y-54105908D01*
X184007671Y-54156202D01*
X184007664Y-54156206D01*
X183892455Y-54242452D01*
X183892452Y-54242455D01*
X183806206Y-54357664D01*
X183806202Y-54357671D01*
X183755908Y-54492517D01*
X183749501Y-54552116D01*
X183749500Y-54552135D01*
X181250499Y-54552135D01*
X181250499Y-54552128D01*
X181244091Y-54492517D01*
X181243044Y-54489711D01*
X181193797Y-54357671D01*
X181193793Y-54357664D01*
X181107547Y-54242455D01*
X181107544Y-54242452D01*
X180992335Y-54156206D01*
X180992328Y-54156202D01*
X180857482Y-54105908D01*
X180857483Y-54105908D01*
X180797883Y-54099501D01*
X180797881Y-54099500D01*
X180797873Y-54099500D01*
X180797864Y-54099500D01*
X177502129Y-54099500D01*
X177502123Y-54099501D01*
X177442516Y-54105908D01*
X177307671Y-54156202D01*
X177307664Y-54156206D01*
X177192455Y-54242452D01*
X177192452Y-54242455D01*
X177106206Y-54357664D01*
X177106202Y-54357671D01*
X177083391Y-54418833D01*
X177041520Y-54474767D01*
X176976056Y-54499184D01*
X176967209Y-54499500D01*
X174532791Y-54499500D01*
X174465752Y-54479815D01*
X174419997Y-54427011D01*
X174416609Y-54418833D01*
X174393797Y-54357671D01*
X174393793Y-54357664D01*
X174307547Y-54242455D01*
X174307544Y-54242452D01*
X174192335Y-54156206D01*
X174192328Y-54156202D01*
X174057482Y-54105908D01*
X174057483Y-54105908D01*
X173997883Y-54099501D01*
X173997881Y-54099500D01*
X173997873Y-54099500D01*
X173997865Y-54099500D01*
X172250097Y-54099500D01*
X172183058Y-54079815D01*
X172162416Y-54063181D01*
X171737590Y-53638355D01*
X171737588Y-53638352D01*
X171618717Y-53519481D01*
X171618716Y-53519480D01*
X171529835Y-53468165D01*
X171481785Y-53440423D01*
X171329057Y-53399499D01*
X171170943Y-53399499D01*
X171163347Y-53399499D01*
X171163331Y-53399500D01*
X170079766Y-53399500D01*
X170012727Y-53379815D01*
X170010875Y-53378602D01*
X169879185Y-53290609D01*
X169879172Y-53290602D01*
X169733501Y-53230264D01*
X169733489Y-53230261D01*
X169578845Y-53199500D01*
X169578842Y-53199500D01*
X169421158Y-53199500D01*
X169421155Y-53199500D01*
X169266510Y-53230261D01*
X169266498Y-53230264D01*
X169120827Y-53290602D01*
X169120814Y-53290609D01*
X168989711Y-53378210D01*
X168989707Y-53378213D01*
X168878213Y-53489707D01*
X168878210Y-53489711D01*
X168790609Y-53620814D01*
X168790602Y-53620827D01*
X168730264Y-53766498D01*
X168730261Y-53766510D01*
X168699500Y-53921153D01*
X166770388Y-53921153D01*
X165311416Y-52462181D01*
X165277931Y-52400858D01*
X165282915Y-52331166D01*
X165324787Y-52275233D01*
X165390251Y-52250816D01*
X165399097Y-52250500D01*
X265625500Y-52250500D01*
X265692539Y-52270185D01*
X265738294Y-52322989D01*
X265749500Y-52374500D01*
X265749500Y-76125500D01*
X265729815Y-76192539D01*
X265677011Y-76238294D01*
X265625500Y-76249500D01*
X29374500Y-76249500D01*
X29307461Y-76229815D01*
X29261706Y-76177011D01*
X29250500Y-76125500D01*
X29250500Y-73643713D01*
X31899500Y-73643713D01*
X31899500Y-73856287D01*
X31932754Y-74066243D01*
X31966841Y-74171153D01*
X31998444Y-74268414D01*
X32094951Y-74457820D01*
X32219890Y-74629786D01*
X32370213Y-74780109D01*
X32542179Y-74905048D01*
X32542181Y-74905049D01*
X32542184Y-74905051D01*
X32731588Y-75001557D01*
X32933757Y-75067246D01*
X33143713Y-75100500D01*
X33143714Y-75100500D01*
X33356286Y-75100500D01*
X33356287Y-75100500D01*
X33566243Y-75067246D01*
X33768412Y-75001557D01*
X33957816Y-74905051D01*
X34032900Y-74850500D01*
X34129786Y-74780109D01*
X34129788Y-74780106D01*
X34129792Y-74780104D01*
X34280104Y-74629792D01*
X34280106Y-74629788D01*
X34280109Y-74629786D01*
X34405048Y-74457820D01*
X34405047Y-74457820D01*
X34405051Y-74457816D01*
X34501557Y-74268412D01*
X34567246Y-74066243D01*
X34600500Y-73856287D01*
X34600500Y-73643713D01*
X34567246Y-73433757D01*
X34501557Y-73231588D01*
X34405051Y-73042184D01*
X34405049Y-73042181D01*
X34405048Y-73042179D01*
X34280109Y-72870213D01*
X34129786Y-72719890D01*
X33957820Y-72594951D01*
X33768414Y-72498444D01*
X33768413Y-72498443D01*
X33768412Y-72498443D01*
X33566243Y-72432754D01*
X33566241Y-72432753D01*
X33566240Y-72432753D01*
X33404957Y-72407208D01*
X33356287Y-72399500D01*
X33143713Y-72399500D01*
X33095042Y-72407208D01*
X32933760Y-72432753D01*
X32731585Y-72498444D01*
X32542179Y-72594951D01*
X32370213Y-72719890D01*
X32219890Y-72870213D01*
X32094951Y-73042179D01*
X31998444Y-73231585D01*
X31932753Y-73433760D01*
X31908452Y-73587190D01*
X31899500Y-73643713D01*
X29250500Y-73643713D01*
X29250500Y-68897648D01*
X34019500Y-68897648D01*
X34019500Y-69102351D01*
X34051522Y-69304534D01*
X34114781Y-69499223D01*
X34166385Y-69600500D01*
X34207487Y-69681167D01*
X34207715Y-69681613D01*
X34328028Y-69847213D01*
X34472786Y-69991971D01*
X34610928Y-70092335D01*
X34638390Y-70112287D01*
X34708948Y-70148238D01*
X34820776Y-70205218D01*
X34820778Y-70205218D01*
X34820781Y-70205220D01*
X34866839Y-70220185D01*
X35015465Y-70268477D01*
X35095586Y-70281167D01*
X35217648Y-70300500D01*
X35217649Y-70300500D01*
X35422351Y-70300500D01*
X35422352Y-70300500D01*
X35624534Y-70268477D01*
X35819219Y-70205220D01*
X36001610Y-70112287D01*
X36121063Y-70025500D01*
X36167213Y-69991971D01*
X36167215Y-69991968D01*
X36167219Y-69991966D01*
X36311966Y-69847219D01*
X36311968Y-69847215D01*
X36311971Y-69847213D01*
X36432284Y-69681614D01*
X36432286Y-69681611D01*
X36432287Y-69681610D01*
X36479516Y-69588917D01*
X36527489Y-69538123D01*
X36595310Y-69521328D01*
X36661445Y-69543865D01*
X36700483Y-69588917D01*
X36743320Y-69672989D01*
X36747715Y-69681614D01*
X36868028Y-69847213D01*
X37012786Y-69991971D01*
X37150928Y-70092335D01*
X37178390Y-70112287D01*
X37248948Y-70148238D01*
X37360776Y-70205218D01*
X37360778Y-70205218D01*
X37360781Y-70205220D01*
X37406839Y-70220185D01*
X37555465Y-70268477D01*
X37635586Y-70281167D01*
X37757648Y-70300500D01*
X37757649Y-70300500D01*
X37962351Y-70300500D01*
X37962352Y-70300500D01*
X38164534Y-70268477D01*
X38359219Y-70205220D01*
X38541610Y-70112287D01*
X38661063Y-70025500D01*
X38707213Y-69991971D01*
X38707215Y-69991968D01*
X38707219Y-69991966D01*
X38851966Y-69847219D01*
X38851968Y-69847215D01*
X38851971Y-69847213D01*
X38972284Y-69681614D01*
X38972286Y-69681611D01*
X38972287Y-69681610D01*
X39019516Y-69588917D01*
X39067489Y-69538123D01*
X39135310Y-69521328D01*
X39201445Y-69543865D01*
X39240483Y-69588917D01*
X39283320Y-69672989D01*
X39287715Y-69681614D01*
X39408028Y-69847213D01*
X39552786Y-69991971D01*
X39690928Y-70092335D01*
X39718390Y-70112287D01*
X39788948Y-70148238D01*
X39900776Y-70205218D01*
X39900778Y-70205218D01*
X39900781Y-70205220D01*
X39946839Y-70220185D01*
X40095465Y-70268477D01*
X40175586Y-70281167D01*
X40297648Y-70300500D01*
X40297649Y-70300500D01*
X40502351Y-70300500D01*
X40502352Y-70300500D01*
X40704534Y-70268477D01*
X40899219Y-70205220D01*
X41081610Y-70112287D01*
X41201063Y-70025500D01*
X41247213Y-69991971D01*
X41247215Y-69991968D01*
X41247219Y-69991966D01*
X41391966Y-69847219D01*
X41391968Y-69847215D01*
X41391971Y-69847213D01*
X41512284Y-69681614D01*
X41512286Y-69681611D01*
X41512287Y-69681610D01*
X41559516Y-69588917D01*
X41607489Y-69538123D01*
X41675310Y-69521328D01*
X41741445Y-69543865D01*
X41780483Y-69588917D01*
X41823320Y-69672989D01*
X41827715Y-69681614D01*
X41948028Y-69847213D01*
X42092786Y-69991971D01*
X42230928Y-70092335D01*
X42258390Y-70112287D01*
X42328948Y-70148238D01*
X42440776Y-70205218D01*
X42440778Y-70205218D01*
X42440781Y-70205220D01*
X42486839Y-70220185D01*
X42635465Y-70268477D01*
X42715586Y-70281167D01*
X42837648Y-70300500D01*
X42837649Y-70300500D01*
X43042351Y-70300500D01*
X43042352Y-70300500D01*
X43244534Y-70268477D01*
X43439219Y-70205220D01*
X43621610Y-70112287D01*
X43741063Y-70025500D01*
X43787213Y-69991971D01*
X43787215Y-69991968D01*
X43787219Y-69991966D01*
X43931966Y-69847219D01*
X43931968Y-69847215D01*
X43931971Y-69847213D01*
X44052284Y-69681614D01*
X44052286Y-69681611D01*
X44052287Y-69681610D01*
X44099516Y-69588917D01*
X44147489Y-69538123D01*
X44215310Y-69521328D01*
X44281445Y-69543865D01*
X44320483Y-69588917D01*
X44363320Y-69672989D01*
X44367715Y-69681614D01*
X44488028Y-69847213D01*
X44632786Y-69991971D01*
X44770928Y-70092335D01*
X44798390Y-70112287D01*
X44868948Y-70148238D01*
X44980776Y-70205218D01*
X44980778Y-70205218D01*
X44980781Y-70205220D01*
X45026839Y-70220185D01*
X45175465Y-70268477D01*
X45255586Y-70281167D01*
X45377648Y-70300500D01*
X45377649Y-70300500D01*
X45582351Y-70300500D01*
X45582352Y-70300500D01*
X45784534Y-70268477D01*
X45979219Y-70205220D01*
X46161610Y-70112287D01*
X46281063Y-70025500D01*
X46327213Y-69991971D01*
X46327215Y-69991968D01*
X46327219Y-69991966D01*
X46471966Y-69847219D01*
X46471968Y-69847215D01*
X46471971Y-69847213D01*
X46592284Y-69681614D01*
X46592286Y-69681611D01*
X46592287Y-69681610D01*
X46639516Y-69588917D01*
X46687489Y-69538123D01*
X46755310Y-69521328D01*
X46821445Y-69543865D01*
X46860483Y-69588917D01*
X46903320Y-69672989D01*
X46907715Y-69681614D01*
X47028028Y-69847213D01*
X47172786Y-69991971D01*
X47310928Y-70092335D01*
X47338390Y-70112287D01*
X47408948Y-70148238D01*
X47520776Y-70205218D01*
X47520778Y-70205218D01*
X47520781Y-70205220D01*
X47566839Y-70220185D01*
X47715465Y-70268477D01*
X47795586Y-70281167D01*
X47917648Y-70300500D01*
X47917649Y-70300500D01*
X48122351Y-70300500D01*
X48122352Y-70300500D01*
X48324534Y-70268477D01*
X48519219Y-70205220D01*
X48701610Y-70112287D01*
X48821063Y-70025500D01*
X48867213Y-69991971D01*
X48867215Y-69991968D01*
X48867219Y-69991966D01*
X49011966Y-69847219D01*
X49011968Y-69847215D01*
X49011971Y-69847213D01*
X49132284Y-69681614D01*
X49132286Y-69681611D01*
X49132287Y-69681610D01*
X49179516Y-69588917D01*
X49227489Y-69538123D01*
X49295310Y-69521328D01*
X49361445Y-69543865D01*
X49400483Y-69588917D01*
X49443320Y-69672989D01*
X49447715Y-69681614D01*
X49568028Y-69847213D01*
X49712786Y-69991971D01*
X49850928Y-70092335D01*
X49878390Y-70112287D01*
X49948948Y-70148238D01*
X50060776Y-70205218D01*
X50060778Y-70205218D01*
X50060781Y-70205220D01*
X50106839Y-70220185D01*
X50255465Y-70268477D01*
X50335586Y-70281167D01*
X50457648Y-70300500D01*
X50457649Y-70300500D01*
X50662351Y-70300500D01*
X50662352Y-70300500D01*
X50864534Y-70268477D01*
X51059219Y-70205220D01*
X51241610Y-70112287D01*
X51361063Y-70025500D01*
X51407213Y-69991971D01*
X51407215Y-69991968D01*
X51407219Y-69991966D01*
X51551966Y-69847219D01*
X51551968Y-69847215D01*
X51551971Y-69847213D01*
X51672284Y-69681614D01*
X51672286Y-69681611D01*
X51672287Y-69681610D01*
X51719516Y-69588917D01*
X51767489Y-69538123D01*
X51835310Y-69521328D01*
X51901445Y-69543865D01*
X51940483Y-69588917D01*
X51983320Y-69672989D01*
X51987715Y-69681614D01*
X52108028Y-69847213D01*
X52252786Y-69991971D01*
X52390928Y-70092335D01*
X52418390Y-70112287D01*
X52488948Y-70148238D01*
X52600776Y-70205218D01*
X52600778Y-70205218D01*
X52600781Y-70205220D01*
X52646839Y-70220185D01*
X52795465Y-70268477D01*
X52875586Y-70281167D01*
X52997648Y-70300500D01*
X52997649Y-70300500D01*
X53202351Y-70300500D01*
X53202352Y-70300500D01*
X53404534Y-70268477D01*
X53599219Y-70205220D01*
X53781610Y-70112287D01*
X53901063Y-70025500D01*
X53947213Y-69991971D01*
X53947215Y-69991968D01*
X53947219Y-69991966D01*
X54091966Y-69847219D01*
X54091968Y-69847215D01*
X54091971Y-69847213D01*
X54212284Y-69681614D01*
X54212286Y-69681611D01*
X54212287Y-69681610D01*
X54259516Y-69588917D01*
X54307489Y-69538123D01*
X54375310Y-69521328D01*
X54441445Y-69543865D01*
X54480483Y-69588917D01*
X54523320Y-69672989D01*
X54527715Y-69681614D01*
X54648028Y-69847213D01*
X54792786Y-69991971D01*
X54930928Y-70092335D01*
X54958390Y-70112287D01*
X55028948Y-70148238D01*
X55140776Y-70205218D01*
X55140778Y-70205218D01*
X55140781Y-70205220D01*
X55186839Y-70220185D01*
X55335465Y-70268477D01*
X55415586Y-70281167D01*
X55537648Y-70300500D01*
X55537649Y-70300500D01*
X55742351Y-70300500D01*
X55742352Y-70300500D01*
X55944534Y-70268477D01*
X56139219Y-70205220D01*
X56321610Y-70112287D01*
X56441063Y-70025500D01*
X56487213Y-69991971D01*
X56487215Y-69991968D01*
X56487219Y-69991966D01*
X56631966Y-69847219D01*
X56631968Y-69847215D01*
X56631971Y-69847213D01*
X56752284Y-69681614D01*
X56752286Y-69681611D01*
X56752287Y-69681610D01*
X56799516Y-69588917D01*
X56847489Y-69538123D01*
X56915310Y-69521328D01*
X56981445Y-69543865D01*
X57020483Y-69588917D01*
X57063320Y-69672989D01*
X57067715Y-69681614D01*
X57188028Y-69847213D01*
X57332786Y-69991971D01*
X57470928Y-70092335D01*
X57498390Y-70112287D01*
X57568948Y-70148238D01*
X57680776Y-70205218D01*
X57680778Y-70205218D01*
X57680781Y-70205220D01*
X57726839Y-70220185D01*
X57875465Y-70268477D01*
X57955586Y-70281167D01*
X58077648Y-70300500D01*
X58077649Y-70300500D01*
X58282351Y-70300500D01*
X58282352Y-70300500D01*
X58484534Y-70268477D01*
X58679219Y-70205220D01*
X58861610Y-70112287D01*
X58981063Y-70025500D01*
X59027213Y-69991971D01*
X59027215Y-69991968D01*
X59027219Y-69991966D01*
X59171966Y-69847219D01*
X59171968Y-69847215D01*
X59171971Y-69847213D01*
X59292284Y-69681614D01*
X59292286Y-69681611D01*
X59292287Y-69681610D01*
X59339516Y-69588917D01*
X59387489Y-69538123D01*
X59455310Y-69521328D01*
X59521445Y-69543865D01*
X59560483Y-69588917D01*
X59603320Y-69672989D01*
X59607715Y-69681614D01*
X59728028Y-69847213D01*
X59872786Y-69991971D01*
X60010928Y-70092335D01*
X60038390Y-70112287D01*
X60108948Y-70148238D01*
X60220776Y-70205218D01*
X60220778Y-70205218D01*
X60220781Y-70205220D01*
X60266839Y-70220185D01*
X60415465Y-70268477D01*
X60495586Y-70281167D01*
X60617648Y-70300500D01*
X60617649Y-70300500D01*
X60822351Y-70300500D01*
X60822352Y-70300500D01*
X61024534Y-70268477D01*
X61219219Y-70205220D01*
X61401610Y-70112287D01*
X61521063Y-70025500D01*
X61567213Y-69991971D01*
X61567215Y-69991968D01*
X61567219Y-69991966D01*
X61711966Y-69847219D01*
X61711968Y-69847215D01*
X61711971Y-69847213D01*
X61832284Y-69681614D01*
X61832286Y-69681611D01*
X61832287Y-69681610D01*
X61879795Y-69588369D01*
X61927770Y-69537574D01*
X61995591Y-69520779D01*
X62061725Y-69543316D01*
X62100765Y-69588370D01*
X62148140Y-69681349D01*
X62268417Y-69846894D01*
X62268417Y-69846895D01*
X62413104Y-69991582D01*
X62578650Y-70111859D01*
X62760968Y-70204754D01*
X62955578Y-70267988D01*
X63010000Y-70276607D01*
X63010000Y-69433012D01*
X63067007Y-69465925D01*
X63194174Y-69500000D01*
X63325826Y-69500000D01*
X63452993Y-69465925D01*
X63510000Y-69433012D01*
X63510000Y-70276606D01*
X63564421Y-70267988D01*
X63759031Y-70204754D01*
X63941349Y-70111859D01*
X64106894Y-69991582D01*
X64106895Y-69991582D01*
X64251582Y-69846895D01*
X64251582Y-69846894D01*
X64371861Y-69681347D01*
X64419234Y-69588371D01*
X64467208Y-69537575D01*
X64535028Y-69520779D01*
X64601164Y-69543316D01*
X64640203Y-69588369D01*
X64687713Y-69681611D01*
X64808028Y-69847213D01*
X64952786Y-69991971D01*
X65090928Y-70092335D01*
X65118390Y-70112287D01*
X65188948Y-70148238D01*
X65300776Y-70205218D01*
X65300778Y-70205218D01*
X65300781Y-70205220D01*
X65346839Y-70220185D01*
X65495465Y-70268477D01*
X65575586Y-70281167D01*
X65697648Y-70300500D01*
X65697649Y-70300500D01*
X65902351Y-70300500D01*
X65902352Y-70300500D01*
X66104534Y-70268477D01*
X66299219Y-70205220D01*
X66481610Y-70112287D01*
X66601063Y-70025500D01*
X66647213Y-69991971D01*
X66647215Y-69991968D01*
X66647219Y-69991966D01*
X66791966Y-69847219D01*
X66791968Y-69847215D01*
X66791971Y-69847213D01*
X66912284Y-69681614D01*
X66912286Y-69681611D01*
X66912287Y-69681610D01*
X66959516Y-69588917D01*
X67007489Y-69538123D01*
X67075310Y-69521328D01*
X67141445Y-69543865D01*
X67180483Y-69588917D01*
X67223320Y-69672989D01*
X67227715Y-69681614D01*
X67348028Y-69847213D01*
X67492786Y-69991971D01*
X67630928Y-70092335D01*
X67658390Y-70112287D01*
X67728948Y-70148238D01*
X67840776Y-70205218D01*
X67840778Y-70205218D01*
X67840781Y-70205220D01*
X67886839Y-70220185D01*
X68035465Y-70268477D01*
X68115586Y-70281167D01*
X68237648Y-70300500D01*
X68237649Y-70300500D01*
X68442351Y-70300500D01*
X68442352Y-70300500D01*
X68644534Y-70268477D01*
X68839219Y-70205220D01*
X69021610Y-70112287D01*
X69141063Y-70025500D01*
X69187213Y-69991971D01*
X69187215Y-69991968D01*
X69187219Y-69991966D01*
X69331966Y-69847219D01*
X69358330Y-69810930D01*
X69413658Y-69768265D01*
X69483271Y-69762284D01*
X69545067Y-69794889D01*
X69579426Y-69855726D01*
X69581938Y-69870559D01*
X69585907Y-69907480D01*
X69636202Y-70042328D01*
X69636206Y-70042335D01*
X69722452Y-70157544D01*
X69722455Y-70157547D01*
X69837664Y-70243793D01*
X69837671Y-70243797D01*
X69972517Y-70294091D01*
X69972516Y-70294091D01*
X69979444Y-70294835D01*
X70032127Y-70300500D01*
X71727872Y-70300499D01*
X71787483Y-70294091D01*
X71922331Y-70243796D01*
X72037546Y-70157546D01*
X72123796Y-70042331D01*
X72174091Y-69907483D01*
X72180500Y-69847873D01*
X72180499Y-68152128D01*
X72174091Y-68092517D01*
X72164983Y-68068098D01*
X72123797Y-67957671D01*
X72123793Y-67957664D01*
X72037547Y-67842455D01*
X72037544Y-67842452D01*
X71922335Y-67756206D01*
X71922328Y-67756202D01*
X71787482Y-67705908D01*
X71787483Y-67705908D01*
X71727883Y-67699501D01*
X71727881Y-67699500D01*
X71727873Y-67699500D01*
X71727864Y-67699500D01*
X70032129Y-67699500D01*
X70032123Y-67699501D01*
X69972516Y-67705908D01*
X69837671Y-67756202D01*
X69837664Y-67756206D01*
X69722455Y-67842452D01*
X69722452Y-67842455D01*
X69636206Y-67957664D01*
X69636202Y-67957671D01*
X69585908Y-68092516D01*
X69581939Y-68129440D01*
X69555201Y-68193991D01*
X69497809Y-68233839D01*
X69427983Y-68236332D01*
X69367895Y-68200679D01*
X69358332Y-68189070D01*
X69331967Y-68152782D01*
X69187213Y-68008028D01*
X69021613Y-67887715D01*
X69021612Y-67887714D01*
X69021610Y-67887713D01*
X68964653Y-67858691D01*
X68839223Y-67794781D01*
X68644534Y-67731522D01*
X68469995Y-67703878D01*
X68442352Y-67699500D01*
X68237648Y-67699500D01*
X68213329Y-67703351D01*
X68035465Y-67731522D01*
X67840776Y-67794781D01*
X67658386Y-67887715D01*
X67492786Y-68008028D01*
X67348028Y-68152786D01*
X67227715Y-68318386D01*
X67180485Y-68411080D01*
X67132510Y-68461876D01*
X67064689Y-68478671D01*
X66998554Y-68456134D01*
X66959515Y-68411080D01*
X66957031Y-68406205D01*
X66912287Y-68318390D01*
X66889905Y-68287583D01*
X66791971Y-68152786D01*
X66647213Y-68008028D01*
X66481613Y-67887715D01*
X66481612Y-67887714D01*
X66481610Y-67887713D01*
X66424653Y-67858691D01*
X66299223Y-67794781D01*
X66104534Y-67731522D01*
X65929995Y-67703878D01*
X65902352Y-67699500D01*
X65697648Y-67699500D01*
X65673329Y-67703351D01*
X65495465Y-67731522D01*
X65300776Y-67794781D01*
X65118386Y-67887715D01*
X64952786Y-68008028D01*
X64808028Y-68152786D01*
X64687713Y-68318388D01*
X64640203Y-68411630D01*
X64592228Y-68462426D01*
X64524407Y-68479220D01*
X64458272Y-68456682D01*
X64419234Y-68411628D01*
X64371861Y-68318652D01*
X64251582Y-68153105D01*
X64251582Y-68153104D01*
X64106895Y-68008417D01*
X63941349Y-67888140D01*
X63759029Y-67795244D01*
X63564413Y-67732009D01*
X63510000Y-67723390D01*
X63510000Y-68566988D01*
X63452993Y-68534075D01*
X63325826Y-68500000D01*
X63194174Y-68500000D01*
X63067007Y-68534075D01*
X63010000Y-68566988D01*
X63010000Y-67723390D01*
X62955586Y-67732009D01*
X62760970Y-67795244D01*
X62578650Y-67888140D01*
X62413105Y-68008417D01*
X62413104Y-68008417D01*
X62268417Y-68153104D01*
X62268417Y-68153105D01*
X62148140Y-68318650D01*
X62100765Y-68411629D01*
X62052790Y-68462425D01*
X61984969Y-68479220D01*
X61918834Y-68456682D01*
X61879795Y-68411629D01*
X61863585Y-68379815D01*
X61832287Y-68318390D01*
X61809905Y-68287583D01*
X61711971Y-68152786D01*
X61567213Y-68008028D01*
X61401613Y-67887715D01*
X61401612Y-67887714D01*
X61401610Y-67887713D01*
X61344653Y-67858691D01*
X61219223Y-67794781D01*
X61024534Y-67731522D01*
X60849995Y-67703878D01*
X60822352Y-67699500D01*
X60617648Y-67699500D01*
X60593329Y-67703351D01*
X60415465Y-67731522D01*
X60220776Y-67794781D01*
X60038386Y-67887715D01*
X59872786Y-68008028D01*
X59728028Y-68152786D01*
X59607715Y-68318386D01*
X59560485Y-68411080D01*
X59512510Y-68461876D01*
X59444689Y-68478671D01*
X59378554Y-68456134D01*
X59339515Y-68411080D01*
X59337031Y-68406205D01*
X59292287Y-68318390D01*
X59269905Y-68287583D01*
X59171971Y-68152786D01*
X59027213Y-68008028D01*
X58861613Y-67887715D01*
X58861612Y-67887714D01*
X58861610Y-67887713D01*
X58804653Y-67858691D01*
X58679223Y-67794781D01*
X58484534Y-67731522D01*
X58309995Y-67703878D01*
X58282352Y-67699500D01*
X58077648Y-67699500D01*
X58053329Y-67703351D01*
X57875465Y-67731522D01*
X57680776Y-67794781D01*
X57498386Y-67887715D01*
X57332786Y-68008028D01*
X57188028Y-68152786D01*
X57067715Y-68318386D01*
X57020485Y-68411080D01*
X56972510Y-68461876D01*
X56904689Y-68478671D01*
X56838554Y-68456134D01*
X56799515Y-68411080D01*
X56797031Y-68406205D01*
X56752287Y-68318390D01*
X56729905Y-68287583D01*
X56631971Y-68152786D01*
X56487213Y-68008028D01*
X56321613Y-67887715D01*
X56321612Y-67887714D01*
X56321610Y-67887713D01*
X56264653Y-67858691D01*
X56139223Y-67794781D01*
X55944534Y-67731522D01*
X55769995Y-67703878D01*
X55742352Y-67699500D01*
X55537648Y-67699500D01*
X55513329Y-67703351D01*
X55335465Y-67731522D01*
X55140776Y-67794781D01*
X54958386Y-67887715D01*
X54792786Y-68008028D01*
X54648028Y-68152786D01*
X54527715Y-68318386D01*
X54480485Y-68411080D01*
X54432510Y-68461876D01*
X54364689Y-68478671D01*
X54298554Y-68456134D01*
X54259515Y-68411080D01*
X54257031Y-68406205D01*
X54212287Y-68318390D01*
X54189905Y-68287583D01*
X54091971Y-68152786D01*
X53947213Y-68008028D01*
X53781613Y-67887715D01*
X53781612Y-67887714D01*
X53781610Y-67887713D01*
X53724653Y-67858691D01*
X53599223Y-67794781D01*
X53404534Y-67731522D01*
X53229995Y-67703878D01*
X53202352Y-67699500D01*
X52997648Y-67699500D01*
X52973329Y-67703351D01*
X52795465Y-67731522D01*
X52600776Y-67794781D01*
X52418386Y-67887715D01*
X52252786Y-68008028D01*
X52108028Y-68152786D01*
X51987715Y-68318386D01*
X51940485Y-68411080D01*
X51892510Y-68461876D01*
X51824689Y-68478671D01*
X51758554Y-68456134D01*
X51719515Y-68411080D01*
X51717031Y-68406205D01*
X51672287Y-68318390D01*
X51649905Y-68287583D01*
X51551971Y-68152786D01*
X51407213Y-68008028D01*
X51241613Y-67887715D01*
X51241612Y-67887714D01*
X51241610Y-67887713D01*
X51184653Y-67858691D01*
X51059223Y-67794781D01*
X50864534Y-67731522D01*
X50689995Y-67703878D01*
X50662352Y-67699500D01*
X50457648Y-67699500D01*
X50433329Y-67703351D01*
X50255465Y-67731522D01*
X50060776Y-67794781D01*
X49878386Y-67887715D01*
X49712786Y-68008028D01*
X49568028Y-68152786D01*
X49447715Y-68318386D01*
X49400485Y-68411080D01*
X49352510Y-68461876D01*
X49284689Y-68478671D01*
X49218554Y-68456134D01*
X49179515Y-68411080D01*
X49177031Y-68406205D01*
X49132287Y-68318390D01*
X49109905Y-68287583D01*
X49011971Y-68152786D01*
X48867213Y-68008028D01*
X48701613Y-67887715D01*
X48701612Y-67887714D01*
X48701610Y-67887713D01*
X48644653Y-67858691D01*
X48519223Y-67794781D01*
X48324534Y-67731522D01*
X48149995Y-67703878D01*
X48122352Y-67699500D01*
X47917648Y-67699500D01*
X47893329Y-67703351D01*
X47715465Y-67731522D01*
X47520776Y-67794781D01*
X47338386Y-67887715D01*
X47172786Y-68008028D01*
X47028028Y-68152786D01*
X46907715Y-68318386D01*
X46860485Y-68411080D01*
X46812510Y-68461876D01*
X46744689Y-68478671D01*
X46678554Y-68456134D01*
X46639515Y-68411080D01*
X46637031Y-68406205D01*
X46592287Y-68318390D01*
X46569905Y-68287583D01*
X46471971Y-68152786D01*
X46327213Y-68008028D01*
X46161613Y-67887715D01*
X46161612Y-67887714D01*
X46161610Y-67887713D01*
X46104653Y-67858691D01*
X45979223Y-67794781D01*
X45784534Y-67731522D01*
X45609995Y-67703878D01*
X45582352Y-67699500D01*
X45377648Y-67699500D01*
X45353329Y-67703351D01*
X45175465Y-67731522D01*
X44980776Y-67794781D01*
X44798386Y-67887715D01*
X44632786Y-68008028D01*
X44488028Y-68152786D01*
X44367715Y-68318386D01*
X44320485Y-68411080D01*
X44272510Y-68461876D01*
X44204689Y-68478671D01*
X44138554Y-68456134D01*
X44099515Y-68411080D01*
X44097031Y-68406205D01*
X44052287Y-68318390D01*
X44029905Y-68287583D01*
X43931971Y-68152786D01*
X43787213Y-68008028D01*
X43621613Y-67887715D01*
X43621612Y-67887714D01*
X43621610Y-67887713D01*
X43564653Y-67858691D01*
X43439223Y-67794781D01*
X43244534Y-67731522D01*
X43069995Y-67703878D01*
X43042352Y-67699500D01*
X42837648Y-67699500D01*
X42813329Y-67703351D01*
X42635465Y-67731522D01*
X42440776Y-67794781D01*
X42258386Y-67887715D01*
X42092786Y-68008028D01*
X41948028Y-68152786D01*
X41827715Y-68318386D01*
X41780485Y-68411080D01*
X41732510Y-68461876D01*
X41664689Y-68478671D01*
X41598554Y-68456134D01*
X41559515Y-68411080D01*
X41557031Y-68406205D01*
X41512287Y-68318390D01*
X41489905Y-68287583D01*
X41391971Y-68152786D01*
X41247213Y-68008028D01*
X41081613Y-67887715D01*
X41081612Y-67887714D01*
X41081610Y-67887713D01*
X41024653Y-67858691D01*
X40899223Y-67794781D01*
X40704534Y-67731522D01*
X40529995Y-67703878D01*
X40502352Y-67699500D01*
X40297648Y-67699500D01*
X40273329Y-67703351D01*
X40095465Y-67731522D01*
X39900776Y-67794781D01*
X39718386Y-67887715D01*
X39552786Y-68008028D01*
X39408028Y-68152786D01*
X39287715Y-68318386D01*
X39240485Y-68411080D01*
X39192510Y-68461876D01*
X39124689Y-68478671D01*
X39058554Y-68456134D01*
X39019515Y-68411080D01*
X39017031Y-68406205D01*
X38972287Y-68318390D01*
X38949905Y-68287583D01*
X38851971Y-68152786D01*
X38707213Y-68008028D01*
X38541613Y-67887715D01*
X38541612Y-67887714D01*
X38541610Y-67887713D01*
X38484653Y-67858691D01*
X38359223Y-67794781D01*
X38164534Y-67731522D01*
X37989995Y-67703878D01*
X37962352Y-67699500D01*
X37769096Y-67699500D01*
X37702057Y-67679815D01*
X37656302Y-67627011D01*
X37646358Y-67557853D01*
X37675383Y-67494297D01*
X37681415Y-67487819D01*
X38246346Y-66922889D01*
X39032416Y-66136819D01*
X39093739Y-66103334D01*
X39120097Y-66100500D01*
X50663331Y-66100500D01*
X50663347Y-66100501D01*
X50670943Y-66100501D01*
X50829054Y-66100501D01*
X50829057Y-66100501D01*
X50981785Y-66059577D01*
X51031904Y-66030639D01*
X51118716Y-65980520D01*
X51230520Y-65868716D01*
X51230520Y-65868714D01*
X51240728Y-65858507D01*
X51240729Y-65858504D01*
X53772181Y-63327053D01*
X53833502Y-63293570D01*
X53884053Y-63293119D01*
X53921157Y-63300500D01*
X53921158Y-63300500D01*
X54078844Y-63300500D01*
X54078845Y-63300499D01*
X54233497Y-63269737D01*
X54379179Y-63209394D01*
X54510289Y-63121789D01*
X54621789Y-63010289D01*
X54709394Y-62879179D01*
X54711222Y-62874767D01*
X54723067Y-62846166D01*
X54769737Y-62733497D01*
X54800500Y-62578842D01*
X54800500Y-62421158D01*
X54800500Y-62421155D01*
X54800499Y-62421153D01*
X54794790Y-62392452D01*
X54769737Y-62266503D01*
X54765349Y-62255909D01*
X54709397Y-62120827D01*
X54709390Y-62120814D01*
X54621789Y-61989711D01*
X54621786Y-61989707D01*
X54510292Y-61878213D01*
X54510288Y-61878210D01*
X54379185Y-61790609D01*
X54379172Y-61790602D01*
X54233501Y-61730264D01*
X54233489Y-61730261D01*
X54078845Y-61699500D01*
X54078842Y-61699500D01*
X53921158Y-61699500D01*
X53921155Y-61699500D01*
X53766510Y-61730261D01*
X53766498Y-61730264D01*
X53620827Y-61790602D01*
X53620814Y-61790609D01*
X53489711Y-61878210D01*
X53489707Y-61878213D01*
X53378217Y-61989704D01*
X53378214Y-61989706D01*
X53318860Y-62078534D01*
X53303440Y-62097322D01*
X51456593Y-63944171D01*
X51395270Y-63977656D01*
X51325579Y-63972672D01*
X51269645Y-63930800D01*
X51245228Y-63865336D01*
X51245623Y-63843235D01*
X51247130Y-63829218D01*
X51250500Y-63797873D01*
X51250499Y-62702128D01*
X51244091Y-62642517D01*
X51241725Y-62636174D01*
X51193797Y-62507671D01*
X51193793Y-62507664D01*
X51107547Y-62392455D01*
X51107544Y-62392452D01*
X50992335Y-62306206D01*
X50992328Y-62306202D01*
X50857482Y-62255908D01*
X50857483Y-62255908D01*
X50797883Y-62249501D01*
X50797881Y-62249500D01*
X50797873Y-62249500D01*
X50797864Y-62249500D01*
X47502129Y-62249500D01*
X47502123Y-62249501D01*
X47442516Y-62255908D01*
X47307671Y-62306202D01*
X47307664Y-62306206D01*
X47192455Y-62392452D01*
X47192452Y-62392455D01*
X47106206Y-62507664D01*
X47106202Y-62507671D01*
X47083391Y-62568833D01*
X47070121Y-62586559D01*
X47060922Y-62606703D01*
X47049591Y-62613984D01*
X47041520Y-62624767D01*
X47020771Y-62632505D01*
X47002144Y-62644477D01*
X46980227Y-62647628D01*
X46976056Y-62649184D01*
X46967209Y-62649500D01*
X46800097Y-62649500D01*
X46733058Y-62629815D01*
X46712416Y-62613181D01*
X46584574Y-62485339D01*
X46551089Y-62424016D01*
X46550638Y-62421849D01*
X46525165Y-62293793D01*
X46519737Y-62266503D01*
X46515349Y-62255909D01*
X46459397Y-62120827D01*
X46459390Y-62120814D01*
X46371789Y-61989711D01*
X46371786Y-61989707D01*
X46260292Y-61878213D01*
X46260288Y-61878210D01*
X46129185Y-61790609D01*
X46129172Y-61790602D01*
X45983501Y-61730264D01*
X45983489Y-61730261D01*
X45828845Y-61699500D01*
X45828842Y-61699500D01*
X45671158Y-61699500D01*
X45671155Y-61699500D01*
X45516510Y-61730261D01*
X45516498Y-61730264D01*
X45370827Y-61790602D01*
X45370814Y-61790609D01*
X45239711Y-61878210D01*
X45239707Y-61878213D01*
X45128213Y-61989707D01*
X45128210Y-61989711D01*
X45040609Y-62120814D01*
X45040602Y-62120827D01*
X44980264Y-62266498D01*
X44980261Y-62266508D01*
X44949361Y-62421850D01*
X44940595Y-62438607D01*
X44936576Y-62457084D01*
X44917831Y-62482125D01*
X44916976Y-62483761D01*
X44915426Y-62485339D01*
X44787582Y-62613182D01*
X44726262Y-62646666D01*
X44699903Y-62649500D01*
X44532791Y-62649500D01*
X44465752Y-62629815D01*
X44419997Y-62577011D01*
X44416609Y-62568833D01*
X44393797Y-62507671D01*
X44393793Y-62507664D01*
X44307547Y-62392455D01*
X44307544Y-62392452D01*
X44192335Y-62306206D01*
X44192328Y-62306202D01*
X44057482Y-62255908D01*
X44057483Y-62255908D01*
X43997883Y-62249501D01*
X43997881Y-62249500D01*
X43997873Y-62249500D01*
X43997864Y-62249500D01*
X40702129Y-62249500D01*
X40702123Y-62249501D01*
X40642516Y-62255908D01*
X40507671Y-62306202D01*
X40507664Y-62306206D01*
X40392455Y-62392452D01*
X40392452Y-62392455D01*
X40306206Y-62507664D01*
X40306202Y-62507671D01*
X40255908Y-62642517D01*
X40251038Y-62687819D01*
X40249501Y-62702123D01*
X40249500Y-62702135D01*
X40249500Y-63797870D01*
X40249501Y-63797876D01*
X40255908Y-63857483D01*
X40306202Y-63992328D01*
X40306206Y-63992335D01*
X40392452Y-64107544D01*
X40392455Y-64107547D01*
X40507664Y-64193793D01*
X40507671Y-64193797D01*
X40642517Y-64244091D01*
X40642516Y-64244091D01*
X40649444Y-64244835D01*
X40702127Y-64250500D01*
X43997872Y-64250499D01*
X44057483Y-64244091D01*
X44192331Y-64193796D01*
X44307546Y-64107546D01*
X44393796Y-63992331D01*
X44411516Y-63944821D01*
X44416609Y-63931167D01*
X44458480Y-63875233D01*
X44523944Y-63850816D01*
X44532791Y-63850500D01*
X44913331Y-63850500D01*
X44913347Y-63850501D01*
X44920943Y-63850501D01*
X45079054Y-63850501D01*
X45079057Y-63850501D01*
X45231785Y-63809577D01*
X45301233Y-63769481D01*
X45368716Y-63730520D01*
X45480520Y-63618716D01*
X45480520Y-63618714D01*
X45490723Y-63608512D01*
X45490727Y-63608506D01*
X45662321Y-63436912D01*
X45723641Y-63403430D01*
X45793333Y-63408414D01*
X45837680Y-63436915D01*
X46015139Y-63614374D01*
X46015149Y-63614385D01*
X46019479Y-63618715D01*
X46019480Y-63618716D01*
X46131284Y-63730520D01*
X46198767Y-63769481D01*
X46268215Y-63809577D01*
X46420943Y-63850500D01*
X46579057Y-63850500D01*
X46967209Y-63850500D01*
X47034248Y-63870185D01*
X47080003Y-63922989D01*
X47083391Y-63931167D01*
X47106202Y-63992328D01*
X47106206Y-63992335D01*
X47192452Y-64107544D01*
X47192455Y-64107547D01*
X47307664Y-64193793D01*
X47307671Y-64193797D01*
X47442517Y-64244091D01*
X47442516Y-64244091D01*
X47449444Y-64244835D01*
X47502127Y-64250500D01*
X50797872Y-64250499D01*
X50843237Y-64245622D01*
X50911995Y-64258028D01*
X50963132Y-64305639D01*
X50980411Y-64373338D01*
X50958346Y-64439632D01*
X50944171Y-64456593D01*
X50537584Y-64863181D01*
X50476261Y-64896666D01*
X50449903Y-64899500D01*
X38740940Y-64899500D01*
X38700019Y-64910464D01*
X38700019Y-64910465D01*
X38668790Y-64918833D01*
X38588214Y-64940423D01*
X38588209Y-64940426D01*
X38451290Y-65019475D01*
X38451282Y-65019481D01*
X38339478Y-65131286D01*
X35764842Y-67705921D01*
X35703519Y-67739406D01*
X35638848Y-67736173D01*
X35624534Y-67731522D01*
X35449995Y-67703878D01*
X35422352Y-67699500D01*
X35217648Y-67699500D01*
X35193329Y-67703351D01*
X35015465Y-67731522D01*
X34820776Y-67794781D01*
X34638386Y-67887715D01*
X34472786Y-68008028D01*
X34328028Y-68152786D01*
X34207715Y-68318386D01*
X34114781Y-68500776D01*
X34051522Y-68695465D01*
X34019500Y-68897648D01*
X29250500Y-68897648D01*
X29250500Y-52374500D01*
X29270185Y-52307461D01*
X29322989Y-52261706D01*
X29374500Y-52250500D01*
X34974352Y-52250500D01*
X35041391Y-52270185D01*
G37*
%TD.AperFunction*%
%TA.AperFunction,Conductor*%
G36*
X244866942Y-59970185D02*
G01*
X244887584Y-59986819D01*
X245363181Y-60462416D01*
X245396666Y-60523739D01*
X245399500Y-60550097D01*
X245399500Y-71199902D01*
X245379815Y-71266941D01*
X245363181Y-71287583D01*
X244631284Y-72019480D01*
X242138584Y-74512181D01*
X242077261Y-74545666D01*
X242050903Y-74548500D01*
X241350097Y-74548500D01*
X241283058Y-74528815D01*
X241237303Y-74476011D01*
X241227359Y-74406853D01*
X241256384Y-74343297D01*
X241262416Y-74336819D01*
X241742949Y-73856286D01*
X243368713Y-72230521D01*
X243368716Y-72230520D01*
X243480520Y-72118716D01*
X243530639Y-72031904D01*
X243559577Y-71981785D01*
X243600501Y-71829057D01*
X243600501Y-71670943D01*
X243600501Y-71663348D01*
X243600500Y-71663330D01*
X243600500Y-65804067D01*
X243620185Y-65737028D01*
X243668205Y-65693582D01*
X243786433Y-65633343D01*
X243977510Y-65494517D01*
X244144517Y-65327510D01*
X244283343Y-65136433D01*
X244390568Y-64925992D01*
X244463553Y-64701368D01*
X244472874Y-64642517D01*
X244500500Y-64468097D01*
X244500500Y-64231902D01*
X244463553Y-63998631D01*
X244423458Y-63875233D01*
X244390568Y-63774008D01*
X244390566Y-63774005D01*
X244390566Y-63774003D01*
X244319707Y-63634935D01*
X244283343Y-63563567D01*
X244144517Y-63372490D01*
X243977510Y-63205483D01*
X243921259Y-63164614D01*
X243878595Y-63109284D01*
X243873902Y-63077455D01*
X243129408Y-62332962D01*
X243192993Y-62315925D01*
X243307007Y-62250099D01*
X243400099Y-62157007D01*
X243465925Y-62042993D01*
X243482962Y-61979409D01*
X244222658Y-62719105D01*
X244222658Y-62719104D01*
X244282914Y-62636169D01*
X244282918Y-62636163D01*
X244390102Y-62425802D01*
X244463065Y-62201247D01*
X244500000Y-61968052D01*
X244500000Y-61731947D01*
X244463065Y-61498752D01*
X244390102Y-61274197D01*
X244282914Y-61063828D01*
X244213394Y-60968142D01*
X244189914Y-60902335D01*
X244205739Y-60834281D01*
X244239401Y-60795989D01*
X244242329Y-60793796D01*
X244242331Y-60793796D01*
X244357546Y-60707546D01*
X244443796Y-60592331D01*
X244494091Y-60457483D01*
X244500500Y-60397873D01*
X244500500Y-60074500D01*
X244503050Y-60065814D01*
X244501762Y-60056853D01*
X244512740Y-60032812D01*
X244520185Y-60007461D01*
X244527025Y-60001533D01*
X244530787Y-59993297D01*
X244553021Y-59979007D01*
X244572989Y-59961706D01*
X244583503Y-59959418D01*
X244589565Y-59955523D01*
X244624500Y-59950500D01*
X244799903Y-59950500D01*
X244866942Y-59970185D01*
G37*
%TD.AperFunction*%
%TA.AperFunction,Conductor*%
G36*
X62061445Y-54303865D02*
G01*
X62100483Y-54348917D01*
X62136108Y-54418833D01*
X62147715Y-54441614D01*
X62268028Y-54607213D01*
X62412786Y-54751971D01*
X62540762Y-54844949D01*
X62578390Y-54872287D01*
X62674295Y-54921153D01*
X62760776Y-54965218D01*
X62760778Y-54965218D01*
X62760781Y-54965220D01*
X62794762Y-54976261D01*
X62955465Y-55028477D01*
X62984119Y-55033015D01*
X63044897Y-55042641D01*
X63108031Y-55072570D01*
X63144963Y-55131881D01*
X63149499Y-55165114D01*
X63149499Y-55329054D01*
X63149498Y-55329054D01*
X63149499Y-55329057D01*
X63190423Y-55481785D01*
X63190424Y-55481787D01*
X63190423Y-55481787D01*
X63203986Y-55505277D01*
X63203987Y-55505279D01*
X63269475Y-55618709D01*
X63269481Y-55618717D01*
X63388349Y-55737585D01*
X63388355Y-55737590D01*
X64515139Y-56864374D01*
X64515149Y-56864385D01*
X64519479Y-56868715D01*
X64519480Y-56868716D01*
X64631284Y-56980520D01*
X64716169Y-57029528D01*
X64716170Y-57029529D01*
X64768209Y-57059574D01*
X64768210Y-57059575D01*
X64768212Y-57059575D01*
X64768215Y-57059577D01*
X64920943Y-57100501D01*
X64920946Y-57100501D01*
X65086653Y-57100501D01*
X65086669Y-57100500D01*
X67949903Y-57100500D01*
X67979343Y-57109144D01*
X68009330Y-57115668D01*
X68014345Y-57119422D01*
X68016942Y-57120185D01*
X68037584Y-57136819D01*
X68051365Y-57150600D01*
X68084850Y-57211923D01*
X68079866Y-57281615D01*
X68066787Y-57307171D01*
X67991343Y-57420081D01*
X67991337Y-57420092D01*
X67930999Y-57565763D01*
X67930996Y-57565775D01*
X67900235Y-57720418D01*
X67900235Y-57878111D01*
X67930996Y-58032754D01*
X67930999Y-58032766D01*
X67991337Y-58178437D01*
X67991344Y-58178450D01*
X68078945Y-58309553D01*
X68078948Y-58309557D01*
X68095425Y-58326034D01*
X68127518Y-58381620D01*
X68141155Y-58432513D01*
X68141159Y-58432523D01*
X68168722Y-58480264D01*
X68168723Y-58480264D01*
X68220212Y-58569447D01*
X68220216Y-58569452D01*
X68339084Y-58688320D01*
X68339090Y-58688325D01*
X68588583Y-58937818D01*
X68599193Y-58957250D01*
X68613696Y-58973986D01*
X68615613Y-58987319D01*
X68622068Y-58999141D01*
X68620488Y-59021226D01*
X68623640Y-59043145D01*
X68618044Y-59055397D01*
X68617084Y-59068833D01*
X68603814Y-59086558D01*
X68594616Y-59106701D01*
X68583283Y-59113984D01*
X68575212Y-59124766D01*
X68554467Y-59132503D01*
X68535838Y-59144476D01*
X68513918Y-59147627D01*
X68509748Y-59149183D01*
X68500903Y-59149499D01*
X68420943Y-59149499D01*
X68420939Y-59149499D01*
X68413332Y-59149500D01*
X68413331Y-59149499D01*
X68413331Y-59149500D01*
X61930097Y-59149500D01*
X61863058Y-59129815D01*
X61842416Y-59113181D01*
X58001416Y-55272181D01*
X57967931Y-55210858D01*
X57972915Y-55141166D01*
X58014787Y-55085233D01*
X58080251Y-55060816D01*
X58089097Y-55060500D01*
X58282351Y-55060500D01*
X58282352Y-55060500D01*
X58484534Y-55028477D01*
X58679219Y-54965220D01*
X58861610Y-54872287D01*
X59002758Y-54769738D01*
X59027213Y-54751971D01*
X59027215Y-54751968D01*
X59027219Y-54751966D01*
X59171966Y-54607219D01*
X59171968Y-54607215D01*
X59171971Y-54607213D01*
X59292284Y-54441614D01*
X59292286Y-54441611D01*
X59292287Y-54441610D01*
X59339516Y-54348917D01*
X59387489Y-54298123D01*
X59455310Y-54281328D01*
X59521445Y-54303865D01*
X59560483Y-54348917D01*
X59596108Y-54418833D01*
X59607715Y-54441614D01*
X59728028Y-54607213D01*
X59872786Y-54751971D01*
X60000762Y-54844949D01*
X60038390Y-54872287D01*
X60134295Y-54921153D01*
X60220776Y-54965218D01*
X60220778Y-54965218D01*
X60220781Y-54965220D01*
X60254762Y-54976261D01*
X60415465Y-55028477D01*
X60516557Y-55044488D01*
X60617648Y-55060500D01*
X60617649Y-55060500D01*
X60822351Y-55060500D01*
X60822352Y-55060500D01*
X61024534Y-55028477D01*
X61219219Y-54965220D01*
X61401610Y-54872287D01*
X61542758Y-54769738D01*
X61567213Y-54751971D01*
X61567215Y-54751968D01*
X61567219Y-54751966D01*
X61711966Y-54607219D01*
X61711968Y-54607215D01*
X61711971Y-54607213D01*
X61832284Y-54441614D01*
X61832286Y-54441611D01*
X61832287Y-54441610D01*
X61879516Y-54348917D01*
X61927489Y-54298123D01*
X61995310Y-54281328D01*
X62061445Y-54303865D01*
G37*
%TD.AperFunction*%
%TD*%
M02*
