%TF.GenerationSoftware,KiCad,Pcbnew,9.0.6*%
%TF.CreationDate,2026-03-25T19:26:48-07:00*%
%TF.ProjectId,Sidebar,53696465-6261-4722-9e6b-696361645f70,rev?*%
%TF.SameCoordinates,Original*%
%TF.FileFunction,Copper,L2,Bot*%
%TF.FilePolarity,Positive*%
%FSLAX46Y46*%
G04 Gerber Fmt 4.6, Leading zero omitted, Abs format (unit mm)*
G04 Created by KiCad (PCBNEW 9.0.6) date 2026-03-25 19:26:48*
%MOMM*%
%LPD*%
G01*
G04 APERTURE LIST*
G04 Aperture macros list*
%AMRoundRect*
0 Rectangle with rounded corners*
0 $1 Rounding radius*
0 $2 $3 $4 $5 $6 $7 $8 $9 X,Y pos of 4 corners*
0 Add a 4 corners polygon primitive as box body*
4,1,4,$2,$3,$4,$5,$6,$7,$8,$9,$2,$3,0*
0 Add four circle primitives for the rounded corners*
1,1,$1+$1,$2,$3*
1,1,$1+$1,$4,$5*
1,1,$1+$1,$6,$7*
1,1,$1+$1,$8,$9*
0 Add four rect primitives between the rounded corners*
20,1,$1+$1,$2,$3,$4,$5,0*
20,1,$1+$1,$4,$5,$6,$7,0*
20,1,$1+$1,$6,$7,$8,$9,0*
20,1,$1+$1,$8,$9,$2,$3,0*%
G04 Aperture macros list end*
%TA.AperFunction,ComponentPad*%
%ADD10R,2.000000X2.000000*%
%TD*%
%TA.AperFunction,ComponentPad*%
%ADD11C,2.000000*%
%TD*%
%TA.AperFunction,ComponentPad*%
%ADD12R,3.200000X2.000000*%
%TD*%
%TA.AperFunction,SMDPad,CuDef*%
%ADD13RoundRect,0.250000X0.450000X-0.262500X0.450000X0.262500X-0.450000X0.262500X-0.450000X-0.262500X0*%
%TD*%
%TA.AperFunction,ComponentPad*%
%ADD14R,1.600000X1.600000*%
%TD*%
%TA.AperFunction,ComponentPad*%
%ADD15O,1.600000X1.600000*%
%TD*%
%TA.AperFunction,SMDPad,CuDef*%
%ADD16RoundRect,0.250000X-1.950000X-1.000000X1.950000X-1.000000X1.950000X1.000000X-1.950000X1.000000X0*%
%TD*%
%TA.AperFunction,SMDPad,CuDef*%
%ADD17RoundRect,0.225000X0.375000X-0.225000X0.375000X0.225000X-0.375000X0.225000X-0.375000X-0.225000X0*%
%TD*%
%TA.AperFunction,SMDPad,CuDef*%
%ADD18RoundRect,0.250000X-0.850000X-0.350000X0.850000X-0.350000X0.850000X0.350000X-0.850000X0.350000X0*%
%TD*%
%TA.AperFunction,SMDPad,CuDef*%
%ADD19RoundRect,0.249997X-2.950003X-2.650003X2.950003X-2.650003X2.950003X2.650003X-2.950003X2.650003X0*%
%TD*%
%TA.AperFunction,ComponentPad*%
%ADD20C,3.516000*%
%TD*%
%TA.AperFunction,ComponentPad*%
%ADD21C,1.803400*%
%TD*%
%TA.AperFunction,SMDPad,CuDef*%
%ADD22RoundRect,0.225000X-0.375000X0.225000X-0.375000X-0.225000X0.375000X-0.225000X0.375000X0.225000X0*%
%TD*%
%TA.AperFunction,SMDPad,CuDef*%
%ADD23RoundRect,0.225000X0.225000X0.375000X-0.225000X0.375000X-0.225000X-0.375000X0.225000X-0.375000X0*%
%TD*%
%TA.AperFunction,SMDPad,CuDef*%
%ADD24RoundRect,0.250000X-0.450000X0.262500X-0.450000X-0.262500X0.450000X-0.262500X0.450000X0.262500X0*%
%TD*%
%TA.AperFunction,SMDPad,CuDef*%
%ADD25RoundRect,0.250000X0.250000X2.500000X-0.250000X2.500000X-0.250000X-2.500000X0.250000X-2.500000X0*%
%TD*%
%TA.AperFunction,SMDPad,CuDef*%
%ADD26RoundRect,0.250000X0.550000X1.250000X-0.550000X1.250000X-0.550000X-1.250000X0.550000X-1.250000X0*%
%TD*%
%TA.AperFunction,SMDPad,CuDef*%
%ADD27RoundRect,0.135000X-0.185000X0.135000X-0.185000X-0.135000X0.185000X-0.135000X0.185000X0.135000X0*%
%TD*%
%TA.AperFunction,SMDPad,CuDef*%
%ADD28RoundRect,0.135000X0.185000X-0.135000X0.185000X0.135000X-0.185000X0.135000X-0.185000X-0.135000X0*%
%TD*%
%TA.AperFunction,ComponentPad*%
%ADD29R,4.000000X2.000000*%
%TD*%
%TA.AperFunction,ComponentPad*%
%ADD30O,3.300000X2.000000*%
%TD*%
%TA.AperFunction,ComponentPad*%
%ADD31O,2.000000X3.500000*%
%TD*%
%TA.AperFunction,SMDPad,CuDef*%
%ADD32RoundRect,0.250000X1.950000X1.000000X-1.950000X1.000000X-1.950000X-1.000000X1.950000X-1.000000X0*%
%TD*%
%TA.AperFunction,ViaPad*%
%ADD33C,0.600000*%
%TD*%
%TA.AperFunction,ViaPad*%
%ADD34C,1.500000*%
%TD*%
%TA.AperFunction,ViaPad*%
%ADD35C,2.000000*%
%TD*%
%TA.AperFunction,Conductor*%
%ADD36C,0.200000*%
%TD*%
%TA.AperFunction,Conductor*%
%ADD37C,1.500000*%
%TD*%
%TA.AperFunction,Conductor*%
%ADD38C,0.660400*%
%TD*%
%TA.AperFunction,Conductor*%
%ADD39C,5.000000*%
%TD*%
%TA.AperFunction,Conductor*%
%ADD40C,2.000000*%
%TD*%
G04 APERTURE END LIST*
D10*
%TO.P,Volume1,A,A*%
%TO.N,RE1*%
X224500000Y-59350000D03*
D11*
%TO.P,Volume1,B,B*%
%TO.N,RE2*%
X224500000Y-64350000D03*
%TO.P,Volume1,C,C*%
%TO.N,GND*%
X224500000Y-61850000D03*
D12*
%TO.P,Volume1,MP*%
%TO.N,N/C*%
X232000000Y-56250000D03*
X232000000Y-67450000D03*
D11*
%TO.P,Volume1,S1*%
X239000000Y-64350000D03*
%TO.P,Volume1,S2*%
X239000000Y-59350000D03*
%TD*%
D10*
%TO.P,AudioSpeed1,A,A*%
%TO.N,AS1*%
X243000000Y-59350000D03*
D11*
%TO.P,AudioSpeed1,B,B*%
%TO.N,AS2*%
X243000000Y-64350000D03*
%TO.P,AudioSpeed1,C,C*%
%TO.N,GND*%
X243000000Y-61850000D03*
D12*
%TO.P,AudioSpeed1,MP*%
%TO.N,N/C*%
X250500000Y-56250000D03*
X250500000Y-67450000D03*
D11*
%TO.P,AudioSpeed1,S1*%
X257500000Y-64350000D03*
%TO.P,AudioSpeed1,S2*%
X257500000Y-59350000D03*
%TD*%
D13*
%TO.P,1kR1,1*%
%TO.N,Net-(Q1-G)*%
X129500000Y-56412500D03*
%TO.P,1kR1,2*%
%TO.N,D12_mosfet*%
X129500000Y-54587500D03*
%TD*%
D14*
%TO.P,A1,1,D1/TX*%
%TO.N,unconnected-(A1-D1{slash}TX-Pad1)*%
X70880000Y-69000000D03*
D15*
%TO.P,A1,2,D0/RX*%
%TO.N,unconnected-(A1-D0{slash}RX-Pad2)*%
X68340000Y-69000000D03*
%TO.P,A1,3,~{RESET}*%
%TO.N,unconnected-(A1-~{RESET}-Pad3)*%
X65800000Y-69000000D03*
%TO.P,A1,4,GND*%
%TO.N,GND*%
X63260000Y-69000000D03*
%TO.P,A1,5,D2*%
%TO.N,RE1*%
X60720000Y-69000000D03*
%TO.P,A1,6,D3*%
%TO.N,RE2*%
X58180000Y-69000000D03*
%TO.P,A1,7,D4*%
%TO.N,AS1*%
X55640000Y-69000000D03*
%TO.P,A1,8,D5*%
%TO.N,PWM1*%
X53100000Y-69000000D03*
%TO.P,A1,9,D6*%
%TO.N,AS2*%
X50560000Y-69000000D03*
%TO.P,A1,10,D7*%
%TO.N,Row1*%
X48020000Y-69000000D03*
%TO.P,A1,11,D8*%
%TO.N,Row2*%
X45480000Y-69000000D03*
%TO.P,A1,12,D9*%
%TO.N,PWM2*%
X42940000Y-69000000D03*
%TO.P,A1,13,D10*%
%TO.N,Row3*%
X40400000Y-69000000D03*
%TO.P,A1,14,D11*%
%TO.N,Row4*%
X37860000Y-69000000D03*
%TO.P,A1,15,D12*%
%TO.N,D12_mosfet*%
X35320000Y-69000000D03*
%TO.P,A1,16,D13*%
%TO.N,unconnected-(A1-D13-Pad16)*%
X35320000Y-53760000D03*
%TO.P,A1,17,3V3*%
%TO.N,unconnected-(A1-3V3-Pad17)*%
X37860000Y-53760000D03*
%TO.P,A1,18,AREF*%
%TO.N,unconnected-(A1-AREF-Pad18)*%
X40400000Y-53760000D03*
%TO.P,A1,19,A0*%
%TO.N,Col1*%
X42940000Y-53760000D03*
%TO.P,A1,20,A1*%
%TO.N,Col2*%
X45480000Y-53760000D03*
%TO.P,A1,21,A2*%
%TO.N,Col3*%
X48020000Y-53760000D03*
%TO.P,A1,22,A3*%
%TO.N,unconnected-(A1-A3-Pad22)*%
X50560000Y-53760000D03*
%TO.P,A1,23,A4*%
%TO.N,SDA*%
X53100000Y-53760000D03*
%TO.P,A1,24,A5*%
%TO.N,SCL*%
X55640000Y-53760000D03*
%TO.P,A1,25,A6*%
%TO.N,unconnected-(A1-A6-Pad25)*%
X58180000Y-53760000D03*
%TO.P,A1,26,A7*%
%TO.N,unconnected-(A1-A7-Pad26)*%
X60720000Y-53760000D03*
%TO.P,A1,27,+5V*%
%TO.N,5V*%
X63260000Y-53760000D03*
%TO.P,A1,28,~{RESET}*%
%TO.N,unconnected-(A1-~{RESET}-Pad28)*%
X65800000Y-53760000D03*
%TO.P,A1,29,GND*%
%TO.N,GND*%
X68340000Y-53760000D03*
%TO.P,A1,30,VIN*%
%TO.N,unconnected-(A1-VIN-Pad30)*%
X70880000Y-53760000D03*
%TD*%
D16*
%TO.P,1000uf25V2,1*%
%TO.N,Net-(J2-Pin_2)*%
X200550000Y-62600000D03*
%TO.P,1000uf25V2,2*%
%TO.N,GND*%
X208950000Y-62600000D03*
%TD*%
D17*
%TO.P,D8,1,K*%
%TO.N,Row4*%
X213000000Y-58250000D03*
%TO.P,D8,2,A*%
%TO.N,Net-(D8-A)*%
X213000000Y-54950000D03*
%TD*%
D18*
%TO.P,Q1,1,D*%
%TO.N,Net-(J2-Pin_2)*%
X116300000Y-58707500D03*
%TO.P,Q1,2,G*%
%TO.N,Net-(Q1-G)*%
X116300000Y-56427500D03*
D19*
X122600000Y-56427500D03*
D18*
%TO.P,Q1,3,S*%
%TO.N,Net-(Q1-S)*%
X116300000Y-54147500D03*
%TD*%
D20*
%TO.P,Fuse1,1*%
%TO.N,Net-(100kR1-Pad2)*%
X106250000Y-63250000D03*
%TO.P,Fuse1,2*%
%TO.N,Net-(Q1-S)*%
X96250000Y-63250000D03*
%TD*%
D21*
%TO.P,J2,1,Pin_1*%
%TO.N,GND*%
X118000000Y-67950001D03*
%TO.P,J2,2,Pin_2*%
%TO.N,Net-(J2-Pin_2)*%
X123000000Y-67950001D03*
%TD*%
D22*
%TO.P,D9,1,K*%
%TO.N,Row1*%
X162250000Y-60600000D03*
%TO.P,D9,2,A*%
%TO.N,Net-(D9-A)*%
X162250000Y-63900000D03*
%TD*%
%TO.P,D10,1,K*%
%TO.N,Row2*%
X163750000Y-53600000D03*
%TO.P,D10,2,A*%
%TO.N,Net-(D10-A)*%
X163750000Y-56900000D03*
%TD*%
D23*
%TO.P,D5,1,K*%
%TO.N,Row1*%
X46400000Y-73750000D03*
%TO.P,D5,2,A*%
%TO.N,Net-(D5-A)*%
X43100000Y-73750000D03*
%TD*%
D24*
%TO.P,100kR1,1*%
%TO.N,Net-(Q1-G)*%
X134500000Y-54337500D03*
%TO.P,100kR1,2*%
%TO.N,Net-(100kR1-Pad2)*%
X134500000Y-56162500D03*
%TD*%
D17*
%TO.P,D6,1,K*%
%TO.N,Row2*%
X167750000Y-57400000D03*
%TO.P,D6,2,A*%
%TO.N,Net-(D6-A)*%
X167750000Y-54100000D03*
%TD*%
%TO.P,D12,1,K*%
%TO.N,Row4*%
X219500000Y-68900000D03*
%TO.P,D12,2,A*%
%TO.N,Net-(D12-A)*%
X219500000Y-65600000D03*
%TD*%
D22*
%TO.P,D11,1,K*%
%TO.N,Row3*%
X219500000Y-58600000D03*
%TO.P,D11,2,A*%
%TO.N,Net-(D11-A)*%
X219500000Y-61900000D03*
%TD*%
%TO.P,D3,1,K*%
%TO.N,Row3*%
X152500000Y-53950000D03*
%TO.P,D3,2,A*%
%TO.N,Net-(D3-A)*%
X152500000Y-57250000D03*
%TD*%
%TO.P,D2,1,K*%
%TO.N,Row2*%
X158250000Y-68850000D03*
%TO.P,D2,2,A*%
%TO.N,Net-(D2-A)*%
X158250000Y-72150000D03*
%TD*%
D25*
%TO.P,J4,1,Pin_1*%
%TO.N,5V*%
X148150000Y-67100000D03*
%TO.P,J4,2,Pin_2*%
X146150000Y-67100000D03*
D26*
%TO.P,J4,MP*%
%TO.N,N/C*%
X150550000Y-64850000D03*
X143750000Y-64850000D03*
%TD*%
D17*
%TO.P,D1,1,K*%
%TO.N,Row1*%
X157750000Y-57150000D03*
%TO.P,D1,2,A*%
%TO.N,Net-(D1-A)*%
X157750000Y-53850000D03*
%TD*%
D27*
%TO.P,4.7k_ohm2,1*%
%TO.N,SCL*%
X76500000Y-72240000D03*
%TO.P,4.7k_ohm2,2*%
%TO.N,5V*%
X76500000Y-73260000D03*
%TD*%
D17*
%TO.P,D4,1,K*%
%TO.N,Row4*%
X158250000Y-65400000D03*
%TO.P,D4,2,A*%
%TO.N,Net-(D4-A)*%
X158250000Y-62100000D03*
%TD*%
D28*
%TO.P,4.7k_ohm1,1*%
%TO.N,5V*%
X80250000Y-73260000D03*
%TO.P,4.7k_ohm1,2*%
%TO.N,SDA*%
X80250000Y-72240000D03*
%TD*%
D29*
%TO.P,J3,1*%
%TO.N,Net-(100kR1-Pad2)*%
X82000000Y-65000000D03*
D30*
%TO.P,J3,2*%
%TO.N,GND*%
X82000000Y-59000000D03*
D31*
%TO.P,J3,MP*%
%TO.N,N/C*%
X77500000Y-58000000D03*
X86500000Y-58000000D03*
%TD*%
D17*
%TO.P,D7,1,K*%
%TO.N,Row3*%
X216500000Y-58250000D03*
%TO.P,D7,2,A*%
%TO.N,Net-(D7-A)*%
X216500000Y-54950000D03*
%TD*%
D25*
%TO.P,J1,1,Pin_1*%
%TO.N,SDA*%
X138050000Y-67100000D03*
%TO.P,J1,2,Pin_2*%
%TO.N,SCL*%
X136050000Y-67100000D03*
D26*
%TO.P,J1,MP*%
%TO.N,N/C*%
X140450000Y-64850000D03*
X133650000Y-64850000D03*
%TD*%
D32*
%TO.P,1000uf25V3,1*%
%TO.N,Net-(J2-Pin_2)*%
X195200000Y-62850000D03*
%TO.P,1000uf25V3,2*%
%TO.N,GND*%
X186800000Y-62850000D03*
%TD*%
%TO.P,1000uf25V1,1*%
%TO.N,Net-(J2-Pin_2)*%
X180650000Y-62600000D03*
%TO.P,1000uf25V1,2*%
%TO.N,GND*%
X172250000Y-62600000D03*
%TD*%
D33*
%TO.N,SDA*%
X75000000Y-64500000D03*
X68700735Y-57799265D03*
%TO.N,5V*%
X77700735Y-68049265D03*
%TO.N,SCL*%
X75250000Y-65750000D03*
X135000000Y-72000000D03*
X77490000Y-72240000D03*
D34*
%TO.N,GND*%
X168500000Y-62250000D03*
D33*
X63750000Y-56400000D03*
X62250000Y-58750000D03*
X54500000Y-61250000D03*
D34*
X205750000Y-62500000D03*
X212000000Y-62600000D03*
X189750000Y-61500000D03*
X210750000Y-60500000D03*
X189750000Y-63500000D03*
X175250000Y-62250000D03*
D33*
%TO.N,Col3*%
X146500000Y-71500000D03*
X151500000Y-69750000D03*
%TO.N,Row1*%
X141500000Y-68000000D03*
X76250000Y-63250000D03*
%TO.N,AS1*%
X58000000Y-74950000D03*
%TO.N,Row4*%
X74000000Y-61000000D03*
X154750000Y-59500000D03*
X157000000Y-65250000D03*
X126250000Y-69250000D03*
X217750000Y-67750000D03*
%TO.N,Col2*%
X71500000Y-56500000D03*
X48000000Y-56500000D03*
X52250000Y-56500000D03*
X45750000Y-62500000D03*
X56000000Y-56500000D03*
%TO.N,Row2*%
X160750000Y-66000000D03*
X77325735Y-62924265D03*
X149500000Y-68750000D03*
X165500000Y-61500000D03*
%TO.N,AS2*%
X55750000Y-74250000D03*
%TO.N,D12_mosfet*%
X54000000Y-62500000D03*
%TO.N,Row3*%
X74750000Y-61900000D03*
X135250000Y-60250000D03*
%TO.N,Net-(D1-A)*%
X156000000Y-53250000D03*
%TO.N,Net-(D2-A)*%
X149250000Y-71750000D03*
%TO.N,Net-(D3-A)*%
X141250000Y-60750000D03*
%TO.N,Net-(D4-A)*%
X156500000Y-61500000D03*
%TO.N,Net-(D5-A)*%
X39750000Y-59250000D03*
%TO.N,Net-(D6-A)*%
X169500000Y-54000000D03*
%TO.N,Net-(D7-A)*%
X194500000Y-53750000D03*
%TO.N,Net-(D8-A)*%
X209750000Y-55000000D03*
%TO.N,Net-(D9-A)*%
X163750000Y-64250000D03*
%TO.N,Net-(D10-A)*%
X165000000Y-56250000D03*
%TO.N,Net-(D11-A)*%
X203500000Y-65500000D03*
%TO.N,Net-(D12-A)*%
X217500000Y-65500000D03*
D35*
%TO.N,Net-(J2-Pin_2)*%
X117750000Y-61000000D03*
%TD*%
D36*
%TO.N,SDA*%
X82240000Y-72240000D02*
X80250000Y-72240000D01*
X68700735Y-57799265D02*
X68651470Y-57750000D01*
X82750000Y-72750000D02*
X82240000Y-72240000D01*
X75125000Y-64500000D02*
X75000000Y-64500000D01*
X138050000Y-71700000D02*
X137000000Y-72750000D01*
X80250000Y-69625000D02*
X75125000Y-64500000D01*
X68651470Y-57750000D02*
X55500000Y-57750000D01*
X137000000Y-72750000D02*
X82750000Y-72750000D01*
X138050000Y-67100000D02*
X138050000Y-71700000D01*
X53100000Y-55350000D02*
X53100000Y-53760000D01*
X55500000Y-57750000D02*
X53100000Y-55350000D01*
X80250000Y-72240000D02*
X80250000Y-69625000D01*
%TO.N,5V*%
X146150000Y-67100000D02*
X146150000Y-70100000D01*
X78705735Y-71605735D02*
X78705735Y-72205735D01*
X80250000Y-73260000D02*
X80589000Y-73599000D01*
X146150000Y-70100000D02*
X142750000Y-73500000D01*
X77700735Y-70600735D02*
X78705735Y-71605735D01*
X148150000Y-67100000D02*
X146150000Y-67100000D01*
X76500000Y-73260000D02*
X79000000Y-73260000D01*
X79000000Y-73260000D02*
X80250000Y-73260000D01*
X77700735Y-68049265D02*
X77700735Y-70600735D01*
X81651000Y-73599000D02*
X81750000Y-73500000D01*
X78705735Y-72205735D02*
X79000000Y-72500000D01*
X80589000Y-73599000D02*
X81651000Y-73599000D01*
X81750000Y-73500000D02*
X142750000Y-73500000D01*
X79000000Y-72500000D02*
X79000000Y-73260000D01*
%TO.N,SCL*%
X75250000Y-68088530D02*
X76500000Y-69338530D01*
X76500000Y-72240000D02*
X77490000Y-72240000D01*
X75250000Y-65750000D02*
X75250000Y-68088530D01*
X76500000Y-69338530D02*
X76500000Y-72240000D01*
X135250000Y-72000000D02*
X135000000Y-72000000D01*
X136050000Y-67100000D02*
X136050000Y-71200000D01*
X77500000Y-72250000D02*
X77490000Y-72240000D01*
X136050000Y-71200000D02*
X135250000Y-72000000D01*
%TO.N,GND*%
X63850000Y-56500000D02*
X67500000Y-56500000D01*
D37*
X172250000Y-62600000D02*
X168850000Y-62600000D01*
X168850000Y-62600000D02*
X168500000Y-62250000D01*
X174900000Y-62600000D02*
X175250000Y-62250000D01*
X186800000Y-62850000D02*
X189100000Y-62850000D01*
X208950000Y-62600000D02*
X205850000Y-62600000D01*
X205850000Y-62600000D02*
X205750000Y-62500000D01*
X188150000Y-61500000D02*
X189750000Y-61500000D01*
X186800000Y-62850000D02*
X188150000Y-61500000D01*
X208950000Y-62600000D02*
X208950000Y-62300000D01*
X212000000Y-62600000D02*
X208950000Y-62600000D01*
X172250000Y-62600000D02*
X174900000Y-62600000D01*
D36*
X68340000Y-55660000D02*
X68340000Y-53760000D01*
D37*
X208950000Y-62300000D02*
X210750000Y-60500000D01*
D36*
X67500000Y-56500000D02*
X68340000Y-55660000D01*
X54500000Y-61250000D02*
X54500000Y-60500000D01*
X56250000Y-58750000D02*
X62250000Y-58750000D01*
X54500000Y-60500000D02*
X56250000Y-58750000D01*
X63750000Y-56400000D02*
X63850000Y-56500000D01*
D37*
X189100000Y-62850000D02*
X189750000Y-63500000D01*
D38*
%TO.N,Net-(Q1-G)*%
X122615000Y-56412500D02*
X122600000Y-56427500D01*
X129500000Y-56412500D02*
X122615000Y-56412500D01*
X130837500Y-56412500D02*
X132912500Y-54337500D01*
X132912500Y-54337500D02*
X134500000Y-54337500D01*
X122600000Y-56427500D02*
X116300000Y-56427500D01*
X129500000Y-56412500D02*
X130837500Y-56412500D01*
D36*
%TO.N,Col3*%
X151500000Y-69750000D02*
X150000000Y-69750000D01*
X148250000Y-71500000D02*
X146500000Y-71500000D01*
X150000000Y-69750000D02*
X148250000Y-71500000D01*
%TO.N,Row1*%
X161200000Y-60600000D02*
X159950000Y-59350000D01*
X153750000Y-62250000D02*
X157750000Y-58250000D01*
X157750000Y-58250000D02*
X157750000Y-57150000D01*
X141500000Y-67250000D02*
X142000000Y-66750000D01*
X48020000Y-69000000D02*
X48020000Y-72130000D01*
X48020000Y-67980000D02*
X50500000Y-65500000D01*
X74250000Y-63250000D02*
X76250000Y-63250000D01*
X141500000Y-68000000D02*
X141500000Y-67250000D01*
X72000000Y-65500000D02*
X74250000Y-63250000D01*
X142000000Y-62750000D02*
X142500000Y-62250000D01*
X142000000Y-66750000D02*
X142000000Y-62750000D01*
X48020000Y-69000000D02*
X48020000Y-67980000D01*
X48020000Y-72130000D02*
X46400000Y-73750000D01*
X50500000Y-65500000D02*
X72000000Y-65500000D01*
X159950000Y-59350000D02*
X157750000Y-57150000D01*
X142500000Y-62250000D02*
X153750000Y-62250000D01*
X162250000Y-60600000D02*
X161200000Y-60600000D01*
%TO.N,AS1*%
X55640000Y-71390000D02*
X55640000Y-69000000D01*
X58000000Y-73750000D02*
X55640000Y-71390000D01*
X58000000Y-74950000D02*
X58000000Y-73750000D01*
%TO.N,Row4*%
X218900000Y-68900000D02*
X217750000Y-67750000D01*
X37860000Y-69000000D02*
X42860000Y-64000000D01*
X71466450Y-63716450D02*
X71466450Y-63533550D01*
X140250000Y-62750000D02*
X132750000Y-62750000D01*
X128250000Y-69250000D02*
X126250000Y-69250000D01*
X154750000Y-59500000D02*
X143500000Y-59500000D01*
X157150000Y-65400000D02*
X157000000Y-65250000D01*
X219500000Y-68900000D02*
X218900000Y-68900000D01*
X214250000Y-60500000D02*
X213000000Y-59250000D01*
X158250000Y-65400000D02*
X157150000Y-65400000D01*
X219500000Y-68900000D02*
X221250000Y-67150000D01*
X213000000Y-59250000D02*
X213000000Y-58250000D01*
X132750000Y-62750000D02*
X132500000Y-63000000D01*
X132500000Y-63000000D02*
X132500000Y-65000000D01*
X132500000Y-65000000D02*
X128250000Y-69250000D01*
X221250000Y-61250000D02*
X220500000Y-60500000D01*
X220500000Y-60500000D02*
X214250000Y-60500000D01*
X221250000Y-67150000D02*
X221250000Y-61250000D01*
X71182900Y-64000000D02*
X71466450Y-63716450D01*
X42860000Y-64000000D02*
X71182900Y-64000000D01*
X71466450Y-63533550D02*
X74000000Y-61000000D01*
X143500000Y-59500000D02*
X140250000Y-62750000D01*
%TO.N,Col2*%
X45750000Y-60000000D02*
X45750000Y-62500000D01*
X49250000Y-56500000D02*
X52250000Y-56500000D01*
X49250000Y-56500000D02*
X45750000Y-60000000D01*
X48000000Y-56500000D02*
X49250000Y-56500000D01*
X56500000Y-57000000D02*
X56000000Y-56500000D01*
X71000000Y-57000000D02*
X56500000Y-57000000D01*
X71500000Y-56500000D02*
X71000000Y-57000000D01*
%TO.N,RE2*%
X62649000Y-75149000D02*
X58180000Y-70680000D01*
X58180000Y-70680000D02*
X58180000Y-69000000D01*
X222351000Y-75149000D02*
X62649000Y-75149000D01*
X224500000Y-64350000D02*
X224500000Y-73000000D01*
X224500000Y-73000000D02*
X222351000Y-75149000D01*
%TO.N,Row2*%
X167750000Y-58250000D02*
X167750000Y-57400000D01*
X164200000Y-53850000D02*
X164550000Y-54200000D01*
X164550000Y-54200000D02*
X167750000Y-57400000D01*
X163750000Y-53850000D02*
X164200000Y-53850000D01*
X166250000Y-61500000D02*
X167500000Y-60250000D01*
X160750000Y-66750000D02*
X160500000Y-67000000D01*
X167500000Y-58500000D02*
X167750000Y-58250000D01*
X158250000Y-68850000D02*
X149600000Y-68850000D01*
X77000000Y-62500000D02*
X74000000Y-62500000D01*
X160500000Y-68000000D02*
X159650000Y-68850000D01*
X164550000Y-54200000D02*
X164350000Y-54200000D01*
X167500000Y-60250000D02*
X167500000Y-58500000D01*
X160500000Y-67000000D02*
X160500000Y-68000000D01*
X159650000Y-68850000D02*
X158250000Y-68850000D01*
X45480000Y-67520000D02*
X45480000Y-69000000D01*
X71500000Y-65000000D02*
X48000000Y-65000000D01*
X164350000Y-54200000D02*
X163750000Y-53600000D01*
X149600000Y-68850000D02*
X149500000Y-68750000D01*
X48000000Y-65000000D02*
X45480000Y-67520000D01*
X77325735Y-62825735D02*
X77000000Y-62500000D01*
X74000000Y-62500000D02*
X71500000Y-65000000D01*
X160750000Y-66000000D02*
X160750000Y-66750000D01*
X77325735Y-62924265D02*
X77325735Y-62825735D01*
X165500000Y-61500000D02*
X166250000Y-61500000D01*
%TO.N,AS2*%
X54000000Y-72500000D02*
X52000000Y-72500000D01*
X50560000Y-71060000D02*
X50560000Y-69000000D01*
X55750000Y-74250000D02*
X54000000Y-72500000D01*
X52000000Y-72500000D02*
X50560000Y-71060000D01*
%TO.N,RE1*%
X224350000Y-59500000D02*
X223250000Y-59500000D01*
X224500000Y-59350000D02*
X224350000Y-59500000D01*
X220000000Y-74250000D02*
X66000000Y-74250000D01*
X223250000Y-59500000D02*
X222000000Y-60750000D01*
X222000000Y-72250000D02*
X220000000Y-74250000D01*
X61250000Y-71750000D02*
X60720000Y-71220000D01*
X63500000Y-71750000D02*
X61250000Y-71750000D01*
X222000000Y-60750000D02*
X222000000Y-72250000D01*
X66000000Y-74250000D02*
X63500000Y-71750000D01*
X60720000Y-71220000D02*
X60720000Y-69000000D01*
%TO.N,D12_mosfet*%
X73750000Y-58250000D02*
X73750000Y-56000000D01*
X77399000Y-52351000D02*
X127601000Y-52351000D01*
X54000000Y-62500000D02*
X69500000Y-62500000D01*
X129500000Y-54250000D02*
X129500000Y-54587500D01*
X73750000Y-56000000D02*
X77399000Y-52351000D01*
X127601000Y-52351000D02*
X129500000Y-54250000D01*
X69500000Y-62500000D02*
X73750000Y-58250000D01*
%TO.N,Row3*%
X216851000Y-52351000D02*
X154099000Y-52351000D01*
X154099000Y-52351000D02*
X152500000Y-53950000D01*
X71151000Y-64599000D02*
X73750000Y-62000000D01*
X216500000Y-58250000D02*
X219150000Y-58250000D01*
X74650000Y-62000000D02*
X74750000Y-61900000D01*
X51099000Y-64599000D02*
X60750000Y-64599000D01*
X219500000Y-55000000D02*
X216851000Y-52351000D01*
X73750000Y-62000000D02*
X74650000Y-62000000D01*
X141550000Y-53950000D02*
X152500000Y-53950000D01*
X51000000Y-64500000D02*
X51099000Y-64599000D01*
X50500000Y-64500000D02*
X51000000Y-64500000D01*
X219150000Y-58250000D02*
X219500000Y-58600000D01*
X60750000Y-64599000D02*
X71151000Y-64599000D01*
X135250000Y-60250000D02*
X141550000Y-53950000D01*
X44900000Y-64500000D02*
X50500000Y-64500000D01*
X40400000Y-69000000D02*
X44900000Y-64500000D01*
X219500000Y-58600000D02*
X219500000Y-55000000D01*
%TO.N,Net-(D1-A)*%
X156600000Y-53850000D02*
X156000000Y-53250000D01*
X157750000Y-53850000D02*
X156600000Y-53850000D01*
%TO.N,Net-(D2-A)*%
X149650000Y-72150000D02*
X158250000Y-72150000D01*
X149250000Y-71750000D02*
X149650000Y-72150000D01*
%TO.N,Net-(D3-A)*%
X151000000Y-58750000D02*
X152500000Y-57250000D01*
X141250000Y-60750000D02*
X143250000Y-58750000D01*
X143250000Y-58750000D02*
X151000000Y-58750000D01*
%TO.N,Net-(D4-A)*%
X158250000Y-62100000D02*
X157100000Y-62100000D01*
X157100000Y-62100000D02*
X156500000Y-61500000D01*
%TO.N,Net-(D5-A)*%
X32000000Y-69250000D02*
X33750000Y-71000000D01*
X33750000Y-71000000D02*
X34250000Y-71000000D01*
X35500000Y-72250000D02*
X36250000Y-72250000D01*
X36250000Y-72250000D02*
X37750000Y-73750000D01*
X37750000Y-73750000D02*
X43100000Y-73750000D01*
X34250000Y-71000000D02*
X35500000Y-72250000D01*
X32000000Y-65250000D02*
X32000000Y-69250000D01*
X38000000Y-59250000D02*
X32000000Y-65250000D01*
X39750000Y-59250000D02*
X38000000Y-59250000D01*
%TO.N,Net-(D6-A)*%
X169400000Y-54100000D02*
X169500000Y-54000000D01*
X167750000Y-54100000D02*
X169400000Y-54100000D01*
%TO.N,Net-(D7-A)*%
X195000000Y-53250000D02*
X194500000Y-53750000D01*
X216500000Y-53500000D02*
X216250000Y-53250000D01*
X216500000Y-54950000D02*
X216500000Y-53500000D01*
X216250000Y-53250000D02*
X195000000Y-53250000D01*
%TO.N,Net-(D8-A)*%
X209800000Y-54950000D02*
X209750000Y-55000000D01*
X213000000Y-54950000D02*
X209800000Y-54950000D01*
%TO.N,Net-(D9-A)*%
X163400000Y-63900000D02*
X163750000Y-64250000D01*
X162250000Y-63900000D02*
X163400000Y-63900000D01*
%TO.N,Net-(D10-A)*%
X165000000Y-56250000D02*
X164850000Y-56400000D01*
X164850000Y-56400000D02*
X164500000Y-56400000D01*
X164500000Y-56400000D02*
X163750000Y-57150000D01*
%TO.N,Net-(D11-A)*%
X215900000Y-65500000D02*
X203500000Y-65500000D01*
X219500000Y-61900000D02*
X215900000Y-65500000D01*
%TO.N,Net-(D12-A)*%
X217600000Y-65600000D02*
X217500000Y-65500000D01*
X219500000Y-65600000D02*
X217600000Y-65600000D01*
D39*
%TO.N,Net-(100kR1-Pad2)*%
X106250000Y-66250000D02*
X106250000Y-63250000D01*
X89500000Y-68500000D02*
X104000000Y-68500000D01*
X82000000Y-65000000D02*
X86000000Y-65000000D01*
D40*
X134500000Y-56250000D02*
X126750000Y-64000000D01*
X126750000Y-64000000D02*
X107000000Y-64000000D01*
D39*
X86000000Y-65000000D02*
X89500000Y-68500000D01*
D40*
X134500000Y-56162500D02*
X134500000Y-56250000D01*
D39*
X104000000Y-68500000D02*
X106250000Y-66250000D01*
D40*
X107000000Y-64000000D02*
X106250000Y-63250000D01*
D37*
%TO.N,Net-(J2-Pin_2)*%
X195450000Y-62600000D02*
X195200000Y-62850000D01*
X200550000Y-62600000D02*
X195450000Y-62600000D01*
D40*
X116300000Y-58707500D02*
X117500000Y-59907500D01*
X117500000Y-59907500D02*
X117500000Y-60750000D01*
D38*
%TO.N,Net-(Q1-S)*%
X96250000Y-63250000D02*
X105352500Y-54147500D01*
X105352500Y-54147500D02*
X116300000Y-54147500D01*
%TD*%
%TA.AperFunction,Conductor*%
%TO.N,Net-(J2-Pin_2)*%
G36*
X35041391Y-52270185D02*
G01*
X35087146Y-52322989D01*
X35097090Y-52392147D01*
X35068065Y-52455703D01*
X35012671Y-52492431D01*
X34820776Y-52554781D01*
X34638386Y-52647715D01*
X34472786Y-52768028D01*
X34328028Y-52912786D01*
X34207715Y-53078386D01*
X34114781Y-53260776D01*
X34051522Y-53455465D01*
X34019500Y-53657648D01*
X34019500Y-53862351D01*
X34051522Y-54064534D01*
X34114781Y-54259223D01*
X34175411Y-54378213D01*
X34194819Y-54416305D01*
X34207715Y-54441613D01*
X34328028Y-54607213D01*
X34472786Y-54751971D01*
X34589818Y-54836998D01*
X34638390Y-54872287D01*
X34719499Y-54913614D01*
X34820776Y-54965218D01*
X34820778Y-54965218D01*
X34820781Y-54965220D01*
X34895818Y-54989601D01*
X35015465Y-55028477D01*
X35116557Y-55044488D01*
X35217648Y-55060500D01*
X35217649Y-55060500D01*
X35422351Y-55060500D01*
X35422352Y-55060500D01*
X35624534Y-55028477D01*
X35819219Y-54965220D01*
X36001610Y-54872287D01*
X36114389Y-54790349D01*
X36167213Y-54751971D01*
X36167215Y-54751968D01*
X36167219Y-54751966D01*
X36311966Y-54607219D01*
X36311968Y-54607215D01*
X36311971Y-54607213D01*
X36432284Y-54441614D01*
X36432285Y-54441613D01*
X36432287Y-54441610D01*
X36479516Y-54348917D01*
X36527489Y-54298123D01*
X36595310Y-54281328D01*
X36661445Y-54303865D01*
X36700483Y-54348917D01*
X36744348Y-54435006D01*
X36747715Y-54441614D01*
X36868028Y-54607213D01*
X37012786Y-54751971D01*
X37129818Y-54836998D01*
X37178390Y-54872287D01*
X37259499Y-54913614D01*
X37360776Y-54965218D01*
X37360778Y-54965218D01*
X37360781Y-54965220D01*
X37435818Y-54989601D01*
X37555465Y-55028477D01*
X37656557Y-55044488D01*
X37757648Y-55060500D01*
X37757649Y-55060500D01*
X37962351Y-55060500D01*
X37962352Y-55060500D01*
X38164534Y-55028477D01*
X38359219Y-54965220D01*
X38541610Y-54872287D01*
X38654389Y-54790349D01*
X38707213Y-54751971D01*
X38707215Y-54751968D01*
X38707219Y-54751966D01*
X38851966Y-54607219D01*
X38851968Y-54607215D01*
X38851971Y-54607213D01*
X38972284Y-54441614D01*
X38972285Y-54441613D01*
X38972287Y-54441610D01*
X39019516Y-54348917D01*
X39067489Y-54298123D01*
X39135310Y-54281328D01*
X39201445Y-54303865D01*
X39240483Y-54348917D01*
X39284348Y-54435006D01*
X39287715Y-54441614D01*
X39408028Y-54607213D01*
X39552786Y-54751971D01*
X39669818Y-54836998D01*
X39718390Y-54872287D01*
X39799499Y-54913614D01*
X39900776Y-54965218D01*
X39900778Y-54965218D01*
X39900781Y-54965220D01*
X39975818Y-54989601D01*
X40095465Y-55028477D01*
X40196557Y-55044488D01*
X40297648Y-55060500D01*
X40297649Y-55060500D01*
X40502351Y-55060500D01*
X40502352Y-55060500D01*
X40704534Y-55028477D01*
X40899219Y-54965220D01*
X41081610Y-54872287D01*
X41194389Y-54790349D01*
X41247213Y-54751971D01*
X41247215Y-54751968D01*
X41247219Y-54751966D01*
X41391966Y-54607219D01*
X41391968Y-54607215D01*
X41391971Y-54607213D01*
X41512284Y-54441614D01*
X41512285Y-54441613D01*
X41512287Y-54441610D01*
X41559516Y-54348917D01*
X41607489Y-54298123D01*
X41675310Y-54281328D01*
X41741445Y-54303865D01*
X41780483Y-54348917D01*
X41824348Y-54435006D01*
X41827715Y-54441614D01*
X41948028Y-54607213D01*
X42092786Y-54751971D01*
X42209818Y-54836998D01*
X42258390Y-54872287D01*
X42339499Y-54913614D01*
X42440776Y-54965218D01*
X42440778Y-54965218D01*
X42440781Y-54965220D01*
X42515818Y-54989601D01*
X42635465Y-55028477D01*
X42736557Y-55044488D01*
X42837648Y-55060500D01*
X42837649Y-55060500D01*
X43042351Y-55060500D01*
X43042352Y-55060500D01*
X43244534Y-55028477D01*
X43439219Y-54965220D01*
X43621610Y-54872287D01*
X43734389Y-54790349D01*
X43787213Y-54751971D01*
X43787215Y-54751968D01*
X43787219Y-54751966D01*
X43931966Y-54607219D01*
X43931968Y-54607215D01*
X43931971Y-54607213D01*
X44052284Y-54441614D01*
X44052285Y-54441613D01*
X44052287Y-54441610D01*
X44099516Y-54348917D01*
X44147489Y-54298123D01*
X44215310Y-54281328D01*
X44281445Y-54303865D01*
X44320483Y-54348917D01*
X44364348Y-54435006D01*
X44367715Y-54441614D01*
X44488028Y-54607213D01*
X44632786Y-54751971D01*
X44749818Y-54836998D01*
X44798390Y-54872287D01*
X44879499Y-54913614D01*
X44980776Y-54965218D01*
X44980778Y-54965218D01*
X44980781Y-54965220D01*
X45055818Y-54989601D01*
X45175465Y-55028477D01*
X45276557Y-55044488D01*
X45377648Y-55060500D01*
X45377649Y-55060500D01*
X45582351Y-55060500D01*
X45582352Y-55060500D01*
X45784534Y-55028477D01*
X45979219Y-54965220D01*
X46161610Y-54872287D01*
X46274389Y-54790349D01*
X46327213Y-54751971D01*
X46327215Y-54751968D01*
X46327219Y-54751966D01*
X46471966Y-54607219D01*
X46471968Y-54607215D01*
X46471971Y-54607213D01*
X46592284Y-54441614D01*
X46592285Y-54441613D01*
X46592287Y-54441610D01*
X46639516Y-54348917D01*
X46687489Y-54298123D01*
X46755310Y-54281328D01*
X46821445Y-54303865D01*
X46860483Y-54348917D01*
X46904348Y-54435006D01*
X46907715Y-54441614D01*
X47028028Y-54607213D01*
X47172786Y-54751971D01*
X47289818Y-54836998D01*
X47338390Y-54872287D01*
X47419499Y-54913614D01*
X47520776Y-54965218D01*
X47520778Y-54965218D01*
X47520781Y-54965220D01*
X47595818Y-54989601D01*
X47715465Y-55028477D01*
X47816557Y-55044488D01*
X47917648Y-55060500D01*
X47917649Y-55060500D01*
X48122351Y-55060500D01*
X48122352Y-55060500D01*
X48324534Y-55028477D01*
X48519219Y-54965220D01*
X48701610Y-54872287D01*
X48814389Y-54790349D01*
X48867213Y-54751971D01*
X48867215Y-54751968D01*
X48867219Y-54751966D01*
X49011966Y-54607219D01*
X49011968Y-54607215D01*
X49011971Y-54607213D01*
X49132284Y-54441614D01*
X49132285Y-54441613D01*
X49132287Y-54441610D01*
X49179516Y-54348917D01*
X49227489Y-54298123D01*
X49295310Y-54281328D01*
X49361445Y-54303865D01*
X49400483Y-54348917D01*
X49444348Y-54435006D01*
X49447715Y-54441614D01*
X49568028Y-54607213D01*
X49712786Y-54751971D01*
X49829818Y-54836998D01*
X49878390Y-54872287D01*
X49959499Y-54913614D01*
X50060776Y-54965218D01*
X50060778Y-54965218D01*
X50060781Y-54965220D01*
X50135818Y-54989601D01*
X50255465Y-55028477D01*
X50356557Y-55044488D01*
X50457648Y-55060500D01*
X50457649Y-55060500D01*
X50662351Y-55060500D01*
X50662352Y-55060500D01*
X50864534Y-55028477D01*
X51059219Y-54965220D01*
X51241610Y-54872287D01*
X51354389Y-54790349D01*
X51407213Y-54751971D01*
X51407215Y-54751968D01*
X51407219Y-54751966D01*
X51551966Y-54607219D01*
X51551968Y-54607215D01*
X51551971Y-54607213D01*
X51672284Y-54441614D01*
X51672285Y-54441613D01*
X51672287Y-54441610D01*
X51719516Y-54348917D01*
X51767489Y-54298123D01*
X51835310Y-54281328D01*
X51901445Y-54303865D01*
X51940483Y-54348917D01*
X51984348Y-54435006D01*
X51987715Y-54441614D01*
X52108028Y-54607213D01*
X52108034Y-54607219D01*
X52252781Y-54751966D01*
X52418390Y-54872287D01*
X52431793Y-54879116D01*
X52482589Y-54927088D01*
X52499500Y-54989601D01*
X52499500Y-55263330D01*
X52499499Y-55263348D01*
X52499499Y-55270943D01*
X52499499Y-55429057D01*
X52504557Y-55447934D01*
X52534041Y-55557969D01*
X52532378Y-55627819D01*
X52493215Y-55685681D01*
X52428987Y-55713185D01*
X52390075Y-55711679D01*
X52328846Y-55699500D01*
X52328842Y-55699500D01*
X52171158Y-55699500D01*
X52171155Y-55699500D01*
X52016510Y-55730261D01*
X52016498Y-55730264D01*
X51870827Y-55790602D01*
X51870814Y-55790609D01*
X51739125Y-55878602D01*
X51672447Y-55899480D01*
X51670234Y-55899500D01*
X48579766Y-55899500D01*
X48512727Y-55879815D01*
X48510875Y-55878602D01*
X48379185Y-55790609D01*
X48379172Y-55790602D01*
X48233501Y-55730264D01*
X48233489Y-55730261D01*
X48078845Y-55699500D01*
X48078842Y-55699500D01*
X47921158Y-55699500D01*
X47921155Y-55699500D01*
X47766510Y-55730261D01*
X47766498Y-55730264D01*
X47620827Y-55790602D01*
X47620814Y-55790609D01*
X47489711Y-55878210D01*
X47489707Y-55878213D01*
X47378213Y-55989707D01*
X47378210Y-55989711D01*
X47290609Y-56120814D01*
X47290602Y-56120827D01*
X47230264Y-56266498D01*
X47230261Y-56266510D01*
X47199500Y-56421153D01*
X47199500Y-56578846D01*
X47230261Y-56733489D01*
X47230264Y-56733501D01*
X47290602Y-56879172D01*
X47290609Y-56879185D01*
X47378210Y-57010288D01*
X47378213Y-57010292D01*
X47489708Y-57121787D01*
X47489711Y-57121789D01*
X47537482Y-57153709D01*
X47582286Y-57207319D01*
X47590995Y-57276644D01*
X47560841Y-57339671D01*
X47556272Y-57344491D01*
X45381286Y-59519478D01*
X45269481Y-59631282D01*
X45269479Y-59631285D01*
X45222851Y-59712049D01*
X45222850Y-59712050D01*
X45190423Y-59768214D01*
X45190423Y-59768215D01*
X45149499Y-59920943D01*
X45149499Y-59920945D01*
X45149499Y-60089046D01*
X45149500Y-60089059D01*
X45149500Y-61920234D01*
X45129815Y-61987273D01*
X45128602Y-61989125D01*
X45040609Y-62120814D01*
X45040602Y-62120827D01*
X44980264Y-62266498D01*
X44980261Y-62266510D01*
X44949500Y-62421153D01*
X44949500Y-62578846D01*
X44980261Y-62733489D01*
X44980264Y-62733501D01*
X45040602Y-62879172D01*
X45040609Y-62879185D01*
X45128210Y-63010288D01*
X45128213Y-63010292D01*
X45239707Y-63121786D01*
X45239711Y-63121789D01*
X45315452Y-63172398D01*
X45360257Y-63226010D01*
X45368964Y-63295335D01*
X45338810Y-63358363D01*
X45279366Y-63395082D01*
X45246561Y-63399500D01*
X42946669Y-63399500D01*
X42946653Y-63399499D01*
X42939057Y-63399499D01*
X42780943Y-63399499D01*
X42693279Y-63422989D01*
X42628214Y-63440423D01*
X42596240Y-63458884D01*
X42596239Y-63458884D01*
X42491287Y-63519477D01*
X42491282Y-63519481D01*
X42379478Y-63631286D01*
X38304842Y-67705921D01*
X38243519Y-67739406D01*
X38178848Y-67736173D01*
X38164534Y-67731522D01*
X37988737Y-67703679D01*
X37962352Y-67699500D01*
X37757648Y-67699500D01*
X37733329Y-67703351D01*
X37555465Y-67731522D01*
X37360776Y-67794781D01*
X37178386Y-67887715D01*
X37012786Y-68008028D01*
X36868028Y-68152786D01*
X36747715Y-68318386D01*
X36700485Y-68411080D01*
X36652510Y-68461876D01*
X36584689Y-68478671D01*
X36518554Y-68456134D01*
X36479515Y-68411080D01*
X36478883Y-68409840D01*
X36432287Y-68318390D01*
X36403197Y-68278351D01*
X36311971Y-68152786D01*
X36167213Y-68008028D01*
X36001613Y-67887715D01*
X36001612Y-67887714D01*
X36001610Y-67887713D01*
X35944653Y-67858691D01*
X35819223Y-67794781D01*
X35624534Y-67731522D01*
X35448737Y-67703679D01*
X35422352Y-67699500D01*
X35217648Y-67699500D01*
X35193329Y-67703351D01*
X35015465Y-67731522D01*
X34820776Y-67794781D01*
X34638386Y-67887715D01*
X34472786Y-68008028D01*
X34328028Y-68152786D01*
X34207715Y-68318386D01*
X34114781Y-68500776D01*
X34051522Y-68695465D01*
X34019500Y-68897648D01*
X34019500Y-69102351D01*
X34051522Y-69304534D01*
X34114781Y-69499223D01*
X34170462Y-69608501D01*
X34202387Y-69671158D01*
X34207715Y-69681613D01*
X34328028Y-69847213D01*
X34472786Y-69991971D01*
X34627749Y-70104556D01*
X34638390Y-70112287D01*
X34719499Y-70153614D01*
X34820776Y-70205218D01*
X34820778Y-70205218D01*
X34820781Y-70205220D01*
X34895818Y-70229601D01*
X35015465Y-70268477D01*
X35095820Y-70281204D01*
X35217648Y-70300500D01*
X35217649Y-70300500D01*
X35422351Y-70300500D01*
X35422352Y-70300500D01*
X35624534Y-70268477D01*
X35819219Y-70205220D01*
X36001610Y-70112287D01*
X36128994Y-70019738D01*
X36167213Y-69991971D01*
X36167215Y-69991968D01*
X36167219Y-69991966D01*
X36311966Y-69847219D01*
X36311968Y-69847215D01*
X36311971Y-69847213D01*
X36432284Y-69681614D01*
X36432285Y-69681613D01*
X36432287Y-69681610D01*
X36479516Y-69588917D01*
X36527489Y-69538123D01*
X36595310Y-69521328D01*
X36661445Y-69543865D01*
X36700483Y-69588917D01*
X36731615Y-69650016D01*
X36747715Y-69681614D01*
X36868028Y-69847213D01*
X37012786Y-69991971D01*
X37167749Y-70104556D01*
X37178390Y-70112287D01*
X37259499Y-70153614D01*
X37360776Y-70205218D01*
X37360778Y-70205218D01*
X37360781Y-70205220D01*
X37435818Y-70229601D01*
X37555465Y-70268477D01*
X37635820Y-70281204D01*
X37757648Y-70300500D01*
X37757649Y-70300500D01*
X37962351Y-70300500D01*
X37962352Y-70300500D01*
X38164534Y-70268477D01*
X38359219Y-70205220D01*
X38541610Y-70112287D01*
X38668994Y-70019738D01*
X38707213Y-69991971D01*
X38707215Y-69991968D01*
X38707219Y-69991966D01*
X38851966Y-69847219D01*
X38851968Y-69847215D01*
X38851971Y-69847213D01*
X38972284Y-69681614D01*
X38972285Y-69681613D01*
X38972287Y-69681610D01*
X39019516Y-69588917D01*
X39067489Y-69538123D01*
X39135310Y-69521328D01*
X39201445Y-69543865D01*
X39240483Y-69588917D01*
X39271615Y-69650016D01*
X39287715Y-69681614D01*
X39408028Y-69847213D01*
X39552786Y-69991971D01*
X39707749Y-70104556D01*
X39718390Y-70112287D01*
X39799499Y-70153614D01*
X39900776Y-70205218D01*
X39900778Y-70205218D01*
X39900781Y-70205220D01*
X39975818Y-70229601D01*
X40095465Y-70268477D01*
X40175820Y-70281204D01*
X40297648Y-70300500D01*
X40297649Y-70300500D01*
X40502351Y-70300500D01*
X40502352Y-70300500D01*
X40704534Y-70268477D01*
X40899219Y-70205220D01*
X41081610Y-70112287D01*
X41208994Y-70019738D01*
X41247213Y-69991971D01*
X41247215Y-69991968D01*
X41247219Y-69991966D01*
X41391966Y-69847219D01*
X41391968Y-69847215D01*
X41391971Y-69847213D01*
X41512284Y-69681614D01*
X41512285Y-69681613D01*
X41512287Y-69681610D01*
X41559516Y-69588917D01*
X41607489Y-69538123D01*
X41675310Y-69521328D01*
X41741445Y-69543865D01*
X41780483Y-69588917D01*
X41811615Y-69650016D01*
X41827715Y-69681614D01*
X41948028Y-69847213D01*
X42092786Y-69991971D01*
X42247749Y-70104556D01*
X42258390Y-70112287D01*
X42339499Y-70153614D01*
X42440776Y-70205218D01*
X42440778Y-70205218D01*
X42440781Y-70205220D01*
X42515818Y-70229601D01*
X42635465Y-70268477D01*
X42715820Y-70281204D01*
X42837648Y-70300500D01*
X42837649Y-70300500D01*
X43042351Y-70300500D01*
X43042352Y-70300500D01*
X43244534Y-70268477D01*
X43439219Y-70205220D01*
X43621610Y-70112287D01*
X43748994Y-70019738D01*
X43787213Y-69991971D01*
X43787215Y-69991968D01*
X43787219Y-69991966D01*
X43931966Y-69847219D01*
X43931968Y-69847215D01*
X43931971Y-69847213D01*
X44052284Y-69681614D01*
X44052285Y-69681613D01*
X44052287Y-69681610D01*
X44099516Y-69588917D01*
X44147489Y-69538123D01*
X44215310Y-69521328D01*
X44281445Y-69543865D01*
X44320483Y-69588917D01*
X44351615Y-69650016D01*
X44367715Y-69681614D01*
X44488028Y-69847213D01*
X44632786Y-69991971D01*
X44787749Y-70104556D01*
X44798390Y-70112287D01*
X44879499Y-70153614D01*
X44980776Y-70205218D01*
X44980778Y-70205218D01*
X44980781Y-70205220D01*
X45055818Y-70229601D01*
X45175465Y-70268477D01*
X45255820Y-70281204D01*
X45377648Y-70300500D01*
X45377649Y-70300500D01*
X45582351Y-70300500D01*
X45582352Y-70300500D01*
X45784534Y-70268477D01*
X45979219Y-70205220D01*
X46161610Y-70112287D01*
X46288994Y-70019738D01*
X46327213Y-69991971D01*
X46327215Y-69991968D01*
X46327219Y-69991966D01*
X46471966Y-69847219D01*
X46471968Y-69847215D01*
X46471971Y-69847213D01*
X46592284Y-69681614D01*
X46592285Y-69681613D01*
X46592287Y-69681610D01*
X46639516Y-69588917D01*
X46687489Y-69538123D01*
X46755310Y-69521328D01*
X46821445Y-69543865D01*
X46860483Y-69588917D01*
X46891615Y-69650016D01*
X46907715Y-69681614D01*
X47028028Y-69847213D01*
X47028034Y-69847219D01*
X47172781Y-69991966D01*
X47338390Y-70112287D01*
X47351793Y-70119116D01*
X47402589Y-70167088D01*
X47419500Y-70229601D01*
X47419500Y-71829902D01*
X47399815Y-71896941D01*
X47383181Y-71917583D01*
X46687582Y-72613181D01*
X46626259Y-72646666D01*
X46599901Y-72649500D01*
X46126662Y-72649500D01*
X46126644Y-72649501D01*
X46027292Y-72659650D01*
X46027289Y-72659651D01*
X45866305Y-72712996D01*
X45866294Y-72713001D01*
X45721959Y-72802029D01*
X45721955Y-72802032D01*
X45602032Y-72921955D01*
X45602029Y-72921959D01*
X45513001Y-73066294D01*
X45512996Y-73066305D01*
X45459651Y-73227290D01*
X45449500Y-73326647D01*
X45449500Y-74173337D01*
X45449501Y-74173355D01*
X45459650Y-74272707D01*
X45459651Y-74272710D01*
X45512996Y-74433694D01*
X45513001Y-74433705D01*
X45602029Y-74578040D01*
X45602032Y-74578044D01*
X45721955Y-74697967D01*
X45721959Y-74697970D01*
X45866294Y-74786998D01*
X45866297Y-74786999D01*
X45866303Y-74787003D01*
X46027292Y-74840349D01*
X46126655Y-74850500D01*
X46673344Y-74850499D01*
X46673352Y-74850498D01*
X46673355Y-74850498D01*
X46727760Y-74844940D01*
X46772708Y-74840349D01*
X46933697Y-74787003D01*
X47078044Y-74697968D01*
X47197968Y-74578044D01*
X47287003Y-74433697D01*
X47340349Y-74272708D01*
X47350500Y-74173345D01*
X47350499Y-73700095D01*
X47370183Y-73633057D01*
X47386813Y-73612420D01*
X48378506Y-72620728D01*
X48378511Y-72620724D01*
X48388714Y-72610520D01*
X48388716Y-72610520D01*
X48500520Y-72498716D01*
X48557802Y-72399500D01*
X48579577Y-72361785D01*
X48620501Y-72209057D01*
X48620501Y-72050943D01*
X48620501Y-72043348D01*
X48620500Y-72043330D01*
X48620500Y-70229601D01*
X48640185Y-70162562D01*
X48688206Y-70119116D01*
X48701610Y-70112287D01*
X48867219Y-69991966D01*
X49011966Y-69847219D01*
X49011968Y-69847215D01*
X49011971Y-69847213D01*
X49132284Y-69681614D01*
X49132285Y-69681613D01*
X49132287Y-69681610D01*
X49179516Y-69588917D01*
X49227489Y-69538123D01*
X49295310Y-69521328D01*
X49361445Y-69543865D01*
X49400483Y-69588917D01*
X49431615Y-69650016D01*
X49447715Y-69681614D01*
X49568028Y-69847213D01*
X49568034Y-69847219D01*
X49712781Y-69991966D01*
X49878390Y-70112287D01*
X49891793Y-70119116D01*
X49942589Y-70167088D01*
X49959500Y-70229601D01*
X49959500Y-70973330D01*
X49959499Y-70973348D01*
X49959499Y-71139054D01*
X49959498Y-71139054D01*
X50000423Y-71291787D01*
X50000424Y-71291788D01*
X50011482Y-71310940D01*
X50011484Y-71310943D01*
X50079477Y-71428712D01*
X50079481Y-71428717D01*
X50198349Y-71547585D01*
X50198354Y-71547589D01*
X51631284Y-72980520D01*
X51631286Y-72980521D01*
X51631290Y-72980524D01*
X51738090Y-73042184D01*
X51768216Y-73059577D01*
X51920943Y-73100501D01*
X51920945Y-73100501D01*
X52086654Y-73100501D01*
X52086670Y-73100500D01*
X53699903Y-73100500D01*
X53766942Y-73120185D01*
X53787584Y-73136819D01*
X54915425Y-74264660D01*
X54948910Y-74325983D01*
X54949361Y-74328149D01*
X54980261Y-74483491D01*
X54980264Y-74483501D01*
X55040602Y-74629172D01*
X55040609Y-74629185D01*
X55128210Y-74760288D01*
X55128213Y-74760292D01*
X55239707Y-74871786D01*
X55239711Y-74871789D01*
X55370814Y-74959390D01*
X55370827Y-74959397D01*
X55472607Y-75001555D01*
X55516503Y-75019737D01*
X55671153Y-75050499D01*
X55671156Y-75050500D01*
X55671158Y-75050500D01*
X55828844Y-75050500D01*
X55828845Y-75050499D01*
X55983497Y-75019737D01*
X56129179Y-74959394D01*
X56260289Y-74871789D01*
X56371789Y-74760289D01*
X56459394Y-74629179D01*
X56519737Y-74483497D01*
X56550500Y-74328842D01*
X56550500Y-74171158D01*
X56550500Y-74171155D01*
X56550499Y-74171153D01*
X56519737Y-74016503D01*
X56497334Y-73962416D01*
X56459397Y-73870827D01*
X56459390Y-73870814D01*
X56371789Y-73739711D01*
X56371786Y-73739707D01*
X56260292Y-73628213D01*
X56260288Y-73628210D01*
X56129185Y-73540609D01*
X56129172Y-73540602D01*
X55983501Y-73480264D01*
X55983491Y-73480261D01*
X55828151Y-73449362D01*
X55766241Y-73416977D01*
X55764662Y-73415426D01*
X54487590Y-72138355D01*
X54487588Y-72138352D01*
X54368717Y-72019481D01*
X54368716Y-72019480D01*
X54281904Y-71969360D01*
X54281904Y-71969359D01*
X54281900Y-71969358D01*
X54231785Y-71940423D01*
X54079057Y-71899499D01*
X53920943Y-71899499D01*
X53913347Y-71899499D01*
X53913331Y-71899500D01*
X52300098Y-71899500D01*
X52233059Y-71879815D01*
X52212417Y-71863181D01*
X51196819Y-70847583D01*
X51163334Y-70786260D01*
X51160500Y-70759902D01*
X51160500Y-70229601D01*
X51180185Y-70162562D01*
X51228206Y-70119116D01*
X51241610Y-70112287D01*
X51407219Y-69991966D01*
X51551966Y-69847219D01*
X51551968Y-69847215D01*
X51551971Y-69847213D01*
X51672284Y-69681614D01*
X51672285Y-69681613D01*
X51672287Y-69681610D01*
X51719516Y-69588917D01*
X51767489Y-69538123D01*
X51835310Y-69521328D01*
X51901445Y-69543865D01*
X51940483Y-69588917D01*
X51971615Y-69650016D01*
X51987715Y-69681614D01*
X52108028Y-69847213D01*
X52252786Y-69991971D01*
X52407749Y-70104556D01*
X52418390Y-70112287D01*
X52499499Y-70153614D01*
X52600776Y-70205218D01*
X52600778Y-70205218D01*
X52600781Y-70205220D01*
X52675818Y-70229601D01*
X52795465Y-70268477D01*
X52875820Y-70281204D01*
X52997648Y-70300500D01*
X52997649Y-70300500D01*
X53202351Y-70300500D01*
X53202352Y-70300500D01*
X53404534Y-70268477D01*
X53599219Y-70205220D01*
X53781610Y-70112287D01*
X53908994Y-70019738D01*
X53947213Y-69991971D01*
X53947215Y-69991968D01*
X53947219Y-69991966D01*
X54091966Y-69847219D01*
X54091968Y-69847215D01*
X54091971Y-69847213D01*
X54212284Y-69681614D01*
X54212285Y-69681613D01*
X54212287Y-69681610D01*
X54259516Y-69588917D01*
X54307489Y-69538123D01*
X54375310Y-69521328D01*
X54441445Y-69543865D01*
X54480483Y-69588917D01*
X54511615Y-69650016D01*
X54527715Y-69681614D01*
X54648028Y-69847213D01*
X54648034Y-69847219D01*
X54792781Y-69991966D01*
X54958390Y-70112287D01*
X54971793Y-70119116D01*
X55022589Y-70167088D01*
X55039500Y-70229601D01*
X55039500Y-71303330D01*
X55039499Y-71303348D01*
X55039499Y-71469054D01*
X55039498Y-71469054D01*
X55080423Y-71621786D01*
X55080424Y-71621787D01*
X55088709Y-71636137D01*
X55102775Y-71660500D01*
X55159480Y-71758716D01*
X55159482Y-71758718D01*
X55278349Y-71877585D01*
X55278355Y-71877590D01*
X57363181Y-73962416D01*
X57396666Y-74023739D01*
X57399500Y-74050097D01*
X57399500Y-74370234D01*
X57379815Y-74437273D01*
X57378602Y-74439125D01*
X57290609Y-74570814D01*
X57290602Y-74570827D01*
X57230264Y-74716498D01*
X57230261Y-74716510D01*
X57199500Y-74871153D01*
X57199500Y-75028846D01*
X57230261Y-75183489D01*
X57230264Y-75183501D01*
X57290602Y-75329172D01*
X57290609Y-75329185D01*
X57378210Y-75460288D01*
X57378213Y-75460292D01*
X57489707Y-75571786D01*
X57489711Y-75571789D01*
X57620814Y-75659390D01*
X57620827Y-75659397D01*
X57739560Y-75708577D01*
X57766503Y-75719737D01*
X57916131Y-75749500D01*
X57921153Y-75750499D01*
X57921156Y-75750500D01*
X57921158Y-75750500D01*
X58078844Y-75750500D01*
X58078845Y-75750499D01*
X58233497Y-75719737D01*
X58379179Y-75659394D01*
X58510289Y-75571789D01*
X58621789Y-75460289D01*
X58709394Y-75329179D01*
X58769737Y-75183497D01*
X58800500Y-75028842D01*
X58800500Y-74871158D01*
X58800500Y-74871155D01*
X58800499Y-74871153D01*
X58778447Y-74760292D01*
X58769737Y-74716503D01*
X58769735Y-74716498D01*
X58709397Y-74570827D01*
X58709390Y-74570814D01*
X58621398Y-74439125D01*
X58600520Y-74372447D01*
X58600500Y-74370234D01*
X58600500Y-73839059D01*
X58600501Y-73839046D01*
X58600501Y-73670945D01*
X58600501Y-73670943D01*
X58559577Y-73518215D01*
X58510815Y-73433757D01*
X58480520Y-73381284D01*
X58368716Y-73269480D01*
X58364385Y-73265149D01*
X58364374Y-73265139D01*
X56276819Y-71177584D01*
X56243334Y-71116261D01*
X56240500Y-71089903D01*
X56240500Y-70229601D01*
X56260185Y-70162562D01*
X56308206Y-70119116D01*
X56321610Y-70112287D01*
X56487219Y-69991966D01*
X56631966Y-69847219D01*
X56631968Y-69847215D01*
X56631971Y-69847213D01*
X56752284Y-69681614D01*
X56752285Y-69681613D01*
X56752287Y-69681610D01*
X56799516Y-69588917D01*
X56847489Y-69538123D01*
X56915310Y-69521328D01*
X56981445Y-69543865D01*
X57020483Y-69588917D01*
X57051615Y-69650016D01*
X57067715Y-69681614D01*
X57188028Y-69847213D01*
X57188034Y-69847219D01*
X57332781Y-69991966D01*
X57498390Y-70112287D01*
X57511793Y-70119116D01*
X57562589Y-70167088D01*
X57579500Y-70229601D01*
X57579500Y-70593330D01*
X57579499Y-70593348D01*
X57579499Y-70759054D01*
X57579498Y-70759054D01*
X57620423Y-70911787D01*
X57620424Y-70911788D01*
X57642198Y-70949501D01*
X57699475Y-71048709D01*
X57699481Y-71048717D01*
X57818349Y-71167585D01*
X57818355Y-71167590D01*
X62164139Y-75513374D01*
X62164149Y-75513385D01*
X62168479Y-75517715D01*
X62168480Y-75517716D01*
X62280284Y-75629520D01*
X62280286Y-75629521D01*
X62280290Y-75629524D01*
X62417209Y-75708573D01*
X62417216Y-75708577D01*
X62529019Y-75738534D01*
X62569942Y-75749500D01*
X62569943Y-75749500D01*
X222264331Y-75749500D01*
X222264347Y-75749501D01*
X222271943Y-75749501D01*
X222430054Y-75749501D01*
X222430057Y-75749501D01*
X222582785Y-75708577D01*
X222667972Y-75659394D01*
X222719716Y-75629520D01*
X222831520Y-75517716D01*
X222831520Y-75517714D01*
X222841724Y-75507511D01*
X222841728Y-75507506D01*
X224868713Y-73480521D01*
X224868716Y-73480520D01*
X224980520Y-73368716D01*
X225030639Y-73281904D01*
X225059577Y-73231785D01*
X225100501Y-73079057D01*
X225100501Y-72920943D01*
X225100501Y-72913348D01*
X225100500Y-72913330D01*
X225100500Y-71393713D01*
X261399500Y-71393713D01*
X261399500Y-71606287D01*
X261406344Y-71649499D01*
X261431155Y-71806152D01*
X261432754Y-71816243D01*
X261497965Y-72016942D01*
X261498444Y-72018414D01*
X261594951Y-72207820D01*
X261719890Y-72379786D01*
X261870213Y-72530109D01*
X262042179Y-72655048D01*
X262042181Y-72655049D01*
X262042184Y-72655051D01*
X262231588Y-72751557D01*
X262433757Y-72817246D01*
X262643713Y-72850500D01*
X262643714Y-72850500D01*
X262856286Y-72850500D01*
X262856287Y-72850500D01*
X263066243Y-72817246D01*
X263268412Y-72751557D01*
X263457816Y-72655051D01*
X263493129Y-72629395D01*
X263629786Y-72530109D01*
X263629788Y-72530106D01*
X263629792Y-72530104D01*
X263780104Y-72379792D01*
X263780106Y-72379788D01*
X263780109Y-72379786D01*
X263903902Y-72209397D01*
X263905051Y-72207816D01*
X264001557Y-72018412D01*
X264067246Y-71816243D01*
X264100500Y-71606287D01*
X264100500Y-71393713D01*
X264067246Y-71183757D01*
X264001557Y-70981588D01*
X263905051Y-70792184D01*
X263905049Y-70792181D01*
X263905048Y-70792179D01*
X263780109Y-70620213D01*
X263629786Y-70469890D01*
X263457820Y-70344951D01*
X263268414Y-70248444D01*
X263268413Y-70248443D01*
X263268412Y-70248443D01*
X263066243Y-70182754D01*
X263066241Y-70182753D01*
X263066240Y-70182753D01*
X262904957Y-70157208D01*
X262856287Y-70149500D01*
X262643713Y-70149500D01*
X262595042Y-70157208D01*
X262433760Y-70182753D01*
X262231585Y-70248444D01*
X262042179Y-70344951D01*
X261870213Y-70469890D01*
X261719890Y-70620213D01*
X261594951Y-70792179D01*
X261498444Y-70981585D01*
X261432753Y-71183760D01*
X261406102Y-71352029D01*
X261399500Y-71393713D01*
X225100500Y-71393713D01*
X225100500Y-66402135D01*
X229899500Y-66402135D01*
X229899500Y-68497870D01*
X229899501Y-68497876D01*
X229905908Y-68557483D01*
X229956202Y-68692328D01*
X229956206Y-68692335D01*
X230042452Y-68807544D01*
X230042455Y-68807547D01*
X230157664Y-68893793D01*
X230157671Y-68893797D01*
X230292517Y-68944091D01*
X230292516Y-68944091D01*
X230299444Y-68944835D01*
X230352127Y-68950500D01*
X233647872Y-68950499D01*
X233707483Y-68944091D01*
X233842331Y-68893796D01*
X233957546Y-68807546D01*
X234043796Y-68692331D01*
X234094091Y-68557483D01*
X234100500Y-68497873D01*
X234100499Y-66402135D01*
X248399500Y-66402135D01*
X248399500Y-68497870D01*
X248399501Y-68497876D01*
X248405908Y-68557483D01*
X248456202Y-68692328D01*
X248456206Y-68692335D01*
X248542452Y-68807544D01*
X248542455Y-68807547D01*
X248657664Y-68893793D01*
X248657671Y-68893797D01*
X248792517Y-68944091D01*
X248792516Y-68944091D01*
X248799444Y-68944835D01*
X248852127Y-68950500D01*
X252147872Y-68950499D01*
X252207483Y-68944091D01*
X252342331Y-68893796D01*
X252457546Y-68807546D01*
X252543796Y-68692331D01*
X252594091Y-68557483D01*
X252600500Y-68497873D01*
X252600499Y-66402128D01*
X252594091Y-66342517D01*
X252593282Y-66340349D01*
X252543797Y-66207671D01*
X252543793Y-66207664D01*
X252457547Y-66092455D01*
X252457544Y-66092452D01*
X252342335Y-66006206D01*
X252342328Y-66006202D01*
X252207482Y-65955908D01*
X252207483Y-65955908D01*
X252147883Y-65949501D01*
X252147881Y-65949500D01*
X252147873Y-65949500D01*
X252147864Y-65949500D01*
X248852129Y-65949500D01*
X248852123Y-65949501D01*
X248792516Y-65955908D01*
X248657671Y-66006202D01*
X248657664Y-66006206D01*
X248542455Y-66092452D01*
X248542452Y-66092455D01*
X248456206Y-66207664D01*
X248456202Y-66207671D01*
X248405908Y-66342517D01*
X248399947Y-66397967D01*
X248399501Y-66402123D01*
X248399500Y-66402135D01*
X234100499Y-66402135D01*
X234100499Y-66402128D01*
X234094091Y-66342517D01*
X234093282Y-66340349D01*
X234043797Y-66207671D01*
X234043793Y-66207664D01*
X233957547Y-66092455D01*
X233957544Y-66092452D01*
X233842335Y-66006206D01*
X233842328Y-66006202D01*
X233707482Y-65955908D01*
X233707483Y-65955908D01*
X233647883Y-65949501D01*
X233647881Y-65949500D01*
X233647873Y-65949500D01*
X233647864Y-65949500D01*
X230352129Y-65949500D01*
X230352123Y-65949501D01*
X230292516Y-65955908D01*
X230157671Y-66006202D01*
X230157664Y-66006206D01*
X230042455Y-66092452D01*
X230042452Y-66092455D01*
X229956206Y-66207664D01*
X229956202Y-66207671D01*
X229905908Y-66342517D01*
X229899947Y-66397967D01*
X229899501Y-66402123D01*
X229899500Y-66402135D01*
X225100500Y-66402135D01*
X225100500Y-65804067D01*
X225120185Y-65737028D01*
X225168205Y-65693582D01*
X225286433Y-65633343D01*
X225477510Y-65494517D01*
X225644517Y-65327510D01*
X225783343Y-65136433D01*
X225890568Y-64925992D01*
X225963553Y-64701368D01*
X225970160Y-64659651D01*
X226000500Y-64468097D01*
X226000500Y-64231902D01*
X237499500Y-64231902D01*
X237499500Y-64468097D01*
X237536446Y-64701368D01*
X237609433Y-64925996D01*
X237711669Y-65126644D01*
X237716657Y-65136433D01*
X237855483Y-65327510D01*
X238022490Y-65494517D01*
X238213567Y-65633343D01*
X238292089Y-65673352D01*
X238424003Y-65740566D01*
X238424005Y-65740566D01*
X238424008Y-65740568D01*
X238522928Y-65772709D01*
X238648631Y-65813553D01*
X238881903Y-65850500D01*
X238881908Y-65850500D01*
X239118097Y-65850500D01*
X239351368Y-65813553D01*
X239380563Y-65804067D01*
X239575992Y-65740568D01*
X239786433Y-65633343D01*
X239977510Y-65494517D01*
X240144517Y-65327510D01*
X240283343Y-65136433D01*
X240390568Y-64925992D01*
X240463553Y-64701368D01*
X240470160Y-64659651D01*
X240500500Y-64468097D01*
X240500500Y-64231902D01*
X240463553Y-63998631D01*
X240422338Y-63871786D01*
X240390568Y-63774008D01*
X240390566Y-63774005D01*
X240390566Y-63774003D01*
X240327369Y-63649973D01*
X240283343Y-63563567D01*
X240144517Y-63372490D01*
X239977510Y-63205483D01*
X239786433Y-63066657D01*
X239763588Y-63055017D01*
X239575996Y-62959433D01*
X239351368Y-62886446D01*
X239118097Y-62849500D01*
X239118092Y-62849500D01*
X238881908Y-62849500D01*
X238881903Y-62849500D01*
X238648631Y-62886446D01*
X238424003Y-62959433D01*
X238213566Y-63066657D01*
X238133774Y-63124630D01*
X238022490Y-63205483D01*
X238022488Y-63205485D01*
X238022487Y-63205485D01*
X237855485Y-63372487D01*
X237855485Y-63372488D01*
X237855483Y-63372490D01*
X237810391Y-63434554D01*
X237716657Y-63563566D01*
X237609433Y-63774003D01*
X237536446Y-63998631D01*
X237499500Y-64231902D01*
X226000500Y-64231902D01*
X225963553Y-63998631D01*
X225922338Y-63871786D01*
X225890568Y-63774008D01*
X225890566Y-63774005D01*
X225890566Y-63774003D01*
X225827369Y-63649973D01*
X225783343Y-63563567D01*
X225644517Y-63372490D01*
X225477510Y-63205483D01*
X225470401Y-63200318D01*
X225427735Y-63144988D01*
X225421756Y-63075375D01*
X225454362Y-63013580D01*
X225470401Y-62999682D01*
X225471704Y-62998735D01*
X225477510Y-62994517D01*
X225644517Y-62827510D01*
X225783343Y-62636433D01*
X225890568Y-62425992D01*
X225963553Y-62201368D01*
X225971438Y-62151583D01*
X226000500Y-61968097D01*
X226000500Y-61731902D01*
X225963553Y-61498631D01*
X225920557Y-61366305D01*
X225890568Y-61274008D01*
X225890566Y-61274005D01*
X225890566Y-61274003D01*
X225830137Y-61155405D01*
X225783343Y-61063567D01*
X225713793Y-60967840D01*
X225690314Y-60902036D01*
X225706139Y-60833982D01*
X225739801Y-60795689D01*
X225742328Y-60793796D01*
X225742331Y-60793796D01*
X225857546Y-60707546D01*
X225943796Y-60592331D01*
X225994091Y-60457483D01*
X226000500Y-60397873D01*
X226000499Y-59231902D01*
X237499500Y-59231902D01*
X237499500Y-59468097D01*
X237536446Y-59701368D01*
X237609433Y-59925996D01*
X237712467Y-60128210D01*
X237716657Y-60136433D01*
X237855483Y-60327510D01*
X238022490Y-60494517D01*
X238213567Y-60633343D01*
X238310854Y-60682913D01*
X238424003Y-60740566D01*
X238424005Y-60740566D01*
X238424008Y-60740568D01*
X238503843Y-60766508D01*
X238648631Y-60813553D01*
X238881903Y-60850500D01*
X238881908Y-60850500D01*
X239118097Y-60850500D01*
X239351368Y-60813553D01*
X239352513Y-60813181D01*
X239575992Y-60740568D01*
X239786433Y-60633343D01*
X239977510Y-60494517D01*
X240144517Y-60327510D01*
X240283343Y-60136433D01*
X240390568Y-59925992D01*
X240463553Y-59701368D01*
X240470160Y-59659651D01*
X240500500Y-59468097D01*
X240500500Y-59231902D01*
X240463553Y-58998631D01*
X240422844Y-58873344D01*
X240390568Y-58774008D01*
X240390566Y-58774005D01*
X240390566Y-58774003D01*
X240304018Y-58604144D01*
X240283343Y-58563567D01*
X240144517Y-58372490D01*
X240074162Y-58302135D01*
X241499500Y-58302135D01*
X241499500Y-60397870D01*
X241499501Y-60397876D01*
X241505908Y-60457483D01*
X241556202Y-60592328D01*
X241556206Y-60592335D01*
X241642452Y-60707544D01*
X241642455Y-60707547D01*
X241760198Y-60795690D01*
X241802069Y-60851623D01*
X241807053Y-60921315D01*
X241786205Y-60967841D01*
X241716659Y-61063563D01*
X241609433Y-61274003D01*
X241536446Y-61498631D01*
X241499500Y-61731902D01*
X241499500Y-61968097D01*
X241536446Y-62201368D01*
X241609433Y-62425996D01*
X241697287Y-62598417D01*
X241716657Y-62636433D01*
X241855483Y-62827510D01*
X241855485Y-62827512D01*
X242022490Y-62994517D01*
X242029603Y-62999685D01*
X242072266Y-63055017D01*
X242078242Y-63124630D01*
X242045634Y-63186424D01*
X242029603Y-63200315D01*
X242022490Y-63205482D01*
X241855485Y-63372487D01*
X241855485Y-63372488D01*
X241855483Y-63372490D01*
X241810391Y-63434554D01*
X241716657Y-63563566D01*
X241609433Y-63774003D01*
X241536446Y-63998631D01*
X241499500Y-64231902D01*
X241499500Y-64468097D01*
X241536446Y-64701368D01*
X241609433Y-64925996D01*
X241711669Y-65126644D01*
X241716657Y-65136433D01*
X241855483Y-65327510D01*
X242022490Y-65494517D01*
X242213567Y-65633343D01*
X242292089Y-65673352D01*
X242424003Y-65740566D01*
X242424005Y-65740566D01*
X242424008Y-65740568D01*
X242522928Y-65772709D01*
X242648631Y-65813553D01*
X242881903Y-65850500D01*
X242881908Y-65850500D01*
X243118097Y-65850500D01*
X243351368Y-65813553D01*
X243380563Y-65804067D01*
X243575992Y-65740568D01*
X243786433Y-65633343D01*
X243977510Y-65494517D01*
X244144517Y-65327510D01*
X244283343Y-65136433D01*
X244390568Y-64925992D01*
X244463553Y-64701368D01*
X244470160Y-64659651D01*
X244500500Y-64468097D01*
X244500500Y-64231902D01*
X255999500Y-64231902D01*
X255999500Y-64468097D01*
X256036446Y-64701368D01*
X256109433Y-64925996D01*
X256211669Y-65126644D01*
X256216657Y-65136433D01*
X256355483Y-65327510D01*
X256522490Y-65494517D01*
X256713567Y-65633343D01*
X256792089Y-65673352D01*
X256924003Y-65740566D01*
X256924005Y-65740566D01*
X256924008Y-65740568D01*
X257022928Y-65772709D01*
X257148631Y-65813553D01*
X257381903Y-65850500D01*
X257381908Y-65850500D01*
X257618097Y-65850500D01*
X257851368Y-65813553D01*
X257880563Y-65804067D01*
X258075992Y-65740568D01*
X258286433Y-65633343D01*
X258477510Y-65494517D01*
X258644517Y-65327510D01*
X258783343Y-65136433D01*
X258890568Y-64925992D01*
X258963553Y-64701368D01*
X258970160Y-64659651D01*
X259000500Y-64468097D01*
X259000500Y-64231902D01*
X258963553Y-63998631D01*
X258922338Y-63871786D01*
X258890568Y-63774008D01*
X258890566Y-63774005D01*
X258890566Y-63774003D01*
X258827369Y-63649973D01*
X258783343Y-63563567D01*
X258644517Y-63372490D01*
X258477510Y-63205483D01*
X258286433Y-63066657D01*
X258263588Y-63055017D01*
X258075996Y-62959433D01*
X257851368Y-62886446D01*
X257618097Y-62849500D01*
X257618092Y-62849500D01*
X257381908Y-62849500D01*
X257381903Y-62849500D01*
X257148631Y-62886446D01*
X256924003Y-62959433D01*
X256713566Y-63066657D01*
X256633774Y-63124630D01*
X256522490Y-63205483D01*
X256522488Y-63205485D01*
X256522487Y-63205485D01*
X256355485Y-63372487D01*
X256355485Y-63372488D01*
X256355483Y-63372490D01*
X256310391Y-63434554D01*
X256216657Y-63563566D01*
X256109433Y-63774003D01*
X256036446Y-63998631D01*
X255999500Y-64231902D01*
X244500500Y-64231902D01*
X244463553Y-63998631D01*
X244422338Y-63871786D01*
X244390568Y-63774008D01*
X244390566Y-63774005D01*
X244390566Y-63774003D01*
X244327369Y-63649973D01*
X244283343Y-63563567D01*
X244144517Y-63372490D01*
X243977510Y-63205483D01*
X243970401Y-63200318D01*
X243927735Y-63144988D01*
X243921756Y-63075375D01*
X243954362Y-63013580D01*
X243970401Y-62999682D01*
X243971704Y-62998735D01*
X243977510Y-62994517D01*
X244144517Y-62827510D01*
X244283343Y-62636433D01*
X244390568Y-62425992D01*
X244463553Y-62201368D01*
X244471438Y-62151583D01*
X244500500Y-61968097D01*
X244500500Y-61731902D01*
X244463553Y-61498631D01*
X244420557Y-61366305D01*
X244390568Y-61274008D01*
X244390566Y-61274005D01*
X244390566Y-61274003D01*
X244330137Y-61155405D01*
X244283343Y-61063567D01*
X244213793Y-60967840D01*
X244190314Y-60902036D01*
X244206139Y-60833982D01*
X244239801Y-60795689D01*
X244242328Y-60793796D01*
X244242331Y-60793796D01*
X244357546Y-60707546D01*
X244443796Y-60592331D01*
X244494091Y-60457483D01*
X244500500Y-60397873D01*
X244500499Y-59231902D01*
X255999500Y-59231902D01*
X255999500Y-59468097D01*
X256036446Y-59701368D01*
X256109433Y-59925996D01*
X256212467Y-60128210D01*
X256216657Y-60136433D01*
X256355483Y-60327510D01*
X256522490Y-60494517D01*
X256713567Y-60633343D01*
X256810854Y-60682913D01*
X256924003Y-60740566D01*
X256924005Y-60740566D01*
X256924008Y-60740568D01*
X257003843Y-60766508D01*
X257148631Y-60813553D01*
X257381903Y-60850500D01*
X257381908Y-60850500D01*
X257618097Y-60850500D01*
X257851368Y-60813553D01*
X257852513Y-60813181D01*
X258075992Y-60740568D01*
X258286433Y-60633343D01*
X258477510Y-60494517D01*
X258644517Y-60327510D01*
X258783343Y-60136433D01*
X258890568Y-59925992D01*
X258963553Y-59701368D01*
X258970160Y-59659651D01*
X259000500Y-59468097D01*
X259000500Y-59231902D01*
X258963553Y-58998631D01*
X258922844Y-58873344D01*
X258890568Y-58774008D01*
X258890566Y-58774005D01*
X258890566Y-58774003D01*
X258804018Y-58604144D01*
X258783343Y-58563567D01*
X258644517Y-58372490D01*
X258477510Y-58205483D01*
X258286433Y-58066657D01*
X258249752Y-58047967D01*
X258075996Y-57959433D01*
X257851368Y-57886446D01*
X257618097Y-57849500D01*
X257618092Y-57849500D01*
X257381908Y-57849500D01*
X257381903Y-57849500D01*
X257148631Y-57886446D01*
X256924003Y-57959433D01*
X256713566Y-58066657D01*
X256522487Y-58205485D01*
X256355485Y-58372487D01*
X256355485Y-58372488D01*
X256355483Y-58372490D01*
X256318053Y-58424008D01*
X256216657Y-58563566D01*
X256109433Y-58774003D01*
X256036446Y-58998631D01*
X255999500Y-59231902D01*
X244500499Y-59231902D01*
X244500499Y-58302128D01*
X244494091Y-58242517D01*
X244491965Y-58236818D01*
X244443797Y-58107671D01*
X244443793Y-58107664D01*
X244357547Y-57992455D01*
X244357544Y-57992452D01*
X244242335Y-57906206D01*
X244242328Y-57906202D01*
X244107482Y-57855908D01*
X244107483Y-57855908D01*
X244047883Y-57849501D01*
X244047881Y-57849500D01*
X244047873Y-57849500D01*
X244047864Y-57849500D01*
X241952129Y-57849500D01*
X241952123Y-57849501D01*
X241892516Y-57855908D01*
X241757671Y-57906202D01*
X241757664Y-57906206D01*
X241642455Y-57992452D01*
X241642452Y-57992455D01*
X241556206Y-58107664D01*
X241556202Y-58107671D01*
X241505908Y-58242517D01*
X241501126Y-58287003D01*
X241499501Y-58302123D01*
X241499500Y-58302135D01*
X240074162Y-58302135D01*
X239977510Y-58205483D01*
X239786433Y-58066657D01*
X239749752Y-58047967D01*
X239575996Y-57959433D01*
X239351368Y-57886446D01*
X239118097Y-57849500D01*
X239118092Y-57849500D01*
X238881908Y-57849500D01*
X238881903Y-57849500D01*
X238648631Y-57886446D01*
X238424003Y-57959433D01*
X238213566Y-58066657D01*
X238022487Y-58205485D01*
X237855485Y-58372487D01*
X237855485Y-58372488D01*
X237855483Y-58372490D01*
X237818053Y-58424008D01*
X237716657Y-58563566D01*
X237609433Y-58774003D01*
X237536446Y-58998631D01*
X237499500Y-59231902D01*
X226000499Y-59231902D01*
X226000499Y-58302128D01*
X225994091Y-58242517D01*
X225991965Y-58236818D01*
X225943797Y-58107671D01*
X225943793Y-58107664D01*
X225857547Y-57992455D01*
X225857544Y-57992452D01*
X225742335Y-57906206D01*
X225742328Y-57906202D01*
X225607482Y-57855908D01*
X225607483Y-57855908D01*
X225547883Y-57849501D01*
X225547881Y-57849500D01*
X225547873Y-57849500D01*
X225547864Y-57849500D01*
X223452129Y-57849500D01*
X223452123Y-57849501D01*
X223392516Y-57855908D01*
X223257671Y-57906202D01*
X223257664Y-57906206D01*
X223142455Y-57992452D01*
X223142452Y-57992455D01*
X223056206Y-58107664D01*
X223056202Y-58107671D01*
X223005908Y-58242517D01*
X223001126Y-58287003D01*
X222999501Y-58302123D01*
X222999500Y-58302135D01*
X222999500Y-58879636D01*
X222979815Y-58946675D01*
X222937500Y-58987023D01*
X222881287Y-59019477D01*
X222881282Y-59019481D01*
X221519481Y-60381282D01*
X221519479Y-60381285D01*
X221494512Y-60424529D01*
X221443944Y-60472744D01*
X221375337Y-60485966D01*
X221310472Y-60459998D01*
X221299444Y-60450209D01*
X220987590Y-60138355D01*
X220987588Y-60138352D01*
X220868717Y-60019481D01*
X220868709Y-60019475D01*
X220749241Y-59950501D01*
X220749238Y-59950500D01*
X220748202Y-59949902D01*
X220731785Y-59940423D01*
X220579057Y-59899499D01*
X220420943Y-59899499D01*
X220413347Y-59899499D01*
X220413331Y-59899500D01*
X214550097Y-59899500D01*
X214483058Y-59879815D01*
X214462416Y-59863181D01*
X213825304Y-59226069D01*
X213791819Y-59164746D01*
X213796803Y-59095054D01*
X213825304Y-59050706D01*
X213828038Y-59047971D01*
X213828044Y-59047968D01*
X213947968Y-58928044D01*
X214037003Y-58783697D01*
X214090349Y-58622708D01*
X214100500Y-58523345D01*
X214100499Y-57976656D01*
X214096110Y-57933694D01*
X214090349Y-57877292D01*
X214090348Y-57877289D01*
X214074030Y-57828044D01*
X214037003Y-57716303D01*
X214036999Y-57716297D01*
X214036998Y-57716294D01*
X213947970Y-57571959D01*
X213947967Y-57571955D01*
X213828044Y-57452032D01*
X213828040Y-57452029D01*
X213683705Y-57363001D01*
X213683699Y-57362998D01*
X213683697Y-57362997D01*
X213627849Y-57344491D01*
X213522709Y-57309651D01*
X213423346Y-57299500D01*
X212576662Y-57299500D01*
X212576644Y-57299501D01*
X212477292Y-57309650D01*
X212477289Y-57309651D01*
X212316305Y-57362996D01*
X212316294Y-57363001D01*
X212171959Y-57452029D01*
X212171955Y-57452032D01*
X212052032Y-57571955D01*
X212052029Y-57571959D01*
X211963001Y-57716294D01*
X211962996Y-57716305D01*
X211909651Y-57877290D01*
X211899500Y-57976647D01*
X211899500Y-58523337D01*
X211899501Y-58523355D01*
X211909650Y-58622707D01*
X211909651Y-58622710D01*
X211962996Y-58783694D01*
X211963001Y-58783705D01*
X212052029Y-58928040D01*
X212052032Y-58928044D01*
X212171955Y-59047967D01*
X212171959Y-59047970D01*
X212316302Y-59137003D01*
X212322853Y-59140058D01*
X212322100Y-59141672D01*
X212371933Y-59176160D01*
X212398768Y-59240671D01*
X212399499Y-59254112D01*
X212399499Y-59329054D01*
X212399498Y-59329054D01*
X212440014Y-59480261D01*
X212440423Y-59481785D01*
X212462335Y-59519737D01*
X212480096Y-59550500D01*
X212519479Y-59618714D01*
X212519481Y-59618717D01*
X212638349Y-59737585D01*
X212638355Y-59737590D01*
X213765139Y-60864374D01*
X213765149Y-60864385D01*
X213769479Y-60868715D01*
X213769480Y-60868716D01*
X213881284Y-60980520D01*
X213949621Y-61019974D01*
X214018215Y-61059577D01*
X214170943Y-61100501D01*
X214170946Y-61100501D01*
X214336653Y-61100501D01*
X214336669Y-61100500D01*
X218404772Y-61100500D01*
X218471811Y-61120185D01*
X218517566Y-61172989D01*
X218527510Y-61242147D01*
X218510310Y-61289596D01*
X218502642Y-61302029D01*
X218462999Y-61366298D01*
X218462996Y-61366305D01*
X218409651Y-61527290D01*
X218399500Y-61626647D01*
X218399500Y-62099902D01*
X218379815Y-62166941D01*
X218363181Y-62187583D01*
X215687584Y-64863181D01*
X215626261Y-64896666D01*
X215599903Y-64899500D01*
X204079766Y-64899500D01*
X204012727Y-64879815D01*
X204010875Y-64878602D01*
X203879185Y-64790609D01*
X203879172Y-64790602D01*
X203733501Y-64730264D01*
X203733489Y-64730261D01*
X203578845Y-64699500D01*
X203578842Y-64699500D01*
X203421158Y-64699500D01*
X203421155Y-64699500D01*
X203266510Y-64730261D01*
X203266498Y-64730264D01*
X203120827Y-64790602D01*
X203120814Y-64790609D01*
X202989711Y-64878210D01*
X202989707Y-64878213D01*
X202878213Y-64989707D01*
X202878210Y-64989711D01*
X202790609Y-65120814D01*
X202790602Y-65120827D01*
X202730264Y-65266498D01*
X202730261Y-65266510D01*
X202699500Y-65421153D01*
X202699500Y-65578846D01*
X202730261Y-65733489D01*
X202730264Y-65733501D01*
X202790602Y-65879172D01*
X202790609Y-65879185D01*
X202878210Y-66010288D01*
X202878213Y-66010292D01*
X202989707Y-66121786D01*
X202989711Y-66121789D01*
X203120814Y-66209390D01*
X203120827Y-66209397D01*
X203246141Y-66261303D01*
X203266503Y-66269737D01*
X203421153Y-66300499D01*
X203421156Y-66300500D01*
X203421158Y-66300500D01*
X203578844Y-66300500D01*
X203578845Y-66300499D01*
X203733497Y-66269737D01*
X203879179Y-66209394D01*
X203897854Y-66196916D01*
X204010875Y-66121398D01*
X204077553Y-66100520D01*
X204079766Y-66100500D01*
X215813331Y-66100500D01*
X215813347Y-66100501D01*
X215820943Y-66100501D01*
X215979054Y-66100501D01*
X215979057Y-66100501D01*
X216131785Y-66059577D01*
X216181904Y-66030639D01*
X216268716Y-65980520D01*
X216380520Y-65868716D01*
X216380520Y-65868714D01*
X216390728Y-65858507D01*
X216390729Y-65858504D01*
X216536208Y-65713026D01*
X216597528Y-65679543D01*
X216667220Y-65684527D01*
X216723153Y-65726399D01*
X216738447Y-65753256D01*
X216790604Y-65879176D01*
X216790609Y-65879185D01*
X216878210Y-66010288D01*
X216878213Y-66010292D01*
X216989707Y-66121786D01*
X216989711Y-66121789D01*
X217120814Y-66209390D01*
X217120827Y-66209397D01*
X217246141Y-66261303D01*
X217266503Y-66269737D01*
X217421153Y-66300499D01*
X217421156Y-66300500D01*
X217421158Y-66300500D01*
X217578844Y-66300500D01*
X217578845Y-66300499D01*
X217733497Y-66269737D01*
X217821008Y-66233489D01*
X217877864Y-66209939D01*
X217925316Y-66200500D01*
X218434996Y-66200500D01*
X218502035Y-66220185D01*
X218540534Y-66259403D01*
X218541706Y-66261303D01*
X218552031Y-66278043D01*
X218671955Y-66397967D01*
X218671959Y-66397970D01*
X218816294Y-66486998D01*
X218816297Y-66486999D01*
X218816303Y-66487003D01*
X218977292Y-66540349D01*
X219076655Y-66550500D01*
X219923344Y-66550499D01*
X219923352Y-66550498D01*
X219923355Y-66550498D01*
X219977760Y-66544940D01*
X220022708Y-66540349D01*
X220183697Y-66487003D01*
X220328044Y-66397968D01*
X220437819Y-66288193D01*
X220499142Y-66254708D01*
X220568834Y-66259692D01*
X220624767Y-66301564D01*
X220649184Y-66367028D01*
X220649500Y-66375874D01*
X220649500Y-66849902D01*
X220629815Y-66916941D01*
X220613181Y-66937583D01*
X219637582Y-67913181D01*
X219576259Y-67946666D01*
X219549901Y-67949500D01*
X219076662Y-67949500D01*
X219076644Y-67949501D01*
X218977292Y-67959650D01*
X218977285Y-67959652D01*
X218923402Y-67977507D01*
X218853573Y-67979908D01*
X218796718Y-67947482D01*
X218584573Y-67735337D01*
X218551088Y-67674014D01*
X218550637Y-67671847D01*
X218542362Y-67630246D01*
X218519737Y-67516503D01*
X218510539Y-67494297D01*
X218459397Y-67370827D01*
X218459390Y-67370814D01*
X218371789Y-67239711D01*
X218371786Y-67239707D01*
X218260292Y-67128213D01*
X218260288Y-67128210D01*
X218129185Y-67040609D01*
X218129172Y-67040602D01*
X217983501Y-66980264D01*
X217983489Y-66980261D01*
X217828845Y-66949500D01*
X217828842Y-66949500D01*
X217671158Y-66949500D01*
X217671155Y-66949500D01*
X217516510Y-66980261D01*
X217516498Y-66980264D01*
X217370827Y-67040602D01*
X217370814Y-67040609D01*
X217239711Y-67128210D01*
X217239707Y-67128213D01*
X217128213Y-67239707D01*
X217128210Y-67239711D01*
X217040609Y-67370814D01*
X217040602Y-67370827D01*
X216980264Y-67516498D01*
X216980261Y-67516510D01*
X216949500Y-67671153D01*
X216949500Y-67828846D01*
X216980261Y-67983489D01*
X216980264Y-67983501D01*
X217040602Y-68129172D01*
X217040609Y-68129185D01*
X217128210Y-68260288D01*
X217128213Y-68260292D01*
X217239707Y-68371786D01*
X217239711Y-68371789D01*
X217370814Y-68459390D01*
X217370827Y-68459397D01*
X217516498Y-68519735D01*
X217516503Y-68519737D01*
X217581147Y-68532595D01*
X217671849Y-68550638D01*
X217733760Y-68583023D01*
X217735339Y-68584574D01*
X218382020Y-69231256D01*
X218412045Y-69279933D01*
X218462996Y-69433694D01*
X218463001Y-69433705D01*
X218552029Y-69578040D01*
X218552032Y-69578044D01*
X218671955Y-69697967D01*
X218671959Y-69697970D01*
X218816294Y-69786998D01*
X218816297Y-69786999D01*
X218816303Y-69787003D01*
X218977292Y-69840349D01*
X219076655Y-69850500D01*
X219923344Y-69850499D01*
X219923352Y-69850498D01*
X219923355Y-69850498D01*
X219977760Y-69844940D01*
X220022708Y-69840349D01*
X220183697Y-69787003D01*
X220328044Y-69697968D01*
X220447968Y-69578044D01*
X220537003Y-69433697D01*
X220590349Y-69272708D01*
X220600500Y-69173345D01*
X220600499Y-68700096D01*
X220620183Y-68633058D01*
X220636813Y-68612421D01*
X221187819Y-68061416D01*
X221249142Y-68027931D01*
X221318834Y-68032915D01*
X221374767Y-68074787D01*
X221399184Y-68140251D01*
X221399500Y-68149097D01*
X221399500Y-71949903D01*
X221379815Y-72016942D01*
X221363181Y-72037584D01*
X219787584Y-73613181D01*
X219726261Y-73646666D01*
X219699903Y-73649500D01*
X143749097Y-73649500D01*
X143682058Y-73629815D01*
X143636303Y-73577011D01*
X143626359Y-73507853D01*
X143655384Y-73444297D01*
X143661416Y-73437819D01*
X144118717Y-72980518D01*
X145505746Y-71593487D01*
X145567067Y-71560004D01*
X145636758Y-71564988D01*
X145692692Y-71606860D01*
X145715042Y-71656979D01*
X145730261Y-71733489D01*
X145730264Y-71733501D01*
X145790602Y-71879172D01*
X145790609Y-71879185D01*
X145878210Y-72010288D01*
X145878213Y-72010292D01*
X145989707Y-72121786D01*
X145989711Y-72121789D01*
X146120814Y-72209390D01*
X146120827Y-72209397D01*
X146266498Y-72269735D01*
X146266503Y-72269737D01*
X146406966Y-72297677D01*
X146421153Y-72300499D01*
X146421156Y-72300500D01*
X146421158Y-72300500D01*
X146578844Y-72300500D01*
X146578845Y-72300499D01*
X146733497Y-72269737D01*
X146879179Y-72209394D01*
X146907121Y-72190724D01*
X147010875Y-72121398D01*
X147077553Y-72100520D01*
X147079766Y-72100500D01*
X148163331Y-72100500D01*
X148163347Y-72100501D01*
X148170943Y-72100501D01*
X148329054Y-72100501D01*
X148329057Y-72100501D01*
X148406402Y-72079776D01*
X148476249Y-72081439D01*
X148534111Y-72120601D01*
X148541595Y-72130660D01*
X148628210Y-72260288D01*
X148628213Y-72260292D01*
X148739707Y-72371786D01*
X148739711Y-72371789D01*
X148870814Y-72459390D01*
X148870827Y-72459397D01*
X149015885Y-72519481D01*
X149016503Y-72519737D01*
X149171158Y-72550500D01*
X149171847Y-72550637D01*
X149233758Y-72583022D01*
X149235337Y-72584573D01*
X149281284Y-72630520D01*
X149281286Y-72630521D01*
X149281290Y-72630524D01*
X149391750Y-72694297D01*
X149418216Y-72709577D01*
X149530019Y-72739534D01*
X149570942Y-72750500D01*
X149570943Y-72750500D01*
X157184996Y-72750500D01*
X157252035Y-72770185D01*
X157290534Y-72809403D01*
X157292826Y-72813119D01*
X157302031Y-72828043D01*
X157421955Y-72947967D01*
X157421959Y-72947970D01*
X157566294Y-73036998D01*
X157566297Y-73036999D01*
X157566303Y-73037003D01*
X157727292Y-73090349D01*
X157826655Y-73100500D01*
X158673344Y-73100499D01*
X158673352Y-73100498D01*
X158673355Y-73100498D01*
X158727760Y-73094940D01*
X158772708Y-73090349D01*
X158933697Y-73037003D01*
X159078044Y-72947968D01*
X159197968Y-72828044D01*
X159287003Y-72683697D01*
X159340349Y-72522708D01*
X159350500Y-72423345D01*
X159350499Y-71876656D01*
X159349950Y-71871286D01*
X159340349Y-71777292D01*
X159340348Y-71777289D01*
X159334194Y-71758718D01*
X159287003Y-71616303D01*
X159286999Y-71616297D01*
X159286998Y-71616294D01*
X159197970Y-71471959D01*
X159197967Y-71471955D01*
X159078044Y-71352032D01*
X159078040Y-71352029D01*
X158933705Y-71263001D01*
X158933699Y-71262998D01*
X158933697Y-71262997D01*
X158855294Y-71237017D01*
X158772709Y-71209651D01*
X158673346Y-71199500D01*
X157826662Y-71199500D01*
X157826644Y-71199501D01*
X157727292Y-71209650D01*
X157727289Y-71209651D01*
X157566305Y-71262996D01*
X157566294Y-71263001D01*
X157421959Y-71352029D01*
X157421955Y-71352032D01*
X157302031Y-71471956D01*
X157296747Y-71480524D01*
X157292393Y-71487584D01*
X157290535Y-71490596D01*
X157238588Y-71537321D01*
X157184996Y-71549500D01*
X150116259Y-71549500D01*
X150049220Y-71529815D01*
X150003465Y-71477011D01*
X150001698Y-71472952D01*
X149959397Y-71370827D01*
X149959390Y-71370814D01*
X149871789Y-71239711D01*
X149871786Y-71239707D01*
X149760292Y-71128213D01*
X149760288Y-71128210D01*
X149712517Y-71096290D01*
X149667712Y-71042677D01*
X149659005Y-70973352D01*
X149689160Y-70910325D01*
X149693727Y-70905507D01*
X149747949Y-70851286D01*
X150212417Y-70386819D01*
X150273740Y-70353334D01*
X150300098Y-70350500D01*
X150920234Y-70350500D01*
X150987273Y-70370185D01*
X150989125Y-70371398D01*
X151120814Y-70459390D01*
X151120827Y-70459397D01*
X151265885Y-70519481D01*
X151266503Y-70519737D01*
X151421153Y-70550499D01*
X151421156Y-70550500D01*
X151421158Y-70550500D01*
X151578844Y-70550500D01*
X151578845Y-70550499D01*
X151733497Y-70519737D01*
X151856674Y-70468716D01*
X151879172Y-70459397D01*
X151879172Y-70459396D01*
X151879179Y-70459394D01*
X152010289Y-70371789D01*
X152121789Y-70260289D01*
X152209394Y-70129179D01*
X152269737Y-69983497D01*
X152300500Y-69828842D01*
X152300500Y-69671158D01*
X152300500Y-69671155D01*
X152300499Y-69671153D01*
X152286086Y-69598691D01*
X152292313Y-69529100D01*
X152335176Y-69473922D01*
X152401066Y-69450678D01*
X152407703Y-69450500D01*
X157184996Y-69450500D01*
X157252035Y-69470185D01*
X157290535Y-69509404D01*
X157302031Y-69528043D01*
X157421955Y-69647967D01*
X157421959Y-69647970D01*
X157566294Y-69736998D01*
X157566297Y-69736999D01*
X157566303Y-69737003D01*
X157727292Y-69790349D01*
X157826655Y-69800500D01*
X158673344Y-69800499D01*
X158673352Y-69800498D01*
X158673355Y-69800498D01*
X158728263Y-69794889D01*
X158772708Y-69790349D01*
X158933697Y-69737003D01*
X159078044Y-69647968D01*
X159197968Y-69528044D01*
X159209465Y-69509403D01*
X159217051Y-69502580D01*
X159221291Y-69493297D01*
X159242589Y-69479609D01*
X159261412Y-69462679D01*
X159273048Y-69460034D01*
X159280069Y-69455523D01*
X159315004Y-69450500D01*
X159563331Y-69450500D01*
X159563347Y-69450501D01*
X159570943Y-69450501D01*
X159729054Y-69450501D01*
X159729057Y-69450501D01*
X159881785Y-69409577D01*
X159952558Y-69368716D01*
X160018716Y-69330520D01*
X160130520Y-69218716D01*
X160130520Y-69218714D01*
X160140724Y-69208511D01*
X160140727Y-69208506D01*
X160980520Y-68368716D01*
X161059577Y-68231784D01*
X161100501Y-68079057D01*
X161100501Y-67920942D01*
X161100501Y-67913347D01*
X161100500Y-67913329D01*
X161100500Y-67300098D01*
X161120185Y-67233059D01*
X161136819Y-67212417D01*
X161178293Y-67170943D01*
X161230520Y-67118716D01*
X161309577Y-66981784D01*
X161340007Y-66868216D01*
X161350500Y-66829058D01*
X161350500Y-66670943D01*
X161350500Y-66670942D01*
X161350500Y-66579765D01*
X161370185Y-66512726D01*
X161371398Y-66510874D01*
X161387352Y-66486998D01*
X161459394Y-66379179D01*
X161519737Y-66233497D01*
X161550500Y-66078842D01*
X161550500Y-65921158D01*
X161550500Y-65921155D01*
X161550499Y-65921153D01*
X161540679Y-65871786D01*
X161519737Y-65766503D01*
X161514250Y-65753256D01*
X161459397Y-65620827D01*
X161459390Y-65620814D01*
X161371789Y-65489711D01*
X161371786Y-65489707D01*
X161260292Y-65378213D01*
X161260288Y-65378210D01*
X161129185Y-65290609D01*
X161129172Y-65290602D01*
X160983501Y-65230264D01*
X160983489Y-65230261D01*
X160828845Y-65199500D01*
X160828842Y-65199500D01*
X160671158Y-65199500D01*
X160671155Y-65199500D01*
X160516510Y-65230261D01*
X160516498Y-65230264D01*
X160370827Y-65290602D01*
X160370814Y-65290609D01*
X160239711Y-65378210D01*
X160239707Y-65378213D01*
X160128213Y-65489707D01*
X160128210Y-65489711D01*
X160040609Y-65620814D01*
X160040602Y-65620827D01*
X159980264Y-65766498D01*
X159980261Y-65766510D01*
X159949500Y-65921153D01*
X159949500Y-66078846D01*
X159980261Y-66233489D01*
X159980264Y-66233501D01*
X160040602Y-66379172D01*
X160040608Y-66379183D01*
X160076586Y-66433028D01*
X160083562Y-66455308D01*
X160094707Y-66475825D01*
X160093807Y-66488029D01*
X160097463Y-66499705D01*
X160091286Y-66522217D01*
X160089570Y-66545506D01*
X160081432Y-66558137D01*
X160078978Y-66567085D01*
X160072587Y-66576446D01*
X160067337Y-66583426D01*
X160019480Y-66631284D01*
X159984015Y-66692712D01*
X159980256Y-66699221D01*
X159980254Y-66699225D01*
X159940424Y-66768213D01*
X159940423Y-66768215D01*
X159899499Y-66920943D01*
X159899499Y-66920945D01*
X159899499Y-67089046D01*
X159899500Y-67089059D01*
X159899500Y-67699902D01*
X159879815Y-67766941D01*
X159863181Y-67787583D01*
X159437584Y-68213181D01*
X159410656Y-68227884D01*
X159384838Y-68244477D01*
X159378637Y-68245368D01*
X159376261Y-68246666D01*
X159349903Y-68249500D01*
X159315004Y-68249500D01*
X159247965Y-68229815D01*
X159209465Y-68190596D01*
X159197968Y-68171956D01*
X159078044Y-68052032D01*
X159078040Y-68052029D01*
X158933705Y-67963001D01*
X158933699Y-67962998D01*
X158933697Y-67962997D01*
X158917603Y-67957664D01*
X158772709Y-67909651D01*
X158673346Y-67899500D01*
X157826662Y-67899500D01*
X157826644Y-67899501D01*
X157727292Y-67909650D01*
X157727289Y-67909651D01*
X157566305Y-67962996D01*
X157566294Y-67963001D01*
X157421959Y-68052029D01*
X157421955Y-68052032D01*
X157302031Y-68171956D01*
X157290535Y-68190596D01*
X157238588Y-68237321D01*
X157184996Y-68249500D01*
X150182940Y-68249500D01*
X150115901Y-68229815D01*
X150095263Y-68213185D01*
X150010289Y-68128211D01*
X150010288Y-68128210D01*
X150010287Y-68128209D01*
X149879185Y-68040609D01*
X149879172Y-68040602D01*
X149733501Y-67980264D01*
X149733489Y-67980261D01*
X149578845Y-67949500D01*
X149578842Y-67949500D01*
X149421158Y-67949500D01*
X149421155Y-67949500D01*
X149298690Y-67973860D01*
X149229099Y-67967633D01*
X149173921Y-67924770D01*
X149150677Y-67858880D01*
X149150499Y-67852243D01*
X149150499Y-66589572D01*
X149170184Y-66522533D01*
X149222988Y-66476778D01*
X149292146Y-66466834D01*
X149355702Y-66495859D01*
X149380036Y-66524474D01*
X149407288Y-66568656D01*
X149531344Y-66692712D01*
X149680666Y-66784814D01*
X149847203Y-66839999D01*
X149949991Y-66850500D01*
X151150008Y-66850499D01*
X151252797Y-66839999D01*
X151419334Y-66784814D01*
X151568656Y-66692712D01*
X151692712Y-66568656D01*
X151784814Y-66419334D01*
X151839999Y-66252797D01*
X151850500Y-66150009D01*
X151850499Y-65171153D01*
X156199500Y-65171153D01*
X156199500Y-65328846D01*
X156230261Y-65483489D01*
X156230264Y-65483501D01*
X156290602Y-65629172D01*
X156290609Y-65629185D01*
X156378210Y-65760288D01*
X156378213Y-65760292D01*
X156489707Y-65871786D01*
X156489711Y-65871789D01*
X156620814Y-65959390D01*
X156620827Y-65959397D01*
X156766498Y-66019735D01*
X156766503Y-66019737D01*
X156921153Y-66050499D01*
X156921156Y-66050500D01*
X156921158Y-66050500D01*
X157078844Y-66050500D01*
X157178474Y-66030682D01*
X157248066Y-66036909D01*
X157296798Y-66073063D01*
X157296925Y-66072937D01*
X157297777Y-66073789D01*
X157299932Y-66075388D01*
X157302032Y-66078044D01*
X157421955Y-66197967D01*
X157421959Y-66197970D01*
X157566294Y-66286998D01*
X157566297Y-66286999D01*
X157566303Y-66287003D01*
X157727292Y-66340349D01*
X157826655Y-66350500D01*
X158673344Y-66350499D01*
X158673352Y-66350498D01*
X158673355Y-66350498D01*
X158751494Y-66342516D01*
X158772708Y-66340349D01*
X158933697Y-66287003D01*
X159078044Y-66197968D01*
X159197968Y-66078044D01*
X159287003Y-65933697D01*
X159340349Y-65772708D01*
X159350500Y-65673345D01*
X159350499Y-65126656D01*
X159340349Y-65027292D01*
X159287003Y-64866303D01*
X159286999Y-64866297D01*
X159286998Y-64866294D01*
X159197970Y-64721959D01*
X159197967Y-64721955D01*
X159078044Y-64602032D01*
X159078040Y-64602029D01*
X158933705Y-64513001D01*
X158933699Y-64512998D01*
X158933697Y-64512997D01*
X158884220Y-64496602D01*
X158772709Y-64459651D01*
X158673346Y-64449500D01*
X157826662Y-64449500D01*
X157826644Y-64449501D01*
X157727292Y-64459650D01*
X157727289Y-64459651D01*
X157566305Y-64512996D01*
X157566298Y-64513000D01*
X157515288Y-64544462D01*
X157447895Y-64562901D01*
X157384751Y-64543107D01*
X157384553Y-64543479D01*
X157382590Y-64542429D01*
X157381308Y-64542028D01*
X157379187Y-64540611D01*
X157379183Y-64540609D01*
X157379179Y-64540606D01*
X157379175Y-64540604D01*
X157379171Y-64540602D01*
X157233501Y-64480264D01*
X157233489Y-64480261D01*
X157078845Y-64449500D01*
X157078842Y-64449500D01*
X156921158Y-64449500D01*
X156921155Y-64449500D01*
X156766510Y-64480261D01*
X156766498Y-64480264D01*
X156620827Y-64540602D01*
X156620814Y-64540609D01*
X156489711Y-64628210D01*
X156489707Y-64628213D01*
X156378213Y-64739707D01*
X156378210Y-64739711D01*
X156290609Y-64870814D01*
X156290602Y-64870827D01*
X156230264Y-65016498D01*
X156230261Y-65016510D01*
X156199500Y-65171153D01*
X151850499Y-65171153D01*
X151850499Y-64840349D01*
X151850499Y-63626647D01*
X161149500Y-63626647D01*
X161149500Y-64173337D01*
X161149501Y-64173355D01*
X161159650Y-64272707D01*
X161159651Y-64272710D01*
X161212996Y-64433694D01*
X161213001Y-64433705D01*
X161302029Y-64578040D01*
X161302032Y-64578044D01*
X161421955Y-64697967D01*
X161421959Y-64697970D01*
X161566294Y-64786998D01*
X161566297Y-64786999D01*
X161566303Y-64787003D01*
X161727292Y-64840349D01*
X161826655Y-64850500D01*
X162673344Y-64850499D01*
X162673352Y-64850498D01*
X162673355Y-64850498D01*
X162727760Y-64844940D01*
X162772708Y-64840349D01*
X162933697Y-64787003D01*
X162987080Y-64754075D01*
X163054467Y-64735636D01*
X163121131Y-64756557D01*
X163139855Y-64771934D01*
X163239707Y-64871786D01*
X163239711Y-64871789D01*
X163370814Y-64959390D01*
X163370827Y-64959397D01*
X163516498Y-65019735D01*
X163516503Y-65019737D01*
X163671153Y-65050499D01*
X163671156Y-65050500D01*
X163671158Y-65050500D01*
X163828844Y-65050500D01*
X163828845Y-65050499D01*
X163983497Y-65019737D01*
X164129179Y-64959394D01*
X164260289Y-64871789D01*
X164371789Y-64760289D01*
X164459394Y-64629179D01*
X164519737Y-64483497D01*
X164550500Y-64328842D01*
X164550500Y-64171158D01*
X164550500Y-64171155D01*
X164550499Y-64171153D01*
X164549879Y-64168034D01*
X164519737Y-64016503D01*
X164519735Y-64016498D01*
X164459397Y-63870827D01*
X164459390Y-63870814D01*
X164371789Y-63739711D01*
X164371786Y-63739707D01*
X164260292Y-63628213D01*
X164260288Y-63628210D01*
X164129185Y-63540609D01*
X164129172Y-63540602D01*
X163983501Y-63480264D01*
X163983491Y-63480261D01*
X163828151Y-63449362D01*
X163788563Y-63434084D01*
X163775462Y-63426226D01*
X163768716Y-63419480D01*
X163649240Y-63350501D01*
X163644508Y-63347769D01*
X163631785Y-63340423D01*
X163479057Y-63299499D01*
X163320943Y-63299499D01*
X163315004Y-63299499D01*
X163247965Y-63279814D01*
X163209466Y-63240597D01*
X163197968Y-63221956D01*
X163078044Y-63102032D01*
X163078040Y-63102029D01*
X162933705Y-63013001D01*
X162933699Y-63012998D01*
X162933697Y-63012997D01*
X162890657Y-62998735D01*
X162772709Y-62959651D01*
X162673346Y-62949500D01*
X161826662Y-62949500D01*
X161826644Y-62949501D01*
X161727292Y-62959650D01*
X161727289Y-62959651D01*
X161566305Y-63012996D01*
X161566294Y-63013001D01*
X161421959Y-63102029D01*
X161421955Y-63102032D01*
X161302032Y-63221955D01*
X161302029Y-63221959D01*
X161213001Y-63366294D01*
X161212996Y-63366305D01*
X161159651Y-63527290D01*
X161149500Y-63626647D01*
X151850499Y-63626647D01*
X151850499Y-63623498D01*
X151850499Y-63549998D01*
X151850498Y-63549981D01*
X151839999Y-63447203D01*
X151839998Y-63447200D01*
X151837752Y-63440423D01*
X151784814Y-63280666D01*
X151692712Y-63131344D01*
X151623549Y-63062181D01*
X151590064Y-63000858D01*
X151595048Y-62931166D01*
X151636920Y-62875233D01*
X151702384Y-62850816D01*
X151711230Y-62850500D01*
X153663331Y-62850500D01*
X153663347Y-62850501D01*
X153670943Y-62850501D01*
X153829054Y-62850501D01*
X153829057Y-62850501D01*
X153981785Y-62809577D01*
X154036401Y-62778044D01*
X154118716Y-62730520D01*
X154230520Y-62618716D01*
X154230520Y-62618714D01*
X154240724Y-62608511D01*
X154240728Y-62608506D01*
X155487819Y-61361415D01*
X155549142Y-61327930D01*
X155618834Y-61332914D01*
X155674767Y-61374786D01*
X155699184Y-61440250D01*
X155699500Y-61449096D01*
X155699500Y-61578846D01*
X155730261Y-61733489D01*
X155730264Y-61733501D01*
X155790602Y-61879172D01*
X155790609Y-61879185D01*
X155878210Y-62010288D01*
X155878213Y-62010292D01*
X155989707Y-62121786D01*
X155989711Y-62121789D01*
X156120814Y-62209390D01*
X156120827Y-62209397D01*
X156265885Y-62269481D01*
X156266503Y-62269737D01*
X156331147Y-62282595D01*
X156421849Y-62300638D01*
X156438605Y-62309402D01*
X156457085Y-62313423D01*
X156482123Y-62332167D01*
X156483760Y-62333023D01*
X156485339Y-62334574D01*
X156615139Y-62464374D01*
X156615149Y-62464385D01*
X156619479Y-62468715D01*
X156619480Y-62468716D01*
X156731284Y-62580520D01*
X156812031Y-62627139D01*
X156868215Y-62659577D01*
X157020943Y-62700500D01*
X157179057Y-62700500D01*
X157184996Y-62700500D01*
X157252035Y-62720185D01*
X157290535Y-62759404D01*
X157302031Y-62778043D01*
X157421955Y-62897967D01*
X157421959Y-62897970D01*
X157566294Y-62986998D01*
X157566297Y-62986999D01*
X157566303Y-62987003D01*
X157727292Y-63040349D01*
X157826655Y-63050500D01*
X158673344Y-63050499D01*
X158673352Y-63050498D01*
X158673355Y-63050498D01*
X158727760Y-63044940D01*
X158772708Y-63040349D01*
X158933697Y-62987003D01*
X159078044Y-62897968D01*
X159197968Y-62778044D01*
X159197968Y-62778043D01*
X159197970Y-62778042D01*
X159197970Y-62778040D01*
X159204031Y-62768215D01*
X159287003Y-62633697D01*
X159340349Y-62472708D01*
X159350500Y-62373345D01*
X159350499Y-61826656D01*
X159349937Y-61821158D01*
X159340349Y-61727292D01*
X159340348Y-61727289D01*
X159339366Y-61724325D01*
X159287003Y-61566303D01*
X159286999Y-61566297D01*
X159286998Y-61566294D01*
X159197970Y-61421959D01*
X159197967Y-61421955D01*
X159078044Y-61302032D01*
X159078040Y-61302029D01*
X158933705Y-61213001D01*
X158933699Y-61212998D01*
X158933697Y-61212997D01*
X158866113Y-61190602D01*
X158772709Y-61159651D01*
X158673346Y-61149500D01*
X157826662Y-61149500D01*
X157826644Y-61149501D01*
X157727292Y-61159650D01*
X157727289Y-61159651D01*
X157566305Y-61212996D01*
X157566294Y-61213001D01*
X157436369Y-61293141D01*
X157368977Y-61311582D01*
X157302313Y-61290660D01*
X157257543Y-61237018D01*
X157256711Y-61235055D01*
X157209397Y-61120827D01*
X157209390Y-61120814D01*
X157121789Y-60989711D01*
X157121786Y-60989707D01*
X157010292Y-60878213D01*
X157010288Y-60878210D01*
X156879185Y-60790609D01*
X156879172Y-60790602D01*
X156733501Y-60730264D01*
X156733489Y-60730261D01*
X156578845Y-60699500D01*
X156578842Y-60699500D01*
X156449096Y-60699500D01*
X156382057Y-60679815D01*
X156336302Y-60627011D01*
X156326358Y-60557853D01*
X156355383Y-60494297D01*
X156361415Y-60487819D01*
X157230520Y-59618714D01*
X158118713Y-58730521D01*
X158118716Y-58730520D01*
X158212322Y-58636913D01*
X158273641Y-58603431D01*
X158273643Y-58603431D01*
X158283611Y-58604144D01*
X158343333Y-58608415D01*
X158387681Y-58636916D01*
X160715139Y-60964374D01*
X160715149Y-60964385D01*
X160719479Y-60968715D01*
X160719480Y-60968716D01*
X160831284Y-61080520D01*
X160897442Y-61118716D01*
X160968215Y-61159577D01*
X161120943Y-61200501D01*
X161184996Y-61200501D01*
X161252035Y-61220186D01*
X161290534Y-61259403D01*
X161302031Y-61278043D01*
X161421955Y-61397967D01*
X161421959Y-61397970D01*
X161566294Y-61486998D01*
X161566297Y-61486999D01*
X161566303Y-61487003D01*
X161727292Y-61540349D01*
X161826655Y-61550500D01*
X162673344Y-61550499D01*
X162673352Y-61550498D01*
X162673355Y-61550498D01*
X162727760Y-61544940D01*
X162772708Y-61540349D01*
X162933697Y-61487003D01*
X163078044Y-61397968D01*
X163197968Y-61278044D01*
X163287003Y-61133697D01*
X163340349Y-60972708D01*
X163350500Y-60873345D01*
X163350499Y-60326656D01*
X163349547Y-60317341D01*
X163340349Y-60227292D01*
X163340348Y-60227289D01*
X163331139Y-60199499D01*
X163287003Y-60066303D01*
X163286999Y-60066297D01*
X163286998Y-60066294D01*
X163197970Y-59921959D01*
X163197967Y-59921955D01*
X163078044Y-59802032D01*
X163078040Y-59802029D01*
X162933705Y-59713001D01*
X162933699Y-59712998D01*
X162933697Y-59712997D01*
X162898603Y-59701368D01*
X162772709Y-59659651D01*
X162673346Y-59649500D01*
X161826662Y-59649500D01*
X161826644Y-59649501D01*
X161727292Y-59659650D01*
X161727289Y-59659651D01*
X161566305Y-59712996D01*
X161566294Y-59713001D01*
X161421959Y-59802029D01*
X161416293Y-59806510D01*
X161414944Y-59804804D01*
X161362947Y-59833185D01*
X161293256Y-59828188D01*
X161248930Y-59799695D01*
X158886818Y-57437583D01*
X158853333Y-57376260D01*
X158850499Y-57349902D01*
X158850499Y-56876662D01*
X158850498Y-56876644D01*
X158840349Y-56777292D01*
X158840348Y-56777289D01*
X158825834Y-56733489D01*
X158787003Y-56616303D01*
X158786999Y-56616297D01*
X158786998Y-56616294D01*
X158697970Y-56471959D01*
X158697967Y-56471955D01*
X158578044Y-56352032D01*
X158578040Y-56352029D01*
X158433705Y-56263001D01*
X158433699Y-56262998D01*
X158433697Y-56262997D01*
X158390657Y-56248735D01*
X158272709Y-56209651D01*
X158173346Y-56199500D01*
X157326662Y-56199500D01*
X157326644Y-56199501D01*
X157227292Y-56209650D01*
X157227289Y-56209651D01*
X157066305Y-56262996D01*
X157066294Y-56263001D01*
X156921959Y-56352029D01*
X156921955Y-56352032D01*
X156802032Y-56471955D01*
X156802029Y-56471959D01*
X156713001Y-56616294D01*
X156712996Y-56616305D01*
X156659651Y-56777290D01*
X156649500Y-56876647D01*
X156649500Y-57423337D01*
X156649501Y-57423355D01*
X156659650Y-57522707D01*
X156659651Y-57522710D01*
X156712996Y-57683694D01*
X156713001Y-57683705D01*
X156802029Y-57828040D01*
X156802032Y-57828044D01*
X156921956Y-57947968D01*
X156962181Y-57972779D01*
X157008905Y-58024725D01*
X157020128Y-58093688D01*
X156992285Y-58157770D01*
X156984765Y-58165998D01*
X155744255Y-59406508D01*
X155682932Y-59439993D01*
X155613240Y-59435009D01*
X155557307Y-59393137D01*
X155534957Y-59343018D01*
X155524776Y-59291835D01*
X155519737Y-59266503D01*
X155509037Y-59240671D01*
X155459397Y-59120827D01*
X155459390Y-59120814D01*
X155371789Y-58989711D01*
X155371786Y-58989707D01*
X155260292Y-58878213D01*
X155260288Y-58878210D01*
X155129185Y-58790609D01*
X155129172Y-58790602D01*
X154983501Y-58730264D01*
X154983489Y-58730261D01*
X154828845Y-58699500D01*
X154828842Y-58699500D01*
X154671158Y-58699500D01*
X154671155Y-58699500D01*
X154516510Y-58730261D01*
X154516498Y-58730264D01*
X154370827Y-58790602D01*
X154370814Y-58790609D01*
X154239125Y-58878602D01*
X154172447Y-58899480D01*
X154170234Y-58899500D01*
X151999097Y-58899500D01*
X151932058Y-58879815D01*
X151886303Y-58827011D01*
X151876359Y-58757853D01*
X151905384Y-58694297D01*
X151911416Y-58687819D01*
X152362416Y-58236818D01*
X152423739Y-58203333D01*
X152450097Y-58200499D01*
X152923338Y-58200499D01*
X152923344Y-58200499D01*
X152923352Y-58200498D01*
X152923355Y-58200498D01*
X152977760Y-58194940D01*
X153022708Y-58190349D01*
X153183697Y-58137003D01*
X153328044Y-58047968D01*
X153447968Y-57928044D01*
X153537003Y-57783697D01*
X153590349Y-57622708D01*
X153600500Y-57523345D01*
X153600499Y-56976656D01*
X153595763Y-56930297D01*
X153590349Y-56877292D01*
X153590348Y-56877289D01*
X153590134Y-56876644D01*
X153537003Y-56716303D01*
X153536999Y-56716297D01*
X153536998Y-56716294D01*
X153447970Y-56571959D01*
X153447967Y-56571955D01*
X153328044Y-56452032D01*
X153328040Y-56452029D01*
X153183705Y-56363001D01*
X153183699Y-56362998D01*
X153183697Y-56362997D01*
X153150607Y-56352032D01*
X153022709Y-56309651D01*
X152923346Y-56299500D01*
X152076662Y-56299500D01*
X152076644Y-56299501D01*
X151977292Y-56309650D01*
X151977289Y-56309651D01*
X151816305Y-56362996D01*
X151816294Y-56363001D01*
X151671959Y-56452029D01*
X151671955Y-56452032D01*
X151552032Y-56571955D01*
X151552029Y-56571959D01*
X151463001Y-56716294D01*
X151462996Y-56716305D01*
X151409651Y-56877290D01*
X151399500Y-56976647D01*
X151399500Y-57449902D01*
X151379815Y-57516941D01*
X151363181Y-57537583D01*
X150787584Y-58113181D01*
X150726261Y-58146666D01*
X150699903Y-58149500D01*
X143329057Y-58149500D01*
X143170943Y-58149500D01*
X143018215Y-58190423D01*
X142992131Y-58205483D01*
X142937857Y-58236818D01*
X142881285Y-58269479D01*
X142881282Y-58269481D01*
X141235339Y-59915425D01*
X141174016Y-59948910D01*
X141171850Y-59949361D01*
X141016508Y-59980261D01*
X141016498Y-59980264D01*
X140870827Y-60040602D01*
X140870814Y-60040609D01*
X140739711Y-60128210D01*
X140739707Y-60128213D01*
X140628213Y-60239707D01*
X140628210Y-60239711D01*
X140540609Y-60370814D01*
X140540602Y-60370827D01*
X140480264Y-60516498D01*
X140480261Y-60516510D01*
X140449500Y-60671153D01*
X140449500Y-60828846D01*
X140480261Y-60983489D01*
X140480264Y-60983501D01*
X140540602Y-61129172D01*
X140540609Y-61129185D01*
X140628210Y-61260288D01*
X140628213Y-61260292D01*
X140671661Y-61303740D01*
X140705146Y-61365063D01*
X140700162Y-61434755D01*
X140671661Y-61479102D01*
X140037584Y-62113181D01*
X139976261Y-62146666D01*
X139949903Y-62149500D01*
X132670941Y-62149500D01*
X132652177Y-62154527D01*
X132652178Y-62154528D01*
X132518214Y-62190423D01*
X132518209Y-62190426D01*
X132381290Y-62269475D01*
X132381282Y-62269481D01*
X132019481Y-62631282D01*
X132019477Y-62631287D01*
X131980980Y-62697968D01*
X131970190Y-62716657D01*
X131940423Y-62768215D01*
X131899499Y-62920943D01*
X131899499Y-62920945D01*
X131899499Y-63089046D01*
X131899500Y-63089059D01*
X131899500Y-64699902D01*
X131879815Y-64766941D01*
X131863181Y-64787583D01*
X128037584Y-68613181D01*
X127976261Y-68646666D01*
X127949903Y-68649500D01*
X126829766Y-68649500D01*
X126762727Y-68629815D01*
X126760875Y-68628602D01*
X126629185Y-68540609D01*
X126629172Y-68540602D01*
X126483501Y-68480264D01*
X126483489Y-68480261D01*
X126328845Y-68449500D01*
X126328842Y-68449500D01*
X126171158Y-68449500D01*
X126171155Y-68449500D01*
X126016510Y-68480261D01*
X126016498Y-68480264D01*
X125870827Y-68540602D01*
X125870814Y-68540609D01*
X125739711Y-68628210D01*
X125739707Y-68628213D01*
X125628213Y-68739707D01*
X125628210Y-68739711D01*
X125540609Y-68870814D01*
X125540602Y-68870827D01*
X125480264Y-69016498D01*
X125480261Y-69016510D01*
X125449500Y-69171153D01*
X125449500Y-69328846D01*
X125480261Y-69483489D01*
X125480264Y-69483501D01*
X125540602Y-69629172D01*
X125540609Y-69629185D01*
X125628210Y-69760288D01*
X125628213Y-69760292D01*
X125739707Y-69871786D01*
X125739711Y-69871789D01*
X125870814Y-69959390D01*
X125870827Y-69959397D01*
X126016498Y-70019735D01*
X126016503Y-70019737D01*
X126171153Y-70050499D01*
X126171156Y-70050500D01*
X126171158Y-70050500D01*
X126328844Y-70050500D01*
X126328845Y-70050499D01*
X126483497Y-70019737D01*
X126629179Y-69959394D01*
X126636274Y-69954653D01*
X126760875Y-69871398D01*
X126827553Y-69850520D01*
X126829766Y-69850500D01*
X128163331Y-69850500D01*
X128163347Y-69850501D01*
X128170943Y-69850501D01*
X128329054Y-69850501D01*
X128329057Y-69850501D01*
X128481785Y-69809577D01*
X128537969Y-69777139D01*
X128618716Y-69730520D01*
X128730520Y-69618716D01*
X128730520Y-69618714D01*
X128740724Y-69608511D01*
X128740728Y-69608506D01*
X132152319Y-66196914D01*
X132213640Y-66163431D01*
X132283332Y-66168415D01*
X132339265Y-66210287D01*
X132355975Y-66246998D01*
X132357871Y-66246370D01*
X132415185Y-66419331D01*
X132415187Y-66419336D01*
X132436374Y-66453686D01*
X132507288Y-66568656D01*
X132631344Y-66692712D01*
X132780666Y-66784814D01*
X132947203Y-66839999D01*
X133049991Y-66850500D01*
X134250008Y-66850499D01*
X134352797Y-66839999D01*
X134519334Y-66784814D01*
X134668656Y-66692712D01*
X134792712Y-66568656D01*
X134819962Y-66524475D01*
X134871908Y-66477752D01*
X134940870Y-66466529D01*
X135004953Y-66494372D01*
X135043809Y-66552440D01*
X135049500Y-66589573D01*
X135049500Y-69650001D01*
X135049501Y-69650018D01*
X135060000Y-69752796D01*
X135060001Y-69752799D01*
X135115185Y-69919331D01*
X135115187Y-69919336D01*
X135126719Y-69938032D01*
X135207288Y-70068656D01*
X135331344Y-70192712D01*
X135390596Y-70229258D01*
X135437321Y-70281204D01*
X135449500Y-70334797D01*
X135449500Y-70899902D01*
X135429815Y-70966941D01*
X135413181Y-70987583D01*
X135227819Y-71172944D01*
X135166496Y-71206429D01*
X135115947Y-71206880D01*
X135078846Y-71199500D01*
X135078842Y-71199500D01*
X134921158Y-71199500D01*
X134921155Y-71199500D01*
X134766510Y-71230261D01*
X134766498Y-71230264D01*
X134620827Y-71290602D01*
X134620814Y-71290609D01*
X134489711Y-71378210D01*
X134489709Y-71378212D01*
X134378213Y-71489707D01*
X134378210Y-71489711D01*
X134290609Y-71620814D01*
X134290602Y-71620827D01*
X134230264Y-71766498D01*
X134230261Y-71766510D01*
X134199500Y-71921153D01*
X134199500Y-72025500D01*
X134179815Y-72092539D01*
X134127011Y-72138294D01*
X134075500Y-72149500D01*
X83050097Y-72149500D01*
X82983058Y-72129815D01*
X82962416Y-72113181D01*
X82727590Y-71878355D01*
X82727588Y-71878352D01*
X82608717Y-71759481D01*
X82608716Y-71759480D01*
X82521904Y-71709360D01*
X82521904Y-71709359D01*
X82521900Y-71709358D01*
X82471785Y-71680423D01*
X82319057Y-71639499D01*
X82160943Y-71639499D01*
X82153347Y-71639499D01*
X82153331Y-71639500D01*
X80974500Y-71639500D01*
X80907461Y-71619815D01*
X80861706Y-71567011D01*
X80850500Y-71515500D01*
X80850500Y-69714060D01*
X80850501Y-69714047D01*
X80850501Y-69545944D01*
X80848570Y-69538737D01*
X80809577Y-69393216D01*
X80795432Y-69368716D01*
X80730524Y-69256290D01*
X80730518Y-69256282D01*
X78271951Y-66797715D01*
X75803534Y-64329299D01*
X75776072Y-64287640D01*
X75771830Y-64277027D01*
X75769737Y-64266503D01*
X75709504Y-64121086D01*
X75709226Y-64120391D01*
X75705993Y-64086333D01*
X75702340Y-64052353D01*
X75702699Y-64051633D01*
X75702624Y-64050834D01*
X75718313Y-64020443D01*
X75733616Y-63989874D01*
X75734306Y-63989464D01*
X75734676Y-63988749D01*
X75764333Y-63971648D01*
X75793705Y-63954222D01*
X75794507Y-63954250D01*
X75795204Y-63953849D01*
X75829369Y-63955495D01*
X75863530Y-63956716D01*
X75864843Y-63957205D01*
X75864993Y-63957213D01*
X75865136Y-63957315D01*
X75871822Y-63959809D01*
X76008683Y-64016498D01*
X76016503Y-64019737D01*
X76171153Y-64050499D01*
X76171156Y-64050500D01*
X76171158Y-64050500D01*
X76328844Y-64050500D01*
X76328845Y-64050499D01*
X76483497Y-64019737D01*
X76629179Y-63959394D01*
X76760289Y-63871789D01*
X76871789Y-63760289D01*
X76897729Y-63721465D01*
X76951339Y-63676661D01*
X77020664Y-63667952D01*
X77048277Y-63675792D01*
X77092238Y-63694002D01*
X77230313Y-63721467D01*
X77246888Y-63724764D01*
X77246891Y-63724765D01*
X77246893Y-63724765D01*
X77404579Y-63724765D01*
X77404580Y-63724764D01*
X77559232Y-63694002D01*
X77671901Y-63647332D01*
X77704907Y-63633662D01*
X77704907Y-63633661D01*
X77704914Y-63633659D01*
X77836024Y-63546054D01*
X77947524Y-63434554D01*
X78035129Y-63303444D01*
X78035825Y-63301765D01*
X78068882Y-63221956D01*
X78095472Y-63157762D01*
X78126235Y-63003107D01*
X78126235Y-62845423D01*
X78126235Y-62845420D01*
X78126234Y-62845418D01*
X78125226Y-62840349D01*
X78095472Y-62690768D01*
X78095470Y-62690763D01*
X78035132Y-62545092D01*
X78035125Y-62545079D01*
X77947524Y-62413976D01*
X77947521Y-62413972D01*
X77836027Y-62302478D01*
X77836023Y-62302475D01*
X77704920Y-62214874D01*
X77704907Y-62214867D01*
X77559234Y-62154528D01*
X77559228Y-62154526D01*
X77526880Y-62148092D01*
X77464970Y-62115706D01*
X77463392Y-62114156D01*
X77368717Y-62019481D01*
X77368716Y-62019480D01*
X77277223Y-61966657D01*
X77231785Y-61940423D01*
X77079057Y-61899499D01*
X76920943Y-61899499D01*
X76913347Y-61899499D01*
X76913331Y-61899500D01*
X75667848Y-61899500D01*
X75600809Y-61879815D01*
X75555054Y-61827011D01*
X75546231Y-61799692D01*
X75519738Y-61666508D01*
X75519737Y-61666507D01*
X75519737Y-61666503D01*
X75503228Y-61626647D01*
X75459397Y-61520827D01*
X75459390Y-61520814D01*
X75371789Y-61389711D01*
X75371786Y-61389707D01*
X75260292Y-61278213D01*
X75260288Y-61278210D01*
X75129185Y-61190609D01*
X75129172Y-61190602D01*
X74983501Y-61130264D01*
X74983491Y-61130261D01*
X74900308Y-61113715D01*
X74838397Y-61081330D01*
X74803823Y-61020614D01*
X74800500Y-60992098D01*
X74800500Y-60921155D01*
X74800499Y-60921153D01*
X74790486Y-60870814D01*
X74769737Y-60766503D01*
X74763023Y-60750294D01*
X74709397Y-60620827D01*
X74709390Y-60620814D01*
X74621789Y-60489711D01*
X74621786Y-60489707D01*
X74510292Y-60378213D01*
X74510288Y-60378210D01*
X74379185Y-60290609D01*
X74379172Y-60290602D01*
X74233501Y-60230264D01*
X74233489Y-60230261D01*
X74078845Y-60199500D01*
X74078842Y-60199500D01*
X73921158Y-60199500D01*
X73921155Y-60199500D01*
X73766510Y-60230261D01*
X73766498Y-60230264D01*
X73620827Y-60290602D01*
X73620814Y-60290609D01*
X73489711Y-60378210D01*
X73489707Y-60378213D01*
X73378213Y-60489707D01*
X73378210Y-60489711D01*
X73290609Y-60620814D01*
X73290602Y-60620827D01*
X73230264Y-60766498D01*
X73230261Y-60766508D01*
X73199362Y-60921848D01*
X73166977Y-60983759D01*
X73165426Y-60985337D01*
X71097736Y-63053028D01*
X70985931Y-63164832D01*
X70985929Y-63164835D01*
X70938869Y-63246346D01*
X70938862Y-63246358D01*
X70937049Y-63249500D01*
X70906873Y-63301765D01*
X70902042Y-63319792D01*
X70896383Y-63331080D01*
X70880823Y-63347769D01*
X70868949Y-63367252D01*
X70857453Y-63372836D01*
X70848738Y-63382185D01*
X70826625Y-63387812D01*
X70806102Y-63397783D01*
X70785537Y-63399500D01*
X54503439Y-63399500D01*
X54436400Y-63379815D01*
X54390645Y-63327011D01*
X54380701Y-63257853D01*
X54409726Y-63194297D01*
X54434548Y-63172398D01*
X54510875Y-63121398D01*
X54577553Y-63100520D01*
X54579766Y-63100500D01*
X69413331Y-63100500D01*
X69413347Y-63100501D01*
X69420943Y-63100501D01*
X69579054Y-63100501D01*
X69579057Y-63100501D01*
X69731785Y-63059577D01*
X69781904Y-63030639D01*
X69868716Y-62980520D01*
X69980520Y-62868716D01*
X69980520Y-62868714D01*
X69990728Y-62858507D01*
X69990729Y-62858504D01*
X74230520Y-58618716D01*
X74309577Y-58481784D01*
X74350501Y-58329057D01*
X74350501Y-58170942D01*
X74350501Y-58163347D01*
X74350500Y-58163329D01*
X74350500Y-57131902D01*
X75999500Y-57131902D01*
X75999500Y-58868097D01*
X76036446Y-59101368D01*
X76109433Y-59325996D01*
X76191471Y-59487003D01*
X76216657Y-59536433D01*
X76355483Y-59727510D01*
X76522490Y-59894517D01*
X76713567Y-60033343D01*
X76747238Y-60050499D01*
X76924003Y-60140566D01*
X76924005Y-60140566D01*
X76924008Y-60140568D01*
X77018139Y-60171153D01*
X77148631Y-60213553D01*
X77381903Y-60250500D01*
X77381908Y-60250500D01*
X77618097Y-60250500D01*
X77851368Y-60213553D01*
X77871000Y-60207174D01*
X78075992Y-60140568D01*
X78286433Y-60033343D01*
X78477510Y-59894517D01*
X78644517Y-59727510D01*
X78783343Y-59536433D01*
X78890568Y-59325992D01*
X78963553Y-59101368D01*
X78998313Y-58881902D01*
X79849500Y-58881902D01*
X79849500Y-59118097D01*
X79886446Y-59351368D01*
X79959433Y-59575996D01*
X80054366Y-59762310D01*
X80066657Y-59786433D01*
X80205483Y-59977510D01*
X80372490Y-60144517D01*
X80563567Y-60283343D01*
X80596449Y-60300097D01*
X80774003Y-60390566D01*
X80774005Y-60390566D01*
X80774008Y-60390568D01*
X80878529Y-60424529D01*
X80998631Y-60463553D01*
X81231903Y-60500500D01*
X81231908Y-60500500D01*
X82768097Y-60500500D01*
X83001368Y-60463553D01*
X83020049Y-60457483D01*
X83225992Y-60390568D01*
X83436433Y-60283343D01*
X83627510Y-60144517D01*
X83794517Y-59977510D01*
X83933343Y-59786433D01*
X84040568Y-59575992D01*
X84113553Y-59351368D01*
X84113690Y-59350500D01*
X84150500Y-59118097D01*
X84150500Y-58881902D01*
X84113553Y-58648631D01*
X84070624Y-58516510D01*
X84040568Y-58424008D01*
X84040566Y-58424005D01*
X84040566Y-58424003D01*
X83982250Y-58309553D01*
X83933343Y-58213567D01*
X83794517Y-58022490D01*
X83627510Y-57855483D01*
X83436433Y-57716657D01*
X83375143Y-57685428D01*
X83225996Y-57609433D01*
X83001368Y-57536446D01*
X82768097Y-57499500D01*
X82768092Y-57499500D01*
X81231908Y-57499500D01*
X81231903Y-57499500D01*
X80998631Y-57536446D01*
X80774003Y-57609433D01*
X80563566Y-57716657D01*
X80466751Y-57786998D01*
X80372490Y-57855483D01*
X80372488Y-57855485D01*
X80372487Y-57855485D01*
X80205485Y-58022487D01*
X80205485Y-58022488D01*
X80205483Y-58022490D01*
X80145862Y-58104550D01*
X80066657Y-58213566D01*
X79959433Y-58424003D01*
X79886446Y-58648631D01*
X79849500Y-58881902D01*
X78998313Y-58881902D01*
X79000500Y-58868092D01*
X79000500Y-57131908D01*
X79000500Y-57131902D01*
X84999500Y-57131902D01*
X84999500Y-58868097D01*
X85036446Y-59101368D01*
X85109433Y-59325996D01*
X85191471Y-59487003D01*
X85216657Y-59536433D01*
X85355483Y-59727510D01*
X85522490Y-59894517D01*
X85713567Y-60033343D01*
X85747238Y-60050499D01*
X85924003Y-60140566D01*
X85924005Y-60140566D01*
X85924008Y-60140568D01*
X86018139Y-60171153D01*
X86148631Y-60213553D01*
X86381903Y-60250500D01*
X86381908Y-60250500D01*
X86618097Y-60250500D01*
X86851368Y-60213553D01*
X86871000Y-60207174D01*
X87075992Y-60140568D01*
X87286433Y-60033343D01*
X87477510Y-59894517D01*
X87644517Y-59727510D01*
X87783343Y-59536433D01*
X87890568Y-59325992D01*
X87963553Y-59101368D01*
X87971577Y-59050706D01*
X88000500Y-58868097D01*
X88000500Y-57131902D01*
X87963553Y-56898631D01*
X87918602Y-56760288D01*
X87890568Y-56674008D01*
X87890566Y-56674005D01*
X87890566Y-56674003D01*
X87808528Y-56512996D01*
X87783343Y-56463567D01*
X87644517Y-56272490D01*
X87477510Y-56105483D01*
X87286433Y-55966657D01*
X87272681Y-55959650D01*
X87075996Y-55859433D01*
X86851368Y-55786446D01*
X86618097Y-55749500D01*
X86618092Y-55749500D01*
X86381908Y-55749500D01*
X86381903Y-55749500D01*
X86148631Y-55786446D01*
X85924003Y-55859433D01*
X85713566Y-55966657D01*
X85629847Y-56027483D01*
X85522490Y-56105483D01*
X85522488Y-56105485D01*
X85522487Y-56105485D01*
X85355485Y-56272487D01*
X85355485Y-56272488D01*
X85355483Y-56272490D01*
X85320124Y-56321158D01*
X85216657Y-56463566D01*
X85109433Y-56674003D01*
X85036446Y-56898631D01*
X84999500Y-57131902D01*
X79000500Y-57131902D01*
X78963553Y-56898631D01*
X78918602Y-56760288D01*
X78890568Y-56674008D01*
X78890566Y-56674005D01*
X78890566Y-56674003D01*
X78808528Y-56512996D01*
X78783343Y-56463567D01*
X78644517Y-56272490D01*
X78477510Y-56105483D01*
X78286433Y-55966657D01*
X78272681Y-55959650D01*
X78148802Y-55896530D01*
X80949500Y-55896530D01*
X80949500Y-56103469D01*
X80989868Y-56306412D01*
X80989870Y-56306420D01*
X81050183Y-56452029D01*
X81069059Y-56497598D01*
X81088900Y-56527292D01*
X81184024Y-56669657D01*
X81330342Y-56815975D01*
X81330345Y-56815977D01*
X81502402Y-56930941D01*
X81693580Y-57010130D01*
X81896530Y-57050499D01*
X81896534Y-57050500D01*
X81896535Y-57050500D01*
X82103466Y-57050500D01*
X82103467Y-57050499D01*
X82306420Y-57010130D01*
X82497598Y-56930941D01*
X82669655Y-56815977D01*
X82815977Y-56669655D01*
X82930941Y-56497598D01*
X83010130Y-56306420D01*
X83050500Y-56103465D01*
X83050500Y-55896535D01*
X83010130Y-55693580D01*
X82930941Y-55502402D01*
X82815977Y-55330345D01*
X82815975Y-55330342D01*
X82669657Y-55184024D01*
X82559851Y-55110655D01*
X82497598Y-55069059D01*
X82452790Y-55050499D01*
X82306420Y-54989870D01*
X82306412Y-54989868D01*
X82103469Y-54949500D01*
X82103465Y-54949500D01*
X81896535Y-54949500D01*
X81896530Y-54949500D01*
X81693587Y-54989868D01*
X81693579Y-54989870D01*
X81502403Y-55069058D01*
X81330342Y-55184024D01*
X81184024Y-55330342D01*
X81069058Y-55502403D01*
X80989870Y-55693579D01*
X80989868Y-55693587D01*
X80949500Y-55896530D01*
X78148802Y-55896530D01*
X78075996Y-55859433D01*
X77851368Y-55786446D01*
X77618097Y-55749500D01*
X77618092Y-55749500D01*
X77381908Y-55749500D01*
X77381903Y-55749500D01*
X77148631Y-55786446D01*
X76924003Y-55859433D01*
X76713566Y-55966657D01*
X76629847Y-56027483D01*
X76522490Y-56105483D01*
X76522488Y-56105485D01*
X76522487Y-56105485D01*
X76355485Y-56272487D01*
X76355485Y-56272488D01*
X76355483Y-56272490D01*
X76320124Y-56321158D01*
X76216657Y-56463566D01*
X76109433Y-56674003D01*
X76036446Y-56898631D01*
X75999500Y-57131902D01*
X74350500Y-57131902D01*
X74350500Y-56300097D01*
X74370185Y-56233058D01*
X74386819Y-56212416D01*
X77611416Y-52987819D01*
X77672739Y-52954334D01*
X77699097Y-52951500D01*
X114954751Y-52951500D01*
X115021790Y-52971185D01*
X115067545Y-53023989D01*
X115077489Y-53093147D01*
X115048464Y-53156703D01*
X115035473Y-53169628D01*
X115028108Y-53175943D01*
X114981344Y-53204788D01*
X114902286Y-53283845D01*
X114898692Y-53286928D01*
X114870984Y-53299410D01*
X114844328Y-53313966D01*
X114836902Y-53314764D01*
X114834988Y-53315627D01*
X114832427Y-53315245D01*
X114817970Y-53316800D01*
X105270681Y-53316800D01*
X105110199Y-53348722D01*
X105110193Y-53348724D01*
X104959017Y-53411343D01*
X104822957Y-53502254D01*
X97206467Y-61118744D01*
X97145144Y-61152229D01*
X97075452Y-61147245D01*
X97071333Y-61145624D01*
X96977538Y-61106772D01*
X96977531Y-61106770D01*
X96977529Y-61106769D01*
X96691557Y-61030144D01*
X96642503Y-61023685D01*
X96398037Y-60991500D01*
X96398030Y-60991500D01*
X96101970Y-60991500D01*
X96101962Y-60991500D01*
X95822571Y-61028283D01*
X95808443Y-61030144D01*
X95713119Y-61055685D01*
X95522477Y-61106767D01*
X95522473Y-61106768D01*
X95522471Y-61106769D01*
X95465757Y-61130261D01*
X95248940Y-61220070D01*
X95248939Y-61220071D01*
X94992552Y-61368096D01*
X94757673Y-61548324D01*
X94757666Y-61548330D01*
X94548330Y-61757666D01*
X94548324Y-61757673D01*
X94368096Y-61992552D01*
X94220071Y-62248939D01*
X94220070Y-62248940D01*
X94106772Y-62522464D01*
X94106767Y-62522477D01*
X94061673Y-62690775D01*
X94040924Y-62768213D01*
X94030145Y-62808440D01*
X94030143Y-62808451D01*
X93991500Y-63101962D01*
X93991500Y-63398037D01*
X94022209Y-63631284D01*
X94030144Y-63691557D01*
X94106769Y-63977529D01*
X94220067Y-64251052D01*
X94220070Y-64251059D01*
X94220071Y-64251060D01*
X94368096Y-64507447D01*
X94548324Y-64742326D01*
X94548330Y-64742333D01*
X94757666Y-64951669D01*
X94757673Y-64951675D01*
X94992552Y-65131903D01*
X95228474Y-65268113D01*
X95276690Y-65318680D01*
X95289913Y-65387287D01*
X95263945Y-65452152D01*
X95207030Y-65492680D01*
X95166474Y-65499500D01*
X90794210Y-65499500D01*
X90727171Y-65479815D01*
X90706529Y-65463181D01*
X88002521Y-62759173D01*
X87997760Y-62755377D01*
X87997751Y-62755370D01*
X87966590Y-62730520D01*
X87739039Y-62549054D01*
X87524058Y-62413972D01*
X87453683Y-62369752D01*
X87150054Y-62223532D01*
X86831965Y-62112227D01*
X86831953Y-62112223D01*
X86578384Y-62054348D01*
X86503394Y-62037233D01*
X86486718Y-62035354D01*
X86486717Y-62035353D01*
X86486717Y-62035354D01*
X86168509Y-61999500D01*
X86168505Y-61999500D01*
X86168504Y-61999500D01*
X81831496Y-61999500D01*
X81831491Y-61999500D01*
X81496618Y-62037231D01*
X81496602Y-62037233D01*
X81168046Y-62112223D01*
X81168034Y-62112227D01*
X80849945Y-62223532D01*
X80546316Y-62369752D01*
X80260962Y-62549053D01*
X79997477Y-62759174D01*
X79759174Y-62997477D01*
X79549053Y-63260962D01*
X79369752Y-63546316D01*
X79223532Y-63849945D01*
X79112227Y-64168034D01*
X79112223Y-64168046D01*
X79037233Y-64496602D01*
X79037231Y-64496618D01*
X78999500Y-64831491D01*
X78999500Y-65168508D01*
X79037231Y-65503381D01*
X79037233Y-65503397D01*
X79112223Y-65831953D01*
X79112227Y-65831965D01*
X79223532Y-66150054D01*
X79369752Y-66453683D01*
X79414236Y-66524478D01*
X79549054Y-66739039D01*
X79678424Y-66901264D01*
X79750899Y-66992146D01*
X79759175Y-67002523D01*
X79997477Y-67240825D01*
X80260961Y-67450946D01*
X80546314Y-67630246D01*
X80849949Y-67776469D01*
X81059331Y-67849735D01*
X81168034Y-67887772D01*
X81168046Y-67887776D01*
X81496606Y-67962767D01*
X81831492Y-68000499D01*
X81831493Y-68000500D01*
X81831496Y-68000500D01*
X84705790Y-68000500D01*
X84772829Y-68020185D01*
X84793471Y-68036819D01*
X87497476Y-70740824D01*
X87760960Y-70950946D01*
X88046314Y-71130246D01*
X88349948Y-71276469D01*
X88582817Y-71357953D01*
X88628536Y-71373951D01*
X88640711Y-71378211D01*
X88666342Y-71387179D01*
X88668034Y-71387772D01*
X88668046Y-71387776D01*
X88996606Y-71462767D01*
X88996612Y-71462767D01*
X88996620Y-71462769D01*
X89280232Y-71494724D01*
X89280233Y-71494724D01*
X89293048Y-71496168D01*
X89331492Y-71500500D01*
X89331495Y-71500500D01*
X104168508Y-71500500D01*
X104168508Y-71500499D01*
X104503394Y-71462767D01*
X104831954Y-71387776D01*
X105150051Y-71276469D01*
X105453686Y-71130246D01*
X105739039Y-70950946D01*
X105864011Y-70851284D01*
X106002523Y-70740825D01*
X106240825Y-70502523D01*
X108490825Y-68252523D01*
X108700946Y-67989039D01*
X108794817Y-67839645D01*
X116597800Y-67839645D01*
X116597800Y-68060357D01*
X116600762Y-68079057D01*
X116632327Y-68278351D01*
X116700528Y-68488256D01*
X116700529Y-68488259D01*
X116800595Y-68684648D01*
X116800731Y-68684914D01*
X116930462Y-68863473D01*
X117086528Y-69019539D01*
X117265087Y-69149270D01*
X117361540Y-69198415D01*
X117461741Y-69249471D01*
X117461744Y-69249472D01*
X117555495Y-69279933D01*
X117671651Y-69317674D01*
X117889644Y-69352201D01*
X117889645Y-69352201D01*
X118110355Y-69352201D01*
X118110356Y-69352201D01*
X118328349Y-69317674D01*
X118538258Y-69249471D01*
X118734913Y-69149270D01*
X118913472Y-69019539D01*
X119069538Y-68863473D01*
X119199269Y-68684914D01*
X119299470Y-68488259D01*
X119367673Y-68278350D01*
X119402200Y-68060357D01*
X119402200Y-67839685D01*
X121598300Y-67839685D01*
X121598300Y-68060316D01*
X121632815Y-68278234D01*
X121632815Y-68278237D01*
X121700992Y-68488064D01*
X121801157Y-68684648D01*
X121847715Y-68748731D01*
X122400718Y-68195728D01*
X122426016Y-68256802D01*
X122496899Y-68362886D01*
X122587115Y-68453102D01*
X122693199Y-68523985D01*
X122754271Y-68549281D01*
X122201268Y-69102283D01*
X122201268Y-69102284D01*
X122265352Y-69148843D01*
X122461936Y-69249008D01*
X122671764Y-69317185D01*
X122889685Y-69351701D01*
X123110315Y-69351701D01*
X123328233Y-69317185D01*
X123328236Y-69317185D01*
X123538063Y-69249008D01*
X123734651Y-69148841D01*
X123798730Y-69102284D01*
X123798731Y-69102284D01*
X123245728Y-68549282D01*
X123306801Y-68523985D01*
X123412885Y-68453102D01*
X123503101Y-68362886D01*
X123573984Y-68256802D01*
X123599281Y-68195729D01*
X124152283Y-68748732D01*
X124152283Y-68748731D01*
X124198840Y-68684652D01*
X124299007Y-68488064D01*
X124367184Y-68278237D01*
X124367184Y-68278234D01*
X124401700Y-68060316D01*
X124401700Y-67839685D01*
X124367184Y-67621767D01*
X124367184Y-67621764D01*
X124299007Y-67411937D01*
X124198842Y-67215353D01*
X124152283Y-67151269D01*
X124152282Y-67151269D01*
X123599280Y-67704271D01*
X123573984Y-67643200D01*
X123503101Y-67537116D01*
X123412885Y-67446900D01*
X123306801Y-67376017D01*
X123245726Y-67350719D01*
X123798730Y-66797716D01*
X123734647Y-66751158D01*
X123538063Y-66650993D01*
X123328235Y-66582816D01*
X123110315Y-66548301D01*
X122889685Y-66548301D01*
X122671766Y-66582816D01*
X122671763Y-66582816D01*
X122461936Y-66650993D01*
X122265342Y-66751163D01*
X122201268Y-66797715D01*
X122201268Y-66797716D01*
X122754271Y-67350719D01*
X122693199Y-67376017D01*
X122587115Y-67446900D01*
X122496899Y-67537116D01*
X122426016Y-67643200D01*
X122400718Y-67704272D01*
X121847715Y-67151269D01*
X121847714Y-67151269D01*
X121801162Y-67215343D01*
X121700992Y-67411937D01*
X121632815Y-67621764D01*
X121632815Y-67621767D01*
X121598300Y-67839685D01*
X119402200Y-67839685D01*
X119402200Y-67839645D01*
X119367673Y-67621652D01*
X119324011Y-67487273D01*
X119299471Y-67411745D01*
X119299470Y-67411742D01*
X119216413Y-67248735D01*
X119199269Y-67215088D01*
X119069538Y-67036529D01*
X118913472Y-66880463D01*
X118734913Y-66750732D01*
X118711964Y-66739039D01*
X118538258Y-66650530D01*
X118538255Y-66650529D01*
X118328350Y-66582328D01*
X118175614Y-66558137D01*
X118110356Y-66547801D01*
X117889644Y-66547801D01*
X117824386Y-66558137D01*
X117671649Y-66582328D01*
X117461744Y-66650529D01*
X117461741Y-66650530D01*
X117265086Y-66750732D01*
X117200419Y-66797716D01*
X117086528Y-66880463D01*
X117086526Y-66880465D01*
X117086525Y-66880465D01*
X116930464Y-67036526D01*
X116930464Y-67036527D01*
X116930462Y-67036529D01*
X116897461Y-67081951D01*
X116800731Y-67215087D01*
X116700529Y-67411742D01*
X116700528Y-67411745D01*
X116632327Y-67621650D01*
X116601583Y-67815763D01*
X116597800Y-67839645D01*
X108794817Y-67839645D01*
X108829509Y-67784434D01*
X108839332Y-67768801D01*
X108859833Y-67736173D01*
X108880247Y-67703685D01*
X108895914Y-67671153D01*
X109026462Y-67400066D01*
X109026463Y-67400062D01*
X109026469Y-67400051D01*
X109047527Y-67339871D01*
X109137776Y-67081954D01*
X109212767Y-66753394D01*
X109213019Y-66751163D01*
X109226067Y-66635355D01*
X109226067Y-66635354D01*
X109231225Y-66589572D01*
X109250500Y-66418505D01*
X109250500Y-66081495D01*
X109250500Y-65624500D01*
X109270185Y-65557461D01*
X109322989Y-65511706D01*
X109374500Y-65500500D01*
X126868097Y-65500500D01*
X127101368Y-65463553D01*
X127104867Y-65462416D01*
X127325992Y-65390568D01*
X127536434Y-65283343D01*
X127727510Y-65144517D01*
X135644517Y-57227510D01*
X135783343Y-57036434D01*
X135890568Y-56825992D01*
X135963553Y-56601369D01*
X135984050Y-56471955D01*
X136000500Y-56368097D01*
X136000500Y-56044402D01*
X135963553Y-55811131D01*
X135922166Y-55683757D01*
X135890568Y-55586508D01*
X135890566Y-55586505D01*
X135890566Y-55586503D01*
X135801277Y-55411265D01*
X135783343Y-55376067D01*
X135644517Y-55184990D01*
X135606498Y-55146971D01*
X135573013Y-55085648D01*
X135577997Y-55015956D01*
X135588636Y-54994199D01*
X135634814Y-54919334D01*
X135689999Y-54752797D01*
X135700500Y-54650009D01*
X135700499Y-54024992D01*
X135699962Y-54019738D01*
X135689999Y-53922203D01*
X135689998Y-53922200D01*
X135658337Y-53826655D01*
X135634814Y-53755666D01*
X135542712Y-53606344D01*
X135418656Y-53482288D01*
X135269723Y-53390426D01*
X135269336Y-53390187D01*
X135269331Y-53390185D01*
X135233202Y-53378213D01*
X135102797Y-53335001D01*
X135102795Y-53335000D01*
X135000010Y-53324500D01*
X133999998Y-53324500D01*
X133999980Y-53324501D01*
X133897203Y-53335000D01*
X133897200Y-53335001D01*
X133730668Y-53390185D01*
X133730663Y-53390187D01*
X133679158Y-53421956D01*
X133581344Y-53482288D01*
X133581342Y-53482289D01*
X133575197Y-53486080D01*
X133574011Y-53484158D01*
X133519356Y-53506207D01*
X133507243Y-53506800D01*
X132830681Y-53506800D01*
X132670199Y-53538722D01*
X132670193Y-53538724D01*
X132519017Y-53601343D01*
X132382957Y-53692254D01*
X130870434Y-55204777D01*
X130809111Y-55238262D01*
X130739419Y-55233278D01*
X130683486Y-55191406D01*
X130659069Y-55125942D01*
X130665047Y-55078096D01*
X130689999Y-55002797D01*
X130700500Y-54900009D01*
X130700499Y-54274992D01*
X130698997Y-54260292D01*
X130689999Y-54172203D01*
X130689998Y-54172200D01*
X130673809Y-54123345D01*
X130634814Y-54005666D01*
X130542712Y-53856344D01*
X130418656Y-53732288D01*
X130287293Y-53651263D01*
X130269336Y-53640187D01*
X130269331Y-53640185D01*
X130236096Y-53629172D01*
X130102797Y-53585001D01*
X130102795Y-53585000D01*
X130000016Y-53574500D01*
X130000009Y-53574500D01*
X129725098Y-53574500D01*
X129658059Y-53554815D01*
X129637417Y-53538181D01*
X129108886Y-53009650D01*
X128561415Y-52462180D01*
X128527931Y-52400858D01*
X128532915Y-52331166D01*
X128574787Y-52275233D01*
X128640251Y-52250816D01*
X128649097Y-52250500D01*
X153050903Y-52250500D01*
X153117942Y-52270185D01*
X153163697Y-52322989D01*
X153173641Y-52392147D01*
X153144616Y-52455703D01*
X153138584Y-52462181D01*
X152637582Y-52963181D01*
X152576259Y-52996666D01*
X152549901Y-52999500D01*
X152076662Y-52999500D01*
X152076644Y-52999501D01*
X151977292Y-53009650D01*
X151977289Y-53009651D01*
X151816305Y-53062996D01*
X151816294Y-53063001D01*
X151671959Y-53152029D01*
X151671955Y-53152032D01*
X151552031Y-53271956D01*
X151540535Y-53290596D01*
X151488588Y-53337321D01*
X151434996Y-53349500D01*
X141470940Y-53349500D01*
X141430019Y-53360464D01*
X141430019Y-53360465D01*
X141392751Y-53370451D01*
X141318214Y-53390423D01*
X141318209Y-53390426D01*
X141181290Y-53469475D01*
X141181282Y-53469481D01*
X135235339Y-59415425D01*
X135174016Y-59448910D01*
X135171850Y-59449361D01*
X135016508Y-59480261D01*
X135016498Y-59480264D01*
X134870827Y-59540602D01*
X134870814Y-59540609D01*
X134739711Y-59628210D01*
X134739707Y-59628213D01*
X134628213Y-59739707D01*
X134628210Y-59739711D01*
X134540609Y-59870814D01*
X134540602Y-59870827D01*
X134480264Y-60016498D01*
X134480261Y-60016510D01*
X134449500Y-60171153D01*
X134449500Y-60328846D01*
X134480261Y-60483489D01*
X134480264Y-60483501D01*
X134540602Y-60629172D01*
X134540609Y-60629185D01*
X134628210Y-60760288D01*
X134628213Y-60760292D01*
X134739707Y-60871786D01*
X134739711Y-60871789D01*
X134870814Y-60959390D01*
X134870827Y-60959397D01*
X134987404Y-61007684D01*
X135016503Y-61019737D01*
X135169127Y-61050096D01*
X135171153Y-61050499D01*
X135171156Y-61050500D01*
X135171158Y-61050500D01*
X135328844Y-61050500D01*
X135328845Y-61050499D01*
X135483497Y-61019737D01*
X135629179Y-60959394D01*
X135760289Y-60871789D01*
X135871789Y-60760289D01*
X135959394Y-60629179D01*
X135962854Y-60620827D01*
X135976012Y-60589059D01*
X136019737Y-60483497D01*
X136040680Y-60378210D01*
X136050638Y-60328150D01*
X136083023Y-60266239D01*
X136084518Y-60264716D01*
X141762416Y-54586819D01*
X141823739Y-54553334D01*
X141850097Y-54550500D01*
X151434996Y-54550500D01*
X151502035Y-54570185D01*
X151540535Y-54609404D01*
X151552031Y-54628043D01*
X151671955Y-54747967D01*
X151671959Y-54747970D01*
X151816294Y-54836998D01*
X151816297Y-54836999D01*
X151816303Y-54837003D01*
X151977292Y-54890349D01*
X152076655Y-54900500D01*
X152923344Y-54900499D01*
X152923352Y-54900498D01*
X152923355Y-54900498D01*
X153002091Y-54892455D01*
X153022708Y-54890349D01*
X153183697Y-54837003D01*
X153328044Y-54747968D01*
X153447968Y-54628044D01*
X153537003Y-54483697D01*
X153590349Y-54322708D01*
X153600500Y-54223345D01*
X153600499Y-53750095D01*
X153620183Y-53683057D01*
X153636813Y-53662420D01*
X154311416Y-52987819D01*
X154372739Y-52954334D01*
X154399097Y-52951500D01*
X155092098Y-52951500D01*
X155159137Y-52971185D01*
X155204892Y-53023989D01*
X155214836Y-53093147D01*
X155213715Y-53099691D01*
X155199500Y-53171153D01*
X155199500Y-53328846D01*
X155230261Y-53483489D01*
X155230264Y-53483501D01*
X155290602Y-53629172D01*
X155290609Y-53629185D01*
X155378210Y-53760288D01*
X155378213Y-53760292D01*
X155489707Y-53871786D01*
X155489711Y-53871789D01*
X155620814Y-53959390D01*
X155620827Y-53959397D01*
X155732525Y-54005663D01*
X155766503Y-54019737D01*
X155831147Y-54032595D01*
X155921849Y-54050638D01*
X155938605Y-54059402D01*
X155957085Y-54063423D01*
X155982123Y-54082167D01*
X155983760Y-54083023D01*
X155985339Y-54084574D01*
X156115139Y-54214374D01*
X156115149Y-54214385D01*
X156119479Y-54218715D01*
X156119480Y-54218716D01*
X156231284Y-54330520D01*
X156297442Y-54368716D01*
X156368215Y-54409577D01*
X156520943Y-54450500D01*
X156684996Y-54450500D01*
X156752035Y-54470185D01*
X156790534Y-54509403D01*
X156796095Y-54518418D01*
X156802031Y-54528043D01*
X156921955Y-54647967D01*
X156921959Y-54647970D01*
X157066294Y-54736998D01*
X157066297Y-54736999D01*
X157066303Y-54737003D01*
X157227292Y-54790349D01*
X157326655Y-54800500D01*
X158173344Y-54800499D01*
X158173352Y-54800498D01*
X158173355Y-54800498D01*
X158227760Y-54794940D01*
X158272708Y-54790349D01*
X158433697Y-54737003D01*
X158578044Y-54647968D01*
X158697968Y-54528044D01*
X158787003Y-54383697D01*
X158840349Y-54222708D01*
X158850500Y-54123345D01*
X158850499Y-53576656D01*
X158849441Y-53566303D01*
X158840349Y-53477292D01*
X158840348Y-53477289D01*
X158833116Y-53455465D01*
X158787003Y-53316303D01*
X158786999Y-53316297D01*
X158786998Y-53316294D01*
X158697970Y-53171959D01*
X158697967Y-53171955D01*
X158689193Y-53163181D01*
X158655708Y-53101858D01*
X158660692Y-53032166D01*
X158702564Y-52976233D01*
X158768028Y-52951816D01*
X158776874Y-52951500D01*
X162579319Y-52951500D01*
X162646358Y-52971185D01*
X162692113Y-53023989D01*
X162702057Y-53093147D01*
X162697025Y-53114504D01*
X162659651Y-53227290D01*
X162649500Y-53326647D01*
X162649500Y-53873337D01*
X162649501Y-53873355D01*
X162659650Y-53972707D01*
X162659651Y-53972710D01*
X162712996Y-54133694D01*
X162713001Y-54133705D01*
X162802029Y-54278040D01*
X162802032Y-54278044D01*
X162921955Y-54397967D01*
X162921959Y-54397970D01*
X163066294Y-54486998D01*
X163066297Y-54486999D01*
X163066303Y-54487003D01*
X163227292Y-54540349D01*
X163326655Y-54550500D01*
X163799900Y-54550499D01*
X163866939Y-54570183D01*
X163887581Y-54586817D01*
X163981284Y-54680520D01*
X163981286Y-54680521D01*
X163981290Y-54680524D01*
X164067886Y-54730520D01*
X164067887Y-54730520D01*
X164118215Y-54759577D01*
X164270943Y-54800500D01*
X164270944Y-54800500D01*
X164278793Y-54802603D01*
X164277954Y-54805731D01*
X164327968Y-54827819D01*
X164335625Y-54834860D01*
X164786970Y-55286205D01*
X164820455Y-55347528D01*
X164815471Y-55417220D01*
X164773599Y-55473153D01*
X164746742Y-55488447D01*
X164620824Y-55540604D01*
X164620814Y-55540609D01*
X164489712Y-55628209D01*
X164378208Y-55739714D01*
X164346155Y-55787683D01*
X164296412Y-55830722D01*
X164286133Y-55835621D01*
X164268215Y-55840423D01*
X164235291Y-55859432D01*
X164231071Y-55861867D01*
X164231057Y-55861875D01*
X164131285Y-55919478D01*
X164125552Y-55923878D01*
X164060382Y-55949070D01*
X164050068Y-55949500D01*
X163326662Y-55949500D01*
X163326644Y-55949501D01*
X163227292Y-55959650D01*
X163227289Y-55959651D01*
X163066305Y-56012996D01*
X163066294Y-56013001D01*
X162921959Y-56102029D01*
X162921955Y-56102032D01*
X162802032Y-56221955D01*
X162802029Y-56221959D01*
X162713001Y-56366294D01*
X162712996Y-56366305D01*
X162659651Y-56527290D01*
X162649500Y-56626647D01*
X162649500Y-57173337D01*
X162649501Y-57173355D01*
X162659650Y-57272707D01*
X162659651Y-57272710D01*
X162712996Y-57433694D01*
X162713001Y-57433705D01*
X162802029Y-57578040D01*
X162802032Y-57578044D01*
X162921955Y-57697967D01*
X162921959Y-57697970D01*
X163066294Y-57786998D01*
X163066297Y-57786999D01*
X163066303Y-57787003D01*
X163227292Y-57840349D01*
X163326655Y-57850500D01*
X164173344Y-57850499D01*
X164173352Y-57850498D01*
X164173355Y-57850498D01*
X164227760Y-57844940D01*
X164272708Y-57840349D01*
X164433697Y-57787003D01*
X164578044Y-57697968D01*
X164697968Y-57578044D01*
X164787003Y-57433697D01*
X164840349Y-57272708D01*
X164850500Y-57173345D01*
X164850499Y-57173331D01*
X164850660Y-57170197D01*
X164850820Y-57170205D01*
X164850821Y-57170204D01*
X164850844Y-57170206D01*
X164851747Y-57170252D01*
X164870185Y-57107461D01*
X164922989Y-57061706D01*
X164974500Y-57050500D01*
X165078844Y-57050500D01*
X165078845Y-57050499D01*
X165233497Y-57019737D01*
X165379179Y-56959394D01*
X165510289Y-56871789D01*
X165621789Y-56760289D01*
X165709394Y-56629179D01*
X165709397Y-56629172D01*
X165761552Y-56503258D01*
X165805392Y-56448854D01*
X165871687Y-56426789D01*
X165939386Y-56444068D01*
X165963794Y-56463029D01*
X166613181Y-57112416D01*
X166646666Y-57173739D01*
X166649500Y-57200097D01*
X166649501Y-57673331D01*
X166649501Y-57673355D01*
X166659650Y-57772707D01*
X166659651Y-57772710D01*
X166712996Y-57933694D01*
X166713001Y-57933705D01*
X166802029Y-58078040D01*
X166802032Y-58078044D01*
X166900742Y-58176754D01*
X166934227Y-58238077D01*
X166932836Y-58296528D01*
X166899499Y-58420943D01*
X166899499Y-58589046D01*
X166899500Y-58589059D01*
X166899500Y-59949902D01*
X166879815Y-60016941D01*
X166863181Y-60037583D01*
X166089599Y-60811164D01*
X166028276Y-60844649D01*
X165958584Y-60839665D01*
X165933028Y-60826586D01*
X165879183Y-60790608D01*
X165879172Y-60790602D01*
X165733501Y-60730264D01*
X165733489Y-60730261D01*
X165578845Y-60699500D01*
X165578842Y-60699500D01*
X165421158Y-60699500D01*
X165421155Y-60699500D01*
X165266510Y-60730261D01*
X165266498Y-60730264D01*
X165120827Y-60790602D01*
X165120814Y-60790609D01*
X164989711Y-60878210D01*
X164989707Y-60878213D01*
X164878213Y-60989707D01*
X164878210Y-60989711D01*
X164790609Y-61120814D01*
X164790602Y-61120827D01*
X164730264Y-61266498D01*
X164730261Y-61266510D01*
X164699500Y-61421153D01*
X164699500Y-61578846D01*
X164730261Y-61733489D01*
X164730264Y-61733501D01*
X164790602Y-61879172D01*
X164790609Y-61879185D01*
X164878210Y-62010288D01*
X164878213Y-62010292D01*
X164989707Y-62121786D01*
X164989711Y-62121789D01*
X165120814Y-62209390D01*
X165120827Y-62209397D01*
X165265885Y-62269481D01*
X165266503Y-62269737D01*
X165386123Y-62293531D01*
X165421153Y-62300499D01*
X165421156Y-62300500D01*
X165421158Y-62300500D01*
X165578844Y-62300500D01*
X165578845Y-62300499D01*
X165733497Y-62269737D01*
X165879179Y-62209394D01*
X165907571Y-62190423D01*
X165965709Y-62151577D01*
X167249500Y-62151577D01*
X167249500Y-62348422D01*
X167280290Y-62542826D01*
X167341117Y-62730030D01*
X167417113Y-62879179D01*
X167430476Y-62905405D01*
X167546172Y-63064646D01*
X167546174Y-63064648D01*
X168035355Y-63553830D01*
X168035360Y-63553834D01*
X168137731Y-63628210D01*
X168194595Y-63669524D01*
X168369974Y-63758884D01*
X168493605Y-63799054D01*
X168525991Y-63809577D01*
X168525993Y-63809578D01*
X168557166Y-63819707D01*
X168557169Y-63819707D01*
X168557174Y-63819709D01*
X168647213Y-63833969D01*
X168751578Y-63850500D01*
X168751583Y-63850500D01*
X168751584Y-63850500D01*
X168948417Y-63850500D01*
X169504092Y-63850500D01*
X169571131Y-63870185D01*
X169609636Y-63914271D01*
X169611395Y-63913187D01*
X169615185Y-63919332D01*
X169615186Y-63919334D01*
X169707288Y-64068656D01*
X169831344Y-64192712D01*
X169980666Y-64284814D01*
X170147203Y-64339999D01*
X170249991Y-64350500D01*
X174250008Y-64350499D01*
X174352797Y-64339999D01*
X174519334Y-64284814D01*
X174668656Y-64192712D01*
X174792712Y-64068656D01*
X174884814Y-63919334D01*
X174884814Y-63919332D01*
X174888605Y-63913187D01*
X174890399Y-63914293D01*
X174929687Y-63869663D01*
X174993589Y-63851170D01*
X174993567Y-63850882D01*
X174994968Y-63850771D01*
X174995908Y-63850500D01*
X174998422Y-63850500D01*
X175192826Y-63819709D01*
X175224009Y-63809577D01*
X175380026Y-63758884D01*
X175555405Y-63669524D01*
X175582297Y-63649986D01*
X177950001Y-63649986D01*
X177960494Y-63752697D01*
X178015641Y-63919119D01*
X178015643Y-63919124D01*
X178107684Y-64068345D01*
X178231654Y-64192315D01*
X178380875Y-64284356D01*
X178380880Y-64284358D01*
X178547302Y-64339505D01*
X178547309Y-64339506D01*
X178650019Y-64349999D01*
X180399999Y-64349999D01*
X180900000Y-64349999D01*
X182649972Y-64349999D01*
X182649986Y-64349998D01*
X182752697Y-64339505D01*
X182919119Y-64284358D01*
X182919124Y-64284356D01*
X183068345Y-64192315D01*
X183192315Y-64068345D01*
X183284356Y-63919124D01*
X183284358Y-63919119D01*
X183339505Y-63752697D01*
X183339506Y-63752690D01*
X183349999Y-63649986D01*
X183350000Y-63649973D01*
X183350000Y-62850000D01*
X180900000Y-62850000D01*
X180900000Y-64349999D01*
X180399999Y-64349999D01*
X180400000Y-64349998D01*
X180400000Y-62850000D01*
X177950001Y-62850000D01*
X177950001Y-63649986D01*
X175582297Y-63649986D01*
X175714646Y-63553828D01*
X176203829Y-63064646D01*
X176319524Y-62905405D01*
X176408884Y-62730026D01*
X176469709Y-62542826D01*
X176489472Y-62418046D01*
X176495294Y-62381286D01*
X176500500Y-62348421D01*
X176500500Y-62151581D01*
X176498956Y-62141834D01*
X176485928Y-62059577D01*
X176469709Y-61957173D01*
X176408884Y-61769974D01*
X176408882Y-61769971D01*
X176408882Y-61769969D01*
X176345805Y-61646174D01*
X176321474Y-61598422D01*
X176319523Y-61594592D01*
X176287134Y-61550013D01*
X177950000Y-61550013D01*
X177950000Y-62350000D01*
X180400000Y-62350000D01*
X180900000Y-62350000D01*
X183349999Y-62350000D01*
X183349999Y-61799983D01*
X184099500Y-61799983D01*
X184099500Y-63900001D01*
X184099501Y-63900018D01*
X184110000Y-64002796D01*
X184110001Y-64002799D01*
X184165185Y-64169331D01*
X184165187Y-64169336D01*
X184193503Y-64215243D01*
X184257288Y-64318656D01*
X184381344Y-64442712D01*
X184530666Y-64534814D01*
X184697203Y-64589999D01*
X184799991Y-64600500D01*
X188800008Y-64600499D01*
X188902797Y-64589999D01*
X188994289Y-64559680D01*
X189064113Y-64557279D01*
X189089820Y-64568163D01*
X189090254Y-64567312D01*
X189094594Y-64569523D01*
X189094595Y-64569524D01*
X189269974Y-64658884D01*
X189421645Y-64708165D01*
X189457174Y-64719709D01*
X189489575Y-64724840D01*
X189651578Y-64750500D01*
X189651583Y-64750500D01*
X189848422Y-64750500D01*
X190042826Y-64719709D01*
X190063486Y-64712996D01*
X190230026Y-64658884D01*
X190405405Y-64569524D01*
X190564646Y-64453828D01*
X190703828Y-64314646D01*
X190819524Y-64155405D01*
X190908884Y-63980026D01*
X190934891Y-63899986D01*
X192500001Y-63899986D01*
X192510494Y-64002697D01*
X192565641Y-64169119D01*
X192565643Y-64169124D01*
X192657684Y-64318345D01*
X192781654Y-64442315D01*
X192930875Y-64534356D01*
X192930880Y-64534358D01*
X193097302Y-64589505D01*
X193097309Y-64589506D01*
X193200019Y-64599999D01*
X194949999Y-64599999D01*
X194950000Y-64599998D01*
X194950000Y-63100000D01*
X192500001Y-63100000D01*
X192500001Y-63899986D01*
X190934891Y-63899986D01*
X190969709Y-63792826D01*
X191000500Y-63598422D01*
X191000500Y-63401583D01*
X190998646Y-63389878D01*
X190998643Y-63389865D01*
X190998340Y-63387949D01*
X190969709Y-63207174D01*
X190957937Y-63170943D01*
X190908884Y-63019974D01*
X190908882Y-63019971D01*
X190908882Y-63019969D01*
X190844099Y-62892826D01*
X190819524Y-62844595D01*
X190703828Y-62685354D01*
X190606155Y-62587681D01*
X190572670Y-62526358D01*
X190577654Y-62456666D01*
X190606155Y-62412319D01*
X190648722Y-62369752D01*
X190703828Y-62314646D01*
X190819524Y-62155405D01*
X190908884Y-61980025D01*
X190967374Y-61800013D01*
X192500000Y-61800013D01*
X192500000Y-62600000D01*
X194950000Y-62600000D01*
X194950000Y-61100000D01*
X195450000Y-61100000D01*
X195450000Y-64599999D01*
X197199972Y-64599999D01*
X197199986Y-64599998D01*
X197302697Y-64589505D01*
X197469119Y-64534358D01*
X197469124Y-64534356D01*
X197618345Y-64442315D01*
X197742315Y-64318345D01*
X197834356Y-64169124D01*
X197834359Y-64169117D01*
X197839345Y-64154071D01*
X197879116Y-64096626D01*
X197943632Y-64069802D01*
X198012408Y-64082116D01*
X198044732Y-64105393D01*
X198131654Y-64192315D01*
X198280875Y-64284356D01*
X198280880Y-64284358D01*
X198447302Y-64339505D01*
X198447309Y-64339506D01*
X198550019Y-64349999D01*
X200299999Y-64349999D01*
X200800000Y-64349999D01*
X202549972Y-64349999D01*
X202549986Y-64349998D01*
X202652697Y-64339505D01*
X202819119Y-64284358D01*
X202819124Y-64284356D01*
X202968345Y-64192315D01*
X203092315Y-64068345D01*
X203184356Y-63919124D01*
X203184358Y-63919119D01*
X203239505Y-63752697D01*
X203239506Y-63752690D01*
X203249999Y-63649986D01*
X203250000Y-63649973D01*
X203250000Y-62850000D01*
X200800000Y-62850000D01*
X200800000Y-64349999D01*
X200299999Y-64349999D01*
X200300000Y-64349998D01*
X200300000Y-62401577D01*
X204499500Y-62401577D01*
X204499500Y-62598422D01*
X204530290Y-62792826D01*
X204591117Y-62980030D01*
X204663346Y-63121786D01*
X204680476Y-63155405D01*
X204796172Y-63314646D01*
X205035354Y-63553828D01*
X205194594Y-63669524D01*
X205278387Y-63712218D01*
X205369975Y-63758884D01*
X205493605Y-63799054D01*
X205557173Y-63819709D01*
X205612718Y-63828506D01*
X205751578Y-63850500D01*
X205751583Y-63850500D01*
X205948416Y-63850500D01*
X206204092Y-63850500D01*
X206271131Y-63870185D01*
X206309636Y-63914271D01*
X206311395Y-63913187D01*
X206315185Y-63919332D01*
X206315186Y-63919334D01*
X206407288Y-64068656D01*
X206531344Y-64192712D01*
X206680666Y-64284814D01*
X206847203Y-64339999D01*
X206949991Y-64350500D01*
X210950008Y-64350499D01*
X211052797Y-64339999D01*
X211219334Y-64284814D01*
X211368656Y-64192712D01*
X211492712Y-64068656D01*
X211584814Y-63919334D01*
X211584814Y-63919332D01*
X211588605Y-63913187D01*
X211590399Y-63914293D01*
X211629687Y-63869663D01*
X211695908Y-63850500D01*
X212098422Y-63850500D01*
X212292826Y-63819709D01*
X212292832Y-63819707D01*
X212480025Y-63758884D01*
X212655405Y-63669524D01*
X212814646Y-63553828D01*
X212953828Y-63414646D01*
X213069524Y-63255405D01*
X213155603Y-63086463D01*
X213158882Y-63080029D01*
X213158882Y-63080028D01*
X213158884Y-63080025D01*
X213219709Y-62892826D01*
X213220719Y-62886447D01*
X213250500Y-62698422D01*
X213250500Y-62501577D01*
X213219709Y-62307173D01*
X213187217Y-62207174D01*
X213158884Y-62119975D01*
X213158882Y-62119972D01*
X213158882Y-62119970D01*
X213102998Y-62010292D01*
X213069524Y-61944595D01*
X212953828Y-61785354D01*
X212814646Y-61646172D01*
X212655405Y-61530476D01*
X212636442Y-61520814D01*
X212480029Y-61441117D01*
X212292826Y-61380290D01*
X212098422Y-61349500D01*
X212098417Y-61349500D01*
X211921870Y-61349500D01*
X211854831Y-61329815D01*
X211809076Y-61277011D01*
X211799132Y-61207853D01*
X211818380Y-61160420D01*
X211816978Y-61159561D01*
X211819519Y-61155413D01*
X211819520Y-61155409D01*
X211819524Y-61155405D01*
X211908884Y-60980025D01*
X211962807Y-60814069D01*
X211969709Y-60792827D01*
X211986731Y-60685351D01*
X212000500Y-60598422D01*
X212000500Y-60401578D01*
X211979618Y-60269737D01*
X211969709Y-60207174D01*
X211969707Y-60207169D01*
X211969707Y-60207166D01*
X211958780Y-60173537D01*
X211958779Y-60173536D01*
X211958779Y-60173535D01*
X211908884Y-60019975D01*
X211819524Y-59844595D01*
X211703828Y-59685354D01*
X211564646Y-59546172D01*
X211405405Y-59430476D01*
X211358365Y-59406508D01*
X211230029Y-59341117D01*
X211042826Y-59280290D01*
X210848422Y-59249500D01*
X210848417Y-59249500D01*
X210848416Y-59249500D01*
X210651583Y-59249500D01*
X210651578Y-59249500D01*
X210457176Y-59280290D01*
X210457171Y-59280291D01*
X210421644Y-59291834D01*
X210421645Y-59291835D01*
X210269970Y-59341117D01*
X210094594Y-59430476D01*
X209961552Y-59527138D01*
X209961551Y-59527137D01*
X209935360Y-59546166D01*
X209935352Y-59546173D01*
X208668343Y-60813181D01*
X208607020Y-60846666D01*
X208580662Y-60849500D01*
X206949998Y-60849500D01*
X206949981Y-60849501D01*
X206847203Y-60860000D01*
X206847200Y-60860001D01*
X206680668Y-60915185D01*
X206680663Y-60915187D01*
X206531342Y-61007289D01*
X206407288Y-61131343D01*
X206407285Y-61131347D01*
X206321071Y-61271122D01*
X206269123Y-61317847D01*
X206200161Y-61329068D01*
X206177215Y-61323956D01*
X206042828Y-61280291D01*
X205848422Y-61249500D01*
X205848417Y-61249500D01*
X205651583Y-61249500D01*
X205651578Y-61249500D01*
X205457173Y-61280290D01*
X205269969Y-61341117D01*
X205094594Y-61430476D01*
X205016793Y-61487003D01*
X204935354Y-61546172D01*
X204935352Y-61546174D01*
X204935351Y-61546174D01*
X204796174Y-61685351D01*
X204796174Y-61685352D01*
X204796172Y-61685354D01*
X204761200Y-61733489D01*
X204680476Y-61844594D01*
X204591117Y-62019969D01*
X204530290Y-62207173D01*
X204499500Y-62401577D01*
X200300000Y-62401577D01*
X200300000Y-62350000D01*
X200800000Y-62350000D01*
X203249999Y-62350000D01*
X203249999Y-61550028D01*
X203249998Y-61550013D01*
X203239505Y-61447302D01*
X203184358Y-61280880D01*
X203184356Y-61280875D01*
X203092315Y-61131654D01*
X202968345Y-61007684D01*
X202819124Y-60915643D01*
X202819119Y-60915641D01*
X202652697Y-60860494D01*
X202652690Y-60860493D01*
X202549986Y-60850000D01*
X200800000Y-60850000D01*
X200800000Y-62350000D01*
X200300000Y-62350000D01*
X200300000Y-60850000D01*
X198550028Y-60850000D01*
X198550012Y-60850001D01*
X198447302Y-60860494D01*
X198280880Y-60915641D01*
X198280875Y-60915643D01*
X198131654Y-61007684D01*
X198007684Y-61131654D01*
X197915643Y-61280875D01*
X197915639Y-61280885D01*
X197910652Y-61295934D01*
X197870877Y-61353377D01*
X197806360Y-61380198D01*
X197737585Y-61367880D01*
X197705267Y-61344606D01*
X197618345Y-61257684D01*
X197469124Y-61165643D01*
X197469119Y-61165641D01*
X197302697Y-61110494D01*
X197302690Y-61110493D01*
X197199986Y-61100000D01*
X195450000Y-61100000D01*
X194950000Y-61100000D01*
X193200028Y-61100000D01*
X193200012Y-61100001D01*
X193097302Y-61110494D01*
X192930880Y-61165641D01*
X192930875Y-61165643D01*
X192781654Y-61257684D01*
X192657684Y-61381654D01*
X192565643Y-61530875D01*
X192565641Y-61530880D01*
X192510494Y-61697302D01*
X192510493Y-61697309D01*
X192500000Y-61800013D01*
X190967374Y-61800013D01*
X190969709Y-61792826D01*
X190970061Y-61790604D01*
X190972142Y-61777466D01*
X191000500Y-61598422D01*
X191000500Y-61401577D01*
X190969709Y-61207173D01*
X190933917Y-61097019D01*
X190908884Y-61019975D01*
X190908882Y-61019972D01*
X190908882Y-61019970D01*
X190858532Y-60921153D01*
X190819524Y-60844595D01*
X190703828Y-60685354D01*
X190564646Y-60546172D01*
X190405405Y-60430476D01*
X190386699Y-60420945D01*
X190230029Y-60341117D01*
X190042826Y-60280290D01*
X189848422Y-60249500D01*
X189848417Y-60249500D01*
X188248416Y-60249500D01*
X188051583Y-60249500D01*
X188051578Y-60249500D01*
X187857172Y-60280291D01*
X187796348Y-60300053D01*
X187796348Y-60300054D01*
X187753103Y-60314105D01*
X187669970Y-60341117D01*
X187551301Y-60401583D01*
X187494594Y-60430476D01*
X187413071Y-60489707D01*
X187335354Y-60546172D01*
X187335352Y-60546174D01*
X187335351Y-60546174D01*
X186818344Y-61063181D01*
X186757021Y-61096666D01*
X186730663Y-61099500D01*
X184799998Y-61099500D01*
X184799981Y-61099501D01*
X184697203Y-61110000D01*
X184697200Y-61110001D01*
X184530668Y-61165185D01*
X184530663Y-61165187D01*
X184381342Y-61257289D01*
X184257289Y-61381342D01*
X184165187Y-61530663D01*
X184165185Y-61530668D01*
X184153380Y-61566294D01*
X184110001Y-61697203D01*
X184110001Y-61697204D01*
X184110000Y-61697204D01*
X184099500Y-61799983D01*
X183349999Y-61799983D01*
X183349999Y-61550028D01*
X183349998Y-61550013D01*
X183339505Y-61447302D01*
X183284358Y-61280880D01*
X183284356Y-61280875D01*
X183192315Y-61131654D01*
X183068345Y-61007684D01*
X182919124Y-60915643D01*
X182919119Y-60915641D01*
X182752697Y-60860494D01*
X182752690Y-60860493D01*
X182649986Y-60850000D01*
X180900000Y-60850000D01*
X180900000Y-62350000D01*
X180400000Y-62350000D01*
X180400000Y-60850000D01*
X178650028Y-60850000D01*
X178650012Y-60850001D01*
X178547302Y-60860494D01*
X178380880Y-60915641D01*
X178380875Y-60915643D01*
X178231654Y-61007684D01*
X178107684Y-61131654D01*
X178015643Y-61280875D01*
X178015641Y-61280880D01*
X177960494Y-61447302D01*
X177960493Y-61447309D01*
X177950000Y-61550013D01*
X176287134Y-61550013D01*
X176203834Y-61435360D01*
X176203830Y-61435355D01*
X176064644Y-61296169D01*
X176064639Y-61296165D01*
X175905408Y-61180478D01*
X175905407Y-61180477D01*
X175905405Y-61180476D01*
X175844611Y-61149500D01*
X175730030Y-61091117D01*
X175542827Y-61030290D01*
X175348422Y-60999500D01*
X175348417Y-60999500D01*
X175151583Y-60999500D01*
X175151578Y-60999500D01*
X174967079Y-61028721D01*
X174967071Y-61028723D01*
X174958102Y-61030144D01*
X174957174Y-61030291D01*
X174828374Y-61072140D01*
X174827766Y-61072331D01*
X174793454Y-61072940D01*
X174759200Y-61073919D01*
X174758574Y-61073560D01*
X174757907Y-61073572D01*
X174748850Y-61067976D01*
X174703042Y-61041674D01*
X174668657Y-61007289D01*
X174668656Y-61007288D01*
X174529271Y-60921315D01*
X174519336Y-60915187D01*
X174519331Y-60915185D01*
X174479650Y-60902036D01*
X174352797Y-60860001D01*
X174352795Y-60860000D01*
X174250010Y-60849500D01*
X170249998Y-60849500D01*
X170249981Y-60849501D01*
X170147203Y-60860000D01*
X170147200Y-60860001D01*
X169980668Y-60915185D01*
X169980663Y-60915187D01*
X169831342Y-61007289D01*
X169707289Y-61131342D01*
X169682731Y-61171158D01*
X169615418Y-61280291D01*
X169611395Y-61286813D01*
X169609600Y-61285706D01*
X169605014Y-61290916D01*
X169597805Y-61306703D01*
X169582406Y-61316598D01*
X169570313Y-61330337D01*
X169553425Y-61335224D01*
X169539027Y-61344477D01*
X169504092Y-61349500D01*
X169419336Y-61349500D01*
X169352297Y-61329815D01*
X169331655Y-61313181D01*
X169314648Y-61296174D01*
X169314646Y-61296172D01*
X169155405Y-61180476D01*
X169140711Y-61172989D01*
X168980030Y-61091117D01*
X168792826Y-61030290D01*
X168598422Y-60999500D01*
X168598417Y-60999500D01*
X168401583Y-60999500D01*
X168401578Y-60999500D01*
X168207173Y-61030290D01*
X168019969Y-61091117D01*
X167844594Y-61180476D01*
X167790097Y-61220071D01*
X167685354Y-61296172D01*
X167685352Y-61296174D01*
X167685351Y-61296174D01*
X167546174Y-61435351D01*
X167546174Y-61435352D01*
X167546172Y-61435354D01*
X167536188Y-61449096D01*
X167430476Y-61594594D01*
X167341117Y-61769969D01*
X167280290Y-61957173D01*
X167249500Y-62151577D01*
X165965709Y-62151577D01*
X166010875Y-62121398D01*
X166028921Y-62115747D01*
X166044831Y-62105523D01*
X166075792Y-62101071D01*
X166077553Y-62100520D01*
X166079766Y-62100500D01*
X166163331Y-62100500D01*
X166163347Y-62100501D01*
X166170943Y-62100501D01*
X166329054Y-62100501D01*
X166329057Y-62100501D01*
X166481785Y-62059577D01*
X166531904Y-62030639D01*
X166618716Y-61980520D01*
X166730520Y-61868716D01*
X166730520Y-61868714D01*
X166740728Y-61858507D01*
X166740730Y-61858504D01*
X167858506Y-60740728D01*
X167858511Y-60740724D01*
X167868714Y-60730520D01*
X167868716Y-60730520D01*
X167980520Y-60618716D01*
X167995755Y-60592328D01*
X168036969Y-60520944D01*
X168036970Y-60520942D01*
X168058586Y-60483501D01*
X168059577Y-60481785D01*
X168100501Y-60329057D01*
X168100501Y-60170943D01*
X168100501Y-60163348D01*
X168100500Y-60163330D01*
X168100500Y-58800098D01*
X168120185Y-58733059D01*
X168136819Y-58712417D01*
X168178083Y-58671153D01*
X168230520Y-58618716D01*
X168309577Y-58481784D01*
X168337455Y-58377739D01*
X168373819Y-58318081D01*
X168418230Y-58292128D01*
X168433697Y-58287003D01*
X168578044Y-58197968D01*
X168697968Y-58078044D01*
X168787003Y-57933697D01*
X168840349Y-57772708D01*
X168850500Y-57673345D01*
X168850499Y-57126656D01*
X168849044Y-57112416D01*
X168840349Y-57027292D01*
X168840348Y-57027289D01*
X168823570Y-56976656D01*
X168787003Y-56866303D01*
X168786999Y-56866297D01*
X168786998Y-56866294D01*
X168697970Y-56721959D01*
X168697967Y-56721955D01*
X168578044Y-56602032D01*
X168578040Y-56602029D01*
X168433705Y-56513001D01*
X168433699Y-56512998D01*
X168433697Y-56512997D01*
X168433694Y-56512996D01*
X168272709Y-56459651D01*
X168173352Y-56449500D01*
X168173345Y-56449500D01*
X167700097Y-56449500D01*
X167633058Y-56429815D01*
X167612416Y-56413181D01*
X165037590Y-53838355D01*
X165030521Y-53831286D01*
X165030520Y-53831284D01*
X164886815Y-53687579D01*
X164853333Y-53626259D01*
X164850499Y-53599901D01*
X164850499Y-53326662D01*
X164850498Y-53326644D01*
X164840349Y-53227292D01*
X164840348Y-53227289D01*
X164821748Y-53171158D01*
X164802974Y-53114503D01*
X164800573Y-53044676D01*
X164836305Y-52984634D01*
X164898825Y-52953441D01*
X164920681Y-52951500D01*
X167087025Y-52951500D01*
X167154064Y-52971185D01*
X167199819Y-53023989D01*
X167209763Y-53093147D01*
X167180738Y-53156703D01*
X167126029Y-53193206D01*
X167066305Y-53212996D01*
X167066294Y-53213001D01*
X166921959Y-53302029D01*
X166921955Y-53302032D01*
X166802032Y-53421955D01*
X166802029Y-53421959D01*
X166713001Y-53566294D01*
X166712996Y-53566305D01*
X166659651Y-53727290D01*
X166649500Y-53826647D01*
X166649500Y-54373337D01*
X166649501Y-54373355D01*
X166659650Y-54472707D01*
X166659651Y-54472710D01*
X166712996Y-54633694D01*
X166713001Y-54633705D01*
X166802029Y-54778040D01*
X166802032Y-54778044D01*
X166921955Y-54897967D01*
X166921959Y-54897970D01*
X167066294Y-54986998D01*
X167066297Y-54986999D01*
X167066303Y-54987003D01*
X167227292Y-55040349D01*
X167326655Y-55050500D01*
X168173344Y-55050499D01*
X168173352Y-55050498D01*
X168173355Y-55050498D01*
X168227760Y-55044940D01*
X168272708Y-55040349D01*
X168433697Y-54987003D01*
X168578044Y-54897968D01*
X168697968Y-54778044D01*
X168709465Y-54759403D01*
X168761412Y-54712679D01*
X168815004Y-54700500D01*
X169074684Y-54700500D01*
X169122136Y-54709939D01*
X169241972Y-54759576D01*
X169266503Y-54769737D01*
X169370121Y-54790348D01*
X169421153Y-54800499D01*
X169421156Y-54800500D01*
X169421158Y-54800500D01*
X169578844Y-54800500D01*
X169578845Y-54800499D01*
X169733497Y-54769737D01*
X169879179Y-54709394D01*
X170010289Y-54621789D01*
X170121789Y-54510289D01*
X170209394Y-54379179D01*
X170269737Y-54233497D01*
X170300500Y-54078842D01*
X170300500Y-53921158D01*
X170300500Y-53921155D01*
X170300499Y-53921153D01*
X170295306Y-53895046D01*
X170269737Y-53766503D01*
X170261865Y-53747498D01*
X170209397Y-53620827D01*
X170209390Y-53620814D01*
X170121789Y-53489711D01*
X170121786Y-53489707D01*
X170010292Y-53378213D01*
X170010288Y-53378210D01*
X169879185Y-53290609D01*
X169879172Y-53290602D01*
X169733501Y-53230264D01*
X169733489Y-53230261D01*
X169578845Y-53199500D01*
X169578842Y-53199500D01*
X169421158Y-53199500D01*
X169421155Y-53199500D01*
X169266510Y-53230261D01*
X169266498Y-53230264D01*
X169120827Y-53290602D01*
X169120814Y-53290609D01*
X168989712Y-53378209D01*
X168956579Y-53411343D01*
X168904739Y-53463182D01*
X168877808Y-53477888D01*
X168851995Y-53494477D01*
X168845795Y-53495368D01*
X168843419Y-53496666D01*
X168817060Y-53499500D01*
X168815004Y-53499500D01*
X168747965Y-53479815D01*
X168709465Y-53440596D01*
X168697968Y-53421956D01*
X168578044Y-53302032D01*
X168578040Y-53302029D01*
X168433705Y-53213001D01*
X168433699Y-53212998D01*
X168433697Y-53212997D01*
X168373970Y-53193205D01*
X168316526Y-53153433D01*
X168289703Y-53088917D01*
X168302018Y-53020141D01*
X168349561Y-52968942D01*
X168412975Y-52951500D01*
X193867059Y-52951500D01*
X193934098Y-52971185D01*
X193979853Y-53023989D01*
X193989797Y-53093147D01*
X193960772Y-53156703D01*
X193954740Y-53163181D01*
X193878213Y-53239707D01*
X193878210Y-53239711D01*
X193790609Y-53370814D01*
X193790602Y-53370827D01*
X193730264Y-53516498D01*
X193730261Y-53516510D01*
X193699500Y-53671153D01*
X193699500Y-53828846D01*
X193730261Y-53983489D01*
X193730264Y-53983501D01*
X193790602Y-54129172D01*
X193790609Y-54129185D01*
X193878210Y-54260288D01*
X193878213Y-54260292D01*
X193989707Y-54371786D01*
X193989711Y-54371789D01*
X194120814Y-54459390D01*
X194120827Y-54459397D01*
X194266498Y-54519735D01*
X194266503Y-54519737D01*
X194406157Y-54547516D01*
X194421153Y-54550499D01*
X194421156Y-54550500D01*
X194421158Y-54550500D01*
X194578844Y-54550500D01*
X194578845Y-54550499D01*
X194733497Y-54519737D01*
X194879179Y-54459394D01*
X195010289Y-54371789D01*
X195121789Y-54260289D01*
X195209394Y-54129179D01*
X195269737Y-53983497D01*
X195274531Y-53959397D01*
X195276339Y-53950309D01*
X195308724Y-53888398D01*
X195369439Y-53853824D01*
X195397956Y-53850500D01*
X212223578Y-53850500D01*
X212290617Y-53870185D01*
X212336372Y-53922989D01*
X212346316Y-53992147D01*
X212317291Y-54055703D01*
X212288675Y-54080038D01*
X212171959Y-54152029D01*
X212171955Y-54152032D01*
X212052031Y-54271956D01*
X212040535Y-54290596D01*
X211988588Y-54337321D01*
X211934996Y-54349500D01*
X210254935Y-54349500D01*
X210187896Y-54329815D01*
X210186090Y-54328633D01*
X210129179Y-54290606D01*
X210129172Y-54290602D01*
X209983501Y-54230264D01*
X209983489Y-54230261D01*
X209828845Y-54199500D01*
X209828842Y-54199500D01*
X209671158Y-54199500D01*
X209671155Y-54199500D01*
X209516510Y-54230261D01*
X209516498Y-54230264D01*
X209370827Y-54290602D01*
X209370814Y-54290609D01*
X209239711Y-54378210D01*
X209239707Y-54378213D01*
X209128213Y-54489707D01*
X209128210Y-54489711D01*
X209040609Y-54620814D01*
X209040602Y-54620827D01*
X208980264Y-54766498D01*
X208980261Y-54766510D01*
X208949500Y-54921153D01*
X208949500Y-55078846D01*
X208980261Y-55233489D01*
X208980264Y-55233501D01*
X209040602Y-55379172D01*
X209040609Y-55379185D01*
X209128210Y-55510288D01*
X209128213Y-55510292D01*
X209239707Y-55621786D01*
X209239711Y-55621789D01*
X209370814Y-55709390D01*
X209370827Y-55709397D01*
X209516498Y-55769735D01*
X209516503Y-55769737D01*
X209671153Y-55800499D01*
X209671156Y-55800500D01*
X209671158Y-55800500D01*
X209828844Y-55800500D01*
X209828845Y-55800499D01*
X209983497Y-55769737D01*
X210120027Y-55713185D01*
X210129172Y-55709397D01*
X210129172Y-55709396D01*
X210129179Y-55709394D01*
X210260289Y-55621789D01*
X210295258Y-55586820D01*
X210356580Y-55553334D01*
X210382940Y-55550500D01*
X211934996Y-55550500D01*
X212002035Y-55570185D01*
X212040535Y-55609404D01*
X212052031Y-55628043D01*
X212171955Y-55747967D01*
X212171959Y-55747970D01*
X212316294Y-55836998D01*
X212316297Y-55836999D01*
X212316303Y-55837003D01*
X212477292Y-55890349D01*
X212576655Y-55900500D01*
X213423344Y-55900499D01*
X213423352Y-55900498D01*
X213423355Y-55900498D01*
X213508650Y-55891785D01*
X213522708Y-55890349D01*
X213683697Y-55837003D01*
X213828044Y-55747968D01*
X213947968Y-55628044D01*
X214037003Y-55483697D01*
X214090349Y-55322708D01*
X214100500Y-55223345D01*
X214100499Y-54676656D01*
X214097806Y-54650297D01*
X214090349Y-54577292D01*
X214090348Y-54577289D01*
X214074030Y-54528044D01*
X214037003Y-54416303D01*
X214036999Y-54416297D01*
X214036998Y-54416294D01*
X213947970Y-54271959D01*
X213947967Y-54271955D01*
X213828044Y-54152032D01*
X213828040Y-54152029D01*
X213711325Y-54080038D01*
X213664600Y-54028090D01*
X213653379Y-53959128D01*
X213681222Y-53895046D01*
X213739291Y-53856190D01*
X213776422Y-53850500D01*
X215723577Y-53850500D01*
X215790616Y-53870185D01*
X215836371Y-53922989D01*
X215846315Y-53992147D01*
X215817290Y-54055703D01*
X215788675Y-54080038D01*
X215671956Y-54152031D01*
X215552032Y-54271955D01*
X215552029Y-54271959D01*
X215463001Y-54416294D01*
X215462996Y-54416305D01*
X215409651Y-54577290D01*
X215399500Y-54676647D01*
X215399500Y-55223337D01*
X215399501Y-55223355D01*
X215409650Y-55322707D01*
X215409651Y-55322710D01*
X215462996Y-55483694D01*
X215463001Y-55483705D01*
X215552029Y-55628040D01*
X215552032Y-55628044D01*
X215671955Y-55747967D01*
X215671959Y-55747970D01*
X215816294Y-55836998D01*
X215816297Y-55836999D01*
X215816303Y-55837003D01*
X215977292Y-55890349D01*
X216076655Y-55900500D01*
X216923344Y-55900499D01*
X216923352Y-55900498D01*
X216923355Y-55900498D01*
X217008650Y-55891785D01*
X217022708Y-55890349D01*
X217183697Y-55837003D01*
X217328044Y-55747968D01*
X217447968Y-55628044D01*
X217537003Y-55483697D01*
X217590349Y-55322708D01*
X217600500Y-55223345D01*
X217600499Y-54676656D01*
X217597806Y-54650297D01*
X217590349Y-54577292D01*
X217590348Y-54577289D01*
X217574030Y-54528044D01*
X217537003Y-54416303D01*
X217536999Y-54416297D01*
X217536998Y-54416294D01*
X217447970Y-54271959D01*
X217447967Y-54271955D01*
X217328043Y-54152031D01*
X217183702Y-54062999D01*
X217177155Y-54059947D01*
X217177904Y-54058338D01*
X217128047Y-54023816D01*
X217101227Y-53959299D01*
X217100500Y-53945887D01*
X217100500Y-53749097D01*
X217120185Y-53682058D01*
X217172989Y-53636303D01*
X217242147Y-53626359D01*
X217305703Y-53655384D01*
X217312181Y-53661416D01*
X218863181Y-55212416D01*
X218896666Y-55273739D01*
X218899500Y-55300097D01*
X218899500Y-57525500D01*
X218879815Y-57592539D01*
X218827011Y-57638294D01*
X218775500Y-57649500D01*
X217565004Y-57649500D01*
X217497965Y-57629815D01*
X217459465Y-57590596D01*
X217447968Y-57571956D01*
X217328044Y-57452032D01*
X217328040Y-57452029D01*
X217183705Y-57363001D01*
X217183699Y-57362998D01*
X217183697Y-57362997D01*
X217127849Y-57344491D01*
X217022709Y-57309651D01*
X216923346Y-57299500D01*
X216076662Y-57299500D01*
X216076644Y-57299501D01*
X215977292Y-57309650D01*
X215977289Y-57309651D01*
X215816305Y-57362996D01*
X215816294Y-57363001D01*
X215671959Y-57452029D01*
X215671955Y-57452032D01*
X215552032Y-57571955D01*
X215552029Y-57571959D01*
X215463001Y-57716294D01*
X215462996Y-57716305D01*
X215409651Y-57877290D01*
X215399500Y-57976647D01*
X215399500Y-58523337D01*
X215399501Y-58523355D01*
X215409650Y-58622707D01*
X215409651Y-58622710D01*
X215462996Y-58783694D01*
X215463001Y-58783705D01*
X215552029Y-58928040D01*
X215552032Y-58928044D01*
X215671955Y-59047967D01*
X215671959Y-59047970D01*
X215816294Y-59136998D01*
X215816297Y-59136999D01*
X215816303Y-59137003D01*
X215977292Y-59190349D01*
X216076655Y-59200500D01*
X216923344Y-59200499D01*
X216923352Y-59200498D01*
X216923355Y-59200498D01*
X216977760Y-59194940D01*
X217022708Y-59190349D01*
X217183697Y-59137003D01*
X217328044Y-59047968D01*
X217447968Y-58928044D01*
X217459465Y-58909403D01*
X217511412Y-58862679D01*
X217565004Y-58850500D01*
X218285189Y-58850500D01*
X218352228Y-58870185D01*
X218397983Y-58922989D01*
X218408547Y-58961900D01*
X218409650Y-58972707D01*
X218409651Y-58972710D01*
X218462996Y-59133694D01*
X218463001Y-59133705D01*
X218552029Y-59278040D01*
X218552032Y-59278044D01*
X218671955Y-59397967D01*
X218671959Y-59397970D01*
X218816294Y-59486998D01*
X218816297Y-59486999D01*
X218816303Y-59487003D01*
X218977292Y-59540349D01*
X219076655Y-59550500D01*
X219923344Y-59550499D01*
X219923352Y-59550498D01*
X219923355Y-59550498D01*
X219977760Y-59544940D01*
X220022708Y-59540349D01*
X220183697Y-59487003D01*
X220328044Y-59397968D01*
X220447968Y-59278044D01*
X220537003Y-59133697D01*
X220590349Y-58972708D01*
X220600500Y-58873345D01*
X220600499Y-58326656D01*
X220598754Y-58309577D01*
X220590349Y-58227292D01*
X220590348Y-58227289D01*
X220578107Y-58190348D01*
X220537003Y-58066303D01*
X220536999Y-58066297D01*
X220536998Y-58066294D01*
X220447970Y-57921959D01*
X220447967Y-57921955D01*
X220328043Y-57802031D01*
X220183702Y-57712999D01*
X220177155Y-57709947D01*
X220177904Y-57708338D01*
X220128047Y-57673816D01*
X220101227Y-57609299D01*
X220100500Y-57595887D01*
X220100500Y-55202135D01*
X229899500Y-55202135D01*
X229899500Y-57297870D01*
X229899501Y-57297876D01*
X229905908Y-57357483D01*
X229956202Y-57492328D01*
X229956206Y-57492335D01*
X230042452Y-57607544D01*
X230042455Y-57607547D01*
X230157664Y-57693793D01*
X230157671Y-57693797D01*
X230292517Y-57744091D01*
X230292516Y-57744091D01*
X230299444Y-57744835D01*
X230352127Y-57750500D01*
X233647872Y-57750499D01*
X233707483Y-57744091D01*
X233842331Y-57693796D01*
X233957546Y-57607546D01*
X234043796Y-57492331D01*
X234094091Y-57357483D01*
X234100500Y-57297873D01*
X234100499Y-55202135D01*
X248399500Y-55202135D01*
X248399500Y-57297870D01*
X248399501Y-57297876D01*
X248405908Y-57357483D01*
X248456202Y-57492328D01*
X248456206Y-57492335D01*
X248542452Y-57607544D01*
X248542455Y-57607547D01*
X248657664Y-57693793D01*
X248657671Y-57693797D01*
X248792517Y-57744091D01*
X248792516Y-57744091D01*
X248799444Y-57744835D01*
X248852127Y-57750500D01*
X252147872Y-57750499D01*
X252207483Y-57744091D01*
X252342331Y-57693796D01*
X252457546Y-57607546D01*
X252543796Y-57492331D01*
X252594091Y-57357483D01*
X252600500Y-57297873D01*
X252600499Y-55893713D01*
X261399500Y-55893713D01*
X261399500Y-56106286D01*
X261431709Y-56309650D01*
X261432754Y-56316243D01*
X261496683Y-56512996D01*
X261498444Y-56518414D01*
X261594951Y-56707820D01*
X261719890Y-56879786D01*
X261870213Y-57030109D01*
X262042179Y-57155048D01*
X262042181Y-57155049D01*
X262042184Y-57155051D01*
X262231588Y-57251557D01*
X262433757Y-57317246D01*
X262643713Y-57350500D01*
X262643714Y-57350500D01*
X262856286Y-57350500D01*
X262856287Y-57350500D01*
X263066243Y-57317246D01*
X263268412Y-57251557D01*
X263457816Y-57155051D01*
X263505805Y-57120185D01*
X263629786Y-57030109D01*
X263629788Y-57030106D01*
X263629792Y-57030104D01*
X263780104Y-56879792D01*
X263780106Y-56879788D01*
X263780109Y-56879786D01*
X263905048Y-56707820D01*
X263905047Y-56707820D01*
X263905051Y-56707816D01*
X264001557Y-56518412D01*
X264067246Y-56316243D01*
X264100500Y-56106287D01*
X264100500Y-55893713D01*
X264067246Y-55683757D01*
X264001557Y-55481588D01*
X263905051Y-55292184D01*
X263905049Y-55292181D01*
X263905048Y-55292179D01*
X263780109Y-55120213D01*
X263629786Y-54969890D01*
X263457820Y-54844951D01*
X263268414Y-54748444D01*
X263268413Y-54748443D01*
X263268412Y-54748443D01*
X263066243Y-54682754D01*
X263066241Y-54682753D01*
X263066240Y-54682753D01*
X262904957Y-54657208D01*
X262856287Y-54649500D01*
X262643713Y-54649500D01*
X262595042Y-54657208D01*
X262433760Y-54682753D01*
X262231585Y-54748444D01*
X262042179Y-54844951D01*
X261870213Y-54969890D01*
X261719890Y-55120213D01*
X261594951Y-55292179D01*
X261498444Y-55481585D01*
X261432753Y-55683760D01*
X261399500Y-55893713D01*
X252600499Y-55893713D01*
X252600499Y-55202128D01*
X252594091Y-55142517D01*
X252585772Y-55120213D01*
X252543797Y-55007671D01*
X252543793Y-55007664D01*
X252457547Y-54892455D01*
X252457544Y-54892452D01*
X252342335Y-54806206D01*
X252342328Y-54806202D01*
X252207482Y-54755908D01*
X252207483Y-54755908D01*
X252147883Y-54749501D01*
X252147881Y-54749500D01*
X252147873Y-54749500D01*
X252147864Y-54749500D01*
X248852129Y-54749500D01*
X248852123Y-54749501D01*
X248792516Y-54755908D01*
X248657671Y-54806202D01*
X248657664Y-54806206D01*
X248542455Y-54892452D01*
X248542452Y-54892455D01*
X248456206Y-55007664D01*
X248456202Y-55007671D01*
X248405908Y-55142517D01*
X248399501Y-55202116D01*
X248399501Y-55202123D01*
X248399500Y-55202135D01*
X234100499Y-55202135D01*
X234100499Y-55202128D01*
X234094091Y-55142517D01*
X234085772Y-55120213D01*
X234043797Y-55007671D01*
X234043793Y-55007664D01*
X233957547Y-54892455D01*
X233957544Y-54892452D01*
X233842335Y-54806206D01*
X233842328Y-54806202D01*
X233707482Y-54755908D01*
X233707483Y-54755908D01*
X233647883Y-54749501D01*
X233647881Y-54749500D01*
X233647873Y-54749500D01*
X233647864Y-54749500D01*
X230352129Y-54749500D01*
X230352123Y-54749501D01*
X230292516Y-54755908D01*
X230157671Y-54806202D01*
X230157664Y-54806206D01*
X230042455Y-54892452D01*
X230042452Y-54892455D01*
X229956206Y-55007664D01*
X229956202Y-55007671D01*
X229905908Y-55142517D01*
X229899501Y-55202116D01*
X229899501Y-55202123D01*
X229899500Y-55202135D01*
X220100500Y-55202135D01*
X220100500Y-55089060D01*
X220100501Y-55089047D01*
X220100501Y-54920944D01*
X220095023Y-54900499D01*
X220059577Y-54768216D01*
X220054589Y-54759576D01*
X219980524Y-54631290D01*
X219980518Y-54631282D01*
X218904051Y-53554815D01*
X217811415Y-52462180D01*
X217777931Y-52400858D01*
X217782915Y-52331166D01*
X217824787Y-52275233D01*
X217890251Y-52250816D01*
X217899097Y-52250500D01*
X265625500Y-52250500D01*
X265692539Y-52270185D01*
X265738294Y-52322989D01*
X265749500Y-52374500D01*
X265749500Y-76125500D01*
X265729815Y-76192539D01*
X265677011Y-76238294D01*
X265625500Y-76249500D01*
X29374500Y-76249500D01*
X29307461Y-76229815D01*
X29261706Y-76177011D01*
X29250500Y-76125500D01*
X29250500Y-73643713D01*
X31899500Y-73643713D01*
X31899500Y-73856286D01*
X31930196Y-74050097D01*
X31932754Y-74066243D01*
X31986132Y-74230524D01*
X31998444Y-74268414D01*
X32094951Y-74457820D01*
X32219890Y-74629786D01*
X32370213Y-74780109D01*
X32542179Y-74905048D01*
X32542181Y-74905049D01*
X32542184Y-74905051D01*
X32731588Y-75001557D01*
X32933757Y-75067246D01*
X33143713Y-75100500D01*
X33143714Y-75100500D01*
X33356286Y-75100500D01*
X33356287Y-75100500D01*
X33566243Y-75067246D01*
X33768412Y-75001557D01*
X33957816Y-74905051D01*
X34032901Y-74850499D01*
X34129786Y-74780109D01*
X34129788Y-74780106D01*
X34129792Y-74780104D01*
X34280104Y-74629792D01*
X34280106Y-74629788D01*
X34280109Y-74629786D01*
X34391832Y-74476011D01*
X34405051Y-74457816D01*
X34501557Y-74268412D01*
X34567246Y-74066243D01*
X34600500Y-73856287D01*
X34600500Y-73643713D01*
X34567246Y-73433757D01*
X34501557Y-73231588D01*
X34405051Y-73042184D01*
X34405049Y-73042181D01*
X34405048Y-73042179D01*
X34280109Y-72870213D01*
X34129786Y-72719890D01*
X33957820Y-72594951D01*
X33768414Y-72498444D01*
X33768413Y-72498443D01*
X33768412Y-72498443D01*
X33566243Y-72432754D01*
X33566241Y-72432753D01*
X33566240Y-72432753D01*
X33404957Y-72407208D01*
X33356287Y-72399500D01*
X33143713Y-72399500D01*
X33095042Y-72407208D01*
X32933760Y-72432753D01*
X32731585Y-72498444D01*
X32542179Y-72594951D01*
X32370213Y-72719890D01*
X32219890Y-72870213D01*
X32094951Y-73042179D01*
X31998444Y-73231585D01*
X31998443Y-73231587D01*
X31998443Y-73231588D01*
X31932754Y-73433757D01*
X31901955Y-73628210D01*
X31899500Y-73643713D01*
X29250500Y-73643713D01*
X29250500Y-69329054D01*
X31399498Y-69329054D01*
X31440423Y-69481786D01*
X31451227Y-69500497D01*
X31451228Y-69500502D01*
X31451229Y-69500502D01*
X31519475Y-69618709D01*
X31519481Y-69618717D01*
X31638349Y-69737585D01*
X31638354Y-69737589D01*
X33381284Y-71480520D01*
X33381286Y-71480521D01*
X33381290Y-71480524D01*
X33497445Y-71547585D01*
X33518216Y-71559577D01*
X33670943Y-71600501D01*
X33670945Y-71600501D01*
X33836654Y-71600501D01*
X33836670Y-71600500D01*
X33949903Y-71600500D01*
X34016942Y-71620185D01*
X34037584Y-71636819D01*
X35015139Y-72614374D01*
X35015149Y-72614385D01*
X35019479Y-72618715D01*
X35019480Y-72618716D01*
X35131284Y-72730520D01*
X35216086Y-72779480D01*
X35216087Y-72779481D01*
X35268209Y-72809574D01*
X35268212Y-72809576D01*
X35268214Y-72809576D01*
X35268215Y-72809577D01*
X35420943Y-72850501D01*
X35420946Y-72850501D01*
X35586653Y-72850501D01*
X35586669Y-72850500D01*
X35949903Y-72850500D01*
X36016942Y-72870185D01*
X36037584Y-72886819D01*
X37265139Y-74114374D01*
X37265149Y-74114385D01*
X37269479Y-74118715D01*
X37269480Y-74118716D01*
X37381284Y-74230520D01*
X37381286Y-74230521D01*
X37381290Y-74230524D01*
X37499437Y-74298735D01*
X37518216Y-74309577D01*
X37630019Y-74339534D01*
X37670942Y-74350500D01*
X37670943Y-74350500D01*
X42095887Y-74350500D01*
X42162926Y-74370185D01*
X42208681Y-74422989D01*
X42212295Y-74432192D01*
X42212999Y-74433702D01*
X42302031Y-74578043D01*
X42421955Y-74697967D01*
X42421959Y-74697970D01*
X42566294Y-74786998D01*
X42566297Y-74786999D01*
X42566303Y-74787003D01*
X42727292Y-74840349D01*
X42826655Y-74850500D01*
X43373344Y-74850499D01*
X43373352Y-74850498D01*
X43373355Y-74850498D01*
X43427760Y-74844940D01*
X43472708Y-74840349D01*
X43633697Y-74787003D01*
X43778044Y-74697968D01*
X43897968Y-74578044D01*
X43987003Y-74433697D01*
X44040349Y-74272708D01*
X44050500Y-74173345D01*
X44050499Y-73326656D01*
X44044658Y-73269480D01*
X44040349Y-73227292D01*
X44040348Y-73227289D01*
X43987003Y-73066303D01*
X43986999Y-73066297D01*
X43986998Y-73066294D01*
X43897970Y-72921959D01*
X43897967Y-72921955D01*
X43778044Y-72802032D01*
X43778040Y-72802029D01*
X43633705Y-72713001D01*
X43633699Y-72712998D01*
X43633697Y-72712997D01*
X43577264Y-72694297D01*
X43472709Y-72659651D01*
X43373346Y-72649500D01*
X42826662Y-72649500D01*
X42826644Y-72649501D01*
X42727292Y-72659650D01*
X42727289Y-72659651D01*
X42566305Y-72712996D01*
X42566294Y-72713001D01*
X42421959Y-72802029D01*
X42421955Y-72802032D01*
X42302031Y-72921956D01*
X42212999Y-73066297D01*
X42209947Y-73072845D01*
X42208338Y-73072095D01*
X42173816Y-73121953D01*
X42109299Y-73148773D01*
X42095887Y-73149500D01*
X38050097Y-73149500D01*
X37983058Y-73129815D01*
X37962416Y-73113181D01*
X36737590Y-71888355D01*
X36737588Y-71888352D01*
X36618717Y-71769481D01*
X36618709Y-71769475D01*
X36499274Y-71700520D01*
X36499274Y-71700519D01*
X36499269Y-71700518D01*
X36493168Y-71696995D01*
X36481786Y-71690423D01*
X36443603Y-71680192D01*
X36329057Y-71649499D01*
X36170943Y-71649499D01*
X36163347Y-71649499D01*
X36163331Y-71649500D01*
X35800097Y-71649500D01*
X35733058Y-71629815D01*
X35712416Y-71613181D01*
X34737590Y-70638355D01*
X34737588Y-70638352D01*
X34618717Y-70519481D01*
X34618716Y-70519480D01*
X34514643Y-70459394D01*
X34514642Y-70459393D01*
X34490588Y-70445506D01*
X34481785Y-70440423D01*
X34481784Y-70440422D01*
X34481783Y-70440422D01*
X34416714Y-70422987D01*
X34329057Y-70399499D01*
X34170943Y-70399499D01*
X34163347Y-70399499D01*
X34163331Y-70399500D01*
X34050098Y-70399500D01*
X33983059Y-70379815D01*
X33962417Y-70363181D01*
X32636819Y-69037583D01*
X32603334Y-68976260D01*
X32600500Y-68949902D01*
X32600500Y-65550097D01*
X32620185Y-65483058D01*
X32636819Y-65462416D01*
X38212416Y-59886819D01*
X38273739Y-59853334D01*
X38300097Y-59850500D01*
X39170234Y-59850500D01*
X39237273Y-59870185D01*
X39239125Y-59871398D01*
X39370814Y-59959390D01*
X39370827Y-59959397D01*
X39515885Y-60019481D01*
X39516503Y-60019737D01*
X39671153Y-60050499D01*
X39671156Y-60050500D01*
X39671158Y-60050500D01*
X39828844Y-60050500D01*
X39828845Y-60050499D01*
X39983497Y-60019737D01*
X40129179Y-59959394D01*
X40260289Y-59871789D01*
X40371789Y-59760289D01*
X40459394Y-59629179D01*
X40463728Y-59618717D01*
X40491984Y-59550498D01*
X40519737Y-59483497D01*
X40550500Y-59328842D01*
X40550500Y-59171158D01*
X40550500Y-59171155D01*
X40550499Y-59171153D01*
X40542569Y-59131286D01*
X40519737Y-59016503D01*
X40512334Y-58998631D01*
X40459397Y-58870827D01*
X40459390Y-58870814D01*
X40371789Y-58739711D01*
X40371786Y-58739707D01*
X40260292Y-58628213D01*
X40260288Y-58628210D01*
X40129185Y-58540609D01*
X40129172Y-58540602D01*
X39983501Y-58480264D01*
X39983489Y-58480261D01*
X39828845Y-58449500D01*
X39828842Y-58449500D01*
X39671158Y-58449500D01*
X39671155Y-58449500D01*
X39516510Y-58480261D01*
X39516498Y-58480264D01*
X39370827Y-58540602D01*
X39370814Y-58540609D01*
X39239125Y-58628602D01*
X39172447Y-58649480D01*
X39170234Y-58649500D01*
X37920940Y-58649500D01*
X37880019Y-58660464D01*
X37880019Y-58660465D01*
X37842751Y-58670451D01*
X37768214Y-58690423D01*
X37768209Y-58690426D01*
X37631290Y-58769475D01*
X37631282Y-58769481D01*
X31519479Y-64881284D01*
X31498375Y-64917839D01*
X31480096Y-64949500D01*
X31440423Y-65018215D01*
X31399499Y-65170943D01*
X31399499Y-65329057D01*
X31399499Y-65329059D01*
X31399500Y-65339053D01*
X31399500Y-69163330D01*
X31399499Y-69163348D01*
X31399499Y-69329054D01*
X31399498Y-69329054D01*
X29250500Y-69329054D01*
X29250500Y-52374500D01*
X29270185Y-52307461D01*
X29322989Y-52261706D01*
X29374500Y-52250500D01*
X34974352Y-52250500D01*
X35041391Y-52270185D01*
G37*
%TD.AperFunction*%
%TA.AperFunction,Conductor*%
G36*
X114847410Y-54986844D02*
G01*
X114877397Y-54993368D01*
X114882412Y-54997122D01*
X114885009Y-54997885D01*
X114905651Y-55014519D01*
X114981344Y-55090212D01*
X115130094Y-55181961D01*
X115176818Y-55233909D01*
X115188041Y-55302872D01*
X115160197Y-55366954D01*
X115130094Y-55393038D01*
X115071699Y-55429057D01*
X114981342Y-55484789D01*
X114857289Y-55608842D01*
X114765187Y-55758163D01*
X114765185Y-55758168D01*
X114755405Y-55787683D01*
X114710001Y-55924703D01*
X114710001Y-55924704D01*
X114710000Y-55924704D01*
X114699500Y-56027483D01*
X114699500Y-56827501D01*
X114699501Y-56827519D01*
X114710000Y-56930296D01*
X114710001Y-56930299D01*
X114739639Y-57019738D01*
X114765186Y-57096834D01*
X114857288Y-57246156D01*
X114981344Y-57370212D01*
X115113991Y-57452029D01*
X115130569Y-57462254D01*
X115177294Y-57514202D01*
X115188517Y-57583164D01*
X115160674Y-57647247D01*
X115130570Y-57673331D01*
X114981659Y-57765180D01*
X114981655Y-57765183D01*
X114857684Y-57889154D01*
X114765643Y-58038375D01*
X114765641Y-58038380D01*
X114710494Y-58204802D01*
X114710493Y-58204809D01*
X114700000Y-58307513D01*
X114700000Y-58457500D01*
X117899999Y-58457500D01*
X117899999Y-58307528D01*
X117899998Y-58307513D01*
X117889505Y-58204802D01*
X117834358Y-58038380D01*
X117834356Y-58038375D01*
X117742315Y-57889154D01*
X117618345Y-57765184D01*
X117469429Y-57673332D01*
X117422705Y-57621384D01*
X117411482Y-57552421D01*
X117439326Y-57488339D01*
X117469426Y-57462256D01*
X117618656Y-57370212D01*
X117694349Y-57294519D01*
X117755672Y-57261034D01*
X117782030Y-57258200D01*
X118775500Y-57258200D01*
X118842539Y-57277885D01*
X118888294Y-57330689D01*
X118899500Y-57382200D01*
X118899500Y-59127519D01*
X118910001Y-59230301D01*
X118965184Y-59396833D01*
X118965189Y-59396844D01*
X119057285Y-59546153D01*
X119057288Y-59546157D01*
X119181342Y-59670211D01*
X119181346Y-59670214D01*
X119330655Y-59762310D01*
X119330658Y-59762311D01*
X119330664Y-59762315D01*
X119497200Y-59817499D01*
X119599988Y-59828000D01*
X119599993Y-59828000D01*
X125600007Y-59828000D01*
X125600012Y-59828000D01*
X125702800Y-59817499D01*
X125869336Y-59762315D01*
X126018657Y-59670212D01*
X126142712Y-59546157D01*
X126234815Y-59396836D01*
X126289999Y-59230300D01*
X126300500Y-59127512D01*
X126300500Y-57367200D01*
X126320185Y-57300161D01*
X126372989Y-57254406D01*
X126424500Y-57243200D01*
X128507243Y-57243200D01*
X128574282Y-57262885D01*
X128579124Y-57266342D01*
X128581342Y-57267710D01*
X128581344Y-57267712D01*
X128730666Y-57359814D01*
X128897203Y-57414999D01*
X128999991Y-57425500D01*
X130000008Y-57425499D01*
X130000016Y-57425498D01*
X130000019Y-57425498D01*
X130056302Y-57419748D01*
X130102797Y-57414999D01*
X130269334Y-57359814D01*
X130418656Y-57267712D01*
X130418657Y-57267710D01*
X130424803Y-57263920D01*
X130425988Y-57265841D01*
X130480644Y-57243793D01*
X130492757Y-57243200D01*
X130919319Y-57243200D01*
X131027285Y-57221723D01*
X131079806Y-57211276D01*
X131079813Y-57211272D01*
X131085633Y-57209508D01*
X131086043Y-57210860D01*
X131148442Y-57204149D01*
X131210923Y-57235422D01*
X131246577Y-57295510D01*
X131244086Y-57365335D01*
X131214111Y-57413861D01*
X126164792Y-62463181D01*
X126103469Y-62496666D01*
X126077111Y-62499500D01*
X109254261Y-62499500D01*
X109187222Y-62479815D01*
X109141467Y-62427011D01*
X109137220Y-62416455D01*
X109077008Y-62244381D01*
X109026469Y-62099949D01*
X108880246Y-61796314D01*
X108700946Y-61510961D01*
X108490825Y-61247477D01*
X108252523Y-61009175D01*
X108250653Y-61007684D01*
X108142149Y-60921155D01*
X107989039Y-60799054D01*
X107784024Y-60670234D01*
X107703683Y-60619752D01*
X107400054Y-60473532D01*
X107081965Y-60362227D01*
X107081953Y-60362223D01*
X106753397Y-60287233D01*
X106753381Y-60287231D01*
X106418508Y-60249500D01*
X106418504Y-60249500D01*
X106081496Y-60249500D01*
X106081491Y-60249500D01*
X105746618Y-60287231D01*
X105746602Y-60287233D01*
X105418046Y-60362223D01*
X105418034Y-60362227D01*
X105099945Y-60473532D01*
X104796316Y-60619752D01*
X104510962Y-60799053D01*
X104247477Y-61009174D01*
X104009174Y-61247477D01*
X103799053Y-61510962D01*
X103619752Y-61796316D01*
X103473532Y-62099945D01*
X103362227Y-62418034D01*
X103362224Y-62418045D01*
X103287233Y-62746602D01*
X103287231Y-62746618D01*
X103249500Y-63081491D01*
X103249500Y-64955790D01*
X103229815Y-65022829D01*
X103213181Y-65043471D01*
X102793471Y-65463181D01*
X102732148Y-65496666D01*
X102705790Y-65499500D01*
X97333526Y-65499500D01*
X97266487Y-65479815D01*
X97220732Y-65427011D01*
X97210788Y-65357853D01*
X97239813Y-65294297D01*
X97271526Y-65268113D01*
X97396059Y-65196213D01*
X97507448Y-65131903D01*
X97742328Y-64951674D01*
X97951674Y-64742328D01*
X98131903Y-64507448D01*
X98279933Y-64251052D01*
X98393231Y-63977529D01*
X98469856Y-63691557D01*
X98508500Y-63398030D01*
X98508500Y-63101970D01*
X98508306Y-63100500D01*
X98506523Y-63086956D01*
X98469856Y-62808443D01*
X98393231Y-62522471D01*
X98354373Y-62428661D01*
X98346905Y-62359196D01*
X98378179Y-62296717D01*
X98381226Y-62293559D01*
X101567300Y-59107486D01*
X114700001Y-59107486D01*
X114710494Y-59210197D01*
X114765641Y-59376619D01*
X114765643Y-59376624D01*
X114857684Y-59525845D01*
X114981654Y-59649815D01*
X115130875Y-59741856D01*
X115130880Y-59741858D01*
X115297302Y-59797005D01*
X115297309Y-59797006D01*
X115400019Y-59807499D01*
X116049999Y-59807499D01*
X116550000Y-59807499D01*
X117199972Y-59807499D01*
X117199986Y-59807498D01*
X117302697Y-59797005D01*
X117469119Y-59741858D01*
X117469124Y-59741856D01*
X117618345Y-59649815D01*
X117742315Y-59525845D01*
X117834356Y-59376624D01*
X117834358Y-59376619D01*
X117889505Y-59210197D01*
X117889506Y-59210190D01*
X117899999Y-59107486D01*
X117900000Y-59107473D01*
X117900000Y-58957500D01*
X116550000Y-58957500D01*
X116550000Y-59807499D01*
X116049999Y-59807499D01*
X116050000Y-59807498D01*
X116050000Y-58957500D01*
X114700001Y-58957500D01*
X114700001Y-59107486D01*
X101567300Y-59107486D01*
X105660268Y-55014519D01*
X105721591Y-54981034D01*
X105747949Y-54978200D01*
X114817970Y-54978200D01*
X114847410Y-54986844D01*
G37*
%TD.AperFunction*%
%TD*%
M02*
