%TF.GenerationSoftware,KiCad,Pcbnew,9.0.6*%
%TF.CreationDate,2026-03-25T19:26:48-07:00*%
%TF.ProjectId,Sidebar,53696465-6261-4722-9e6b-696361645f70,rev?*%
%TF.SameCoordinates,Original*%
%TF.FileFunction,Legend,Bot*%
%TF.FilePolarity,Positive*%
%FSLAX46Y46*%
G04 Gerber Fmt 4.6, Leading zero omitted, Abs format (unit mm)*
G04 Created by KiCad (PCBNEW 9.0.6) date 2026-03-25 19:26:48*
%MOMM*%
%LPD*%
G01*
G04 APERTURE LIST*
%ADD10C,0.150000*%
%ADD11C,0.120000*%
%ADD12C,0.127000*%
%ADD13C,0.152400*%
G04 APERTURE END LIST*
D10*
X131604819Y-54404761D02*
X131604819Y-53833333D01*
X131604819Y-54119047D02*
X130604819Y-54119047D01*
X130604819Y-54119047D02*
X130747676Y-54023809D01*
X130747676Y-54023809D02*
X130842914Y-53928571D01*
X130842914Y-53928571D02*
X130890533Y-53833333D01*
X131604819Y-54833333D02*
X130604819Y-54833333D01*
X131223866Y-54928571D02*
X131604819Y-55214285D01*
X130938152Y-55214285D02*
X131319104Y-54833333D01*
X131604819Y-56214285D02*
X131128628Y-55880952D01*
X131604819Y-55642857D02*
X130604819Y-55642857D01*
X130604819Y-55642857D02*
X130604819Y-56023809D01*
X130604819Y-56023809D02*
X130652438Y-56119047D01*
X130652438Y-56119047D02*
X130700057Y-56166666D01*
X130700057Y-56166666D02*
X130795295Y-56214285D01*
X130795295Y-56214285D02*
X130938152Y-56214285D01*
X130938152Y-56214285D02*
X131033390Y-56166666D01*
X131033390Y-56166666D02*
X131081009Y-56119047D01*
X131081009Y-56119047D02*
X131128628Y-56023809D01*
X131128628Y-56023809D02*
X131128628Y-55642857D01*
X131604819Y-57166666D02*
X131604819Y-56595238D01*
X131604819Y-56880952D02*
X130604819Y-56880952D01*
X130604819Y-56880952D02*
X130747676Y-56785714D01*
X130747676Y-56785714D02*
X130842914Y-56690476D01*
X130842914Y-56690476D02*
X130890533Y-56595238D01*
X35865180Y-62641904D02*
X35055657Y-62641904D01*
X35055657Y-62641904D02*
X34960419Y-62594285D01*
X34960419Y-62594285D02*
X34912800Y-62546666D01*
X34912800Y-62546666D02*
X34865180Y-62451428D01*
X34865180Y-62451428D02*
X34865180Y-62260952D01*
X34865180Y-62260952D02*
X34912800Y-62165714D01*
X34912800Y-62165714D02*
X34960419Y-62118095D01*
X34960419Y-62118095D02*
X35055657Y-62070476D01*
X35055657Y-62070476D02*
X35865180Y-62070476D01*
X34912800Y-61641904D02*
X34865180Y-61499047D01*
X34865180Y-61499047D02*
X34865180Y-61260952D01*
X34865180Y-61260952D02*
X34912800Y-61165714D01*
X34912800Y-61165714D02*
X34960419Y-61118095D01*
X34960419Y-61118095D02*
X35055657Y-61070476D01*
X35055657Y-61070476D02*
X35150895Y-61070476D01*
X35150895Y-61070476D02*
X35246133Y-61118095D01*
X35246133Y-61118095D02*
X35293752Y-61165714D01*
X35293752Y-61165714D02*
X35341371Y-61260952D01*
X35341371Y-61260952D02*
X35388990Y-61451428D01*
X35388990Y-61451428D02*
X35436609Y-61546666D01*
X35436609Y-61546666D02*
X35484228Y-61594285D01*
X35484228Y-61594285D02*
X35579466Y-61641904D01*
X35579466Y-61641904D02*
X35674704Y-61641904D01*
X35674704Y-61641904D02*
X35769942Y-61594285D01*
X35769942Y-61594285D02*
X35817561Y-61546666D01*
X35817561Y-61546666D02*
X35865180Y-61451428D01*
X35865180Y-61451428D02*
X35865180Y-61213333D01*
X35865180Y-61213333D02*
X35817561Y-61070476D01*
X35388990Y-60308571D02*
X35341371Y-60165714D01*
X35341371Y-60165714D02*
X35293752Y-60118095D01*
X35293752Y-60118095D02*
X35198514Y-60070476D01*
X35198514Y-60070476D02*
X35055657Y-60070476D01*
X35055657Y-60070476D02*
X34960419Y-60118095D01*
X34960419Y-60118095D02*
X34912800Y-60165714D01*
X34912800Y-60165714D02*
X34865180Y-60260952D01*
X34865180Y-60260952D02*
X34865180Y-60641904D01*
X34865180Y-60641904D02*
X35865180Y-60641904D01*
X35865180Y-60641904D02*
X35865180Y-60308571D01*
X35865180Y-60308571D02*
X35817561Y-60213333D01*
X35817561Y-60213333D02*
X35769942Y-60165714D01*
X35769942Y-60165714D02*
X35674704Y-60118095D01*
X35674704Y-60118095D02*
X35579466Y-60118095D01*
X35579466Y-60118095D02*
X35484228Y-60165714D01*
X35484228Y-60165714D02*
X35436609Y-60213333D01*
X35436609Y-60213333D02*
X35388990Y-60308571D01*
X35388990Y-60308571D02*
X35388990Y-60641904D01*
X215454819Y-55861905D02*
X214454819Y-55861905D01*
X214454819Y-55861905D02*
X214454819Y-56100000D01*
X214454819Y-56100000D02*
X214502438Y-56242857D01*
X214502438Y-56242857D02*
X214597676Y-56338095D01*
X214597676Y-56338095D02*
X214692914Y-56385714D01*
X214692914Y-56385714D02*
X214883390Y-56433333D01*
X214883390Y-56433333D02*
X215026247Y-56433333D01*
X215026247Y-56433333D02*
X215216723Y-56385714D01*
X215216723Y-56385714D02*
X215311961Y-56338095D01*
X215311961Y-56338095D02*
X215407200Y-56242857D01*
X215407200Y-56242857D02*
X215454819Y-56100000D01*
X215454819Y-56100000D02*
X215454819Y-55861905D01*
X214883390Y-57004762D02*
X214835771Y-56909524D01*
X214835771Y-56909524D02*
X214788152Y-56861905D01*
X214788152Y-56861905D02*
X214692914Y-56814286D01*
X214692914Y-56814286D02*
X214645295Y-56814286D01*
X214645295Y-56814286D02*
X214550057Y-56861905D01*
X214550057Y-56861905D02*
X214502438Y-56909524D01*
X214502438Y-56909524D02*
X214454819Y-57004762D01*
X214454819Y-57004762D02*
X214454819Y-57195238D01*
X214454819Y-57195238D02*
X214502438Y-57290476D01*
X214502438Y-57290476D02*
X214550057Y-57338095D01*
X214550057Y-57338095D02*
X214645295Y-57385714D01*
X214645295Y-57385714D02*
X214692914Y-57385714D01*
X214692914Y-57385714D02*
X214788152Y-57338095D01*
X214788152Y-57338095D02*
X214835771Y-57290476D01*
X214835771Y-57290476D02*
X214883390Y-57195238D01*
X214883390Y-57195238D02*
X214883390Y-57004762D01*
X214883390Y-57004762D02*
X214931009Y-56909524D01*
X214931009Y-56909524D02*
X214978628Y-56861905D01*
X214978628Y-56861905D02*
X215073866Y-56814286D01*
X215073866Y-56814286D02*
X215264342Y-56814286D01*
X215264342Y-56814286D02*
X215359580Y-56861905D01*
X215359580Y-56861905D02*
X215407200Y-56909524D01*
X215407200Y-56909524D02*
X215454819Y-57004762D01*
X215454819Y-57004762D02*
X215454819Y-57195238D01*
X215454819Y-57195238D02*
X215407200Y-57290476D01*
X215407200Y-57290476D02*
X215359580Y-57338095D01*
X215359580Y-57338095D02*
X215264342Y-57385714D01*
X215264342Y-57385714D02*
X215073866Y-57385714D01*
X215073866Y-57385714D02*
X214978628Y-57338095D01*
X214978628Y-57338095D02*
X214931009Y-57290476D01*
X214931009Y-57290476D02*
X214883390Y-57195238D01*
X121435238Y-61477557D02*
X121530476Y-61429938D01*
X121530476Y-61429938D02*
X121625714Y-61334700D01*
X121625714Y-61334700D02*
X121768571Y-61191842D01*
X121768571Y-61191842D02*
X121863809Y-61144223D01*
X121863809Y-61144223D02*
X121959047Y-61144223D01*
X121911428Y-61382319D02*
X122006666Y-61334700D01*
X122006666Y-61334700D02*
X122101904Y-61239461D01*
X122101904Y-61239461D02*
X122149523Y-61048985D01*
X122149523Y-61048985D02*
X122149523Y-60715652D01*
X122149523Y-60715652D02*
X122101904Y-60525176D01*
X122101904Y-60525176D02*
X122006666Y-60429938D01*
X122006666Y-60429938D02*
X121911428Y-60382319D01*
X121911428Y-60382319D02*
X121720952Y-60382319D01*
X121720952Y-60382319D02*
X121625714Y-60429938D01*
X121625714Y-60429938D02*
X121530476Y-60525176D01*
X121530476Y-60525176D02*
X121482857Y-60715652D01*
X121482857Y-60715652D02*
X121482857Y-61048985D01*
X121482857Y-61048985D02*
X121530476Y-61239461D01*
X121530476Y-61239461D02*
X121625714Y-61334700D01*
X121625714Y-61334700D02*
X121720952Y-61382319D01*
X121720952Y-61382319D02*
X121911428Y-61382319D01*
X120530476Y-61382319D02*
X121101904Y-61382319D01*
X120816190Y-61382319D02*
X120816190Y-60382319D01*
X120816190Y-60382319D02*
X120911428Y-60525176D01*
X120911428Y-60525176D02*
X121006666Y-60620414D01*
X121006666Y-60620414D02*
X121101904Y-60668033D01*
X120166666Y-68495181D02*
X120166666Y-67780896D01*
X120166666Y-67780896D02*
X120119047Y-67638039D01*
X120119047Y-67638039D02*
X120023809Y-67542801D01*
X120023809Y-67542801D02*
X119880952Y-67495181D01*
X119880952Y-67495181D02*
X119785714Y-67495181D01*
X120595238Y-68399943D02*
X120642857Y-68447562D01*
X120642857Y-68447562D02*
X120738095Y-68495181D01*
X120738095Y-68495181D02*
X120976190Y-68495181D01*
X120976190Y-68495181D02*
X121071428Y-68447562D01*
X121071428Y-68447562D02*
X121119047Y-68399943D01*
X121119047Y-68399943D02*
X121166666Y-68304705D01*
X121166666Y-68304705D02*
X121166666Y-68209467D01*
X121166666Y-68209467D02*
X121119047Y-68066610D01*
X121119047Y-68066610D02*
X120547619Y-67495181D01*
X120547619Y-67495181D02*
X121166666Y-67495181D01*
X160704819Y-61511905D02*
X159704819Y-61511905D01*
X159704819Y-61511905D02*
X159704819Y-61750000D01*
X159704819Y-61750000D02*
X159752438Y-61892857D01*
X159752438Y-61892857D02*
X159847676Y-61988095D01*
X159847676Y-61988095D02*
X159942914Y-62035714D01*
X159942914Y-62035714D02*
X160133390Y-62083333D01*
X160133390Y-62083333D02*
X160276247Y-62083333D01*
X160276247Y-62083333D02*
X160466723Y-62035714D01*
X160466723Y-62035714D02*
X160561961Y-61988095D01*
X160561961Y-61988095D02*
X160657200Y-61892857D01*
X160657200Y-61892857D02*
X160704819Y-61750000D01*
X160704819Y-61750000D02*
X160704819Y-61511905D01*
X160704819Y-62559524D02*
X160704819Y-62750000D01*
X160704819Y-62750000D02*
X160657200Y-62845238D01*
X160657200Y-62845238D02*
X160609580Y-62892857D01*
X160609580Y-62892857D02*
X160466723Y-62988095D01*
X160466723Y-62988095D02*
X160276247Y-63035714D01*
X160276247Y-63035714D02*
X159895295Y-63035714D01*
X159895295Y-63035714D02*
X159800057Y-62988095D01*
X159800057Y-62988095D02*
X159752438Y-62940476D01*
X159752438Y-62940476D02*
X159704819Y-62845238D01*
X159704819Y-62845238D02*
X159704819Y-62654762D01*
X159704819Y-62654762D02*
X159752438Y-62559524D01*
X159752438Y-62559524D02*
X159800057Y-62511905D01*
X159800057Y-62511905D02*
X159895295Y-62464286D01*
X159895295Y-62464286D02*
X160133390Y-62464286D01*
X160133390Y-62464286D02*
X160228628Y-62511905D01*
X160228628Y-62511905D02*
X160276247Y-62559524D01*
X160276247Y-62559524D02*
X160323866Y-62654762D01*
X160323866Y-62654762D02*
X160323866Y-62845238D01*
X160323866Y-62845238D02*
X160276247Y-62940476D01*
X160276247Y-62940476D02*
X160228628Y-62988095D01*
X160228628Y-62988095D02*
X160133390Y-63035714D01*
X162204819Y-54035714D02*
X161204819Y-54035714D01*
X161204819Y-54035714D02*
X161204819Y-54273809D01*
X161204819Y-54273809D02*
X161252438Y-54416666D01*
X161252438Y-54416666D02*
X161347676Y-54511904D01*
X161347676Y-54511904D02*
X161442914Y-54559523D01*
X161442914Y-54559523D02*
X161633390Y-54607142D01*
X161633390Y-54607142D02*
X161776247Y-54607142D01*
X161776247Y-54607142D02*
X161966723Y-54559523D01*
X161966723Y-54559523D02*
X162061961Y-54511904D01*
X162061961Y-54511904D02*
X162157200Y-54416666D01*
X162157200Y-54416666D02*
X162204819Y-54273809D01*
X162204819Y-54273809D02*
X162204819Y-54035714D01*
X162204819Y-55559523D02*
X162204819Y-54988095D01*
X162204819Y-55273809D02*
X161204819Y-55273809D01*
X161204819Y-55273809D02*
X161347676Y-55178571D01*
X161347676Y-55178571D02*
X161442914Y-55083333D01*
X161442914Y-55083333D02*
X161490533Y-54988095D01*
X161204819Y-56178571D02*
X161204819Y-56273809D01*
X161204819Y-56273809D02*
X161252438Y-56369047D01*
X161252438Y-56369047D02*
X161300057Y-56416666D01*
X161300057Y-56416666D02*
X161395295Y-56464285D01*
X161395295Y-56464285D02*
X161585771Y-56511904D01*
X161585771Y-56511904D02*
X161823866Y-56511904D01*
X161823866Y-56511904D02*
X162014342Y-56464285D01*
X162014342Y-56464285D02*
X162109580Y-56416666D01*
X162109580Y-56416666D02*
X162157200Y-56369047D01*
X162157200Y-56369047D02*
X162204819Y-56273809D01*
X162204819Y-56273809D02*
X162204819Y-56178571D01*
X162204819Y-56178571D02*
X162157200Y-56083333D01*
X162157200Y-56083333D02*
X162109580Y-56035714D01*
X162109580Y-56035714D02*
X162014342Y-55988095D01*
X162014342Y-55988095D02*
X161823866Y-55940476D01*
X161823866Y-55940476D02*
X161585771Y-55940476D01*
X161585771Y-55940476D02*
X161395295Y-55988095D01*
X161395295Y-55988095D02*
X161300057Y-56035714D01*
X161300057Y-56035714D02*
X161252438Y-56083333D01*
X161252438Y-56083333D02*
X161204819Y-56178571D01*
X45488094Y-72204819D02*
X45488094Y-71204819D01*
X45488094Y-71204819D02*
X45249999Y-71204819D01*
X45249999Y-71204819D02*
X45107142Y-71252438D01*
X45107142Y-71252438D02*
X45011904Y-71347676D01*
X45011904Y-71347676D02*
X44964285Y-71442914D01*
X44964285Y-71442914D02*
X44916666Y-71633390D01*
X44916666Y-71633390D02*
X44916666Y-71776247D01*
X44916666Y-71776247D02*
X44964285Y-71966723D01*
X44964285Y-71966723D02*
X45011904Y-72061961D01*
X45011904Y-72061961D02*
X45107142Y-72157200D01*
X45107142Y-72157200D02*
X45249999Y-72204819D01*
X45249999Y-72204819D02*
X45488094Y-72204819D01*
X44011904Y-71204819D02*
X44488094Y-71204819D01*
X44488094Y-71204819D02*
X44535713Y-71681009D01*
X44535713Y-71681009D02*
X44488094Y-71633390D01*
X44488094Y-71633390D02*
X44392856Y-71585771D01*
X44392856Y-71585771D02*
X44154761Y-71585771D01*
X44154761Y-71585771D02*
X44059523Y-71633390D01*
X44059523Y-71633390D02*
X44011904Y-71681009D01*
X44011904Y-71681009D02*
X43964285Y-71776247D01*
X43964285Y-71776247D02*
X43964285Y-72014342D01*
X43964285Y-72014342D02*
X44011904Y-72109580D01*
X44011904Y-72109580D02*
X44059523Y-72157200D01*
X44059523Y-72157200D02*
X44154761Y-72204819D01*
X44154761Y-72204819D02*
X44392856Y-72204819D01*
X44392856Y-72204819D02*
X44488094Y-72157200D01*
X44488094Y-72157200D02*
X44535713Y-72109580D01*
X133304819Y-53202380D02*
X133304819Y-52630952D01*
X133304819Y-52916666D02*
X132304819Y-52916666D01*
X132304819Y-52916666D02*
X132447676Y-52821428D01*
X132447676Y-52821428D02*
X132542914Y-52726190D01*
X132542914Y-52726190D02*
X132590533Y-52630952D01*
X132304819Y-53821428D02*
X132304819Y-53916666D01*
X132304819Y-53916666D02*
X132352438Y-54011904D01*
X132352438Y-54011904D02*
X132400057Y-54059523D01*
X132400057Y-54059523D02*
X132495295Y-54107142D01*
X132495295Y-54107142D02*
X132685771Y-54154761D01*
X132685771Y-54154761D02*
X132923866Y-54154761D01*
X132923866Y-54154761D02*
X133114342Y-54107142D01*
X133114342Y-54107142D02*
X133209580Y-54059523D01*
X133209580Y-54059523D02*
X133257200Y-54011904D01*
X133257200Y-54011904D02*
X133304819Y-53916666D01*
X133304819Y-53916666D02*
X133304819Y-53821428D01*
X133304819Y-53821428D02*
X133257200Y-53726190D01*
X133257200Y-53726190D02*
X133209580Y-53678571D01*
X133209580Y-53678571D02*
X133114342Y-53630952D01*
X133114342Y-53630952D02*
X132923866Y-53583333D01*
X132923866Y-53583333D02*
X132685771Y-53583333D01*
X132685771Y-53583333D02*
X132495295Y-53630952D01*
X132495295Y-53630952D02*
X132400057Y-53678571D01*
X132400057Y-53678571D02*
X132352438Y-53726190D01*
X132352438Y-53726190D02*
X132304819Y-53821428D01*
X132304819Y-54773809D02*
X132304819Y-54869047D01*
X132304819Y-54869047D02*
X132352438Y-54964285D01*
X132352438Y-54964285D02*
X132400057Y-55011904D01*
X132400057Y-55011904D02*
X132495295Y-55059523D01*
X132495295Y-55059523D02*
X132685771Y-55107142D01*
X132685771Y-55107142D02*
X132923866Y-55107142D01*
X132923866Y-55107142D02*
X133114342Y-55059523D01*
X133114342Y-55059523D02*
X133209580Y-55011904D01*
X133209580Y-55011904D02*
X133257200Y-54964285D01*
X133257200Y-54964285D02*
X133304819Y-54869047D01*
X133304819Y-54869047D02*
X133304819Y-54773809D01*
X133304819Y-54773809D02*
X133257200Y-54678571D01*
X133257200Y-54678571D02*
X133209580Y-54630952D01*
X133209580Y-54630952D02*
X133114342Y-54583333D01*
X133114342Y-54583333D02*
X132923866Y-54535714D01*
X132923866Y-54535714D02*
X132685771Y-54535714D01*
X132685771Y-54535714D02*
X132495295Y-54583333D01*
X132495295Y-54583333D02*
X132400057Y-54630952D01*
X132400057Y-54630952D02*
X132352438Y-54678571D01*
X132352438Y-54678571D02*
X132304819Y-54773809D01*
X133304819Y-55535714D02*
X132304819Y-55535714D01*
X132923866Y-55630952D02*
X133304819Y-55916666D01*
X132638152Y-55916666D02*
X133019104Y-55535714D01*
X133304819Y-56916666D02*
X132828628Y-56583333D01*
X133304819Y-56345238D02*
X132304819Y-56345238D01*
X132304819Y-56345238D02*
X132304819Y-56726190D01*
X132304819Y-56726190D02*
X132352438Y-56821428D01*
X132352438Y-56821428D02*
X132400057Y-56869047D01*
X132400057Y-56869047D02*
X132495295Y-56916666D01*
X132495295Y-56916666D02*
X132638152Y-56916666D01*
X132638152Y-56916666D02*
X132733390Y-56869047D01*
X132733390Y-56869047D02*
X132781009Y-56821428D01*
X132781009Y-56821428D02*
X132828628Y-56726190D01*
X132828628Y-56726190D02*
X132828628Y-56345238D01*
X133304819Y-57869047D02*
X133304819Y-57297619D01*
X133304819Y-57583333D02*
X132304819Y-57583333D01*
X132304819Y-57583333D02*
X132447676Y-57488095D01*
X132447676Y-57488095D02*
X132542914Y-57392857D01*
X132542914Y-57392857D02*
X132590533Y-57297619D01*
X170204819Y-55011905D02*
X169204819Y-55011905D01*
X169204819Y-55011905D02*
X169204819Y-55250000D01*
X169204819Y-55250000D02*
X169252438Y-55392857D01*
X169252438Y-55392857D02*
X169347676Y-55488095D01*
X169347676Y-55488095D02*
X169442914Y-55535714D01*
X169442914Y-55535714D02*
X169633390Y-55583333D01*
X169633390Y-55583333D02*
X169776247Y-55583333D01*
X169776247Y-55583333D02*
X169966723Y-55535714D01*
X169966723Y-55535714D02*
X170061961Y-55488095D01*
X170061961Y-55488095D02*
X170157200Y-55392857D01*
X170157200Y-55392857D02*
X170204819Y-55250000D01*
X170204819Y-55250000D02*
X170204819Y-55011905D01*
X169204819Y-56440476D02*
X169204819Y-56250000D01*
X169204819Y-56250000D02*
X169252438Y-56154762D01*
X169252438Y-56154762D02*
X169300057Y-56107143D01*
X169300057Y-56107143D02*
X169442914Y-56011905D01*
X169442914Y-56011905D02*
X169633390Y-55964286D01*
X169633390Y-55964286D02*
X170014342Y-55964286D01*
X170014342Y-55964286D02*
X170109580Y-56011905D01*
X170109580Y-56011905D02*
X170157200Y-56059524D01*
X170157200Y-56059524D02*
X170204819Y-56154762D01*
X170204819Y-56154762D02*
X170204819Y-56345238D01*
X170204819Y-56345238D02*
X170157200Y-56440476D01*
X170157200Y-56440476D02*
X170109580Y-56488095D01*
X170109580Y-56488095D02*
X170014342Y-56535714D01*
X170014342Y-56535714D02*
X169776247Y-56535714D01*
X169776247Y-56535714D02*
X169681009Y-56488095D01*
X169681009Y-56488095D02*
X169633390Y-56440476D01*
X169633390Y-56440476D02*
X169585771Y-56345238D01*
X169585771Y-56345238D02*
X169585771Y-56154762D01*
X169585771Y-56154762D02*
X169633390Y-56059524D01*
X169633390Y-56059524D02*
X169681009Y-56011905D01*
X169681009Y-56011905D02*
X169776247Y-55964286D01*
X221954819Y-66035714D02*
X220954819Y-66035714D01*
X220954819Y-66035714D02*
X220954819Y-66273809D01*
X220954819Y-66273809D02*
X221002438Y-66416666D01*
X221002438Y-66416666D02*
X221097676Y-66511904D01*
X221097676Y-66511904D02*
X221192914Y-66559523D01*
X221192914Y-66559523D02*
X221383390Y-66607142D01*
X221383390Y-66607142D02*
X221526247Y-66607142D01*
X221526247Y-66607142D02*
X221716723Y-66559523D01*
X221716723Y-66559523D02*
X221811961Y-66511904D01*
X221811961Y-66511904D02*
X221907200Y-66416666D01*
X221907200Y-66416666D02*
X221954819Y-66273809D01*
X221954819Y-66273809D02*
X221954819Y-66035714D01*
X221954819Y-67559523D02*
X221954819Y-66988095D01*
X221954819Y-67273809D02*
X220954819Y-67273809D01*
X220954819Y-67273809D02*
X221097676Y-67178571D01*
X221097676Y-67178571D02*
X221192914Y-67083333D01*
X221192914Y-67083333D02*
X221240533Y-66988095D01*
X221050057Y-67940476D02*
X221002438Y-67988095D01*
X221002438Y-67988095D02*
X220954819Y-68083333D01*
X220954819Y-68083333D02*
X220954819Y-68321428D01*
X220954819Y-68321428D02*
X221002438Y-68416666D01*
X221002438Y-68416666D02*
X221050057Y-68464285D01*
X221050057Y-68464285D02*
X221145295Y-68511904D01*
X221145295Y-68511904D02*
X221240533Y-68511904D01*
X221240533Y-68511904D02*
X221383390Y-68464285D01*
X221383390Y-68464285D02*
X221954819Y-67892857D01*
X221954819Y-67892857D02*
X221954819Y-68511904D01*
X217954819Y-59035714D02*
X216954819Y-59035714D01*
X216954819Y-59035714D02*
X216954819Y-59273809D01*
X216954819Y-59273809D02*
X217002438Y-59416666D01*
X217002438Y-59416666D02*
X217097676Y-59511904D01*
X217097676Y-59511904D02*
X217192914Y-59559523D01*
X217192914Y-59559523D02*
X217383390Y-59607142D01*
X217383390Y-59607142D02*
X217526247Y-59607142D01*
X217526247Y-59607142D02*
X217716723Y-59559523D01*
X217716723Y-59559523D02*
X217811961Y-59511904D01*
X217811961Y-59511904D02*
X217907200Y-59416666D01*
X217907200Y-59416666D02*
X217954819Y-59273809D01*
X217954819Y-59273809D02*
X217954819Y-59035714D01*
X217954819Y-60559523D02*
X217954819Y-59988095D01*
X217954819Y-60273809D02*
X216954819Y-60273809D01*
X216954819Y-60273809D02*
X217097676Y-60178571D01*
X217097676Y-60178571D02*
X217192914Y-60083333D01*
X217192914Y-60083333D02*
X217240533Y-59988095D01*
X217954819Y-61511904D02*
X217954819Y-60940476D01*
X217954819Y-61226190D02*
X216954819Y-61226190D01*
X216954819Y-61226190D02*
X217097676Y-61130952D01*
X217097676Y-61130952D02*
X217192914Y-61035714D01*
X217192914Y-61035714D02*
X217240533Y-60940476D01*
X150954819Y-54861905D02*
X149954819Y-54861905D01*
X149954819Y-54861905D02*
X149954819Y-55100000D01*
X149954819Y-55100000D02*
X150002438Y-55242857D01*
X150002438Y-55242857D02*
X150097676Y-55338095D01*
X150097676Y-55338095D02*
X150192914Y-55385714D01*
X150192914Y-55385714D02*
X150383390Y-55433333D01*
X150383390Y-55433333D02*
X150526247Y-55433333D01*
X150526247Y-55433333D02*
X150716723Y-55385714D01*
X150716723Y-55385714D02*
X150811961Y-55338095D01*
X150811961Y-55338095D02*
X150907200Y-55242857D01*
X150907200Y-55242857D02*
X150954819Y-55100000D01*
X150954819Y-55100000D02*
X150954819Y-54861905D01*
X149954819Y-55766667D02*
X149954819Y-56385714D01*
X149954819Y-56385714D02*
X150335771Y-56052381D01*
X150335771Y-56052381D02*
X150335771Y-56195238D01*
X150335771Y-56195238D02*
X150383390Y-56290476D01*
X150383390Y-56290476D02*
X150431009Y-56338095D01*
X150431009Y-56338095D02*
X150526247Y-56385714D01*
X150526247Y-56385714D02*
X150764342Y-56385714D01*
X150764342Y-56385714D02*
X150859580Y-56338095D01*
X150859580Y-56338095D02*
X150907200Y-56290476D01*
X150907200Y-56290476D02*
X150954819Y-56195238D01*
X150954819Y-56195238D02*
X150954819Y-55909524D01*
X150954819Y-55909524D02*
X150907200Y-55814286D01*
X150907200Y-55814286D02*
X150859580Y-55766667D01*
X156704819Y-69761905D02*
X155704819Y-69761905D01*
X155704819Y-69761905D02*
X155704819Y-70000000D01*
X155704819Y-70000000D02*
X155752438Y-70142857D01*
X155752438Y-70142857D02*
X155847676Y-70238095D01*
X155847676Y-70238095D02*
X155942914Y-70285714D01*
X155942914Y-70285714D02*
X156133390Y-70333333D01*
X156133390Y-70333333D02*
X156276247Y-70333333D01*
X156276247Y-70333333D02*
X156466723Y-70285714D01*
X156466723Y-70285714D02*
X156561961Y-70238095D01*
X156561961Y-70238095D02*
X156657200Y-70142857D01*
X156657200Y-70142857D02*
X156704819Y-70000000D01*
X156704819Y-70000000D02*
X156704819Y-69761905D01*
X155800057Y-70714286D02*
X155752438Y-70761905D01*
X155752438Y-70761905D02*
X155704819Y-70857143D01*
X155704819Y-70857143D02*
X155704819Y-71095238D01*
X155704819Y-71095238D02*
X155752438Y-71190476D01*
X155752438Y-71190476D02*
X155800057Y-71238095D01*
X155800057Y-71238095D02*
X155895295Y-71285714D01*
X155895295Y-71285714D02*
X155990533Y-71285714D01*
X155990533Y-71285714D02*
X156133390Y-71238095D01*
X156133390Y-71238095D02*
X156704819Y-70666667D01*
X156704819Y-70666667D02*
X156704819Y-71285714D01*
X147483333Y-60604819D02*
X147483333Y-61319104D01*
X147483333Y-61319104D02*
X147530952Y-61461961D01*
X147530952Y-61461961D02*
X147626190Y-61557200D01*
X147626190Y-61557200D02*
X147769047Y-61604819D01*
X147769047Y-61604819D02*
X147864285Y-61604819D01*
X146578571Y-60938152D02*
X146578571Y-61604819D01*
X146816666Y-60557200D02*
X147054761Y-61271485D01*
X147054761Y-61271485D02*
X146435714Y-61271485D01*
X160204819Y-54761905D02*
X159204819Y-54761905D01*
X159204819Y-54761905D02*
X159204819Y-55000000D01*
X159204819Y-55000000D02*
X159252438Y-55142857D01*
X159252438Y-55142857D02*
X159347676Y-55238095D01*
X159347676Y-55238095D02*
X159442914Y-55285714D01*
X159442914Y-55285714D02*
X159633390Y-55333333D01*
X159633390Y-55333333D02*
X159776247Y-55333333D01*
X159776247Y-55333333D02*
X159966723Y-55285714D01*
X159966723Y-55285714D02*
X160061961Y-55238095D01*
X160061961Y-55238095D02*
X160157200Y-55142857D01*
X160157200Y-55142857D02*
X160204819Y-55000000D01*
X160204819Y-55000000D02*
X160204819Y-54761905D01*
X160204819Y-56285714D02*
X160204819Y-55714286D01*
X160204819Y-56000000D02*
X159204819Y-56000000D01*
X159204819Y-56000000D02*
X159347676Y-55904762D01*
X159347676Y-55904762D02*
X159442914Y-55809524D01*
X159442914Y-55809524D02*
X159490533Y-55714286D01*
X160704819Y-63011905D02*
X159704819Y-63011905D01*
X159704819Y-63011905D02*
X159704819Y-63250000D01*
X159704819Y-63250000D02*
X159752438Y-63392857D01*
X159752438Y-63392857D02*
X159847676Y-63488095D01*
X159847676Y-63488095D02*
X159942914Y-63535714D01*
X159942914Y-63535714D02*
X160133390Y-63583333D01*
X160133390Y-63583333D02*
X160276247Y-63583333D01*
X160276247Y-63583333D02*
X160466723Y-63535714D01*
X160466723Y-63535714D02*
X160561961Y-63488095D01*
X160561961Y-63488095D02*
X160657200Y-63392857D01*
X160657200Y-63392857D02*
X160704819Y-63250000D01*
X160704819Y-63250000D02*
X160704819Y-63011905D01*
X160038152Y-64440476D02*
X160704819Y-64440476D01*
X159657200Y-64202381D02*
X160371485Y-63964286D01*
X160371485Y-63964286D02*
X160371485Y-64583333D01*
X218954819Y-55861905D02*
X217954819Y-55861905D01*
X217954819Y-55861905D02*
X217954819Y-56100000D01*
X217954819Y-56100000D02*
X218002438Y-56242857D01*
X218002438Y-56242857D02*
X218097676Y-56338095D01*
X218097676Y-56338095D02*
X218192914Y-56385714D01*
X218192914Y-56385714D02*
X218383390Y-56433333D01*
X218383390Y-56433333D02*
X218526247Y-56433333D01*
X218526247Y-56433333D02*
X218716723Y-56385714D01*
X218716723Y-56385714D02*
X218811961Y-56338095D01*
X218811961Y-56338095D02*
X218907200Y-56242857D01*
X218907200Y-56242857D02*
X218954819Y-56100000D01*
X218954819Y-56100000D02*
X218954819Y-55861905D01*
X217954819Y-56766667D02*
X217954819Y-57433333D01*
X217954819Y-57433333D02*
X218954819Y-57004762D01*
X137383333Y-60604819D02*
X137383333Y-61319104D01*
X137383333Y-61319104D02*
X137430952Y-61461961D01*
X137430952Y-61461961D02*
X137526190Y-61557200D01*
X137526190Y-61557200D02*
X137669047Y-61604819D01*
X137669047Y-61604819D02*
X137764285Y-61604819D01*
X136383333Y-61604819D02*
X136954761Y-61604819D01*
X136669047Y-61604819D02*
X136669047Y-60604819D01*
X136669047Y-60604819D02*
X136764285Y-60747676D01*
X136764285Y-60747676D02*
X136859523Y-60842914D01*
X136859523Y-60842914D02*
X136954761Y-60890533D01*
D11*
%TO.C,1kR1*%
X128765000Y-55727064D02*
X128765000Y-55272936D01*
X130235000Y-55727064D02*
X130235000Y-55272936D01*
%TO.C,A1*%
X28840000Y-57440000D02*
X28840000Y-65320000D01*
X28840000Y-65320000D02*
X39260000Y-65320000D01*
X31380000Y-52360000D02*
X31380000Y-57440000D01*
X31380000Y-52360000D02*
X74820000Y-52360000D01*
X31380000Y-70400000D02*
X31380000Y-65320000D01*
X34050000Y-55030000D02*
X34050000Y-52360000D01*
X34050000Y-67730000D02*
X34050000Y-70400000D01*
X39260000Y-57440000D02*
X28840000Y-57440000D01*
X39260000Y-65320000D02*
X39260000Y-57440000D01*
X69610000Y-67730000D02*
X34050000Y-67730000D01*
X69610000Y-67730000D02*
X69610000Y-70400000D01*
X69610000Y-67730000D02*
X72150000Y-67730000D01*
X69610000Y-70400000D02*
X31380000Y-70400000D01*
X72150000Y-55030000D02*
X34050000Y-55030000D01*
X72150000Y-55030000D02*
X72150000Y-52360000D01*
X72150000Y-67730000D02*
X72150000Y-70400000D01*
X74820000Y-52360000D02*
X74820000Y-70400000D01*
X74820000Y-70400000D02*
X72150000Y-70400000D01*
%TO.C,1000uf25V2*%
X197900000Y-65360000D02*
X199150000Y-65360000D01*
X198525000Y-65985000D02*
X198525000Y-64735000D01*
X199390000Y-58304437D02*
X199390000Y-61090000D01*
X199390000Y-58304437D02*
X200454437Y-57240000D01*
X199390000Y-66895563D02*
X199390000Y-64110000D01*
X199390000Y-66895563D02*
X200454437Y-67960000D01*
X200454437Y-57240000D02*
X210110000Y-57240000D01*
X200454437Y-67960000D02*
X210110000Y-67960000D01*
X210110000Y-57240000D02*
X210110000Y-61090000D01*
X210110000Y-67960000D02*
X210110000Y-64110000D01*
%TO.C,D8*%
X212000000Y-58960000D02*
X212000000Y-54950000D01*
X214000000Y-58960000D02*
X212000000Y-58960000D01*
X214000000Y-58960000D02*
X214000000Y-54950000D01*
%TO.C,Q1*%
X118030000Y-52977500D02*
X118030000Y-53247500D01*
X118030000Y-59877500D02*
X118030000Y-59607500D01*
X124450000Y-52977500D02*
X118030000Y-52977500D01*
X124450000Y-59877500D02*
X118030000Y-59877500D01*
X116640000Y-60037500D02*
X115960000Y-60037500D01*
X116300000Y-59567500D01*
X116640000Y-60037500D01*
G36*
X116640000Y-60037500D02*
G01*
X115960000Y-60037500D01*
X116300000Y-59567500D01*
X116640000Y-60037500D01*
G37*
D12*
%TO.C,Fuse1*%
X88750000Y-52000000D02*
X113750000Y-52000000D01*
X88750000Y-74500000D02*
X88750000Y-52000000D01*
X113750000Y-52000000D02*
X113750000Y-74500000D01*
X113750000Y-74500000D02*
X88750000Y-74500000D01*
D13*
%TO.C,J2*%
X115373000Y-61923000D02*
X125627000Y-61923000D01*
X115373000Y-73577000D02*
X115373000Y-61923000D01*
X125627000Y-61923000D02*
X125627000Y-73577000D01*
X125627000Y-73577000D02*
X115373000Y-73577000D01*
D11*
%TO.C,D9*%
X161250000Y-59890000D02*
X161250000Y-63900000D01*
X161250000Y-59890000D02*
X163250000Y-59890000D01*
X163250000Y-59890000D02*
X163250000Y-63900000D01*
%TO.C,D10*%
X162750000Y-52890000D02*
X162750000Y-56900000D01*
X162750000Y-52890000D02*
X164750000Y-52890000D01*
X164750000Y-52890000D02*
X164750000Y-56900000D01*
%TO.C,D5*%
X47110000Y-72750000D02*
X43100000Y-72750000D01*
X47110000Y-72750000D02*
X47110000Y-74750000D01*
X47110000Y-74750000D02*
X43100000Y-74750000D01*
%TO.C,100kR1*%
X133765000Y-55022936D02*
X133765000Y-55477064D01*
X135235000Y-55022936D02*
X135235000Y-55477064D01*
%TO.C,D6*%
X166750000Y-58110000D02*
X166750000Y-54100000D01*
X168750000Y-58110000D02*
X166750000Y-58110000D01*
X168750000Y-58110000D02*
X168750000Y-54100000D01*
%TO.C,D12*%
X218500000Y-69610000D02*
X218500000Y-65600000D01*
X220500000Y-69610000D02*
X218500000Y-69610000D01*
X220500000Y-69610000D02*
X220500000Y-65600000D01*
%TO.C,D11*%
X218500000Y-57890000D02*
X218500000Y-61900000D01*
X218500000Y-57890000D02*
X220500000Y-57890000D01*
X220500000Y-57890000D02*
X220500000Y-61900000D01*
%TO.C,D3*%
X151500000Y-53240000D02*
X151500000Y-57250000D01*
X151500000Y-53240000D02*
X153500000Y-53240000D01*
X153500000Y-53240000D02*
X153500000Y-57250000D01*
%TO.C,D2*%
X157250000Y-68140000D02*
X157250000Y-72150000D01*
X157250000Y-68140000D02*
X159250000Y-68140000D01*
X159250000Y-68140000D02*
X159250000Y-72150000D01*
%TO.C,J4*%
X143065000Y-62240000D02*
X143065000Y-63090000D01*
X143065000Y-66610000D02*
X143065000Y-67460000D01*
X143065000Y-67460000D02*
X145390000Y-67460000D01*
X148910000Y-67460000D02*
X148910000Y-69850000D01*
X151235000Y-62240000D02*
X143065000Y-62240000D01*
X151235000Y-63090000D02*
X151235000Y-62240000D01*
X151235000Y-66610000D02*
X151235000Y-67460000D01*
X151235000Y-67460000D02*
X148910000Y-67460000D01*
%TO.C,D1*%
X156750000Y-57860000D02*
X156750000Y-53850000D01*
X158750000Y-57860000D02*
X156750000Y-57860000D01*
X158750000Y-57860000D02*
X158750000Y-53850000D01*
%TO.C,4.7k_ohm2*%
X76120000Y-72596359D02*
X76120000Y-72903641D01*
X76880000Y-72596359D02*
X76880000Y-72903641D01*
%TO.C,D4*%
X157250000Y-66110000D02*
X157250000Y-62100000D01*
X159250000Y-66110000D02*
X157250000Y-66110000D01*
X159250000Y-66110000D02*
X159250000Y-62100000D01*
%TO.C,4.7k_ohm1*%
X79870000Y-72903641D02*
X79870000Y-72596359D01*
X80630000Y-72903641D02*
X80630000Y-72596359D01*
%TO.C,J3*%
X76890000Y-52890000D02*
X76890000Y-55950000D01*
X76890000Y-60050000D02*
X76890000Y-66110000D01*
X76890000Y-66110000D02*
X79700000Y-66110000D01*
X81000000Y-66300000D02*
X83000000Y-66300000D01*
X84300000Y-66110000D02*
X87110000Y-66110000D01*
X87110000Y-52890000D02*
X76890000Y-52890000D01*
X87110000Y-55950000D02*
X87110000Y-52890000D01*
X87110000Y-66110000D02*
X87110000Y-60050000D01*
%TO.C,D7*%
X215500000Y-58960000D02*
X215500000Y-54950000D01*
X217500000Y-58960000D02*
X215500000Y-58960000D01*
X217500000Y-58960000D02*
X217500000Y-54950000D01*
%TO.C,J1*%
X132965000Y-62240000D02*
X132965000Y-63090000D01*
X132965000Y-66610000D02*
X132965000Y-67460000D01*
X132965000Y-67460000D02*
X135290000Y-67460000D01*
X138810000Y-67460000D02*
X138810000Y-69850000D01*
X141135000Y-62240000D02*
X132965000Y-62240000D01*
X141135000Y-63090000D02*
X141135000Y-62240000D01*
X141135000Y-66610000D02*
X141135000Y-67460000D01*
X141135000Y-67460000D02*
X138810000Y-67460000D01*
%TO.C,1000uf25V3*%
X185640000Y-57490000D02*
X185640000Y-61340000D01*
X185640000Y-68210000D02*
X185640000Y-64360000D01*
X195295563Y-57490000D02*
X185640000Y-57490000D01*
X195295563Y-68210000D02*
X185640000Y-68210000D01*
X196360000Y-58554437D02*
X195295563Y-57490000D01*
X196360000Y-58554437D02*
X196360000Y-61340000D01*
X196360000Y-67145563D02*
X195295563Y-68210000D01*
X196360000Y-67145563D02*
X196360000Y-64360000D01*
X197225000Y-59465000D02*
X197225000Y-60715000D01*
X197850000Y-60090000D02*
X196600000Y-60090000D01*
%TO.C,1000uf25V1*%
X171090000Y-57240000D02*
X171090000Y-61090000D01*
X171090000Y-67960000D02*
X171090000Y-64110000D01*
X180745563Y-57240000D02*
X171090000Y-57240000D01*
X180745563Y-67960000D02*
X171090000Y-67960000D01*
X181810000Y-58304437D02*
X180745563Y-57240000D01*
X181810000Y-58304437D02*
X181810000Y-61090000D01*
X181810000Y-66895563D02*
X180745563Y-67960000D01*
X181810000Y-66895563D02*
X181810000Y-64110000D01*
X182675000Y-59215000D02*
X182675000Y-60465000D01*
X183300000Y-59840000D02*
X182050000Y-59840000D01*
%TD*%
M02*
