%TF.GenerationSoftware,KiCad,Pcbnew,9.0.6*%
%TF.CreationDate,2026-03-01T17:58:18-08:00*%
%TF.ProjectId,Tactile Browser,54616374-696c-4652-9042-726f77736572,rev?*%
%TF.SameCoordinates,Original*%
%TF.FileFunction,Copper,L1,Top*%
%TF.FilePolarity,Positive*%
%FSLAX46Y46*%
G04 Gerber Fmt 4.6, Leading zero omitted, Abs format (unit mm)*
G04 Created by KiCad (PCBNEW 9.0.6) date 2026-03-01 17:58:18*
%MOMM*%
%LPD*%
G01*
G04 APERTURE LIST*
G04 Aperture macros list*
%AMRoundRect*
0 Rectangle with rounded corners*
0 $1 Rounding radius*
0 $2 $3 $4 $5 $6 $7 $8 $9 X,Y pos of 4 corners*
0 Add a 4 corners polygon primitive as box body*
4,1,4,$2,$3,$4,$5,$6,$7,$8,$9,$2,$3,0*
0 Add four circle primitives for the rounded corners*
1,1,$1+$1,$2,$3*
1,1,$1+$1,$4,$5*
1,1,$1+$1,$6,$7*
1,1,$1+$1,$8,$9*
0 Add four rect primitives between the rounded corners*
20,1,$1+$1,$2,$3,$4,$5,0*
20,1,$1+$1,$4,$5,$6,$7,0*
20,1,$1+$1,$6,$7,$8,$9,0*
20,1,$1+$1,$8,$9,$2,$3,0*%
G04 Aperture macros list end*
%TA.AperFunction,SMDPad,CuDef*%
%ADD10RoundRect,0.250000X-0.250000X-2.500000X0.250000X-2.500000X0.250000X2.500000X-0.250000X2.500000X0*%
%TD*%
%TA.AperFunction,SMDPad,CuDef*%
%ADD11RoundRect,0.250000X-0.550000X-1.250000X0.550000X-1.250000X0.550000X1.250000X-0.550000X1.250000X0*%
%TD*%
%TA.AperFunction,SMDPad,CuDef*%
%ADD12RoundRect,0.250000X-0.475000X0.250000X-0.475000X-0.250000X0.475000X-0.250000X0.475000X0.250000X0*%
%TD*%
%TA.AperFunction,SMDPad,CuDef*%
%ADD13RoundRect,0.100000X0.850000X0.100000X-0.850000X0.100000X-0.850000X-0.100000X0.850000X-0.100000X0*%
%TD*%
%TA.AperFunction,SMDPad,CuDef*%
%ADD14RoundRect,0.225000X0.375000X-0.225000X0.375000X0.225000X-0.375000X0.225000X-0.375000X-0.225000X0*%
%TD*%
%TA.AperFunction,SMDPad,CuDef*%
%ADD15RoundRect,0.250000X0.475000X-0.250000X0.475000X0.250000X-0.475000X0.250000X-0.475000X-0.250000X0*%
%TD*%
%TA.AperFunction,SMDPad,CuDef*%
%ADD16RoundRect,0.250000X1.950000X1.000000X-1.950000X1.000000X-1.950000X-1.000000X1.950000X-1.000000X0*%
%TD*%
%TA.AperFunction,SMDPad,CuDef*%
%ADD17RoundRect,0.225000X-0.375000X0.225000X-0.375000X-0.225000X0.375000X-0.225000X0.375000X0.225000X0*%
%TD*%
%TA.AperFunction,SMDPad,CuDef*%
%ADD18RoundRect,0.250000X0.250000X2.500000X-0.250000X2.500000X-0.250000X-2.500000X0.250000X-2.500000X0*%
%TD*%
%TA.AperFunction,SMDPad,CuDef*%
%ADD19RoundRect,0.250000X0.550000X1.250000X-0.550000X1.250000X-0.550000X-1.250000X0.550000X-1.250000X0*%
%TD*%
%TA.AperFunction,ComponentPad*%
%ADD20C,1.803400*%
%TD*%
%TA.AperFunction,SMDPad,CuDef*%
%ADD21RoundRect,0.250000X-1.950000X-1.000000X1.950000X-1.000000X1.950000X1.000000X-1.950000X1.000000X0*%
%TD*%
%TA.AperFunction,SMDPad,CuDef*%
%ADD22RoundRect,0.162500X-0.575000X-0.162500X0.575000X-0.162500X0.575000X0.162500X-0.575000X0.162500X0*%
%TD*%
%TA.AperFunction,SMDPad,CuDef*%
%ADD23RoundRect,0.100000X-0.850000X-0.100000X0.850000X-0.100000X0.850000X0.100000X-0.850000X0.100000X0*%
%TD*%
%TA.AperFunction,SMDPad,CuDef*%
%ADD24RoundRect,0.250000X-2.500000X0.250000X-2.500000X-0.250000X2.500000X-0.250000X2.500000X0.250000X0*%
%TD*%
%TA.AperFunction,SMDPad,CuDef*%
%ADD25RoundRect,0.250000X-1.250000X0.550000X-1.250000X-0.550000X1.250000X-0.550000X1.250000X0.550000X0*%
%TD*%
%TA.AperFunction,SMDPad,CuDef*%
%ADD26RoundRect,0.162500X0.575000X0.162500X-0.575000X0.162500X-0.575000X-0.162500X0.575000X-0.162500X0*%
%TD*%
%TA.AperFunction,SMDPad,CuDef*%
%ADD27RoundRect,0.250000X2.500000X-0.250000X2.500000X0.250000X-2.500000X0.250000X-2.500000X-0.250000X0*%
%TD*%
%TA.AperFunction,SMDPad,CuDef*%
%ADD28RoundRect,0.250000X1.250000X-0.550000X1.250000X0.550000X-1.250000X0.550000X-1.250000X-0.550000X0*%
%TD*%
%TA.AperFunction,ComponentPad*%
%ADD29R,1.600000X1.600000*%
%TD*%
%TA.AperFunction,ComponentPad*%
%ADD30O,1.600000X1.600000*%
%TD*%
%TA.AperFunction,ViaPad*%
%ADD31C,0.355600*%
%TD*%
%TA.AperFunction,ViaPad*%
%ADD32C,0.600202*%
%TD*%
%TA.AperFunction,Conductor*%
%ADD33C,0.200000*%
%TD*%
%TA.AperFunction,Conductor*%
%ADD34C,0.381000*%
%TD*%
%TA.AperFunction,Conductor*%
%ADD35C,0.660400*%
%TD*%
%TA.AperFunction,Conductor*%
%ADD36C,0.203200*%
%TD*%
%TA.AperFunction,Conductor*%
%ADD37C,0.249936*%
%TD*%
%TA.AperFunction,Conductor*%
%ADD38C,0.711200*%
%TD*%
G04 APERTURE END LIST*
D10*
%TO.P,SW3,1,1*%
%TO.N,Net-(D3-A)*%
X63750000Y-60650000D03*
%TO.P,SW3,2,2*%
%TO.N,Row3*%
X65750000Y-60650000D03*
D11*
%TO.P,SW3,MP*%
%TO.N,N/C*%
X61350000Y-58400000D03*
X68150000Y-58400000D03*
%TD*%
D12*
%TO.P,uF7,1*%
%TO.N,5V*%
X56750000Y-109800000D03*
%TO.P,uF7,2*%
%TO.N,GND*%
X56750000Y-111700000D03*
%TD*%
D13*
%TO.P,Driver8,1,AO1*%
%TO.N,S15_out1*%
X97450001Y-108145100D03*
%TO.P,Driver8,2,AO1*%
X97450001Y-107495100D03*
%TO.P,Driver8,3,PGND1*%
%TO.N,GND*%
X97450001Y-106845100D03*
%TO.P,Driver8,4,PGND1*%
X97450001Y-106195100D03*
%TO.P,Driver8,5,AO2*%
%TO.N,S15_out2*%
X97450001Y-105545100D03*
%TO.P,Driver8,6,AO2*%
X97450001Y-104895100D03*
%TO.P,Driver8,7,BO2*%
%TO.N,S16_out2*%
X97450001Y-104245100D03*
%TO.P,Driver8,8,BO2*%
X97450001Y-103595100D03*
%TO.P,Driver8,9,PGND2*%
%TO.N,GND*%
X97450001Y-102945100D03*
%TO.P,Driver8,10,PGND2*%
X97450001Y-102295100D03*
%TO.P,Driver8,11,BO1*%
%TO.N,S16_out1*%
X97450001Y-101645100D03*
%TO.P,Driver8,12,BO1*%
X97450001Y-100995100D03*
%TO.P,Driver8,13*%
%TO.N,N/C*%
X90450001Y-100995100D03*
%TO.P,Driver8,14*%
X90450001Y-101645100D03*
%TO.P,Driver8,15,PWMB*%
%TO.N,PWM*%
X90450001Y-102295100D03*
%TO.P,Driver8,16,BIN2*%
%TO.N,S16_in2*%
X90450001Y-102945100D03*
%TO.P,Driver8,17,BIN1*%
%TO.N,S16_in1*%
X90450001Y-103595100D03*
%TO.P,Driver8,18,GND*%
%TO.N,GND*%
X90450001Y-104245100D03*
%TO.P,Driver8,19,STBY*%
%TO.N,STBY*%
X90450001Y-104895100D03*
%TO.P,Driver8,20,VCC*%
%TO.N,5V*%
X90450001Y-105545100D03*
%TO.P,Driver8,21,AIN1*%
%TO.N,S15_in1*%
X90450001Y-106195100D03*
%TO.P,Driver8,22,AIN2*%
%TO.N,S15_in2*%
X90450001Y-106845100D03*
%TO.P,Driver8,23,PWMA*%
%TO.N,PWM*%
X90450001Y-107495100D03*
%TO.P,Driver8,24,VM2*%
%TO.N,12V*%
X90450001Y-108145100D03*
%TD*%
D14*
%TO.P,D1,1,K*%
%TO.N,Col1*%
X68250000Y-48300000D03*
%TO.P,D1,2,A*%
%TO.N,Net-(D1-A)*%
X68250000Y-45000000D03*
%TD*%
D13*
%TO.P,Driver5,1,AO1*%
%TO.N,S9_out1*%
X97950001Y-42220100D03*
%TO.P,Driver5,2,AO1*%
X97950001Y-41570100D03*
%TO.P,Driver5,3,PGND1*%
%TO.N,GND*%
X97950001Y-40920100D03*
%TO.P,Driver5,4,PGND1*%
X97950001Y-40270100D03*
%TO.P,Driver5,5,AO2*%
%TO.N,S9_out2*%
X97950001Y-39620100D03*
%TO.P,Driver5,6,AO2*%
X97950001Y-38970100D03*
%TO.P,Driver5,7,BO2*%
%TO.N,S10_out2*%
X97950001Y-38320100D03*
%TO.P,Driver5,8,BO2*%
X97950001Y-37670100D03*
%TO.P,Driver5,9,PGND2*%
%TO.N,GND*%
X97950001Y-37020100D03*
%TO.P,Driver5,10,PGND2*%
X97950001Y-36370100D03*
%TO.P,Driver5,11,BO1*%
%TO.N,S10_out1*%
X97950001Y-35720100D03*
%TO.P,Driver5,12,BO1*%
X97950001Y-35070100D03*
%TO.P,Driver5,13*%
%TO.N,N/C*%
X90950001Y-35070100D03*
%TO.P,Driver5,14*%
X90950001Y-35720100D03*
%TO.P,Driver5,15,PWMB*%
%TO.N,PWM*%
X90950001Y-36370100D03*
%TO.P,Driver5,16,BIN2*%
%TO.N,S10_in2*%
X90950001Y-37020100D03*
%TO.P,Driver5,17,BIN1*%
%TO.N,S10_in1*%
X90950001Y-37670100D03*
%TO.P,Driver5,18,GND*%
%TO.N,GND*%
X90950001Y-38320100D03*
%TO.P,Driver5,19,STBY*%
%TO.N,STBY*%
X90950001Y-38970100D03*
%TO.P,Driver5,20,VCC*%
%TO.N,5V*%
X90950001Y-39620100D03*
%TO.P,Driver5,21,AIN1*%
%TO.N,S9_in1*%
X90950001Y-40270100D03*
%TO.P,Driver5,22,AIN2*%
%TO.N,S9_in2*%
X90950001Y-40920100D03*
%TO.P,Driver5,23,PWMA*%
%TO.N,PWM*%
X90950001Y-41570100D03*
%TO.P,Driver5,24,VM3*%
%TO.N,12V*%
X90950001Y-42220100D03*
%TD*%
D15*
%TO.P,uF18,1*%
%TO.N,12V*%
X87750000Y-129550000D03*
%TO.P,uF18,2*%
%TO.N,GND*%
X87750000Y-127650000D03*
%TD*%
D16*
%TO.P,1000uf25V2,1*%
%TO.N,12V*%
X83450000Y-96750000D03*
%TO.P,1000uf25V2,2*%
%TO.N,GND*%
X75050000Y-96750000D03*
%TD*%
D17*
%TO.P,D14,1,K*%
%TO.N,Col3*%
X81250000Y-44500000D03*
%TO.P,D14,2,A*%
%TO.N,Net-(D14-A)*%
X81250000Y-47800000D03*
%TD*%
D18*
%TO.P,SW4,1,1*%
%TO.N,Net-(D4-A)*%
X65850000Y-67400000D03*
%TO.P,SW4,2,2*%
%TO.N,Row4*%
X63850000Y-67400000D03*
D19*
%TO.P,SW4,MP*%
%TO.N,N/C*%
X68250000Y-69650000D03*
X61450000Y-69650000D03*
%TD*%
D14*
%TO.P,D13,1,K*%
%TO.N,Col3*%
X88250000Y-47800000D03*
%TO.P,D13,2,A*%
%TO.N,Net-(D13-A)*%
X88250000Y-44500000D03*
%TD*%
D15*
%TO.P,uF8,1*%
%TO.N,12V*%
X51000000Y-111700000D03*
%TO.P,uF8,2*%
%TO.N,GND*%
X51000000Y-109800000D03*
%TD*%
D20*
%TO.P,Sol5,1,Pin_1*%
%TO.N,S5_out2*%
X43500000Y-80500000D03*
%TO.P,Sol5,2,Pin_2*%
%TO.N,S5_out1*%
X43500000Y-85500000D03*
%TD*%
%TO.P,12V_supply1,1,Pin_1*%
%TO.N,GND*%
X89000000Y-137799999D03*
%TO.P,12V_supply1,2,Pin_2*%
%TO.N,12V*%
X94000000Y-137799999D03*
%TD*%
D14*
%TO.P,D3,1,K*%
%TO.N,Col1*%
X68250000Y-65800000D03*
%TO.P,D3,2,A*%
%TO.N,Net-(D3-A)*%
X68250000Y-62500000D03*
%TD*%
D20*
%TO.P,Sol18,1,Pin_1*%
%TO.N,S18_out1*%
X104950001Y-141250000D03*
%TO.P,Sol18,2,Pin_2*%
%TO.N,S18_out2*%
X104950001Y-136250000D03*
%TD*%
D18*
%TO.P,SW6,1,1*%
%TO.N,Net-(D6-A)*%
X65750000Y-85150000D03*
%TO.P,SW6,2,2*%
%TO.N,Row6*%
X63750000Y-85150000D03*
D19*
%TO.P,SW6,MP*%
%TO.N,N/C*%
X68150000Y-87400000D03*
X61350000Y-87400000D03*
%TD*%
D20*
%TO.P,Sol9,1,Pin_1*%
%TO.N,S9_out2*%
X105250000Y-42145100D03*
%TO.P,Sol9,2,Pin_2*%
%TO.N,S9_out1*%
X105250000Y-37145100D03*
%TD*%
%TO.P,Sol17,1,Pin_1*%
%TO.N,S17_out1*%
X104950001Y-130250000D03*
%TO.P,Sol17,2,Pin_2*%
%TO.N,S17_out2*%
X104950001Y-125250000D03*
%TD*%
D14*
%TO.P,D7,1,K*%
%TO.N,Col2*%
X78150000Y-47800000D03*
%TO.P,D7,2,A*%
%TO.N,Net-(D7-A)*%
X78150000Y-44500000D03*
%TD*%
D21*
%TO.P,1000uf25V4,1*%
%TO.N,12V*%
X61650000Y-108250000D03*
%TO.P,1000uf25V4,2*%
%TO.N,GND*%
X70050000Y-108250000D03*
%TD*%
D10*
%TO.P,SW17,1,1*%
%TO.N,Net-(D17-A)*%
X83650000Y-78400000D03*
%TO.P,SW17,2,2*%
%TO.N,Row5*%
X85650000Y-78400000D03*
D11*
%TO.P,SW17,MP*%
%TO.N,N/C*%
X81250000Y-76150000D03*
X88050000Y-76150000D03*
%TD*%
D18*
%TO.P,SW8,1,1*%
%TO.N,Net-(D8-A)*%
X75750000Y-49900000D03*
%TO.P,SW8,2,2*%
%TO.N,Row2*%
X73750000Y-49900000D03*
D19*
%TO.P,SW8,MP*%
%TO.N,N/C*%
X78150000Y-52150000D03*
X71350000Y-52150000D03*
%TD*%
D17*
%TO.P,D18,1,K*%
%TO.N,Col3*%
X81250000Y-80650000D03*
%TO.P,D18,2,A*%
%TO.N,Net-(D18-A)*%
X81250000Y-83950000D03*
%TD*%
D10*
%TO.P,SW5,1,1*%
%TO.N,Net-(D5-A)*%
X63750000Y-78150000D03*
%TO.P,SW5,2,2*%
%TO.N,Row5*%
X65750000Y-78150000D03*
D11*
%TO.P,SW5,MP*%
%TO.N,N/C*%
X61350000Y-75900000D03*
X68150000Y-75900000D03*
%TD*%
D12*
%TO.P,uF5,1*%
%TO.N,GND*%
X57250000Y-74800000D03*
%TO.P,uF5,2*%
%TO.N,5V*%
X57250000Y-76700000D03*
%TD*%
%TO.P,uF11,1*%
%TO.N,5V*%
X98000000Y-66050000D03*
%TO.P,uF11,2*%
%TO.N,GND*%
X98000000Y-67950000D03*
%TD*%
D20*
%TO.P,Sol15,1,Pin_1*%
%TO.N,S15_out1*%
X104950001Y-108145100D03*
%TO.P,Sol15,2,Pin_2*%
%TO.N,S15_out2*%
X104950001Y-103145100D03*
%TD*%
D10*
%TO.P,SW9,1,1*%
%TO.N,Net-(D9-A)*%
X73850000Y-60900000D03*
%TO.P,SW9,2,2*%
%TO.N,Row3*%
X75850000Y-60900000D03*
D11*
%TO.P,SW9,MP*%
%TO.N,N/C*%
X71450000Y-58650000D03*
X78250000Y-58650000D03*
%TD*%
D12*
%TO.P,uF16,1*%
%TO.N,12V*%
X88250000Y-96550000D03*
%TO.P,uF16,2*%
%TO.N,GND*%
X88250000Y-98450000D03*
%TD*%
D18*
%TO.P,SW12,1,1*%
%TO.N,Net-(D12-A)*%
X75850000Y-85400000D03*
%TO.P,SW12,2,2*%
%TO.N,Row6*%
X73850000Y-85400000D03*
D19*
%TO.P,SW12,MP*%
%TO.N,N/C*%
X78250000Y-87650000D03*
X71450000Y-87650000D03*
%TD*%
D13*
%TO.P,Driver6,1,AO1*%
%TO.N,S11_out1*%
X97950001Y-64295100D03*
%TO.P,Driver6,2,AO1*%
X97950001Y-63645100D03*
%TO.P,Driver6,3,PGND1*%
%TO.N,GND*%
X97950001Y-62995100D03*
%TO.P,Driver6,4,PGND1*%
X97950001Y-62345100D03*
%TO.P,Driver6,5,AO2*%
%TO.N,S11_out2*%
X97950001Y-61695100D03*
%TO.P,Driver6,6,AO2*%
X97950001Y-61045100D03*
%TO.P,Driver6,7,BO2*%
%TO.N,S12_out2*%
X97950001Y-60395100D03*
%TO.P,Driver6,8,BO2*%
X97950001Y-59745100D03*
%TO.P,Driver6,9,PGND2*%
%TO.N,GND*%
X97950001Y-59095100D03*
%TO.P,Driver6,10,PGND2*%
X97950001Y-58445100D03*
%TO.P,Driver6,11,BO1*%
%TO.N,S12_out1*%
X97950001Y-57795100D03*
%TO.P,Driver6,12,BO1*%
X97950001Y-57145100D03*
%TO.P,Driver6,13*%
%TO.N,N/C*%
X90950001Y-57145100D03*
%TO.P,Driver6,14*%
X90950001Y-57795100D03*
%TO.P,Driver6,15,PWMB*%
%TO.N,PWM*%
X90950001Y-58445100D03*
%TO.P,Driver6,16,BIN2*%
%TO.N,S12_in2*%
X90950001Y-59095100D03*
%TO.P,Driver6,17,BIN1*%
%TO.N,S12_in1*%
X90950001Y-59745100D03*
%TO.P,Driver6,18,GND*%
%TO.N,GND*%
X90950001Y-60395100D03*
%TO.P,Driver6,19,STBY*%
%TO.N,STBY*%
X90950001Y-61045100D03*
%TO.P,Driver6,20,VCC*%
%TO.N,5V*%
X90950001Y-61695100D03*
%TO.P,Driver6,21,AIN1*%
%TO.N,S11_in1*%
X90950001Y-62345100D03*
%TO.P,Driver6,22,AIN2*%
%TO.N,S11_in2*%
X90950001Y-62995100D03*
%TO.P,Driver6,23,PWMA*%
%TO.N,PWM*%
X90950001Y-63645100D03*
%TO.P,Driver6,24,VM1*%
%TO.N,12V*%
X90950001Y-64295100D03*
%TD*%
D22*
%TO.P,IO_1,1,QB*%
%TO.N,S1_in2*%
X50637500Y-44805000D03*
%TO.P,IO_1,2,QC*%
%TO.N,S2_in1*%
X50637500Y-46075000D03*
%TO.P,IO_1,3,QD*%
%TO.N,S2_in2*%
X50637500Y-47345000D03*
%TO.P,IO_1,4,QE*%
%TO.N,S3_in1*%
X50637500Y-48615000D03*
%TO.P,IO_1,5,QF*%
%TO.N,S3_in2*%
X50637500Y-49885000D03*
%TO.P,IO_1,6,QG*%
%TO.N,S4_in1*%
X50637500Y-51155000D03*
%TO.P,IO_1,7,QH*%
%TO.N,S4_in2*%
X50637500Y-52425000D03*
%TO.P,IO_1,8,GND*%
%TO.N,GND*%
X50637500Y-53695000D03*
%TO.P,IO_1,9,QH'*%
%TO.N,Overflow1*%
X56362500Y-53695000D03*
%TO.P,IO_1,10,~{SRCLR}*%
%TO.N,5V*%
X56362500Y-52425000D03*
%TO.P,IO_1,11,SRCLK*%
%TO.N,CLOCK*%
X56362500Y-51155000D03*
%TO.P,IO_1,12,RCLK*%
%TO.N,LATCH*%
X56362500Y-49885000D03*
%TO.P,IO_1,13,~{OE}*%
%TO.N,GND*%
X56362500Y-48615000D03*
%TO.P,IO_1,14,SER*%
%TO.N,DATA*%
X56362500Y-47345000D03*
%TO.P,IO_1,15,QA*%
%TO.N,S1_in1*%
X56362500Y-46075000D03*
%TO.P,IO_1,16,VCC*%
%TO.N,5V*%
X56362500Y-44805000D03*
%TD*%
D13*
%TO.P,Driver7,1,AO1*%
%TO.N,S13_out1*%
X97950001Y-86220100D03*
%TO.P,Driver7,2,AO1*%
X97950001Y-85570100D03*
%TO.P,Driver7,3,PGND1*%
%TO.N,GND*%
X97950001Y-84920100D03*
%TO.P,Driver7,4,PGND1*%
X97950001Y-84270100D03*
%TO.P,Driver7,5,AO2*%
%TO.N,S13_out2*%
X97950001Y-83620100D03*
%TO.P,Driver7,6,AO2*%
X97950001Y-82970100D03*
%TO.P,Driver7,7,BO2*%
%TO.N,S14_out2*%
X97950001Y-82320100D03*
%TO.P,Driver7,8,BO2*%
X97950001Y-81670100D03*
%TO.P,Driver7,9,PGND2*%
%TO.N,GND*%
X97950001Y-81020100D03*
%TO.P,Driver7,10,PGND2*%
X97950001Y-80370100D03*
%TO.P,Driver7,11,BO1*%
%TO.N,S14_out1*%
X97950001Y-79720100D03*
%TO.P,Driver7,12,BO1*%
X97950001Y-79070100D03*
%TO.P,Driver7,13*%
%TO.N,N/C*%
X90950001Y-79070100D03*
%TO.P,Driver7,14*%
X90950001Y-79720100D03*
%TO.P,Driver7,15,PWMB*%
%TO.N,PWM*%
X90950001Y-80370100D03*
%TO.P,Driver7,16,BIN2*%
%TO.N,S14_in2*%
X90950001Y-81020100D03*
%TO.P,Driver7,17,BIN1*%
%TO.N,S14_in1*%
X90950001Y-81670100D03*
%TO.P,Driver7,18,GND*%
%TO.N,GND*%
X90950001Y-82320100D03*
%TO.P,Driver7,19,STBY*%
%TO.N,STBY*%
X90950001Y-82970100D03*
%TO.P,Driver7,20,VCC*%
%TO.N,5V*%
X90950001Y-83620100D03*
%TO.P,Driver7,21,AIN1*%
%TO.N,S13_in1*%
X90950001Y-84270100D03*
%TO.P,Driver7,22,AIN2*%
%TO.N,S13_in2*%
X90950001Y-84920100D03*
%TO.P,Driver7,23,PWMA*%
%TO.N,PWM*%
X90950001Y-85570100D03*
%TO.P,Driver7,24,VM3*%
%TO.N,12V*%
X90950001Y-86220100D03*
%TD*%
D18*
%TO.P,SW14,1,1*%
%TO.N,Net-(D14-A)*%
X85850000Y-49650000D03*
%TO.P,SW14,2,2*%
%TO.N,Row2*%
X83850000Y-49650000D03*
D19*
%TO.P,SW14,MP*%
%TO.N,N/C*%
X88250000Y-51900000D03*
X81450000Y-51900000D03*
%TD*%
D20*
%TO.P,Sol13,1,Pin_1*%
%TO.N,S13_out1*%
X105450001Y-86250000D03*
%TO.P,Sol13,2,Pin_2*%
%TO.N,S13_out2*%
X105450001Y-81250000D03*
%TD*%
D14*
%TO.P,D9,1,K*%
%TO.N,Col2*%
X78250000Y-65800000D03*
%TO.P,D9,2,A*%
%TO.N,Net-(D9-A)*%
X78250000Y-62500000D03*
%TD*%
D23*
%TO.P,Driver2,1,AO1*%
%TO.N,S3_out1*%
X50750000Y-56350000D03*
%TO.P,Driver2,2,AO1*%
X50750000Y-57000000D03*
%TO.P,Driver2,3,PGND1*%
%TO.N,GND*%
X50750000Y-57650000D03*
%TO.P,Driver2,4,PGND1*%
X50750000Y-58300000D03*
%TO.P,Driver2,5,AO2*%
%TO.N,S3_out2*%
X50750000Y-58950000D03*
%TO.P,Driver2,6,AO2*%
X50750000Y-59600000D03*
%TO.P,Driver2,7,BO2*%
%TO.N,S4_out2*%
X50750000Y-60250000D03*
%TO.P,Driver2,8,BO2*%
X50750000Y-60900000D03*
%TO.P,Driver2,9,PGND2*%
%TO.N,GND*%
X50750000Y-61550000D03*
%TO.P,Driver2,10,PGND2*%
X50750000Y-62200000D03*
%TO.P,Driver2,11,BO1*%
%TO.N,S4_out1*%
X50750000Y-62850000D03*
%TO.P,Driver2,12,BO1*%
X50750000Y-63500000D03*
%TO.P,Driver2,13*%
%TO.N,N/C*%
X57750000Y-63500000D03*
%TO.P,Driver2,14*%
X57750000Y-62850000D03*
%TO.P,Driver2,15,PWMB*%
%TO.N,PWM*%
X57750000Y-62200000D03*
%TO.P,Driver2,16,BIN2*%
%TO.N,S4_in2*%
X57750000Y-61550000D03*
%TO.P,Driver2,17,BIN1*%
%TO.N,S4_in1*%
X57750000Y-60900000D03*
%TO.P,Driver2,18,GND*%
%TO.N,GND*%
X57750000Y-60250000D03*
%TO.P,Driver2,19,STBY*%
%TO.N,STBY*%
X57750000Y-59600000D03*
%TO.P,Driver2,20,VCC*%
%TO.N,5V*%
X57750000Y-58950000D03*
%TO.P,Driver2,21,AIN1*%
%TO.N,S3_in1*%
X57750000Y-58300000D03*
%TO.P,Driver2,22,AIN2*%
%TO.N,S3_in2*%
X57750000Y-57650000D03*
%TO.P,Driver2,23,PWMA*%
%TO.N,PWM*%
X57750000Y-57000000D03*
%TO.P,Driver2,24,VM3*%
%TO.N,12V*%
X57750000Y-56350000D03*
%TD*%
%TO.P,Driver4,1,AO1*%
%TO.N,S7_out1*%
X50500000Y-100925000D03*
%TO.P,Driver4,2,AO1*%
X50500000Y-101575000D03*
%TO.P,Driver4,3,PGND1*%
%TO.N,GND*%
X50500000Y-102225000D03*
%TO.P,Driver4,4,PGND1*%
X50500000Y-102875000D03*
%TO.P,Driver4,5,AO2*%
%TO.N,S7_out2*%
X50500000Y-103525000D03*
%TO.P,Driver4,6,AO2*%
X50500000Y-104175000D03*
%TO.P,Driver4,7,BO2*%
%TO.N,S8_out2*%
X50500000Y-104825000D03*
%TO.P,Driver4,8,BO2*%
X50500000Y-105475000D03*
%TO.P,Driver4,9,PGND2*%
%TO.N,GND*%
X50500000Y-106125000D03*
%TO.P,Driver4,10,PGND2*%
X50500000Y-106775000D03*
%TO.P,Driver4,11,BO1*%
%TO.N,S8_out1*%
X50500000Y-107425000D03*
%TO.P,Driver4,12,BO1*%
X50500000Y-108075000D03*
%TO.P,Driver4,13*%
%TO.N,N/C*%
X57500000Y-108075000D03*
%TO.P,Driver4,14*%
X57500000Y-107425000D03*
%TO.P,Driver4,15,PWMB*%
%TO.N,PWM*%
X57500000Y-106775000D03*
%TO.P,Driver4,16,BIN2*%
%TO.N,S8_in2*%
X57500000Y-106125000D03*
%TO.P,Driver4,17,BIN1*%
%TO.N,S8_in1*%
X57500000Y-105475000D03*
%TO.P,Driver4,18,GND*%
%TO.N,GND*%
X57500000Y-104825000D03*
%TO.P,Driver4,19,STBY*%
%TO.N,STBY*%
X57500000Y-104175000D03*
%TO.P,Driver4,20,VCC*%
%TO.N,5V*%
X57500000Y-103525000D03*
%TO.P,Driver4,21,AIN1*%
%TO.N,S7_in1*%
X57500000Y-102875000D03*
%TO.P,Driver4,22,AIN2*%
%TO.N,S7_in2*%
X57500000Y-102225000D03*
%TO.P,Driver4,23,PWMA*%
%TO.N,PWM*%
X57500000Y-101575000D03*
%TO.P,Driver4,24,VM3*%
%TO.N,12V*%
X57500000Y-100925000D03*
%TD*%
D24*
%TO.P,5V,1,Pin_1*%
%TO.N,5V*%
X63500000Y-119650000D03*
%TO.P,5V,2*%
%TO.N,N/C*%
X63500000Y-121650000D03*
D25*
%TO.P,5V,MP*%
X65750000Y-117250000D03*
X65750000Y-124050000D03*
%TD*%
D18*
%TO.P,SW10,1,1*%
%TO.N,Net-(D10-A)*%
X75850000Y-67650000D03*
%TO.P,SW10,2,2*%
%TO.N,Row4*%
X73850000Y-67650000D03*
D19*
%TO.P,SW10,MP*%
%TO.N,N/C*%
X78250000Y-69900000D03*
X71450000Y-69900000D03*
%TD*%
D20*
%TO.P,Sol14,1,Pin_1*%
%TO.N,S14_out1*%
X105250000Y-97250000D03*
%TO.P,Sol14,2,Pin_2*%
%TO.N,S14_out2*%
X105250000Y-92250000D03*
%TD*%
%TO.P,Sol8,1,Pin_1*%
%TO.N,S8_out2*%
X43500000Y-113500000D03*
%TO.P,Sol8,2,Pin_2*%
%TO.N,S8_out1*%
X43500000Y-118500000D03*
%TD*%
D10*
%TO.P,SW15,1,1*%
%TO.N,Net-(D15-A)*%
X83750000Y-60650000D03*
%TO.P,SW15,2,2*%
%TO.N,Row3*%
X85750000Y-60650000D03*
D11*
%TO.P,SW15,MP*%
%TO.N,N/C*%
X81350000Y-58400000D03*
X88150000Y-58400000D03*
%TD*%
D15*
%TO.P,uF4,1*%
%TO.N,12V*%
X50500000Y-67700000D03*
%TO.P,uF4,2*%
%TO.N,GND*%
X50500000Y-65800000D03*
%TD*%
D18*
%TO.P,SW18,1,1*%
%TO.N,Net-(D18-A)*%
X85850000Y-85400000D03*
%TO.P,SW18,2,2*%
%TO.N,Row6*%
X83850000Y-85400000D03*
D19*
%TO.P,SW18,MP*%
%TO.N,N/C*%
X88250000Y-87650000D03*
X81450000Y-87650000D03*
%TD*%
D23*
%TO.P,Driver1,1,AO1*%
%TO.N,S1_out1*%
X51000000Y-34925000D03*
%TO.P,Driver1,2,AO1*%
X51000000Y-35575000D03*
%TO.P,Driver1,3,PGND1*%
%TO.N,GND*%
X51000000Y-36225000D03*
%TO.P,Driver1,4,PGND1*%
X51000000Y-36875000D03*
%TO.P,Driver1,5,AO2*%
%TO.N,S1_out2*%
X51000000Y-37525000D03*
%TO.P,Driver1,6,AO2*%
X51000000Y-38175000D03*
%TO.P,Driver1,7,BO2*%
%TO.N,S2_out2*%
X51000000Y-38825000D03*
%TO.P,Driver1,8,BO2*%
X51000000Y-39475000D03*
%TO.P,Driver1,9,PGND2*%
%TO.N,GND*%
X51000000Y-40125000D03*
%TO.P,Driver1,10,PGND2*%
X51000000Y-40775000D03*
%TO.P,Driver1,11,BO1*%
%TO.N,S2_out1*%
X51000000Y-41425000D03*
%TO.P,Driver1,12,BO1*%
X51000000Y-42075000D03*
%TO.P,Driver1,13*%
%TO.N,N/C*%
X58000000Y-42075000D03*
%TO.P,Driver1,14*%
X58000000Y-41425000D03*
%TO.P,Driver1,15,PWMB*%
%TO.N,PWM*%
X58000000Y-40775000D03*
%TO.P,Driver1,16,BIN2*%
%TO.N,S2_in2*%
X58000000Y-40125000D03*
%TO.P,Driver1,17,BIN1*%
%TO.N,S2_in1*%
X58000000Y-39475000D03*
%TO.P,Driver1,18,GND*%
%TO.N,GND*%
X58000000Y-38825000D03*
%TO.P,Driver1,19,STBY*%
%TO.N,STBY*%
X58000000Y-38175000D03*
%TO.P,Driver1,20,VCC*%
%TO.N,5V*%
X58000000Y-37525000D03*
%TO.P,Driver1,21,AIN1*%
%TO.N,S1_in1*%
X58000000Y-36875000D03*
%TO.P,Driver1,22,AIN2*%
%TO.N,S1_in2*%
X58000000Y-36225000D03*
%TO.P,Driver1,23,PWMA*%
%TO.N,PWM*%
X58000000Y-35575000D03*
%TO.P,Driver1,24,VM1*%
%TO.N,12V*%
X58000000Y-34925000D03*
%TD*%
D15*
%TO.P,uF3,1*%
%TO.N,GND*%
X56750000Y-67450000D03*
%TO.P,uF3,2*%
%TO.N,5V*%
X56750000Y-65550000D03*
%TD*%
D18*
%TO.P,SW16,1,1*%
%TO.N,Net-(D16-A)*%
X85750000Y-67650000D03*
%TO.P,SW16,2,2*%
%TO.N,Row4*%
X83750000Y-67650000D03*
D19*
%TO.P,SW16,MP*%
%TO.N,N/C*%
X88150000Y-69900000D03*
X81350000Y-69900000D03*
%TD*%
D12*
%TO.P,uF12,1*%
%TO.N,12V*%
X91000000Y-66050000D03*
%TO.P,uF12,2*%
%TO.N,GND*%
X91000000Y-67950000D03*
%TD*%
D13*
%TO.P,Driver9,1,AO1*%
%TO.N,S17_out1*%
X97750000Y-129970100D03*
%TO.P,Driver9,2,AO1*%
X97750000Y-129320100D03*
%TO.P,Driver9,3,PGND1*%
%TO.N,GND*%
X97750000Y-128670100D03*
%TO.P,Driver9,4,PGND1*%
X97750000Y-128020100D03*
%TO.P,Driver9,5,AO2*%
%TO.N,S17_out2*%
X97750000Y-127370100D03*
%TO.P,Driver9,6,AO2*%
X97750000Y-126720100D03*
%TO.P,Driver9,7,BO2*%
%TO.N,S18_out2*%
X97750000Y-126070100D03*
%TO.P,Driver9,8,BO2*%
X97750000Y-125420100D03*
%TO.P,Driver9,9,PGND2*%
%TO.N,GND*%
X97750000Y-124770100D03*
%TO.P,Driver9,10,PGND2*%
X97750000Y-124120100D03*
%TO.P,Driver9,11,BO1*%
%TO.N,S18_out1*%
X97750000Y-123470100D03*
%TO.P,Driver9,12,BO1*%
X97750000Y-122820100D03*
%TO.P,Driver9,13*%
%TO.N,N/C*%
X90750000Y-122820100D03*
%TO.P,Driver9,14*%
X90750000Y-123470100D03*
%TO.P,Driver9,15,PWMB*%
%TO.N,PWM*%
X90750000Y-124120100D03*
%TO.P,Driver9,16,BIN2*%
%TO.N,S18_in2*%
X90750000Y-124770100D03*
%TO.P,Driver9,17,BIN1*%
%TO.N,S18_in1*%
X90750000Y-125420100D03*
%TO.P,Driver9,18,GND*%
%TO.N,GND*%
X90750000Y-126070100D03*
%TO.P,Driver9,19,STBY*%
%TO.N,STBY*%
X90750000Y-126720100D03*
%TO.P,Driver9,20,VCC*%
%TO.N,5V*%
X90750000Y-127370100D03*
%TO.P,Driver9,21,AIN1*%
%TO.N,S17_in1*%
X90750000Y-128020100D03*
%TO.P,Driver9,22,AIN2*%
%TO.N,S17_in2*%
X90750000Y-128670100D03*
%TO.P,Driver9,23,PWMA*%
%TO.N,PWM*%
X90750000Y-129320100D03*
%TO.P,Driver9,24,VM2*%
%TO.N,12V*%
X90750000Y-129970100D03*
%TD*%
D17*
%TO.P,D10,1,K*%
%TO.N,Col2*%
X71250000Y-62500000D03*
%TO.P,D10,2,A*%
%TO.N,Net-(D10-A)*%
X71250000Y-65800000D03*
%TD*%
D20*
%TO.P,Sol2,1,Pin_1*%
%TO.N,S2_out2*%
X43500000Y-47500000D03*
%TO.P,Sol2,2,Pin_2*%
%TO.N,S2_out1*%
X43500000Y-52500000D03*
%TD*%
D14*
%TO.P,D17,1,K*%
%TO.N,Col3*%
X88250000Y-83150000D03*
%TO.P,D17,2,A*%
%TO.N,Net-(D17-A)*%
X88250000Y-79850000D03*
%TD*%
D20*
%TO.P,Sol7,1,Pin_1*%
%TO.N,S7_out2*%
X43500000Y-102500000D03*
%TO.P,Sol7,2,Pin_2*%
%TO.N,S7_out1*%
X43500000Y-107500000D03*
%TD*%
D18*
%TO.P,SW2,1,1*%
%TO.N,Net-(D2-A)*%
X65893080Y-49756920D03*
%TO.P,SW2,2,2*%
%TO.N,Row2*%
X63893080Y-49756920D03*
D19*
%TO.P,SW2,MP*%
%TO.N,N/C*%
X68293080Y-52006920D03*
X61493080Y-52006920D03*
%TD*%
D15*
%TO.P,uF6,1*%
%TO.N,12V*%
X50250000Y-76700000D03*
%TO.P,uF6,2*%
%TO.N,GND*%
X50250000Y-74800000D03*
%TD*%
D10*
%TO.P,SW7,1,1*%
%TO.N,Net-(D7-A)*%
X73750000Y-42900000D03*
%TO.P,SW7,2,2*%
%TO.N,Row1*%
X75750000Y-42900000D03*
D11*
%TO.P,SW7,MP*%
%TO.N,N/C*%
X71350000Y-40650000D03*
X78150000Y-40650000D03*
%TD*%
D20*
%TO.P,Sol1,1,Pin_1*%
%TO.N,S1_out2*%
X43500000Y-37000000D03*
%TO.P,Sol1,2,Pin_2*%
%TO.N,S1_out1*%
X43500000Y-42000000D03*
%TD*%
D17*
%TO.P,D2,1,K*%
%TO.N,Col1*%
X61250000Y-45000000D03*
%TO.P,D2,2,A*%
%TO.N,Net-(D2-A)*%
X61250000Y-48300000D03*
%TD*%
D10*
%TO.P,SW1,1,1*%
%TO.N,Net-(D1-A)*%
X63793080Y-43006920D03*
%TO.P,SW1,2,2*%
%TO.N,Row1*%
X65793080Y-43006920D03*
D11*
%TO.P,SW1,MP*%
%TO.N,N/C*%
X61393080Y-40756920D03*
X68193080Y-40756920D03*
%TD*%
D26*
%TO.P,IO_5,1,QB*%
%TO.N,S17_in2*%
X97112500Y-120090100D03*
%TO.P,IO_5,2,QC*%
%TO.N,S18_in1*%
X97112500Y-118820100D03*
%TO.P,IO_5,3,QD*%
%TO.N,S18_in2*%
X97112500Y-117550100D03*
%TO.P,IO_5,4,QE*%
%TO.N,unconnected-(IO_5-QE-Pad4)*%
X97112500Y-116280100D03*
%TO.P,IO_5,5,QF*%
%TO.N,unconnected-(IO_5-QF-Pad5)*%
X97112500Y-115010100D03*
%TO.P,IO_5,6,QG*%
%TO.N,unconnected-(IO_5-QG-Pad6)*%
X97112500Y-113740100D03*
%TO.P,IO_5,7,QH*%
%TO.N,unconnected-(IO_5-QH-Pad7)*%
X97112500Y-112470100D03*
%TO.P,IO_5,8,GND*%
%TO.N,GND*%
X97112500Y-111200100D03*
%TO.P,IO_5,9,QH'*%
%TO.N,unconnected-(IO_5-QH'-Pad9)*%
X91387500Y-111200100D03*
%TO.P,IO_5,10,~{SRCLR}*%
%TO.N,5V*%
X91387500Y-112470100D03*
%TO.P,IO_5,11,SRCLK*%
%TO.N,CLOCK*%
X91387500Y-113740100D03*
%TO.P,IO_5,12,RCLK*%
%TO.N,LATCH*%
X91387500Y-115010100D03*
%TO.P,IO_5,13,~{OE}*%
%TO.N,GND*%
X91387500Y-116280100D03*
%TO.P,IO_5,14,SER*%
%TO.N,Overflow4*%
X91387500Y-117550100D03*
%TO.P,IO_5,15,QA*%
%TO.N,S17_in1*%
X91387500Y-118820100D03*
%TO.P,IO_5,16,VCC*%
%TO.N,5V*%
X91387500Y-120090100D03*
%TD*%
D15*
%TO.P,uF15,1*%
%TO.N,5V*%
X88250000Y-105950000D03*
%TO.P,uF15,2*%
%TO.N,GND*%
X88250000Y-104050000D03*
%TD*%
D26*
%TO.P,IO_4,1,QB*%
%TO.N,S13_in2*%
X97812501Y-98090100D03*
%TO.P,IO_4,2,QC*%
%TO.N,S14_in1*%
X97812501Y-96820100D03*
%TO.P,IO_4,3,QD*%
%TO.N,S14_in2*%
X97812501Y-95550100D03*
%TO.P,IO_4,4,QE*%
%TO.N,S15_in1*%
X97812501Y-94280100D03*
%TO.P,IO_4,5,QF*%
%TO.N,S15_in2*%
X97812501Y-93010100D03*
%TO.P,IO_4,6,QG*%
%TO.N,S16_in1*%
X97812501Y-91740100D03*
%TO.P,IO_4,7,QH*%
%TO.N,S16_in2*%
X97812501Y-90470100D03*
%TO.P,IO_4,8,GND*%
%TO.N,GND*%
X97812501Y-89200100D03*
%TO.P,IO_4,9,QH'*%
%TO.N,Overflow4*%
X92087501Y-89200100D03*
%TO.P,IO_4,10,~{SRCLR}*%
%TO.N,5V*%
X92087501Y-90470100D03*
%TO.P,IO_4,11,SRCLK*%
%TO.N,CLOCK*%
X92087501Y-91740100D03*
%TO.P,IO_4,12,RCLK*%
%TO.N,LATCH*%
X92087501Y-93010100D03*
%TO.P,IO_4,13,~{OE}*%
%TO.N,GND*%
X92087501Y-94280100D03*
%TO.P,IO_4,14,SER*%
%TO.N,Overflow3*%
X92087501Y-95550100D03*
%TO.P,IO_4,15,QA*%
%TO.N,S13_in1*%
X92087501Y-96820100D03*
%TO.P,IO_4,16,VCC*%
%TO.N,5V*%
X92087501Y-98090100D03*
%TD*%
D27*
%TO.P,I2C,1,Pin_1*%
%TO.N,SDA*%
X56500000Y-121500000D03*
%TO.P,I2C,2,Pin_2*%
%TO.N,SCL*%
X56500000Y-119500000D03*
D28*
%TO.P,I2C,MP*%
%TO.N,N/C*%
X54250000Y-123900000D03*
X54250000Y-117100000D03*
%TD*%
D17*
%TO.P,D16,1,K*%
%TO.N,Col3*%
X81250000Y-62500000D03*
%TO.P,D16,2,A*%
%TO.N,Net-(D16-A)*%
X81250000Y-65800000D03*
%TD*%
D20*
%TO.P,Sol12,1,Pin_1*%
%TO.N,S12_out1*%
X105250000Y-75250000D03*
%TO.P,Sol12,2,Pin_2*%
%TO.N,S12_out2*%
X105250000Y-70250000D03*
%TD*%
D15*
%TO.P,uF14,1*%
%TO.N,12V*%
X98250000Y-77000000D03*
%TO.P,uF14,2*%
%TO.N,GND*%
X98250000Y-75100000D03*
%TD*%
D21*
%TO.P,100uf25V1,1*%
%TO.N,12V*%
X61650000Y-96750000D03*
%TO.P,100uf25V1,2*%
%TO.N,GND*%
X70050000Y-96750000D03*
%TD*%
D10*
%TO.P,SW13,1,1*%
%TO.N,Net-(D13-A)*%
X83650000Y-42650000D03*
%TO.P,SW13,2,2*%
%TO.N,Row1*%
X85650000Y-42650000D03*
D11*
%TO.P,SW13,MP*%
%TO.N,N/C*%
X81250000Y-40400000D03*
X88050000Y-40400000D03*
%TD*%
D17*
%TO.P,D8,1,K*%
%TO.N,Col2*%
X71250000Y-44850000D03*
%TO.P,D8,2,A*%
%TO.N,Net-(D8-A)*%
X71250000Y-48150000D03*
%TD*%
D15*
%TO.P,uF17,1*%
%TO.N,5V*%
X87750000Y-125250000D03*
%TO.P,uF17,2*%
%TO.N,GND*%
X87750000Y-123350000D03*
%TD*%
D14*
%TO.P,D15,1,K*%
%TO.N,Col3*%
X88250000Y-65800000D03*
%TO.P,D15,2,A*%
%TO.N,Net-(D15-A)*%
X88250000Y-62500000D03*
%TD*%
D20*
%TO.P,Sol3,1,Pin_1*%
%TO.N,S3_out2*%
X43500000Y-58500000D03*
%TO.P,Sol3,2,Pin_2*%
%TO.N,S3_out1*%
X43500000Y-63500000D03*
%TD*%
D15*
%TO.P,uF13,1*%
%TO.N,5V*%
X90750000Y-77200000D03*
%TO.P,uF13,2*%
%TO.N,GND*%
X90750000Y-75300000D03*
%TD*%
D23*
%TO.P,Driver3,1,AO1*%
%TO.N,S5_out1*%
X50500000Y-78425000D03*
%TO.P,Driver3,2,AO1*%
X50500000Y-79075000D03*
%TO.P,Driver3,3,PGND1*%
%TO.N,GND*%
X50500000Y-79725000D03*
%TO.P,Driver3,4,PGND1*%
X50500000Y-80375000D03*
%TO.P,Driver3,5,AO2*%
%TO.N,S5_out2*%
X50500000Y-81025000D03*
%TO.P,Driver3,6,AO2*%
X50500000Y-81675000D03*
%TO.P,Driver3,7,BO2*%
%TO.N,S6_out2*%
X50500000Y-82325000D03*
%TO.P,Driver3,8,BO2*%
X50500000Y-82975000D03*
%TO.P,Driver3,9,PGND2*%
%TO.N,GND*%
X50500000Y-83625000D03*
%TO.P,Driver3,10,PGND2*%
X50500000Y-84275000D03*
%TO.P,Driver3,11,BO1*%
%TO.N,S6_out1*%
X50500000Y-84925000D03*
%TO.P,Driver3,12,BO1*%
X50500000Y-85575000D03*
%TO.P,Driver3,13*%
%TO.N,N/C*%
X57500000Y-85575000D03*
%TO.P,Driver3,14*%
X57500000Y-84925000D03*
%TO.P,Driver3,15,PWMB*%
%TO.N,PWM*%
X57500000Y-84275000D03*
%TO.P,Driver3,16,BIN2*%
%TO.N,S6_in2*%
X57500000Y-83625000D03*
%TO.P,Driver3,17,BIN1*%
%TO.N,S6_in1*%
X57500000Y-82975000D03*
%TO.P,Driver3,18,GND*%
%TO.N,GND*%
X57500000Y-82325000D03*
%TO.P,Driver3,19,STBY*%
%TO.N,STBY*%
X57500000Y-81675000D03*
%TO.P,Driver3,20,VCC*%
%TO.N,5V*%
X57500000Y-81025000D03*
%TO.P,Driver3,21,AIN1*%
%TO.N,S5_in1*%
X57500000Y-80375000D03*
%TO.P,Driver3,22,AIN2*%
%TO.N,S5_in2*%
X57500000Y-79725000D03*
%TO.P,Driver3,23,PWMA*%
%TO.N,PWM*%
X57500000Y-79075000D03*
%TO.P,Driver3,24,VM1*%
%TO.N,12V*%
X57500000Y-78425000D03*
%TD*%
D29*
%TO.P,A1,1,D1/TX*%
%TO.N,Col2*%
X79550000Y-127250000D03*
D30*
%TO.P,A1,2,D0/RX*%
%TO.N,Col1*%
X77010000Y-127250000D03*
%TO.P,A1,3,~{RESET}*%
%TO.N,unconnected-(A1-~{RESET}-Pad3)*%
X74470000Y-127250000D03*
%TO.P,A1,4,GND*%
%TO.N,GND*%
X71930000Y-127250000D03*
%TO.P,A1,5,D2*%
%TO.N,Col3*%
X69390000Y-127250000D03*
%TO.P,A1,6,D3*%
%TO.N,Row1*%
X66850000Y-127250000D03*
%TO.P,A1,7,D4*%
%TO.N,Row2*%
X64310000Y-127250000D03*
%TO.P,A1,8,D5*%
%TO.N,Row3*%
X61770000Y-127250000D03*
%TO.P,A1,9,D6*%
%TO.N,Row4*%
X59230000Y-127250000D03*
%TO.P,A1,10,D7*%
%TO.N,Row5*%
X56690000Y-127250000D03*
%TO.P,A1,11,D8*%
%TO.N,Row6*%
X54150000Y-127250000D03*
%TO.P,A1,12,D9*%
%TO.N,PWM*%
X51610000Y-127250000D03*
%TO.P,A1,13,D10*%
%TO.N,LATCH*%
X49070000Y-127250000D03*
%TO.P,A1,14,D11*%
%TO.N,DATA*%
X46530000Y-127250000D03*
%TO.P,A1,15,D12*%
%TO.N,STBY*%
X43990000Y-127250000D03*
%TO.P,A1,16,D13*%
%TO.N,CLOCK*%
X43990000Y-142490000D03*
%TO.P,A1,17,3V3*%
%TO.N,unconnected-(A1-3V3-Pad17)*%
X46530000Y-142490000D03*
%TO.P,A1,18,AREF*%
%TO.N,unconnected-(A1-AREF-Pad18)*%
X49070000Y-142490000D03*
%TO.P,A1,19,A0*%
%TO.N,unconnected-(A1-A0-Pad19)*%
X51610000Y-142490000D03*
%TO.P,A1,20,A1*%
%TO.N,unconnected-(A1-A1-Pad20)*%
X54150000Y-142490000D03*
%TO.P,A1,21,A2*%
%TO.N,unconnected-(A1-A2-Pad21)*%
X56690000Y-142490000D03*
%TO.P,A1,22,A3*%
%TO.N,unconnected-(A1-A3-Pad22)*%
X59230000Y-142490000D03*
%TO.P,A1,23,A4*%
%TO.N,SDA*%
X61770000Y-142490000D03*
%TO.P,A1,24,A5*%
%TO.N,SCL*%
X64310000Y-142490000D03*
%TO.P,A1,25,A6*%
%TO.N,unconnected-(A1-A6-Pad25)*%
X66850000Y-142490000D03*
%TO.P,A1,26,A7*%
%TO.N,unconnected-(A1-A7-Pad26)*%
X69390000Y-142490000D03*
%TO.P,A1,27,+5V*%
%TO.N,5V*%
X71930000Y-142490000D03*
%TO.P,A1,28,~{RESET}*%
%TO.N,unconnected-(A1-~{RESET}-Pad28)*%
X74470000Y-142490000D03*
%TO.P,A1,29,GND*%
%TO.N,GND*%
X77010000Y-142490000D03*
%TO.P,A1,30,VIN*%
%TO.N,unconnected-(A1-VIN-Pad30)*%
X79550000Y-142490000D03*
%TD*%
D14*
%TO.P,D5,1,K*%
%TO.N,Col1*%
X68250000Y-83300000D03*
%TO.P,D5,2,A*%
%TO.N,Net-(D5-A)*%
X68250000Y-80000000D03*
%TD*%
%TO.P,D11,1,K*%
%TO.N,Col2*%
X78250000Y-83150000D03*
%TO.P,D11,2,A*%
%TO.N,Net-(D11-A)*%
X78250000Y-79850000D03*
%TD*%
D10*
%TO.P,SW11,1,1*%
%TO.N,Net-(D11-A)*%
X73850000Y-78400000D03*
%TO.P,SW11,2,2*%
%TO.N,Row5*%
X75850000Y-78400000D03*
D11*
%TO.P,SW11,MP*%
%TO.N,N/C*%
X71450000Y-76150000D03*
X78250000Y-76150000D03*
%TD*%
D20*
%TO.P,Sol11,1,Pin_1*%
%TO.N,S11_out1*%
X105250000Y-64250000D03*
%TO.P,Sol11,2,Pin_2*%
%TO.N,S11_out2*%
X105250000Y-59250000D03*
%TD*%
%TO.P,Sol6,1,Pin_1*%
%TO.N,S6_out2*%
X43500000Y-91500000D03*
%TO.P,Sol6,2,Pin_2*%
%TO.N,S6_out1*%
X43500000Y-96500000D03*
%TD*%
D17*
%TO.P,D6,1,K*%
%TO.N,Col1*%
X61250000Y-80000000D03*
%TO.P,D6,2,A*%
%TO.N,Net-(D6-A)*%
X61250000Y-83300000D03*
%TD*%
D20*
%TO.P,Sol16,1,Pin_1*%
%TO.N,S16_out1*%
X104950001Y-119250000D03*
%TO.P,Sol16,2,Pin_2*%
%TO.N,S16_out2*%
X104950001Y-114250000D03*
%TD*%
D16*
%TO.P,1000uf25V3,1*%
%TO.N,12V*%
X83450000Y-108250000D03*
%TO.P,1000uf25V3,2*%
%TO.N,GND*%
X75050000Y-108250000D03*
%TD*%
D22*
%TO.P,IO_2,1,QB*%
%TO.N,S5_in2*%
X51137500Y-89055000D03*
%TO.P,IO_2,2,QC*%
%TO.N,S6_in1*%
X51137500Y-90325000D03*
%TO.P,IO_2,3,QD*%
%TO.N,S6_in2*%
X51137500Y-91595000D03*
%TO.P,IO_2,4,QE*%
%TO.N,S7_in1*%
X51137500Y-92865000D03*
%TO.P,IO_2,5,QF*%
%TO.N,S7_in2*%
X51137500Y-94135000D03*
%TO.P,IO_2,6,QG*%
%TO.N,S8_in1*%
X51137500Y-95405000D03*
%TO.P,IO_2,7,QH*%
%TO.N,S8_in2*%
X51137500Y-96675000D03*
%TO.P,IO_2,8,GND*%
%TO.N,GND*%
X51137500Y-97945000D03*
%TO.P,IO_2,9,QH'*%
%TO.N,Overflow2*%
X56862500Y-97945000D03*
%TO.P,IO_2,10,~{SRCLR}*%
%TO.N,5V*%
X56862500Y-96675000D03*
%TO.P,IO_2,11,SRCLK*%
%TO.N,CLOCK*%
X56862500Y-95405000D03*
%TO.P,IO_2,12,RCLK*%
%TO.N,LATCH*%
X56862500Y-94135000D03*
%TO.P,IO_2,13,~{OE}*%
%TO.N,GND*%
X56862500Y-92865000D03*
%TO.P,IO_2,14,SER*%
%TO.N,Overflow1*%
X56862500Y-91595000D03*
%TO.P,IO_2,15,QA*%
%TO.N,S5_in1*%
X56862500Y-90325000D03*
%TO.P,IO_2,16,VCC*%
%TO.N,5V*%
X56862500Y-89055000D03*
%TD*%
D26*
%TO.P,IO_3,1,QB*%
%TO.N,S9_in2*%
X97750000Y-54415100D03*
%TO.P,IO_3,2,QC*%
%TO.N,S10_in1*%
X97750000Y-53145100D03*
%TO.P,IO_3,3,QD*%
%TO.N,S10_in2*%
X97750000Y-51875100D03*
%TO.P,IO_3,4,QE*%
%TO.N,S11_in1*%
X97750000Y-50605100D03*
%TO.P,IO_3,5,QF*%
%TO.N,S11_in2*%
X97750000Y-49335100D03*
%TO.P,IO_3,6,QG*%
%TO.N,S12_in1*%
X97750000Y-48065100D03*
%TO.P,IO_3,7,QH*%
%TO.N,S12_in2*%
X97750000Y-46795100D03*
%TO.P,IO_3,8,GND*%
%TO.N,GND*%
X97750000Y-45525100D03*
%TO.P,IO_3,9,QH'*%
%TO.N,Overflow3*%
X92025000Y-45525100D03*
%TO.P,IO_3,10,~{SRCLR}*%
%TO.N,5V*%
X92025000Y-46795100D03*
%TO.P,IO_3,11,SRCLK*%
%TO.N,CLOCK*%
X92025000Y-48065100D03*
%TO.P,IO_3,12,RCLK*%
%TO.N,LATCH*%
X92025000Y-49335100D03*
%TO.P,IO_3,13,~{OE}*%
%TO.N,GND*%
X92025000Y-50605100D03*
%TO.P,IO_3,14,SER*%
%TO.N,Overflow2*%
X92025000Y-51875100D03*
%TO.P,IO_3,15,QA*%
%TO.N,S9_in1*%
X92025000Y-53145100D03*
%TO.P,IO_3,16,VCC*%
%TO.N,5V*%
X92025000Y-54415100D03*
%TD*%
D20*
%TO.P,Sol4,1,Pin_1*%
%TO.N,S4_out2*%
X43500000Y-69500000D03*
%TO.P,Sol4,2,Pin_2*%
%TO.N,S4_out1*%
X43500000Y-74500000D03*
%TD*%
%TO.P,Sol10,1,Pin_1*%
%TO.N,S10_out2*%
X105250000Y-53145100D03*
%TO.P,Sol10,2,Pin_2*%
%TO.N,S10_out1*%
X105250000Y-48145100D03*
%TD*%
D17*
%TO.P,D12,1,K*%
%TO.N,Col2*%
X71250000Y-80150000D03*
%TO.P,D12,2,A*%
%TO.N,Net-(D12-A)*%
X71250000Y-83450000D03*
%TD*%
%TO.P,D4,1,K*%
%TO.N,Col1*%
X61293080Y-62500000D03*
%TO.P,D4,2,A*%
%TO.N,Net-(D4-A)*%
X61293080Y-65800000D03*
%TD*%
D31*
%TO.N,GND*%
X88500000Y-35250000D03*
X92179900Y-82320100D03*
X92104900Y-60395100D03*
X92250000Y-38500000D03*
%TO.N,5V*%
X89250000Y-127250000D03*
X69000000Y-119000000D03*
X55750000Y-89250000D03*
X92500000Y-86250000D03*
X92500000Y-61500000D03*
X56000000Y-44000000D03*
X87500000Y-54750000D03*
X85500000Y-130250000D03*
X56000000Y-103000000D03*
X92500000Y-84000000D03*
X89250000Y-38750000D03*
X87750000Y-126000000D03*
X54250000Y-59250000D03*
X55500000Y-110000000D03*
X56750000Y-37500000D03*
X89000000Y-56000000D03*
X55000000Y-62000000D03*
X93250000Y-78250000D03*
X96500000Y-65750000D03*
X55000000Y-53000000D03*
X83125000Y-126875000D03*
X55750000Y-96750000D03*
X75250000Y-122000000D03*
X90500000Y-44750000D03*
D32*
%TO.N,GND*%
X55972899Y-104825000D03*
X97250000Y-110250000D03*
X96500000Y-40500000D03*
X72750000Y-94750000D03*
X88250000Y-101250000D03*
X51875000Y-106125000D03*
X89750000Y-96500000D03*
X75050000Y-94550000D03*
X90000000Y-139500000D03*
X89000000Y-136000000D03*
X75000000Y-110250000D03*
X96500000Y-62500000D03*
X70000000Y-99000000D03*
X54750000Y-82000000D03*
X96250000Y-128250000D03*
X75000000Y-106250000D03*
X75050000Y-98950000D03*
X96000000Y-102500000D03*
X72750000Y-98750000D03*
X96250000Y-124500000D03*
X70250000Y-106250000D03*
X56500000Y-113000000D03*
X96000000Y-106500000D03*
X96750000Y-84500000D03*
X86750000Y-37750000D03*
X94500000Y-67950000D03*
X52000000Y-65500000D03*
X52000000Y-79250000D03*
X86799999Y-137799999D03*
X51750000Y-83750000D03*
X96250000Y-58750000D03*
X96500000Y-80750000D03*
X72750000Y-106750000D03*
X57000000Y-68500000D03*
X52000000Y-102500000D03*
X52500000Y-58250000D03*
X90000000Y-116250000D03*
X49250000Y-39000000D03*
X94500000Y-75300000D03*
X57250000Y-73500000D03*
X89750000Y-98500000D03*
X50250000Y-73500000D03*
X70000000Y-94500000D03*
X55750000Y-92500000D03*
X96250000Y-36750000D03*
X52250000Y-61750000D03*
X70000000Y-110250000D03*
X72750000Y-110000000D03*
X90750000Y-50750000D03*
X53000000Y-36500000D03*
X51250000Y-98750000D03*
X89000000Y-126250000D03*
X56250000Y-60250000D03*
X54000000Y-110750000D03*
X57750000Y-48500000D03*
%TO.N,12V*%
X109250000Y-87750000D03*
X91500000Y-86750000D03*
X90500000Y-108750000D03*
X56750000Y-34831200D03*
X56250000Y-78000000D03*
X40000000Y-76000000D03*
X60500000Y-94750000D03*
X85250000Y-94950000D03*
X82000000Y-98750000D03*
X81500000Y-106500000D03*
X40000000Y-54250000D03*
X60500000Y-106500000D03*
X103500000Y-38250000D03*
X56500000Y-55358000D03*
X100250000Y-77000000D03*
X81500000Y-95000000D03*
X101750000Y-112250000D03*
X92500000Y-138750000D03*
X40000000Y-108750000D03*
X92500000Y-66250000D03*
X89500000Y-108750000D03*
X102250000Y-90500000D03*
X108500000Y-121000000D03*
X106750000Y-128000000D03*
X84750000Y-110250000D03*
X83000000Y-94500000D03*
X48250000Y-47000000D03*
X89750000Y-43000000D03*
X103500000Y-58500000D03*
X107500000Y-66750000D03*
X63000000Y-110250000D03*
X40000000Y-56500000D03*
X103500000Y-80500000D03*
X62750000Y-98750000D03*
X47250000Y-89500000D03*
X85250000Y-98750000D03*
X103000000Y-102500000D03*
X47250000Y-78500000D03*
X95500000Y-139000000D03*
X47000000Y-56500000D03*
X47750000Y-67750000D03*
X42250000Y-104750000D03*
X83450000Y-106050000D03*
X102000000Y-68500000D03*
X106500000Y-105500000D03*
X38000000Y-117750000D03*
X60500000Y-99500000D03*
X89750000Y-130500000D03*
X105500000Y-51500000D03*
X108250000Y-143000000D03*
X60500000Y-110250000D03*
X62750000Y-106250000D03*
X85000000Y-106250000D03*
X62250000Y-94500000D03*
X40000000Y-98000000D03*
X105500000Y-50000000D03*
X40000000Y-87000000D03*
X90500000Y-87000000D03*
X103250000Y-124750000D03*
X49000000Y-34831200D03*
X102500000Y-134750000D03*
X109750000Y-35250000D03*
X81500000Y-110250000D03*
X107250000Y-38500000D03*
X48500000Y-111750000D03*
X83500000Y-110250000D03*
X108750000Y-98750000D03*
X83450000Y-98700000D03*
X108750000Y-76750000D03*
D31*
%TO.N,Row3*%
X66750000Y-63500000D03*
X63000000Y-115250000D03*
X65750000Y-114750000D03*
%TO.N,LATCH*%
X87500000Y-107750000D03*
X53500000Y-130250000D03*
X59250000Y-46500000D03*
X90500000Y-49500000D03*
X89000000Y-114250000D03*
X90875000Y-93375000D03*
X54750000Y-94000000D03*
X93500000Y-50750000D03*
%TO.N,DATA*%
X59000000Y-47750000D03*
%TO.N,Row4*%
X63000000Y-71000000D03*
%TO.N,PWM*%
X56000000Y-85250000D03*
X88750000Y-94750000D03*
X92500000Y-67000000D03*
X56000000Y-79250000D03*
X89000000Y-100250000D03*
X92000000Y-124000000D03*
X54000000Y-107500000D03*
X93250000Y-76750000D03*
X56665877Y-56871453D03*
X59750000Y-41750000D03*
X56500000Y-62000000D03*
X90750000Y-43750000D03*
X52750000Y-132000000D03*
X89000000Y-102750000D03*
X86000000Y-37250000D03*
X92000000Y-129250000D03*
X89000000Y-107000000D03*
%TO.N,STBY*%
X56750000Y-38250000D03*
X93250000Y-100500000D03*
X93500000Y-126000000D03*
X56250000Y-40750000D03*
X63000000Y-39250000D03*
X93000000Y-60750000D03*
X92750000Y-82750000D03*
X56250000Y-81750000D03*
X92000000Y-104500000D03*
X56250000Y-104000000D03*
X55500000Y-59500000D03*
X92579443Y-39329443D03*
X93500000Y-84000000D03*
%TO.N,Row2*%
X64000000Y-53500000D03*
%TO.N,Row1*%
X69750000Y-45750000D03*
%TO.N,Col1*%
X77000000Y-125250000D03*
X70250000Y-123500000D03*
%TO.N,Col3*%
X80750000Y-49000000D03*
X82000000Y-61500000D03*
%TO.N,Col2*%
X72250000Y-61750000D03*
X69750000Y-71000000D03*
X75250000Y-81500000D03*
X72750000Y-80750000D03*
X69750000Y-72500000D03*
X79250000Y-48750000D03*
X79250000Y-84250000D03*
%TO.N,CLOCK*%
X86250000Y-92500000D03*
X50750000Y-114250000D03*
X89750000Y-50000000D03*
X53750000Y-94000000D03*
X43250000Y-139750000D03*
X86250000Y-113000000D03*
X85750000Y-118750000D03*
X55250000Y-50250000D03*
X53750000Y-48750000D03*
%TO.N,Net-(D3-A)*%
X67599500Y-61150500D03*
X66750000Y-60000000D03*
%TO.N,Net-(D10-A)*%
X72750000Y-66000000D03*
X75000000Y-66500000D03*
%TO.N,Net-(D16-A)*%
X84750000Y-67750000D03*
X82500000Y-67750000D03*
%TO.N,S1_out2*%
X52500000Y-38000000D03*
%TO.N,S2_out2*%
X52719128Y-40219128D03*
%TO.N,S1_in1*%
X56500000Y-37000000D03*
X55250000Y-46000000D03*
%TO.N,S1_out1*%
X52500000Y-35000000D03*
%TO.N,S3_out2*%
X52250000Y-59250000D03*
%TO.N,S3_out1*%
X52500000Y-56500000D03*
%TO.N,S4_out1*%
X50500000Y-64750000D03*
%TO.N,S5_out1*%
X48750000Y-78750000D03*
%TO.N,S5_out2*%
X52250000Y-81250000D03*
%TO.N,S6_out1*%
X50250000Y-86750000D03*
%TO.N,S5_in1*%
X55250000Y-86750000D03*
X55250000Y-83000000D03*
%TO.N,S7_out2*%
X48500000Y-104000000D03*
%TO.N,S7_in1*%
X52500000Y-93500000D03*
X52500000Y-94750000D03*
%TO.N,S8_out2*%
X48750000Y-105500000D03*
%TO.N,S9_out1*%
X96250000Y-42000000D03*
%TO.N,S10_out2*%
X108500000Y-46000000D03*
%TO.N,S10_in1*%
X96500000Y-52750000D03*
X93750000Y-39250000D03*
%TO.N,S9_in1*%
X93000000Y-41250000D03*
X93500000Y-53250000D03*
%TO.N,S12_in2*%
X94500000Y-59250000D03*
X99000000Y-47000000D03*
%TO.N,S12_out2*%
X101250000Y-57500000D03*
%TO.N,S12_in1*%
X95000000Y-50250000D03*
X94000000Y-59750000D03*
X95000000Y-52000000D03*
X96500000Y-48250000D03*
%TO.N,S14_out2*%
X100250000Y-81500000D03*
%TO.N,S13_in1*%
X93500000Y-96750000D03*
X94250000Y-86500000D03*
%TO.N,S16_in2*%
X92000000Y-102750000D03*
X96000000Y-91500000D03*
%TO.N,S16_out2*%
X99500000Y-103500000D03*
%TO.N,S16_in1*%
X92000000Y-103500000D03*
X96250000Y-94000000D03*
%TO.N,S17_in1*%
X89250000Y-128000000D03*
X85750000Y-127500000D03*
%TO.N,S18_out2*%
X99750000Y-125500000D03*
%TO.N,Overflow1*%
X57750000Y-53500000D03*
X58250000Y-70500000D03*
%TO.N,Row6*%
X62000000Y-85250000D03*
X58250000Y-116500000D03*
X61250000Y-115250000D03*
%TO.N,Overflow2*%
X90000000Y-52250000D03*
X61750000Y-93500000D03*
%TO.N,Overflow3*%
X92025000Y-44775000D03*
X90500000Y-95500000D03*
%TO.N,Row5*%
X62750000Y-74000000D03*
X64750000Y-74250000D03*
X64750000Y-76500000D03*
X59750000Y-123500000D03*
X58250000Y-123750000D03*
%TO.N,Overflow4*%
X90250000Y-90250000D03*
X90000000Y-117500000D03*
D32*
%TO.N,GND*%
X56750000Y-38983500D03*
%TD*%
D33*
%TO.N,S5_in1*%
X57500000Y-80375000D02*
X55125000Y-80375000D01*
X55125000Y-80375000D02*
X53750000Y-81750000D01*
X53750000Y-81750000D02*
X53750000Y-82750000D01*
X53750000Y-82750000D02*
X54000000Y-83000000D01*
X54000000Y-83000000D02*
X55250000Y-83000000D01*
D34*
%TO.N,GND*%
X54750000Y-82000000D02*
X55250000Y-82000000D01*
X55250000Y-82000000D02*
X55575000Y-82325000D01*
X55575000Y-82325000D02*
X57500000Y-82325000D01*
D33*
%TO.N,STBY*%
X56250000Y-104000000D02*
X56425000Y-104175000D01*
X56425000Y-104175000D02*
X57500000Y-104175000D01*
D34*
%TO.N,GND*%
X55972899Y-104825000D02*
X57500000Y-104825000D01*
D33*
X89750000Y-98500000D02*
X89350000Y-98500000D01*
X89300000Y-98450000D02*
X88250000Y-98450000D01*
X89350000Y-98500000D02*
X89300000Y-98450000D01*
%TO.N,S2_in1*%
X55322000Y-39797000D02*
X55000000Y-39475000D01*
X55000000Y-39475000D02*
X54426000Y-39475000D01*
X51500000Y-45500000D02*
X51212500Y-45500000D01*
X56703000Y-39797000D02*
X55322000Y-39797000D01*
X57025000Y-39475000D02*
X56703000Y-39797000D01*
X53901000Y-40000000D02*
X53901000Y-41166100D01*
X52901000Y-42166100D02*
X52901000Y-42666100D01*
X54426000Y-39475000D02*
X53901000Y-40000000D01*
X58000000Y-39475000D02*
X57025000Y-39475000D01*
X53901000Y-41166100D02*
X52901000Y-42166100D01*
X52038500Y-43528600D02*
X52038500Y-44961500D01*
X52901000Y-42666100D02*
X52038500Y-43528600D01*
X52038500Y-44961500D02*
X51500000Y-45500000D01*
X51212500Y-45500000D02*
X50637500Y-46075000D01*
%TO.N,GND*%
X92179900Y-82320100D02*
X90950001Y-82320100D01*
%TO.N,STBY*%
X92579443Y-39329443D02*
X92220100Y-38970100D01*
X92220100Y-38970100D02*
X90950001Y-38970100D01*
%TO.N,S10_in1*%
X93750000Y-39250000D02*
X92750000Y-38250000D01*
X92750000Y-38250000D02*
X92750000Y-38000000D01*
X92420100Y-37670100D02*
X90950001Y-37670100D01*
X92750000Y-38000000D02*
X92420100Y-37670100D01*
D35*
%TO.N,GND*%
X94500000Y-67950000D02*
X98000000Y-67950000D01*
D33*
%TO.N,STBY*%
X92750000Y-60750000D02*
X92454900Y-61045100D01*
X93000000Y-60750000D02*
X92750000Y-60750000D01*
X92454900Y-61045100D02*
X90950001Y-61045100D01*
%TO.N,Col3*%
X69390000Y-127250000D02*
X69390000Y-125360000D01*
X87149000Y-88101000D02*
X87149000Y-84251000D01*
X78500000Y-113250000D02*
X79250000Y-112500000D01*
X72250000Y-116250000D02*
X72750000Y-115750000D01*
X79250000Y-112500000D02*
X79250000Y-96000000D01*
X72250000Y-122500000D02*
X72250000Y-116250000D01*
X72750000Y-114750000D02*
X74250000Y-113250000D01*
X72750000Y-115750000D02*
X72750000Y-114750000D01*
X74250000Y-113250000D02*
X78500000Y-113250000D01*
X79250000Y-96000000D02*
X87149000Y-88101000D01*
X69390000Y-125360000D02*
X72250000Y-122500000D01*
X87149000Y-84251000D02*
X88250000Y-83150000D01*
D36*
%TO.N,5V*%
X58806600Y-80668399D02*
X58806600Y-77556600D01*
X54750000Y-58750000D02*
X55750000Y-58750000D01*
X94750000Y-115095101D02*
X92124999Y-112470100D01*
X58806600Y-77556600D02*
X58500000Y-77250000D01*
X92025000Y-46795100D02*
X91204900Y-46795100D01*
X55750000Y-62000000D02*
X56494200Y-62744200D01*
X89470050Y-56470050D02*
X89970050Y-56470050D01*
X55950000Y-58950000D02*
X57750000Y-58950000D01*
X88250000Y-49750000D02*
X88000000Y-50000000D01*
X56525000Y-103525000D02*
X56000000Y-103000000D01*
X99064000Y-75936000D02*
X96814000Y-75936000D01*
X56862500Y-89055000D02*
X58755800Y-87161700D01*
X92087501Y-98090100D02*
X93909900Y-98090100D01*
X58750000Y-73000000D02*
X57500000Y-71750000D01*
X92025000Y-54415100D02*
X89970050Y-56470050D01*
X90000002Y-61695100D02*
X90950001Y-61695100D01*
X91497401Y-97500000D02*
X87500000Y-97500000D01*
X83125000Y-126875000D02*
X80250000Y-124000000D01*
X87500000Y-50000000D02*
X87000000Y-50500000D01*
X56362500Y-44362500D02*
X56000000Y-44000000D01*
X80250000Y-124000000D02*
X77250000Y-124000000D01*
X57800000Y-65550000D02*
X56750000Y-65550000D01*
X92087501Y-90470100D02*
X92221781Y-90470100D01*
X87500000Y-97500000D02*
X86500000Y-98500000D01*
X91357600Y-112500000D02*
X91387500Y-112470100D01*
X53000000Y-109000000D02*
X55000000Y-109000000D01*
X52500000Y-115750000D02*
X51750000Y-115000000D01*
X92087501Y-98090100D02*
X91497401Y-97500000D01*
X57500000Y-103525000D02*
X56525000Y-103525000D01*
X87750000Y-125250000D02*
X86500000Y-126500000D01*
X55000000Y-109000000D02*
X55800000Y-109800000D01*
X55820624Y-44805000D02*
X53250000Y-47375624D01*
X86500000Y-128500000D02*
X85500000Y-129500000D01*
X85500000Y-129500000D02*
X85500000Y-130250000D01*
X55750000Y-58750000D02*
X55950000Y-58950000D01*
X56862500Y-96675000D02*
X55825000Y-96675000D01*
X85750000Y-124500000D02*
X86500000Y-125250000D01*
X92120100Y-83620100D02*
X90950001Y-83620100D01*
X99050000Y-66050000D02*
X100000000Y-67000000D01*
X90950001Y-39620100D02*
X90000002Y-39620100D01*
X50750000Y-113250000D02*
X48500000Y-113250000D01*
X93000000Y-78250000D02*
X91950000Y-77200000D01*
X96800000Y-66050000D02*
X96500000Y-65750000D01*
X47500000Y-112250000D02*
X47500000Y-111000000D01*
X89750000Y-112500000D02*
X91357600Y-112500000D01*
X92221781Y-90470100D02*
X93130801Y-89561080D01*
X57250000Y-76700000D02*
X58750000Y-75200000D01*
X53250000Y-47375624D02*
X53250000Y-49500000D01*
X58750000Y-75200000D02*
X58750000Y-73000000D01*
X51750000Y-114250000D02*
X50750000Y-113250000D01*
X96500000Y-76250000D02*
X91700000Y-76250000D01*
X93909900Y-98090100D02*
X94500000Y-97500000D01*
X55700000Y-109800000D02*
X56750000Y-109800000D01*
X55825000Y-96675000D02*
X55750000Y-96750000D01*
X55575000Y-52425000D02*
X55000000Y-53000000D01*
X57500000Y-71750000D02*
X57500000Y-70000000D01*
X94500000Y-96500000D02*
X93750000Y-95750000D01*
X87409900Y-120090100D02*
X85750000Y-121750000D01*
X56362500Y-44805000D02*
X55820624Y-44805000D01*
X90750000Y-127370100D02*
X89370100Y-127370100D01*
X55500000Y-110000000D02*
X55700000Y-109800000D01*
X58750000Y-68750000D02*
X58750000Y-66500000D01*
X62900000Y-119650000D02*
X61000000Y-117750000D01*
X58755800Y-81330801D02*
X58449999Y-81025000D01*
X47500000Y-111000000D02*
X49505800Y-108994200D01*
X89500000Y-61195098D02*
X90000002Y-61695100D01*
X93130801Y-86880801D02*
X92500000Y-86250000D01*
X87000000Y-50500000D02*
X87000000Y-54250000D01*
X55945000Y-89055000D02*
X55750000Y-89250000D01*
X63500000Y-119650000D02*
X62900000Y-119650000D01*
X52994200Y-108994200D02*
X53000000Y-109000000D01*
X53250000Y-49500000D02*
X56175000Y-52425000D01*
X58755800Y-87161700D02*
X58755800Y-81330801D01*
X58449999Y-81025000D02*
X58806600Y-80668399D01*
X87000000Y-54250000D02*
X87500000Y-54750000D01*
X93130801Y-89561080D02*
X93130801Y-86880801D01*
X86500000Y-98500000D02*
X86500000Y-104200000D01*
X90500000Y-46250000D02*
X90500000Y-44750000D01*
X89500000Y-56940100D02*
X89500000Y-61195098D01*
X92124999Y-112470100D02*
X91387500Y-112470100D01*
X85750000Y-121750000D02*
X85750000Y-124500000D01*
X96814000Y-75936000D02*
X96500000Y-76250000D01*
X89970050Y-56470050D02*
X89500000Y-56940100D01*
X92500000Y-84000000D02*
X92120100Y-83620100D01*
X51750000Y-115000000D02*
X51750000Y-114250000D01*
X49505800Y-108994200D02*
X52994200Y-108994200D01*
X54250000Y-59250000D02*
X54750000Y-58750000D01*
X88250000Y-111000000D02*
X89750000Y-112500000D01*
X93750000Y-91395100D02*
X92825000Y-90470100D01*
X90950001Y-61695100D02*
X92304900Y-61695100D01*
X88250000Y-105950000D02*
X88654900Y-105545100D01*
X56750000Y-116750000D02*
X56750000Y-116250000D01*
X56250000Y-115750000D02*
X52500000Y-115750000D01*
X100000000Y-75000000D02*
X99064000Y-75936000D01*
X86500000Y-126500000D02*
X86500000Y-128500000D01*
X64150000Y-119000000D02*
X69000000Y-119000000D01*
X48500000Y-113250000D02*
X47500000Y-112250000D01*
X89250000Y-38870098D02*
X89250000Y-38750000D01*
X91045100Y-46795100D02*
X90500000Y-46250000D01*
X77250000Y-124000000D02*
X75250000Y-122000000D01*
X57750000Y-117750000D02*
X56750000Y-116750000D01*
X91387500Y-120090100D02*
X91521780Y-120090100D01*
X91700000Y-76250000D02*
X90750000Y-77200000D01*
X94500000Y-97500000D02*
X94500000Y-96500000D01*
X58449999Y-81025000D02*
X57500000Y-81025000D01*
X92825000Y-90470100D02*
X92087501Y-90470100D01*
X89370100Y-127370100D02*
X89250000Y-127250000D01*
X93750000Y-95750000D02*
X93750000Y-91395100D01*
X56862500Y-89055000D02*
X55945000Y-89055000D01*
X56362500Y-52425000D02*
X55575000Y-52425000D01*
X56750000Y-37500000D02*
X57975000Y-37500000D01*
X57500000Y-70000000D02*
X58750000Y-68750000D01*
X91521780Y-120090100D02*
X94750000Y-116861880D01*
X55000000Y-62000000D02*
X55750000Y-62000000D01*
X58500000Y-77250000D02*
X58500000Y-77000000D01*
X91204900Y-46795100D02*
X88250000Y-49750000D01*
X87750000Y-125250000D02*
X87750000Y-126000000D01*
X88250000Y-105950000D02*
X88250000Y-111000000D01*
X93250000Y-78250000D02*
X93000000Y-78250000D01*
X56494200Y-64544200D02*
X56750000Y-64800000D01*
X92304900Y-61695100D02*
X92500000Y-61500000D01*
X86500000Y-104200000D02*
X88250000Y-105950000D01*
X63500000Y-119650000D02*
X64150000Y-119000000D01*
X56750000Y-116250000D02*
X56250000Y-115750000D01*
X91950000Y-77200000D02*
X90750000Y-77200000D01*
X94750000Y-116861880D02*
X94750000Y-115095101D01*
X57975000Y-37500000D02*
X58000000Y-37525000D01*
X90000002Y-39620100D02*
X89250000Y-38870098D01*
X56175000Y-52425000D02*
X56362500Y-52425000D01*
X58500000Y-77000000D02*
X58200000Y-76700000D01*
X86500000Y-125250000D02*
X87750000Y-125250000D01*
X100000000Y-67000000D02*
X100000000Y-75000000D01*
X89000000Y-56000000D02*
X89470050Y-56470050D01*
X58750000Y-66500000D02*
X57800000Y-65550000D01*
X92025000Y-46795100D02*
X91045100Y-46795100D01*
X58200000Y-76700000D02*
X57250000Y-76700000D01*
X55800000Y-109800000D02*
X56750000Y-109800000D01*
X98000000Y-66050000D02*
X96800000Y-66050000D01*
X56362500Y-44805000D02*
X56362500Y-44362500D01*
X56494200Y-62744200D02*
X56494200Y-64544200D01*
X56750000Y-64800000D02*
X56750000Y-65550000D01*
X91387500Y-120090100D02*
X87409900Y-120090100D01*
X88654900Y-105545100D02*
X90450001Y-105545100D01*
X88000000Y-50000000D02*
X87500000Y-50000000D01*
X61000000Y-117750000D02*
X57750000Y-117750000D01*
X98000000Y-66050000D02*
X99050000Y-66050000D01*
D34*
%TO.N,GND*%
X52000000Y-79500000D02*
X52000000Y-79250000D01*
D35*
X94250000Y-75300000D02*
X94500000Y-75300000D01*
D34*
X96500000Y-80750000D02*
X96770100Y-81020100D01*
X51400000Y-58300000D02*
X52450000Y-58300000D01*
X51775000Y-79725000D02*
X52000000Y-79500000D01*
D35*
X75050000Y-110200000D02*
X75000000Y-110250000D01*
D34*
X50500000Y-79725000D02*
X50500000Y-80375000D01*
D35*
X75050000Y-106300000D02*
X75000000Y-106250000D01*
D33*
X92087501Y-94280100D02*
X90969900Y-94280100D01*
D34*
X49713262Y-57650000D02*
X49708762Y-57645500D01*
X51000000Y-40125000D02*
X49625000Y-40125000D01*
D35*
X70050000Y-108250000D02*
X72750000Y-108250000D01*
D34*
X50500000Y-102225000D02*
X50500000Y-102875000D01*
X87750000Y-127650000D02*
X87950000Y-127650000D01*
X50750000Y-58300000D02*
X51400000Y-58300000D01*
X50500000Y-106125000D02*
X50500000Y-106775000D01*
X50250000Y-74800000D02*
X52000000Y-76550000D01*
X51475000Y-106775000D02*
X50500000Y-106775000D01*
D33*
X96699001Y-88086600D02*
X96699001Y-84550999D01*
D34*
X87750000Y-123350000D02*
X89000000Y-124600000D01*
D33*
X98900000Y-40920100D02*
X97950001Y-40920100D01*
D35*
X70050000Y-98950000D02*
X70000000Y-99000000D01*
D34*
X97950001Y-80370100D02*
X96879900Y-80370100D01*
D35*
X52500000Y-74800000D02*
X50250000Y-74800000D01*
D34*
X49525000Y-40775000D02*
X50350000Y-40775000D01*
X51875000Y-106125000D02*
X52000000Y-106250000D01*
D35*
X75050000Y-108250000D02*
X75050000Y-106300000D01*
D34*
X96879900Y-80370100D02*
X96500000Y-80750000D01*
X50350000Y-40775000D02*
X51000000Y-40775000D01*
D33*
X97750000Y-45525100D02*
X99201001Y-44074099D01*
X92070100Y-38320100D02*
X90950001Y-38320100D01*
D35*
X53700000Y-111700000D02*
X54250000Y-111700000D01*
D33*
X99201001Y-41221101D02*
X98900000Y-40920100D01*
D34*
X97750000Y-124120100D02*
X96629900Y-124120100D01*
X97750000Y-128670100D02*
X96670100Y-128670100D01*
D35*
X48750000Y-62928208D02*
X49993008Y-61685200D01*
D34*
X49250000Y-39500000D02*
X49250000Y-39000000D01*
D35*
X75050000Y-96750000D02*
X75050000Y-94550000D01*
D34*
X97950001Y-40920100D02*
X96920100Y-40920100D01*
X96629900Y-36370100D02*
X96250000Y-36750000D01*
X50750000Y-57650000D02*
X51900000Y-57650000D01*
X97450001Y-102945100D02*
X97450001Y-102295100D01*
D35*
X55100000Y-65800000D02*
X56750000Y-67450000D01*
D34*
X50750000Y-62200000D02*
X50750000Y-61550000D01*
X97950001Y-40270100D02*
X96729900Y-40270100D01*
D33*
X90030100Y-116280100D02*
X90000000Y-116250000D01*
D35*
X48750000Y-63805000D02*
X48750000Y-62928208D01*
D34*
X51000000Y-36875000D02*
X49875000Y-36875000D01*
D33*
X57619500Y-48630500D02*
X57750000Y-48500000D01*
D35*
X75050000Y-108250000D02*
X75050000Y-110200000D01*
D34*
X51800000Y-62200000D02*
X52250000Y-61750000D01*
X51625000Y-102875000D02*
X52000000Y-102500000D01*
X96595100Y-59095100D02*
X97950001Y-59095100D01*
D35*
X49445000Y-65470000D02*
X49775000Y-65800000D01*
X72750000Y-96750000D02*
X72750000Y-98750000D01*
D34*
X52450000Y-58300000D02*
X52500000Y-58250000D01*
X51125000Y-80375000D02*
X50500000Y-80375000D01*
X49250000Y-40500000D02*
X49525000Y-40775000D01*
X97750000Y-124770100D02*
X97750000Y-124120100D01*
X96445100Y-102945100D02*
X96000000Y-102500000D01*
D33*
X92104900Y-60395100D02*
X90950001Y-60395100D01*
D35*
X56750000Y-67450000D02*
X56750000Y-68250000D01*
X70050000Y-96750000D02*
X72750000Y-96750000D01*
D34*
X97750000Y-128020100D02*
X96479900Y-128020100D01*
D35*
X54250000Y-111000000D02*
X54000000Y-110750000D01*
D34*
X96500000Y-62500000D02*
X96995100Y-62995100D01*
X97750000Y-124770100D02*
X96520100Y-124770100D01*
D35*
X70050000Y-108250000D02*
X70050000Y-110200000D01*
X50250000Y-74800000D02*
X50250000Y-73500000D01*
X75050000Y-96750000D02*
X75050000Y-98950000D01*
D34*
X96670100Y-128670100D02*
X96250000Y-128250000D01*
D35*
X52500000Y-74800000D02*
X57250000Y-74800000D01*
D34*
X51000000Y-40125000D02*
X51000000Y-40775000D01*
D35*
X51700000Y-65800000D02*
X52000000Y-65500000D01*
X49775000Y-65800000D02*
X50500000Y-65800000D01*
X50500000Y-65800000D02*
X51700000Y-65800000D01*
D34*
X51650000Y-36875000D02*
X52625000Y-36875000D01*
X50750000Y-62200000D02*
X51800000Y-62200000D01*
X96654900Y-62345100D02*
X96500000Y-62500000D01*
X51137500Y-97945000D02*
X51137500Y-98637500D01*
D35*
X54250000Y-111700000D02*
X56750000Y-111700000D01*
D34*
X97450001Y-106195100D02*
X97450001Y-106845100D01*
D33*
X56378000Y-48630500D02*
X57619500Y-48630500D01*
D35*
X70050000Y-96750000D02*
X70050000Y-94550000D01*
D33*
X90969900Y-94280100D02*
X89750000Y-95500000D01*
D34*
X51225000Y-84275000D02*
X51750000Y-83750000D01*
X49625000Y-40125000D02*
X49250000Y-40500000D01*
X97950001Y-58445100D02*
X96554900Y-58445100D01*
D35*
X70050000Y-106450000D02*
X70250000Y-106250000D01*
D33*
X97112500Y-110387500D02*
X97250000Y-110250000D01*
D34*
X96770100Y-81020100D02*
X97950001Y-81020100D01*
X51625000Y-83625000D02*
X50500000Y-83625000D01*
X51000000Y-36225000D02*
X51650000Y-36875000D01*
X89125000Y-126125000D02*
X89000000Y-126250000D01*
X96729900Y-40270100D02*
X96500000Y-40500000D01*
X51900000Y-57650000D02*
X52500000Y-58250000D01*
D35*
X75000000Y-94500000D02*
X75050000Y-94550000D01*
X91000000Y-67950000D02*
X94500000Y-67950000D01*
X72750000Y-108250000D02*
X75050000Y-108250000D01*
X72750000Y-96750000D02*
X72750000Y-94750000D01*
D34*
X96554900Y-58445100D02*
X96250000Y-58750000D01*
X52725000Y-36225000D02*
X53000000Y-36500000D01*
X97450001Y-102945100D02*
X96445100Y-102945100D01*
X96920100Y-40920100D02*
X96500000Y-40500000D01*
X56115000Y-92865000D02*
X55750000Y-92500000D01*
X97950001Y-37020100D02*
X96520100Y-37020100D01*
X56908500Y-38825000D02*
X56750000Y-38983500D01*
D33*
X50637500Y-53695000D02*
X49445000Y-54887500D01*
X92025000Y-50605100D02*
X90894900Y-50605100D01*
X92250000Y-38500000D02*
X92070100Y-38320100D01*
D34*
X51000000Y-36225000D02*
X50475000Y-36750000D01*
X50500000Y-106125000D02*
X51875000Y-106125000D01*
D35*
X51000000Y-109800000D02*
X51800000Y-109800000D01*
D33*
X49445000Y-54887500D02*
X49445000Y-57291238D01*
D34*
X50500000Y-102875000D02*
X51625000Y-102875000D01*
D35*
X98050000Y-75300000D02*
X98250000Y-75100000D01*
D34*
X96629900Y-124120100D02*
X96250000Y-124500000D01*
X96520100Y-124770100D02*
X96250000Y-124500000D01*
X96520100Y-37020100D02*
X96250000Y-36750000D01*
D35*
X49445000Y-64500000D02*
X48750000Y-63805000D01*
D34*
X50750000Y-57650000D02*
X49713262Y-57650000D01*
D33*
X97112500Y-111200100D02*
X97112500Y-110387500D01*
D34*
X51137500Y-98637500D02*
X51250000Y-98750000D01*
X87750000Y-127500000D02*
X89000000Y-126250000D01*
D33*
X97812501Y-89200100D02*
X96699001Y-88086600D01*
D34*
X51725000Y-102225000D02*
X52000000Y-102500000D01*
D35*
X56750000Y-68250000D02*
X57000000Y-68500000D01*
X54250000Y-111700000D02*
X54250000Y-111000000D01*
D33*
X57750000Y-60250000D02*
X56250000Y-60250000D01*
X89750000Y-95500000D02*
X89750000Y-96500000D01*
D34*
X52625000Y-36875000D02*
X53000000Y-36500000D01*
D35*
X56750000Y-112750000D02*
X56750000Y-111700000D01*
D34*
X50475000Y-36750000D02*
X49750000Y-36750000D01*
D33*
X99201001Y-44074099D02*
X99201001Y-41221101D01*
D34*
X90750000Y-126070100D02*
X89179900Y-126070100D01*
D35*
X90750000Y-75300000D02*
X94250000Y-75300000D01*
D34*
X50750000Y-57650000D02*
X50750000Y-58300000D01*
X49875000Y-40125000D02*
X49250000Y-39500000D01*
X97450001Y-106845100D02*
X96345100Y-106845100D01*
X89179900Y-126070100D02*
X89125000Y-126125000D01*
D35*
X72750000Y-108250000D02*
X72750000Y-106750000D01*
X70050000Y-96750000D02*
X70050000Y-98950000D01*
D34*
X89000000Y-124600000D02*
X89000000Y-126250000D01*
X97950001Y-84270100D02*
X96979900Y-84270100D01*
X88250000Y-104050000D02*
X88250000Y-101250000D01*
X97170100Y-84920100D02*
X96750000Y-84500000D01*
X51775000Y-79725000D02*
X51125000Y-80375000D01*
X96479900Y-128020100D02*
X96250000Y-128250000D01*
D35*
X70050000Y-108250000D02*
X70050000Y-106450000D01*
D33*
X56362500Y-48615000D02*
X56378000Y-48630500D01*
D34*
X96304900Y-106195100D02*
X96000000Y-106500000D01*
X56862500Y-92865000D02*
X56115000Y-92865000D01*
X49250000Y-39000000D02*
X49250000Y-40500000D01*
X97950001Y-40270100D02*
X97950001Y-40920100D01*
D35*
X57250000Y-74800000D02*
X57250000Y-73500000D01*
D33*
X96699001Y-84550999D02*
X96750000Y-84500000D01*
D35*
X56500000Y-113000000D02*
X56750000Y-112750000D01*
D34*
X50500000Y-102225000D02*
X51725000Y-102225000D01*
D35*
X70050000Y-94550000D02*
X70000000Y-94500000D01*
D34*
X52000000Y-106250000D02*
X51475000Y-106775000D01*
D35*
X72750000Y-96750000D02*
X75050000Y-96750000D01*
D34*
X90450001Y-104245100D02*
X88445100Y-104245100D01*
D35*
X51800000Y-109800000D02*
X53700000Y-111700000D01*
D34*
X96250000Y-58750000D02*
X96595100Y-59095100D01*
D35*
X94250000Y-75300000D02*
X98050000Y-75300000D01*
D34*
X50500000Y-84275000D02*
X51225000Y-84275000D01*
X96995100Y-62995100D02*
X97950001Y-62995100D01*
X51000000Y-36875000D02*
X51650000Y-36875000D01*
X88250000Y-101250000D02*
X88250000Y-98450000D01*
X58000000Y-38825000D02*
X56908500Y-38825000D01*
D33*
X49445000Y-57291238D02*
X49708762Y-57555000D01*
D34*
X97950001Y-36370100D02*
X96629900Y-36370100D01*
X49875000Y-36875000D02*
X49750000Y-36750000D01*
D33*
X50750000Y-62200000D02*
X49800001Y-62200000D01*
D35*
X49993008Y-61685200D02*
X50750000Y-61685200D01*
D34*
X87750000Y-127650000D02*
X87750000Y-127500000D01*
D35*
X49445000Y-64500000D02*
X49445000Y-65470000D01*
D34*
X97950001Y-84920100D02*
X97170100Y-84920100D01*
X51000000Y-40125000D02*
X49875000Y-40125000D01*
X97750000Y-128670100D02*
X97750000Y-128020100D01*
D35*
X50500000Y-65800000D02*
X55100000Y-65800000D01*
D33*
X91387500Y-116280100D02*
X90030100Y-116280100D01*
D34*
X96979900Y-84270100D02*
X96750000Y-84500000D01*
X52050000Y-61550000D02*
X52250000Y-61750000D01*
X97450001Y-102295100D02*
X96204900Y-102295100D01*
D33*
X90894900Y-50605100D02*
X90750000Y-50750000D01*
D34*
X51000000Y-40125000D02*
X50350000Y-40775000D01*
X51000000Y-36225000D02*
X52725000Y-36225000D01*
X51625000Y-83625000D02*
X51750000Y-83750000D01*
X52000000Y-76550000D02*
X52000000Y-79250000D01*
D35*
X70050000Y-110200000D02*
X70000000Y-110250000D01*
D34*
X88445100Y-104245100D02*
X88250000Y-104050000D01*
X96204900Y-102295100D02*
X96000000Y-102500000D01*
X97950001Y-62345100D02*
X96654900Y-62345100D01*
X50750000Y-57650000D02*
X51400000Y-58300000D01*
X50750000Y-61550000D02*
X52050000Y-61550000D01*
X50500000Y-79725000D02*
X51775000Y-79725000D01*
X96345100Y-106845100D02*
X96000000Y-106500000D01*
X97450001Y-106195100D02*
X96304900Y-106195100D01*
D35*
X75000000Y-99000000D02*
X75050000Y-98950000D01*
X72750000Y-108250000D02*
X72750000Y-110000000D01*
%TO.N,12V*%
X61650000Y-96750000D02*
X61650000Y-97650000D01*
X83450000Y-108250000D02*
X83450000Y-110200000D01*
X84750000Y-109550000D02*
X84750000Y-110250000D01*
X83450000Y-110200000D02*
X83500000Y-110250000D01*
X63000000Y-109600000D02*
X63000000Y-110250000D01*
X61650000Y-108250000D02*
X61650000Y-107650000D01*
D34*
X90450001Y-108700001D02*
X90500000Y-108750000D01*
D35*
X51750000Y-112450000D02*
X51000000Y-111700000D01*
X83450000Y-96750000D02*
X85250000Y-94950000D01*
X61650000Y-98350000D02*
X60500000Y-99500000D01*
X60500000Y-114750000D02*
X53500000Y-114750000D01*
X61650000Y-95100000D02*
X62250000Y-94500000D01*
X88700000Y-130500000D02*
X89750000Y-130500000D01*
D34*
X56500000Y-55358000D02*
X56758000Y-55358000D01*
D37*
X57700968Y-34625968D02*
X58000000Y-34925000D01*
D34*
X90950001Y-64295100D02*
X90950001Y-66000001D01*
D35*
X83450000Y-96750000D02*
X83450000Y-94950000D01*
D34*
X56758000Y-55358000D02*
X57750000Y-56350000D01*
X90500000Y-86670101D02*
X90500000Y-87000000D01*
D35*
X50250000Y-76700000D02*
X49050000Y-76700000D01*
X61650000Y-108250000D02*
X63000000Y-109600000D01*
X81500000Y-110200000D02*
X81500000Y-110250000D01*
X48250000Y-47000000D02*
X48250000Y-55250000D01*
X48550000Y-111700000D02*
X48500000Y-111750000D01*
X53500000Y-114750000D02*
X51750000Y-113000000D01*
D37*
X56750000Y-34831200D02*
X56913832Y-34995032D01*
D34*
X90970100Y-86220100D02*
X91500000Y-86750000D01*
X90450001Y-108145100D02*
X89845101Y-108750000D01*
X57500000Y-78425000D02*
X56675000Y-78425000D01*
D35*
X50500000Y-67700000D02*
X47800000Y-67700000D01*
X83450000Y-94950000D02*
X83000000Y-94500000D01*
D34*
X56675000Y-78425000D02*
X56250000Y-78000000D01*
D35*
X83450000Y-108250000D02*
X81500000Y-110200000D01*
X61650000Y-96750000D02*
X61650000Y-95100000D01*
X61650000Y-95900000D02*
X60500000Y-94750000D01*
X91000000Y-64480299D02*
X90950001Y-64430300D01*
X61650000Y-97650000D02*
X62750000Y-98750000D01*
X81700000Y-95000000D02*
X81500000Y-95000000D01*
X89750000Y-130500000D02*
X90144700Y-130105300D01*
X90144700Y-130105300D02*
X90750000Y-130105300D01*
D34*
X90950001Y-86220100D02*
X90500000Y-86670101D01*
X90950001Y-86220100D02*
X90970100Y-86220100D01*
D37*
X56913832Y-34995032D02*
X57500000Y-34995032D01*
D35*
X61650000Y-113600000D02*
X60500000Y-114750000D01*
X49050000Y-76700000D02*
X47250000Y-78500000D01*
X83450000Y-96750000D02*
X83450000Y-98700000D01*
D34*
X90450001Y-108145100D02*
X90450001Y-108700001D01*
D35*
X83450000Y-96750000D02*
X81700000Y-95000000D01*
X48250000Y-55250000D02*
X47000000Y-56500000D01*
X88050000Y-96750000D02*
X88250000Y-96550000D01*
X81700000Y-106500000D02*
X81500000Y-106500000D01*
X91000000Y-66050000D02*
X91000000Y-64480299D01*
X61650000Y-109100000D02*
X60500000Y-110250000D01*
D34*
X90950001Y-66000001D02*
X91000000Y-66050000D01*
D35*
X83450000Y-96750000D02*
X82000000Y-98200000D01*
X61650000Y-96750000D02*
X61650000Y-95900000D01*
D37*
X56750000Y-34750000D02*
X56874032Y-34625968D01*
D34*
X90950001Y-42220100D02*
X90170101Y-43000000D01*
D35*
X61650000Y-107350000D02*
X62750000Y-106250000D01*
X83450000Y-108250000D02*
X85000000Y-106700000D01*
X83450000Y-96750000D02*
X88050000Y-96750000D01*
X82000000Y-98200000D02*
X82000000Y-98750000D01*
X51000000Y-111700000D02*
X48550000Y-111700000D01*
X51750000Y-113000000D02*
X51750000Y-112450000D01*
X47800000Y-67700000D02*
X47750000Y-67750000D01*
X92300000Y-66050000D02*
X92500000Y-66250000D01*
D37*
X56750000Y-34831200D02*
X56750000Y-34750000D01*
D35*
X61650000Y-108250000D02*
X61650000Y-107350000D01*
X83500000Y-106000000D02*
X83450000Y-106050000D01*
X85250000Y-94750000D02*
X85250000Y-94950000D01*
X61650000Y-108250000D02*
X61650000Y-109100000D01*
X61650000Y-108250000D02*
X61650000Y-113600000D01*
X83450000Y-108250000D02*
X84750000Y-109550000D01*
X85000000Y-106700000D02*
X85000000Y-106250000D01*
D34*
X89845101Y-108750000D02*
X89500000Y-108750000D01*
D35*
X85250000Y-98550000D02*
X85250000Y-98750000D01*
X83450000Y-108250000D02*
X83450000Y-106050000D01*
D37*
X56874032Y-34625968D02*
X57700968Y-34625968D01*
D35*
X61650000Y-107650000D02*
X60500000Y-106500000D01*
X83450000Y-96750000D02*
X85250000Y-98550000D01*
X83450000Y-108250000D02*
X81700000Y-106500000D01*
D34*
X90170101Y-43000000D02*
X89750000Y-43000000D01*
D35*
X61650000Y-96750000D02*
X57610200Y-100789800D01*
X91000000Y-66050000D02*
X92300000Y-66050000D01*
X57610200Y-100789800D02*
X57500000Y-100789800D01*
X98250000Y-77000000D02*
X100250000Y-77000000D01*
X87750000Y-129550000D02*
X88700000Y-130500000D01*
X61650000Y-96750000D02*
X61650000Y-98350000D01*
X83500000Y-98750000D02*
X83450000Y-98700000D01*
D33*
%TO.N,Row3*%
X75549000Y-57849000D02*
X73151000Y-57849000D01*
X77401000Y-56599000D02*
X75850000Y-58150000D01*
X85750000Y-57900000D02*
X84449000Y-56599000D01*
X65750000Y-114750000D02*
X63500000Y-114750000D01*
X73151000Y-57849000D02*
X72551000Y-58449000D01*
X72551000Y-58449000D02*
X72551000Y-60135160D01*
X72036160Y-60650000D02*
X65750000Y-60650000D01*
X84449000Y-56599000D02*
X77401000Y-56599000D01*
X75850000Y-58150000D02*
X75549000Y-57849000D01*
X63500000Y-114750000D02*
X63000000Y-115250000D01*
X65750000Y-60650000D02*
X66750000Y-61650000D01*
X85750000Y-60650000D02*
X85750000Y-57900000D01*
X66750000Y-61650000D02*
X66750000Y-63500000D01*
X72551000Y-60135160D02*
X72036160Y-60650000D01*
X75850000Y-60900000D02*
X75850000Y-58150000D01*
%TO.N,LATCH*%
X56362500Y-49885000D02*
X57865000Y-49885000D01*
X92762499Y-49335100D02*
X93500000Y-50072601D01*
X91387500Y-115010100D02*
X88239900Y-115010100D01*
X88239900Y-115010100D02*
X87260100Y-115010100D01*
X93500000Y-50072601D02*
X93500000Y-50750000D01*
X87500000Y-110500000D02*
X87500000Y-107750000D01*
X91860100Y-49500000D02*
X92025000Y-49335100D01*
X59500000Y-48250000D02*
X59500000Y-46750000D01*
X55480000Y-94000000D02*
X55615000Y-94135000D01*
X90500000Y-49500000D02*
X91860100Y-49500000D01*
X89000000Y-114250000D02*
X88239900Y-115010100D01*
X87260100Y-115010100D02*
X85500000Y-113250000D01*
X85500000Y-113250000D02*
X85500000Y-112500000D01*
X84250000Y-130000000D02*
X82750000Y-131500000D01*
X87260100Y-115010100D02*
X84250000Y-118020200D01*
X84250000Y-118020200D02*
X84250000Y-130000000D01*
X56500000Y-131250000D02*
X54500000Y-131250000D01*
X90875000Y-93125000D02*
X90989900Y-93010100D01*
X59500000Y-46750000D02*
X59250000Y-46500000D01*
X90989900Y-93010100D02*
X92087501Y-93010100D01*
X54500000Y-131250000D02*
X53500000Y-130250000D01*
X56750000Y-131500000D02*
X56500000Y-131250000D01*
X57865000Y-49885000D02*
X59500000Y-48250000D01*
X54750000Y-94000000D02*
X55480000Y-94000000D01*
X85500000Y-112500000D02*
X87500000Y-110500000D01*
X90875000Y-93375000D02*
X90875000Y-93125000D01*
X92025000Y-49335100D02*
X92762499Y-49335100D01*
X55615000Y-94135000D02*
X56862500Y-94135000D01*
X82750000Y-131500000D02*
X56750000Y-131500000D01*
%TO.N,DATA*%
X59000000Y-47750000D02*
X58595000Y-47345000D01*
X58595000Y-47345000D02*
X56362500Y-47345000D01*
%TO.N,Row4*%
X65401000Y-71701000D02*
X63850000Y-70150000D01*
X63850000Y-70150000D02*
X63000000Y-71000000D01*
X63850000Y-67400000D02*
X63850000Y-70150000D01*
X72235160Y-71701000D02*
X65401000Y-71701000D01*
X73850000Y-70086160D02*
X72235160Y-71701000D01*
X73850000Y-67650000D02*
X73850000Y-70400000D01*
X73850000Y-67650000D02*
X73850000Y-70086160D01*
X73850000Y-70400000D02*
X75151000Y-71701000D01*
X75151000Y-71701000D02*
X82449000Y-71701000D01*
X82449000Y-71701000D02*
X83750000Y-70400000D01*
X83750000Y-70400000D02*
X83750000Y-67650000D01*
%TO.N,PWM*%
X95500000Y-117000000D02*
X95500000Y-111595100D01*
X55000000Y-93500000D02*
X54500000Y-93000000D01*
X92255001Y-41928862D02*
X92255001Y-42250000D01*
X90950001Y-85570100D02*
X90070100Y-85570100D01*
X92750000Y-67000000D02*
X92500000Y-67000000D01*
X56794424Y-57000000D02*
X56665877Y-56871453D01*
X91929900Y-129320100D02*
X92000000Y-129250000D01*
X90950001Y-58445100D02*
X91900000Y-58445100D01*
X86750000Y-60250000D02*
X87350110Y-60250000D01*
X86750000Y-57213840D02*
X86750000Y-60250000D01*
X92750000Y-129500000D02*
X92500000Y-129250000D01*
X93945216Y-54054784D02*
X93066700Y-54054784D01*
X90750000Y-124120100D02*
X91879900Y-124120100D01*
X91500000Y-132500000D02*
X92750000Y-131250000D01*
X89645001Y-85928862D02*
X89645001Y-87895001D01*
X57500000Y-106775000D02*
X58449999Y-106775000D01*
X90950001Y-41570100D02*
X91896239Y-41570100D01*
X86000000Y-93500000D02*
X87500000Y-93500000D01*
X54500000Y-132500000D02*
X91500000Y-132500000D01*
X57750000Y-57000000D02*
X56794424Y-57000000D01*
X90450001Y-102295100D02*
X89454900Y-102295100D01*
X57624990Y-93500000D02*
X55000000Y-93500000D01*
X65000000Y-95750000D02*
X65000000Y-94817100D01*
X90950001Y-63645100D02*
X91896239Y-63645100D01*
X57500000Y-106775000D02*
X54725000Y-106775000D01*
X70250000Y-38000000D02*
X69750000Y-38500000D01*
X58949999Y-40775000D02*
X59750000Y-41575001D01*
X54000000Y-132000000D02*
X54500000Y-132500000D01*
X91400000Y-107495100D02*
X90450001Y-107495100D01*
X89500002Y-102295100D02*
X89000000Y-101795098D01*
X90450001Y-102295100D02*
X89500002Y-102295100D01*
X86879900Y-36370100D02*
X90950001Y-36370100D01*
X92500000Y-129250000D02*
X92000000Y-129250000D01*
X52750000Y-132000000D02*
X54000000Y-132000000D01*
X93066700Y-57278400D02*
X93066700Y-54500000D01*
X89750000Y-89750000D02*
X88500000Y-91000000D01*
X91896239Y-63645100D02*
X93185200Y-64934061D01*
X87500000Y-93500000D02*
X88750000Y-94750000D01*
X54500000Y-93000000D02*
X54500000Y-86750000D01*
X65500000Y-98250000D02*
X65500000Y-96250000D01*
X62000000Y-38500000D02*
X59625001Y-36125001D01*
X54500000Y-86750000D02*
X56000000Y-85250000D01*
X51610000Y-127250000D02*
X51610000Y-129610000D01*
X56000000Y-84825001D02*
X56000000Y-85000000D01*
X94000000Y-78750000D02*
X94000000Y-77500000D01*
X57500000Y-101575000D02*
X62175000Y-101575000D01*
X95500000Y-111595100D02*
X91400000Y-107495100D01*
X85500000Y-93000000D02*
X86000000Y-93500000D01*
X89695801Y-85195801D02*
X89695801Y-80754430D01*
X58949999Y-40775000D02*
X58000000Y-40775000D01*
X58449999Y-101575000D02*
X57500000Y-101575000D01*
X92255001Y-42250000D02*
X92255001Y-42511338D01*
X57500000Y-84275000D02*
X56550001Y-84275000D01*
X58000000Y-35575000D02*
X58949999Y-35575000D01*
X93185200Y-64934061D02*
X93185200Y-66564800D01*
X63216450Y-93033550D02*
X58091440Y-93033550D01*
X59000000Y-106224999D02*
X59000000Y-102125001D01*
X92500000Y-120000000D02*
X95500000Y-117000000D01*
X94000000Y-77500000D02*
X93250000Y-76750000D01*
X92000000Y-124000000D02*
X92000000Y-122000000D01*
X85750000Y-37500000D02*
X84750000Y-37500000D01*
X58449999Y-106775000D02*
X59000000Y-106224999D01*
X86750000Y-91000000D02*
X85500000Y-92250000D01*
X94250000Y-53750000D02*
X93945216Y-54054784D01*
X65000000Y-94817100D02*
X63216450Y-93033550D01*
X59500000Y-36125001D02*
X59500000Y-40224999D01*
X93066700Y-54054784D02*
X92783016Y-53771100D01*
X90192740Y-53771100D02*
X86750000Y-57213840D01*
X58949999Y-35575000D02*
X59500000Y-36125001D01*
X93185200Y-66564800D02*
X92750000Y-67000000D01*
X84750000Y-37500000D02*
X84500000Y-37750000D01*
X86000000Y-37250000D02*
X86879900Y-36370100D01*
X90450001Y-107495100D02*
X89495100Y-107495100D01*
X87350110Y-60250000D02*
X89500000Y-62399890D01*
X65500000Y-96250000D02*
X65000000Y-95750000D01*
X75750000Y-38000000D02*
X70250000Y-38000000D01*
X90080131Y-80370100D02*
X90950001Y-80370100D01*
X90070100Y-85570100D02*
X89695801Y-85195801D01*
X69750000Y-38500000D02*
X62000000Y-38500000D01*
X92379900Y-80370100D02*
X94000000Y-78750000D01*
X89500000Y-63145098D02*
X90000002Y-63645100D01*
X57500000Y-79075000D02*
X56175000Y-79075000D01*
X90000002Y-63645100D02*
X90950001Y-63645100D01*
X85500000Y-92250000D02*
X85500000Y-93000000D01*
X92255001Y-42511338D02*
X91016339Y-43750000D01*
X92000000Y-122000000D02*
X92500000Y-121500000D01*
X89750000Y-88000000D02*
X89750000Y-89750000D01*
X92750000Y-131250000D02*
X92750000Y-129500000D01*
X94250000Y-44244999D02*
X94250000Y-53750000D01*
X89500000Y-62399890D02*
X89500000Y-63145098D01*
X90950001Y-80370100D02*
X92379900Y-80370100D01*
X88500000Y-91000000D02*
X86750000Y-91000000D01*
X90950001Y-85570100D02*
X90003763Y-85570100D01*
X84500000Y-37750000D02*
X76000000Y-37750000D01*
X91896239Y-41570100D02*
X92255001Y-41928862D01*
X56700000Y-62200000D02*
X56500000Y-62000000D01*
X92255001Y-42250000D02*
X94250000Y-44244999D01*
X89454900Y-102295100D02*
X89000000Y-102750000D01*
X86000000Y-37250000D02*
X85750000Y-37500000D01*
X92783016Y-53771100D02*
X90192740Y-53771100D01*
X90003763Y-85570100D02*
X89645001Y-85928862D01*
X58091440Y-93033550D02*
X57624990Y-93500000D01*
X59750000Y-41575001D02*
X59750000Y-41750000D01*
X89645001Y-87895001D02*
X89750000Y-88000000D01*
X57750000Y-62200000D02*
X56700000Y-62200000D01*
X76000000Y-37750000D02*
X75750000Y-38000000D01*
X90750000Y-129320100D02*
X91929900Y-129320100D01*
X89000000Y-101795098D02*
X89000000Y-100250000D01*
X91016339Y-43750000D02*
X90750000Y-43750000D01*
X59000000Y-102125001D02*
X58449999Y-101575000D01*
X91900000Y-58445100D02*
X93066700Y-57278400D01*
X59500000Y-40224999D02*
X58949999Y-40775000D01*
X92500000Y-121500000D02*
X92500000Y-120000000D01*
X89495100Y-107495100D02*
X89000000Y-107000000D01*
X59625001Y-36125001D02*
X59500000Y-36125001D01*
X56550001Y-84275000D02*
X56000000Y-84825001D01*
X62175000Y-101575000D02*
X65500000Y-98250000D01*
X89695801Y-80754430D02*
X90080131Y-80370100D01*
X56175000Y-79075000D02*
X56000000Y-79250000D01*
X51610000Y-129610000D02*
X54000000Y-132000000D01*
X91879900Y-124120100D02*
X92000000Y-124000000D01*
X93066700Y-54500000D02*
X93066700Y-54054784D01*
X54725000Y-106775000D02*
X54000000Y-107500000D01*
X56000000Y-85000000D02*
X56000000Y-85250000D01*
%TO.N,STBY*%
X55500000Y-59500000D02*
X55750000Y-59500000D01*
X56750000Y-42344870D02*
X56750000Y-42000000D01*
X58699999Y-59600000D02*
X59250000Y-59049999D01*
X56350000Y-59600000D02*
X57750000Y-59600000D01*
X57155130Y-42750000D02*
X56750000Y-42344870D01*
X90950001Y-82970100D02*
X92529900Y-82970100D01*
X62750000Y-39500000D02*
X63000000Y-39250000D01*
X59901000Y-43151000D02*
X59500000Y-42750000D01*
X59500000Y-42750000D02*
X57155130Y-42750000D01*
X90750000Y-126720100D02*
X92779900Y-126720100D01*
X62750000Y-41986160D02*
X62750000Y-39500000D01*
X92500000Y-101500000D02*
X93250000Y-100750000D01*
X93250000Y-100750000D02*
X93250000Y-100500000D01*
X59250000Y-58500000D02*
X59901000Y-57849000D01*
X92750000Y-82750000D02*
X92750000Y-83250000D01*
X61585160Y-43151000D02*
X62750000Y-41986160D01*
X56825000Y-38175000D02*
X56750000Y-38250000D01*
X59901000Y-43151000D02*
X61585160Y-43151000D01*
X92750000Y-83250000D02*
X93500000Y-84000000D01*
X57750000Y-59600000D02*
X58699999Y-59600000D01*
X92779900Y-126720100D02*
X93500000Y-126000000D01*
X56750000Y-42000000D02*
X56250000Y-41500000D01*
X55750000Y-59500000D02*
X55950000Y-59700000D01*
X59901000Y-57849000D02*
X59901000Y-43151000D01*
X59250000Y-59049999D02*
X59250000Y-58500000D01*
X56250000Y-59700000D02*
X56350000Y-59600000D01*
X55950000Y-59700000D02*
X56250000Y-59700000D01*
X58000000Y-38175000D02*
X56825000Y-38175000D01*
X92529900Y-82970100D02*
X92750000Y-82750000D01*
X91604900Y-104895100D02*
X92500000Y-104000000D01*
X90450001Y-104895100D02*
X91604900Y-104895100D01*
X56325000Y-81675000D02*
X56250000Y-81750000D01*
X56250000Y-41500000D02*
X56250000Y-40750000D01*
X57500000Y-81675000D02*
X56325000Y-81675000D01*
X92500000Y-104000000D02*
X92500000Y-101500000D01*
%TO.N,Row2*%
X63893080Y-51793080D02*
X65150000Y-53050000D01*
X76900000Y-50550000D02*
X76900000Y-52800000D01*
X67550000Y-49900000D02*
X73750000Y-49900000D01*
X76150000Y-53550000D02*
X74650000Y-53550000D01*
X65150000Y-53050000D02*
X66400000Y-53050000D01*
X73750000Y-52650000D02*
X73750000Y-49900000D01*
X63893080Y-53393080D02*
X64000000Y-53500000D01*
X66400000Y-53050000D02*
X66900000Y-52550000D01*
X74650000Y-53550000D02*
X73750000Y-52650000D01*
X66900000Y-50550000D02*
X67550000Y-49900000D01*
X77800000Y-49650000D02*
X76900000Y-50550000D01*
X63893080Y-49756920D02*
X63893080Y-51793080D01*
X66900000Y-52550000D02*
X66900000Y-50550000D01*
X63893080Y-49756920D02*
X63893080Y-53393080D01*
X76900000Y-52800000D02*
X76150000Y-53550000D01*
X83850000Y-49650000D02*
X77800000Y-49650000D01*
%TO.N,SCL*%
X64310000Y-142490000D02*
X64310000Y-136310000D01*
X44500000Y-122750000D02*
X51250000Y-122750000D01*
X54500000Y-119500000D02*
X56500000Y-119500000D01*
X51250000Y-122750000D02*
X54500000Y-119500000D01*
X40750000Y-126500000D02*
X44500000Y-122750000D01*
X40750000Y-128000000D02*
X40750000Y-126500000D01*
X61750000Y-133750000D02*
X46500000Y-133750000D01*
X64310000Y-136310000D02*
X61750000Y-133750000D01*
X46500000Y-133750000D02*
X40750000Y-128000000D01*
%TO.N,Row1*%
X87900000Y-45550000D02*
X88400000Y-45550000D01*
X85650000Y-43300000D02*
X87650000Y-45300000D01*
X65793080Y-43943080D02*
X67750000Y-45900000D01*
X88400000Y-45550000D02*
X88650000Y-45550000D01*
X87400000Y-42800000D02*
X86852000Y-42252000D01*
X87650000Y-45300000D02*
X87900000Y-45550000D01*
X70500000Y-38650000D02*
X74250000Y-38650000D01*
X77600000Y-38300000D02*
X75750000Y-40150000D01*
X69750000Y-44850110D02*
X69750000Y-39400000D01*
X65793080Y-43006920D02*
X65793080Y-43943080D01*
X89150000Y-45050000D02*
X89400000Y-44800000D01*
X88650000Y-43300000D02*
X88150000Y-42800000D01*
X69750000Y-44850110D02*
X69750000Y-45750000D01*
X65793080Y-44006920D02*
X65793080Y-43006920D01*
X69750000Y-39400000D02*
X70500000Y-38650000D01*
X89400000Y-44050000D02*
X88650000Y-43300000D01*
X85403260Y-38300000D02*
X85400000Y-38300000D01*
X86852000Y-42252000D02*
X86852000Y-39748740D01*
X85400000Y-38300000D02*
X77600000Y-38300000D01*
X85650000Y-42650000D02*
X85650000Y-43300000D01*
X88150000Y-42800000D02*
X87400000Y-42800000D01*
X68700110Y-45900000D02*
X69750000Y-44850110D01*
X67750000Y-45900000D02*
X68700110Y-45900000D01*
X75750000Y-40150000D02*
X75750000Y-42900000D01*
X74250000Y-38650000D02*
X75750000Y-40150000D01*
X86852000Y-39748740D02*
X85403260Y-38300000D01*
X89400000Y-44800000D02*
X89400000Y-44050000D01*
X88650000Y-45550000D02*
X89150000Y-45050000D01*
%TO.N,Col1*%
X60000000Y-81250000D02*
X60000000Y-89250000D01*
X70250000Y-117000000D02*
X70250000Y-123500000D01*
X61123320Y-49051000D02*
X60650890Y-49051000D01*
X60250000Y-79000000D02*
X60250000Y-63543080D01*
X77010000Y-127250000D02*
X77010000Y-125260000D01*
X60250000Y-63543080D02*
X61293080Y-62500000D01*
X68250000Y-47400000D02*
X68250000Y-48300000D01*
X65201000Y-81201000D02*
X62451000Y-81201000D01*
X67000000Y-46150000D02*
X68250000Y-47400000D01*
X66500000Y-95750000D02*
X66500000Y-113250000D01*
X67049000Y-82099000D02*
X66099000Y-82099000D01*
X66151000Y-63701000D02*
X63264840Y-63701000D01*
X62451000Y-81201000D02*
X61250000Y-80000000D01*
X61293080Y-62500000D02*
X62895080Y-60898000D01*
X62895080Y-63331240D02*
X62895080Y-63250000D01*
X66500000Y-113250000D02*
X70250000Y-117000000D01*
X62895080Y-60898000D02*
X62895080Y-50822760D01*
X60349000Y-45901000D02*
X61250000Y-45000000D01*
X62895080Y-50822760D02*
X61123320Y-49051000D01*
X77010000Y-125260000D02*
X77000000Y-125250000D01*
X60000000Y-89250000D02*
X66500000Y-95750000D01*
X61250000Y-80000000D02*
X60250000Y-79000000D01*
X66099000Y-82099000D02*
X65201000Y-81201000D01*
X62400000Y-46150000D02*
X67000000Y-46150000D01*
X68250000Y-83300000D02*
X67049000Y-82099000D01*
X60650890Y-49051000D02*
X60349000Y-48749110D01*
X62895080Y-63331240D02*
X62895080Y-60898000D01*
X61250000Y-45000000D02*
X62400000Y-46150000D01*
X60349000Y-48749110D02*
X60349000Y-45901000D01*
X61250000Y-80000000D02*
X60000000Y-81250000D01*
X61293080Y-62856920D02*
X61593080Y-62856920D01*
X68250000Y-65800000D02*
X66151000Y-63701000D01*
X63264840Y-63701000D02*
X62895080Y-63331240D01*
%TO.N,Col3*%
X87049000Y-64599000D02*
X88250000Y-65800000D01*
X89000000Y-74000000D02*
X89251000Y-74000000D01*
X81250000Y-44500000D02*
X82451000Y-45701000D01*
X81250000Y-62250000D02*
X82000000Y-61500000D01*
X82849000Y-75664840D02*
X85013840Y-73500000D01*
X87301000Y-45701000D02*
X88250000Y-46650000D01*
X89251000Y-66801000D02*
X88250000Y-65800000D01*
X83349000Y-64599000D02*
X87049000Y-64599000D01*
X89251000Y-82149000D02*
X89251000Y-74000000D01*
X89251000Y-74000000D02*
X89251000Y-66801000D01*
X80250000Y-48500000D02*
X80750000Y-49000000D01*
X82849000Y-79051000D02*
X82849000Y-75664840D01*
X81250000Y-80650000D02*
X82849000Y-79051000D01*
X88250000Y-46650000D02*
X88250000Y-47800000D01*
X81250000Y-44500000D02*
X79561057Y-46188943D01*
X82451000Y-45701000D02*
X87301000Y-45701000D01*
X79561057Y-47811057D02*
X80250000Y-48500000D01*
X81250000Y-62500000D02*
X81250000Y-62250000D01*
X85013840Y-73500000D02*
X88500000Y-73500000D01*
X81250000Y-62500000D02*
X83349000Y-64599000D01*
X79561057Y-46188943D02*
X79561057Y-47811057D01*
X88250000Y-83150000D02*
X89251000Y-82149000D01*
X88500000Y-73500000D02*
X89000000Y-74000000D01*
%TO.N,SDA*%
X40000000Y-126250000D02*
X45250000Y-121000000D01*
X59500000Y-121500000D02*
X56500000Y-121500000D01*
X60000000Y-119250000D02*
X60000000Y-121000000D01*
X61770000Y-136770000D02*
X60250000Y-135250000D01*
X50250000Y-121000000D02*
X52750000Y-118500000D01*
X40000000Y-129250000D02*
X40000000Y-126250000D01*
X45250000Y-121000000D02*
X50250000Y-121000000D01*
X52750000Y-118500000D02*
X59250000Y-118500000D01*
X46000000Y-135250000D02*
X40000000Y-129250000D01*
X59250000Y-118500000D02*
X60000000Y-119250000D01*
X60000000Y-121000000D02*
X59500000Y-121500000D01*
X60250000Y-135250000D02*
X46000000Y-135250000D01*
X61770000Y-142490000D02*
X61770000Y-136770000D01*
%TO.N,Col2*%
X71250000Y-62500000D02*
X71500000Y-62500000D01*
X78150000Y-47050000D02*
X78150000Y-47800000D01*
X73363840Y-46050000D02*
X74796740Y-46050000D01*
X77348000Y-46352000D02*
X77400000Y-46300000D01*
X69750000Y-64000000D02*
X69750000Y-71000000D01*
X71250000Y-62500000D02*
X69750000Y-64000000D01*
X71250000Y-80150000D02*
X72150000Y-80150000D01*
X77048000Y-81948000D02*
X75698000Y-81948000D01*
X71250000Y-62500000D02*
X73349000Y-64599000D01*
X79250000Y-84250000D02*
X79250000Y-84150000D01*
X78150000Y-47800000D02*
X79100000Y-48750000D01*
X72900000Y-45300000D02*
X72900000Y-45586160D01*
X79100000Y-48750000D02*
X79250000Y-48750000D01*
X71250000Y-80150000D02*
X69750000Y-78650000D01*
X72900000Y-45586160D02*
X73363840Y-46050000D01*
X79250000Y-84150000D02*
X78250000Y-83150000D01*
X78250000Y-83150000D02*
X77048000Y-81948000D01*
X77049000Y-64599000D02*
X78250000Y-65800000D01*
X72450000Y-44850000D02*
X72900000Y-45300000D01*
X73349000Y-64599000D02*
X77049000Y-64599000D01*
X72150000Y-80150000D02*
X72750000Y-80750000D01*
X71250000Y-44850000D02*
X72450000Y-44850000D01*
X75098740Y-46352000D02*
X77348000Y-46352000D01*
X77400000Y-46300000D02*
X78150000Y-47050000D01*
X74796740Y-46050000D02*
X75098740Y-46352000D01*
X69750000Y-78650000D02*
X69750000Y-72500000D01*
X71500000Y-62500000D02*
X72250000Y-61750000D01*
X75698000Y-81948000D02*
X75250000Y-81500000D01*
%TO.N,CLOCK*%
X55250000Y-50250000D02*
X55250000Y-50750000D01*
X55655000Y-51155000D02*
X56362500Y-51155000D01*
X91990100Y-113740100D02*
X91387500Y-113740100D01*
X86990100Y-113740100D02*
X91387500Y-113740100D01*
X93000000Y-114750000D02*
X91990100Y-113740100D01*
X53750000Y-94000000D02*
X54000000Y-94250000D01*
X91287501Y-48065100D02*
X89750000Y-49602601D01*
X55250000Y-50750000D02*
X55655000Y-51155000D01*
X87009900Y-91740100D02*
X86250000Y-92500000D01*
X39500000Y-136000000D02*
X39500000Y-125750000D01*
X54250000Y-94250000D02*
X55405000Y-95405000D01*
X93000000Y-117500000D02*
X93000000Y-114750000D01*
X54250000Y-49250000D02*
X53750000Y-48750000D01*
X86250000Y-113000000D02*
X86990100Y-113740100D01*
X43250000Y-139750000D02*
X39500000Y-136000000D01*
X54000000Y-94250000D02*
X54250000Y-94250000D01*
X54750000Y-50250000D02*
X54250000Y-49750000D01*
X85750000Y-118750000D02*
X85750000Y-118638200D01*
X86194100Y-118194100D02*
X92305900Y-118194100D01*
X55250000Y-50250000D02*
X54750000Y-50250000D01*
X92305900Y-118194100D02*
X93000000Y-117500000D01*
X50750000Y-114500000D02*
X50750000Y-114250000D01*
X89750000Y-49602601D02*
X89750000Y-50000000D01*
X54250000Y-49750000D02*
X54250000Y-49250000D01*
X39500000Y-125750000D02*
X50750000Y-114500000D01*
X92087501Y-91740100D02*
X87009900Y-91740100D01*
X85750000Y-118638200D02*
X86194100Y-118194100D01*
X92025000Y-48065100D02*
X91287501Y-48065100D01*
X55405000Y-95405000D02*
X56862500Y-95405000D01*
%TO.N,Net-(D1-A)*%
X63793080Y-39606920D02*
X63793080Y-43006920D01*
X66750000Y-40400000D02*
X65500000Y-39150000D01*
X68250000Y-45000000D02*
X68250000Y-44150000D01*
X68250000Y-44150000D02*
X66750000Y-42650000D01*
X65500000Y-39150000D02*
X64250000Y-39150000D01*
X64250000Y-39150000D02*
X63793080Y-39606920D01*
X66750000Y-42650000D02*
X66750000Y-40400000D01*
%TO.N,Net-(D2-A)*%
X61250000Y-48300000D02*
X62844080Y-46705920D01*
X62844080Y-46705920D02*
X65592080Y-46705920D01*
X65592080Y-46705920D02*
X65893080Y-47006920D01*
X65893080Y-47006920D02*
X65893080Y-49756920D01*
%TO.N,Net-(D3-A)*%
X68250000Y-61801000D02*
X67599500Y-61150500D01*
X64000000Y-57000000D02*
X65750000Y-57000000D01*
X68250000Y-62500000D02*
X68250000Y-61801000D01*
X63750000Y-57500000D02*
X63750000Y-57250000D01*
X66750000Y-58000000D02*
X66750000Y-60000000D01*
X63750000Y-60650000D02*
X63750000Y-57500000D01*
X65750000Y-57000000D02*
X66750000Y-58000000D01*
X63750000Y-57250000D02*
X64000000Y-57000000D01*
%TO.N,Net-(D4-A)*%
X65850000Y-64650000D02*
X65850000Y-67400000D01*
X62744080Y-64349000D02*
X65549000Y-64349000D01*
X61293080Y-65800000D02*
X62744080Y-64349000D01*
X65549000Y-64349000D02*
X65850000Y-64650000D01*
%TO.N,Net-(D5-A)*%
X67049000Y-78799000D02*
X68250000Y-80000000D01*
X67049000Y-75912840D02*
X67049000Y-78799000D01*
X64051000Y-75099000D02*
X66235160Y-75099000D01*
X63750000Y-75400000D02*
X64051000Y-75099000D01*
X63750000Y-78150000D02*
X63750000Y-75400000D01*
X66235160Y-75099000D02*
X67049000Y-75912840D01*
%TO.N,Net-(D6-A)*%
X61250000Y-83300000D02*
X62451000Y-82099000D01*
X65449000Y-82099000D02*
X65750000Y-82400000D01*
X65750000Y-82400000D02*
X65750000Y-85150000D01*
X62451000Y-82099000D02*
X65449000Y-82099000D01*
%TO.N,Net-(D7-A)*%
X75264840Y-45951000D02*
X76699000Y-45951000D01*
X76699000Y-45951000D02*
X78150000Y-44500000D01*
X73750000Y-42900000D02*
X73750000Y-44436160D01*
X73750000Y-44436160D02*
X75264840Y-45951000D01*
%TO.N,Net-(D8-A)*%
X72600000Y-46800000D02*
X74400000Y-46800000D01*
X75750000Y-48150000D02*
X75750000Y-49900000D01*
X74400000Y-46800000D02*
X75750000Y-48150000D01*
X71250000Y-48150000D02*
X72600000Y-46800000D01*
%TO.N,Net-(D9-A)*%
X75364840Y-63951000D02*
X76799000Y-63951000D01*
X73850000Y-60900000D02*
X73850000Y-62436160D01*
X76799000Y-63951000D02*
X78250000Y-62500000D01*
X73850000Y-62436160D02*
X75364840Y-63951000D01*
%TO.N,Net-(D10-A)*%
X71250000Y-65800000D02*
X72550000Y-65800000D01*
X75000000Y-66800000D02*
X75000000Y-66500000D01*
X75850000Y-67650000D02*
X75000000Y-66800000D01*
X72550000Y-65800000D02*
X72750000Y-66000000D01*
%TO.N,Net-(D11-A)*%
X73850000Y-78400000D02*
X73850000Y-76863840D01*
X75364840Y-75349000D02*
X76498000Y-75349000D01*
X73850000Y-76863840D02*
X75364840Y-75349000D01*
X77149000Y-76000000D02*
X77149000Y-78749000D01*
X77149000Y-78749000D02*
X78250000Y-79850000D01*
X76498000Y-75349000D02*
X77149000Y-76000000D01*
%TO.N,Net-(D12-A)*%
X75549000Y-82349000D02*
X75850000Y-82650000D01*
X71250000Y-83450000D02*
X72351000Y-82349000D01*
X72351000Y-82349000D02*
X75549000Y-82349000D01*
X75850000Y-82650000D02*
X75850000Y-85400000D01*
%TO.N,Net-(D13-A)*%
X86451000Y-39914840D02*
X86135160Y-39599000D01*
X83650000Y-39900000D02*
X83650000Y-42650000D01*
X88250000Y-44500000D02*
X86451000Y-42701000D01*
X83951000Y-39599000D02*
X83650000Y-39900000D01*
X86451000Y-42701000D02*
X86451000Y-39914840D01*
X86135160Y-39599000D02*
X83951000Y-39599000D01*
%TO.N,Net-(D14-A)*%
X85850000Y-46750000D02*
X85850000Y-49650000D01*
X81250000Y-47800000D02*
X82750000Y-46300000D01*
X82750000Y-46300000D02*
X85400000Y-46300000D01*
X85400000Y-46300000D02*
X85850000Y-46750000D01*
%TO.N,Net-(D15-A)*%
X88250000Y-62500000D02*
X87049000Y-63701000D01*
X83750000Y-63400000D02*
X83750000Y-60650000D01*
X84051000Y-63701000D02*
X83750000Y-63400000D01*
X87049000Y-63701000D02*
X84051000Y-63701000D01*
%TO.N,Net-(D16-A)*%
X85750000Y-67650000D02*
X84850000Y-67650000D01*
X81250000Y-65800000D02*
X81250000Y-66500000D01*
X84850000Y-67650000D02*
X84750000Y-67750000D01*
X81250000Y-66500000D02*
X82500000Y-67750000D01*
%TO.N,Net-(D17-A)*%
X86949000Y-78549000D02*
X88250000Y-79850000D01*
X83650000Y-76863840D02*
X85164840Y-75349000D01*
X86135160Y-75349000D02*
X86949000Y-76162840D01*
X85164840Y-75349000D02*
X86135160Y-75349000D01*
X83650000Y-78400000D02*
X83650000Y-76863840D01*
X86949000Y-76162840D02*
X86949000Y-78549000D01*
%TO.N,Net-(D18-A)*%
X85850000Y-83863840D02*
X84335160Y-82349000D01*
X85850000Y-85400000D02*
X85850000Y-83863840D01*
X84335160Y-82349000D02*
X82851000Y-82349000D01*
X82851000Y-82349000D02*
X81250000Y-83950000D01*
D38*
%TO.N,S2_out1*%
X45500000Y-50500000D02*
X45500000Y-44000000D01*
X47863600Y-41636400D02*
X51000000Y-41636400D01*
X43500000Y-52500000D02*
X45500000Y-50500000D01*
X45500000Y-44000000D02*
X47863600Y-41636400D01*
%TO.N,S1_out2*%
X52463600Y-37963600D02*
X51000000Y-37963600D01*
X52500000Y-38000000D02*
X52463600Y-37963600D01*
%TO.N,S2_out2*%
X52719128Y-39814576D02*
X51940952Y-39036400D01*
X52719128Y-40219128D02*
X52719128Y-39814576D01*
X51940952Y-39036400D02*
X51000000Y-39036400D01*
D33*
%TO.N,S1_in1*%
X56287500Y-46000000D02*
X56362500Y-46075000D01*
X55250000Y-46000000D02*
X56287500Y-46000000D01*
X56625000Y-36875000D02*
X56500000Y-37000000D01*
X58000000Y-36875000D02*
X56625000Y-36875000D01*
%TO.N,S2_in2*%
X50905000Y-47345000D02*
X50637500Y-47345000D01*
X52500000Y-45750000D02*
X50905000Y-47345000D01*
X54500000Y-40500000D02*
X54500000Y-41500000D01*
X53302000Y-42948000D02*
X52500000Y-43750000D01*
X53302000Y-42698000D02*
X53302000Y-42948000D01*
X54500000Y-41500000D02*
X53302000Y-42698000D01*
X54875000Y-40125000D02*
X54500000Y-40500000D01*
X52500000Y-43750000D02*
X52500000Y-45750000D01*
X58000000Y-40125000D02*
X54875000Y-40125000D01*
D38*
%TO.N,S1_out1*%
X52500000Y-35000000D02*
X51075000Y-35000000D01*
X51075000Y-35000000D02*
X51000000Y-34925000D01*
X51075000Y-35363600D02*
X51000000Y-35363600D01*
X51075000Y-35000000D02*
X51075000Y-35363600D01*
D33*
%TO.N,S1_in2*%
X52500000Y-42000000D02*
X52500000Y-42500000D01*
X51637500Y-43805000D02*
X50637500Y-44805000D01*
X54775000Y-36225000D02*
X53500000Y-37500000D01*
X53500000Y-41000000D02*
X52500000Y-42000000D01*
X51637500Y-43362500D02*
X51637500Y-43805000D01*
X53500000Y-37500000D02*
X53500000Y-41000000D01*
X58000000Y-36225000D02*
X54775000Y-36225000D01*
X52500000Y-42500000D02*
X51637500Y-43362500D01*
D35*
%TO.N,S3_out2*%
X52085200Y-59085200D02*
X50750000Y-59085200D01*
X52250000Y-59250000D02*
X52035200Y-59464800D01*
X52250000Y-59250000D02*
X52085200Y-59085200D01*
X52035200Y-59464800D02*
X50750000Y-59464800D01*
D33*
%TO.N,S4_in1*%
X50792500Y-51000000D02*
X52432900Y-51000000D01*
X53750000Y-54567100D02*
X53750000Y-59500000D01*
X52432900Y-51000000D02*
X53466450Y-52033550D01*
X50637500Y-51155000D02*
X50792500Y-51000000D01*
X53750000Y-59500000D02*
X55150000Y-60900000D01*
X55150000Y-60900000D02*
X57750000Y-60900000D01*
X53466450Y-52033550D02*
X53466450Y-54283550D01*
X53466450Y-54283550D02*
X53750000Y-54567100D01*
%TO.N,S3_in2*%
X54000000Y-52000000D02*
X54000000Y-54250000D01*
X50772500Y-49750000D02*
X51750000Y-49750000D01*
X54000000Y-54250000D02*
X55750000Y-56000000D01*
X50637500Y-49885000D02*
X50772500Y-49750000D01*
X55750000Y-56599999D02*
X56800001Y-57650000D01*
X56800001Y-57650000D02*
X57750000Y-57650000D01*
X51750000Y-49750000D02*
X54000000Y-52000000D01*
X55750000Y-56000000D02*
X55750000Y-56599999D01*
D35*
%TO.N,S4_out2*%
X47864800Y-60385200D02*
X50750000Y-60385200D01*
X43500000Y-67750000D02*
X46000000Y-65250000D01*
X46000000Y-62250000D02*
X47864800Y-60385200D01*
X43500000Y-69500000D02*
X43500000Y-67750000D01*
X46000000Y-65250000D02*
X46000000Y-62250000D01*
X50750000Y-60385200D02*
X50750000Y-60764800D01*
%TO.N,S3_out1*%
X50750000Y-56350000D02*
X50750000Y-56864800D01*
X52350000Y-56350000D02*
X52500000Y-56500000D01*
X50750000Y-56350000D02*
X52350000Y-56350000D01*
D33*
%TO.N,S3_in1*%
X59500000Y-55250000D02*
X59500000Y-57499999D01*
X51374999Y-48615000D02*
X54500000Y-51740001D01*
X59000000Y-54750000D02*
X59500000Y-55250000D01*
X50637500Y-48615000D02*
X51374999Y-48615000D01*
X59500000Y-57499999D02*
X58699999Y-58300000D01*
X55250000Y-54750000D02*
X59000000Y-54750000D01*
X54500000Y-54000000D02*
X55250000Y-54750000D01*
X58699999Y-58300000D02*
X57750000Y-58300000D01*
X54500000Y-51740001D02*
X54500000Y-54000000D01*
D35*
%TO.N,S4_out1*%
X50500000Y-64750000D02*
X50500000Y-63100000D01*
X50500000Y-63750000D02*
X50750000Y-63500000D01*
X50500000Y-63100000D02*
X50614800Y-62985200D01*
X50500000Y-64750000D02*
X50500000Y-63750000D01*
X50614800Y-62985200D02*
X50750000Y-62985200D01*
D33*
%TO.N,S4_in2*%
X57750000Y-61550000D02*
X55050000Y-61550000D01*
X52425000Y-52425000D02*
X50637500Y-52425000D01*
X53000000Y-54750000D02*
X53000000Y-53000000D01*
X53250000Y-59750000D02*
X53250000Y-55000000D01*
X53250000Y-55000000D02*
X53000000Y-54750000D01*
X55050000Y-61550000D02*
X53250000Y-59750000D01*
X53000000Y-53000000D02*
X52425000Y-52425000D01*
D35*
%TO.N,S6_out2*%
X45750000Y-85750000D02*
X48606200Y-82893800D01*
X45750000Y-89250000D02*
X45750000Y-85750000D01*
X48606200Y-82893800D02*
X50500000Y-82893800D01*
X43500000Y-91500000D02*
X45750000Y-89250000D01*
X49433600Y-82460200D02*
X50500000Y-82460200D01*
X48606200Y-82893800D02*
X49000000Y-82893800D01*
X49000000Y-82893800D02*
X49433600Y-82460200D01*
D33*
%TO.N,S6_in2*%
X54000000Y-86175001D02*
X54000000Y-88859990D01*
X57500000Y-83625000D02*
X56550001Y-83625000D01*
X54000000Y-88859990D02*
X51264990Y-91595000D01*
X56550001Y-83625000D02*
X54000000Y-86175001D01*
X51264990Y-91595000D02*
X51137500Y-91595000D01*
D35*
%TO.N,S5_out1*%
X48750000Y-78750000D02*
X50175000Y-78750000D01*
X50175000Y-78750000D02*
X50500000Y-78425000D01*
X50500000Y-78425000D02*
X50500000Y-78939800D01*
%TO.N,S5_out2*%
X51960200Y-81539800D02*
X50500000Y-81539800D01*
X52160200Y-81160200D02*
X50500000Y-81160200D01*
X52250000Y-81250000D02*
X51960200Y-81539800D01*
X52250000Y-81250000D02*
X52160200Y-81160200D01*
%TO.N,S6_out1*%
X50250000Y-86750000D02*
X50250000Y-85825000D01*
X50250000Y-85825000D02*
X50500000Y-85575000D01*
X50500000Y-85575000D02*
X50500000Y-85006200D01*
D33*
%TO.N,S6_in1*%
X52750000Y-89000000D02*
X51425000Y-90325000D01*
X53500000Y-87750000D02*
X52750000Y-88500000D01*
X52750000Y-88500000D02*
X52750000Y-89000000D01*
X51425000Y-90325000D02*
X51137500Y-90325000D01*
X56550001Y-82975000D02*
X53500000Y-86025001D01*
X53500000Y-86025001D02*
X53500000Y-87750000D01*
X57500000Y-82975000D02*
X56550001Y-82975000D01*
%TO.N,S5_in2*%
X53000000Y-81750000D02*
X53000000Y-87192500D01*
X57500000Y-79725000D02*
X55025000Y-79725000D01*
X55025000Y-79725000D02*
X53000000Y-81750000D01*
X53000000Y-87192500D02*
X51137500Y-89055000D01*
%TO.N,S5_in1*%
X55250000Y-89750000D02*
X55825000Y-90325000D01*
X55825000Y-90325000D02*
X56862500Y-90325000D01*
X55250000Y-86750000D02*
X55250000Y-89750000D01*
D35*
%TO.N,S8_out1*%
X43500000Y-118500000D02*
X45750000Y-116250000D01*
X49312600Y-108075000D02*
X50500000Y-108075000D01*
X48743800Y-107506200D02*
X50500000Y-107506200D01*
X47250000Y-109250000D02*
X47250000Y-109000000D01*
X45750000Y-110750000D02*
X47250000Y-109250000D01*
X48743800Y-107506200D02*
X49312600Y-108075000D01*
X45750000Y-116250000D02*
X45750000Y-110750000D01*
X47250000Y-109000000D02*
X48743800Y-107506200D01*
%TO.N,S7_out2*%
X48593800Y-104093800D02*
X50500000Y-104093800D01*
X49143800Y-103606200D02*
X50500000Y-103606200D01*
X48500000Y-104000000D02*
X48593800Y-104093800D01*
X48750000Y-104000000D02*
X49143800Y-103606200D01*
X48500000Y-104000000D02*
X48750000Y-104000000D01*
D33*
%TO.N,S7_in2*%
X56475000Y-102225000D02*
X55250000Y-101000000D01*
X53135000Y-94135000D02*
X51137500Y-94135000D01*
X55250000Y-101000000D02*
X55250000Y-96250000D01*
X55250000Y-96250000D02*
X53135000Y-94135000D01*
X57500000Y-102225000D02*
X56475000Y-102225000D01*
%TO.N,S8_in2*%
X51874999Y-96675000D02*
X53750000Y-98550001D01*
X53750000Y-104500000D02*
X55375000Y-106125000D01*
X55375000Y-106125000D02*
X57500000Y-106125000D01*
X51137500Y-96675000D02*
X51874999Y-96675000D01*
X53750000Y-98550001D02*
X53750000Y-104500000D01*
D35*
%TO.N,S7_out1*%
X47756200Y-101493800D02*
X48325000Y-100925000D01*
X44500000Y-104750000D02*
X47756200Y-101493800D01*
X44500000Y-106500000D02*
X44500000Y-104750000D01*
X47756200Y-101493800D02*
X50500000Y-101493800D01*
X43500000Y-107500000D02*
X44500000Y-106500000D01*
X48325000Y-100925000D02*
X50500000Y-100925000D01*
D33*
%TO.N,S7_in1*%
X54750000Y-97000000D02*
X54750000Y-101074999D01*
X54750000Y-101074999D02*
X56550001Y-102875000D01*
X52115000Y-92865000D02*
X52500000Y-93250000D01*
X56550001Y-102875000D02*
X57500000Y-102875000D01*
X52500000Y-94750000D02*
X54750000Y-97000000D01*
X51137500Y-92865000D02*
X52115000Y-92865000D01*
X52500000Y-93250000D02*
X52500000Y-93500000D01*
D35*
%TO.N,S8_out2*%
X48750000Y-105500000D02*
X48856200Y-105393800D01*
X48856200Y-105393800D02*
X50500000Y-105393800D01*
X49294800Y-104955200D02*
X50500000Y-104955200D01*
X48750000Y-105500000D02*
X49294800Y-104955200D01*
D33*
%TO.N,S8_in1*%
X54250000Y-104250000D02*
X55475000Y-105475000D01*
X51137500Y-95405000D02*
X52405000Y-95405000D01*
X54250000Y-97250000D02*
X54250000Y-104250000D01*
X52405000Y-95405000D02*
X54250000Y-97250000D01*
X55475000Y-105475000D02*
X57500000Y-105475000D01*
D35*
%TO.N,S9_out1*%
X96250000Y-42000000D02*
X97729901Y-42000000D01*
X96250000Y-42000000D02*
X96598700Y-41651300D01*
X96598700Y-41651300D02*
X97950001Y-41651300D01*
X97729901Y-42000000D02*
X97950001Y-42220100D01*
%TO.N,S10_out2*%
X100501300Y-37751300D02*
X100062700Y-38189900D01*
X100062700Y-38189900D02*
X97950001Y-38189900D01*
X103000000Y-40250000D02*
X100501300Y-37751300D01*
X106500000Y-40250000D02*
X103000000Y-40250000D01*
X108500000Y-46000000D02*
X108500000Y-42250000D01*
X100501300Y-37751300D02*
X97950001Y-37751300D01*
X108500000Y-42250000D02*
X106500000Y-40250000D01*
%TO.N,S10_out1*%
X108854900Y-48145100D02*
X110000000Y-47000000D01*
X104000000Y-35250000D02*
X103750000Y-35000000D01*
X105250000Y-48145100D02*
X108854900Y-48145100D01*
X103679900Y-35070100D02*
X103111100Y-35638900D01*
X97950001Y-35070100D02*
X103679900Y-35070100D01*
X103750000Y-35000000D02*
X103679900Y-35070100D01*
X110000000Y-37250000D02*
X108000000Y-35250000D01*
X110000000Y-47000000D02*
X110000000Y-37250000D01*
X108000000Y-35250000D02*
X104000000Y-35250000D01*
X103111100Y-35638900D02*
X97950001Y-35638900D01*
D33*
%TO.N,S9_in2*%
X95500000Y-44520100D02*
X95500000Y-53000000D01*
X96915100Y-54415100D02*
X97750000Y-54415100D01*
X90950001Y-40920100D02*
X91900000Y-40920100D01*
X91900000Y-40920100D02*
X95500000Y-44520100D01*
X95500000Y-53000000D02*
X96915100Y-54415100D01*
D35*
%TO.N,S9_out2*%
X100051300Y-39051300D02*
X97950001Y-39051300D01*
X100000000Y-39051300D02*
X99512400Y-39538900D01*
X103145100Y-42145100D02*
X100051300Y-39051300D01*
X99512400Y-39538900D02*
X97950001Y-39538900D01*
X100051300Y-39051300D02*
X100000000Y-39051300D01*
X105250000Y-42145100D02*
X103145100Y-42145100D01*
D33*
%TO.N,S10_in1*%
X97750000Y-53145100D02*
X96895100Y-53145100D01*
X96895100Y-53145100D02*
X96500000Y-52750000D01*
%TO.N,S9_in1*%
X90950001Y-40270100D02*
X92020100Y-40270100D01*
X92025000Y-53145100D02*
X93395100Y-53145100D01*
X93395100Y-53145100D02*
X93500000Y-53250000D01*
X92020100Y-40270100D02*
X93000000Y-41250000D01*
%TO.N,S10_in2*%
X96000000Y-50750000D02*
X97125100Y-51875100D01*
X90950001Y-37020100D02*
X92270100Y-37020100D01*
X94750000Y-39500000D02*
X94750000Y-43000000D01*
X96000000Y-44250000D02*
X96000000Y-50750000D01*
X92270100Y-37020100D02*
X94750000Y-39500000D01*
X97125100Y-51875100D02*
X97750000Y-51875100D01*
X94750000Y-43000000D02*
X96000000Y-44250000D01*
D35*
%TO.N,S12_out1*%
X109500000Y-59750000D02*
X106000000Y-56250000D01*
X109500000Y-71000000D02*
X109500000Y-59750000D01*
X99413901Y-56250000D02*
X97950001Y-57713900D01*
X106000000Y-56250000D02*
X99413901Y-56250000D01*
X105250000Y-75250000D02*
X109500000Y-71000000D01*
X97950001Y-57145100D02*
X98672550Y-56422550D01*
X98845101Y-56250000D02*
X98672550Y-56422550D01*
X98547550Y-56547550D02*
X97950001Y-57145100D01*
X98672550Y-56422550D02*
X98547550Y-56547550D01*
X106000000Y-56250000D02*
X98845101Y-56250000D01*
%TO.N,S11_out1*%
X98473701Y-64250000D02*
X97950001Y-63726300D01*
X105250000Y-64250000D02*
X98473701Y-64250000D01*
X105250000Y-64250000D02*
X97995101Y-64250000D01*
X97995101Y-64250000D02*
X97950001Y-64295100D01*
D33*
%TO.N,S12_in2*%
X93000000Y-59250000D02*
X92845100Y-59095100D01*
X98795100Y-46795100D02*
X99000000Y-47000000D01*
X94500000Y-59250000D02*
X93000000Y-59250000D01*
X97750000Y-46795100D02*
X98795100Y-46795100D01*
X92845100Y-59095100D02*
X90950001Y-59095100D01*
D35*
%TO.N,S12_out2*%
X99064223Y-59826300D02*
X97950001Y-59826300D01*
X98625623Y-60264900D02*
X97950001Y-60264900D01*
X101250000Y-57640523D02*
X99064223Y-59826300D01*
X101250000Y-57640523D02*
X98625623Y-60264900D01*
X101250000Y-57500000D02*
X101250000Y-57640523D01*
%TO.N,S11_out2*%
X102886100Y-61613900D02*
X102398500Y-61126300D01*
X102886100Y-61613900D02*
X98031201Y-61613900D01*
X105250000Y-59250000D02*
X102886100Y-61613900D01*
X102398500Y-61126300D02*
X97950001Y-61126300D01*
D33*
%TO.N,S11_in2*%
X98452449Y-55750000D02*
X96750000Y-55750000D01*
X95500000Y-57000000D02*
X95500000Y-61500000D01*
X98487499Y-49335100D02*
X99250000Y-50097601D01*
X96750000Y-55750000D02*
X95500000Y-57000000D01*
X94004900Y-62995100D02*
X90950001Y-62995100D01*
X95500000Y-61500000D02*
X94004900Y-62995100D01*
X99250000Y-50097601D02*
X99250000Y-54952449D01*
X97750000Y-49335100D02*
X98487499Y-49335100D01*
X99250000Y-54952449D02*
X98452449Y-55750000D01*
%TO.N,S12_in1*%
X93245100Y-59745100D02*
X90950001Y-59745100D01*
X93250000Y-59750000D02*
X93245100Y-59745100D01*
X95000000Y-50250000D02*
X95000000Y-52000000D01*
X92500000Y-59750000D02*
X94000000Y-59750000D01*
X96684900Y-48065100D02*
X96500000Y-48250000D01*
X97750000Y-48065100D02*
X96684900Y-48065100D01*
X94000000Y-59750000D02*
X93250000Y-59750000D01*
%TO.N,S11_in1*%
X95250000Y-56000000D02*
X95250000Y-56682900D01*
X98325231Y-55250000D02*
X96000000Y-55250000D01*
X96000000Y-55250000D02*
X95250000Y-56000000D01*
X98788500Y-54786731D02*
X98325231Y-55250000D01*
X95099000Y-56833900D02*
X95099000Y-60901000D01*
X95099000Y-60901000D02*
X93654900Y-62345100D01*
X97750000Y-50605100D02*
X98487499Y-50605100D01*
X98487499Y-50605100D02*
X98788500Y-50906101D01*
X95250000Y-56682900D02*
X95099000Y-56833900D01*
X93654900Y-62345100D02*
X90950001Y-62345100D01*
X98788500Y-50906101D02*
X98788500Y-54786731D01*
D35*
%TO.N,S14_out1*%
X108250000Y-80000000D02*
X107000000Y-78750000D01*
X99570100Y-79070100D02*
X97950001Y-79070100D01*
X105250000Y-97250000D02*
X108250000Y-94250000D01*
X108250000Y-94250000D02*
X108250000Y-80000000D01*
X107000000Y-78750000D02*
X100250000Y-78750000D01*
X100250000Y-78750000D02*
X99750000Y-79250000D01*
X99361100Y-79638900D02*
X97950001Y-79638900D01*
X99750000Y-79250000D02*
X99361100Y-79638900D01*
X99750000Y-79250000D02*
X99570100Y-79070100D01*
%TO.N,S14_out2*%
X100000000Y-82189900D02*
X97950001Y-82189900D01*
X99748700Y-81751300D02*
X97950001Y-81751300D01*
X100250000Y-81939900D02*
X100000000Y-82189900D01*
X100250000Y-81500000D02*
X100000000Y-81500000D01*
X100000000Y-81500000D02*
X99748700Y-81751300D01*
X100250000Y-81500000D02*
X100250000Y-81939900D01*
%TO.N,S13_out2*%
X103161101Y-83538900D02*
X102673501Y-83051300D01*
X103161101Y-83538900D02*
X97950001Y-83538900D01*
X105450001Y-81250000D02*
X103161101Y-83538900D01*
X102673501Y-83051300D02*
X97950001Y-83051300D01*
%TO.N,S13_out1*%
X99000000Y-86220100D02*
X105420101Y-86220100D01*
X99000000Y-86220100D02*
X98600001Y-86220100D01*
X97950001Y-86220100D02*
X99000000Y-86220100D01*
X98031201Y-85651300D02*
X97950001Y-85651300D01*
X98600001Y-86220100D02*
X98031201Y-85651300D01*
X105420101Y-86220100D02*
X105450001Y-86250000D01*
D33*
%TO.N,S14_in2*%
X93020100Y-81020100D02*
X95250000Y-83250000D01*
X95250000Y-83250000D02*
X95250000Y-94250000D01*
X95250000Y-94250000D02*
X96550100Y-95550100D01*
X90950001Y-81020100D02*
X93020100Y-81020100D01*
X96550100Y-95550100D02*
X97812501Y-95550100D01*
%TO.N,S14_in1*%
X94849000Y-94594098D02*
X97075002Y-96820100D01*
X94849000Y-83599000D02*
X94849000Y-94594098D01*
X97075002Y-96820100D02*
X97812501Y-96820100D01*
X92920100Y-81670100D02*
X94849000Y-83599000D01*
X90950001Y-81670100D02*
X92920100Y-81670100D01*
%TO.N,S13_in1*%
X92020100Y-84270100D02*
X94250000Y-86500000D01*
X90950001Y-84270100D02*
X92020100Y-84270100D01*
X93500000Y-96750000D02*
X92157601Y-96750000D01*
X92157601Y-96750000D02*
X92087501Y-96820100D01*
%TO.N,S13_in2*%
X91920100Y-84920100D02*
X94448000Y-87448000D01*
X97075002Y-98090100D02*
X97812501Y-98090100D01*
X94448000Y-95463098D02*
X97075002Y-98090100D01*
X94448000Y-87448000D02*
X94448000Y-95463098D01*
X90950001Y-84920100D02*
X91920100Y-84920100D01*
%TO.N,S16_in2*%
X97029900Y-90470100D02*
X96000000Y-91500000D01*
X90450001Y-102945100D02*
X91804900Y-102945100D01*
X91804900Y-102945100D02*
X92000000Y-102750000D01*
X97812501Y-90470100D02*
X97029900Y-90470100D01*
D35*
%TO.N,S15_out2*%
X104950001Y-103145100D02*
X102631201Y-105463900D01*
X101262400Y-104976300D02*
X97450001Y-104976300D01*
X102631201Y-105463900D02*
X102500000Y-105463900D01*
X102500000Y-105463900D02*
X101750000Y-105463900D01*
X102500000Y-105463900D02*
X97531201Y-105463900D01*
X101750000Y-105463900D02*
X101262400Y-104976300D01*
D33*
%TO.N,S15_in1*%
X98550000Y-94280100D02*
X99000000Y-94730100D01*
X93000000Y-102000000D02*
X93000000Y-104519499D01*
X99000000Y-94730100D02*
X99000000Y-98750000D01*
X95750000Y-99250000D02*
X93000000Y-102000000D01*
X99000000Y-98750000D02*
X98500000Y-99250000D01*
X91324399Y-106195100D02*
X90450001Y-106195100D01*
X93000000Y-104519499D02*
X91324399Y-106195100D01*
X97812501Y-94280100D02*
X98550000Y-94280100D01*
X98500000Y-99250000D02*
X95750000Y-99250000D01*
D35*
%TO.N,S15_out1*%
X104950001Y-108145100D02*
X104500000Y-108145100D01*
X104950001Y-108145100D02*
X97450001Y-108145100D01*
X104500000Y-108145100D02*
X103931200Y-107576300D01*
X103931200Y-107576300D02*
X97450001Y-107576300D01*
%TO.N,S16_out2*%
X99323700Y-103676300D02*
X99000000Y-103676300D01*
X98561400Y-104114900D02*
X97450001Y-104114900D01*
X99323700Y-103676300D02*
X97450001Y-103676300D01*
X99000000Y-103676300D02*
X98561400Y-104114900D01*
X99500000Y-103500000D02*
X99323700Y-103676300D01*
%TO.N,S16_out1*%
X108500000Y-104250000D02*
X108250000Y-104000000D01*
X103754900Y-100995100D02*
X103250000Y-100995100D01*
X104000000Y-100750000D02*
X103754900Y-100995100D01*
X103000000Y-100995100D02*
X102431200Y-101563900D01*
X102431200Y-101563900D02*
X97450001Y-101563900D01*
X108500000Y-115700001D02*
X108500000Y-104250000D01*
X106250000Y-100750000D02*
X104000000Y-100750000D01*
X103250000Y-100995100D02*
X97450001Y-100995100D01*
X103250000Y-100995100D02*
X103000000Y-100995100D01*
X108250000Y-104000000D02*
X108250000Y-102750000D01*
X104950001Y-119250000D02*
X108500000Y-115700001D01*
X108250000Y-102750000D02*
X106250000Y-100750000D01*
D33*
%TO.N,S15_in2*%
X97812501Y-93010100D02*
X98550000Y-93010100D01*
X98567100Y-99750000D02*
X96000000Y-99750000D01*
X99500000Y-98817100D02*
X98567100Y-99750000D01*
X99500000Y-93960100D02*
X99500000Y-98817100D01*
X93401000Y-102349000D02*
X93401000Y-104844100D01*
X98550000Y-93010100D02*
X99500000Y-93960100D01*
X91400000Y-106845100D02*
X90450001Y-106845100D01*
X93401000Y-104844100D02*
X91400000Y-106845100D01*
X96000000Y-99750000D02*
X93401000Y-102349000D01*
%TO.N,S16_in1*%
X97812501Y-91740100D02*
X96759900Y-91740100D01*
X90450001Y-103595100D02*
X91904900Y-103595100D01*
X96250000Y-92250000D02*
X96250000Y-94000000D01*
X96759900Y-91740100D02*
X96250000Y-92250000D01*
X91904900Y-103595100D02*
X92000000Y-103500000D01*
D35*
%TO.N,S18_out1*%
X104679900Y-122820100D02*
X97750000Y-122820100D01*
X107000000Y-122750000D02*
X105250000Y-122750000D01*
X108750000Y-137450001D02*
X108750000Y-124500000D01*
X105250000Y-122750000D02*
X104611100Y-123388900D01*
X104950001Y-141250000D02*
X108750000Y-137450001D01*
X104611100Y-123388900D02*
X97750000Y-123388900D01*
X108750000Y-124500000D02*
X107000000Y-122750000D01*
X104750000Y-122750000D02*
X104679900Y-122820100D01*
X105250000Y-122750000D02*
X104750000Y-122750000D01*
D33*
%TO.N,S17_in1*%
X87929900Y-118820100D02*
X85000000Y-121750000D01*
X85000000Y-126750000D02*
X85750000Y-127500000D01*
X90750000Y-128020100D02*
X89270100Y-128020100D01*
X91387500Y-118820100D02*
X87929900Y-118820100D01*
X85000000Y-121750000D02*
X85000000Y-126750000D01*
X89270100Y-128020100D02*
X89250000Y-128000000D01*
%TO.N,S18_in1*%
X97112500Y-118820100D02*
X96375001Y-118820100D01*
X92579900Y-125420100D02*
X90750000Y-125420100D01*
X96375001Y-118820100D02*
X93500000Y-121695101D01*
X93500000Y-121695101D02*
X93500000Y-124500000D01*
X93500000Y-124500000D02*
X92579900Y-125420100D01*
D35*
%TO.N,S17_out1*%
X104950001Y-130250000D02*
X98029900Y-130250000D01*
X104950001Y-130250000D02*
X98598700Y-130250000D01*
X98029900Y-130250000D02*
X97750000Y-129970100D01*
X98598700Y-130250000D02*
X97750000Y-129401300D01*
%TO.N,S18_out2*%
X99750000Y-125500000D02*
X99748700Y-125501300D01*
X99748700Y-125501300D02*
X97750000Y-125501300D01*
X99310100Y-125939900D02*
X97750000Y-125939900D01*
X99748700Y-125501300D02*
X99310100Y-125939900D01*
D33*
%TO.N,S17_in2*%
X94000000Y-123202600D02*
X94000000Y-127750000D01*
X97112500Y-120090100D02*
X94000000Y-123202600D01*
X94000000Y-127750000D02*
X93079900Y-128670100D01*
X93079900Y-128670100D02*
X90750000Y-128670100D01*
%TO.N,S18_in2*%
X93000000Y-121000000D02*
X93000000Y-123750000D01*
X96449900Y-117550100D02*
X93000000Y-121000000D01*
X91979900Y-124770100D02*
X90750000Y-124770100D01*
X93000000Y-123750000D02*
X91979900Y-124770100D01*
X97112500Y-117550100D02*
X96449900Y-117550100D01*
D35*
%TO.N,S17_out2*%
X104950001Y-125250000D02*
X103398701Y-126801300D01*
X104950001Y-125250000D02*
X102911101Y-127288900D01*
X103398701Y-126801300D02*
X97750000Y-126801300D01*
X102911101Y-127288900D02*
X97831200Y-127288900D01*
D33*
%TO.N,Overflow1*%
X57555000Y-53695000D02*
X57750000Y-53500000D01*
X59250000Y-71500000D02*
X58250000Y-70500000D01*
X59250000Y-90500000D02*
X59250000Y-71500000D01*
X58155000Y-91595000D02*
X59250000Y-90500000D01*
X56862500Y-91595000D02*
X58155000Y-91595000D01*
X56362500Y-53695000D02*
X57555000Y-53695000D01*
%TO.N,Row6*%
X60750000Y-115750000D02*
X61250000Y-115250000D01*
X65301000Y-89451000D02*
X63750000Y-87900000D01*
X62000000Y-85250000D02*
X63650000Y-85250000D01*
X82000000Y-90000000D02*
X76000000Y-90000000D01*
X83850000Y-85400000D02*
X83850000Y-88150000D01*
X76000000Y-90000000D02*
X73850000Y-87850000D01*
X73850000Y-85400000D02*
X73850000Y-87836160D01*
X63750000Y-87900000D02*
X63750000Y-85150000D01*
X73850000Y-87836160D02*
X72235160Y-89451000D01*
X58250000Y-116500000D02*
X59000000Y-115750000D01*
X63650000Y-85250000D02*
X63750000Y-85150000D01*
X60500000Y-115750000D02*
X60750000Y-115750000D01*
X73850000Y-87850000D02*
X73850000Y-85400000D01*
X83850000Y-88150000D02*
X82000000Y-90000000D01*
X59000000Y-115750000D02*
X60500000Y-115750000D01*
X72235160Y-89451000D02*
X65301000Y-89451000D01*
%TO.N,Overflow2*%
X90000000Y-52250000D02*
X90750000Y-52250000D01*
X57305000Y-97945000D02*
X59000000Y-96250000D01*
X90750000Y-52250000D02*
X91124900Y-51875100D01*
X59000000Y-94750000D02*
X60250000Y-93500000D01*
X91124900Y-51875100D02*
X92025000Y-51875100D01*
X56862500Y-97945000D02*
X57305000Y-97945000D01*
X59000000Y-96250000D02*
X59000000Y-94750000D01*
X60250000Y-93500000D02*
X61750000Y-93500000D01*
%TO.N,Overflow3*%
X92025000Y-45525100D02*
X92025000Y-44775000D01*
X92000000Y-44750000D02*
X92025000Y-44775000D01*
X90550100Y-95550100D02*
X90500000Y-95500000D01*
X92087501Y-95550100D02*
X90550100Y-95550100D01*
%TO.N,Row5*%
X59500000Y-123750000D02*
X59750000Y-123500000D01*
X58250000Y-123750000D02*
X59500000Y-123750000D01*
X74335160Y-81451000D02*
X66301000Y-81451000D01*
X66301000Y-81451000D02*
X65750000Y-80900000D01*
X64750000Y-77150000D02*
X65750000Y-78150000D01*
X75850000Y-78400000D02*
X75850000Y-79936160D01*
X85650000Y-81150000D02*
X85300000Y-81500000D01*
X64500000Y-74000000D02*
X64750000Y-74250000D01*
X76200000Y-81500000D02*
X75850000Y-81150000D01*
X75850000Y-79936160D02*
X74335160Y-81451000D01*
X75850000Y-81150000D02*
X75850000Y-78400000D01*
X85650000Y-78400000D02*
X85650000Y-81150000D01*
X85300000Y-81500000D02*
X76200000Y-81500000D01*
X62750000Y-74000000D02*
X64500000Y-74000000D01*
X65750000Y-80900000D02*
X65750000Y-78150000D01*
X64750000Y-76500000D02*
X64750000Y-77150000D01*
%TO.N,Overflow4*%
X90050100Y-117550100D02*
X90000000Y-117500000D01*
X92087501Y-89200100D02*
X91299900Y-89200100D01*
X91299900Y-89200100D02*
X90250000Y-90250000D01*
X91387500Y-117550100D02*
X90050100Y-117550100D01*
%TD*%
M02*
