%TF.GenerationSoftware,KiCad,Pcbnew,9.0.6*%
%TF.CreationDate,2026-03-01T22:32:41-08:00*%
%TF.ProjectId,Tactile Browser,54616374-696c-4652-9042-726f77736572,rev?*%
%TF.SameCoordinates,Original*%
%TF.FileFunction,Legend,Bot*%
%TF.FilePolarity,Positive*%
%FSLAX46Y46*%
G04 Gerber Fmt 4.6, Leading zero omitted, Abs format (unit mm)*
G04 Created by KiCad (PCBNEW 9.0.6) date 2026-03-01 22:32:41*
%MOMM*%
%LPD*%
G01*
G04 APERTURE LIST*
%ADD10C,0.150000*%
%ADD11C,0.120000*%
G04 APERTURE END LIST*
D10*
X110190475Y-62349919D02*
X110190475Y-61349919D01*
X110190475Y-61349919D02*
X109952380Y-61349919D01*
X109952380Y-61349919D02*
X109809523Y-61397538D01*
X109809523Y-61397538D02*
X109714285Y-61492776D01*
X109714285Y-61492776D02*
X109666666Y-61588014D01*
X109666666Y-61588014D02*
X109619047Y-61778490D01*
X109619047Y-61778490D02*
X109619047Y-61921347D01*
X109619047Y-61921347D02*
X109666666Y-62111823D01*
X109666666Y-62111823D02*
X109714285Y-62207061D01*
X109714285Y-62207061D02*
X109809523Y-62302300D01*
X109809523Y-62302300D02*
X109952380Y-62349919D01*
X109952380Y-62349919D02*
X110190475Y-62349919D01*
X109238094Y-62302300D02*
X109095237Y-62349919D01*
X109095237Y-62349919D02*
X108857142Y-62349919D01*
X108857142Y-62349919D02*
X108761904Y-62302300D01*
X108761904Y-62302300D02*
X108714285Y-62254680D01*
X108714285Y-62254680D02*
X108666666Y-62159442D01*
X108666666Y-62159442D02*
X108666666Y-62064204D01*
X108666666Y-62064204D02*
X108714285Y-61968966D01*
X108714285Y-61968966D02*
X108761904Y-61921347D01*
X108761904Y-61921347D02*
X108857142Y-61873728D01*
X108857142Y-61873728D02*
X109047618Y-61826109D01*
X109047618Y-61826109D02*
X109142856Y-61778490D01*
X109142856Y-61778490D02*
X109190475Y-61730871D01*
X109190475Y-61730871D02*
X109238094Y-61635633D01*
X109238094Y-61635633D02*
X109238094Y-61540395D01*
X109238094Y-61540395D02*
X109190475Y-61445157D01*
X109190475Y-61445157D02*
X109142856Y-61397538D01*
X109142856Y-61397538D02*
X109047618Y-61349919D01*
X109047618Y-61349919D02*
X108809523Y-61349919D01*
X108809523Y-61349919D02*
X108666666Y-61397538D01*
X108285713Y-61445157D02*
X108238094Y-61397538D01*
X108238094Y-61397538D02*
X108142856Y-61349919D01*
X108142856Y-61349919D02*
X107904761Y-61349919D01*
X107904761Y-61349919D02*
X107809523Y-61397538D01*
X107809523Y-61397538D02*
X107761904Y-61445157D01*
X107761904Y-61445157D02*
X107714285Y-61540395D01*
X107714285Y-61540395D02*
X107714285Y-61635633D01*
X107714285Y-61635633D02*
X107761904Y-61778490D01*
X107761904Y-61778490D02*
X108333332Y-62349919D01*
X108333332Y-62349919D02*
X107714285Y-62349919D01*
X107333332Y-61445157D02*
X107285713Y-61397538D01*
X107285713Y-61397538D02*
X107190475Y-61349919D01*
X107190475Y-61349919D02*
X106952380Y-61349919D01*
X106952380Y-61349919D02*
X106857142Y-61397538D01*
X106857142Y-61397538D02*
X106809523Y-61445157D01*
X106809523Y-61445157D02*
X106761904Y-61540395D01*
X106761904Y-61540395D02*
X106761904Y-61635633D01*
X106761904Y-61635633D02*
X106809523Y-61778490D01*
X106809523Y-61778490D02*
X107380951Y-62349919D01*
X107380951Y-62349919D02*
X106761904Y-62349919D01*
X41690475Y-83204819D02*
X41690475Y-82204819D01*
X41690475Y-82204819D02*
X41452380Y-82204819D01*
X41452380Y-82204819D02*
X41309523Y-82252438D01*
X41309523Y-82252438D02*
X41214285Y-82347676D01*
X41214285Y-82347676D02*
X41166666Y-82442914D01*
X41166666Y-82442914D02*
X41119047Y-82633390D01*
X41119047Y-82633390D02*
X41119047Y-82776247D01*
X41119047Y-82776247D02*
X41166666Y-82966723D01*
X41166666Y-82966723D02*
X41214285Y-83061961D01*
X41214285Y-83061961D02*
X41309523Y-83157200D01*
X41309523Y-83157200D02*
X41452380Y-83204819D01*
X41452380Y-83204819D02*
X41690475Y-83204819D01*
X40738094Y-83157200D02*
X40595237Y-83204819D01*
X40595237Y-83204819D02*
X40357142Y-83204819D01*
X40357142Y-83204819D02*
X40261904Y-83157200D01*
X40261904Y-83157200D02*
X40214285Y-83109580D01*
X40214285Y-83109580D02*
X40166666Y-83014342D01*
X40166666Y-83014342D02*
X40166666Y-82919104D01*
X40166666Y-82919104D02*
X40214285Y-82823866D01*
X40214285Y-82823866D02*
X40261904Y-82776247D01*
X40261904Y-82776247D02*
X40357142Y-82728628D01*
X40357142Y-82728628D02*
X40547618Y-82681009D01*
X40547618Y-82681009D02*
X40642856Y-82633390D01*
X40642856Y-82633390D02*
X40690475Y-82585771D01*
X40690475Y-82585771D02*
X40738094Y-82490533D01*
X40738094Y-82490533D02*
X40738094Y-82395295D01*
X40738094Y-82395295D02*
X40690475Y-82300057D01*
X40690475Y-82300057D02*
X40642856Y-82252438D01*
X40642856Y-82252438D02*
X40547618Y-82204819D01*
X40547618Y-82204819D02*
X40309523Y-82204819D01*
X40309523Y-82204819D02*
X40166666Y-82252438D01*
X39214285Y-83204819D02*
X39785713Y-83204819D01*
X39499999Y-83204819D02*
X39499999Y-82204819D01*
X39499999Y-82204819D02*
X39595237Y-82347676D01*
X39595237Y-82347676D02*
X39690475Y-82442914D01*
X39690475Y-82442914D02*
X39785713Y-82490533D01*
X38595237Y-82204819D02*
X38499999Y-82204819D01*
X38499999Y-82204819D02*
X38404761Y-82252438D01*
X38404761Y-82252438D02*
X38357142Y-82300057D01*
X38357142Y-82300057D02*
X38309523Y-82395295D01*
X38309523Y-82395295D02*
X38261904Y-82585771D01*
X38261904Y-82585771D02*
X38261904Y-82823866D01*
X38261904Y-82823866D02*
X38309523Y-83014342D01*
X38309523Y-83014342D02*
X38357142Y-83109580D01*
X38357142Y-83109580D02*
X38404761Y-83157200D01*
X38404761Y-83157200D02*
X38499999Y-83204819D01*
X38499999Y-83204819D02*
X38595237Y-83204819D01*
X38595237Y-83204819D02*
X38690475Y-83157200D01*
X38690475Y-83157200D02*
X38738094Y-83109580D01*
X38738094Y-83109580D02*
X38785713Y-83014342D01*
X38785713Y-83014342D02*
X38833332Y-82823866D01*
X38833332Y-82823866D02*
X38833332Y-82585771D01*
X38833332Y-82585771D02*
X38785713Y-82395295D01*
X38785713Y-82395295D02*
X38738094Y-82300057D01*
X38738094Y-82300057D02*
X38690475Y-82252438D01*
X38690475Y-82252438D02*
X38595237Y-82204819D01*
X41214285Y-72454819D02*
X41214285Y-71454819D01*
X41214285Y-71454819D02*
X40976190Y-71454819D01*
X40976190Y-71454819D02*
X40833333Y-71502438D01*
X40833333Y-71502438D02*
X40738095Y-71597676D01*
X40738095Y-71597676D02*
X40690476Y-71692914D01*
X40690476Y-71692914D02*
X40642857Y-71883390D01*
X40642857Y-71883390D02*
X40642857Y-72026247D01*
X40642857Y-72026247D02*
X40690476Y-72216723D01*
X40690476Y-72216723D02*
X40738095Y-72311961D01*
X40738095Y-72311961D02*
X40833333Y-72407200D01*
X40833333Y-72407200D02*
X40976190Y-72454819D01*
X40976190Y-72454819D02*
X41214285Y-72454819D01*
X40261904Y-72407200D02*
X40119047Y-72454819D01*
X40119047Y-72454819D02*
X39880952Y-72454819D01*
X39880952Y-72454819D02*
X39785714Y-72407200D01*
X39785714Y-72407200D02*
X39738095Y-72359580D01*
X39738095Y-72359580D02*
X39690476Y-72264342D01*
X39690476Y-72264342D02*
X39690476Y-72169104D01*
X39690476Y-72169104D02*
X39738095Y-72073866D01*
X39738095Y-72073866D02*
X39785714Y-72026247D01*
X39785714Y-72026247D02*
X39880952Y-71978628D01*
X39880952Y-71978628D02*
X40071428Y-71931009D01*
X40071428Y-71931009D02*
X40166666Y-71883390D01*
X40166666Y-71883390D02*
X40214285Y-71835771D01*
X40214285Y-71835771D02*
X40261904Y-71740533D01*
X40261904Y-71740533D02*
X40261904Y-71645295D01*
X40261904Y-71645295D02*
X40214285Y-71550057D01*
X40214285Y-71550057D02*
X40166666Y-71502438D01*
X40166666Y-71502438D02*
X40071428Y-71454819D01*
X40071428Y-71454819D02*
X39833333Y-71454819D01*
X39833333Y-71454819D02*
X39690476Y-71502438D01*
X39119047Y-71883390D02*
X39214285Y-71835771D01*
X39214285Y-71835771D02*
X39261904Y-71788152D01*
X39261904Y-71788152D02*
X39309523Y-71692914D01*
X39309523Y-71692914D02*
X39309523Y-71645295D01*
X39309523Y-71645295D02*
X39261904Y-71550057D01*
X39261904Y-71550057D02*
X39214285Y-71502438D01*
X39214285Y-71502438D02*
X39119047Y-71454819D01*
X39119047Y-71454819D02*
X38928571Y-71454819D01*
X38928571Y-71454819D02*
X38833333Y-71502438D01*
X38833333Y-71502438D02*
X38785714Y-71550057D01*
X38785714Y-71550057D02*
X38738095Y-71645295D01*
X38738095Y-71645295D02*
X38738095Y-71692914D01*
X38738095Y-71692914D02*
X38785714Y-71788152D01*
X38785714Y-71788152D02*
X38833333Y-71835771D01*
X38833333Y-71835771D02*
X38928571Y-71883390D01*
X38928571Y-71883390D02*
X39119047Y-71883390D01*
X39119047Y-71883390D02*
X39214285Y-71931009D01*
X39214285Y-71931009D02*
X39261904Y-71978628D01*
X39261904Y-71978628D02*
X39309523Y-72073866D01*
X39309523Y-72073866D02*
X39309523Y-72264342D01*
X39309523Y-72264342D02*
X39261904Y-72359580D01*
X39261904Y-72359580D02*
X39214285Y-72407200D01*
X39214285Y-72407200D02*
X39119047Y-72454819D01*
X39119047Y-72454819D02*
X38928571Y-72454819D01*
X38928571Y-72454819D02*
X38833333Y-72407200D01*
X38833333Y-72407200D02*
X38785714Y-72359580D01*
X38785714Y-72359580D02*
X38738095Y-72264342D01*
X38738095Y-72264342D02*
X38738095Y-72073866D01*
X38738095Y-72073866D02*
X38785714Y-71978628D01*
X38785714Y-71978628D02*
X38833333Y-71931009D01*
X38833333Y-71931009D02*
X38928571Y-71883390D01*
X103940475Y-95099919D02*
X103940475Y-94099919D01*
X103940475Y-94099919D02*
X103702380Y-94099919D01*
X103702380Y-94099919D02*
X103559523Y-94147538D01*
X103559523Y-94147538D02*
X103464285Y-94242776D01*
X103464285Y-94242776D02*
X103416666Y-94338014D01*
X103416666Y-94338014D02*
X103369047Y-94528490D01*
X103369047Y-94528490D02*
X103369047Y-94671347D01*
X103369047Y-94671347D02*
X103416666Y-94861823D01*
X103416666Y-94861823D02*
X103464285Y-94957061D01*
X103464285Y-94957061D02*
X103559523Y-95052300D01*
X103559523Y-95052300D02*
X103702380Y-95099919D01*
X103702380Y-95099919D02*
X103940475Y-95099919D01*
X102988094Y-95052300D02*
X102845237Y-95099919D01*
X102845237Y-95099919D02*
X102607142Y-95099919D01*
X102607142Y-95099919D02*
X102511904Y-95052300D01*
X102511904Y-95052300D02*
X102464285Y-95004680D01*
X102464285Y-95004680D02*
X102416666Y-94909442D01*
X102416666Y-94909442D02*
X102416666Y-94814204D01*
X102416666Y-94814204D02*
X102464285Y-94718966D01*
X102464285Y-94718966D02*
X102511904Y-94671347D01*
X102511904Y-94671347D02*
X102607142Y-94623728D01*
X102607142Y-94623728D02*
X102797618Y-94576109D01*
X102797618Y-94576109D02*
X102892856Y-94528490D01*
X102892856Y-94528490D02*
X102940475Y-94480871D01*
X102940475Y-94480871D02*
X102988094Y-94385633D01*
X102988094Y-94385633D02*
X102988094Y-94290395D01*
X102988094Y-94290395D02*
X102940475Y-94195157D01*
X102940475Y-94195157D02*
X102892856Y-94147538D01*
X102892856Y-94147538D02*
X102797618Y-94099919D01*
X102797618Y-94099919D02*
X102559523Y-94099919D01*
X102559523Y-94099919D02*
X102416666Y-94147538D01*
X102035713Y-94195157D02*
X101988094Y-94147538D01*
X101988094Y-94147538D02*
X101892856Y-94099919D01*
X101892856Y-94099919D02*
X101654761Y-94099919D01*
X101654761Y-94099919D02*
X101559523Y-94147538D01*
X101559523Y-94147538D02*
X101511904Y-94195157D01*
X101511904Y-94195157D02*
X101464285Y-94290395D01*
X101464285Y-94290395D02*
X101464285Y-94385633D01*
X101464285Y-94385633D02*
X101511904Y-94528490D01*
X101511904Y-94528490D02*
X102083332Y-95099919D01*
X102083332Y-95099919D02*
X101464285Y-95099919D01*
X101130951Y-94099919D02*
X100464285Y-94099919D01*
X100464285Y-94099919D02*
X100892856Y-95099919D01*
X47964285Y-83204819D02*
X47964285Y-82204819D01*
X47964285Y-82204819D02*
X47726190Y-82204819D01*
X47726190Y-82204819D02*
X47583333Y-82252438D01*
X47583333Y-82252438D02*
X47488095Y-82347676D01*
X47488095Y-82347676D02*
X47440476Y-82442914D01*
X47440476Y-82442914D02*
X47392857Y-82633390D01*
X47392857Y-82633390D02*
X47392857Y-82776247D01*
X47392857Y-82776247D02*
X47440476Y-82966723D01*
X47440476Y-82966723D02*
X47488095Y-83061961D01*
X47488095Y-83061961D02*
X47583333Y-83157200D01*
X47583333Y-83157200D02*
X47726190Y-83204819D01*
X47726190Y-83204819D02*
X47964285Y-83204819D01*
X47011904Y-83157200D02*
X46869047Y-83204819D01*
X46869047Y-83204819D02*
X46630952Y-83204819D01*
X46630952Y-83204819D02*
X46535714Y-83157200D01*
X46535714Y-83157200D02*
X46488095Y-83109580D01*
X46488095Y-83109580D02*
X46440476Y-83014342D01*
X46440476Y-83014342D02*
X46440476Y-82919104D01*
X46440476Y-82919104D02*
X46488095Y-82823866D01*
X46488095Y-82823866D02*
X46535714Y-82776247D01*
X46535714Y-82776247D02*
X46630952Y-82728628D01*
X46630952Y-82728628D02*
X46821428Y-82681009D01*
X46821428Y-82681009D02*
X46916666Y-82633390D01*
X46916666Y-82633390D02*
X46964285Y-82585771D01*
X46964285Y-82585771D02*
X47011904Y-82490533D01*
X47011904Y-82490533D02*
X47011904Y-82395295D01*
X47011904Y-82395295D02*
X46964285Y-82300057D01*
X46964285Y-82300057D02*
X46916666Y-82252438D01*
X46916666Y-82252438D02*
X46821428Y-82204819D01*
X46821428Y-82204819D02*
X46583333Y-82204819D01*
X46583333Y-82204819D02*
X46440476Y-82252438D01*
X45964285Y-83204819D02*
X45773809Y-83204819D01*
X45773809Y-83204819D02*
X45678571Y-83157200D01*
X45678571Y-83157200D02*
X45630952Y-83109580D01*
X45630952Y-83109580D02*
X45535714Y-82966723D01*
X45535714Y-82966723D02*
X45488095Y-82776247D01*
X45488095Y-82776247D02*
X45488095Y-82395295D01*
X45488095Y-82395295D02*
X45535714Y-82300057D01*
X45535714Y-82300057D02*
X45583333Y-82252438D01*
X45583333Y-82252438D02*
X45678571Y-82204819D01*
X45678571Y-82204819D02*
X45869047Y-82204819D01*
X45869047Y-82204819D02*
X45964285Y-82252438D01*
X45964285Y-82252438D02*
X46011904Y-82300057D01*
X46011904Y-82300057D02*
X46059523Y-82395295D01*
X46059523Y-82395295D02*
X46059523Y-82633390D01*
X46059523Y-82633390D02*
X46011904Y-82728628D01*
X46011904Y-82728628D02*
X45964285Y-82776247D01*
X45964285Y-82776247D02*
X45869047Y-82823866D01*
X45869047Y-82823866D02*
X45678571Y-82823866D01*
X45678571Y-82823866D02*
X45583333Y-82776247D01*
X45583333Y-82776247D02*
X45535714Y-82728628D01*
X45535714Y-82728628D02*
X45488095Y-82633390D01*
X109940475Y-139349919D02*
X109940475Y-138349919D01*
X109940475Y-138349919D02*
X109702380Y-138349919D01*
X109702380Y-138349919D02*
X109559523Y-138397538D01*
X109559523Y-138397538D02*
X109464285Y-138492776D01*
X109464285Y-138492776D02*
X109416666Y-138588014D01*
X109416666Y-138588014D02*
X109369047Y-138778490D01*
X109369047Y-138778490D02*
X109369047Y-138921347D01*
X109369047Y-138921347D02*
X109416666Y-139111823D01*
X109416666Y-139111823D02*
X109464285Y-139207061D01*
X109464285Y-139207061D02*
X109559523Y-139302300D01*
X109559523Y-139302300D02*
X109702380Y-139349919D01*
X109702380Y-139349919D02*
X109940475Y-139349919D01*
X108988094Y-139302300D02*
X108845237Y-139349919D01*
X108845237Y-139349919D02*
X108607142Y-139349919D01*
X108607142Y-139349919D02*
X108511904Y-139302300D01*
X108511904Y-139302300D02*
X108464285Y-139254680D01*
X108464285Y-139254680D02*
X108416666Y-139159442D01*
X108416666Y-139159442D02*
X108416666Y-139064204D01*
X108416666Y-139064204D02*
X108464285Y-138968966D01*
X108464285Y-138968966D02*
X108511904Y-138921347D01*
X108511904Y-138921347D02*
X108607142Y-138873728D01*
X108607142Y-138873728D02*
X108797618Y-138826109D01*
X108797618Y-138826109D02*
X108892856Y-138778490D01*
X108892856Y-138778490D02*
X108940475Y-138730871D01*
X108940475Y-138730871D02*
X108988094Y-138635633D01*
X108988094Y-138635633D02*
X108988094Y-138540395D01*
X108988094Y-138540395D02*
X108940475Y-138445157D01*
X108940475Y-138445157D02*
X108892856Y-138397538D01*
X108892856Y-138397538D02*
X108797618Y-138349919D01*
X108797618Y-138349919D02*
X108559523Y-138349919D01*
X108559523Y-138349919D02*
X108416666Y-138397538D01*
X108083332Y-138349919D02*
X107464285Y-138349919D01*
X107464285Y-138349919D02*
X107797618Y-138730871D01*
X107797618Y-138730871D02*
X107654761Y-138730871D01*
X107654761Y-138730871D02*
X107559523Y-138778490D01*
X107559523Y-138778490D02*
X107511904Y-138826109D01*
X107511904Y-138826109D02*
X107464285Y-138921347D01*
X107464285Y-138921347D02*
X107464285Y-139159442D01*
X107464285Y-139159442D02*
X107511904Y-139254680D01*
X107511904Y-139254680D02*
X107559523Y-139302300D01*
X107559523Y-139302300D02*
X107654761Y-139349919D01*
X107654761Y-139349919D02*
X107940475Y-139349919D01*
X107940475Y-139349919D02*
X108035713Y-139302300D01*
X108035713Y-139302300D02*
X108083332Y-139254680D01*
X106607142Y-138349919D02*
X106797618Y-138349919D01*
X106797618Y-138349919D02*
X106892856Y-138397538D01*
X106892856Y-138397538D02*
X106940475Y-138445157D01*
X106940475Y-138445157D02*
X107035713Y-138588014D01*
X107035713Y-138588014D02*
X107083332Y-138778490D01*
X107083332Y-138778490D02*
X107083332Y-139159442D01*
X107083332Y-139159442D02*
X107035713Y-139254680D01*
X107035713Y-139254680D02*
X106988094Y-139302300D01*
X106988094Y-139302300D02*
X106892856Y-139349919D01*
X106892856Y-139349919D02*
X106702380Y-139349919D01*
X106702380Y-139349919D02*
X106607142Y-139302300D01*
X106607142Y-139302300D02*
X106559523Y-139254680D01*
X106559523Y-139254680D02*
X106511904Y-139159442D01*
X106511904Y-139159442D02*
X106511904Y-138921347D01*
X106511904Y-138921347D02*
X106559523Y-138826109D01*
X106559523Y-138826109D02*
X106607142Y-138778490D01*
X106607142Y-138778490D02*
X106702380Y-138730871D01*
X106702380Y-138730871D02*
X106892856Y-138730871D01*
X106892856Y-138730871D02*
X106988094Y-138778490D01*
X106988094Y-138778490D02*
X107035713Y-138826109D01*
X107035713Y-138826109D02*
X107083332Y-138921347D01*
X110440475Y-84099919D02*
X110440475Y-83099919D01*
X110440475Y-83099919D02*
X110202380Y-83099919D01*
X110202380Y-83099919D02*
X110059523Y-83147538D01*
X110059523Y-83147538D02*
X109964285Y-83242776D01*
X109964285Y-83242776D02*
X109916666Y-83338014D01*
X109916666Y-83338014D02*
X109869047Y-83528490D01*
X109869047Y-83528490D02*
X109869047Y-83671347D01*
X109869047Y-83671347D02*
X109916666Y-83861823D01*
X109916666Y-83861823D02*
X109964285Y-83957061D01*
X109964285Y-83957061D02*
X110059523Y-84052300D01*
X110059523Y-84052300D02*
X110202380Y-84099919D01*
X110202380Y-84099919D02*
X110440475Y-84099919D01*
X109488094Y-84052300D02*
X109345237Y-84099919D01*
X109345237Y-84099919D02*
X109107142Y-84099919D01*
X109107142Y-84099919D02*
X109011904Y-84052300D01*
X109011904Y-84052300D02*
X108964285Y-84004680D01*
X108964285Y-84004680D02*
X108916666Y-83909442D01*
X108916666Y-83909442D02*
X108916666Y-83814204D01*
X108916666Y-83814204D02*
X108964285Y-83718966D01*
X108964285Y-83718966D02*
X109011904Y-83671347D01*
X109011904Y-83671347D02*
X109107142Y-83623728D01*
X109107142Y-83623728D02*
X109297618Y-83576109D01*
X109297618Y-83576109D02*
X109392856Y-83528490D01*
X109392856Y-83528490D02*
X109440475Y-83480871D01*
X109440475Y-83480871D02*
X109488094Y-83385633D01*
X109488094Y-83385633D02*
X109488094Y-83290395D01*
X109488094Y-83290395D02*
X109440475Y-83195157D01*
X109440475Y-83195157D02*
X109392856Y-83147538D01*
X109392856Y-83147538D02*
X109297618Y-83099919D01*
X109297618Y-83099919D02*
X109059523Y-83099919D01*
X109059523Y-83099919D02*
X108916666Y-83147538D01*
X108535713Y-83195157D02*
X108488094Y-83147538D01*
X108488094Y-83147538D02*
X108392856Y-83099919D01*
X108392856Y-83099919D02*
X108154761Y-83099919D01*
X108154761Y-83099919D02*
X108059523Y-83147538D01*
X108059523Y-83147538D02*
X108011904Y-83195157D01*
X108011904Y-83195157D02*
X107964285Y-83290395D01*
X107964285Y-83290395D02*
X107964285Y-83385633D01*
X107964285Y-83385633D02*
X108011904Y-83528490D01*
X108011904Y-83528490D02*
X108583332Y-84099919D01*
X108583332Y-84099919D02*
X107964285Y-84099919D01*
X107107142Y-83099919D02*
X107297618Y-83099919D01*
X107297618Y-83099919D02*
X107392856Y-83147538D01*
X107392856Y-83147538D02*
X107440475Y-83195157D01*
X107440475Y-83195157D02*
X107535713Y-83338014D01*
X107535713Y-83338014D02*
X107583332Y-83528490D01*
X107583332Y-83528490D02*
X107583332Y-83909442D01*
X107583332Y-83909442D02*
X107535713Y-84004680D01*
X107535713Y-84004680D02*
X107488094Y-84052300D01*
X107488094Y-84052300D02*
X107392856Y-84099919D01*
X107392856Y-84099919D02*
X107202380Y-84099919D01*
X107202380Y-84099919D02*
X107107142Y-84052300D01*
X107107142Y-84052300D02*
X107059523Y-84004680D01*
X107059523Y-84004680D02*
X107011904Y-83909442D01*
X107011904Y-83909442D02*
X107011904Y-83671347D01*
X107011904Y-83671347D02*
X107059523Y-83576109D01*
X107059523Y-83576109D02*
X107107142Y-83528490D01*
X107107142Y-83528490D02*
X107202380Y-83480871D01*
X107202380Y-83480871D02*
X107392856Y-83480871D01*
X107392856Y-83480871D02*
X107488094Y-83528490D01*
X107488094Y-83528490D02*
X107535713Y-83576109D01*
X107535713Y-83576109D02*
X107583332Y-83671347D01*
X41690475Y-94454819D02*
X41690475Y-93454819D01*
X41690475Y-93454819D02*
X41452380Y-93454819D01*
X41452380Y-93454819D02*
X41309523Y-93502438D01*
X41309523Y-93502438D02*
X41214285Y-93597676D01*
X41214285Y-93597676D02*
X41166666Y-93692914D01*
X41166666Y-93692914D02*
X41119047Y-93883390D01*
X41119047Y-93883390D02*
X41119047Y-94026247D01*
X41119047Y-94026247D02*
X41166666Y-94216723D01*
X41166666Y-94216723D02*
X41214285Y-94311961D01*
X41214285Y-94311961D02*
X41309523Y-94407200D01*
X41309523Y-94407200D02*
X41452380Y-94454819D01*
X41452380Y-94454819D02*
X41690475Y-94454819D01*
X40738094Y-94407200D02*
X40595237Y-94454819D01*
X40595237Y-94454819D02*
X40357142Y-94454819D01*
X40357142Y-94454819D02*
X40261904Y-94407200D01*
X40261904Y-94407200D02*
X40214285Y-94359580D01*
X40214285Y-94359580D02*
X40166666Y-94264342D01*
X40166666Y-94264342D02*
X40166666Y-94169104D01*
X40166666Y-94169104D02*
X40214285Y-94073866D01*
X40214285Y-94073866D02*
X40261904Y-94026247D01*
X40261904Y-94026247D02*
X40357142Y-93978628D01*
X40357142Y-93978628D02*
X40547618Y-93931009D01*
X40547618Y-93931009D02*
X40642856Y-93883390D01*
X40642856Y-93883390D02*
X40690475Y-93835771D01*
X40690475Y-93835771D02*
X40738094Y-93740533D01*
X40738094Y-93740533D02*
X40738094Y-93645295D01*
X40738094Y-93645295D02*
X40690475Y-93550057D01*
X40690475Y-93550057D02*
X40642856Y-93502438D01*
X40642856Y-93502438D02*
X40547618Y-93454819D01*
X40547618Y-93454819D02*
X40309523Y-93454819D01*
X40309523Y-93454819D02*
X40166666Y-93502438D01*
X39214285Y-94454819D02*
X39785713Y-94454819D01*
X39499999Y-94454819D02*
X39499999Y-93454819D01*
X39499999Y-93454819D02*
X39595237Y-93597676D01*
X39595237Y-93597676D02*
X39690475Y-93692914D01*
X39690475Y-93692914D02*
X39785713Y-93740533D01*
X38833332Y-93550057D02*
X38785713Y-93502438D01*
X38785713Y-93502438D02*
X38690475Y-93454819D01*
X38690475Y-93454819D02*
X38452380Y-93454819D01*
X38452380Y-93454819D02*
X38357142Y-93502438D01*
X38357142Y-93502438D02*
X38309523Y-93550057D01*
X38309523Y-93550057D02*
X38261904Y-93645295D01*
X38261904Y-93645295D02*
X38261904Y-93740533D01*
X38261904Y-93740533D02*
X38309523Y-93883390D01*
X38309523Y-93883390D02*
X38880951Y-94454819D01*
X38880951Y-94454819D02*
X38261904Y-94454819D01*
X48214285Y-60954819D02*
X48214285Y-59954819D01*
X48214285Y-59954819D02*
X47976190Y-59954819D01*
X47976190Y-59954819D02*
X47833333Y-60002438D01*
X47833333Y-60002438D02*
X47738095Y-60097676D01*
X47738095Y-60097676D02*
X47690476Y-60192914D01*
X47690476Y-60192914D02*
X47642857Y-60383390D01*
X47642857Y-60383390D02*
X47642857Y-60526247D01*
X47642857Y-60526247D02*
X47690476Y-60716723D01*
X47690476Y-60716723D02*
X47738095Y-60811961D01*
X47738095Y-60811961D02*
X47833333Y-60907200D01*
X47833333Y-60907200D02*
X47976190Y-60954819D01*
X47976190Y-60954819D02*
X48214285Y-60954819D01*
X47261904Y-60907200D02*
X47119047Y-60954819D01*
X47119047Y-60954819D02*
X46880952Y-60954819D01*
X46880952Y-60954819D02*
X46785714Y-60907200D01*
X46785714Y-60907200D02*
X46738095Y-60859580D01*
X46738095Y-60859580D02*
X46690476Y-60764342D01*
X46690476Y-60764342D02*
X46690476Y-60669104D01*
X46690476Y-60669104D02*
X46738095Y-60573866D01*
X46738095Y-60573866D02*
X46785714Y-60526247D01*
X46785714Y-60526247D02*
X46880952Y-60478628D01*
X46880952Y-60478628D02*
X47071428Y-60431009D01*
X47071428Y-60431009D02*
X47166666Y-60383390D01*
X47166666Y-60383390D02*
X47214285Y-60335771D01*
X47214285Y-60335771D02*
X47261904Y-60240533D01*
X47261904Y-60240533D02*
X47261904Y-60145295D01*
X47261904Y-60145295D02*
X47214285Y-60050057D01*
X47214285Y-60050057D02*
X47166666Y-60002438D01*
X47166666Y-60002438D02*
X47071428Y-59954819D01*
X47071428Y-59954819D02*
X46833333Y-59954819D01*
X46833333Y-59954819D02*
X46690476Y-60002438D01*
X45785714Y-59954819D02*
X46261904Y-59954819D01*
X46261904Y-59954819D02*
X46309523Y-60431009D01*
X46309523Y-60431009D02*
X46261904Y-60383390D01*
X46261904Y-60383390D02*
X46166666Y-60335771D01*
X46166666Y-60335771D02*
X45928571Y-60335771D01*
X45928571Y-60335771D02*
X45833333Y-60383390D01*
X45833333Y-60383390D02*
X45785714Y-60431009D01*
X45785714Y-60431009D02*
X45738095Y-60526247D01*
X45738095Y-60526247D02*
X45738095Y-60764342D01*
X45738095Y-60764342D02*
X45785714Y-60859580D01*
X45785714Y-60859580D02*
X45833333Y-60907200D01*
X45833333Y-60907200D02*
X45928571Y-60954819D01*
X45928571Y-60954819D02*
X46166666Y-60954819D01*
X46166666Y-60954819D02*
X46261904Y-60907200D01*
X46261904Y-60907200D02*
X46309523Y-60859580D01*
X48440475Y-116204819D02*
X48440475Y-115204819D01*
X48440475Y-115204819D02*
X48202380Y-115204819D01*
X48202380Y-115204819D02*
X48059523Y-115252438D01*
X48059523Y-115252438D02*
X47964285Y-115347676D01*
X47964285Y-115347676D02*
X47916666Y-115442914D01*
X47916666Y-115442914D02*
X47869047Y-115633390D01*
X47869047Y-115633390D02*
X47869047Y-115776247D01*
X47869047Y-115776247D02*
X47916666Y-115966723D01*
X47916666Y-115966723D02*
X47964285Y-116061961D01*
X47964285Y-116061961D02*
X48059523Y-116157200D01*
X48059523Y-116157200D02*
X48202380Y-116204819D01*
X48202380Y-116204819D02*
X48440475Y-116204819D01*
X47488094Y-116157200D02*
X47345237Y-116204819D01*
X47345237Y-116204819D02*
X47107142Y-116204819D01*
X47107142Y-116204819D02*
X47011904Y-116157200D01*
X47011904Y-116157200D02*
X46964285Y-116109580D01*
X46964285Y-116109580D02*
X46916666Y-116014342D01*
X46916666Y-116014342D02*
X46916666Y-115919104D01*
X46916666Y-115919104D02*
X46964285Y-115823866D01*
X46964285Y-115823866D02*
X47011904Y-115776247D01*
X47011904Y-115776247D02*
X47107142Y-115728628D01*
X47107142Y-115728628D02*
X47297618Y-115681009D01*
X47297618Y-115681009D02*
X47392856Y-115633390D01*
X47392856Y-115633390D02*
X47440475Y-115585771D01*
X47440475Y-115585771D02*
X47488094Y-115490533D01*
X47488094Y-115490533D02*
X47488094Y-115395295D01*
X47488094Y-115395295D02*
X47440475Y-115300057D01*
X47440475Y-115300057D02*
X47392856Y-115252438D01*
X47392856Y-115252438D02*
X47297618Y-115204819D01*
X47297618Y-115204819D02*
X47059523Y-115204819D01*
X47059523Y-115204819D02*
X46916666Y-115252438D01*
X45964285Y-116204819D02*
X46535713Y-116204819D01*
X46249999Y-116204819D02*
X46249999Y-115204819D01*
X46249999Y-115204819D02*
X46345237Y-115347676D01*
X46345237Y-115347676D02*
X46440475Y-115442914D01*
X46440475Y-115442914D02*
X46535713Y-115490533D01*
X45059523Y-115204819D02*
X45535713Y-115204819D01*
X45535713Y-115204819D02*
X45583332Y-115681009D01*
X45583332Y-115681009D02*
X45535713Y-115633390D01*
X45535713Y-115633390D02*
X45440475Y-115585771D01*
X45440475Y-115585771D02*
X45202380Y-115585771D01*
X45202380Y-115585771D02*
X45107142Y-115633390D01*
X45107142Y-115633390D02*
X45059523Y-115681009D01*
X45059523Y-115681009D02*
X45011904Y-115776247D01*
X45011904Y-115776247D02*
X45011904Y-116014342D01*
X45011904Y-116014342D02*
X45059523Y-116109580D01*
X45059523Y-116109580D02*
X45107142Y-116157200D01*
X45107142Y-116157200D02*
X45202380Y-116204819D01*
X45202380Y-116204819D02*
X45440475Y-116204819D01*
X45440475Y-116204819D02*
X45535713Y-116157200D01*
X45535713Y-116157200D02*
X45583332Y-116109580D01*
X103940475Y-51099919D02*
X103940475Y-50099919D01*
X103940475Y-50099919D02*
X103702380Y-50099919D01*
X103702380Y-50099919D02*
X103559523Y-50147538D01*
X103559523Y-50147538D02*
X103464285Y-50242776D01*
X103464285Y-50242776D02*
X103416666Y-50338014D01*
X103416666Y-50338014D02*
X103369047Y-50528490D01*
X103369047Y-50528490D02*
X103369047Y-50671347D01*
X103369047Y-50671347D02*
X103416666Y-50861823D01*
X103416666Y-50861823D02*
X103464285Y-50957061D01*
X103464285Y-50957061D02*
X103559523Y-51052300D01*
X103559523Y-51052300D02*
X103702380Y-51099919D01*
X103702380Y-51099919D02*
X103940475Y-51099919D01*
X102988094Y-51052300D02*
X102845237Y-51099919D01*
X102845237Y-51099919D02*
X102607142Y-51099919D01*
X102607142Y-51099919D02*
X102511904Y-51052300D01*
X102511904Y-51052300D02*
X102464285Y-51004680D01*
X102464285Y-51004680D02*
X102416666Y-50909442D01*
X102416666Y-50909442D02*
X102416666Y-50814204D01*
X102416666Y-50814204D02*
X102464285Y-50718966D01*
X102464285Y-50718966D02*
X102511904Y-50671347D01*
X102511904Y-50671347D02*
X102607142Y-50623728D01*
X102607142Y-50623728D02*
X102797618Y-50576109D01*
X102797618Y-50576109D02*
X102892856Y-50528490D01*
X102892856Y-50528490D02*
X102940475Y-50480871D01*
X102940475Y-50480871D02*
X102988094Y-50385633D01*
X102988094Y-50385633D02*
X102988094Y-50290395D01*
X102988094Y-50290395D02*
X102940475Y-50195157D01*
X102940475Y-50195157D02*
X102892856Y-50147538D01*
X102892856Y-50147538D02*
X102797618Y-50099919D01*
X102797618Y-50099919D02*
X102559523Y-50099919D01*
X102559523Y-50099919D02*
X102416666Y-50147538D01*
X101464285Y-51099919D02*
X102035713Y-51099919D01*
X101749999Y-51099919D02*
X101749999Y-50099919D01*
X101749999Y-50099919D02*
X101845237Y-50242776D01*
X101845237Y-50242776D02*
X101940475Y-50338014D01*
X101940475Y-50338014D02*
X102035713Y-50385633D01*
X100988094Y-51099919D02*
X100797618Y-51099919D01*
X100797618Y-51099919D02*
X100702380Y-51052300D01*
X100702380Y-51052300D02*
X100654761Y-51004680D01*
X100654761Y-51004680D02*
X100559523Y-50861823D01*
X100559523Y-50861823D02*
X100511904Y-50671347D01*
X100511904Y-50671347D02*
X100511904Y-50290395D01*
X100511904Y-50290395D02*
X100559523Y-50195157D01*
X100559523Y-50195157D02*
X100607142Y-50147538D01*
X100607142Y-50147538D02*
X100702380Y-50099919D01*
X100702380Y-50099919D02*
X100892856Y-50099919D01*
X100892856Y-50099919D02*
X100988094Y-50147538D01*
X100988094Y-50147538D02*
X101035713Y-50195157D01*
X101035713Y-50195157D02*
X101083332Y-50290395D01*
X101083332Y-50290395D02*
X101083332Y-50528490D01*
X101083332Y-50528490D02*
X101035713Y-50623728D01*
X101035713Y-50623728D02*
X100988094Y-50671347D01*
X100988094Y-50671347D02*
X100892856Y-50718966D01*
X100892856Y-50718966D02*
X100702380Y-50718966D01*
X100702380Y-50718966D02*
X100607142Y-50671347D01*
X100607142Y-50671347D02*
X100559523Y-50623728D01*
X100559523Y-50623728D02*
X100511904Y-50528490D01*
X109940475Y-106099919D02*
X109940475Y-105099919D01*
X109940475Y-105099919D02*
X109702380Y-105099919D01*
X109702380Y-105099919D02*
X109559523Y-105147538D01*
X109559523Y-105147538D02*
X109464285Y-105242776D01*
X109464285Y-105242776D02*
X109416666Y-105338014D01*
X109416666Y-105338014D02*
X109369047Y-105528490D01*
X109369047Y-105528490D02*
X109369047Y-105671347D01*
X109369047Y-105671347D02*
X109416666Y-105861823D01*
X109416666Y-105861823D02*
X109464285Y-105957061D01*
X109464285Y-105957061D02*
X109559523Y-106052300D01*
X109559523Y-106052300D02*
X109702380Y-106099919D01*
X109702380Y-106099919D02*
X109940475Y-106099919D01*
X108988094Y-106052300D02*
X108845237Y-106099919D01*
X108845237Y-106099919D02*
X108607142Y-106099919D01*
X108607142Y-106099919D02*
X108511904Y-106052300D01*
X108511904Y-106052300D02*
X108464285Y-106004680D01*
X108464285Y-106004680D02*
X108416666Y-105909442D01*
X108416666Y-105909442D02*
X108416666Y-105814204D01*
X108416666Y-105814204D02*
X108464285Y-105718966D01*
X108464285Y-105718966D02*
X108511904Y-105671347D01*
X108511904Y-105671347D02*
X108607142Y-105623728D01*
X108607142Y-105623728D02*
X108797618Y-105576109D01*
X108797618Y-105576109D02*
X108892856Y-105528490D01*
X108892856Y-105528490D02*
X108940475Y-105480871D01*
X108940475Y-105480871D02*
X108988094Y-105385633D01*
X108988094Y-105385633D02*
X108988094Y-105290395D01*
X108988094Y-105290395D02*
X108940475Y-105195157D01*
X108940475Y-105195157D02*
X108892856Y-105147538D01*
X108892856Y-105147538D02*
X108797618Y-105099919D01*
X108797618Y-105099919D02*
X108559523Y-105099919D01*
X108559523Y-105099919D02*
X108416666Y-105147538D01*
X108083332Y-105099919D02*
X107464285Y-105099919D01*
X107464285Y-105099919D02*
X107797618Y-105480871D01*
X107797618Y-105480871D02*
X107654761Y-105480871D01*
X107654761Y-105480871D02*
X107559523Y-105528490D01*
X107559523Y-105528490D02*
X107511904Y-105576109D01*
X107511904Y-105576109D02*
X107464285Y-105671347D01*
X107464285Y-105671347D02*
X107464285Y-105909442D01*
X107464285Y-105909442D02*
X107511904Y-106004680D01*
X107511904Y-106004680D02*
X107559523Y-106052300D01*
X107559523Y-106052300D02*
X107654761Y-106099919D01*
X107654761Y-106099919D02*
X107940475Y-106099919D01*
X107940475Y-106099919D02*
X108035713Y-106052300D01*
X108035713Y-106052300D02*
X108083332Y-106004680D01*
X106845237Y-105099919D02*
X106749999Y-105099919D01*
X106749999Y-105099919D02*
X106654761Y-105147538D01*
X106654761Y-105147538D02*
X106607142Y-105195157D01*
X106607142Y-105195157D02*
X106559523Y-105290395D01*
X106559523Y-105290395D02*
X106511904Y-105480871D01*
X106511904Y-105480871D02*
X106511904Y-105718966D01*
X106511904Y-105718966D02*
X106559523Y-105909442D01*
X106559523Y-105909442D02*
X106607142Y-106004680D01*
X106607142Y-106004680D02*
X106654761Y-106052300D01*
X106654761Y-106052300D02*
X106749999Y-106099919D01*
X106749999Y-106099919D02*
X106845237Y-106099919D01*
X106845237Y-106099919D02*
X106940475Y-106052300D01*
X106940475Y-106052300D02*
X106988094Y-106004680D01*
X106988094Y-106004680D02*
X107035713Y-105909442D01*
X107035713Y-105909442D02*
X107083332Y-105718966D01*
X107083332Y-105718966D02*
X107083332Y-105480871D01*
X107083332Y-105480871D02*
X107035713Y-105290395D01*
X107035713Y-105290395D02*
X106988094Y-105195157D01*
X106988094Y-105195157D02*
X106940475Y-105147538D01*
X106940475Y-105147538D02*
X106845237Y-105099919D01*
X58358152Y-35309523D02*
X59024819Y-35309523D01*
X58358152Y-34880952D02*
X58881961Y-34880952D01*
X58881961Y-34880952D02*
X58977200Y-34928571D01*
X58977200Y-34928571D02*
X59024819Y-35023809D01*
X59024819Y-35023809D02*
X59024819Y-35166666D01*
X59024819Y-35166666D02*
X58977200Y-35261904D01*
X58977200Y-35261904D02*
X58929580Y-35309523D01*
X58501009Y-36119047D02*
X58501009Y-35785714D01*
X59024819Y-35785714D02*
X58024819Y-35785714D01*
X58024819Y-35785714D02*
X58024819Y-36261904D01*
X58120057Y-36595238D02*
X58072438Y-36642857D01*
X58072438Y-36642857D02*
X58024819Y-36738095D01*
X58024819Y-36738095D02*
X58024819Y-36976190D01*
X58024819Y-36976190D02*
X58072438Y-37071428D01*
X58072438Y-37071428D02*
X58120057Y-37119047D01*
X58120057Y-37119047D02*
X58215295Y-37166666D01*
X58215295Y-37166666D02*
X58310533Y-37166666D01*
X58310533Y-37166666D02*
X58453390Y-37119047D01*
X58453390Y-37119047D02*
X59024819Y-36547619D01*
X59024819Y-36547619D02*
X59024819Y-37166666D01*
X61718152Y-38809523D02*
X62384819Y-38809523D01*
X61718152Y-38380952D02*
X62241961Y-38380952D01*
X62241961Y-38380952D02*
X62337200Y-38428571D01*
X62337200Y-38428571D02*
X62384819Y-38523809D01*
X62384819Y-38523809D02*
X62384819Y-38666666D01*
X62384819Y-38666666D02*
X62337200Y-38761904D01*
X62337200Y-38761904D02*
X62289580Y-38809523D01*
X61861009Y-39619047D02*
X61861009Y-39285714D01*
X62384819Y-39285714D02*
X61384819Y-39285714D01*
X61384819Y-39285714D02*
X61384819Y-39761904D01*
X62384819Y-40666666D02*
X62384819Y-40095238D01*
X62384819Y-40380952D02*
X61384819Y-40380952D01*
X61384819Y-40380952D02*
X61527676Y-40285714D01*
X61527676Y-40285714D02*
X61622914Y-40190476D01*
X61622914Y-40190476D02*
X61670533Y-40095238D01*
X47964285Y-72454819D02*
X47964285Y-71454819D01*
X47964285Y-71454819D02*
X47726190Y-71454819D01*
X47726190Y-71454819D02*
X47583333Y-71502438D01*
X47583333Y-71502438D02*
X47488095Y-71597676D01*
X47488095Y-71597676D02*
X47440476Y-71692914D01*
X47440476Y-71692914D02*
X47392857Y-71883390D01*
X47392857Y-71883390D02*
X47392857Y-72026247D01*
X47392857Y-72026247D02*
X47440476Y-72216723D01*
X47440476Y-72216723D02*
X47488095Y-72311961D01*
X47488095Y-72311961D02*
X47583333Y-72407200D01*
X47583333Y-72407200D02*
X47726190Y-72454819D01*
X47726190Y-72454819D02*
X47964285Y-72454819D01*
X47011904Y-72407200D02*
X46869047Y-72454819D01*
X46869047Y-72454819D02*
X46630952Y-72454819D01*
X46630952Y-72454819D02*
X46535714Y-72407200D01*
X46535714Y-72407200D02*
X46488095Y-72359580D01*
X46488095Y-72359580D02*
X46440476Y-72264342D01*
X46440476Y-72264342D02*
X46440476Y-72169104D01*
X46440476Y-72169104D02*
X46488095Y-72073866D01*
X46488095Y-72073866D02*
X46535714Y-72026247D01*
X46535714Y-72026247D02*
X46630952Y-71978628D01*
X46630952Y-71978628D02*
X46821428Y-71931009D01*
X46821428Y-71931009D02*
X46916666Y-71883390D01*
X46916666Y-71883390D02*
X46964285Y-71835771D01*
X46964285Y-71835771D02*
X47011904Y-71740533D01*
X47011904Y-71740533D02*
X47011904Y-71645295D01*
X47011904Y-71645295D02*
X46964285Y-71550057D01*
X46964285Y-71550057D02*
X46916666Y-71502438D01*
X46916666Y-71502438D02*
X46821428Y-71454819D01*
X46821428Y-71454819D02*
X46583333Y-71454819D01*
X46583333Y-71454819D02*
X46440476Y-71502438D01*
X46107142Y-71454819D02*
X45440476Y-71454819D01*
X45440476Y-71454819D02*
X45869047Y-72454819D01*
X86538152Y-36309523D02*
X87204819Y-36309523D01*
X86538152Y-35880952D02*
X87061961Y-35880952D01*
X87061961Y-35880952D02*
X87157200Y-35928571D01*
X87157200Y-35928571D02*
X87204819Y-36023809D01*
X87204819Y-36023809D02*
X87204819Y-36166666D01*
X87204819Y-36166666D02*
X87157200Y-36261904D01*
X87157200Y-36261904D02*
X87109580Y-36309523D01*
X86681009Y-37119047D02*
X86681009Y-36785714D01*
X87204819Y-36785714D02*
X86204819Y-36785714D01*
X86204819Y-36785714D02*
X86204819Y-37261904D01*
X87204819Y-37690476D02*
X87204819Y-37880952D01*
X87204819Y-37880952D02*
X87157200Y-37976190D01*
X87157200Y-37976190D02*
X87109580Y-38023809D01*
X87109580Y-38023809D02*
X86966723Y-38119047D01*
X86966723Y-38119047D02*
X86776247Y-38166666D01*
X86776247Y-38166666D02*
X86395295Y-38166666D01*
X86395295Y-38166666D02*
X86300057Y-38119047D01*
X86300057Y-38119047D02*
X86252438Y-38071428D01*
X86252438Y-38071428D02*
X86204819Y-37976190D01*
X86204819Y-37976190D02*
X86204819Y-37785714D01*
X86204819Y-37785714D02*
X86252438Y-37690476D01*
X86252438Y-37690476D02*
X86300057Y-37642857D01*
X86300057Y-37642857D02*
X86395295Y-37595238D01*
X86395295Y-37595238D02*
X86633390Y-37595238D01*
X86633390Y-37595238D02*
X86728628Y-37642857D01*
X86728628Y-37642857D02*
X86776247Y-37690476D01*
X86776247Y-37690476D02*
X86823866Y-37785714D01*
X86823866Y-37785714D02*
X86823866Y-37976190D01*
X86823866Y-37976190D02*
X86776247Y-38071428D01*
X86776247Y-38071428D02*
X86728628Y-38119047D01*
X86728628Y-38119047D02*
X86633390Y-38166666D01*
X48214285Y-38954819D02*
X48214285Y-37954819D01*
X48214285Y-37954819D02*
X47976190Y-37954819D01*
X47976190Y-37954819D02*
X47833333Y-38002438D01*
X47833333Y-38002438D02*
X47738095Y-38097676D01*
X47738095Y-38097676D02*
X47690476Y-38192914D01*
X47690476Y-38192914D02*
X47642857Y-38383390D01*
X47642857Y-38383390D02*
X47642857Y-38526247D01*
X47642857Y-38526247D02*
X47690476Y-38716723D01*
X47690476Y-38716723D02*
X47738095Y-38811961D01*
X47738095Y-38811961D02*
X47833333Y-38907200D01*
X47833333Y-38907200D02*
X47976190Y-38954819D01*
X47976190Y-38954819D02*
X48214285Y-38954819D01*
X47261904Y-38907200D02*
X47119047Y-38954819D01*
X47119047Y-38954819D02*
X46880952Y-38954819D01*
X46880952Y-38954819D02*
X46785714Y-38907200D01*
X46785714Y-38907200D02*
X46738095Y-38859580D01*
X46738095Y-38859580D02*
X46690476Y-38764342D01*
X46690476Y-38764342D02*
X46690476Y-38669104D01*
X46690476Y-38669104D02*
X46738095Y-38573866D01*
X46738095Y-38573866D02*
X46785714Y-38526247D01*
X46785714Y-38526247D02*
X46880952Y-38478628D01*
X46880952Y-38478628D02*
X47071428Y-38431009D01*
X47071428Y-38431009D02*
X47166666Y-38383390D01*
X47166666Y-38383390D02*
X47214285Y-38335771D01*
X47214285Y-38335771D02*
X47261904Y-38240533D01*
X47261904Y-38240533D02*
X47261904Y-38145295D01*
X47261904Y-38145295D02*
X47214285Y-38050057D01*
X47214285Y-38050057D02*
X47166666Y-38002438D01*
X47166666Y-38002438D02*
X47071428Y-37954819D01*
X47071428Y-37954819D02*
X46833333Y-37954819D01*
X46833333Y-37954819D02*
X46690476Y-38002438D01*
X45738095Y-38954819D02*
X46309523Y-38954819D01*
X46023809Y-38954819D02*
X46023809Y-37954819D01*
X46023809Y-37954819D02*
X46119047Y-38097676D01*
X46119047Y-38097676D02*
X46214285Y-38192914D01*
X46214285Y-38192914D02*
X46309523Y-38240533D01*
X103440475Y-139349919D02*
X103440475Y-138349919D01*
X103440475Y-138349919D02*
X103202380Y-138349919D01*
X103202380Y-138349919D02*
X103059523Y-138397538D01*
X103059523Y-138397538D02*
X102964285Y-138492776D01*
X102964285Y-138492776D02*
X102916666Y-138588014D01*
X102916666Y-138588014D02*
X102869047Y-138778490D01*
X102869047Y-138778490D02*
X102869047Y-138921347D01*
X102869047Y-138921347D02*
X102916666Y-139111823D01*
X102916666Y-139111823D02*
X102964285Y-139207061D01*
X102964285Y-139207061D02*
X103059523Y-139302300D01*
X103059523Y-139302300D02*
X103202380Y-139349919D01*
X103202380Y-139349919D02*
X103440475Y-139349919D01*
X102488094Y-139302300D02*
X102345237Y-139349919D01*
X102345237Y-139349919D02*
X102107142Y-139349919D01*
X102107142Y-139349919D02*
X102011904Y-139302300D01*
X102011904Y-139302300D02*
X101964285Y-139254680D01*
X101964285Y-139254680D02*
X101916666Y-139159442D01*
X101916666Y-139159442D02*
X101916666Y-139064204D01*
X101916666Y-139064204D02*
X101964285Y-138968966D01*
X101964285Y-138968966D02*
X102011904Y-138921347D01*
X102011904Y-138921347D02*
X102107142Y-138873728D01*
X102107142Y-138873728D02*
X102297618Y-138826109D01*
X102297618Y-138826109D02*
X102392856Y-138778490D01*
X102392856Y-138778490D02*
X102440475Y-138730871D01*
X102440475Y-138730871D02*
X102488094Y-138635633D01*
X102488094Y-138635633D02*
X102488094Y-138540395D01*
X102488094Y-138540395D02*
X102440475Y-138445157D01*
X102440475Y-138445157D02*
X102392856Y-138397538D01*
X102392856Y-138397538D02*
X102297618Y-138349919D01*
X102297618Y-138349919D02*
X102059523Y-138349919D01*
X102059523Y-138349919D02*
X101916666Y-138397538D01*
X101583332Y-138349919D02*
X100964285Y-138349919D01*
X100964285Y-138349919D02*
X101297618Y-138730871D01*
X101297618Y-138730871D02*
X101154761Y-138730871D01*
X101154761Y-138730871D02*
X101059523Y-138778490D01*
X101059523Y-138778490D02*
X101011904Y-138826109D01*
X101011904Y-138826109D02*
X100964285Y-138921347D01*
X100964285Y-138921347D02*
X100964285Y-139159442D01*
X100964285Y-139159442D02*
X101011904Y-139254680D01*
X101011904Y-139254680D02*
X101059523Y-139302300D01*
X101059523Y-139302300D02*
X101154761Y-139349919D01*
X101154761Y-139349919D02*
X101440475Y-139349919D01*
X101440475Y-139349919D02*
X101535713Y-139302300D01*
X101535713Y-139302300D02*
X101583332Y-139254680D01*
X100059523Y-138349919D02*
X100535713Y-138349919D01*
X100535713Y-138349919D02*
X100583332Y-138826109D01*
X100583332Y-138826109D02*
X100535713Y-138778490D01*
X100535713Y-138778490D02*
X100440475Y-138730871D01*
X100440475Y-138730871D02*
X100202380Y-138730871D01*
X100202380Y-138730871D02*
X100107142Y-138778490D01*
X100107142Y-138778490D02*
X100059523Y-138826109D01*
X100059523Y-138826109D02*
X100011904Y-138921347D01*
X100011904Y-138921347D02*
X100011904Y-139159442D01*
X100011904Y-139159442D02*
X100059523Y-139254680D01*
X100059523Y-139254680D02*
X100107142Y-139302300D01*
X100107142Y-139302300D02*
X100202380Y-139349919D01*
X100202380Y-139349919D02*
X100440475Y-139349919D01*
X100440475Y-139349919D02*
X100535713Y-139302300D01*
X100535713Y-139302300D02*
X100583332Y-139254680D01*
X110440475Y-73099919D02*
X110440475Y-72099919D01*
X110440475Y-72099919D02*
X110202380Y-72099919D01*
X110202380Y-72099919D02*
X110059523Y-72147538D01*
X110059523Y-72147538D02*
X109964285Y-72242776D01*
X109964285Y-72242776D02*
X109916666Y-72338014D01*
X109916666Y-72338014D02*
X109869047Y-72528490D01*
X109869047Y-72528490D02*
X109869047Y-72671347D01*
X109869047Y-72671347D02*
X109916666Y-72861823D01*
X109916666Y-72861823D02*
X109964285Y-72957061D01*
X109964285Y-72957061D02*
X110059523Y-73052300D01*
X110059523Y-73052300D02*
X110202380Y-73099919D01*
X110202380Y-73099919D02*
X110440475Y-73099919D01*
X109488094Y-73052300D02*
X109345237Y-73099919D01*
X109345237Y-73099919D02*
X109107142Y-73099919D01*
X109107142Y-73099919D02*
X109011904Y-73052300D01*
X109011904Y-73052300D02*
X108964285Y-73004680D01*
X108964285Y-73004680D02*
X108916666Y-72909442D01*
X108916666Y-72909442D02*
X108916666Y-72814204D01*
X108916666Y-72814204D02*
X108964285Y-72718966D01*
X108964285Y-72718966D02*
X109011904Y-72671347D01*
X109011904Y-72671347D02*
X109107142Y-72623728D01*
X109107142Y-72623728D02*
X109297618Y-72576109D01*
X109297618Y-72576109D02*
X109392856Y-72528490D01*
X109392856Y-72528490D02*
X109440475Y-72480871D01*
X109440475Y-72480871D02*
X109488094Y-72385633D01*
X109488094Y-72385633D02*
X109488094Y-72290395D01*
X109488094Y-72290395D02*
X109440475Y-72195157D01*
X109440475Y-72195157D02*
X109392856Y-72147538D01*
X109392856Y-72147538D02*
X109297618Y-72099919D01*
X109297618Y-72099919D02*
X109059523Y-72099919D01*
X109059523Y-72099919D02*
X108916666Y-72147538D01*
X108535713Y-72195157D02*
X108488094Y-72147538D01*
X108488094Y-72147538D02*
X108392856Y-72099919D01*
X108392856Y-72099919D02*
X108154761Y-72099919D01*
X108154761Y-72099919D02*
X108059523Y-72147538D01*
X108059523Y-72147538D02*
X108011904Y-72195157D01*
X108011904Y-72195157D02*
X107964285Y-72290395D01*
X107964285Y-72290395D02*
X107964285Y-72385633D01*
X107964285Y-72385633D02*
X108011904Y-72528490D01*
X108011904Y-72528490D02*
X108583332Y-73099919D01*
X108583332Y-73099919D02*
X107964285Y-73099919D01*
X107107142Y-72433252D02*
X107107142Y-73099919D01*
X107345237Y-72052300D02*
X107583332Y-72766585D01*
X107583332Y-72766585D02*
X106964285Y-72766585D01*
X47714285Y-50454819D02*
X47714285Y-49454819D01*
X47714285Y-49454819D02*
X47476190Y-49454819D01*
X47476190Y-49454819D02*
X47333333Y-49502438D01*
X47333333Y-49502438D02*
X47238095Y-49597676D01*
X47238095Y-49597676D02*
X47190476Y-49692914D01*
X47190476Y-49692914D02*
X47142857Y-49883390D01*
X47142857Y-49883390D02*
X47142857Y-50026247D01*
X47142857Y-50026247D02*
X47190476Y-50216723D01*
X47190476Y-50216723D02*
X47238095Y-50311961D01*
X47238095Y-50311961D02*
X47333333Y-50407200D01*
X47333333Y-50407200D02*
X47476190Y-50454819D01*
X47476190Y-50454819D02*
X47714285Y-50454819D01*
X46761904Y-50407200D02*
X46619047Y-50454819D01*
X46619047Y-50454819D02*
X46380952Y-50454819D01*
X46380952Y-50454819D02*
X46285714Y-50407200D01*
X46285714Y-50407200D02*
X46238095Y-50359580D01*
X46238095Y-50359580D02*
X46190476Y-50264342D01*
X46190476Y-50264342D02*
X46190476Y-50169104D01*
X46190476Y-50169104D02*
X46238095Y-50073866D01*
X46238095Y-50073866D02*
X46285714Y-50026247D01*
X46285714Y-50026247D02*
X46380952Y-49978628D01*
X46380952Y-49978628D02*
X46571428Y-49931009D01*
X46571428Y-49931009D02*
X46666666Y-49883390D01*
X46666666Y-49883390D02*
X46714285Y-49835771D01*
X46714285Y-49835771D02*
X46761904Y-49740533D01*
X46761904Y-49740533D02*
X46761904Y-49645295D01*
X46761904Y-49645295D02*
X46714285Y-49550057D01*
X46714285Y-49550057D02*
X46666666Y-49502438D01*
X46666666Y-49502438D02*
X46571428Y-49454819D01*
X46571428Y-49454819D02*
X46333333Y-49454819D01*
X46333333Y-49454819D02*
X46190476Y-49502438D01*
X45857142Y-49454819D02*
X45238095Y-49454819D01*
X45238095Y-49454819D02*
X45571428Y-49835771D01*
X45571428Y-49835771D02*
X45428571Y-49835771D01*
X45428571Y-49835771D02*
X45333333Y-49883390D01*
X45333333Y-49883390D02*
X45285714Y-49931009D01*
X45285714Y-49931009D02*
X45238095Y-50026247D01*
X45238095Y-50026247D02*
X45238095Y-50264342D01*
X45238095Y-50264342D02*
X45285714Y-50359580D01*
X45285714Y-50359580D02*
X45333333Y-50407200D01*
X45333333Y-50407200D02*
X45428571Y-50454819D01*
X45428571Y-50454819D02*
X45714285Y-50454819D01*
X45714285Y-50454819D02*
X45809523Y-50407200D01*
X45809523Y-50407200D02*
X45857142Y-50359580D01*
X103690475Y-40099919D02*
X103690475Y-39099919D01*
X103690475Y-39099919D02*
X103452380Y-39099919D01*
X103452380Y-39099919D02*
X103309523Y-39147538D01*
X103309523Y-39147538D02*
X103214285Y-39242776D01*
X103214285Y-39242776D02*
X103166666Y-39338014D01*
X103166666Y-39338014D02*
X103119047Y-39528490D01*
X103119047Y-39528490D02*
X103119047Y-39671347D01*
X103119047Y-39671347D02*
X103166666Y-39861823D01*
X103166666Y-39861823D02*
X103214285Y-39957061D01*
X103214285Y-39957061D02*
X103309523Y-40052300D01*
X103309523Y-40052300D02*
X103452380Y-40099919D01*
X103452380Y-40099919D02*
X103690475Y-40099919D01*
X102738094Y-40052300D02*
X102595237Y-40099919D01*
X102595237Y-40099919D02*
X102357142Y-40099919D01*
X102357142Y-40099919D02*
X102261904Y-40052300D01*
X102261904Y-40052300D02*
X102214285Y-40004680D01*
X102214285Y-40004680D02*
X102166666Y-39909442D01*
X102166666Y-39909442D02*
X102166666Y-39814204D01*
X102166666Y-39814204D02*
X102214285Y-39718966D01*
X102214285Y-39718966D02*
X102261904Y-39671347D01*
X102261904Y-39671347D02*
X102357142Y-39623728D01*
X102357142Y-39623728D02*
X102547618Y-39576109D01*
X102547618Y-39576109D02*
X102642856Y-39528490D01*
X102642856Y-39528490D02*
X102690475Y-39480871D01*
X102690475Y-39480871D02*
X102738094Y-39385633D01*
X102738094Y-39385633D02*
X102738094Y-39290395D01*
X102738094Y-39290395D02*
X102690475Y-39195157D01*
X102690475Y-39195157D02*
X102642856Y-39147538D01*
X102642856Y-39147538D02*
X102547618Y-39099919D01*
X102547618Y-39099919D02*
X102309523Y-39099919D01*
X102309523Y-39099919D02*
X102166666Y-39147538D01*
X101214285Y-40099919D02*
X101785713Y-40099919D01*
X101499999Y-40099919D02*
X101499999Y-39099919D01*
X101499999Y-39099919D02*
X101595237Y-39242776D01*
X101595237Y-39242776D02*
X101690475Y-39338014D01*
X101690475Y-39338014D02*
X101785713Y-39385633D01*
X100880951Y-39099919D02*
X100214285Y-39099919D01*
X100214285Y-39099919D02*
X100642856Y-40099919D01*
X41214285Y-60954819D02*
X41214285Y-59954819D01*
X41214285Y-59954819D02*
X40976190Y-59954819D01*
X40976190Y-59954819D02*
X40833333Y-60002438D01*
X40833333Y-60002438D02*
X40738095Y-60097676D01*
X40738095Y-60097676D02*
X40690476Y-60192914D01*
X40690476Y-60192914D02*
X40642857Y-60383390D01*
X40642857Y-60383390D02*
X40642857Y-60526247D01*
X40642857Y-60526247D02*
X40690476Y-60716723D01*
X40690476Y-60716723D02*
X40738095Y-60811961D01*
X40738095Y-60811961D02*
X40833333Y-60907200D01*
X40833333Y-60907200D02*
X40976190Y-60954819D01*
X40976190Y-60954819D02*
X41214285Y-60954819D01*
X40261904Y-60907200D02*
X40119047Y-60954819D01*
X40119047Y-60954819D02*
X39880952Y-60954819D01*
X39880952Y-60954819D02*
X39785714Y-60907200D01*
X39785714Y-60907200D02*
X39738095Y-60859580D01*
X39738095Y-60859580D02*
X39690476Y-60764342D01*
X39690476Y-60764342D02*
X39690476Y-60669104D01*
X39690476Y-60669104D02*
X39738095Y-60573866D01*
X39738095Y-60573866D02*
X39785714Y-60526247D01*
X39785714Y-60526247D02*
X39880952Y-60478628D01*
X39880952Y-60478628D02*
X40071428Y-60431009D01*
X40071428Y-60431009D02*
X40166666Y-60383390D01*
X40166666Y-60383390D02*
X40214285Y-60335771D01*
X40214285Y-60335771D02*
X40261904Y-60240533D01*
X40261904Y-60240533D02*
X40261904Y-60145295D01*
X40261904Y-60145295D02*
X40214285Y-60050057D01*
X40214285Y-60050057D02*
X40166666Y-60002438D01*
X40166666Y-60002438D02*
X40071428Y-59954819D01*
X40071428Y-59954819D02*
X39833333Y-59954819D01*
X39833333Y-59954819D02*
X39690476Y-60002438D01*
X38833333Y-59954819D02*
X39023809Y-59954819D01*
X39023809Y-59954819D02*
X39119047Y-60002438D01*
X39119047Y-60002438D02*
X39166666Y-60050057D01*
X39166666Y-60050057D02*
X39261904Y-60192914D01*
X39261904Y-60192914D02*
X39309523Y-60383390D01*
X39309523Y-60383390D02*
X39309523Y-60764342D01*
X39309523Y-60764342D02*
X39261904Y-60859580D01*
X39261904Y-60859580D02*
X39214285Y-60907200D01*
X39214285Y-60907200D02*
X39119047Y-60954819D01*
X39119047Y-60954819D02*
X38928571Y-60954819D01*
X38928571Y-60954819D02*
X38833333Y-60907200D01*
X38833333Y-60907200D02*
X38785714Y-60859580D01*
X38785714Y-60859580D02*
X38738095Y-60764342D01*
X38738095Y-60764342D02*
X38738095Y-60526247D01*
X38738095Y-60526247D02*
X38785714Y-60431009D01*
X38785714Y-60431009D02*
X38833333Y-60383390D01*
X38833333Y-60383390D02*
X38928571Y-60335771D01*
X38928571Y-60335771D02*
X39119047Y-60335771D01*
X39119047Y-60335771D02*
X39214285Y-60383390D01*
X39214285Y-60383390D02*
X39261904Y-60431009D01*
X39261904Y-60431009D02*
X39309523Y-60526247D01*
X109940475Y-128349919D02*
X109940475Y-127349919D01*
X109940475Y-127349919D02*
X109702380Y-127349919D01*
X109702380Y-127349919D02*
X109559523Y-127397538D01*
X109559523Y-127397538D02*
X109464285Y-127492776D01*
X109464285Y-127492776D02*
X109416666Y-127588014D01*
X109416666Y-127588014D02*
X109369047Y-127778490D01*
X109369047Y-127778490D02*
X109369047Y-127921347D01*
X109369047Y-127921347D02*
X109416666Y-128111823D01*
X109416666Y-128111823D02*
X109464285Y-128207061D01*
X109464285Y-128207061D02*
X109559523Y-128302300D01*
X109559523Y-128302300D02*
X109702380Y-128349919D01*
X109702380Y-128349919D02*
X109940475Y-128349919D01*
X108988094Y-128302300D02*
X108845237Y-128349919D01*
X108845237Y-128349919D02*
X108607142Y-128349919D01*
X108607142Y-128349919D02*
X108511904Y-128302300D01*
X108511904Y-128302300D02*
X108464285Y-128254680D01*
X108464285Y-128254680D02*
X108416666Y-128159442D01*
X108416666Y-128159442D02*
X108416666Y-128064204D01*
X108416666Y-128064204D02*
X108464285Y-127968966D01*
X108464285Y-127968966D02*
X108511904Y-127921347D01*
X108511904Y-127921347D02*
X108607142Y-127873728D01*
X108607142Y-127873728D02*
X108797618Y-127826109D01*
X108797618Y-127826109D02*
X108892856Y-127778490D01*
X108892856Y-127778490D02*
X108940475Y-127730871D01*
X108940475Y-127730871D02*
X108988094Y-127635633D01*
X108988094Y-127635633D02*
X108988094Y-127540395D01*
X108988094Y-127540395D02*
X108940475Y-127445157D01*
X108940475Y-127445157D02*
X108892856Y-127397538D01*
X108892856Y-127397538D02*
X108797618Y-127349919D01*
X108797618Y-127349919D02*
X108559523Y-127349919D01*
X108559523Y-127349919D02*
X108416666Y-127397538D01*
X108083332Y-127349919D02*
X107464285Y-127349919D01*
X107464285Y-127349919D02*
X107797618Y-127730871D01*
X107797618Y-127730871D02*
X107654761Y-127730871D01*
X107654761Y-127730871D02*
X107559523Y-127778490D01*
X107559523Y-127778490D02*
X107511904Y-127826109D01*
X107511904Y-127826109D02*
X107464285Y-127921347D01*
X107464285Y-127921347D02*
X107464285Y-128159442D01*
X107464285Y-128159442D02*
X107511904Y-128254680D01*
X107511904Y-128254680D02*
X107559523Y-128302300D01*
X107559523Y-128302300D02*
X107654761Y-128349919D01*
X107654761Y-128349919D02*
X107940475Y-128349919D01*
X107940475Y-128349919D02*
X108035713Y-128302300D01*
X108035713Y-128302300D02*
X108083332Y-128254680D01*
X106607142Y-127683252D02*
X106607142Y-128349919D01*
X106845237Y-127302300D02*
X107083332Y-128016585D01*
X107083332Y-128016585D02*
X106464285Y-128016585D01*
X48440475Y-105454819D02*
X48440475Y-104454819D01*
X48440475Y-104454819D02*
X48202380Y-104454819D01*
X48202380Y-104454819D02*
X48059523Y-104502438D01*
X48059523Y-104502438D02*
X47964285Y-104597676D01*
X47964285Y-104597676D02*
X47916666Y-104692914D01*
X47916666Y-104692914D02*
X47869047Y-104883390D01*
X47869047Y-104883390D02*
X47869047Y-105026247D01*
X47869047Y-105026247D02*
X47916666Y-105216723D01*
X47916666Y-105216723D02*
X47964285Y-105311961D01*
X47964285Y-105311961D02*
X48059523Y-105407200D01*
X48059523Y-105407200D02*
X48202380Y-105454819D01*
X48202380Y-105454819D02*
X48440475Y-105454819D01*
X47488094Y-105407200D02*
X47345237Y-105454819D01*
X47345237Y-105454819D02*
X47107142Y-105454819D01*
X47107142Y-105454819D02*
X47011904Y-105407200D01*
X47011904Y-105407200D02*
X46964285Y-105359580D01*
X46964285Y-105359580D02*
X46916666Y-105264342D01*
X46916666Y-105264342D02*
X46916666Y-105169104D01*
X46916666Y-105169104D02*
X46964285Y-105073866D01*
X46964285Y-105073866D02*
X47011904Y-105026247D01*
X47011904Y-105026247D02*
X47107142Y-104978628D01*
X47107142Y-104978628D02*
X47297618Y-104931009D01*
X47297618Y-104931009D02*
X47392856Y-104883390D01*
X47392856Y-104883390D02*
X47440475Y-104835771D01*
X47440475Y-104835771D02*
X47488094Y-104740533D01*
X47488094Y-104740533D02*
X47488094Y-104645295D01*
X47488094Y-104645295D02*
X47440475Y-104550057D01*
X47440475Y-104550057D02*
X47392856Y-104502438D01*
X47392856Y-104502438D02*
X47297618Y-104454819D01*
X47297618Y-104454819D02*
X47059523Y-104454819D01*
X47059523Y-104454819D02*
X46916666Y-104502438D01*
X45964285Y-105454819D02*
X46535713Y-105454819D01*
X46249999Y-105454819D02*
X46249999Y-104454819D01*
X46249999Y-104454819D02*
X46345237Y-104597676D01*
X46345237Y-104597676D02*
X46440475Y-104692914D01*
X46440475Y-104692914D02*
X46535713Y-104740533D01*
X45630951Y-104454819D02*
X45011904Y-104454819D01*
X45011904Y-104454819D02*
X45345237Y-104835771D01*
X45345237Y-104835771D02*
X45202380Y-104835771D01*
X45202380Y-104835771D02*
X45107142Y-104883390D01*
X45107142Y-104883390D02*
X45059523Y-104931009D01*
X45059523Y-104931009D02*
X45011904Y-105026247D01*
X45011904Y-105026247D02*
X45011904Y-105264342D01*
X45011904Y-105264342D02*
X45059523Y-105359580D01*
X45059523Y-105359580D02*
X45107142Y-105407200D01*
X45107142Y-105407200D02*
X45202380Y-105454819D01*
X45202380Y-105454819D02*
X45488094Y-105454819D01*
X45488094Y-105454819D02*
X45583332Y-105407200D01*
X45583332Y-105407200D02*
X45630951Y-105359580D01*
X110440475Y-95349919D02*
X110440475Y-94349919D01*
X110440475Y-94349919D02*
X110202380Y-94349919D01*
X110202380Y-94349919D02*
X110059523Y-94397538D01*
X110059523Y-94397538D02*
X109964285Y-94492776D01*
X109964285Y-94492776D02*
X109916666Y-94588014D01*
X109916666Y-94588014D02*
X109869047Y-94778490D01*
X109869047Y-94778490D02*
X109869047Y-94921347D01*
X109869047Y-94921347D02*
X109916666Y-95111823D01*
X109916666Y-95111823D02*
X109964285Y-95207061D01*
X109964285Y-95207061D02*
X110059523Y-95302300D01*
X110059523Y-95302300D02*
X110202380Y-95349919D01*
X110202380Y-95349919D02*
X110440475Y-95349919D01*
X109488094Y-95302300D02*
X109345237Y-95349919D01*
X109345237Y-95349919D02*
X109107142Y-95349919D01*
X109107142Y-95349919D02*
X109011904Y-95302300D01*
X109011904Y-95302300D02*
X108964285Y-95254680D01*
X108964285Y-95254680D02*
X108916666Y-95159442D01*
X108916666Y-95159442D02*
X108916666Y-95064204D01*
X108916666Y-95064204D02*
X108964285Y-94968966D01*
X108964285Y-94968966D02*
X109011904Y-94921347D01*
X109011904Y-94921347D02*
X109107142Y-94873728D01*
X109107142Y-94873728D02*
X109297618Y-94826109D01*
X109297618Y-94826109D02*
X109392856Y-94778490D01*
X109392856Y-94778490D02*
X109440475Y-94730871D01*
X109440475Y-94730871D02*
X109488094Y-94635633D01*
X109488094Y-94635633D02*
X109488094Y-94540395D01*
X109488094Y-94540395D02*
X109440475Y-94445157D01*
X109440475Y-94445157D02*
X109392856Y-94397538D01*
X109392856Y-94397538D02*
X109297618Y-94349919D01*
X109297618Y-94349919D02*
X109059523Y-94349919D01*
X109059523Y-94349919D02*
X108916666Y-94397538D01*
X108535713Y-94445157D02*
X108488094Y-94397538D01*
X108488094Y-94397538D02*
X108392856Y-94349919D01*
X108392856Y-94349919D02*
X108154761Y-94349919D01*
X108154761Y-94349919D02*
X108059523Y-94397538D01*
X108059523Y-94397538D02*
X108011904Y-94445157D01*
X108011904Y-94445157D02*
X107964285Y-94540395D01*
X107964285Y-94540395D02*
X107964285Y-94635633D01*
X107964285Y-94635633D02*
X108011904Y-94778490D01*
X108011904Y-94778490D02*
X108583332Y-95349919D01*
X108583332Y-95349919D02*
X107964285Y-95349919D01*
X107392856Y-94778490D02*
X107488094Y-94730871D01*
X107488094Y-94730871D02*
X107535713Y-94683252D01*
X107535713Y-94683252D02*
X107583332Y-94588014D01*
X107583332Y-94588014D02*
X107583332Y-94540395D01*
X107583332Y-94540395D02*
X107535713Y-94445157D01*
X107535713Y-94445157D02*
X107488094Y-94397538D01*
X107488094Y-94397538D02*
X107392856Y-94349919D01*
X107392856Y-94349919D02*
X107202380Y-94349919D01*
X107202380Y-94349919D02*
X107107142Y-94397538D01*
X107107142Y-94397538D02*
X107059523Y-94445157D01*
X107059523Y-94445157D02*
X107011904Y-94540395D01*
X107011904Y-94540395D02*
X107011904Y-94588014D01*
X107011904Y-94588014D02*
X107059523Y-94683252D01*
X107059523Y-94683252D02*
X107107142Y-94730871D01*
X107107142Y-94730871D02*
X107202380Y-94778490D01*
X107202380Y-94778490D02*
X107392856Y-94778490D01*
X107392856Y-94778490D02*
X107488094Y-94826109D01*
X107488094Y-94826109D02*
X107535713Y-94873728D01*
X107535713Y-94873728D02*
X107583332Y-94968966D01*
X107583332Y-94968966D02*
X107583332Y-95159442D01*
X107583332Y-95159442D02*
X107535713Y-95254680D01*
X107535713Y-95254680D02*
X107488094Y-95302300D01*
X107488094Y-95302300D02*
X107392856Y-95349919D01*
X107392856Y-95349919D02*
X107202380Y-95349919D01*
X107202380Y-95349919D02*
X107107142Y-95302300D01*
X107107142Y-95302300D02*
X107059523Y-95254680D01*
X107059523Y-95254680D02*
X107011904Y-95159442D01*
X107011904Y-95159442D02*
X107011904Y-94968966D01*
X107011904Y-94968966D02*
X107059523Y-94873728D01*
X107059523Y-94873728D02*
X107107142Y-94826109D01*
X107107142Y-94826109D02*
X107202380Y-94778490D01*
X103940475Y-84099919D02*
X103940475Y-83099919D01*
X103940475Y-83099919D02*
X103702380Y-83099919D01*
X103702380Y-83099919D02*
X103559523Y-83147538D01*
X103559523Y-83147538D02*
X103464285Y-83242776D01*
X103464285Y-83242776D02*
X103416666Y-83338014D01*
X103416666Y-83338014D02*
X103369047Y-83528490D01*
X103369047Y-83528490D02*
X103369047Y-83671347D01*
X103369047Y-83671347D02*
X103416666Y-83861823D01*
X103416666Y-83861823D02*
X103464285Y-83957061D01*
X103464285Y-83957061D02*
X103559523Y-84052300D01*
X103559523Y-84052300D02*
X103702380Y-84099919D01*
X103702380Y-84099919D02*
X103940475Y-84099919D01*
X102988094Y-84052300D02*
X102845237Y-84099919D01*
X102845237Y-84099919D02*
X102607142Y-84099919D01*
X102607142Y-84099919D02*
X102511904Y-84052300D01*
X102511904Y-84052300D02*
X102464285Y-84004680D01*
X102464285Y-84004680D02*
X102416666Y-83909442D01*
X102416666Y-83909442D02*
X102416666Y-83814204D01*
X102416666Y-83814204D02*
X102464285Y-83718966D01*
X102464285Y-83718966D02*
X102511904Y-83671347D01*
X102511904Y-83671347D02*
X102607142Y-83623728D01*
X102607142Y-83623728D02*
X102797618Y-83576109D01*
X102797618Y-83576109D02*
X102892856Y-83528490D01*
X102892856Y-83528490D02*
X102940475Y-83480871D01*
X102940475Y-83480871D02*
X102988094Y-83385633D01*
X102988094Y-83385633D02*
X102988094Y-83290395D01*
X102988094Y-83290395D02*
X102940475Y-83195157D01*
X102940475Y-83195157D02*
X102892856Y-83147538D01*
X102892856Y-83147538D02*
X102797618Y-83099919D01*
X102797618Y-83099919D02*
X102559523Y-83099919D01*
X102559523Y-83099919D02*
X102416666Y-83147538D01*
X102035713Y-83195157D02*
X101988094Y-83147538D01*
X101988094Y-83147538D02*
X101892856Y-83099919D01*
X101892856Y-83099919D02*
X101654761Y-83099919D01*
X101654761Y-83099919D02*
X101559523Y-83147538D01*
X101559523Y-83147538D02*
X101511904Y-83195157D01*
X101511904Y-83195157D02*
X101464285Y-83290395D01*
X101464285Y-83290395D02*
X101464285Y-83385633D01*
X101464285Y-83385633D02*
X101511904Y-83528490D01*
X101511904Y-83528490D02*
X102083332Y-84099919D01*
X102083332Y-84099919D02*
X101464285Y-84099919D01*
X100559523Y-83099919D02*
X101035713Y-83099919D01*
X101035713Y-83099919D02*
X101083332Y-83576109D01*
X101083332Y-83576109D02*
X101035713Y-83528490D01*
X101035713Y-83528490D02*
X100940475Y-83480871D01*
X100940475Y-83480871D02*
X100702380Y-83480871D01*
X100702380Y-83480871D02*
X100607142Y-83528490D01*
X100607142Y-83528490D02*
X100559523Y-83576109D01*
X100559523Y-83576109D02*
X100511904Y-83671347D01*
X100511904Y-83671347D02*
X100511904Y-83909442D01*
X100511904Y-83909442D02*
X100559523Y-84004680D01*
X100559523Y-84004680D02*
X100607142Y-84052300D01*
X100607142Y-84052300D02*
X100702380Y-84099919D01*
X100702380Y-84099919D02*
X100940475Y-84099919D01*
X100940475Y-84099919D02*
X101035713Y-84052300D01*
X101035713Y-84052300D02*
X101083332Y-84004680D01*
X41690475Y-105454819D02*
X41690475Y-104454819D01*
X41690475Y-104454819D02*
X41452380Y-104454819D01*
X41452380Y-104454819D02*
X41309523Y-104502438D01*
X41309523Y-104502438D02*
X41214285Y-104597676D01*
X41214285Y-104597676D02*
X41166666Y-104692914D01*
X41166666Y-104692914D02*
X41119047Y-104883390D01*
X41119047Y-104883390D02*
X41119047Y-105026247D01*
X41119047Y-105026247D02*
X41166666Y-105216723D01*
X41166666Y-105216723D02*
X41214285Y-105311961D01*
X41214285Y-105311961D02*
X41309523Y-105407200D01*
X41309523Y-105407200D02*
X41452380Y-105454819D01*
X41452380Y-105454819D02*
X41690475Y-105454819D01*
X40738094Y-105407200D02*
X40595237Y-105454819D01*
X40595237Y-105454819D02*
X40357142Y-105454819D01*
X40357142Y-105454819D02*
X40261904Y-105407200D01*
X40261904Y-105407200D02*
X40214285Y-105359580D01*
X40214285Y-105359580D02*
X40166666Y-105264342D01*
X40166666Y-105264342D02*
X40166666Y-105169104D01*
X40166666Y-105169104D02*
X40214285Y-105073866D01*
X40214285Y-105073866D02*
X40261904Y-105026247D01*
X40261904Y-105026247D02*
X40357142Y-104978628D01*
X40357142Y-104978628D02*
X40547618Y-104931009D01*
X40547618Y-104931009D02*
X40642856Y-104883390D01*
X40642856Y-104883390D02*
X40690475Y-104835771D01*
X40690475Y-104835771D02*
X40738094Y-104740533D01*
X40738094Y-104740533D02*
X40738094Y-104645295D01*
X40738094Y-104645295D02*
X40690475Y-104550057D01*
X40690475Y-104550057D02*
X40642856Y-104502438D01*
X40642856Y-104502438D02*
X40547618Y-104454819D01*
X40547618Y-104454819D02*
X40309523Y-104454819D01*
X40309523Y-104454819D02*
X40166666Y-104502438D01*
X39214285Y-105454819D02*
X39785713Y-105454819D01*
X39499999Y-105454819D02*
X39499999Y-104454819D01*
X39499999Y-104454819D02*
X39595237Y-104597676D01*
X39595237Y-104597676D02*
X39690475Y-104692914D01*
X39690475Y-104692914D02*
X39785713Y-104740533D01*
X38357142Y-104788152D02*
X38357142Y-105454819D01*
X38595237Y-104407200D02*
X38833332Y-105121485D01*
X38833332Y-105121485D02*
X38214285Y-105121485D01*
X103440475Y-117099919D02*
X103440475Y-116099919D01*
X103440475Y-116099919D02*
X103202380Y-116099919D01*
X103202380Y-116099919D02*
X103059523Y-116147538D01*
X103059523Y-116147538D02*
X102964285Y-116242776D01*
X102964285Y-116242776D02*
X102916666Y-116338014D01*
X102916666Y-116338014D02*
X102869047Y-116528490D01*
X102869047Y-116528490D02*
X102869047Y-116671347D01*
X102869047Y-116671347D02*
X102916666Y-116861823D01*
X102916666Y-116861823D02*
X102964285Y-116957061D01*
X102964285Y-116957061D02*
X103059523Y-117052300D01*
X103059523Y-117052300D02*
X103202380Y-117099919D01*
X103202380Y-117099919D02*
X103440475Y-117099919D01*
X102488094Y-117052300D02*
X102345237Y-117099919D01*
X102345237Y-117099919D02*
X102107142Y-117099919D01*
X102107142Y-117099919D02*
X102011904Y-117052300D01*
X102011904Y-117052300D02*
X101964285Y-117004680D01*
X101964285Y-117004680D02*
X101916666Y-116909442D01*
X101916666Y-116909442D02*
X101916666Y-116814204D01*
X101916666Y-116814204D02*
X101964285Y-116718966D01*
X101964285Y-116718966D02*
X102011904Y-116671347D01*
X102011904Y-116671347D02*
X102107142Y-116623728D01*
X102107142Y-116623728D02*
X102297618Y-116576109D01*
X102297618Y-116576109D02*
X102392856Y-116528490D01*
X102392856Y-116528490D02*
X102440475Y-116480871D01*
X102440475Y-116480871D02*
X102488094Y-116385633D01*
X102488094Y-116385633D02*
X102488094Y-116290395D01*
X102488094Y-116290395D02*
X102440475Y-116195157D01*
X102440475Y-116195157D02*
X102392856Y-116147538D01*
X102392856Y-116147538D02*
X102297618Y-116099919D01*
X102297618Y-116099919D02*
X102059523Y-116099919D01*
X102059523Y-116099919D02*
X101916666Y-116147538D01*
X101583332Y-116099919D02*
X100964285Y-116099919D01*
X100964285Y-116099919D02*
X101297618Y-116480871D01*
X101297618Y-116480871D02*
X101154761Y-116480871D01*
X101154761Y-116480871D02*
X101059523Y-116528490D01*
X101059523Y-116528490D02*
X101011904Y-116576109D01*
X101011904Y-116576109D02*
X100964285Y-116671347D01*
X100964285Y-116671347D02*
X100964285Y-116909442D01*
X100964285Y-116909442D02*
X101011904Y-117004680D01*
X101011904Y-117004680D02*
X101059523Y-117052300D01*
X101059523Y-117052300D02*
X101154761Y-117099919D01*
X101154761Y-117099919D02*
X101440475Y-117099919D01*
X101440475Y-117099919D02*
X101535713Y-117052300D01*
X101535713Y-117052300D02*
X101583332Y-117004680D01*
X100011904Y-117099919D02*
X100583332Y-117099919D01*
X100297618Y-117099919D02*
X100297618Y-116099919D01*
X100297618Y-116099919D02*
X100392856Y-116242776D01*
X100392856Y-116242776D02*
X100488094Y-116338014D01*
X100488094Y-116338014D02*
X100583332Y-116385633D01*
X40714285Y-38454819D02*
X40714285Y-37454819D01*
X40714285Y-37454819D02*
X40476190Y-37454819D01*
X40476190Y-37454819D02*
X40333333Y-37502438D01*
X40333333Y-37502438D02*
X40238095Y-37597676D01*
X40238095Y-37597676D02*
X40190476Y-37692914D01*
X40190476Y-37692914D02*
X40142857Y-37883390D01*
X40142857Y-37883390D02*
X40142857Y-38026247D01*
X40142857Y-38026247D02*
X40190476Y-38216723D01*
X40190476Y-38216723D02*
X40238095Y-38311961D01*
X40238095Y-38311961D02*
X40333333Y-38407200D01*
X40333333Y-38407200D02*
X40476190Y-38454819D01*
X40476190Y-38454819D02*
X40714285Y-38454819D01*
X39761904Y-38407200D02*
X39619047Y-38454819D01*
X39619047Y-38454819D02*
X39380952Y-38454819D01*
X39380952Y-38454819D02*
X39285714Y-38407200D01*
X39285714Y-38407200D02*
X39238095Y-38359580D01*
X39238095Y-38359580D02*
X39190476Y-38264342D01*
X39190476Y-38264342D02*
X39190476Y-38169104D01*
X39190476Y-38169104D02*
X39238095Y-38073866D01*
X39238095Y-38073866D02*
X39285714Y-38026247D01*
X39285714Y-38026247D02*
X39380952Y-37978628D01*
X39380952Y-37978628D02*
X39571428Y-37931009D01*
X39571428Y-37931009D02*
X39666666Y-37883390D01*
X39666666Y-37883390D02*
X39714285Y-37835771D01*
X39714285Y-37835771D02*
X39761904Y-37740533D01*
X39761904Y-37740533D02*
X39761904Y-37645295D01*
X39761904Y-37645295D02*
X39714285Y-37550057D01*
X39714285Y-37550057D02*
X39666666Y-37502438D01*
X39666666Y-37502438D02*
X39571428Y-37454819D01*
X39571428Y-37454819D02*
X39333333Y-37454819D01*
X39333333Y-37454819D02*
X39190476Y-37502438D01*
X38809523Y-37550057D02*
X38761904Y-37502438D01*
X38761904Y-37502438D02*
X38666666Y-37454819D01*
X38666666Y-37454819D02*
X38428571Y-37454819D01*
X38428571Y-37454819D02*
X38333333Y-37502438D01*
X38333333Y-37502438D02*
X38285714Y-37550057D01*
X38285714Y-37550057D02*
X38238095Y-37645295D01*
X38238095Y-37645295D02*
X38238095Y-37740533D01*
X38238095Y-37740533D02*
X38285714Y-37883390D01*
X38285714Y-37883390D02*
X38857142Y-38454819D01*
X38857142Y-38454819D02*
X38238095Y-38454819D01*
X41214285Y-50454819D02*
X41214285Y-49454819D01*
X41214285Y-49454819D02*
X40976190Y-49454819D01*
X40976190Y-49454819D02*
X40833333Y-49502438D01*
X40833333Y-49502438D02*
X40738095Y-49597676D01*
X40738095Y-49597676D02*
X40690476Y-49692914D01*
X40690476Y-49692914D02*
X40642857Y-49883390D01*
X40642857Y-49883390D02*
X40642857Y-50026247D01*
X40642857Y-50026247D02*
X40690476Y-50216723D01*
X40690476Y-50216723D02*
X40738095Y-50311961D01*
X40738095Y-50311961D02*
X40833333Y-50407200D01*
X40833333Y-50407200D02*
X40976190Y-50454819D01*
X40976190Y-50454819D02*
X41214285Y-50454819D01*
X40261904Y-50407200D02*
X40119047Y-50454819D01*
X40119047Y-50454819D02*
X39880952Y-50454819D01*
X39880952Y-50454819D02*
X39785714Y-50407200D01*
X39785714Y-50407200D02*
X39738095Y-50359580D01*
X39738095Y-50359580D02*
X39690476Y-50264342D01*
X39690476Y-50264342D02*
X39690476Y-50169104D01*
X39690476Y-50169104D02*
X39738095Y-50073866D01*
X39738095Y-50073866D02*
X39785714Y-50026247D01*
X39785714Y-50026247D02*
X39880952Y-49978628D01*
X39880952Y-49978628D02*
X40071428Y-49931009D01*
X40071428Y-49931009D02*
X40166666Y-49883390D01*
X40166666Y-49883390D02*
X40214285Y-49835771D01*
X40214285Y-49835771D02*
X40261904Y-49740533D01*
X40261904Y-49740533D02*
X40261904Y-49645295D01*
X40261904Y-49645295D02*
X40214285Y-49550057D01*
X40214285Y-49550057D02*
X40166666Y-49502438D01*
X40166666Y-49502438D02*
X40071428Y-49454819D01*
X40071428Y-49454819D02*
X39833333Y-49454819D01*
X39833333Y-49454819D02*
X39690476Y-49502438D01*
X38833333Y-49788152D02*
X38833333Y-50454819D01*
X39071428Y-49407200D02*
X39309523Y-50121485D01*
X39309523Y-50121485D02*
X38690476Y-50121485D01*
X110440475Y-40099919D02*
X110440475Y-39099919D01*
X110440475Y-39099919D02*
X110202380Y-39099919D01*
X110202380Y-39099919D02*
X110059523Y-39147538D01*
X110059523Y-39147538D02*
X109964285Y-39242776D01*
X109964285Y-39242776D02*
X109916666Y-39338014D01*
X109916666Y-39338014D02*
X109869047Y-39528490D01*
X109869047Y-39528490D02*
X109869047Y-39671347D01*
X109869047Y-39671347D02*
X109916666Y-39861823D01*
X109916666Y-39861823D02*
X109964285Y-39957061D01*
X109964285Y-39957061D02*
X110059523Y-40052300D01*
X110059523Y-40052300D02*
X110202380Y-40099919D01*
X110202380Y-40099919D02*
X110440475Y-40099919D01*
X109488094Y-40052300D02*
X109345237Y-40099919D01*
X109345237Y-40099919D02*
X109107142Y-40099919D01*
X109107142Y-40099919D02*
X109011904Y-40052300D01*
X109011904Y-40052300D02*
X108964285Y-40004680D01*
X108964285Y-40004680D02*
X108916666Y-39909442D01*
X108916666Y-39909442D02*
X108916666Y-39814204D01*
X108916666Y-39814204D02*
X108964285Y-39718966D01*
X108964285Y-39718966D02*
X109011904Y-39671347D01*
X109011904Y-39671347D02*
X109107142Y-39623728D01*
X109107142Y-39623728D02*
X109297618Y-39576109D01*
X109297618Y-39576109D02*
X109392856Y-39528490D01*
X109392856Y-39528490D02*
X109440475Y-39480871D01*
X109440475Y-39480871D02*
X109488094Y-39385633D01*
X109488094Y-39385633D02*
X109488094Y-39290395D01*
X109488094Y-39290395D02*
X109440475Y-39195157D01*
X109440475Y-39195157D02*
X109392856Y-39147538D01*
X109392856Y-39147538D02*
X109297618Y-39099919D01*
X109297618Y-39099919D02*
X109059523Y-39099919D01*
X109059523Y-39099919D02*
X108916666Y-39147538D01*
X107964285Y-40099919D02*
X108535713Y-40099919D01*
X108249999Y-40099919D02*
X108249999Y-39099919D01*
X108249999Y-39099919D02*
X108345237Y-39242776D01*
X108345237Y-39242776D02*
X108440475Y-39338014D01*
X108440475Y-39338014D02*
X108535713Y-39385633D01*
X107392856Y-39528490D02*
X107488094Y-39480871D01*
X107488094Y-39480871D02*
X107535713Y-39433252D01*
X107535713Y-39433252D02*
X107583332Y-39338014D01*
X107583332Y-39338014D02*
X107583332Y-39290395D01*
X107583332Y-39290395D02*
X107535713Y-39195157D01*
X107535713Y-39195157D02*
X107488094Y-39147538D01*
X107488094Y-39147538D02*
X107392856Y-39099919D01*
X107392856Y-39099919D02*
X107202380Y-39099919D01*
X107202380Y-39099919D02*
X107107142Y-39147538D01*
X107107142Y-39147538D02*
X107059523Y-39195157D01*
X107059523Y-39195157D02*
X107011904Y-39290395D01*
X107011904Y-39290395D02*
X107011904Y-39338014D01*
X107011904Y-39338014D02*
X107059523Y-39433252D01*
X107059523Y-39433252D02*
X107107142Y-39480871D01*
X107107142Y-39480871D02*
X107202380Y-39528490D01*
X107202380Y-39528490D02*
X107392856Y-39528490D01*
X107392856Y-39528490D02*
X107488094Y-39576109D01*
X107488094Y-39576109D02*
X107535713Y-39623728D01*
X107535713Y-39623728D02*
X107583332Y-39718966D01*
X107583332Y-39718966D02*
X107583332Y-39909442D01*
X107583332Y-39909442D02*
X107535713Y-40004680D01*
X107535713Y-40004680D02*
X107488094Y-40052300D01*
X107488094Y-40052300D02*
X107392856Y-40099919D01*
X107392856Y-40099919D02*
X107202380Y-40099919D01*
X107202380Y-40099919D02*
X107107142Y-40052300D01*
X107107142Y-40052300D02*
X107059523Y-40004680D01*
X107059523Y-40004680D02*
X107011904Y-39909442D01*
X107011904Y-39909442D02*
X107011904Y-39718966D01*
X107011904Y-39718966D02*
X107059523Y-39623728D01*
X107059523Y-39623728D02*
X107107142Y-39576109D01*
X107107142Y-39576109D02*
X107202380Y-39528490D01*
X41690475Y-116204819D02*
X41690475Y-115204819D01*
X41690475Y-115204819D02*
X41452380Y-115204819D01*
X41452380Y-115204819D02*
X41309523Y-115252438D01*
X41309523Y-115252438D02*
X41214285Y-115347676D01*
X41214285Y-115347676D02*
X41166666Y-115442914D01*
X41166666Y-115442914D02*
X41119047Y-115633390D01*
X41119047Y-115633390D02*
X41119047Y-115776247D01*
X41119047Y-115776247D02*
X41166666Y-115966723D01*
X41166666Y-115966723D02*
X41214285Y-116061961D01*
X41214285Y-116061961D02*
X41309523Y-116157200D01*
X41309523Y-116157200D02*
X41452380Y-116204819D01*
X41452380Y-116204819D02*
X41690475Y-116204819D01*
X40738094Y-116157200D02*
X40595237Y-116204819D01*
X40595237Y-116204819D02*
X40357142Y-116204819D01*
X40357142Y-116204819D02*
X40261904Y-116157200D01*
X40261904Y-116157200D02*
X40214285Y-116109580D01*
X40214285Y-116109580D02*
X40166666Y-116014342D01*
X40166666Y-116014342D02*
X40166666Y-115919104D01*
X40166666Y-115919104D02*
X40214285Y-115823866D01*
X40214285Y-115823866D02*
X40261904Y-115776247D01*
X40261904Y-115776247D02*
X40357142Y-115728628D01*
X40357142Y-115728628D02*
X40547618Y-115681009D01*
X40547618Y-115681009D02*
X40642856Y-115633390D01*
X40642856Y-115633390D02*
X40690475Y-115585771D01*
X40690475Y-115585771D02*
X40738094Y-115490533D01*
X40738094Y-115490533D02*
X40738094Y-115395295D01*
X40738094Y-115395295D02*
X40690475Y-115300057D01*
X40690475Y-115300057D02*
X40642856Y-115252438D01*
X40642856Y-115252438D02*
X40547618Y-115204819D01*
X40547618Y-115204819D02*
X40309523Y-115204819D01*
X40309523Y-115204819D02*
X40166666Y-115252438D01*
X39214285Y-116204819D02*
X39785713Y-116204819D01*
X39499999Y-116204819D02*
X39499999Y-115204819D01*
X39499999Y-115204819D02*
X39595237Y-115347676D01*
X39595237Y-115347676D02*
X39690475Y-115442914D01*
X39690475Y-115442914D02*
X39785713Y-115490533D01*
X38357142Y-115204819D02*
X38547618Y-115204819D01*
X38547618Y-115204819D02*
X38642856Y-115252438D01*
X38642856Y-115252438D02*
X38690475Y-115300057D01*
X38690475Y-115300057D02*
X38785713Y-115442914D01*
X38785713Y-115442914D02*
X38833332Y-115633390D01*
X38833332Y-115633390D02*
X38833332Y-116014342D01*
X38833332Y-116014342D02*
X38785713Y-116109580D01*
X38785713Y-116109580D02*
X38738094Y-116157200D01*
X38738094Y-116157200D02*
X38642856Y-116204819D01*
X38642856Y-116204819D02*
X38452380Y-116204819D01*
X38452380Y-116204819D02*
X38357142Y-116157200D01*
X38357142Y-116157200D02*
X38309523Y-116109580D01*
X38309523Y-116109580D02*
X38261904Y-116014342D01*
X38261904Y-116014342D02*
X38261904Y-115776247D01*
X38261904Y-115776247D02*
X38309523Y-115681009D01*
X38309523Y-115681009D02*
X38357142Y-115633390D01*
X38357142Y-115633390D02*
X38452380Y-115585771D01*
X38452380Y-115585771D02*
X38642856Y-115585771D01*
X38642856Y-115585771D02*
X38738094Y-115633390D01*
X38738094Y-115633390D02*
X38785713Y-115681009D01*
X38785713Y-115681009D02*
X38833332Y-115776247D01*
X110190475Y-117349919D02*
X110190475Y-116349919D01*
X110190475Y-116349919D02*
X109952380Y-116349919D01*
X109952380Y-116349919D02*
X109809523Y-116397538D01*
X109809523Y-116397538D02*
X109714285Y-116492776D01*
X109714285Y-116492776D02*
X109666666Y-116588014D01*
X109666666Y-116588014D02*
X109619047Y-116778490D01*
X109619047Y-116778490D02*
X109619047Y-116921347D01*
X109619047Y-116921347D02*
X109666666Y-117111823D01*
X109666666Y-117111823D02*
X109714285Y-117207061D01*
X109714285Y-117207061D02*
X109809523Y-117302300D01*
X109809523Y-117302300D02*
X109952380Y-117349919D01*
X109952380Y-117349919D02*
X110190475Y-117349919D01*
X109238094Y-117302300D02*
X109095237Y-117349919D01*
X109095237Y-117349919D02*
X108857142Y-117349919D01*
X108857142Y-117349919D02*
X108761904Y-117302300D01*
X108761904Y-117302300D02*
X108714285Y-117254680D01*
X108714285Y-117254680D02*
X108666666Y-117159442D01*
X108666666Y-117159442D02*
X108666666Y-117064204D01*
X108666666Y-117064204D02*
X108714285Y-116968966D01*
X108714285Y-116968966D02*
X108761904Y-116921347D01*
X108761904Y-116921347D02*
X108857142Y-116873728D01*
X108857142Y-116873728D02*
X109047618Y-116826109D01*
X109047618Y-116826109D02*
X109142856Y-116778490D01*
X109142856Y-116778490D02*
X109190475Y-116730871D01*
X109190475Y-116730871D02*
X109238094Y-116635633D01*
X109238094Y-116635633D02*
X109238094Y-116540395D01*
X109238094Y-116540395D02*
X109190475Y-116445157D01*
X109190475Y-116445157D02*
X109142856Y-116397538D01*
X109142856Y-116397538D02*
X109047618Y-116349919D01*
X109047618Y-116349919D02*
X108809523Y-116349919D01*
X108809523Y-116349919D02*
X108666666Y-116397538D01*
X108333332Y-116349919D02*
X107714285Y-116349919D01*
X107714285Y-116349919D02*
X108047618Y-116730871D01*
X108047618Y-116730871D02*
X107904761Y-116730871D01*
X107904761Y-116730871D02*
X107809523Y-116778490D01*
X107809523Y-116778490D02*
X107761904Y-116826109D01*
X107761904Y-116826109D02*
X107714285Y-116921347D01*
X107714285Y-116921347D02*
X107714285Y-117159442D01*
X107714285Y-117159442D02*
X107761904Y-117254680D01*
X107761904Y-117254680D02*
X107809523Y-117302300D01*
X107809523Y-117302300D02*
X107904761Y-117349919D01*
X107904761Y-117349919D02*
X108190475Y-117349919D01*
X108190475Y-117349919D02*
X108285713Y-117302300D01*
X108285713Y-117302300D02*
X108333332Y-117254680D01*
X107333332Y-116445157D02*
X107285713Y-116397538D01*
X107285713Y-116397538D02*
X107190475Y-116349919D01*
X107190475Y-116349919D02*
X106952380Y-116349919D01*
X106952380Y-116349919D02*
X106857142Y-116397538D01*
X106857142Y-116397538D02*
X106809523Y-116445157D01*
X106809523Y-116445157D02*
X106761904Y-116540395D01*
X106761904Y-116540395D02*
X106761904Y-116635633D01*
X106761904Y-116635633D02*
X106809523Y-116778490D01*
X106809523Y-116778490D02*
X107380951Y-117349919D01*
X107380951Y-117349919D02*
X106761904Y-117349919D01*
X103440475Y-106099919D02*
X103440475Y-105099919D01*
X103440475Y-105099919D02*
X103202380Y-105099919D01*
X103202380Y-105099919D02*
X103059523Y-105147538D01*
X103059523Y-105147538D02*
X102964285Y-105242776D01*
X102964285Y-105242776D02*
X102916666Y-105338014D01*
X102916666Y-105338014D02*
X102869047Y-105528490D01*
X102869047Y-105528490D02*
X102869047Y-105671347D01*
X102869047Y-105671347D02*
X102916666Y-105861823D01*
X102916666Y-105861823D02*
X102964285Y-105957061D01*
X102964285Y-105957061D02*
X103059523Y-106052300D01*
X103059523Y-106052300D02*
X103202380Y-106099919D01*
X103202380Y-106099919D02*
X103440475Y-106099919D01*
X102488094Y-106052300D02*
X102345237Y-106099919D01*
X102345237Y-106099919D02*
X102107142Y-106099919D01*
X102107142Y-106099919D02*
X102011904Y-106052300D01*
X102011904Y-106052300D02*
X101964285Y-106004680D01*
X101964285Y-106004680D02*
X101916666Y-105909442D01*
X101916666Y-105909442D02*
X101916666Y-105814204D01*
X101916666Y-105814204D02*
X101964285Y-105718966D01*
X101964285Y-105718966D02*
X102011904Y-105671347D01*
X102011904Y-105671347D02*
X102107142Y-105623728D01*
X102107142Y-105623728D02*
X102297618Y-105576109D01*
X102297618Y-105576109D02*
X102392856Y-105528490D01*
X102392856Y-105528490D02*
X102440475Y-105480871D01*
X102440475Y-105480871D02*
X102488094Y-105385633D01*
X102488094Y-105385633D02*
X102488094Y-105290395D01*
X102488094Y-105290395D02*
X102440475Y-105195157D01*
X102440475Y-105195157D02*
X102392856Y-105147538D01*
X102392856Y-105147538D02*
X102297618Y-105099919D01*
X102297618Y-105099919D02*
X102059523Y-105099919D01*
X102059523Y-105099919D02*
X101916666Y-105147538D01*
X101535713Y-105195157D02*
X101488094Y-105147538D01*
X101488094Y-105147538D02*
X101392856Y-105099919D01*
X101392856Y-105099919D02*
X101154761Y-105099919D01*
X101154761Y-105099919D02*
X101059523Y-105147538D01*
X101059523Y-105147538D02*
X101011904Y-105195157D01*
X101011904Y-105195157D02*
X100964285Y-105290395D01*
X100964285Y-105290395D02*
X100964285Y-105385633D01*
X100964285Y-105385633D02*
X101011904Y-105528490D01*
X101011904Y-105528490D02*
X101583332Y-106099919D01*
X101583332Y-106099919D02*
X100964285Y-106099919D01*
X100488094Y-106099919D02*
X100297618Y-106099919D01*
X100297618Y-106099919D02*
X100202380Y-106052300D01*
X100202380Y-106052300D02*
X100154761Y-106004680D01*
X100154761Y-106004680D02*
X100059523Y-105861823D01*
X100059523Y-105861823D02*
X100011904Y-105671347D01*
X100011904Y-105671347D02*
X100011904Y-105290395D01*
X100011904Y-105290395D02*
X100059523Y-105195157D01*
X100059523Y-105195157D02*
X100107142Y-105147538D01*
X100107142Y-105147538D02*
X100202380Y-105099919D01*
X100202380Y-105099919D02*
X100392856Y-105099919D01*
X100392856Y-105099919D02*
X100488094Y-105147538D01*
X100488094Y-105147538D02*
X100535713Y-105195157D01*
X100535713Y-105195157D02*
X100583332Y-105290395D01*
X100583332Y-105290395D02*
X100583332Y-105528490D01*
X100583332Y-105528490D02*
X100535713Y-105623728D01*
X100535713Y-105623728D02*
X100488094Y-105671347D01*
X100488094Y-105671347D02*
X100392856Y-105718966D01*
X100392856Y-105718966D02*
X100202380Y-105718966D01*
X100202380Y-105718966D02*
X100107142Y-105671347D01*
X100107142Y-105671347D02*
X100059523Y-105623728D01*
X100059523Y-105623728D02*
X100011904Y-105528490D01*
X103690475Y-62349919D02*
X103690475Y-61349919D01*
X103690475Y-61349919D02*
X103452380Y-61349919D01*
X103452380Y-61349919D02*
X103309523Y-61397538D01*
X103309523Y-61397538D02*
X103214285Y-61492776D01*
X103214285Y-61492776D02*
X103166666Y-61588014D01*
X103166666Y-61588014D02*
X103119047Y-61778490D01*
X103119047Y-61778490D02*
X103119047Y-61921347D01*
X103119047Y-61921347D02*
X103166666Y-62111823D01*
X103166666Y-62111823D02*
X103214285Y-62207061D01*
X103214285Y-62207061D02*
X103309523Y-62302300D01*
X103309523Y-62302300D02*
X103452380Y-62349919D01*
X103452380Y-62349919D02*
X103690475Y-62349919D01*
X102738094Y-62302300D02*
X102595237Y-62349919D01*
X102595237Y-62349919D02*
X102357142Y-62349919D01*
X102357142Y-62349919D02*
X102261904Y-62302300D01*
X102261904Y-62302300D02*
X102214285Y-62254680D01*
X102214285Y-62254680D02*
X102166666Y-62159442D01*
X102166666Y-62159442D02*
X102166666Y-62064204D01*
X102166666Y-62064204D02*
X102214285Y-61968966D01*
X102214285Y-61968966D02*
X102261904Y-61921347D01*
X102261904Y-61921347D02*
X102357142Y-61873728D01*
X102357142Y-61873728D02*
X102547618Y-61826109D01*
X102547618Y-61826109D02*
X102642856Y-61778490D01*
X102642856Y-61778490D02*
X102690475Y-61730871D01*
X102690475Y-61730871D02*
X102738094Y-61635633D01*
X102738094Y-61635633D02*
X102738094Y-61540395D01*
X102738094Y-61540395D02*
X102690475Y-61445157D01*
X102690475Y-61445157D02*
X102642856Y-61397538D01*
X102642856Y-61397538D02*
X102547618Y-61349919D01*
X102547618Y-61349919D02*
X102309523Y-61349919D01*
X102309523Y-61349919D02*
X102166666Y-61397538D01*
X101785713Y-61445157D02*
X101738094Y-61397538D01*
X101738094Y-61397538D02*
X101642856Y-61349919D01*
X101642856Y-61349919D02*
X101404761Y-61349919D01*
X101404761Y-61349919D02*
X101309523Y-61397538D01*
X101309523Y-61397538D02*
X101261904Y-61445157D01*
X101261904Y-61445157D02*
X101214285Y-61540395D01*
X101214285Y-61540395D02*
X101214285Y-61635633D01*
X101214285Y-61635633D02*
X101261904Y-61778490D01*
X101261904Y-61778490D02*
X101833332Y-62349919D01*
X101833332Y-62349919D02*
X101214285Y-62349919D01*
X100261904Y-62349919D02*
X100833332Y-62349919D01*
X100547618Y-62349919D02*
X100547618Y-61349919D01*
X100547618Y-61349919D02*
X100642856Y-61492776D01*
X100642856Y-61492776D02*
X100738094Y-61588014D01*
X100738094Y-61588014D02*
X100833332Y-61635633D01*
X110190475Y-51099919D02*
X110190475Y-50099919D01*
X110190475Y-50099919D02*
X109952380Y-50099919D01*
X109952380Y-50099919D02*
X109809523Y-50147538D01*
X109809523Y-50147538D02*
X109714285Y-50242776D01*
X109714285Y-50242776D02*
X109666666Y-50338014D01*
X109666666Y-50338014D02*
X109619047Y-50528490D01*
X109619047Y-50528490D02*
X109619047Y-50671347D01*
X109619047Y-50671347D02*
X109666666Y-50861823D01*
X109666666Y-50861823D02*
X109714285Y-50957061D01*
X109714285Y-50957061D02*
X109809523Y-51052300D01*
X109809523Y-51052300D02*
X109952380Y-51099919D01*
X109952380Y-51099919D02*
X110190475Y-51099919D01*
X109238094Y-51052300D02*
X109095237Y-51099919D01*
X109095237Y-51099919D02*
X108857142Y-51099919D01*
X108857142Y-51099919D02*
X108761904Y-51052300D01*
X108761904Y-51052300D02*
X108714285Y-51004680D01*
X108714285Y-51004680D02*
X108666666Y-50909442D01*
X108666666Y-50909442D02*
X108666666Y-50814204D01*
X108666666Y-50814204D02*
X108714285Y-50718966D01*
X108714285Y-50718966D02*
X108761904Y-50671347D01*
X108761904Y-50671347D02*
X108857142Y-50623728D01*
X108857142Y-50623728D02*
X109047618Y-50576109D01*
X109047618Y-50576109D02*
X109142856Y-50528490D01*
X109142856Y-50528490D02*
X109190475Y-50480871D01*
X109190475Y-50480871D02*
X109238094Y-50385633D01*
X109238094Y-50385633D02*
X109238094Y-50290395D01*
X109238094Y-50290395D02*
X109190475Y-50195157D01*
X109190475Y-50195157D02*
X109142856Y-50147538D01*
X109142856Y-50147538D02*
X109047618Y-50099919D01*
X109047618Y-50099919D02*
X108809523Y-50099919D01*
X108809523Y-50099919D02*
X108666666Y-50147538D01*
X108285713Y-50195157D02*
X108238094Y-50147538D01*
X108238094Y-50147538D02*
X108142856Y-50099919D01*
X108142856Y-50099919D02*
X107904761Y-50099919D01*
X107904761Y-50099919D02*
X107809523Y-50147538D01*
X107809523Y-50147538D02*
X107761904Y-50195157D01*
X107761904Y-50195157D02*
X107714285Y-50290395D01*
X107714285Y-50290395D02*
X107714285Y-50385633D01*
X107714285Y-50385633D02*
X107761904Y-50528490D01*
X107761904Y-50528490D02*
X108333332Y-51099919D01*
X108333332Y-51099919D02*
X107714285Y-51099919D01*
X107095237Y-50099919D02*
X106999999Y-50099919D01*
X106999999Y-50099919D02*
X106904761Y-50147538D01*
X106904761Y-50147538D02*
X106857142Y-50195157D01*
X106857142Y-50195157D02*
X106809523Y-50290395D01*
X106809523Y-50290395D02*
X106761904Y-50480871D01*
X106761904Y-50480871D02*
X106761904Y-50718966D01*
X106761904Y-50718966D02*
X106809523Y-50909442D01*
X106809523Y-50909442D02*
X106857142Y-51004680D01*
X106857142Y-51004680D02*
X106904761Y-51052300D01*
X106904761Y-51052300D02*
X106999999Y-51099919D01*
X106999999Y-51099919D02*
X107095237Y-51099919D01*
X107095237Y-51099919D02*
X107190475Y-51052300D01*
X107190475Y-51052300D02*
X107238094Y-51004680D01*
X107238094Y-51004680D02*
X107285713Y-50909442D01*
X107285713Y-50909442D02*
X107333332Y-50718966D01*
X107333332Y-50718966D02*
X107333332Y-50480871D01*
X107333332Y-50480871D02*
X107285713Y-50290395D01*
X107285713Y-50290395D02*
X107238094Y-50195157D01*
X107238094Y-50195157D02*
X107190475Y-50147538D01*
X107190475Y-50147538D02*
X107095237Y-50099919D01*
X103440475Y-128099919D02*
X103440475Y-127099919D01*
X103440475Y-127099919D02*
X103202380Y-127099919D01*
X103202380Y-127099919D02*
X103059523Y-127147538D01*
X103059523Y-127147538D02*
X102964285Y-127242776D01*
X102964285Y-127242776D02*
X102916666Y-127338014D01*
X102916666Y-127338014D02*
X102869047Y-127528490D01*
X102869047Y-127528490D02*
X102869047Y-127671347D01*
X102869047Y-127671347D02*
X102916666Y-127861823D01*
X102916666Y-127861823D02*
X102964285Y-127957061D01*
X102964285Y-127957061D02*
X103059523Y-128052300D01*
X103059523Y-128052300D02*
X103202380Y-128099919D01*
X103202380Y-128099919D02*
X103440475Y-128099919D01*
X102488094Y-128052300D02*
X102345237Y-128099919D01*
X102345237Y-128099919D02*
X102107142Y-128099919D01*
X102107142Y-128099919D02*
X102011904Y-128052300D01*
X102011904Y-128052300D02*
X101964285Y-128004680D01*
X101964285Y-128004680D02*
X101916666Y-127909442D01*
X101916666Y-127909442D02*
X101916666Y-127814204D01*
X101916666Y-127814204D02*
X101964285Y-127718966D01*
X101964285Y-127718966D02*
X102011904Y-127671347D01*
X102011904Y-127671347D02*
X102107142Y-127623728D01*
X102107142Y-127623728D02*
X102297618Y-127576109D01*
X102297618Y-127576109D02*
X102392856Y-127528490D01*
X102392856Y-127528490D02*
X102440475Y-127480871D01*
X102440475Y-127480871D02*
X102488094Y-127385633D01*
X102488094Y-127385633D02*
X102488094Y-127290395D01*
X102488094Y-127290395D02*
X102440475Y-127195157D01*
X102440475Y-127195157D02*
X102392856Y-127147538D01*
X102392856Y-127147538D02*
X102297618Y-127099919D01*
X102297618Y-127099919D02*
X102059523Y-127099919D01*
X102059523Y-127099919D02*
X101916666Y-127147538D01*
X101583332Y-127099919D02*
X100964285Y-127099919D01*
X100964285Y-127099919D02*
X101297618Y-127480871D01*
X101297618Y-127480871D02*
X101154761Y-127480871D01*
X101154761Y-127480871D02*
X101059523Y-127528490D01*
X101059523Y-127528490D02*
X101011904Y-127576109D01*
X101011904Y-127576109D02*
X100964285Y-127671347D01*
X100964285Y-127671347D02*
X100964285Y-127909442D01*
X100964285Y-127909442D02*
X101011904Y-128004680D01*
X101011904Y-128004680D02*
X101059523Y-128052300D01*
X101059523Y-128052300D02*
X101154761Y-128099919D01*
X101154761Y-128099919D02*
X101440475Y-128099919D01*
X101440475Y-128099919D02*
X101535713Y-128052300D01*
X101535713Y-128052300D02*
X101583332Y-128004680D01*
X100630951Y-127099919D02*
X100011904Y-127099919D01*
X100011904Y-127099919D02*
X100345237Y-127480871D01*
X100345237Y-127480871D02*
X100202380Y-127480871D01*
X100202380Y-127480871D02*
X100107142Y-127528490D01*
X100107142Y-127528490D02*
X100059523Y-127576109D01*
X100059523Y-127576109D02*
X100011904Y-127671347D01*
X100011904Y-127671347D02*
X100011904Y-127909442D01*
X100011904Y-127909442D02*
X100059523Y-128004680D01*
X100059523Y-128004680D02*
X100107142Y-128052300D01*
X100107142Y-128052300D02*
X100202380Y-128099919D01*
X100202380Y-128099919D02*
X100488094Y-128099919D01*
X100488094Y-128099919D02*
X100583332Y-128052300D01*
X100583332Y-128052300D02*
X100630951Y-128004680D01*
X103690475Y-73099919D02*
X103690475Y-72099919D01*
X103690475Y-72099919D02*
X103452380Y-72099919D01*
X103452380Y-72099919D02*
X103309523Y-72147538D01*
X103309523Y-72147538D02*
X103214285Y-72242776D01*
X103214285Y-72242776D02*
X103166666Y-72338014D01*
X103166666Y-72338014D02*
X103119047Y-72528490D01*
X103119047Y-72528490D02*
X103119047Y-72671347D01*
X103119047Y-72671347D02*
X103166666Y-72861823D01*
X103166666Y-72861823D02*
X103214285Y-72957061D01*
X103214285Y-72957061D02*
X103309523Y-73052300D01*
X103309523Y-73052300D02*
X103452380Y-73099919D01*
X103452380Y-73099919D02*
X103690475Y-73099919D01*
X102738094Y-73052300D02*
X102595237Y-73099919D01*
X102595237Y-73099919D02*
X102357142Y-73099919D01*
X102357142Y-73099919D02*
X102261904Y-73052300D01*
X102261904Y-73052300D02*
X102214285Y-73004680D01*
X102214285Y-73004680D02*
X102166666Y-72909442D01*
X102166666Y-72909442D02*
X102166666Y-72814204D01*
X102166666Y-72814204D02*
X102214285Y-72718966D01*
X102214285Y-72718966D02*
X102261904Y-72671347D01*
X102261904Y-72671347D02*
X102357142Y-72623728D01*
X102357142Y-72623728D02*
X102547618Y-72576109D01*
X102547618Y-72576109D02*
X102642856Y-72528490D01*
X102642856Y-72528490D02*
X102690475Y-72480871D01*
X102690475Y-72480871D02*
X102738094Y-72385633D01*
X102738094Y-72385633D02*
X102738094Y-72290395D01*
X102738094Y-72290395D02*
X102690475Y-72195157D01*
X102690475Y-72195157D02*
X102642856Y-72147538D01*
X102642856Y-72147538D02*
X102547618Y-72099919D01*
X102547618Y-72099919D02*
X102309523Y-72099919D01*
X102309523Y-72099919D02*
X102166666Y-72147538D01*
X101785713Y-72195157D02*
X101738094Y-72147538D01*
X101738094Y-72147538D02*
X101642856Y-72099919D01*
X101642856Y-72099919D02*
X101404761Y-72099919D01*
X101404761Y-72099919D02*
X101309523Y-72147538D01*
X101309523Y-72147538D02*
X101261904Y-72195157D01*
X101261904Y-72195157D02*
X101214285Y-72290395D01*
X101214285Y-72290395D02*
X101214285Y-72385633D01*
X101214285Y-72385633D02*
X101261904Y-72528490D01*
X101261904Y-72528490D02*
X101833332Y-73099919D01*
X101833332Y-73099919D02*
X101214285Y-73099919D01*
X100880951Y-72099919D02*
X100261904Y-72099919D01*
X100261904Y-72099919D02*
X100595237Y-72480871D01*
X100595237Y-72480871D02*
X100452380Y-72480871D01*
X100452380Y-72480871D02*
X100357142Y-72528490D01*
X100357142Y-72528490D02*
X100309523Y-72576109D01*
X100309523Y-72576109D02*
X100261904Y-72671347D01*
X100261904Y-72671347D02*
X100261904Y-72909442D01*
X100261904Y-72909442D02*
X100309523Y-73004680D01*
X100309523Y-73004680D02*
X100357142Y-73052300D01*
X100357142Y-73052300D02*
X100452380Y-73099919D01*
X100452380Y-73099919D02*
X100738094Y-73099919D01*
X100738094Y-73099919D02*
X100833332Y-73052300D01*
X100833332Y-73052300D02*
X100880951Y-73004680D01*
X48440475Y-94204819D02*
X48440475Y-93204819D01*
X48440475Y-93204819D02*
X48202380Y-93204819D01*
X48202380Y-93204819D02*
X48059523Y-93252438D01*
X48059523Y-93252438D02*
X47964285Y-93347676D01*
X47964285Y-93347676D02*
X47916666Y-93442914D01*
X47916666Y-93442914D02*
X47869047Y-93633390D01*
X47869047Y-93633390D02*
X47869047Y-93776247D01*
X47869047Y-93776247D02*
X47916666Y-93966723D01*
X47916666Y-93966723D02*
X47964285Y-94061961D01*
X47964285Y-94061961D02*
X48059523Y-94157200D01*
X48059523Y-94157200D02*
X48202380Y-94204819D01*
X48202380Y-94204819D02*
X48440475Y-94204819D01*
X47488094Y-94157200D02*
X47345237Y-94204819D01*
X47345237Y-94204819D02*
X47107142Y-94204819D01*
X47107142Y-94204819D02*
X47011904Y-94157200D01*
X47011904Y-94157200D02*
X46964285Y-94109580D01*
X46964285Y-94109580D02*
X46916666Y-94014342D01*
X46916666Y-94014342D02*
X46916666Y-93919104D01*
X46916666Y-93919104D02*
X46964285Y-93823866D01*
X46964285Y-93823866D02*
X47011904Y-93776247D01*
X47011904Y-93776247D02*
X47107142Y-93728628D01*
X47107142Y-93728628D02*
X47297618Y-93681009D01*
X47297618Y-93681009D02*
X47392856Y-93633390D01*
X47392856Y-93633390D02*
X47440475Y-93585771D01*
X47440475Y-93585771D02*
X47488094Y-93490533D01*
X47488094Y-93490533D02*
X47488094Y-93395295D01*
X47488094Y-93395295D02*
X47440475Y-93300057D01*
X47440475Y-93300057D02*
X47392856Y-93252438D01*
X47392856Y-93252438D02*
X47297618Y-93204819D01*
X47297618Y-93204819D02*
X47059523Y-93204819D01*
X47059523Y-93204819D02*
X46916666Y-93252438D01*
X45964285Y-94204819D02*
X46535713Y-94204819D01*
X46249999Y-94204819D02*
X46249999Y-93204819D01*
X46249999Y-93204819D02*
X46345237Y-93347676D01*
X46345237Y-93347676D02*
X46440475Y-93442914D01*
X46440475Y-93442914D02*
X46535713Y-93490533D01*
X45011904Y-94204819D02*
X45583332Y-94204819D01*
X45297618Y-94204819D02*
X45297618Y-93204819D01*
X45297618Y-93204819D02*
X45392856Y-93347676D01*
X45392856Y-93347676D02*
X45488094Y-93442914D01*
X45488094Y-93442914D02*
X45583332Y-93490533D01*
X86288152Y-39633333D02*
X86954819Y-39633333D01*
X86288152Y-39204762D02*
X86811961Y-39204762D01*
X86811961Y-39204762D02*
X86907200Y-39252381D01*
X86907200Y-39252381D02*
X86954819Y-39347619D01*
X86954819Y-39347619D02*
X86954819Y-39490476D01*
X86954819Y-39490476D02*
X86907200Y-39585714D01*
X86907200Y-39585714D02*
X86859580Y-39633333D01*
X86431009Y-40442857D02*
X86431009Y-40109524D01*
X86954819Y-40109524D02*
X85954819Y-40109524D01*
X85954819Y-40109524D02*
X85954819Y-40585714D01*
X86954819Y-41490476D02*
X86954819Y-40919048D01*
X86954819Y-41204762D02*
X85954819Y-41204762D01*
X85954819Y-41204762D02*
X86097676Y-41109524D01*
X86097676Y-41109524D02*
X86192914Y-41014286D01*
X86192914Y-41014286D02*
X86240533Y-40919048D01*
X85954819Y-42109524D02*
X85954819Y-42204762D01*
X85954819Y-42204762D02*
X86002438Y-42300000D01*
X86002438Y-42300000D02*
X86050057Y-42347619D01*
X86050057Y-42347619D02*
X86145295Y-42395238D01*
X86145295Y-42395238D02*
X86335771Y-42442857D01*
X86335771Y-42442857D02*
X86573866Y-42442857D01*
X86573866Y-42442857D02*
X86764342Y-42395238D01*
X86764342Y-42395238D02*
X86859580Y-42347619D01*
X86859580Y-42347619D02*
X86907200Y-42300000D01*
X86907200Y-42300000D02*
X86954819Y-42204762D01*
X86954819Y-42204762D02*
X86954819Y-42109524D01*
X86954819Y-42109524D02*
X86907200Y-42014286D01*
X86907200Y-42014286D02*
X86859580Y-41966667D01*
X86859580Y-41966667D02*
X86764342Y-41919048D01*
X86764342Y-41919048D02*
X86573866Y-41871429D01*
X86573866Y-41871429D02*
X86335771Y-41871429D01*
X86335771Y-41871429D02*
X86145295Y-41919048D01*
X86145295Y-41919048D02*
X86050057Y-41966667D01*
X86050057Y-41966667D02*
X86002438Y-42014286D01*
X86002438Y-42014286D02*
X85954819Y-42109524D01*
D11*
%TO.C,DS22*%
X106850000Y-65405100D02*
X106850000Y-59895100D01*
X110150000Y-65405100D02*
X106850000Y-65405100D01*
X110150000Y-65405100D02*
X110150000Y-59895100D01*
%TO.C,DS10*%
X38350000Y-86260000D02*
X38350000Y-80750000D01*
X41650000Y-86260000D02*
X38350000Y-86260000D01*
X41650000Y-86260000D02*
X41650000Y-80750000D01*
%TO.C,DS8*%
X38350000Y-75510000D02*
X38350000Y-70000000D01*
X41650000Y-75510000D02*
X38350000Y-75510000D01*
X41650000Y-75510000D02*
X41650000Y-70000000D01*
%TO.C,DS27*%
X100600000Y-91135100D02*
X100600000Y-96645100D01*
X100600000Y-91135100D02*
X103900000Y-91135100D01*
X103900000Y-91135100D02*
X103900000Y-96645100D01*
%TO.C,DS9*%
X45100000Y-79240000D02*
X45100000Y-84750000D01*
X45100000Y-79240000D02*
X48400000Y-79240000D01*
X48400000Y-79240000D02*
X48400000Y-84750000D01*
%TO.C,DS36*%
X106600000Y-142405100D02*
X106600000Y-136895100D01*
X109900000Y-142405100D02*
X106600000Y-142405100D01*
X109900000Y-142405100D02*
X109900000Y-136895100D01*
%TO.C,DS26*%
X107100000Y-87155100D02*
X107100000Y-81645100D01*
X110400000Y-87155100D02*
X107100000Y-87155100D01*
X110400000Y-87155100D02*
X110400000Y-81645100D01*
%TO.C,DS12*%
X38350000Y-97510000D02*
X38350000Y-92000000D01*
X41650000Y-97510000D02*
X38350000Y-97510000D01*
X41650000Y-97510000D02*
X41650000Y-92000000D01*
%TO.C,DS5*%
X45350000Y-56990000D02*
X45350000Y-62500000D01*
X45350000Y-56990000D02*
X48650000Y-56990000D01*
X48650000Y-56990000D02*
X48650000Y-62500000D01*
%TO.C,DS15*%
X45100000Y-112240000D02*
X45100000Y-117750000D01*
X45100000Y-112240000D02*
X48400000Y-112240000D01*
X48400000Y-112240000D02*
X48400000Y-117750000D01*
%TO.C,DS19*%
X100600000Y-47135100D02*
X100600000Y-52645100D01*
X100600000Y-47135100D02*
X103900000Y-47135100D01*
X103900000Y-47135100D02*
X103900000Y-52645100D01*
%TO.C,DS30*%
X106600000Y-109155100D02*
X106600000Y-103645100D01*
X109900000Y-109155100D02*
X106600000Y-109155100D01*
X109900000Y-109155100D02*
X109900000Y-103645100D01*
%TO.C,uF2*%
X59515000Y-35738748D02*
X59515000Y-36261252D01*
X60985000Y-35738748D02*
X60985000Y-36261252D01*
%TO.C,uF1*%
X59515000Y-39761252D02*
X59515000Y-39238748D01*
X60985000Y-39761252D02*
X60985000Y-39238748D01*
%TO.C,DS7*%
X45100000Y-68490000D02*
X45100000Y-74000000D01*
X45100000Y-68490000D02*
X48400000Y-68490000D01*
X48400000Y-68490000D02*
X48400000Y-74000000D01*
%TO.C,uF9*%
X87765000Y-37261252D02*
X87765000Y-36738748D01*
X89235000Y-37261252D02*
X89235000Y-36738748D01*
%TO.C,DS1*%
X45350000Y-34990000D02*
X45350000Y-40500000D01*
X45350000Y-34990000D02*
X48650000Y-34990000D01*
X48650000Y-34990000D02*
X48650000Y-40500000D01*
%TO.C,DS35*%
X100100000Y-135385100D02*
X100100000Y-140895100D01*
X100100000Y-135385100D02*
X103400000Y-135385100D01*
X103400000Y-135385100D02*
X103400000Y-140895100D01*
%TO.C,DS24*%
X107100000Y-76155100D02*
X107100000Y-70645100D01*
X110400000Y-76155100D02*
X107100000Y-76155100D01*
X110400000Y-76155100D02*
X110400000Y-70645100D01*
%TO.C,DS3*%
X44850000Y-46490000D02*
X44850000Y-52000000D01*
X44850000Y-46490000D02*
X48150000Y-46490000D01*
X48150000Y-46490000D02*
X48150000Y-52000000D01*
%TO.C,DS17*%
X100350000Y-36135100D02*
X100350000Y-41645100D01*
X100350000Y-36135100D02*
X103650000Y-36135100D01*
X103650000Y-36135100D02*
X103650000Y-41645100D01*
%TO.C,DS6*%
X38350000Y-56990000D02*
X38350000Y-62500000D01*
X38350000Y-56990000D02*
X41650000Y-56990000D01*
X41650000Y-56990000D02*
X41650000Y-62500000D01*
%TO.C,DS34*%
X106600000Y-131405100D02*
X106600000Y-125895100D01*
X109900000Y-131405100D02*
X106600000Y-131405100D01*
X109900000Y-131405100D02*
X109900000Y-125895100D01*
%TO.C,DS13*%
X45100000Y-101490000D02*
X45100000Y-107000000D01*
X45100000Y-101490000D02*
X48400000Y-101490000D01*
X48400000Y-101490000D02*
X48400000Y-107000000D01*
%TO.C,DS28*%
X107100000Y-98405100D02*
X107100000Y-92895100D01*
X110400000Y-98405100D02*
X107100000Y-98405100D01*
X110400000Y-98405100D02*
X110400000Y-92895100D01*
%TO.C,DS25*%
X100600000Y-80135100D02*
X100600000Y-85645100D01*
X100600000Y-80135100D02*
X103900000Y-80135100D01*
X103900000Y-80135100D02*
X103900000Y-85645100D01*
%TO.C,DS14*%
X38350000Y-108510000D02*
X38350000Y-103000000D01*
X41650000Y-108510000D02*
X38350000Y-108510000D01*
X41650000Y-108510000D02*
X41650000Y-103000000D01*
%TO.C,DS31*%
X100100000Y-113135100D02*
X100100000Y-118645100D01*
X100100000Y-113135100D02*
X103400000Y-113135100D01*
X103400000Y-113135100D02*
X103400000Y-118645100D01*
%TO.C,DS2*%
X37850000Y-34490000D02*
X37850000Y-40000000D01*
X37850000Y-34490000D02*
X41150000Y-34490000D01*
X41150000Y-34490000D02*
X41150000Y-40000000D01*
%TO.C,DS4*%
X38350000Y-53510000D02*
X38350000Y-48000000D01*
X41650000Y-53510000D02*
X38350000Y-53510000D01*
X41650000Y-53510000D02*
X41650000Y-48000000D01*
%TO.C,DS18*%
X107100000Y-36135100D02*
X107100000Y-41645100D01*
X107100000Y-36135100D02*
X110400000Y-36135100D01*
X110400000Y-36135100D02*
X110400000Y-41645100D01*
%TO.C,DS16*%
X38350000Y-119260000D02*
X38350000Y-113750000D01*
X41650000Y-119260000D02*
X38350000Y-119260000D01*
X41650000Y-119260000D02*
X41650000Y-113750000D01*
%TO.C,DS32*%
X106850000Y-120405100D02*
X106850000Y-114895100D01*
X110150000Y-120405100D02*
X106850000Y-120405100D01*
X110150000Y-120405100D02*
X110150000Y-114895100D01*
%TO.C,DS29*%
X100100000Y-102135100D02*
X100100000Y-107645100D01*
X100100000Y-102135100D02*
X103400000Y-102135100D01*
X103400000Y-102135100D02*
X103400000Y-107645100D01*
%TO.C,DS21*%
X100350000Y-58385100D02*
X100350000Y-63895100D01*
X100350000Y-58385100D02*
X103650000Y-58385100D01*
X103650000Y-58385100D02*
X103650000Y-63895100D01*
%TO.C,DS20*%
X106850000Y-54155100D02*
X106850000Y-48645100D01*
X110150000Y-54155100D02*
X106850000Y-54155100D01*
X110150000Y-54155100D02*
X110150000Y-48645100D01*
%TO.C,DS33*%
X100100000Y-124135100D02*
X100100000Y-129645100D01*
X100100000Y-124135100D02*
X103400000Y-124135100D01*
X103400000Y-124135100D02*
X103400000Y-129645100D01*
%TO.C,DS23*%
X100350000Y-69135100D02*
X100350000Y-74645100D01*
X100350000Y-69135100D02*
X103650000Y-69135100D01*
X103650000Y-69135100D02*
X103650000Y-74645100D01*
%TO.C,DS11*%
X45100000Y-90240000D02*
X45100000Y-95750000D01*
X45100000Y-90240000D02*
X48400000Y-90240000D01*
X48400000Y-90240000D02*
X48400000Y-95750000D01*
%TO.C,uF10*%
X87765000Y-41061252D02*
X87765000Y-40538748D01*
X89235000Y-41061252D02*
X89235000Y-40538748D01*
%TD*%
M02*
