M48
; DRILL file {KiCad 9.0.6} date 2026-03-01T17:58:15-0800
; FORMAT={-:-/ absolute / metric / decimal}
; #@! TF.CreationDate,2026-03-01T17:58:15-08:00
; #@! TF.GenerationSoftware,Kicad,Pcbnew,9.0.6
; #@! TF.FileFunction,Plated,1,4,PTH
FMAT,2
METRIC
; #@! TA.AperFunction,Plated,PTH,ViaDrill
T1C0.152
; #@! TA.AperFunction,Plated,PTH,ViaDrill
T2C0.300
; #@! TA.AperFunction,Plated,PTH,ComponentDrill
T3C1.000
; #@! TA.AperFunction,Plated,PTH,ComponentDrill
T4C1.295
%
G90
G05
T1
X43.25Y-139.75
X48.5Y-104.0
X48.75Y-78.75
X48.75Y-105.5
X50.25Y-86.75
X50.5Y-64.75
X50.75Y-114.25
X52.25Y-59.25
X52.25Y-81.25
X52.5Y-35.0
X52.5Y-38.0
X52.5Y-56.5
X52.5Y-93.5
X52.5Y-94.75
X52.719Y-40.219
X52.75Y-132.0
X53.5Y-130.25
X53.75Y-48.75
X53.75Y-94.0
X54.0Y-107.5
X54.25Y-59.25
X54.75Y-94.0
X55.0Y-53.0
X55.0Y-62.0
X55.25Y-46.0
X55.25Y-50.25
X55.25Y-83.0
X55.25Y-86.75
X55.5Y-59.5
X55.5Y-110.0
X55.75Y-89.25
X55.75Y-96.75
X56.0Y-44.0
X56.0Y-79.25
X56.0Y-85.25
X56.0Y-103.0
X56.25Y-40.75
X56.25Y-81.75
X56.25Y-104.0
X56.5Y-37.0
X56.5Y-62.0
X56.666Y-56.871
X56.75Y-37.5
X56.75Y-38.25
X57.75Y-53.5
X58.25Y-70.5
X58.25Y-116.5
X58.25Y-123.75
X59.0Y-47.75
X59.25Y-46.5
X59.75Y-41.75
X59.75Y-123.5
X61.25Y-115.25
X61.75Y-93.5
X62.0Y-85.25
X62.75Y-74.0
X63.0Y-39.25
X63.0Y-71.0
X63.0Y-115.25
X64.0Y-53.5
X64.75Y-74.25
X64.75Y-76.5
X65.75Y-114.75
X66.75Y-60.0
X66.75Y-63.5
X67.599Y-61.15
X69.0Y-119.0
X69.75Y-45.75
X69.75Y-71.0
X69.75Y-72.5
X70.25Y-123.5
X72.25Y-61.75
X72.75Y-66.0
X72.75Y-80.75
X75.0Y-66.5
X75.25Y-81.5
X75.25Y-122.0
X77.0Y-125.25
X79.25Y-48.75
X79.25Y-84.25
X80.75Y-49.0
X82.0Y-61.5
X82.5Y-67.75
X83.125Y-126.875
X84.75Y-67.75
X85.5Y-130.25
X85.75Y-118.75
X85.75Y-127.5
X86.0Y-37.25
X86.25Y-92.5
X86.25Y-113.0
X87.5Y-54.75
X87.5Y-107.75
X87.75Y-126.0
X88.5Y-35.25
X88.75Y-94.75
X89.0Y-56.0
X89.0Y-100.25
X89.0Y-102.75
X89.0Y-107.0
X89.0Y-114.25
X89.25Y-38.75
X89.25Y-127.25
X89.25Y-128.0
X89.75Y-50.0
X90.0Y-52.25
X90.0Y-117.5
X90.25Y-90.25
X90.5Y-44.75
X90.5Y-49.5
X90.5Y-95.5
X90.75Y-43.75
X90.875Y-93.375
X92.0Y-102.75
X92.0Y-103.5
X92.0Y-104.5
X92.0Y-124.0
X92.0Y-129.25
X92.025Y-44.775
X92.105Y-60.395
X92.18Y-82.32
X92.25Y-38.5
X92.5Y-61.5
X92.5Y-67.0
X92.5Y-84.0
X92.5Y-86.25
X92.579Y-39.329
X92.75Y-82.75
X93.0Y-41.25
X93.0Y-60.75
X93.25Y-76.75
X93.25Y-78.25
X93.25Y-100.5
X93.5Y-50.75
X93.5Y-53.25
X93.5Y-84.0
X93.5Y-96.75
X93.5Y-126.0
X93.75Y-39.25
X94.0Y-59.75
X94.25Y-86.5
X94.5Y-59.25
X95.0Y-50.25
X95.0Y-52.0
X96.0Y-91.5
X96.25Y-42.0
X96.25Y-94.0
X96.5Y-48.25
X96.5Y-52.75
X96.5Y-65.75
X99.0Y-47.0
X99.5Y-103.5
X99.75Y-125.5
X100.25Y-81.5
X101.25Y-57.5
X108.5Y-46.0
T2
X38.0Y-117.75
X40.0Y-54.25
X40.0Y-56.5
X40.0Y-76.0
X40.0Y-87.0
X40.0Y-98.0
X40.0Y-108.75
X42.25Y-104.75
X47.0Y-56.5
X47.25Y-78.5
X47.25Y-89.5
X47.75Y-67.75
X48.25Y-47.0
X48.5Y-111.75
X49.0Y-34.831
X49.25Y-39.0
X50.25Y-73.5
X51.25Y-98.75
X51.75Y-83.75
X51.875Y-106.125
X52.0Y-65.5
X52.0Y-79.25
X52.0Y-102.5
X52.25Y-61.75
X52.5Y-58.25
X53.0Y-36.5
X54.0Y-110.75
X54.75Y-82.0
X55.75Y-92.5
X55.973Y-104.825
X56.25Y-60.25
X56.25Y-78.0
X56.5Y-55.358
X56.5Y-113.0
X56.75Y-34.831
X56.75Y-38.983
X57.0Y-68.5
X57.25Y-73.5
X57.75Y-48.5
X60.5Y-94.75
X60.5Y-99.5
X60.5Y-106.5
X60.5Y-110.25
X62.25Y-94.5
X62.75Y-98.75
X62.75Y-106.25
X63.0Y-110.25
X70.0Y-94.5
X70.0Y-99.0
X70.0Y-110.25
X70.25Y-106.25
X72.75Y-94.75
X72.75Y-98.75
X72.75Y-106.75
X72.75Y-110.0
X75.0Y-106.25
X75.0Y-110.25
X75.05Y-94.55
X75.05Y-98.95
X81.5Y-95.0
X81.5Y-106.5
X81.5Y-110.25
X82.0Y-98.75
X83.0Y-94.5
X83.45Y-98.7
X83.45Y-106.05
X83.5Y-110.25
X84.75Y-110.25
X85.0Y-106.25
X85.25Y-94.95
X85.25Y-98.75
X86.75Y-37.75
X86.8Y-137.8
X88.25Y-101.25
X89.0Y-126.25
X89.0Y-136.0
X89.5Y-108.75
X89.75Y-43.0
X89.75Y-96.5
X89.75Y-98.5
X89.75Y-130.5
X90.0Y-116.25
X90.0Y-139.5
X90.5Y-87.0
X90.5Y-108.75
X90.75Y-50.75
X91.5Y-86.75
X92.5Y-66.25
X92.5Y-138.75
X94.5Y-67.95
X94.5Y-75.3
X95.5Y-139.0
X96.0Y-102.5
X96.0Y-106.5
X96.25Y-36.75
X96.25Y-58.75
X96.25Y-124.5
X96.25Y-128.25
X96.5Y-40.5
X96.5Y-62.5
X96.5Y-80.75
X96.75Y-84.5
X97.25Y-110.25
X100.25Y-77.0
X101.75Y-112.25
X102.0Y-68.5
X102.25Y-90.5
X102.5Y-134.75
X103.0Y-102.5
X103.25Y-124.75
X103.5Y-38.25
X103.5Y-58.5
X103.5Y-80.5
X105.5Y-50.0
X105.5Y-51.5
X106.5Y-105.5
X106.75Y-128.0
X107.25Y-38.5
X107.5Y-66.75
X108.25Y-143.0
X108.5Y-121.0
X108.75Y-76.75
X108.75Y-98.75
X109.25Y-87.75
X109.75Y-35.25
T3
X43.99Y-127.25
X43.99Y-142.49
X46.53Y-127.25
X46.53Y-142.49
X49.07Y-127.25
X49.07Y-142.49
X51.61Y-127.25
X51.61Y-142.49
X54.15Y-127.25
X54.15Y-142.49
X56.69Y-127.25
X56.69Y-142.49
X59.23Y-127.25
X59.23Y-142.49
X61.77Y-127.25
X61.77Y-142.49
X64.31Y-127.25
X64.31Y-142.49
X66.85Y-127.25
X66.85Y-142.49
X69.39Y-127.25
X69.39Y-142.49
X71.93Y-127.25
X71.93Y-142.49
X74.47Y-127.25
X74.47Y-142.49
X77.01Y-127.25
X77.01Y-142.49
X79.55Y-127.25
X79.55Y-142.49
T4
X43.5Y-37.0
X43.5Y-42.0
X43.5Y-47.5
X43.5Y-52.5
X43.5Y-58.5
X43.5Y-63.5
X43.5Y-69.5
X43.5Y-74.5
X43.5Y-80.5
X43.5Y-85.5
X43.5Y-91.5
X43.5Y-96.5
X43.5Y-102.5
X43.5Y-107.5
X43.5Y-113.5
X43.5Y-118.5
X89.0Y-137.8
X94.0Y-137.8
X104.95Y-103.145
X104.95Y-108.145
X104.95Y-114.25
X104.95Y-119.25
X104.95Y-125.25
X104.95Y-130.25
X104.95Y-136.25
X104.95Y-141.25
X105.25Y-37.145
X105.25Y-42.145
X105.25Y-48.145
X105.25Y-53.145
X105.25Y-59.25
X105.25Y-64.25
X105.25Y-70.25
X105.25Y-75.25
X105.25Y-92.25
X105.25Y-97.25
X105.45Y-81.25
X105.45Y-86.25
M30
