%TF.GenerationSoftware,KiCad,Pcbnew,9.0.6*%
%TF.CreationDate,2026-03-01T22:32:41-08:00*%
%TF.ProjectId,Tactile Browser,54616374-696c-4652-9042-726f77736572,rev?*%
%TF.SameCoordinates,Original*%
%TF.FileFunction,Copper,L4,Bot*%
%TF.FilePolarity,Positive*%
%FSLAX46Y46*%
G04 Gerber Fmt 4.6, Leading zero omitted, Abs format (unit mm)*
G04 Created by KiCad (PCBNEW 9.0.6) date 2026-03-01 22:32:41*
%MOMM*%
%LPD*%
G01*
G04 APERTURE LIST*
G04 Aperture macros list*
%AMRoundRect*
0 Rectangle with rounded corners*
0 $1 Rounding radius*
0 $2 $3 $4 $5 $6 $7 $8 $9 X,Y pos of 4 corners*
0 Add a 4 corners polygon primitive as box body*
4,1,4,$2,$3,$4,$5,$6,$7,$8,$9,$2,$3,0*
0 Add four circle primitives for the rounded corners*
1,1,$1+$1,$2,$3*
1,1,$1+$1,$4,$5*
1,1,$1+$1,$6,$7*
1,1,$1+$1,$8,$9*
0 Add four rect primitives between the rounded corners*
20,1,$1+$1,$2,$3,$4,$5,0*
20,1,$1+$1,$4,$5,$6,$7,0*
20,1,$1+$1,$6,$7,$8,$9,0*
20,1,$1+$1,$8,$9,$2,$3,0*%
G04 Aperture macros list end*
%TA.AperFunction,Conductor*%
%ADD10C,0.200000*%
%TD*%
%TA.AperFunction,ComponentPad*%
%ADD11C,1.803400*%
%TD*%
%TA.AperFunction,ComponentPad*%
%ADD12R,1.600000X1.600000*%
%TD*%
%TA.AperFunction,ComponentPad*%
%ADD13O,1.600000X1.600000*%
%TD*%
%TA.AperFunction,SMDPad,CuDef*%
%ADD14RoundRect,0.250000X0.650000X-1.000000X0.650000X1.000000X-0.650000X1.000000X-0.650000X-1.000000X0*%
%TD*%
%TA.AperFunction,SMDPad,CuDef*%
%ADD15RoundRect,0.250000X-0.650000X1.000000X-0.650000X-1.000000X0.650000X-1.000000X0.650000X1.000000X0*%
%TD*%
%TA.AperFunction,SMDPad,CuDef*%
%ADD16RoundRect,0.250000X-0.475000X0.250000X-0.475000X-0.250000X0.475000X-0.250000X0.475000X0.250000X0*%
%TD*%
%TA.AperFunction,SMDPad,CuDef*%
%ADD17RoundRect,0.250000X0.475000X-0.250000X0.475000X0.250000X-0.475000X0.250000X-0.475000X-0.250000X0*%
%TD*%
%TA.AperFunction,ViaPad*%
%ADD18C,0.600202*%
%TD*%
%TA.AperFunction,ViaPad*%
%ADD19C,0.355600*%
%TD*%
%TA.AperFunction,Conductor*%
%ADD20C,0.381000*%
%TD*%
%TA.AperFunction,Conductor*%
%ADD21C,0.203200*%
%TD*%
%TA.AperFunction,Conductor*%
%ADD22C,0.660400*%
%TD*%
%TA.AperFunction,Conductor*%
%ADD23C,0.711200*%
%TD*%
G04 APERTURE END LIST*
D10*
%TO.N,PWM*%
X43250000Y-120750000D02*
X46000000Y-120750000D01*
X40750000Y-123250000D02*
X43250000Y-120750000D01*
X47750000Y-120000000D02*
X49500000Y-120000000D01*
X46000000Y-120750000D02*
X46750000Y-120000000D01*
X49500000Y-120000000D02*
X50750000Y-118750000D01*
X46750000Y-120000000D02*
X47750000Y-120000000D01*
%TO.N,S5_in1*%
X55250000Y-83000000D02*
X55250000Y-86750000D01*
%TO.N,LATCH*%
X52750000Y-120500000D02*
X54750000Y-118750000D01*
%TD*%
D11*
%TO.P,Sol5,1,Pin_1*%
%TO.N,S5_out2*%
X43500000Y-80500000D03*
%TO.P,Sol5,2,Pin_2*%
%TO.N,S5_out1*%
X43500000Y-85500000D03*
%TD*%
%TO.P,12V_supply1,1,Pin_1*%
%TO.N,GND*%
X89000000Y-137799999D03*
%TO.P,12V_supply1,2,Pin_2*%
%TO.N,12V*%
X94000000Y-137799999D03*
%TD*%
%TO.P,Sol18,1,Pin_1*%
%TO.N,S18_out1*%
X104950001Y-141250000D03*
%TO.P,Sol18,2,Pin_2*%
%TO.N,S18_out2*%
X104950001Y-136250000D03*
%TD*%
%TO.P,Sol9,1,Pin_1*%
%TO.N,S9_out2*%
X105250000Y-42145100D03*
%TO.P,Sol9,2,Pin_2*%
%TO.N,S9_out1*%
X105250000Y-37145100D03*
%TD*%
%TO.P,Sol17,1,Pin_1*%
%TO.N,S17_out1*%
X104950001Y-130250000D03*
%TO.P,Sol17,2,Pin_2*%
%TO.N,S17_out2*%
X104950001Y-125250000D03*
%TD*%
%TO.P,Sol15,1,Pin_1*%
%TO.N,S15_out1*%
X104950001Y-108145100D03*
%TO.P,Sol15,2,Pin_2*%
%TO.N,S15_out2*%
X104950001Y-103145100D03*
%TD*%
%TO.P,Sol13,1,Pin_1*%
%TO.N,S13_out1*%
X105450001Y-86250000D03*
%TO.P,Sol13,2,Pin_2*%
%TO.N,S13_out2*%
X105450001Y-81250000D03*
%TD*%
%TO.P,Sol14,1,Pin_1*%
%TO.N,S14_out1*%
X105250000Y-97250000D03*
%TO.P,Sol14,2,Pin_2*%
%TO.N,S14_out2*%
X105250000Y-92250000D03*
%TD*%
%TO.P,Sol8,1,Pin_1*%
%TO.N,S8_out2*%
X43500000Y-113500000D03*
%TO.P,Sol8,2,Pin_2*%
%TO.N,S8_out1*%
X43500000Y-118500000D03*
%TD*%
%TO.P,Sol2,1,Pin_1*%
%TO.N,S2_out2*%
X43500000Y-47500000D03*
%TO.P,Sol2,2,Pin_2*%
%TO.N,S2_out1*%
X43500000Y-52500000D03*
%TD*%
%TO.P,Sol7,1,Pin_1*%
%TO.N,S7_out2*%
X43500000Y-102500000D03*
%TO.P,Sol7,2,Pin_2*%
%TO.N,S7_out1*%
X43500000Y-107500000D03*
%TD*%
%TO.P,Sol1,1,Pin_1*%
%TO.N,S1_out2*%
X43500000Y-37000000D03*
%TO.P,Sol1,2,Pin_2*%
%TO.N,S1_out1*%
X43500000Y-42000000D03*
%TD*%
%TO.P,Sol12,1,Pin_1*%
%TO.N,S12_out1*%
X105250000Y-75250000D03*
%TO.P,Sol12,2,Pin_2*%
%TO.N,S12_out2*%
X105250000Y-70250000D03*
%TD*%
%TO.P,Sol3,1,Pin_1*%
%TO.N,S3_out2*%
X43500000Y-58500000D03*
%TO.P,Sol3,2,Pin_2*%
%TO.N,S3_out1*%
X43500000Y-63500000D03*
%TD*%
D12*
%TO.P,A1,1,D1/TX*%
%TO.N,Col2*%
X79550000Y-127250000D03*
D13*
%TO.P,A1,2,D0/RX*%
%TO.N,Col1*%
X77010000Y-127250000D03*
%TO.P,A1,3,~{RESET}*%
%TO.N,unconnected-(A1-~{RESET}-Pad3)*%
X74470000Y-127250000D03*
%TO.P,A1,4,GND*%
%TO.N,GND*%
X71930000Y-127250000D03*
%TO.P,A1,5,D2*%
%TO.N,Col3*%
X69390000Y-127250000D03*
%TO.P,A1,6,D3*%
%TO.N,Row1*%
X66850000Y-127250000D03*
%TO.P,A1,7,D4*%
%TO.N,Row2*%
X64310000Y-127250000D03*
%TO.P,A1,8,D5*%
%TO.N,Row3*%
X61770000Y-127250000D03*
%TO.P,A1,9,D6*%
%TO.N,Row4*%
X59230000Y-127250000D03*
%TO.P,A1,10,D7*%
%TO.N,Row5*%
X56690000Y-127250000D03*
%TO.P,A1,11,D8*%
%TO.N,Row6*%
X54150000Y-127250000D03*
%TO.P,A1,12,D9*%
%TO.N,PWM*%
X51610000Y-127250000D03*
%TO.P,A1,13,D10*%
%TO.N,LATCH*%
X49070000Y-127250000D03*
%TO.P,A1,14,D11*%
%TO.N,DATA*%
X46530000Y-127250000D03*
%TO.P,A1,15,D12*%
%TO.N,STBY*%
X43990000Y-127250000D03*
%TO.P,A1,16,D13*%
%TO.N,CLOCK*%
X43990000Y-142490000D03*
%TO.P,A1,17,3V3*%
%TO.N,unconnected-(A1-3V3-Pad17)*%
X46530000Y-142490000D03*
%TO.P,A1,18,AREF*%
%TO.N,unconnected-(A1-AREF-Pad18)*%
X49070000Y-142490000D03*
%TO.P,A1,19,A0*%
%TO.N,unconnected-(A1-A0-Pad19)*%
X51610000Y-142490000D03*
%TO.P,A1,20,A1*%
%TO.N,unconnected-(A1-A1-Pad20)*%
X54150000Y-142490000D03*
%TO.P,A1,21,A2*%
%TO.N,unconnected-(A1-A2-Pad21)*%
X56690000Y-142490000D03*
%TO.P,A1,22,A3*%
%TO.N,unconnected-(A1-A3-Pad22)*%
X59230000Y-142490000D03*
%TO.P,A1,23,A4*%
%TO.N,SDA*%
X61770000Y-142490000D03*
%TO.P,A1,24,A5*%
%TO.N,SCL*%
X64310000Y-142490000D03*
%TO.P,A1,25,A6*%
%TO.N,unconnected-(A1-A6-Pad25)*%
X66850000Y-142490000D03*
%TO.P,A1,26,A7*%
%TO.N,unconnected-(A1-A7-Pad26)*%
X69390000Y-142490000D03*
%TO.P,A1,27,+5V*%
%TO.N,5V*%
X71930000Y-142490000D03*
%TO.P,A1,28,~{RESET}*%
%TO.N,unconnected-(A1-~{RESET}-Pad28)*%
X74470000Y-142490000D03*
%TO.P,A1,29,GND*%
%TO.N,GND*%
X77010000Y-142490000D03*
%TO.P,A1,30,VIN*%
%TO.N,unconnected-(A1-VIN-Pad30)*%
X79550000Y-142490000D03*
%TD*%
D11*
%TO.P,Sol11,1,Pin_1*%
%TO.N,S11_out1*%
X105250000Y-64250000D03*
%TO.P,Sol11,2,Pin_2*%
%TO.N,S11_out2*%
X105250000Y-59250000D03*
%TD*%
%TO.P,Sol6,1,Pin_1*%
%TO.N,S6_out2*%
X43500000Y-91500000D03*
%TO.P,Sol6,2,Pin_2*%
%TO.N,S6_out1*%
X43500000Y-96500000D03*
%TD*%
%TO.P,Sol16,1,Pin_1*%
%TO.N,S16_out1*%
X104950001Y-119250000D03*
%TO.P,Sol16,2,Pin_2*%
%TO.N,S16_out2*%
X104950001Y-114250000D03*
%TD*%
%TO.P,Sol4,1,Pin_1*%
%TO.N,S4_out2*%
X43500000Y-69500000D03*
%TO.P,Sol4,2,Pin_2*%
%TO.N,S4_out1*%
X43500000Y-74500000D03*
%TD*%
%TO.P,Sol10,1,Pin_1*%
%TO.N,S10_out2*%
X105250000Y-53145100D03*
%TO.P,Sol10,2,Pin_2*%
%TO.N,S10_out1*%
X105250000Y-48145100D03*
%TD*%
D14*
%TO.P,DS22,1,K*%
%TO.N,12V*%
X108500000Y-63895100D03*
%TO.P,DS22,2,A*%
%TO.N,S11_out2*%
X108500000Y-59895100D03*
%TD*%
%TO.P,DS10,1,K*%
%TO.N,12V*%
X40000000Y-84750000D03*
%TO.P,DS10,2,A*%
%TO.N,S5_out2*%
X40000000Y-80750000D03*
%TD*%
%TO.P,DS8,1,K*%
%TO.N,12V*%
X40000000Y-74000000D03*
%TO.P,DS8,2,A*%
%TO.N,S4_out2*%
X40000000Y-70000000D03*
%TD*%
D15*
%TO.P,DS27,1,K*%
%TO.N,12V*%
X102250000Y-92645100D03*
%TO.P,DS27,2,A*%
%TO.N,S14_out1*%
X102250000Y-96645100D03*
%TD*%
%TO.P,DS9,1,K*%
%TO.N,12V*%
X46750000Y-80750000D03*
%TO.P,DS9,2,A*%
%TO.N,S5_out1*%
X46750000Y-84750000D03*
%TD*%
D14*
%TO.P,DS36,1,K*%
%TO.N,12V*%
X108250000Y-140895100D03*
%TO.P,DS36,2,A*%
%TO.N,S18_out2*%
X108250000Y-136895100D03*
%TD*%
%TO.P,DS26,1,K*%
%TO.N,12V*%
X108750000Y-85645100D03*
%TO.P,DS26,2,A*%
%TO.N,S13_out2*%
X108750000Y-81645100D03*
%TD*%
%TO.P,DS12,1,K*%
%TO.N,12V*%
X40000000Y-96000000D03*
%TO.P,DS12,2,A*%
%TO.N,S6_out2*%
X40000000Y-92000000D03*
%TD*%
D15*
%TO.P,DS5,1,K*%
%TO.N,12V*%
X47000000Y-58500000D03*
%TO.P,DS5,2,A*%
%TO.N,S3_out1*%
X47000000Y-62500000D03*
%TD*%
%TO.P,DS15,1,K*%
%TO.N,12V*%
X46750000Y-113750000D03*
%TO.P,DS15,2,A*%
%TO.N,S8_out1*%
X46750000Y-117750000D03*
%TD*%
%TO.P,DS19,1,K*%
%TO.N,12V*%
X102250000Y-48645100D03*
%TO.P,DS19,2,A*%
%TO.N,S10_out1*%
X102250000Y-52645100D03*
%TD*%
D14*
%TO.P,DS30,1,K*%
%TO.N,12V*%
X108250000Y-107645100D03*
%TO.P,DS30,2,A*%
%TO.N,S15_out2*%
X108250000Y-103645100D03*
%TD*%
D16*
%TO.P,uF2,1*%
%TO.N,12V*%
X60250000Y-35050000D03*
%TO.P,uF2,2*%
%TO.N,GND*%
X60250000Y-36950000D03*
%TD*%
D17*
%TO.P,uF1,1*%
%TO.N,GND*%
X60250000Y-40450000D03*
%TO.P,uF1,2*%
%TO.N,5V*%
X60250000Y-38550000D03*
%TD*%
D15*
%TO.P,DS7,1,K*%
%TO.N,12V*%
X46750000Y-70000000D03*
%TO.P,DS7,2,A*%
%TO.N,S4_out1*%
X46750000Y-74000000D03*
%TD*%
D17*
%TO.P,uF9,1*%
%TO.N,5V*%
X88500000Y-37950000D03*
%TO.P,uF9,2*%
%TO.N,GND*%
X88500000Y-36050000D03*
%TD*%
D15*
%TO.P,DS1,1,K*%
%TO.N,12V*%
X47000000Y-36500000D03*
%TO.P,DS1,2,A*%
%TO.N,S1_out1*%
X47000000Y-40500000D03*
%TD*%
%TO.P,DS35,1,K*%
%TO.N,12V*%
X101750000Y-136895100D03*
%TO.P,DS35,2,A*%
%TO.N,S18_out1*%
X101750000Y-140895100D03*
%TD*%
D14*
%TO.P,DS24,1,K*%
%TO.N,12V*%
X108750000Y-74645100D03*
%TO.P,DS24,2,A*%
%TO.N,S12_out2*%
X108750000Y-70645100D03*
%TD*%
D15*
%TO.P,DS3,1,K*%
%TO.N,12V*%
X46500000Y-48000000D03*
%TO.P,DS3,2,A*%
%TO.N,S2_out1*%
X46500000Y-52000000D03*
%TD*%
%TO.P,DS17,1,K*%
%TO.N,12V*%
X102000000Y-37645100D03*
%TO.P,DS17,2,A*%
%TO.N,S9_out1*%
X102000000Y-41645100D03*
%TD*%
%TO.P,DS6,1,K*%
%TO.N,12V*%
X40000000Y-58500000D03*
%TO.P,DS6,2,A*%
%TO.N,S3_out2*%
X40000000Y-62500000D03*
%TD*%
D14*
%TO.P,DS34,1,K*%
%TO.N,12V*%
X108250000Y-129895100D03*
%TO.P,DS34,2,A*%
%TO.N,S17_out2*%
X108250000Y-125895100D03*
%TD*%
D15*
%TO.P,DS13,1,K*%
%TO.N,12V*%
X46750000Y-103000000D03*
%TO.P,DS13,2,A*%
%TO.N,S7_out1*%
X46750000Y-107000000D03*
%TD*%
D14*
%TO.P,DS28,1,K*%
%TO.N,12V*%
X108750000Y-96895100D03*
%TO.P,DS28,2,A*%
%TO.N,S14_out2*%
X108750000Y-92895100D03*
%TD*%
D15*
%TO.P,DS25,1,K*%
%TO.N,12V*%
X102250000Y-81645100D03*
%TO.P,DS25,2,A*%
%TO.N,S13_out1*%
X102250000Y-85645100D03*
%TD*%
D14*
%TO.P,DS14,1,K*%
%TO.N,12V*%
X40000000Y-107000000D03*
%TO.P,DS14,2,A*%
%TO.N,S7_out2*%
X40000000Y-103000000D03*
%TD*%
D15*
%TO.P,DS31,1,K*%
%TO.N,12V*%
X101750000Y-114645100D03*
%TO.P,DS31,2,A*%
%TO.N,S16_out1*%
X101750000Y-118645100D03*
%TD*%
%TO.P,DS2,1,K*%
%TO.N,12V*%
X39500000Y-36000000D03*
%TO.P,DS2,2,A*%
%TO.N,S1_out2*%
X39500000Y-40000000D03*
%TD*%
D14*
%TO.P,DS4,1,K*%
%TO.N,12V*%
X40000000Y-52000000D03*
%TO.P,DS4,2,A*%
%TO.N,S2_out2*%
X40000000Y-48000000D03*
%TD*%
D15*
%TO.P,DS18,1,K*%
%TO.N,12V*%
X108750000Y-37645100D03*
%TO.P,DS18,2,A*%
%TO.N,S9_out2*%
X108750000Y-41645100D03*
%TD*%
D14*
%TO.P,DS16,1,K*%
%TO.N,12V*%
X40000000Y-117750000D03*
%TO.P,DS16,2,A*%
%TO.N,S8_out2*%
X40000000Y-113750000D03*
%TD*%
%TO.P,DS32,1,K*%
%TO.N,12V*%
X108500000Y-118895100D03*
%TO.P,DS32,2,A*%
%TO.N,S16_out2*%
X108500000Y-114895100D03*
%TD*%
D15*
%TO.P,DS29,1,K*%
%TO.N,12V*%
X101750000Y-103645100D03*
%TO.P,DS29,2,A*%
%TO.N,S15_out1*%
X101750000Y-107645100D03*
%TD*%
%TO.P,DS21,1,K*%
%TO.N,12V*%
X102000000Y-59895100D03*
%TO.P,DS21,2,A*%
%TO.N,S11_out1*%
X102000000Y-63895100D03*
%TD*%
D14*
%TO.P,DS20,1,K*%
%TO.N,12V*%
X108500000Y-52645100D03*
%TO.P,DS20,2,A*%
%TO.N,S10_out2*%
X108500000Y-48645100D03*
%TD*%
D15*
%TO.P,DS33,1,K*%
%TO.N,12V*%
X101750000Y-125645100D03*
%TO.P,DS33,2,A*%
%TO.N,S17_out1*%
X101750000Y-129645100D03*
%TD*%
%TO.P,DS23,1,K*%
%TO.N,12V*%
X102000000Y-70645100D03*
%TO.P,DS23,2,A*%
%TO.N,S12_out1*%
X102000000Y-74645100D03*
%TD*%
%TO.P,DS11,1,K*%
%TO.N,12V*%
X46750000Y-91750000D03*
%TO.P,DS11,2,A*%
%TO.N,S6_out1*%
X46750000Y-95750000D03*
%TD*%
D17*
%TO.P,uF10,1*%
%TO.N,12V*%
X88500000Y-41750000D03*
%TO.P,uF10,2*%
%TO.N,GND*%
X88500000Y-39850000D03*
%TD*%
D18*
%TO.N,S18_out2*%
X99750000Y-125500000D03*
%TO.N,S16_out2*%
X99500000Y-103500000D03*
%TO.N,S14_out2*%
X100250000Y-81500000D03*
%TO.N,S12_out2*%
X101250000Y-57500000D03*
%TO.N,S10_out2*%
X108500000Y-46000000D03*
%TO.N,S9_out1*%
X96250000Y-42000000D03*
%TO.N,S6_out1*%
X50250000Y-86750000D03*
%TO.N,S5_out2*%
X52250000Y-81250000D03*
%TO.N,S5_out1*%
X48750000Y-78750000D03*
%TO.N,S4_out1*%
X50500000Y-64750000D03*
%TO.N,S3_out2*%
X52250000Y-59250000D03*
%TO.N,S3_out1*%
X52500000Y-56500000D03*
%TO.N,S2_out2*%
X52719128Y-40219128D03*
%TO.N,S1_out1*%
X52500000Y-35000000D03*
%TO.N,S1_out2*%
X52463600Y-37963600D03*
D19*
%TO.N,GND*%
X88500000Y-35250000D03*
X92179900Y-82320100D03*
X92104900Y-60395100D03*
X92250000Y-38500000D03*
%TO.N,5V*%
X89250000Y-127250000D03*
X69000000Y-119000000D03*
X55750000Y-89250000D03*
X92500000Y-86250000D03*
X92500000Y-61500000D03*
X56000000Y-44000000D03*
X87500000Y-54750000D03*
X85500000Y-130250000D03*
X56000000Y-103000000D03*
X92500000Y-84000000D03*
X89250000Y-38750000D03*
X87750000Y-126000000D03*
X54250000Y-59250000D03*
X55500000Y-110000000D03*
X56750000Y-37500000D03*
X89000000Y-56000000D03*
X55000000Y-62000000D03*
X93250000Y-78250000D03*
X96500000Y-65750000D03*
X55000000Y-53000000D03*
X83125000Y-126875000D03*
X55750000Y-96750000D03*
X75250000Y-122000000D03*
X90500000Y-44750000D03*
D18*
%TO.N,GND*%
X55972899Y-104825000D03*
X97250000Y-110250000D03*
X96500000Y-40500000D03*
X72750000Y-94750000D03*
X88250000Y-101250000D03*
X51875000Y-106125000D03*
X89750000Y-96500000D03*
X75050000Y-94550000D03*
X90000000Y-139500000D03*
X89000000Y-136000000D03*
X75000000Y-110250000D03*
X96500000Y-62500000D03*
X70000000Y-99000000D03*
X54750000Y-82000000D03*
X96250000Y-128250000D03*
X75000000Y-106250000D03*
X75050000Y-98950000D03*
X96000000Y-102500000D03*
X72750000Y-98750000D03*
X96250000Y-124500000D03*
X70250000Y-106250000D03*
X56500000Y-113000000D03*
X96000000Y-106500000D03*
X96750000Y-84500000D03*
X86750000Y-37750000D03*
X94500000Y-67950000D03*
X52000000Y-65500000D03*
X52000000Y-79250000D03*
X86799999Y-137799999D03*
X51750000Y-83750000D03*
X96250000Y-58750000D03*
X96500000Y-80750000D03*
X72750000Y-106750000D03*
X57000000Y-68500000D03*
X52000000Y-102500000D03*
X52500000Y-58250000D03*
X90000000Y-116250000D03*
X49250000Y-39000000D03*
X94500000Y-75300000D03*
X57250000Y-73500000D03*
X89750000Y-98500000D03*
X50250000Y-73500000D03*
X70000000Y-94500000D03*
X55750000Y-92500000D03*
X96250000Y-36750000D03*
X52250000Y-61750000D03*
X70000000Y-110250000D03*
X72750000Y-110000000D03*
X90750000Y-50750000D03*
X53000000Y-36500000D03*
X51250000Y-98750000D03*
X89000000Y-126250000D03*
X56250000Y-60250000D03*
X54000000Y-110750000D03*
X57750000Y-48500000D03*
%TO.N,12V*%
X109250000Y-87750000D03*
X91500000Y-86750000D03*
X90500000Y-108750000D03*
X56750000Y-34831200D03*
X56250000Y-78000000D03*
X40000000Y-76000000D03*
X60500000Y-94750000D03*
X85250000Y-94950000D03*
X82000000Y-98750000D03*
X81500000Y-106500000D03*
X40000000Y-54250000D03*
X60500000Y-106500000D03*
X103500000Y-38250000D03*
X56500000Y-55358000D03*
X100250000Y-77000000D03*
X81500000Y-95000000D03*
X101750000Y-112250000D03*
X92500000Y-138750000D03*
X40000000Y-108750000D03*
X92500000Y-66250000D03*
X89500000Y-108750000D03*
X102250000Y-90500000D03*
X108500000Y-121000000D03*
X106750000Y-128000000D03*
X84750000Y-110250000D03*
X83000000Y-94500000D03*
X48250000Y-47000000D03*
X89750000Y-43000000D03*
X103500000Y-58500000D03*
X107500000Y-66750000D03*
X63000000Y-110250000D03*
X40000000Y-56500000D03*
X103500000Y-80500000D03*
X62750000Y-98750000D03*
X47250000Y-89500000D03*
X85250000Y-98750000D03*
X103000000Y-102500000D03*
X47250000Y-78500000D03*
X95500000Y-139000000D03*
X47000000Y-56500000D03*
X47750000Y-67750000D03*
X42250000Y-104750000D03*
X83450000Y-106050000D03*
X102000000Y-68500000D03*
X106500000Y-105500000D03*
X38000000Y-117750000D03*
X60500000Y-99500000D03*
X89750000Y-130500000D03*
X105500000Y-51500000D03*
X108250000Y-143000000D03*
X60500000Y-110250000D03*
X62750000Y-106250000D03*
X85000000Y-106250000D03*
X62250000Y-94500000D03*
X40000000Y-98000000D03*
X105500000Y-50000000D03*
X40000000Y-87000000D03*
X90500000Y-87000000D03*
X103250000Y-124750000D03*
X49000000Y-34831200D03*
X102500000Y-134750000D03*
X109750000Y-35250000D03*
X81500000Y-110250000D03*
X107250000Y-38500000D03*
X48500000Y-111750000D03*
X83500000Y-110250000D03*
X108750000Y-98750000D03*
X83450000Y-98700000D03*
X108750000Y-76750000D03*
D19*
%TO.N,Row3*%
X66750000Y-63500000D03*
X63000000Y-115250000D03*
X65750000Y-114750000D03*
%TO.N,LATCH*%
X87500000Y-107750000D03*
X53500000Y-130250000D03*
X59250000Y-46500000D03*
X90500000Y-49500000D03*
X89000000Y-114250000D03*
X90875000Y-93375000D03*
X54750000Y-94000000D03*
X93500000Y-50750000D03*
%TO.N,DATA*%
X59000000Y-47750000D03*
%TO.N,Row4*%
X63000000Y-71000000D03*
%TO.N,PWM*%
X56000000Y-85250000D03*
X88750000Y-94750000D03*
X92500000Y-67000000D03*
X56000000Y-79250000D03*
X89000000Y-100250000D03*
X92000000Y-124000000D03*
X54000000Y-107500000D03*
X93250000Y-76750000D03*
X56665877Y-56871453D03*
X59750000Y-41750000D03*
X56500000Y-62000000D03*
X90750000Y-43750000D03*
X52750000Y-132000000D03*
X89000000Y-102750000D03*
X86000000Y-37250000D03*
X92000000Y-129250000D03*
X89000000Y-107000000D03*
%TO.N,STBY*%
X56750000Y-38250000D03*
X93250000Y-100500000D03*
X93500000Y-126000000D03*
X56250000Y-40750000D03*
X63000000Y-39250000D03*
X93000000Y-60750000D03*
X92750000Y-82750000D03*
X56250000Y-81750000D03*
X92000000Y-104500000D03*
X56250000Y-104000000D03*
X55500000Y-59500000D03*
X92579443Y-39329443D03*
X93500000Y-84000000D03*
%TO.N,Row2*%
X64000000Y-53500000D03*
%TO.N,Row1*%
X69750000Y-45750000D03*
%TO.N,Col1*%
X77000000Y-125250000D03*
X70250000Y-123500000D03*
%TO.N,Col3*%
X80750000Y-49000000D03*
X82000000Y-61500000D03*
%TO.N,Col2*%
X72250000Y-61750000D03*
X69750000Y-71000000D03*
X75250000Y-81500000D03*
X72750000Y-80750000D03*
X69750000Y-72500000D03*
X79250000Y-48750000D03*
X79250000Y-84250000D03*
%TO.N,CLOCK*%
X86250000Y-92500000D03*
X50750000Y-114250000D03*
X89750000Y-50000000D03*
X53750000Y-94000000D03*
X43250000Y-139750000D03*
X86250000Y-113000000D03*
X85750000Y-118750000D03*
X55250000Y-50250000D03*
X53750000Y-48750000D03*
%TO.N,Net-(D3-A)*%
X67599500Y-61150500D03*
X66750000Y-60000000D03*
%TO.N,Net-(D10-A)*%
X72750000Y-66000000D03*
X75000000Y-66500000D03*
%TO.N,Net-(D16-A)*%
X84750000Y-67750000D03*
X82500000Y-67750000D03*
%TO.N,S1_in1*%
X56500000Y-37000000D03*
X55250000Y-46000000D03*
%TO.N,S5_in1*%
X55250000Y-86750000D03*
X55250000Y-83000000D03*
%TO.N,S7_out2*%
X48500000Y-104000000D03*
%TO.N,S7_in1*%
X52500000Y-93500000D03*
X52500000Y-94750000D03*
%TO.N,S8_out2*%
X48750000Y-105500000D03*
%TO.N,S10_in1*%
X96500000Y-52750000D03*
X93750000Y-39250000D03*
%TO.N,S9_in1*%
X93000000Y-41250000D03*
X93500000Y-53250000D03*
%TO.N,S12_in2*%
X94500000Y-59250000D03*
X99000000Y-47000000D03*
%TO.N,S12_in1*%
X95000000Y-50250000D03*
X94000000Y-59750000D03*
X95000000Y-52000000D03*
X96500000Y-48250000D03*
%TO.N,S13_in1*%
X93500000Y-96750000D03*
X94250000Y-86500000D03*
%TO.N,S16_in2*%
X92000000Y-102750000D03*
X96000000Y-91500000D03*
%TO.N,S16_in1*%
X92000000Y-103500000D03*
X96250000Y-94000000D03*
%TO.N,S17_in1*%
X89250000Y-128000000D03*
X85750000Y-127500000D03*
%TO.N,Overflow1*%
X57750000Y-53500000D03*
X58250000Y-70500000D03*
%TO.N,Row6*%
X62000000Y-85250000D03*
X58250000Y-116500000D03*
X61250000Y-115250000D03*
%TO.N,Overflow2*%
X90000000Y-52250000D03*
X61750000Y-93500000D03*
%TO.N,Overflow3*%
X92025000Y-44775000D03*
X90500000Y-95500000D03*
%TO.N,Row5*%
X62750000Y-74000000D03*
X64750000Y-74250000D03*
X64750000Y-76500000D03*
X59750000Y-123500000D03*
X58250000Y-123750000D03*
%TO.N,Overflow4*%
X90250000Y-90250000D03*
X90000000Y-117500000D03*
D18*
%TO.N,GND*%
X56750000Y-38983500D03*
%TD*%
D20*
%TO.N,GND*%
X88500000Y-35500000D02*
X88500000Y-35250000D01*
D10*
%TO.N,STBY*%
X56250000Y-104000000D02*
X56750000Y-104000000D01*
X57500000Y-115500000D02*
X57000000Y-116000000D01*
X56750000Y-104000000D02*
X57500000Y-104750000D01*
X57000000Y-116000000D02*
X57000000Y-120250000D01*
X57500000Y-104750000D02*
X57500000Y-115500000D01*
X57000000Y-120250000D02*
X56000000Y-121250000D01*
X45500000Y-125740000D02*
X43990000Y-127250000D01*
X56000000Y-121250000D02*
X49250000Y-121250000D01*
X49250000Y-121250000D02*
X45500000Y-125000000D01*
X45500000Y-125000000D02*
X45500000Y-125740000D01*
X56439900Y-103560100D02*
X56439900Y-81939900D01*
X56250000Y-104000000D02*
X56250000Y-103750000D01*
X56250000Y-103750000D02*
X56439900Y-103560100D01*
X56439900Y-81939900D02*
X56250000Y-81750000D01*
%TO.N,GND*%
X89750000Y-98500000D02*
X89750000Y-96500000D01*
D21*
%TO.N,5V*%
X55500000Y-110000000D02*
X55000000Y-109500000D01*
X55000000Y-109500000D02*
X55000000Y-104000000D01*
X55000000Y-104000000D02*
X56000000Y-103000000D01*
D10*
%TO.N,LATCH*%
X54500000Y-94250000D02*
X54500000Y-110503152D01*
X54500000Y-118500000D02*
X54750000Y-118750000D01*
X54500000Y-110503152D02*
X54528101Y-110531253D01*
X54750000Y-94000000D02*
X54500000Y-94250000D01*
X54528101Y-110531253D02*
X54528101Y-110968747D01*
X54528101Y-110968747D02*
X54500000Y-110996848D01*
X54500000Y-110996848D02*
X54500000Y-118500000D01*
X90875000Y-93375000D02*
X91750000Y-94250000D01*
X91750000Y-94250000D02*
X91750000Y-99000000D01*
X87500000Y-103250000D02*
X87500000Y-107750000D01*
X91750000Y-99000000D02*
X87500000Y-103250000D01*
%TO.N,STBY*%
X92500000Y-59500000D02*
X92500000Y-59750000D01*
X92500000Y-59750000D02*
X92544800Y-59794800D01*
X93000000Y-60750000D02*
X92544800Y-60294800D01*
X92500000Y-59500000D02*
X92250000Y-59250000D01*
X92250000Y-45172113D02*
X92464900Y-44957213D01*
X92544800Y-60294800D02*
X92544800Y-59794800D01*
X92464900Y-44957213D02*
X92464900Y-44592787D01*
X92464900Y-44592787D02*
X92250000Y-44377887D01*
X92250000Y-44377887D02*
X92250000Y-38999999D01*
X92250000Y-59250000D02*
X92250000Y-45172113D01*
X92250000Y-38999999D02*
X92579443Y-39329443D01*
X90500000Y-73000000D02*
X92250000Y-74750000D01*
X91891000Y-61486887D02*
X91891000Y-68750000D01*
X92689900Y-82067787D02*
X92689900Y-82432213D01*
X93000000Y-60750000D02*
X92750000Y-61000000D01*
X92750000Y-61000000D02*
X92377887Y-61000000D01*
X92377887Y-61000000D02*
X91891000Y-61486887D01*
X92250000Y-74750000D02*
X92250000Y-81810100D01*
X91891000Y-68750000D02*
X91500000Y-69141000D01*
X91500000Y-69141000D02*
X90859000Y-69141000D01*
X92689900Y-82432213D02*
X92561056Y-82561056D01*
X90859000Y-69141000D02*
X90500000Y-69500000D01*
X92250000Y-81810100D02*
X92432213Y-81810100D01*
X90500000Y-69500000D02*
X90500000Y-73000000D01*
X92561056Y-82561056D02*
X92750000Y-82750000D01*
X92432213Y-81810100D02*
X92689900Y-82067787D01*
D22*
%TO.N,12V*%
X92500000Y-138500000D02*
X93200001Y-137799999D01*
X92500000Y-138750000D02*
X92500000Y-138500000D01*
X93200001Y-137799999D02*
X94000000Y-137799999D01*
X94299999Y-137799999D02*
X94000000Y-137799999D01*
X95500000Y-139000000D02*
X94299999Y-137799999D01*
%TO.N,GND*%
X90000000Y-139500000D02*
X89000000Y-138500000D01*
X89000000Y-138500000D02*
X89000000Y-137799999D01*
X89000000Y-137799999D02*
X89000000Y-136000000D01*
X86799999Y-137799999D02*
X81700001Y-137799999D01*
X81700001Y-137799999D02*
X77010000Y-142490000D01*
X86799999Y-137799999D02*
X86750000Y-137750000D01*
X89000000Y-137799999D02*
X86799999Y-137799999D01*
%TO.N,12V*%
X49000000Y-34831200D02*
X48668800Y-34831200D01*
X48668800Y-34831200D02*
X47000000Y-36500000D01*
D10*
%TO.N,Col2*%
X79250000Y-84250000D02*
X76000000Y-87500000D01*
X76000000Y-87500000D02*
X76000000Y-111250000D01*
X72250000Y-117500000D02*
X75750000Y-121000000D01*
X77817787Y-125067787D02*
X78317787Y-125067787D01*
X75500000Y-111250000D02*
X72250000Y-114500000D01*
X79550000Y-126300000D02*
X79550000Y-127250000D01*
X72250000Y-114500000D02*
X72250000Y-117500000D01*
X76000000Y-111250000D02*
X75500000Y-111250000D01*
X75750000Y-121000000D02*
X75750000Y-123000000D01*
X75750000Y-123000000D02*
X77817787Y-125067787D01*
X78317787Y-125067787D02*
X79550000Y-126300000D01*
%TO.N,CLOCK*%
X53750000Y-48750000D02*
X53500000Y-49000000D01*
X50750000Y-72750000D02*
X51000000Y-73000000D01*
X53500000Y-49000000D02*
X53500000Y-66500000D01*
X53500000Y-66500000D02*
X53000000Y-66500000D01*
X53000000Y-66500000D02*
X52000000Y-67500000D01*
X52000000Y-67500000D02*
X52000000Y-68250000D01*
X52000000Y-68250000D02*
X51500000Y-68750000D01*
X53500000Y-76750000D02*
X53500000Y-93750000D01*
X51500000Y-68750000D02*
X50500000Y-68750000D01*
X50500000Y-68750000D02*
X49750000Y-69500000D01*
X49750000Y-69500000D02*
X49750000Y-72000000D01*
X49750000Y-72000000D02*
X50500000Y-72750000D01*
X50500000Y-72750000D02*
X50750000Y-72750000D01*
X51000000Y-73000000D02*
X51000000Y-73500000D01*
X51000000Y-73500000D02*
X52500000Y-75000000D01*
X52500000Y-75000000D02*
X52500000Y-75750000D01*
X52500000Y-75750000D02*
X53500000Y-76750000D01*
X53500000Y-93750000D02*
X53750000Y-94000000D01*
D21*
%TO.N,5V*%
X60250000Y-38550000D02*
X59700000Y-38000000D01*
X54250000Y-59250000D02*
X54347682Y-59250000D01*
X91250000Y-40750000D02*
X89250000Y-38750000D01*
X59700000Y-38000000D02*
X59250000Y-38000000D01*
X92500000Y-84000000D02*
X93500000Y-83000000D01*
X55000000Y-93250000D02*
X55750000Y-94000000D01*
X55250000Y-97250000D02*
X55750000Y-96750000D01*
X55750000Y-89250000D02*
X55000000Y-90000000D01*
X55250000Y-99000000D02*
X55250000Y-97250000D01*
X55500000Y-38750000D02*
X55500000Y-43750000D01*
X84665000Y-131585000D02*
X82835000Y-131585000D01*
X55500000Y-43750000D02*
X55750000Y-44000000D01*
X85500000Y-130250000D02*
X85500000Y-130750000D01*
X56000000Y-99750000D02*
X55250000Y-99000000D01*
X92500000Y-61500000D02*
X92750000Y-61500000D01*
X88750000Y-56000000D02*
X89000000Y-56000000D01*
X54250000Y-61750000D02*
X54500000Y-62000000D01*
X83750000Y-127500000D02*
X83750000Y-130670000D01*
X82835000Y-131585000D02*
X71930000Y-142490000D01*
X93500000Y-78500000D02*
X93250000Y-78250000D01*
X75250000Y-122000000D02*
X75250000Y-121500000D01*
X93500000Y-83000000D02*
X93500000Y-78500000D01*
X55000000Y-90000000D02*
X55000000Y-93250000D01*
X91000000Y-44500000D02*
X91250000Y-44250000D01*
X92750000Y-61500000D02*
X96500000Y-65250000D01*
X83750000Y-130670000D02*
X82835000Y-131585000D01*
X88500000Y-37950000D02*
X89250000Y-38700000D01*
X92500000Y-84000000D02*
X92500000Y-86250000D01*
X91250000Y-44250000D02*
X91250000Y-40750000D01*
X83125000Y-126875000D02*
X83750000Y-127500000D01*
X75250000Y-121500000D02*
X72750000Y-119000000D01*
X59250000Y-38000000D02*
X58750000Y-37500000D01*
X88000000Y-126250000D02*
X88250000Y-126250000D01*
X96500000Y-65250000D02*
X96500000Y-65750000D01*
X58750000Y-37500000D02*
X56750000Y-37500000D01*
X85500000Y-130750000D02*
X84665000Y-131585000D01*
X90750000Y-44500000D02*
X91000000Y-44500000D01*
X88250000Y-126250000D02*
X89250000Y-127250000D01*
X54250000Y-59250000D02*
X54250000Y-61750000D01*
X56000000Y-103000000D02*
X56000000Y-99750000D01*
X72750000Y-119000000D02*
X69000000Y-119000000D01*
X55000000Y-58597682D02*
X55000000Y-53000000D01*
X90500000Y-44750000D02*
X90750000Y-44500000D01*
X87750000Y-126000000D02*
X88000000Y-126250000D01*
X87500000Y-54750000D02*
X88750000Y-56000000D01*
X89250000Y-38700000D02*
X89250000Y-38750000D01*
X54347682Y-59250000D02*
X55000000Y-58597682D01*
X54500000Y-62000000D02*
X55000000Y-62000000D01*
X56750000Y-37500000D02*
X55500000Y-38750000D01*
X55750000Y-44000000D02*
X56000000Y-44000000D01*
X55750000Y-94000000D02*
X55750000Y-96750000D01*
D22*
%TO.N,GND*%
X60250000Y-40450000D02*
X58200000Y-40450000D01*
X58200000Y-40450000D02*
X56750000Y-39000000D01*
D20*
X88500000Y-36050000D02*
X88500000Y-35500000D01*
D22*
X87350000Y-39850000D02*
X86750000Y-39250000D01*
X61750000Y-37725000D02*
X61750000Y-40250000D01*
X86750000Y-37750000D02*
X86750000Y-36500000D01*
X61450000Y-40450000D02*
X60250000Y-40450000D01*
X88500000Y-39850000D02*
X87350000Y-39850000D01*
X86750000Y-39250000D02*
X86750000Y-37750000D01*
X87200000Y-36050000D02*
X88500000Y-36050000D01*
X61500000Y-40500000D02*
X61450000Y-40450000D01*
X60250000Y-36950000D02*
X60975000Y-36950000D01*
X61750000Y-40250000D02*
X61500000Y-40500000D01*
X60975000Y-36950000D02*
X61750000Y-37725000D01*
X86750000Y-36500000D02*
X87200000Y-36050000D01*
%TO.N,12V*%
X102895100Y-81645100D02*
X105000000Y-83750000D01*
X102000000Y-70395100D02*
X108500000Y-63895100D01*
X107000000Y-72895100D02*
X108750000Y-74645100D01*
D23*
X46000000Y-48000000D02*
X46500000Y-48000000D01*
D22*
X108500000Y-118895100D02*
X108500000Y-121000000D01*
X40000000Y-52000000D02*
X40000000Y-54000000D01*
X102250000Y-81645100D02*
X102354900Y-81645100D01*
X105000000Y-83750000D02*
X106854900Y-83750000D01*
X108750000Y-86145100D02*
X108750000Y-85645100D01*
X101750000Y-103645100D02*
X101854900Y-103645100D01*
X102650000Y-103645100D02*
X106650000Y-107645100D01*
X104500000Y-72750000D02*
X107000000Y-72750000D01*
X40000000Y-117750000D02*
X41000000Y-117750000D01*
X108250000Y-107250000D02*
X106500000Y-105500000D01*
X102000000Y-70645100D02*
X102395100Y-70645100D01*
X40000000Y-58500000D02*
X40000000Y-56500000D01*
X105250000Y-50750000D02*
X105750000Y-50750000D01*
D23*
X40643400Y-34856600D02*
X39500000Y-36000000D01*
D22*
X46750000Y-90000000D02*
X47250000Y-89500000D01*
X107350000Y-140895100D02*
X108250000Y-140895100D01*
X101750000Y-136895100D02*
X101750000Y-135500000D01*
X40000000Y-74000000D02*
X40000000Y-76000000D01*
X40000000Y-54000000D02*
X40000000Y-54250000D01*
X106604900Y-94750000D02*
X108750000Y-96895100D01*
X43250000Y-104750000D02*
X45000000Y-104750000D01*
X41750000Y-56750000D02*
X40000000Y-58500000D01*
X102250000Y-81645100D02*
X102895100Y-81645100D01*
X106604900Y-50750000D02*
X108500000Y-52645100D01*
X46750000Y-68500000D02*
X46750000Y-70000000D01*
X102250000Y-92645100D02*
X108750000Y-86145100D01*
X40000000Y-84750000D02*
X40000000Y-87000000D01*
X102104900Y-59895100D02*
X103500000Y-58500000D01*
X107000000Y-72750000D02*
X107000000Y-72895100D01*
X42750000Y-116000000D02*
X44500000Y-116000000D01*
X102000000Y-59895100D02*
X102104900Y-59895100D01*
X41600000Y-96000000D02*
X45850000Y-91750000D01*
X101750000Y-136895100D02*
X103350000Y-136895100D01*
D23*
X40000000Y-52000000D02*
X42000000Y-50000000D01*
D22*
X105341800Y-60736900D02*
X108500000Y-63895100D01*
X102650000Y-114645100D02*
X106900000Y-118895100D01*
X102500000Y-134750000D02*
X103395100Y-134750000D01*
X101750000Y-136895100D02*
X94904899Y-136895100D01*
X46500000Y-48000000D02*
X47250000Y-48000000D01*
X101750000Y-114145100D02*
X108250000Y-107645100D01*
X45850000Y-91750000D02*
X46750000Y-91750000D01*
X47250000Y-78500000D02*
X47250000Y-80250000D01*
X105000000Y-94750000D02*
X106604900Y-94750000D01*
X105750000Y-50750000D02*
X105750000Y-51250000D01*
X102354900Y-81645100D02*
X103500000Y-80500000D01*
X109500000Y-35500000D02*
X109750000Y-35250000D01*
X45850000Y-80750000D02*
X41850000Y-84750000D01*
X101750000Y-103645100D02*
X102650000Y-103645100D01*
X56750000Y-34831200D02*
X60031200Y-34831200D01*
X94395100Y-135145100D02*
X89750000Y-130500000D01*
X102395100Y-70645100D02*
X104500000Y-72750000D01*
X102895100Y-92645100D02*
X105000000Y-94750000D01*
X102250000Y-92645100D02*
X102895100Y-92645100D01*
X60250000Y-35050000D02*
X60000000Y-35050000D01*
X102250000Y-48645100D02*
X104354900Y-50750000D01*
X41000000Y-107000000D02*
X42875000Y-105125000D01*
X88500000Y-41750000D02*
X89750000Y-43000000D01*
X106900000Y-129895100D02*
X108250000Y-129895100D01*
X107750000Y-35500000D02*
X108750000Y-36500000D01*
X106900000Y-118895100D02*
X108500000Y-118895100D01*
X101750000Y-125645100D02*
X102354900Y-125645100D01*
X41850000Y-84750000D02*
X40000000Y-84750000D01*
X47250000Y-68250000D02*
X47000000Y-68250000D01*
X40000000Y-107000000D02*
X40000000Y-108750000D01*
X102354900Y-125645100D02*
X103250000Y-124750000D01*
X44750000Y-72000000D02*
X46750000Y-70000000D01*
X102250000Y-81645100D02*
X103150000Y-81645100D01*
X46750000Y-80750000D02*
X45850000Y-80750000D01*
X101750000Y-114645100D02*
X102650000Y-114645100D01*
X40000000Y-74000000D02*
X42000000Y-72000000D01*
X108500000Y-63895100D02*
X108500000Y-65750000D01*
X102841800Y-60736900D02*
X105341800Y-60736900D01*
X105250000Y-50750000D02*
X105250000Y-50250000D01*
X47750000Y-67750000D02*
X47250000Y-68250000D01*
X41000000Y-117750000D02*
X42750000Y-116000000D01*
X106854900Y-83750000D02*
X108750000Y-85645100D01*
X47250000Y-48000000D02*
X48250000Y-47000000D01*
X108500000Y-65750000D02*
X107500000Y-66750000D01*
D23*
X47000000Y-36500000D02*
X45356600Y-34856600D01*
D22*
X102000000Y-37645100D02*
X102000000Y-36000000D01*
X40000000Y-117750000D02*
X38000000Y-117750000D01*
D23*
X45356600Y-34856600D02*
X40643400Y-34856600D01*
D22*
X47250000Y-80250000D02*
X46750000Y-80750000D01*
X46750000Y-113750000D02*
X48500000Y-112000000D01*
X103350000Y-136895100D02*
X107350000Y-140895100D01*
X40000000Y-54000000D02*
X40000000Y-56500000D01*
X101750000Y-114645100D02*
X101750000Y-112250000D01*
X108750000Y-36500000D02*
X108750000Y-37645100D01*
X47000000Y-68250000D02*
X46750000Y-68500000D01*
X105750000Y-51250000D02*
X105500000Y-51500000D01*
X108104900Y-37645100D02*
X107250000Y-38500000D01*
X47000000Y-58500000D02*
X45250000Y-56750000D01*
X45000000Y-104750000D02*
X46750000Y-103000000D01*
X105250000Y-50250000D02*
X105500000Y-50000000D01*
X102000000Y-37645100D02*
X102895100Y-37645100D01*
X101854900Y-103645100D02*
X103000000Y-102500000D01*
X45250000Y-56750000D02*
X41750000Y-56750000D01*
X40000000Y-107000000D02*
X41000000Y-107000000D01*
X48500000Y-112000000D02*
X48500000Y-111750000D01*
X42000000Y-72000000D02*
X44750000Y-72000000D01*
X102000000Y-70645100D02*
X102000000Y-70395100D01*
X102250000Y-92645100D02*
X102250000Y-90500000D01*
X108750000Y-96895100D02*
X108750000Y-98750000D01*
X94000000Y-137799999D02*
X94395100Y-137404899D01*
X102650000Y-125645100D02*
X106900000Y-129895100D01*
X101750000Y-114645100D02*
X101750000Y-114145100D01*
X44500000Y-116000000D02*
X46750000Y-113750000D01*
X46750000Y-91750000D02*
X46750000Y-90000000D01*
X102895100Y-37645100D02*
X103500000Y-38250000D01*
X40000000Y-96000000D02*
X40000000Y-98000000D01*
X40000000Y-96000000D02*
X41600000Y-96000000D01*
X108750000Y-85645100D02*
X108750000Y-87250000D01*
X102000000Y-70645100D02*
X102000000Y-68500000D01*
X102000000Y-36000000D02*
X102500000Y-35500000D01*
X107750000Y-35500000D02*
X109500000Y-35500000D01*
X42500000Y-104750000D02*
X42250000Y-104750000D01*
X47000000Y-58500000D02*
X47000000Y-56500000D01*
X108750000Y-37645100D02*
X108104900Y-37645100D01*
X94395100Y-137404899D02*
X94395100Y-135145100D01*
X42875000Y-105125000D02*
X42500000Y-104750000D01*
X60031200Y-34831200D02*
X60250000Y-35050000D01*
X102500000Y-35500000D02*
X107750000Y-35500000D01*
X101750000Y-135500000D02*
X102500000Y-134750000D01*
X104354900Y-50750000D02*
X105250000Y-50750000D01*
X108250000Y-129500000D02*
X106750000Y-128000000D01*
X103395100Y-134750000D02*
X108250000Y-129895100D01*
X108750000Y-87250000D02*
X109250000Y-87750000D01*
D23*
X44000000Y-50000000D02*
X46000000Y-48000000D01*
D22*
X108250000Y-140895100D02*
X108250000Y-143000000D01*
X102000000Y-59895100D02*
X102841800Y-60736900D01*
X105750000Y-50750000D02*
X106604900Y-50750000D01*
D23*
X42000000Y-50000000D02*
X44000000Y-50000000D01*
D22*
X42875000Y-105125000D02*
X43250000Y-104750000D01*
X94904899Y-136895100D02*
X94000000Y-137799999D01*
X108250000Y-129895100D02*
X108250000Y-129500000D01*
X101750000Y-125645100D02*
X102650000Y-125645100D01*
X108250000Y-107645100D02*
X108250000Y-107250000D01*
X106650000Y-107645100D02*
X108250000Y-107645100D01*
X108750000Y-74645100D02*
X108750000Y-76750000D01*
D10*
%TO.N,Row3*%
X61770000Y-116480000D02*
X61770000Y-127250000D01*
X65749000Y-114750000D02*
X65749000Y-64501000D01*
X65749000Y-64501000D02*
X66750000Y-63500000D01*
X65749000Y-114750000D02*
X65750000Y-114750000D01*
X63000000Y-115250000D02*
X61770000Y-116480000D01*
%TO.N,LATCH*%
X62750000Y-40750000D02*
X83250000Y-40750000D01*
X91877887Y-104000000D02*
X91560100Y-104317787D01*
X40750000Y-129000000D02*
X40750000Y-125250000D01*
X40750000Y-125250000D02*
X43750000Y-122250000D01*
X53500000Y-130250000D02*
X48000000Y-130250000D01*
X47750000Y-120500000D02*
X52750000Y-120500000D01*
X100000000Y-67500000D02*
X100000000Y-69500000D01*
X93000000Y-59750000D02*
X95500000Y-62250000D01*
X59250000Y-44250000D02*
X62750000Y-40750000D01*
X43750000Y-122250000D02*
X46000000Y-122250000D01*
X93000000Y-53000000D02*
X93000000Y-59750000D01*
X95500000Y-63000000D02*
X100000000Y-67500000D01*
X89500000Y-49250000D02*
X90250000Y-49250000D01*
X49070000Y-127250000D02*
X49070000Y-129180000D01*
X91560100Y-104317787D02*
X91560100Y-111689900D01*
X83250000Y-40750000D02*
X88250000Y-45750000D01*
X42750000Y-131000000D02*
X40750000Y-129000000D01*
X91560100Y-111689900D02*
X89000000Y-114250000D01*
X88250000Y-48000000D02*
X89500000Y-49250000D01*
X99500000Y-70000000D02*
X99500000Y-79250000D01*
X99500000Y-79250000D02*
X98000000Y-80750000D01*
X95500000Y-62250000D02*
X95500000Y-63000000D01*
X90250000Y-49250000D02*
X90500000Y-49500000D01*
X46000000Y-122250000D02*
X47750000Y-120500000D01*
X47250000Y-131000000D02*
X42750000Y-131000000D01*
X59250000Y-46500000D02*
X59250000Y-44250000D01*
X100000000Y-69500000D02*
X99500000Y-70000000D01*
X88250000Y-45750000D02*
X88250000Y-48000000D01*
X98000000Y-80750000D02*
X98000000Y-98242313D01*
X49070000Y-129180000D02*
X48000000Y-130250000D01*
X92242313Y-104000000D02*
X91877887Y-104000000D01*
X98000000Y-98242313D02*
X92242313Y-104000000D01*
X93500000Y-50750000D02*
X93500000Y-52500000D01*
X48000000Y-130250000D02*
X47250000Y-131000000D01*
X93500000Y-52500000D02*
X93000000Y-53000000D01*
%TO.N,DATA*%
X56750000Y-122000000D02*
X49750000Y-122000000D01*
X57810100Y-116189900D02*
X57810100Y-120939900D01*
X59000000Y-74432900D02*
X58250000Y-75182900D01*
X49750000Y-122000000D02*
X47000000Y-124750000D01*
X47000000Y-126780000D02*
X46530000Y-127250000D01*
X58250000Y-115750000D02*
X57810100Y-116189900D01*
X47000000Y-124750000D02*
X47000000Y-126780000D01*
X57810100Y-120939900D02*
X56750000Y-122000000D01*
X58250000Y-75182900D02*
X58250000Y-115750000D01*
X59000000Y-47750000D02*
X59000000Y-74432900D01*
%TO.N,Row4*%
X59230000Y-127250000D02*
X59230000Y-74770000D01*
X59230000Y-74770000D02*
X63000000Y-71000000D01*
%TO.N,PWM*%
X56250000Y-73499999D02*
X57000000Y-72750000D01*
X55750000Y-85000000D02*
X55750000Y-79500000D01*
X56250000Y-74250000D02*
X56250000Y-73499999D01*
X56000000Y-79250000D02*
X57000000Y-78250000D01*
X86000000Y-41000000D02*
X88750000Y-43750000D01*
X56445000Y-69195000D02*
X56445000Y-67805000D01*
X91000000Y-72682900D02*
X91000000Y-69750000D01*
X93250000Y-76750000D02*
X92651000Y-76151000D01*
X58500000Y-43000000D02*
X58500000Y-45500000D01*
X39500000Y-130000000D02*
X42750000Y-133250000D01*
X57000000Y-75000000D02*
X56250000Y-74250000D01*
X92750000Y-128500000D02*
X92750000Y-124750000D01*
X50750000Y-118750000D02*
X52000000Y-118750000D01*
X59750000Y-41750000D02*
X58500000Y-43000000D01*
X54750000Y-59500000D02*
X54750000Y-61000000D01*
X88750000Y-94750000D02*
X89000000Y-95000000D01*
X56000000Y-53500000D02*
X57500000Y-55000000D01*
X57000000Y-69750000D02*
X56445000Y-69195000D01*
X91666100Y-69542000D02*
X92292000Y-68916100D01*
X56750000Y-67500000D02*
X56750000Y-62250000D01*
X88750000Y-43750000D02*
X90750000Y-43750000D01*
X58500000Y-45500000D02*
X54250000Y-49750000D01*
X57000000Y-72750000D02*
X57000000Y-69750000D01*
X56628547Y-56871453D02*
X55500000Y-58000000D01*
X56665877Y-56871453D02*
X56628547Y-56871453D01*
X54250000Y-51000000D02*
X56000000Y-52750000D01*
X53250000Y-117500000D02*
X53250000Y-108250000D01*
X55750000Y-79500000D02*
X56000000Y-79250000D01*
X57000000Y-78250000D02*
X57000000Y-75000000D01*
X56000000Y-52750000D02*
X56000000Y-53500000D01*
X92651000Y-76151000D02*
X92651000Y-74333900D01*
X92292000Y-67208000D02*
X92500000Y-67000000D01*
X55500000Y-61750000D02*
X56250000Y-61750000D01*
X89000000Y-102750000D02*
X89000000Y-107000000D01*
X92000000Y-129250000D02*
X92750000Y-128500000D01*
X91208000Y-69542000D02*
X91666100Y-69542000D01*
X56250000Y-61750000D02*
X56500000Y-62000000D01*
X57500000Y-55000000D02*
X57500000Y-56037330D01*
X57500000Y-56037330D02*
X56665877Y-56871453D01*
X56750000Y-62250000D02*
X56500000Y-62000000D01*
X91000000Y-69750000D02*
X91208000Y-69542000D01*
X56445000Y-67805000D02*
X56750000Y-67500000D01*
X89000000Y-95000000D02*
X89000000Y-100250000D01*
X39500000Y-124500000D02*
X39500000Y-130000000D01*
X53250000Y-108250000D02*
X54000000Y-107500000D01*
X54250000Y-49750000D02*
X54250000Y-51000000D01*
X55500000Y-58750000D02*
X54750000Y-59500000D01*
X86000000Y-37250000D02*
X86000000Y-41000000D01*
X92750000Y-124750000D02*
X92000000Y-124000000D01*
X40750000Y-123250000D02*
X39500000Y-124500000D01*
X54750000Y-61000000D02*
X55500000Y-61750000D01*
X55500000Y-58000000D02*
X55500000Y-58750000D01*
X92651000Y-74333900D02*
X91000000Y-72682900D01*
X92292000Y-68916100D02*
X92292000Y-67208000D01*
X51500000Y-133250000D02*
X52750000Y-132000000D01*
X42750000Y-133250000D02*
X51500000Y-133250000D01*
X56000000Y-85250000D02*
X55750000Y-85000000D01*
X52000000Y-118750000D02*
X53250000Y-117500000D01*
%TO.N,STBY*%
X56250000Y-40750000D02*
X55905800Y-40405800D01*
X93500000Y-106000000D02*
X92000000Y-104500000D01*
X55500000Y-59500000D02*
X57000000Y-59500000D01*
X85750000Y-36250000D02*
X87250000Y-34750000D01*
X57750000Y-72250000D02*
X58250000Y-72750000D01*
X58250000Y-74250000D02*
X57500000Y-75000000D01*
X56607348Y-38250000D02*
X56750000Y-38250000D01*
X57750000Y-60250000D02*
X57750000Y-72250000D01*
X93000000Y-38250000D02*
X93000000Y-38908886D01*
X93000000Y-38908886D02*
X92579443Y-39329443D01*
X57500000Y-75000000D02*
X57500000Y-80500000D01*
X85500000Y-37000000D02*
X85750000Y-36750000D01*
X58250000Y-72750000D02*
X58250000Y-74250000D01*
X85500000Y-37750000D02*
X85500000Y-37000000D01*
X93500000Y-126000000D02*
X93500000Y-106000000D01*
X84500000Y-38750000D02*
X85500000Y-37750000D01*
X63500000Y-38750000D02*
X84500000Y-38750000D01*
X87250000Y-34750000D02*
X89500000Y-34750000D01*
X63000000Y-39250000D02*
X63500000Y-38750000D01*
X95000000Y-85500000D02*
X93500000Y-84000000D01*
X55905800Y-40405800D02*
X55905800Y-38951548D01*
X85750000Y-36750000D02*
X85750000Y-36250000D01*
X89500000Y-34750000D02*
X93000000Y-38250000D01*
X55905800Y-38951548D02*
X56607348Y-38250000D01*
X57500000Y-80500000D02*
X56250000Y-81750000D01*
X57000000Y-59500000D02*
X57750000Y-60250000D01*
X95000000Y-98750000D02*
X95000000Y-85500000D01*
X93250000Y-100500000D02*
X95000000Y-98750000D01*
%TO.N,Row2*%
X64000000Y-126940000D02*
X64000000Y-53500000D01*
X64310000Y-127250000D02*
X64000000Y-126940000D01*
%TO.N,Row1*%
X66850000Y-127250000D02*
X66850000Y-73277887D01*
X66850000Y-73277887D02*
X69750000Y-70377887D01*
X69750000Y-70377887D02*
X69750000Y-45750000D01*
%TO.N,Col1*%
X76250000Y-124500000D02*
X77000000Y-125250000D01*
X71250000Y-124500000D02*
X76250000Y-124500000D01*
X70250000Y-123500000D02*
X71250000Y-124500000D01*
%TO.N,Col3*%
X82750000Y-51000000D02*
X82750000Y-60500000D01*
X82750000Y-60500000D02*
X82000000Y-61250000D01*
X82000000Y-61250000D02*
X82000000Y-61500000D01*
X80750000Y-49000000D02*
X82750000Y-51000000D01*
%TO.N,Col2*%
X72250000Y-59750000D02*
X72250000Y-61750000D01*
X69750000Y-71000000D02*
X69750000Y-72500000D01*
X80000000Y-52000000D02*
X72250000Y-59750000D01*
X72750000Y-80750000D02*
X74500000Y-80750000D01*
X80000000Y-49500000D02*
X80000000Y-52000000D01*
X74500000Y-80750000D02*
X75250000Y-81500000D01*
X79250000Y-48750000D02*
X80000000Y-49500000D01*
%TO.N,CLOCK*%
X86250000Y-113000000D02*
X86250000Y-92500000D01*
X82250000Y-130500000D02*
X74000000Y-138750000D01*
X45000000Y-138750000D02*
X43990000Y-139760000D01*
X50750000Y-114250000D02*
X52000000Y-113000000D01*
X82750000Y-41750000D02*
X87750000Y-46750000D01*
X87750000Y-48500000D02*
X89250000Y-50000000D01*
X52000000Y-108000000D02*
X54000000Y-106000000D01*
X60000000Y-47250000D02*
X60500000Y-46750000D01*
X82250000Y-126250000D02*
X82250000Y-130500000D01*
X43990000Y-142490000D02*
X43990000Y-140490000D01*
X87750000Y-46750000D02*
X87750000Y-48500000D01*
X85750000Y-122750000D02*
X82250000Y-126250000D01*
X43990000Y-139760000D02*
X43990000Y-142490000D01*
X60500000Y-44500000D02*
X63250000Y-41750000D01*
X55250000Y-50250000D02*
X55250000Y-49750000D01*
X85750000Y-118750000D02*
X85750000Y-122750000D01*
X52000000Y-113000000D02*
X52000000Y-108000000D01*
X43990000Y-140490000D02*
X43250000Y-139750000D01*
X55250000Y-49750000D02*
X57750000Y-47250000D01*
X57750000Y-47250000D02*
X60000000Y-47250000D01*
X63250000Y-41750000D02*
X82750000Y-41750000D01*
X74000000Y-138750000D02*
X45000000Y-138750000D01*
X54000000Y-106000000D02*
X54000000Y-94250000D01*
X54000000Y-94250000D02*
X53750000Y-94000000D01*
X60500000Y-46750000D02*
X60500000Y-44500000D01*
X89250000Y-50000000D02*
X89750000Y-50000000D01*
%TO.N,Net-(D3-A)*%
X67599500Y-60849500D02*
X66750000Y-60000000D01*
X67599500Y-61150500D02*
X67599500Y-60849500D01*
%TO.N,Net-(D10-A)*%
X72750000Y-66000000D02*
X74500000Y-66000000D01*
X74500000Y-66000000D02*
X75000000Y-66500000D01*
%TO.N,Net-(D16-A)*%
X84750000Y-67750000D02*
X82500000Y-67750000D01*
D23*
%TO.N,S2_out1*%
X46000000Y-52500000D02*
X46500000Y-52000000D01*
X43500000Y-52500000D02*
X46000000Y-52500000D01*
%TO.N,S1_out2*%
X45500000Y-43000000D02*
X48500000Y-43000000D01*
X41500000Y-43000000D02*
X42500000Y-44000000D01*
X44500000Y-44000000D02*
X45500000Y-43000000D01*
X42500000Y-44000000D02*
X44500000Y-44000000D01*
X42500000Y-40000000D02*
X41500000Y-41000000D01*
X43500000Y-37000000D02*
X43500000Y-39000000D01*
X52500000Y-39000000D02*
X52500000Y-38000000D01*
X39500000Y-40000000D02*
X42500000Y-40000000D01*
X41500000Y-41000000D02*
X41500000Y-43000000D01*
X48500000Y-43000000D02*
X52500000Y-39000000D01*
X43500000Y-39000000D02*
X42500000Y-40000000D01*
%TO.N,S2_out2*%
X48500000Y-44500000D02*
X48500000Y-44438256D01*
X43500000Y-47500000D02*
X46500000Y-44500000D01*
X43500000Y-47500000D02*
X40500000Y-47500000D01*
X40500000Y-47500000D02*
X40000000Y-48000000D01*
X48500000Y-44438256D02*
X52719128Y-40219128D01*
X46500000Y-44500000D02*
X48500000Y-44500000D01*
D10*
%TO.N,S1_in1*%
X56500000Y-37000000D02*
X55000000Y-38500000D01*
X55000000Y-45750000D02*
X55250000Y-46000000D01*
X55000000Y-38500000D02*
X55000000Y-45750000D01*
D23*
%TO.N,S1_out1*%
X45000000Y-40500000D02*
X47000000Y-40500000D01*
X47000000Y-40500000D02*
X49500000Y-40500000D01*
X50500000Y-39500000D02*
X51000000Y-39000000D01*
X52000000Y-35500000D02*
X52500000Y-35000000D01*
X43500000Y-42000000D02*
X45000000Y-40500000D01*
X51000000Y-39000000D02*
X51000000Y-36500000D01*
X49500000Y-40500000D02*
X50500000Y-39500000D01*
X51000000Y-36500000D02*
X52000000Y-35500000D01*
D22*
%TO.N,S3_out2*%
X49750000Y-60250000D02*
X50750000Y-59250000D01*
X40000000Y-62500000D02*
X40000000Y-63750000D01*
D23*
X41000000Y-62500000D02*
X43500000Y-60000000D01*
D22*
X50750000Y-59250000D02*
X52250000Y-59250000D01*
D23*
X43500000Y-60000000D02*
X43500000Y-58500000D01*
D22*
X49750000Y-63000000D02*
X49750000Y-60250000D01*
X41500000Y-65250000D02*
X47500000Y-65250000D01*
D23*
X40000000Y-62500000D02*
X41000000Y-62500000D01*
D22*
X40000000Y-63750000D02*
X41500000Y-65250000D01*
X47500000Y-65250000D02*
X49750000Y-63000000D01*
%TO.N,S4_out2*%
X43000000Y-70000000D02*
X43500000Y-69500000D01*
X40000000Y-70000000D02*
X43000000Y-70000000D01*
D23*
%TO.N,S3_out1*%
X44500000Y-62500000D02*
X43500000Y-63500000D01*
D22*
X48750000Y-57250000D02*
X49500000Y-56500000D01*
X48750000Y-60750000D02*
X48750000Y-57250000D01*
D23*
X47000000Y-62500000D02*
X44500000Y-62500000D01*
D22*
X49500000Y-56500000D02*
X52500000Y-56500000D01*
X47000000Y-62500000D02*
X48750000Y-60750000D01*
%TO.N,S4_out1*%
X46250000Y-74500000D02*
X46750000Y-74000000D01*
X43500000Y-74500000D02*
X46250000Y-74500000D01*
X48750000Y-66500000D02*
X50500000Y-64750000D01*
X46750000Y-74000000D02*
X48750000Y-72000000D01*
X48750000Y-72000000D02*
X48750000Y-66500000D01*
%TO.N,S6_out2*%
X40000000Y-92000000D02*
X43000000Y-92000000D01*
X43000000Y-92000000D02*
X43500000Y-91500000D01*
%TO.N,S5_out1*%
X46750000Y-84750000D02*
X48750000Y-82750000D01*
X46000000Y-85500000D02*
X46750000Y-84750000D01*
X48750000Y-82750000D02*
X48750000Y-78750000D01*
X43500000Y-85500000D02*
X46000000Y-85500000D01*
%TO.N,S5_out2*%
X46500000Y-77500000D02*
X49000000Y-77500000D01*
X43500000Y-80500000D02*
X46500000Y-77500000D01*
X40000000Y-80750000D02*
X43250000Y-80750000D01*
X43250000Y-80750000D02*
X43500000Y-80500000D01*
X49000000Y-77500000D02*
X52250000Y-80750000D01*
X52250000Y-80750000D02*
X52250000Y-81250000D01*
%TO.N,S6_out1*%
X48750000Y-87750000D02*
X49750000Y-86750000D01*
X46750000Y-95750000D02*
X48750000Y-93750000D01*
X44250000Y-95750000D02*
X43500000Y-96500000D01*
X49750000Y-86750000D02*
X50250000Y-86750000D01*
X46750000Y-95750000D02*
X44250000Y-95750000D01*
X48750000Y-93750000D02*
X48750000Y-87750000D01*
%TO.N,S8_out1*%
X46000000Y-118500000D02*
X46750000Y-117750000D01*
X43500000Y-118500000D02*
X46000000Y-118500000D01*
%TO.N,S7_out2*%
X45500000Y-100500000D02*
X47500000Y-100500000D01*
X48500000Y-101500000D02*
X48500000Y-104000000D01*
X43000000Y-103000000D02*
X43500000Y-102500000D01*
X47500000Y-100500000D02*
X48500000Y-101500000D01*
X43500000Y-102500000D02*
X45500000Y-100500000D01*
X40000000Y-103000000D02*
X43000000Y-103000000D01*
%TO.N,S7_out1*%
X43500000Y-107500000D02*
X46250000Y-107500000D01*
X46250000Y-107500000D02*
X46750000Y-107000000D01*
D10*
%TO.N,S7_in1*%
X52500000Y-93500000D02*
X52500000Y-94750000D01*
D22*
%TO.N,S8_out2*%
X48750000Y-108250000D02*
X48750000Y-105500000D01*
X43500000Y-113500000D02*
X48750000Y-108250000D01*
X43500000Y-113500000D02*
X40250000Y-113500000D01*
X40250000Y-113500000D02*
X40000000Y-113750000D01*
%TO.N,S9_out1*%
X105250000Y-37145100D02*
X105250000Y-38395100D01*
X100250000Y-42000000D02*
X96250000Y-42000000D01*
X102000000Y-41645100D02*
X100604900Y-41645100D01*
X105250000Y-38395100D02*
X102000000Y-41645100D01*
X100604900Y-41645100D02*
X100250000Y-42000000D01*
%TO.N,S10_out2*%
X108500000Y-48645100D02*
X108500000Y-46000000D01*
X105250000Y-53145100D02*
X107104900Y-55000000D01*
X110000000Y-55000000D02*
X110668800Y-54331200D01*
X110668800Y-54331200D02*
X110668800Y-50813900D01*
X107104900Y-55000000D02*
X110000000Y-55000000D01*
X110668800Y-50813900D02*
X108500000Y-48645100D01*
%TO.N,S10_out1*%
X101000000Y-46250000D02*
X103354900Y-46250000D01*
X102145100Y-52645100D02*
X100000000Y-50500000D01*
X102250000Y-52645100D02*
X102145100Y-52645100D01*
X101000000Y-46500000D02*
X101000000Y-46250000D01*
X100000000Y-50500000D02*
X100000000Y-47500000D01*
X103354900Y-46250000D02*
X105250000Y-48145100D01*
X100000000Y-47500000D02*
X101000000Y-46500000D01*
%TO.N,S9_out2*%
X105250000Y-42145100D02*
X108250000Y-42145100D01*
X108250000Y-42145100D02*
X108750000Y-41645100D01*
D10*
%TO.N,S10_in1*%
X94500000Y-50750000D02*
X96500000Y-52750000D01*
X93750000Y-39250000D02*
X94500000Y-40000000D01*
X94500000Y-40000000D02*
X94500000Y-50750000D01*
%TO.N,S9_in1*%
X94000000Y-42250000D02*
X94000000Y-52750000D01*
X94000000Y-52750000D02*
X93500000Y-53250000D01*
X93000000Y-41250000D02*
X94000000Y-42250000D01*
D22*
%TO.N,S12_out1*%
X104645100Y-74645100D02*
X105250000Y-75250000D01*
X102000000Y-74645100D02*
X104645100Y-74645100D01*
%TO.N,S11_out1*%
X102354900Y-64250000D02*
X102000000Y-63895100D01*
X105250000Y-64250000D02*
X102354900Y-64250000D01*
D10*
%TO.N,S12_in2*%
X98750000Y-56000000D02*
X99000000Y-55750000D01*
X99000000Y-55750000D02*
X99000000Y-47000000D01*
X94500000Y-59250000D02*
X97750000Y-56000000D01*
X97750000Y-56000000D02*
X98750000Y-56000000D01*
D22*
%TO.N,S12_out2*%
X110668800Y-58168800D02*
X109500000Y-57000000D01*
X110668800Y-68726300D02*
X110668800Y-58168800D01*
X105250000Y-70250000D02*
X108354900Y-70250000D01*
X108354900Y-70250000D02*
X108750000Y-70645100D01*
X108750000Y-70645100D02*
X110668800Y-68726300D01*
X109500000Y-57000000D02*
X101750000Y-57000000D01*
X101750000Y-57000000D02*
X101250000Y-57500000D01*
%TO.N,S11_out2*%
X107854900Y-59250000D02*
X108500000Y-59895100D01*
X105250000Y-59250000D02*
X107854900Y-59250000D01*
D10*
%TO.N,S12_in1*%
X96500000Y-48250000D02*
X95000000Y-49750000D01*
X95000000Y-57432900D02*
X95000000Y-52000000D01*
X94000000Y-59750000D02*
X94000000Y-58432900D01*
X95000000Y-49750000D02*
X95000000Y-50250000D01*
X94000000Y-58432900D02*
X95000000Y-57432900D01*
D22*
%TO.N,S14_out1*%
X104645100Y-96645100D02*
X105250000Y-97250000D01*
X102250000Y-96645100D02*
X104645100Y-96645100D01*
%TO.N,S14_out2*%
X100250000Y-80500000D02*
X100250000Y-81500000D01*
X105250000Y-92250000D02*
X108104900Y-92250000D01*
X101750000Y-79000000D02*
X100250000Y-80500000D01*
X108104900Y-92250000D02*
X108750000Y-92895100D01*
X110668800Y-80168800D02*
X109500000Y-79000000D01*
X109500000Y-79000000D02*
X101750000Y-79000000D01*
X105250000Y-92250000D02*
X107750000Y-89750000D01*
X109750000Y-89750000D02*
X110668800Y-88831200D01*
X110668800Y-88831200D02*
X110668800Y-80168800D01*
X107750000Y-89750000D02*
X109750000Y-89750000D01*
%TO.N,S13_out2*%
X108354900Y-81250000D02*
X108750000Y-81645100D01*
X105450001Y-81250000D02*
X108354900Y-81250000D01*
%TO.N,S13_out1*%
X102854900Y-86250000D02*
X102250000Y-85645100D01*
X105450001Y-86250000D02*
X102854900Y-86250000D01*
D10*
%TO.N,S13_in1*%
X94250000Y-96000000D02*
X93500000Y-96750000D01*
X94250000Y-86500000D02*
X94250000Y-96000000D01*
%TO.N,S16_in2*%
X95500000Y-92000000D02*
X95500000Y-99250000D01*
X96000000Y-91500000D02*
X95500000Y-92000000D01*
X95500000Y-99250000D02*
X92000000Y-102750000D01*
D22*
%TO.N,S15_out2*%
X104950001Y-103145100D02*
X107750000Y-103145100D01*
X107750000Y-103145100D02*
X108250000Y-103645100D01*
%TO.N,S15_out1*%
X101750000Y-107645100D02*
X104450001Y-107645100D01*
X104450001Y-107645100D02*
X104950001Y-108145100D01*
%TO.N,S16_out2*%
X104950001Y-114250000D02*
X107854900Y-114250000D01*
X110668800Y-109081200D02*
X110668800Y-102168800D01*
X108450001Y-110750000D02*
X109000000Y-110750000D01*
X101750000Y-100500000D02*
X99500000Y-102750000D01*
X109000000Y-110750000D02*
X110668800Y-109081200D01*
X99500000Y-102750000D02*
X99500000Y-103500000D01*
X109000000Y-100500000D02*
X101750000Y-100500000D01*
X107854900Y-114250000D02*
X108500000Y-114895100D01*
X104950001Y-114250000D02*
X108450001Y-110750000D01*
X110668800Y-102168800D02*
X109000000Y-100500000D01*
%TO.N,S16_out1*%
X101750000Y-118645100D02*
X104345101Y-118645100D01*
X104345101Y-118645100D02*
X104950001Y-119250000D01*
D10*
%TO.N,S16_in1*%
X96250000Y-99250000D02*
X96250000Y-94000000D01*
X92000000Y-103500000D02*
X96250000Y-99250000D01*
D22*
%TO.N,S18_out1*%
X101750000Y-140895100D02*
X104595101Y-140895100D01*
X104595101Y-140895100D02*
X104950001Y-141250000D01*
D10*
%TO.N,S17_in1*%
X86250000Y-128000000D02*
X89250000Y-128000000D01*
X85750000Y-127500000D02*
X86250000Y-128000000D01*
D22*
%TO.N,S17_out1*%
X104345101Y-129645100D02*
X104950001Y-130250000D01*
X101750000Y-129645100D02*
X104345101Y-129645100D01*
%TO.N,S18_out2*%
X106500000Y-136250000D02*
X110668800Y-132081200D01*
X110668800Y-124168800D02*
X109000000Y-122500000D01*
X109000000Y-122500000D02*
X102000000Y-122500000D01*
X104950001Y-136250000D02*
X106500000Y-136250000D01*
X107604900Y-136250000D02*
X108250000Y-136895100D01*
X104950001Y-136250000D02*
X107604900Y-136250000D01*
X110668800Y-132081200D02*
X110668800Y-124168800D01*
X99750000Y-124750000D02*
X99750000Y-125500000D01*
X102000000Y-122500000D02*
X99750000Y-124750000D01*
%TO.N,S17_out2*%
X104950001Y-125250000D02*
X107604900Y-125250000D01*
X107604900Y-125250000D02*
X108250000Y-125895100D01*
D10*
%TO.N,Overflow1*%
X58250000Y-70500000D02*
X58250000Y-54000000D01*
X58250000Y-54000000D02*
X57750000Y-53500000D01*
%TO.N,Row6*%
X54150000Y-127250000D02*
X54150000Y-126100000D01*
X61250000Y-115250000D02*
X61250000Y-86000000D01*
X58250000Y-122000000D02*
X58250000Y-116500000D01*
X61250000Y-86000000D02*
X62000000Y-85250000D01*
X54150000Y-126100000D02*
X58250000Y-122000000D01*
%TO.N,Overflow2*%
X62859000Y-80359000D02*
X62859000Y-92391000D01*
X89250000Y-52250000D02*
X82310100Y-45310100D01*
X82310100Y-45310100D02*
X69567787Y-45310100D01*
X90000000Y-52250000D02*
X89250000Y-52250000D01*
X63439900Y-51437987D02*
X63439900Y-78560100D01*
X63439900Y-78560100D02*
X62250000Y-79750000D01*
X69567787Y-45310100D02*
X63439900Y-51437987D01*
X62250000Y-79750000D02*
X62859000Y-80359000D01*
X62859000Y-92391000D02*
X61750000Y-93500000D01*
%TO.N,Overflow3*%
X90689900Y-90432213D02*
X90432213Y-90689900D01*
X90939900Y-49317787D02*
X90939900Y-49682213D01*
X90682213Y-49060100D02*
X90939900Y-49317787D01*
X89750000Y-51849000D02*
X89778887Y-51849000D01*
X89939900Y-82817787D02*
X89939900Y-83182213D01*
X89817787Y-51810100D02*
X90182213Y-51810100D01*
X89778887Y-51849000D02*
X89817787Y-51810100D01*
X90416100Y-48849000D02*
X90627200Y-49060100D01*
X90182213Y-52689900D02*
X89817787Y-52689900D01*
X90439900Y-52067787D02*
X90439900Y-52432213D01*
X89750000Y-50750000D02*
X89750000Y-51849000D01*
X90627200Y-49060100D02*
X90682213Y-49060100D01*
X89750000Y-52651000D02*
X89750000Y-82627887D01*
X89750000Y-94750000D02*
X90500000Y-95500000D01*
X90682213Y-49939900D02*
X90560100Y-49939900D01*
X89750000Y-91317100D02*
X89750000Y-94750000D01*
X90432213Y-89810100D02*
X90689900Y-90067787D01*
X89750000Y-90182900D02*
X89810100Y-90122800D01*
X90689900Y-90067787D02*
X90689900Y-90432213D01*
X90560100Y-49939900D02*
X89750000Y-50750000D01*
X89750000Y-47050000D02*
X89750000Y-48849000D01*
X89810100Y-90122800D02*
X89810100Y-90067787D01*
X89778887Y-52651000D02*
X89750000Y-52651000D01*
X89817787Y-52689900D02*
X89778887Y-52651000D01*
X90439900Y-52432213D02*
X90182213Y-52689900D01*
X92025000Y-44775000D02*
X89750000Y-47050000D01*
X89750000Y-48849000D02*
X90416100Y-48849000D01*
X89750000Y-83372113D02*
X89750000Y-90182900D01*
X89750000Y-82627887D02*
X89939900Y-82817787D01*
X90432213Y-90689900D02*
X90377200Y-90689900D01*
X90067787Y-89810100D02*
X90432213Y-89810100D01*
X90182213Y-51810100D02*
X90439900Y-52067787D01*
X89939900Y-83182213D02*
X89750000Y-83372113D01*
X90377200Y-90689900D02*
X89750000Y-91317100D01*
X89810100Y-90067787D02*
X90067787Y-89810100D01*
X90939900Y-49682213D02*
X90682213Y-49939900D01*
%TO.N,Row5*%
X56690000Y-127250000D02*
X56690000Y-125310000D01*
X59750000Y-77000000D02*
X62750000Y-74000000D01*
X59750000Y-123500000D02*
X59750000Y-77000000D01*
X56690000Y-125310000D02*
X58250000Y-123750000D01*
X64750000Y-74250000D02*
X64750000Y-76500000D01*
%TO.N,Overflow4*%
X86750000Y-114250000D02*
X90000000Y-117500000D01*
X90250000Y-90250000D02*
X86750000Y-93750000D01*
X86750000Y-93750000D02*
X86750000Y-114250000D01*
%TD*%
M02*
